<?xml version="1.0" encoding="UTF-8"?>
<svg id="Layer_1" data-name="Layer 1" xmlns="http://www.w3.org/2000/svg" xmlns:xlink="http://www.w3.org/1999/xlink" viewBox="0 0 64 64">
  <defs>
    <style>
      .cls-1 {
        fill: url(#linear-gradient-2);
      }

      .cls-2 {
        fill: #740033;
        fill-rule: evenodd;
      }

      .cls-3 {
        fill: #1b143b;
      }

      .cls-4 {
        fill: #d70033;
      }

      .cls-5 {
        fill: #4b5960;
      }

      .cls-6 {
        fill: url(#linear-gradient);
      }

      .cls-7 {
        fill: #56c8ff;
      }

      .cls-8 {
        fill: #4b9a58;
      }
    </style>
    <linearGradient id="linear-gradient" x1="5.3943" y1="35.6828" x2="45.758" y2="-11.0081" gradientUnits="userSpaceOnUse">
      <stop offset=".2111" stop-color="#d3631a"/>
      <stop offset=".3613" stop-color="#f7bd29"/>
      <stop offset=".4475" stop-color="#fff"/>
      <stop offset=".5195" stop-color="#fc0"/>
    </linearGradient>
    <linearGradient id="linear-gradient-2" x1="29.7708" y1="56.7559" x2="70.1344" y2="10.065" gradientUnits="userSpaceOnUse">
      <stop offset=".1165" stop-color="#d3631a"/>
      <stop offset=".3085" stop-color="#f7bd29"/>
      <stop offset=".4475" stop-color="#fff"/>
      <stop offset=".5723" stop-color="#fc0"/>
    </linearGradient>
  </defs>
  <path class="cls-7" d="m15.9079,30.0162c1.2754-3.1754.1135-6.7211-2.5967-8.5782.1924-.3058.3642-.6296.5037-.9767.8511-2.119.4247-4.4318-.9109-6.0932.8109-.7159,1.4761-1.621,1.9067-2.6932,1.4755-3.6734-.3063-7.8474-3.9797-9.3228-3.6734-1.4755-7.8474.3063-9.3228,3.9797-1.1605,2.8892-.2997,6.0823,1.9053,8.0343-.3691.4585-.6787.9775-.9095,1.5521-.9509,2.3676-.308,4.9775,1.4178,6.6495-.5423.6054-.9959,1.3076-1.3164,2.1055-1.4755,3.6733.3063,7.8473,3.9797,9.3228.1291.0519.2599.0904.3901.1343-.7242,2.0449.2742,4.3139,2.3061,5.1299,2.0852.8376,4.4546-.1739,5.2922-2.2591.5867-1.4609.2513-3.0503-.7103-4.1656.8755-.7332,1.5892-1.6853,2.0447-2.8192Z"/>
  <path class="cls-5" d="m62.2396,43.3212c-1.1701-2.0747-10.0712-17.6355-17.3628-22.5417-3.713-2.4954-5.956-2.9232-8.1291-3.3346-.5899-.1134-1.1952-.2261-1.8607-.3998-.4749-.1241-1.1472-.2301-1.9393-.3464-1.7256-.2535-4.3323-.6369-5.813-1.7803-3.4511-2.6702-6.9975-5.8155-9.0478-7.6814-.0753-.7281-.3811-1.4444-.9255-2.0255l-1.8688-1.9852c-.6291-.6717-1.5083-1.0711-2.414-1.0979-.8691-.0264-1.7216.289-2.3524.8856l-5.3268,5.0117c-.6384.5988-1.0039,1.415-1.0297,2.2976-.0269.9037.3176,1.8051.9446,2.4712l1.8728,1.9908c.5443.5772,1.2366.9268,1.9613,1.0421,1.7254,2.1434,4.6339,5.8529,7.1145,9.5036,1.0534,1.5485,1.2751,4.1737,1.4224,5.911.0686.7957.134,1.4723.2279,1.9571.1327.6737.2088,1.2844.2843,1.8816.2802,2.1916.5694,4.4579,2.8317,8.3143,4.4517,7.5812,19.4322,17.415,21.439,18.7111.6555.5686,1.4851.8873,2.3677.9151.0964.0036.1888.0035.2848-.0006.9106-.0389,1.7689-.3988,2.4349-1.0277l14.454-13.5958c1.4323-1.3429,1.5924-3.5436.43-5.076Z"/>
  <path class="cls-8" d="m60.1145,44.7698s-.9714-1.7473-2.5206-4.272c-.4306-.7013-.9132-1.4699-1.4259-2.2725-2.1605-3.3822-4.9649-7.4474-7.8267-10.7273-.582-.6673-1.1642-1.3006-1.7448-1.8873-1.0717-1.0829-2.1332-2.0237-3.1501-2.7078-4.3206-2.9055-6.2102-2.6004-9.2047-3.3813-1.6365-.4264-5.9925-.5073-8.6721-2.5797-4.318-3.339-8.72-7.3539-10.2763-8.7955l.0324-.0304c.3086-.2902.296-.8051-.0283-1.15l-1.8713-1.9896c-.3243-.3447-.8376-.3885-1.1462-.0983l-5.3284,5.0121c-.3089.2905-.2962.8053.028,1.15l1.8715,1.9896c.3243.3449.8373.3888,1.1462.0983l.0322-.0304c1.3436,1.6415,5.0819,6.2805,8.1509,10.7948,1.9045,2.8011,1.7189,7.1541,2.0446,8.8137.5965,3.0364.1764,4.9041,2.8124,9.394.6204,1.0566,1.4944,2.1736,2.5095,3.3095.5502.6155,1.1468,1.2354,1.7772,1.8571,3.0992,3.0572,6.985,6.1043,10.2288,8.4676.7698.5609,1.5075,1.0895,2.1814,1.5622,2.4254,1.7007,4.1102,2.7774,4.1102,2.7774.4689.4987,1.2603.5226,1.7587.054l1.9908-1.8723.5315-.5,9.4134-8.8546.5315-.4998,1.9905-1.8725c.4984-.4689.5226-1.2603.0535-1.7589Z"/>
  <path class="cls-6" d="m25.5696,16.942c-5.3487-4.1362-10.9058-9.3814-10.9058-9.3814-.6885-.732-1.7324-.9416-2.6228-.6135-.2968.1093-.5766.2784-.8206.5079l-.0002.0002-.2017.1897-1.2283,1.1553-.2017.1897c-.9762.9182-1.0234,2.4676-.1054,3.4436,0,0,4.8959,5.8672,8.6972,11.4589,1.9047,2.8012,1.7191,7.154,2.0448,8.8136,3.9058-.3518,7.4563-1.5181,9.7509-3.6765,2.2946-2.1584,3.6757-5.631,4.2657-9.5079-1.6366-.4265-5.9925-.5076-8.6721-2.5798Z"/>
  <path class="cls-8" d="m12.28,4.8782l-5.3284,5.0121c-.3087.2904-.2961.8053.0281,1.15l1.8714,1.9896c.3243.3447.8374.3888,1.1462.0984l5.3284-5.0121c.3087-.2904.2961-.8053-.0281-1.15l-1.8714-1.9896c-.3242-.3447-.8374-.3888-1.1461-.0983Z"/>
  <path class="cls-1" d="m39.3791,39.0549c-3.2813,3.0865-6.7947,5.6137-10.3337,7.5456,2.7274,2.6902,6.1469,5.3717,9.0013,7.4515,3.0934-1.7904,6.169-4.0518,9.0652-6.7761,2.8957-2.7238,5.3404-5.6546,7.3162-8.6322-1.9012-2.9763-4.369-6.5537-6.8875-9.4402-2.1443,3.4137-4.8809,6.7654-8.1616,9.8513Z"/>
  <ellipse class="cls-3" cx="37.8898" cy="37.4429" rx="8.1151" ry="10.1637" transform="translate(-15.3632 36.1299) rotate(-43.2477)"/>
  <ellipse class="cls-4" cx="37.8898" cy="37.4429" rx="4.7424" ry="5.9396" transform="translate(-15.3632 36.1299) rotate(-43.2477)"/>
  <path class="cls-2" d="m41.9594,38.941c-1.9078,1.7946-5.2764,1.3123-7.5239-1.0771-.8392-.8922-1.4022-1.9241-1.6805-2.9604-.5282,1.7966.0486,4.0538,1.6805,5.7887,2.2476,2.3894,5.6161,2.8716,7.5239,1.0771,1.1955-1.1245,1.5325-2.876,1.0654-4.6152-.1993.6779-.5427,1.2953-1.0654,1.7869Z"/>
</svg>