<?xml version="1.0" encoding="UTF-8" standalone="no"?>
<!DOCTYPE svg PUBLIC "-//W3C//DTD SVG 1.1//EN" "http://www.w3.org/Graphics/SVG/1.1/DTD/svg11.dtd">
<svg width="100%" height="100%" viewBox="0 0 16 16" version="1.1" xmlns="http://www.w3.org/2000/svg" xmlns:xlink="http://www.w3.org/1999/xlink" xml:space="preserve" xmlns:serif="http://www.serif.com/" style="fill-rule:evenodd;clip-rule:evenodd;stroke-linejoin:round;stroke-miterlimit:2;">
    <g transform="matrix(1.09798,0,0,1.09798,-3.15143,10.8663)">
        <g transform="matrix(16.6865,0,0,18,10.2012,4.49978)">
            <path d="M0.365,-0.634C0.365,-0.669 0.363,-0.698 0.359,-0.722C0.354,-0.744 0.346,-0.76 0.334,-0.772C0.32,-0.783 0.303,-0.791 0.283,-0.795C0.26,-0.798 0.232,-0.8 0.2,-0.8C0.168,-0.8 0.141,-0.798 0.117,-0.795C0.096,-0.791 0.079,-0.783 0.067,-0.772C0.055,-0.76 0.047,-0.743 0.043,-0.722C0.038,-0.702 0.036,-0.672 0.036,-0.634L0.036,-0.157C0.036,-0.119 0.038,-0.089 0.043,-0.069C0.047,-0.047 0.055,-0.03 0.067,-0.019C0.079,-0.007 0.096,0.001 0.117,0.004C0.138,0.008 0.166,0.01 0.2,0.01C0.235,0.01 0.262,0.008 0.283,0.004C0.304,0.001 0.321,-0.007 0.334,-0.019C0.346,-0.03 0.354,-0.046 0.359,-0.069C0.363,-0.093 0.365,-0.122 0.365,-0.157L0.365,-0.634ZM0.249,-0.157C0.249,-0.141 0.249,-0.13 0.248,-0.125C0.247,-0.118 0.245,-0.111 0.241,-0.105C0.237,-0.099 0.231,-0.096 0.225,-0.095C0.217,-0.093 0.208,-0.092 0.199,-0.092C0.19,-0.092 0.182,-0.093 0.175,-0.095C0.168,-0.096 0.163,-0.099 0.16,-0.104C0.156,-0.109 0.154,-0.116 0.153,-0.124C0.152,-0.134 0.151,-0.146 0.151,-0.157L0.151,-0.634C0.151,-0.66 0.154,-0.677 0.16,-0.685C0.166,-0.693 0.18,-0.697 0.201,-0.697C0.209,-0.697 0.217,-0.696 0.226,-0.695C0.233,-0.693 0.238,-0.69 0.241,-0.686C0.245,-0.68 0.247,-0.674 0.248,-0.667C0.249,-0.661 0.249,-0.65 0.249,-0.634L0.249,-0.157Z" style="fill:rgb(158,168,196);fill-rule:nonzero;"/>
        </g>
        <g transform="matrix(16.6865,0,0,18,3.31635,4.49978)">
            <path d="M0.372,-0L0.372,-0.293L0.255,-0.293L0.255,-0.102L0.158,-0.102L0.158,-0.274C0.158,-0.283 0.159,-0.292 0.16,-0.301C0.161,-0.31 0.163,-0.317 0.165,-0.321C0.168,-0.326 0.172,-0.331 0.177,-0.336C0.183,-0.341 0.19,-0.346 0.197,-0.35L0.293,-0.407C0.306,-0.414 0.319,-0.423 0.333,-0.434C0.343,-0.444 0.351,-0.453 0.357,-0.464C0.363,-0.476 0.368,-0.489 0.369,-0.502C0.371,-0.516 0.372,-0.533 0.372,-0.554L0.372,-0.637C0.372,-0.673 0.37,-0.702 0.366,-0.723C0.362,-0.744 0.354,-0.761 0.342,-0.772C0.329,-0.784 0.313,-0.791 0.293,-0.795C0.27,-0.798 0.242,-0.8 0.21,-0.8C0.178,-0.8 0.15,-0.798 0.127,-0.795C0.106,-0.791 0.09,-0.783 0.077,-0.772C0.065,-0.76 0.057,-0.743 0.053,-0.722C0.048,-0.7 0.046,-0.671 0.046,-0.634L0.046,-0.536L0.158,-0.536L0.158,-0.634C0.158,-0.644 0.159,-0.654 0.16,-0.666C0.161,-0.674 0.164,-0.68 0.168,-0.685C0.171,-0.689 0.176,-0.693 0.183,-0.695C0.191,-0.696 0.199,-0.697 0.208,-0.697C0.229,-0.697 0.242,-0.693 0.248,-0.686C0.253,-0.678 0.256,-0.661 0.256,-0.637L0.256,-0.559C0.256,-0.541 0.253,-0.528 0.248,-0.518C0.243,-0.51 0.231,-0.5 0.214,-0.489L0.125,-0.435C0.111,-0.426 0.097,-0.416 0.083,-0.405C0.072,-0.396 0.063,-0.385 0.057,-0.371C0.051,-0.356 0.047,-0.338 0.045,-0.319C0.043,-0.298 0.042,-0.271 0.042,-0.238L0.042,-0L0.372,-0Z" style="fill:rgb(81,97,141);fill-rule:nonzero;"/>
        </g>
    </g>
</svg>
