<?xml version="1.0" encoding="UTF-8" standalone="no"?>
<!DOCTYPE svg PUBLIC "-//W3C//DTD SVG 1.1//EN" "http://www.w3.org/Graphics/SVG/1.1/DTD/svg11.dtd">
<svg width="100%" height="100%" viewBox="0 0 64 64" version="1.1" xmlns="http://www.w3.org/2000/svg" xmlns:xlink="http://www.w3.org/1999/xlink" xml:space="preserve" style="fill-rule:evenodd;clip-rule:evenodd;stroke-linejoin:round;stroke-miterlimit:1.41421;">
    <g id="Layer1">
        <g transform="matrix(0.256421,0,0,0.256421,0,0)">
            <path d="M210.16,47.2C188.5,24.2 156.02,9.2 119.38,9.2C53.58,9.16 0,57.75 0,117.44C0,176.85 53.58,225.44 119.38,225.44C159.08,225.44 194.62,207.67 215.99,180.74C230.43,162.74 239.31,141.32 239.31,117.44C239.32,90.78 227.93,66.08 210.16,47.2ZM202.66,172.41C186.28,190.41 160.74,202.41 132.14,202.41C82.14,202.41 41.91,167.41 41.91,124.41C41.91,81.41 82.17,46.41 132.14,46.41C153.173,46.324 173.696,52.939 190.72,65.29C209.6,79.73 222.65,100.83 222.65,124.7C222.66,143 214.88,158.8 202.67,172.41L202.66,172.41Z" style="fill:rgb(0,75,107);"/>
            <path d="M182.42,79.4C169.385,68.572 152.945,62.672 136,62.74C98,62.74 67.43,90.5 67.43,124.65C67.43,158.8 98,186.57 136,186.57C158.77,186.57 179,176.3 191.52,160.75C199.715,150.519 204.135,137.768 204.03,124.66C204.087,107.083 196.124,90.406 182.42,79.4L182.42,79.4ZM186.29,153.25C177.13,165.19 161.29,173.25 143.29,173.25C114.69,173.25 91.65,153.25 91.65,128.55C91.65,104.12 114.65,84.13 143.29,84.13C155.575,84.018 167.568,87.916 177.44,95.23L177.44,95.17L177.44,95.23C188.27,103.28 194.93,115.5 194.93,128.55C194.822,137.504 191.786,146.181 186.29,153.25L186.29,153.25Z" style="fill:rgb(0,75,107);"/>
        </g>
        <g transform="matrix(0.256421,0,0,0.256421,0,0)">
            <path d="M249.59,85.64L174.14,104.95L174.14,104.67C173.86,102.45 173.58,100.51 173.31,98.28C160.31,45.28 122.23,6.66 79.75,0C110.01,19.71 134.75,60.25 143.61,109.66C143.89,110.22 143.89,111.05 144.17,111.6C142.38,111.809 140.613,112.18 138.89,112.71C81.13,124.93 36.16,151.31 26.16,176.57C47.82,158 88.9,139.93 138,129.65C140.78,129.1 143.55,128.54 146.05,127.98C150.77,179.9 135.78,226.26 108.29,249.58C154.15,234.87 183,181.29 177.19,121L249.59,112" style="fill:rgb(170,25,22);"/>
        </g>
    </g>
</svg>
