<svg id="Layer_1" data-name="Layer 1" xmlns="http://www.w3.org/2000/svg" width="16" height="16" viewBox="0 0 16 16"><title>Cap</title><path d="M3.56,11.33a8.17,8.17,0,0,0,2.11,1.6,2.36,2.36,0,0,0,1.71.21,15.9,15.9,0,0,0,2-.72,22.38,22.38,0,0,1,3.08-1.16A7.15,7.15,0,0,1,15.58,11l.41.07v0L15.91,11,13.69,9.15a.74.74,0,0,0-.47-.2,27.5,27.5,0,0,0-6.28.19,43.8,43.8,0,0,0-4.35.94c-.11,0-.11.05,0,.14C2.87,10.6,3.21,11,3.56,11.33Z" style="fill:#c2000b"/><path d="M3.13,9.31c.1,0,.13-.06.12-.17a31.78,31.78,0,0,1-.37-4A8.18,8.18,0,0,1,3,3.27a5.09,5.09,0,0,1,.32-1.06l-.1,0A5.29,5.29,0,0,0,.65,5,8.62,8.62,0,0,0,0,8.12,10.28,10.28,0,0,0,0,9.23c0,.09,0,.11.12.08a1.44,1.44,0,0,1,.54-.1A2.26,2.26,0,0,1,2,9.54a.23.23,0,0,0,.18,0C2.46,9.48,2.8,9.39,3.13,9.31Z" style="fill:#c2000b"/><path d="M12.13,8.17c0,.09,0,.12.13.12l.92.06c.1,0,.13,0,.11-.11s-.07-.37-.11-.55A9.54,9.54,0,0,0,11.56,4a3.79,3.79,0,0,0-.75-.8.11.11,0,0,0,0,.05,22,22,0,0,1,.82,2.65C11.82,6.63,12,7.39,12.13,8.17Z" style="fill:#c2000b"/><path d="M4.17,2a3.07,3.07,0,0,0-.42.75,5.38,5.38,0,0,0-.27,1.78A31.44,31.44,0,0,0,3.83,9c0,.13.08.1.16.09.47-.12,1-.22,1.42-.31a24.73,24.73,0,0,1,4.77-.54H11.3c.25,0,.25,0,.2-.24a33.37,33.37,0,0,0-.92-3.67,7.57,7.57,0,0,0-.86-2,.34.34,0,0,0-.12-.12,6.66,6.66,0,0,0-2.22-.68,8.21,8.21,0,0,0-3,.26A.3.3,0,0,0,4.17,2Z" style="fill:#c2000b"/></svg>