<?xml version="1.0" encoding="UTF-8" standalone="no"?>
<!DOCTYPE svg PUBLIC "-//W3C//DTD SVG 1.1//EN" "http://www.w3.org/Graphics/SVG/1.1/DTD/svg11.dtd">
<svg width="100%" height="100%" viewBox="0 0 64 64" version="1.1" xmlns="http://www.w3.org/2000/svg" xmlns:xlink="http://www.w3.org/1999/xlink" xml:space="preserve" xmlns:serif="http://www.serif.com/" style="fill-rule:evenodd;clip-rule:evenodd;stroke-linejoin:round;stroke-miterlimit:2;">
    <g transform="matrix(0.384982,0,0,0.384982,-19.8057,-25.9603)">
        <g transform="matrix(1,0,0,1,34.5663,50.5437)">
            <path d="M139.61,52.28C139.31,53.06 139,53.85 138.68,54.66C142.99,71.91 140.09,79.06 134.32,80.45L138.62,83.05L138.68,83.09L138.68,160L159.53,147.49C162.59,145.65 164.46,142.35 164.46,138.78L164.46,67.19L139.61,52.28Z" style="fill:rgb(255,176,32);fill-rule:nonzero;"/>
        </g>
        <g transform="matrix(1,0,0,1,34.5663,50.5437)">
            <path d="M61.33,54.67C61.01,53.86 60.7,53.07 60.4,52.29C41.75,3.26 78.53,17.95 93.79,32.25C97.55,35.77 100,39.27 100,41.78C100,39.27 102.46,35.77 106.21,32.25C121.47,17.95 158.24,3.26 139.6,52.29C139.3,53.07 138.99,53.86 138.67,54.67C142.98,71.92 140.08,79.07 134.31,80.46C125.25,82.66 109.1,70.65 102.71,61.28C101.01,58.78 100,56.47 100,54.67C100,56.44 99.03,58.68 97.4,61.11C91.04,70.59 74.5,82.9 65.43,80.4C59.83,78.85 57.08,71.66 61.33,54.67Z" style="fill:rgb(255,51,0);fill-rule:nonzero;"/>
        </g>
        <g transform="matrix(1,0,0,1,34.5663,50.5437)">
            <path d="M138.62,83.07L125.79,90.95L125.79,90.82L100,75.18L74.22,90.82L74.22,90.95L61.33,83.03L61.33,82.87L65.44,80.39C74.5,82.89 91.04,70.58 97.41,61.1C99.04,58.67 100.01,56.43 100.01,54.66C100.01,56.46 101.02,58.77 102.72,61.27C109.11,70.64 125.26,82.65 134.32,80.45L138.62,83.07Z" style="fill:rgb(255,51,0);fill-rule:nonzero;"/>
        </g>
        <g transform="matrix(1,0,0,1,34.5663,50.5437)">
            <path d="M100,106.79L100.03,119.73L100.14,181.52C101.9,181.5 103.65,181.02 105.23,180.08L125.79,167.74L125.79,90.95L100,106.79Z" style="fill:rgb(255,176,32);fill-rule:nonzero;"/>
        </g>
        <g transform="matrix(1,0,0,1,34.5663,50.5437)">
            <path d="M125.78,90.82L125.78,90.95L100,106.79L74.22,90.95L74.22,90.82L100,75.18L125.78,90.82Z" style="fill:rgb(255,216,74);fill-rule:nonzero;"/>
        </g>
        <g transform="matrix(1,0,0,1,34.5663,50.5437)">
            <path d="M105.22,31.65L106.21,32.24C102.45,35.76 100,39.26 100,41.77C100,39.26 97.54,35.76 93.79,32.24L94.78,31.65C97.99,29.72 102.01,29.72 105.22,31.65Z" style="fill:rgb(255,176,32);fill-rule:nonzero;"/>
        </g>
        <g transform="matrix(1,0,0,1,34.5663,50.5437)">
            <path d="M100.03,119.73L100.14,181.52C98.28,181.55 96.43,181.07 94.78,180.08L74.23,167.74L74.23,104.16L99.98,119.76L100.03,119.73Z" style="fill:rgb(255,216,74);fill-rule:nonzero;"/>
        </g>
        <g transform="matrix(1,0,0,1,34.5663,50.5437)">
            <path d="M100,106.79L100.03,119.73L99.97,119.76L74.22,104.16L74.22,90.95L100,106.79Z" style="fill:rgb(255,176,32);fill-rule:nonzero;"/>
        </g>
        <g transform="matrix(1,0,0,1,34.5663,50.5437)">
            <path d="M74.22,104.16L74.22,167.74L61.26,159.97L61.33,159.87L61.33,96.35L74.22,104.16Z" style="fill:rgb(255,51,0);fill-rule:nonzero;"/>
        </g>
        <g transform="matrix(1,0,0,1,34.5663,50.5437)">
            <path d="M74.22,90.95L74.22,104.16L61.33,96.35L61.33,83.04L74.22,90.95Z" style="fill:rgb(226,41,36);fill-rule:nonzero;"/>
        </g>
        <g transform="matrix(1,0,0,1,34.5663,50.5437)">
            <path d="M65.43,80.4L61.32,82.88L61.32,83.04L35.55,67.19L60.4,52.28C60.7,53.06 61.01,53.85 61.33,54.66C57.08,71.66 59.83,78.85 65.43,80.4Z" style="fill:rgb(255,216,74);fill-rule:nonzero;"/>
        </g>
        <g transform="matrix(1,0,0,1,34.5663,50.5437)">
            <path d="M61.33,96.35L61.33,159.86L61.27,159.96L40.48,147.5C37.42,145.66 35.55,142.36 35.55,138.79L35.55,80.73L61.33,96.35Z" style="fill:rgb(255,216,74);fill-rule:nonzero;"/>
        </g>
        <g transform="matrix(1,0,0,1,34.5663,50.5437)">
            <path d="M61.33,83.04L61.33,96.35L35.55,80.73L35.55,67.19L61.33,83.04Z" style="fill:rgb(255,176,32);fill-rule:nonzero;"/>
        </g>
        <g transform="matrix(1,0,0,1,34.5663,50.5437)">
            <path d="M166.07,67.18C166.07,67.04 166.05,66.9 166.01,66.77C166,66.74 165.98,66.71 165.97,66.68C165.94,66.58 165.9,66.48 165.85,66.39C165.82,66.35 165.79,66.31 165.76,66.27C165.71,66.2 165.66,66.12 165.6,66.06C165.56,66.02 165.51,65.99 165.47,65.96C165.41,65.91 165.35,65.86 165.29,65.81L141.58,51.59C148,34.19 147.97,23.13 141.44,18.75C132.89,13.02 115.77,21.56 106.01,30.25C102.3,28.04 97.7,28.04 93.99,30.25C84.24,21.56 67.11,13.02 58.56,18.75C52.04,23.13 52,34.18 58.42,51.59L34.72,65.81C34.65,65.85 34.6,65.9 34.54,65.95C34.5,65.99 34.45,66.01 34.41,66.05C34.35,66.11 34.3,66.19 34.24,66.26C34.21,66.3 34.18,66.33 34.15,66.38C34.09,66.48 34.06,66.58 34.02,66.69C34.01,66.72 34,66.74 33.99,66.77C33.95,66.9 33.93,67.04 33.93,67.18L33.93,138.78C33.93,142.89 36.12,146.76 39.64,148.87L72.96,168.86C73.2,169.16 73.53,169.37 73.92,169.44L93.94,181.45C95.81,182.57 97.9,183.13 99.99,183.13C100.03,183.13 100.06,183.12 100.1,183.12L100.13,183.12C100.18,183.12 100.23,183.11 100.29,183.1C102.28,183.05 104.27,182.51 106.05,181.44L126.07,169.43C126.45,169.36 126.79,169.15 127.02,168.86L139.46,161.4C139.5,161.38 139.55,161.35 139.59,161.32L160.35,148.86C163.87,146.75 166.06,142.88 166.06,138.77L166.06,67.18L166.07,67.18ZM103.56,32.59C103.52,32.63 103.48,32.68 103.44,32.72C103.2,32.97 102.97,33.22 102.74,33.47C102.67,33.55 102.59,33.63 102.52,33.71C102.24,34.03 101.96,34.35 101.69,34.68C101.64,34.74 101.6,34.8 101.55,34.86C101.33,35.14 101.11,35.42 100.9,35.71C100.83,35.8 100.76,35.9 100.69,35.99C100.45,36.34 100.21,36.68 99.99,37.04C99.77,36.69 99.54,36.34 99.29,35.99C99.22,35.89 99.15,35.8 99.08,35.71C98.87,35.43 98.66,35.14 98.43,34.86C98.38,34.8 98.34,34.74 98.29,34.68C98.02,34.35 97.75,34.03 97.47,33.71C97.39,33.62 97.32,33.54 97.24,33.45C97.02,33.21 96.8,32.97 96.57,32.73C96.52,32.68 96.47,32.62 96.42,32.57C98.7,31.56 101.3,31.55 103.56,32.59ZM60.36,21.43C61.76,20.49 63.53,20.08 65.55,20.08C73.67,20.08 85.68,26.86 92.69,33.43C96.26,36.77 98.39,39.9 98.39,41.79C98.39,42.68 99.11,43.4 100,43.4C100.89,43.4 101.61,42.68 101.61,41.79C101.61,39.9 103.74,36.78 107.31,33.43C116.06,25.24 132.59,16.71 139.64,21.44C144.68,24.82 144.22,35.28 138.4,50.91C137.52,49.73 136.24,48.45 134.41,47.43C130.26,45.11 124.79,44.91 118.15,46.82C117.29,47.07 116.8,47.96 117.05,48.81C117.3,49.66 118.19,50.16 119.05,49.91C134.06,45.58 136.95,54.7 137.07,55.11C137.1,55.2 137.15,55.27 137.19,55.35C140.3,67.94 139.11,73.65 137.55,76.23C136.7,77.64 135.52,78.51 133.95,78.89C126.12,80.79 110.71,70.11 104.06,60.37C102.49,58.06 101.63,56.04 101.63,54.66C101.63,53.77 100.91,53.05 100.02,53.05C99.13,53.05 98.41,53.77 98.41,54.66C98.41,56 97.58,57.97 96.09,60.2C95.9,60.48 95.7,60.76 95.5,61.05C89.69,69.06 76.73,78.91 68.4,79.12C67.77,79.14 67.17,79.09 66.6,78.99C66.36,78.95 66.12,78.9 65.89,78.84C60.51,77.36 59.46,68.92 62.91,55.08C63.09,54.48 66.08,45.62 80.92,49.9C81.78,50.14 82.67,49.65 82.91,48.8C83.16,47.94 82.66,47.05 81.81,46.81C75.17,44.9 69.7,45.1 65.55,47.42C63.75,48.43 62.48,49.68 61.6,50.85C55.78,35.24 55.33,24.8 60.36,21.43ZM59.71,157.16L41.3,146.11C38.74,144.57 37.15,141.77 37.15,138.78L37.15,70.07L59.71,83.93L59.71,157.16ZM61.68,80.78L61.21,81.06L38.65,67.21L59.59,54.65C59.61,54.69 59.63,54.74 59.64,54.78C59.41,55.71 59.21,56.61 59.02,57.5C58.96,57.79 58.91,58.06 58.85,58.34C58.73,58.93 58.61,59.52 58.51,60.09C58.45,60.41 58.4,60.72 58.35,61.03C58.26,61.55 58.19,62.06 58.12,62.56C58.08,62.87 58.04,63.17 58,63.47C57.94,63.96 57.89,64.44 57.84,64.92C57.81,65.19 57.78,65.47 57.76,65.74C57.72,66.26 57.69,66.76 57.67,67.25C57.66,67.45 57.65,67.66 57.64,67.85C57.62,68.53 57.62,69.18 57.64,69.81C57.64,69.92 57.66,70.03 57.66,70.14C57.68,70.65 57.72,71.15 57.76,71.63C57.78,71.83 57.81,72.02 57.84,72.22C57.89,72.59 57.94,72.96 58.01,73.32C58.05,73.53 58.09,73.72 58.13,73.92C58.2,74.25 58.28,74.57 58.37,74.87C58.42,75.06 58.48,75.25 58.54,75.43C58.64,75.74 58.75,76.03 58.87,76.32C58.93,76.48 58.99,76.64 59.06,76.78C59.21,77.11 59.37,77.42 59.55,77.72C59.6,77.81 59.64,77.9 59.69,77.98C59.92,78.36 60.17,78.71 60.44,79.03C60.51,79.11 60.59,79.19 60.66,79.27C60.87,79.51 61.08,79.73 61.31,79.94C61.42,80.04 61.54,80.13 61.66,80.23C61.79,80.34 61.92,80.46 62.05,80.56L61.68,80.78ZM72.6,164.9L62.93,159.1L62.93,85.91L72.6,91.85L72.6,164.9ZM64.3,82.97L65.71,82.12C65.76,82.13 65.8,82.13 65.85,82.14C66,82.17 66.15,82.19 66.3,82.21C66.47,82.23 66.64,82.26 66.82,82.28C66.98,82.29 67.14,82.3 67.3,82.31C67.47,82.32 67.65,82.33 67.82,82.33C67.99,82.33 68.16,82.33 68.33,82.32C68.51,82.32 68.68,82.31 68.86,82.3C69.04,82.29 69.21,82.27 69.39,82.26C69.57,82.24 69.75,82.23 69.93,82.2C70.11,82.18 70.3,82.15 70.48,82.12C70.66,82.09 70.84,82.06 71.03,82.03C71.22,81.99 71.4,81.95 71.59,81.91C71.78,81.87 71.96,81.83 72.15,81.78C72.34,81.73 72.53,81.68 72.72,81.63C72.91,81.58 73.1,81.52 73.29,81.47C73.48,81.41 73.67,81.35 73.86,81.29C74.05,81.23 74.25,81.16 74.44,81.09C74.63,81.02 74.82,80.95 75.02,80.88C75.22,80.81 75.42,80.73 75.62,80.65C75.81,80.57 76,80.5 76.19,80.42C76.39,80.34 76.6,80.25 76.8,80.16C76.99,80.08 77.18,79.99 77.37,79.9C77.58,79.8 77.78,79.71 77.99,79.61C78.18,79.52 78.37,79.43 78.55,79.33C78.76,79.22 78.97,79.12 79.18,79.01C79.37,78.91 79.55,78.82 79.74,78.72C79.95,78.61 80.16,78.49 80.38,78.37C80.56,78.27 80.75,78.16 80.93,78.06C81.14,77.94 81.36,77.81 81.57,77.68C81.75,77.57 81.93,77.46 82.11,77.35C82.33,77.22 82.54,77.08 82.76,76.94C82.94,76.83 83.11,76.72 83.29,76.6C83.51,76.46 83.73,76.31 83.94,76.17C84.11,76.05 84.28,75.94 84.46,75.82C84.68,75.67 84.9,75.52 85.12,75.36C85.29,75.24 85.46,75.12 85.62,75C85.84,74.84 86.05,74.68 86.27,74.52C86.43,74.4 86.6,74.28 86.76,74.15C86.98,73.99 87.19,73.82 87.41,73.65C87.57,73.53 87.73,73.4 87.89,73.28C88.1,73.11 88.31,72.94 88.52,72.77C88.68,72.64 88.83,72.52 88.99,72.39C89.2,72.21 89.41,72.04 89.62,71.86C89.77,71.73 89.92,71.61 90.07,71.48C90.28,71.3 90.48,71.12 90.69,70.93C90.83,70.8 90.98,70.68 91.12,70.55C91.32,70.37 91.52,70.18 91.72,70C91.86,69.87 92,69.74 92.14,69.61C92.33,69.43 92.52,69.24 92.71,69.06C92.85,68.93 92.99,68.79 93.12,68.66C93.3,68.48 93.48,68.29 93.66,68.11C93.79,67.97 93.93,67.84 94.06,67.7C94.24,67.51 94.41,67.33 94.58,67.14C94.71,67 94.84,66.87 94.96,66.73C95.13,66.54 95.3,66.35 95.46,66.16C95.58,66.03 95.7,65.9 95.81,65.76C95.98,65.57 96.13,65.38 96.29,65.19C96.4,65.06 96.51,64.93 96.62,64.8C96.78,64.6 96.94,64.4 97.1,64.2C97.19,64.08 97.29,63.96 97.38,63.85C97.55,63.63 97.71,63.41 97.87,63.19C97.94,63.1 98.01,63 98.08,62.91C98.31,62.6 98.52,62.29 98.73,61.98C99.21,61.27 99.63,60.57 99.99,59.91C100.38,60.63 100.84,61.39 101.37,62.17C101.56,62.45 101.77,62.74 101.98,63.03C102.05,63.13 102.13,63.22 102.2,63.32C102.34,63.51 102.49,63.7 102.64,63.9C102.73,64.02 102.82,64.13 102.92,64.25C103.06,64.43 103.2,64.61 103.35,64.79C103.45,64.91 103.55,65.03 103.65,65.15C103.8,65.33 103.94,65.5 104.1,65.68C104.21,65.8 104.32,65.93 104.43,66.05C104.58,66.22 104.74,66.4 104.9,66.57C105.01,66.69 105.13,66.82 105.24,66.94C105.4,67.12 105.57,67.29 105.73,67.47C105.85,67.59 105.97,67.72 106.09,67.84C106.26,68.02 106.44,68.2 106.61,68.37C106.73,68.49 106.85,68.61 106.97,68.73C107.15,68.91 107.34,69.09 107.52,69.27C107.64,69.39 107.77,69.51 107.89,69.62C108.08,69.8 108.28,69.98 108.47,70.17C108.59,70.28 108.71,70.4 108.84,70.51C109.04,70.7 109.25,70.88 109.46,71.06C109.58,71.17 109.7,71.27 109.82,71.38C110.04,71.57 110.26,71.76 110.49,71.96C110.6,72.06 110.71,72.15 110.83,72.25C111.08,72.46 111.32,72.66 111.57,72.86C111.67,72.94 111.76,73.02 111.85,73.09C112.15,73.33 112.45,73.56 112.75,73.8C112.8,73.84 112.85,73.88 112.9,73.92C113.98,74.75 115.08,75.55 116.21,76.29C116.29,76.34 116.37,76.39 116.44,76.44C116.73,76.63 117.02,76.82 117.32,77.01C117.43,77.08 117.54,77.14 117.65,77.21C117.91,77.37 118.18,77.54 118.44,77.7C118.56,77.77 118.69,77.85 118.81,77.92C119.06,78.07 119.31,78.21 119.56,78.35C119.7,78.43 119.83,78.5 119.97,78.57C120.21,78.7 120.45,78.83 120.69,78.96C120.83,79.03 120.98,79.11 121.12,79.18C121.35,79.3 121.59,79.42 121.82,79.53C121.97,79.6 122.11,79.67 122.26,79.74C122.49,79.85 122.72,79.95 122.95,80.06C123.1,80.13 123.25,80.19 123.4,80.26C123.63,80.36 123.85,80.45 124.08,80.54C124.23,80.6 124.38,80.66 124.53,80.72C124.75,80.81 124.98,80.89 125.2,80.97C125.35,81.02 125.5,81.08 125.65,81.13C125.87,81.21 126.09,81.28 126.32,81.35C126.47,81.4 126.61,81.44 126.76,81.49C126.99,81.56 127.21,81.62 127.44,81.67C127.58,81.71 127.72,81.75 127.85,81.78C128.09,81.84 128.32,81.89 128.55,81.93C128.67,81.96 128.8,81.98 128.92,82.01C129.19,82.06 129.46,82.1 129.73,82.14C129.81,82.15 129.89,82.17 129.98,82.18C130.33,82.23 130.67,82.26 131.01,82.28C131.07,82.28 131.14,82.28 131.2,82.29C131.46,82.3 131.71,82.32 131.96,82.32L132,82.32C132.42,82.32 132.84,82.29 133.25,82.25C133.36,82.24 133.46,82.22 133.57,82.21C133.73,82.19 133.89,82.18 134.04,82.15L135.54,83.06L125.88,89L100.83,73.81C100.32,73.5 99.67,73.5 99.16,73.81L74.12,89L64.3,82.97ZM95.6,178.69L75.82,166.82L75.82,93.82L98.38,107.68L98.52,179.75C97.51,179.59 96.52,179.24 95.6,178.69ZM100,104.9L77.2,90.9L100,77.07L122.79,90.89L100,104.9ZM124.17,166.83L104.4,178.69C103.57,179.19 102.67,179.52 101.75,179.71L101.62,107.69L124.18,93.83L124.18,166.83L124.17,166.83ZM138.61,81.18L138.49,81.11L137.76,80.67C137.78,80.65 137.81,80.63 137.83,80.61C137.97,80.51 138.1,80.4 138.24,80.29C138.34,80.21 138.44,80.13 138.54,80.05C138.67,79.93 138.8,79.8 138.93,79.67C139.02,79.58 139.11,79.5 139.19,79.41C139.32,79.26 139.45,79.1 139.58,78.94C139.65,78.86 139.72,78.78 139.78,78.69C139.97,78.44 140.14,78.18 140.31,77.9C143.01,73.43 143.03,65.66 140.37,54.78C140.39,54.73 140.4,54.69 140.42,54.64L161.36,67.2L138.61,81.18ZM162.84,138.79C162.84,141.77 161.25,144.58 158.69,146.12L140.28,157.17L140.28,83.93L162.84,70.07L162.84,138.79Z" style="fill:rgb(166,41,36);fill-rule:nonzero;"/>
        </g>
    </g>
</svg>
