<?xml version="1.0" encoding="utf-8"?>
<!-- Generator: Adobe Illustrator 24.3.0, SVG Export Plug-In . SVG Version: 6.00 Build 0)  -->
<svg version="1.1" xmlns="http://www.w3.org/2000/svg" xmlns:xlink="http://www.w3.org/1999/xlink" x="0px" y="0px"
	 viewBox="0 0 16 16" style="enable-background:new 0 0 16 16;" xml:space="preserve">
<style type="text/css">
	.st0{fill:#2A80C3;}
	.st1{fill:#020203;}
	.st2{fill:#E0E0E0;}
	.st3{fill:none;stroke:#FFFFFF;stroke-width:0.9012;stroke-linecap:round;stroke-miterlimit:10;}
	.st4{fill:#999999;stroke:#020203;stroke-miterlimit:10;}
	.st5{fill:none;stroke:url(#SVGID_1_);stroke-width:7;stroke-linecap:round;stroke-miterlimit:10;}
	.st6{fill:#2A5688;stroke:#2A5688;stroke-width:0.2;stroke-miterlimit:10;}
	.st7{fill:url(#SVGID_2_);}
	.st8{fill:#010202;}
	.st9{fill:#2A5688;}
	.st10{fill:url(#SVGID_3_);}
	.st11{fill:url(#SVGID_4_);}
	.st12{fill:url(#SVGID_5_);}
	.st13{fill:url(#SVGID_6_);}
	.st14{fill:#FFFFFF;}
	.st15{fill:url(#SVGID_7_);}
	.st16{fill:#E6007E;}
	.st17{fill:url(#SVGID_8_);}
	.st18{fill:#6C6C6C;}
	.st19{fill:url(#SVGID_9_);}
	.st20{fill:#FAFAFA;}
	.st21{fill:url(#SVGID_10_);}
	.st22{fill:none;stroke:url(#SVGID_11_);stroke-width:5;stroke-linecap:round;stroke-miterlimit:10;}
	.st23{fill:none;stroke:url(#SVGID_12_);stroke-width:5;stroke-linecap:round;stroke-miterlimit:10;}
	.st24{fill:none;stroke:url(#SVGID_13_);stroke-width:5;stroke-linecap:round;stroke-miterlimit:10;}
	.st25{fill:none;stroke:url(#SVGID_14_);stroke-width:1.2489;stroke-linecap:round;stroke-miterlimit:10;}
	.st26{fill:none;stroke:url(#SVGID_15_);stroke-width:7;stroke-linecap:round;stroke-miterlimit:10;}
	.st27{fill:#133E20;}
	.st28{fill:url(#SVGID_16_);}
	.st29{fill:url(#SVGID_17_);}
	.st30{fill:url(#SVGID_18_);}
	.st31{fill:url(#SVGID_19_);}
	.st32{fill:none;stroke:url(#SVGID_20_);stroke-width:2;stroke-miterlimit:10;}
	.st33{fill:none;stroke:url(#SVGID_21_);stroke-width:2;stroke-miterlimit:10;}
	.st34{fill:none;stroke:url(#SVGID_22_);stroke-width:2;stroke-miterlimit:10;}
	.st35{fill:none;stroke:url(#SVGID_23_);stroke-width:2;stroke-miterlimit:10;}
	.st36{fill:url(#SVGID_24_);}
	.st37{fill:none;stroke:url(#SVGID_25_);stroke-width:2;stroke-miterlimit:10;}
	.st38{fill:none;stroke:url(#SVGID_26_);stroke-width:2;stroke-miterlimit:10;}
	.st39{fill:none;stroke:url(#SVGID_27_);stroke-width:2;stroke-miterlimit:10;}
	.st40{fill:url(#SVGID_28_);}
	.st41{fill:url(#SVGID_29_);}
	.st42{fill:url(#SVGID_30_);}
	.st43{fill:none;stroke:url(#SVGID_31_);stroke-width:2;stroke-miterlimit:10;}
	.st44{fill:none;stroke:url(#SVGID_32_);stroke-width:2;stroke-miterlimit:10;}
	.st45{fill:none;stroke:url(#SVGID_33_);stroke-width:2;stroke-miterlimit:10;}
	.st46{fill:none;stroke:url(#SVGID_34_);stroke-width:2;stroke-miterlimit:10;}
	.st47{fill:none;stroke:url(#SVGID_35_);stroke-width:2;stroke-miterlimit:10;}
	.st48{fill:none;stroke:url(#SVGID_36_);stroke-width:2;stroke-miterlimit:10;}
	.st49{fill:url(#SVGID_37_);}
	.st50{fill:url(#SVGID_38_);}
	.st51{fill:url(#SVGID_39_);}
	.st52{fill:url(#SVGID_40_);}
	.st53{fill:url(#SVGID_41_);}
	.st54{fill:none;stroke:url(#SVGID_42_);stroke-width:2;stroke-miterlimit:10;}
	.st55{fill:none;stroke:url(#SVGID_43_);stroke-width:2;stroke-miterlimit:10;}
	.st56{fill:none;stroke:url(#SVGID_44_);stroke-width:2;stroke-miterlimit:10;}
	.st57{fill:none;stroke:url(#SVGID_45_);stroke-width:2;stroke-miterlimit:10;}
	.st58{fill:url(#SVGID_46_);}
	.st59{fill:none;stroke:url(#SVGID_47_);stroke-width:2;stroke-miterlimit:10;}
	.st60{fill:none;stroke:url(#SVGID_48_);stroke-width:2;stroke-miterlimit:10;}
	.st61{fill:none;stroke:url(#SVGID_49_);stroke-width:2;stroke-miterlimit:10;}
	.st62{fill:url(#SVGID_50_);}
	.st63{fill:url(#SVGID_51_);}
	.st64{fill:url(#SVGID_52_);}
	.st65{fill:none;stroke:url(#SVGID_53_);stroke-width:2;stroke-miterlimit:10;}
	.st66{fill:none;stroke:url(#SVGID_54_);stroke-width:2;stroke-miterlimit:10;}
	.st67{fill:none;stroke:url(#SVGID_55_);stroke-width:2;stroke-miterlimit:10;}
	.st68{fill:none;stroke:url(#SVGID_56_);stroke-width:2;stroke-miterlimit:10;}
	.st69{fill:none;stroke:url(#SVGID_57_);stroke-width:2;stroke-miterlimit:10;}
	.st70{fill:none;stroke:url(#SVGID_58_);stroke-width:2;stroke-miterlimit:10;}
	.st71{fill:url(#SVGID_59_);}
	.st72{fill:none;stroke:url(#SVGID_60_);stroke-width:5;stroke-miterlimit:10;}
	.st73{fill:url(#SVGID_61_);}
	.st74{fill:url(#SVGID_62_);}
	.st75{fill:url(#SVGID_63_);}
	.st76{fill:none;stroke:#6EC6D9;stroke-width:2;stroke-miterlimit:10;}
	.st77{fill:#6EC6D9;}
	.st78{fill:url(#SVGID_64_);}
	.st79{fill:url(#SVGID_65_);}
	.st80{opacity:0.53;fill:#5288BC;}
	.st81{fill:#1C2537;}
	.st82{clip-path:url(#SVGID_67_);}
	.st83{fill:#285587;}
	.st84{fill:#BECFD4;stroke:#020203;stroke-width:0.3263;stroke-miterlimit:10;}
	.st85{fill:#E8E8E8;}
	.st86{fill:none;stroke:#020203;stroke-width:0.2447;stroke-miterlimit:10;}
	.st87{fill:#1883BE;}
	.st88{fill:none;stroke:#020203;stroke-width:0.3263;stroke-miterlimit:10;}
	.st89{fill:#0F1526;}
	.st90{opacity:0.6;fill:#16253B;}
	.st91{opacity:0.6;}
	.st92{fill:#16253B;}
	.st93{clip-path:url(#SVGID_69_);}
	.st94{fill:#BECFD4;}
	.st95{fill:none;stroke:#020203;stroke-width:0.3263;stroke-linecap:round;stroke-miterlimit:10;}
	.st96{opacity:0.25;}
	.st97{fill:#2A80C3;stroke:#FFFFFF;stroke-width:0.9;stroke-linecap:round;stroke-miterlimit:10;}
	.st98{fill:none;stroke:#FFFFFF;stroke-width:0.8694;stroke-linecap:round;stroke-miterlimit:10;}
	.st99{fill:#64C7F2;}
	.st100{fill:none;stroke:#64C7F2;stroke-width:18;stroke-miterlimit:10;}
	.st101{fill:none;stroke:#64C7F2;stroke-width:18;stroke-linecap:round;stroke-miterlimit:10;}
</style>
<g id="Layer_2">
</g>
<g id="Layer_1">
	<path class="st99" d="M13.8,6l1.1-0.7V4l-1.1-0.7L12.6,4v1l-1.2,0.7V3.5c0-0.2-0.1-0.3-0.3-0.3s-0.3,0.1-0.3,0.3V6L10,6.5l-1.7-1
		v-1l2.1-1.2c0.1-0.1,0.2-0.2,0.1-0.4c-0.1-0.1-0.2-0.2-0.4-0.1L8.3,3.8V2.5L9.1,2V0.7L8,0L6.9,0.7V2l0.9,0.5v1.4L5.9,2.8
		c-0.1-0.1-0.3,0-0.4,0.1C5.4,3,5.4,3.2,5.6,3.2l2.1,1.2v1L6,6.5L5.1,6V3.5c0-0.2-0.1-0.3-0.3-0.3c-0.2,0-0.3,0.1-0.3,0.3v2.2L3.4,5
		l0-1L2.2,3.3L1.1,4v1.3L2.2,6l0.9-0.5l1.2,0.7L2.4,7.2C2.3,7.3,2.2,7.5,2.3,7.6c0.1,0.1,0.1,0.1,0.2,0.1c0,0,0.1,0,0.1,0l2.1-1.2
		L5.7,7v2L4.8,9.5L2.7,8.3c-0.1-0.1-0.3,0-0.4,0.1c-0.1,0.1,0,0.3,0.1,0.4l1.9,1.1l-1.2,0.7L2.2,10l-1.1,0.7V12l1.1,0.7L3.4,12l0-1
		l1.2-0.7v2.2c0,0.2,0.1,0.3,0.3,0.3c0.2,0,0.3-0.1,0.3-0.3V10L6,9.5l1.7,1v1l-2.1,1.2c-0.1,0.1-0.2,0.2-0.1,0.4s0.2,0.2,0.4,0.1
		l1.9-1.1v1.4L6.9,14v1.3L8,16l1.1-0.7V14l-0.9-0.5v-1.4l1.9,1.1c0,0,0.1,0,0.1,0c0.1,0,0.2-0.1,0.2-0.1c0.1-0.1,0-0.3-0.1-0.4
		l-2.1-1.2v-1l1.7-1l0.9,0.5v2.5c0,0.2,0.1,0.3,0.3,0.3s0.3-0.1,0.3-0.3v-2.2l1.2,0.7v1l1.1,0.7l1.1-0.7v-1.3L13.8,10l-0.9,0.5
		l-1.2-0.7l1.9-1.1c0.1-0.1,0.2-0.2,0.1-0.4c-0.1-0.1-0.2-0.2-0.4-0.1l-2.1,1.2L10.3,9V7l0.9-0.5l2.1,1.2c0,0,0.1,0,0.1,0
		c0.1,0,0.2-0.1,0.2-0.1c0.1-0.1,0-0.3-0.1-0.4l-1.9-1.1l1.2-0.7L13.8,6z"/>
</g>
<g id="Layer_3_5_">
</g>
</svg>
