<?xml version="1.0" encoding="utf-8"?>
<!-- Generator: Adobe Illustrator 24.1.0, SVG Export Plug-In . SVG Version: 6.00 Build 0)  -->
<svg version="1.1" id="Layer_1" xmlns="http://www.w3.org/2000/svg" xmlns:xlink="http://www.w3.org/1999/xlink" x="0px" y="0px"
	 viewBox="0 0 64 64" style="enable-background:new 0 0 64 64;" xml:space="preserve">
<style type="text/css">
	.st0{fill:#AA71AE;}
	.st1{fill:#FFFFFF;}
	.st2{display:none;}
	.st3{fill:#D8820C;}
	.st4{fill:#F9B23D;}
	.st5{fill:#FEEC3B;}
	.st6{fill:#FDD597;}
	.st7{fill:#EC616A;}
	.st8{fill:#E59B2F;}
	.st9{fill:#5AB0E3;}
	.st10{fill:#70B638;}
	.st11{fill:#E9D200;}
	.st12{fill:none;}
	.st13{fill:#E1C60A;}
</style>
<g id="Base_6_">
	<path class="st11" d="M57,38.3c0,14-11.3,25.3-25.3,25.3S6.4,52.3,6.4,38.3S17.8,0.4,31.7,0.4S57,24.3,57,38.3z"/>
</g>
<g id="Detail_7_">
	<path class="st1" d="M57,38.3c0,14-11.3,25.3-25.3,25.3S6.4,52.3,6.4,38.3S17.8,0.4,31.7,0.4S57,24.3,57,38.3z"/>
	<g>
		<polygon class="st13" points="44.1,13.7 44.1,16.4 46.4,17.7 48.7,16.4 48.7,13.7 46.4,12.3 		"/>
		<path class="st13" d="M15.6,24.2v18.6L31.7,52l16.1-9.3V24.2l-16.1-9.3L15.6,24.2z"/>
		<path class="st13" d="M11.8,21.9v23l19.9,11.5l19.9-11.5v-23L31.7,10.4L11.8,21.9z M48.3,43l-16.6,9.6L15.1,43V23.9l0.1-0.1
			l16.5-9.5l16.6,9.6C48.3,23.9,48.3,43,48.3,43z"/>
		<path class="st13" d="M42.8,6.1l-2.3,1.3v2.7l2.3,1.3l2.3-1.3V7.8c-0.3-0.3-0.5-0.6-0.8-0.9L42.8,6.1z"/>
		<polygon class="st13" points="44.2,50.5 44.2,53.2 46.5,54.5 48.8,53.2 48.8,50.5 46.5,49.1 		"/>
		<polygon class="st13" points="39.2,54.5 41.5,53.2 41.5,51.9 38.2,53.9 		"/>
		<polygon class="st13" points="37.9,10.1 37.9,7.4 35.6,6.1 33.3,7.4 33.3,10.1 35.6,11.4 		"/>
		<polygon class="st13" points="24.8,12.4 22.5,13.7 22.5,14.6 25.6,12.8 		"/>
		<path class="st13" d="M30.9,0.4l-1.2,0.7v2.7L32,5.2l2.3-1.3V1.1l-1.1-0.6c-0.5-0.1-1-0.1-1.5-0.1C31.4,0.4,31.2,0.4,30.9,0.4z"/>
		<polygon class="st13" points="30.7,9.9 30.7,7.4 28.4,6.1 26.1,7.4 26.1,10.1 28.2,11.3 		"/>
		<polygon class="st13" points="33.3,56.8 33.3,59.4 35.6,60.8 37.9,59.4 37.9,56.8 35.6,55.4 		"/>
		<polygon class="st13" points="41.5,13.7 39.2,12.4 38.1,13 41.5,14.9 		"/>
		<polygon class="st13" points="26.1,56.8 26.1,59.4 28.4,60.8 30.7,59.4 30.7,57 28.2,55.5 		"/>
		<polygon class="st13" points="22.5,53.2 24.8,54.5 25.6,54.1 22.5,52.3 		"/>
		<polygon class="st13" points="19.9,16.1 19.9,13.7 17.6,12.3 15.3,13.7 15.3,16.4 17.4,17.6 		"/>
		<polygon class="st13" points="15.3,50.5 15.3,53.2 17.6,54.5 19.9,53.2 19.9,50.8 17.3,49.3 		"/>
		<path class="st13" d="M27.1,63l-2.3-1.3l-1.1,0.6c1.1,0.4,2.2,0.7,3.4,0.9V63z"/>
		<path class="st13" d="M34.8,1.3v2.8L32,5.7l-2.8-1.6V0.8l-0.5,0.4c-0.7,0.1-0.2,0-0.8,0.2l-0.2,0.1l-4.9,2.9l-0.3-0.2
			c-0.8,0.7-1.3,1-2.1,1.8l0.8-0.7L24,7.1v3.3L21.2,12l-2.8-1.6V8.5c-0.5,0.6-0.8,0.8-1.3,1.5l-0.2,0.4l-0.5,0.5
			c-5.8,8.2-9.6,19.4-9.6,27.4c0,6.6,2.6,12.3,6.7,16.8l0,0l3.4,3l0.5,0.3c1.2,0.9,2.2,1.6,3.5,2.3l-2.5-1.5v-2.8l2.8-1.6l2.8,1.6
			v3.3L21.7,61c0.6,0.3,1.4,0.6,2,0.9l0,0l3.9,0.8l0,0c0.5,0.1,1,0.2,1.6,0.2v-0.2l2.8-1.6l2.8,1.6l0,0c0.5-0.1,1,0.1,1.6,0l0,0
			l3.8-1.1l0,0c0.6-0.2,1.2-0.5,1.8-0.8l-2-1.2v-3.3l2.8-1.6l2.8,1.6v2.4c0.5-0.4,0.8-1,1.3-1.4l1.2-1l1.8-1.6l0,0
			c4-4.5,6.5-10.1,6.5-16.6c0-7.2-2.5-15.7-7.3-23.5v1.9L46.9,18l5.8,3.3v24.2l-0.2,0.1L47,48.8l2.3,1.3v3.3L46.5,55l-2.8-1.6v-2.7
			l-1.7,1v1.8l-2.8,1.6l-1.6-0.9L36,55.1l2.4,1.4v3.3l-2.8,1.6l-2.8-1.6V57l-1,0.6l-0.5-0.3v2.4l-2.8,1.6l-2.8-1.6v-3.3l2.1-1.2
			l-1.6-0.9L24.9,55L22,53.5V52l-1.6-0.9v2.4l-2.8,1.6l-2.8-1.6v-3.3l2.1-1.2l-6-3.5V21.4l6-3.5l-2.1-1.2v-3.3l2.8-1.6l2.8,1.6v2.4
			l1.6-0.9v-1.5l2.8-1.6l1.3,0.8l1.6-0.9l-2.1-1.2V7.1l2.8-1.6l2.8,1.6v2.5l0.5-0.3l1,0.6V7.1l2.8-1.6l2.8,1.6v3.3L36,11.8l1.6,0.9
			l1.6-0.9l2.8,1.6v1.8l1.6,0.9v-2.7l2.8-1.6l2,1.2c-1.1-1.8-1.5-3-2.8-4.5v2L42.8,12L40,10.4V7.1l2.8-1.6L43,5.6
			c-0.5-0.4-0.9-0.8-1.4-1.2"/>
		<polygon class="st13" points="18.8,56.8 18.8,59.4 21.1,60.8 23.5,59.4 23.5,56.8 21.1,55.4 		"/>
		<polygon class="st13" points="21.2,11.4 23.5,10.1 23.5,7.4 21.2,6.1 18.9,7.4 18.9,10.1 		"/>
		<path class="st13" d="M34.3,63.5V63L32,61.7L29.7,63v0.5c0.7,0.1,1.4,0.1,2.1,0.1C32.6,63.6,33.5,63.6,34.3,63.5z"/>
		<path class="st13" d="M24.8,5.2l2.3-1.3V1.3c-1.6,0.6-3.1,1.5-4.6,2.6L24.8,5.2z"/>
		<path class="st13" d="M16.3,58.4v-1.6L14,55.4l-0.6,0.3C14.3,56.7,15.3,57.6,16.3,58.4z"/>
		<path class="st13" d="M39.2,61.7L36.9,63l0,0c1.1-0.2,2.2-0.5,3.2-0.9L39.2,61.7z"/>
		<polygon class="st13" points="42.8,55.4 40.5,56.8 40.5,59.4 42.8,60.8 45.1,59.4 45.1,56.8 		"/>
		<path class="st13" d="M21.2,61.4L21.2,61.4c-0.1-0.1-0.3-0.2-0.5-0.3L21.2,61.4z"/>
	</g>
	<g>
		<path class="st1" d="M40.5,39.2c0,0-1,4.8-8.8,5.6c0,0-3.3,0.3-0.7,0.7c2.5,0.5,8.1,0.4,10-2.6c0.1-0.1,1-1.6,0.3-3.9
			C41.2,38.8,40.7,38.3,40.5,39.2z"/>
		<path class="st1" d="M37.6,39.1c0.8-0.3,1.9-1.8,1.3-3.2c-0.7-1.4-3.8-0.4-5.6,0.9c-1.5,1.1-0.2,1.8,0.2,2.1
			C34.4,39.4,37,39.3,37.6,39.1z"/>
		<path class="st1" d="M30.4,36.4c-2.7-3.3-4.6-3.6-5.2-3.4c-0.6,0.2-1.4,1.2-0.9,3.6c0.5,2.4,2.6,2.5,2.6,2.5S33,39.5,30.4,36.4z"
			/>
		<path class="st1" d="M22.8,25.3c-0.1,0.1-0.1,0.3,0.1,0.5l0.1,0.1c0.1,0.1,0.1,0.3,0.1,0.4c-1,1.3-1.7,2.8-1.9,4.5
			c-0.1,0.1-0.1,0.3-0.3,0.4c-0.4,0.2-1.3,0.9-1.3,1.7v2.4c0,0-0.1,2,2,2.2c0.1,0,0.4,0,0.5,0c0.2,0,0.5-0.2,0.5-0.7
			c0-0.9,0-3.8,0-4c0-5.1,4.2-9.3,9.3-9.3s9.3,4.2,9.3,9.3c0,0,0,3.2,0,4c0,0.6,0.4,0.7,0.6,0.7c0.1,0,0.3,0,0.3,0
			c2-0.1,2-2.2,2-2.2v-2.5c0-0.9-0.9-1.5-1.3-1.7c-0.1-0.1-0.2-0.2-0.3-0.4c-0.3-1.7-1-3.2-1.9-4.6c-0.1-0.1-0.1-0.3,0-0.3
			c0.1-0.1,0.1-0.3,0.1-0.5c-2.1-2.6-5.3-4.1-8.9-4.1C28.1,21.2,24.9,22.7,22.8,25.3z"/>
	</g>
</g>
<g id="Outline_9_">
	<path class="st13" d="M31.7,1.4c12.9,0,24.3,23,24.3,36.9c0,13.4-10.9,24.3-24.3,24.3S7.4,51.7,7.4,38.3
		C7.4,24.4,18.8,1.4,31.7,1.4 M31.7,0.4c-14,0-25.3,24-25.3,37.9c0,14,11.3,25.3,25.3,25.3S57,52.3,57,38.3S45.7,0.4,31.7,0.4
		L31.7,0.4z"/>
</g>
</svg>
