<?xml version="1.0" encoding="utf-8"?>
<!-- Generator: Adobe Illustrator 24.1.0, SVG Export Plug-In . SVG Version: 6.00 Build 0)  -->
<svg version="1.1" id="Layer_1" xmlns="http://www.w3.org/2000/svg" xmlns:xlink="http://www.w3.org/1999/xlink" x="0px" y="0px"
	 viewBox="0 0 64 64" style="enable-background:new 0 0 64 64;" xml:space="preserve">
<style type="text/css">
	.st0{fill:#AA71AE;}
	.st1{fill:#FFFFFF;}
	.st2{display:none;}
	.st3{fill:#D8820C;}
	.st4{fill:#F9B23D;}
	.st5{fill:#FEEC3B;}
	.st6{fill:#FDD597;}
	.st7{fill:#EC616A;}
	.st8{fill:#E59B2F;}
	.st9{fill:#5AB0E3;}
	.st10{fill:#70B638;}
	.st11{fill:#E9D200;}
	.st12{fill:none;}
	.st13{fill:#E1C60A;}
</style>
<g id="Base">
	<path class="st1" d="M57,38.3c0,14-11.3,25.3-25.3,25.3S6.4,52.3,6.4,38.3S17.8,0.4,31.7,0.4S57,24.3,57,38.3z"/>
</g>
<g id="Detail_2_">
	<g>
		<path class="st0" d="M27,63.2L12.7,55c1.3,1.5,2.8,2.8,4.4,4l4.2,2.4C23.1,62.2,25,62.8,27,63.2z"/>
		<path class="st0" d="M31.9,1.1l14,8c-0.8-1-6.1-4.9-6.9-5.8l-5.7-2.4c-0.5-0.1-0.9-0.2-1.5-0.2c-0.5,0-1.1,0.2-1.6,0.3L23,4
			c-0.8,0.9-5.2,4.5-6,5.5L31.7,1L31.9,1.1z"/>
		<path class="st0" d="M30.5,63.2L10.9,51.9c0.5,0.8,1,1.6,1.6,2.3L27.7,63C28.7,63.2,29.5,63.1,30.5,63.2z"/>
		<path class="st0" d="M42.1,61.4l4.2-2.4c1.6-1.1,2.4-2.1,3.7-3.5l-13.5,7.7C38.5,62.8,40.3,62.2,42.1,61.4z"/>
		<path class="st0" d="M34.8,0.8l7.8,4.4C40.2,3.1,37.6,1.5,34.8,0.8z"/>
		<path class="st0" d="M6.8,42.3l0.5,0.3l7.9-4.6v-9.1l-5.9-3.4c-1.5,4.6-2.8,9-2.8,12.8C6.4,39.7,6.5,41,6.8,42.3z"/>
		<path class="st0" d="M20.9,5.2l7.8-4.4C25.9,1.5,23.3,3.1,20.9,5.2z"/>
		<polygon class="st0" points="15.9,43.8 15.9,52 31.7,61 47.6,52 47.6,43.8 31.7,52.9 		"/>
		<path class="st0" d="M54.1,25.5l-5.8,3.3V38l7.9,4.6l0.5-0.3c0.2-1.3,0.3-2.6,0.3-4C57,34.5,55.6,30.2,54.1,25.5z"/>
		<polygon class="st0" points="47.6,23.1 47.6,14.9 31.7,5.9 15.9,14.9 15.9,23.1 31.7,14 		"/>
		<path class="st0" d="M56.2,43.2l-8.4-4.9v-9.7L54,25c-1.7-5-4.6-10.8-7.6-15L31.7,1.6L17.2,9.9C14.1,14.1,11.3,20,9.6,25l6.1,3.5
			v9.7l-8.4,4.9L6.9,43c0.5,2.8,1.5,5.3,2.8,7.7l22.1,12.6L53.3,51C54.7,48.6,55.7,45.9,56.2,43.2L56.2,43.2z M31.7,3l0.1,0.1
			L47.4,12l0.5,0.9L31.7,3.6l-16.2,9.3l-0.2-0.4L31.7,3z M14.9,24.9V14.4l16.8-9.6l16.8,9.6v10.5l-16.8-9.7L14.9,24.9z M48.6,52.6
			l-16.8,9.6L15,52.6V42l16.8,9.7L48.6,42V52.6z"/>
		<path class="st0" d="M35.9,62.9l15.7-9c0.6-0.8,1.2-1.6,1.7-2.4L33.3,63C34.3,63,34.9,63.1,35.9,62.9z"/>
	</g>
	<g>
		<path class="st1" d="M40.5,39.2c0,0-1,4.8-8.8,5.6c0,0-3.3,0.3-0.7,0.7c2.5,0.5,8.1,0.4,10-2.6c0.1-0.1,1-1.6,0.3-3.9
			C41.2,38.8,40.7,38.3,40.5,39.2z"/>
		<path class="st1" d="M37.6,39.1c0.8-0.3,1.9-1.8,1.3-3.2c-0.7-1.4-3.8-0.4-5.6,0.9c-1.5,1.1-0.2,1.8,0.2,2.1
			C34.4,39.4,37,39.3,37.6,39.1z"/>
		<path class="st1" d="M30.4,36.4c-2.7-3.3-4.6-3.6-5.2-3.4c-0.6,0.2-1.4,1.2-0.9,3.6c0.5,2.4,2.6,2.5,2.6,2.5S33,39.5,30.4,36.4z"
			/>
		<path class="st1" d="M22.8,25.3c-0.1,0.1-0.1,0.3,0.1,0.5l0.1,0.1c0.1,0.1,0.1,0.3,0.1,0.4c-1,1.3-1.7,2.8-1.9,4.5
			c-0.1,0.1-0.1,0.3-0.3,0.4c-0.4,0.2-1.3,0.9-1.3,1.7v2.4c0,0-0.1,2,2,2.2c0.1,0,0.4,0,0.5,0c0.2,0,0.5-0.2,0.5-0.7
			c0-0.9,0-3.8,0-4c0-5.1,4.2-9.3,9.3-9.3s9.3,4.2,9.3,9.3c0,0,0,3.2,0,4c0,0.6,0.4,0.7,0.6,0.7c0.1,0,0.3,0,0.3,0
			c2-0.1,2-2.2,2-2.2v-2.5c0-0.9-0.9-1.5-1.3-1.7c-0.1-0.1-0.2-0.2-0.3-0.4c-0.3-1.7-1-3.2-1.9-4.6c-0.1-0.1-0.1-0.3,0-0.3
			c0.1-0.1,0.1-0.3,0.1-0.5c-2.1-2.6-5.3-4.1-8.9-4.1C28.1,21.2,24.9,22.7,22.8,25.3z"/>
	</g>
</g>
<g id="Outline_1_">
	<path class="st0" d="M31.7,1.4c12.9,0,24.3,23,24.3,36.9c0,13.4-10.9,24.3-24.3,24.3S7.4,51.7,7.4,38.3C7.4,24.4,18.8,1.4,31.7,1.4
		 M31.7,0.4c-14,0-25.3,24-25.3,37.9s11.3,25.3,25.3,25.3S57,52.3,57,38.3S45.7,0.4,31.7,0.4L31.7,0.4z"/>
</g>
</svg>
