<?xml version="1.0" encoding="utf-8"?>
<!-- Generator: Adobe Illustrator 24.1.0, SVG Export Plug-In . SVG Version: 6.00 Build 0)  -->
<svg version="1.1" id="Layer_1" xmlns="http://www.w3.org/2000/svg" xmlns:xlink="http://www.w3.org/1999/xlink" x="0px" y="0px"
	 viewBox="0 0 64 64" style="enable-background:new 0 0 64 64;" xml:space="preserve">
<style type="text/css">
	.st0{fill:#AA71AE;}
	.st1{fill:#FFFFFF;}
	.st2{display:none;}
	.st3{fill:#D8820C;}
	.st4{fill:#F9B23D;}
	.st5{fill:#FEEC3B;}
	.st6{fill:#FDD597;}
	.st7{fill:#EC616A;}
	.st8{fill:#E59B2F;}
	.st9{fill:#5AB0E3;}
	.st10{fill:#70B638;}
	.st11{fill:#E9D200;}
	.st12{fill:none;}
	.st13{fill:#E1C60A;}
</style>
<g id="Base_2_">
	<path class="st1" d="M57,38.3c0,14-11.3,25.3-25.3,25.3S6.4,52.3,6.4,38.3S17.8,0.4,31.7,0.4S57,24.3,57,38.3z"/>
</g>
<g id="Detail_5_">
	<g>
		<path class="st8" d="M15.2,47.4v-4.2l-4.1-2.3L7.5,43v2c0.2,0.8,1.3,2.6,1.6,3.4l2.3,1.3L15.2,47.4z"/>
		<path class="st8" d="M7,38.6c0,1.8,0.1,3.4,0.5,5.1l-0.2-1l3.4-1.9L7,38.6C7,38.6,7,38.5,7,38.6z"/>
		<path class="st8" d="M8.8,25.2C8.5,26,8.3,26.9,8,27.7l2.5-1.5L8.8,25.2z"/>
		<path class="st8" d="M11.1,26l4.1-2.3v-4.2l-2.8-1.6c-1.2,2.3-2.1,4.7-2.9,7.2L11.1,26z"/>
		<polygon class="st8" points="22.9,47.7 15.7,43.6 15.7,47.4 19.5,49.7 		"/>
		<path class="st8" d="M22.8,56.9L19.5,55l-3.8,2.2L15,56.5c1.1,1.1,2.3,2,3.7,2.9L22.8,56.9z"/>
		<path class="st8" d="M15.4,56.7l3.8-2.2v-4.4l-3.8-2.2l-3.8,2.2v2.8c0.5,0.6,1.6,2.3,2.2,2.9L15.4,56.7z"/>
		<path class="st8" d="M8.7,48.7c0.7,1.5,1.5,2.9,2.4,4.2v-2.8L8.7,48.7z"/>
		<polygon class="st8" points="27.4,16.5 27.4,12.7 23.3,10.3 19.8,12.4 19.8,16.8 23.4,18.9 		"/>
		<path class="st8" d="M55.1,28.6L31.8,15.2L7.7,29.1c-0.7,2.8-1.1,5.6-1.3,8l25.3,14.6l24.7-14.2C56.4,35,55.8,31.5,55.1,28.6z"/>
		<polygon class="st8" points="35.6,50.6 32.8,52.3 35.6,53.9 		"/>
		<path class="st8" d="M56.2,42.5L56.1,43c0.3-1.6,0.4-2.8,0.4-4.4c0,0-0.5,0.3,0,0l-3.5,2L56.2,42.5z"/>
		<polygon class="st8" points="30.8,52.3 27.9,50.6 27.9,53.9 		"/>
		<polygon class="st8" points="19.5,17.2 15.7,19.4 15.7,23.3 22.9,19.2 		"/>
		<path class="st8" d="M16.5,10.2l3,1.8l3.3-1.9l-4.3-2.5C17.8,8.4,17.1,9.3,16.5,10.2z"/>
		<path class="st8" d="M19.3,16.8v-4.4l-3.1-1.8c-1.5,2-2.8,4.2-4,6.6l3.2,1.9L19.3,16.8z"/>
		<polygon class="st8" points="27.4,54.2 27.4,50.4 23.4,48 19.8,50.1 19.8,54.5 23.3,56.6 		"/>
		<path class="st8" d="M48.1,56.7l-0.3,0.4L44.1,55l-3.3,1.9l4.2,2.4C46.2,58.5,47.1,57.7,48.1,56.7z"/>
		<polygon class="st8" points="43.8,54.5 43.8,50.1 40.2,48 36.1,50.4 36.1,54.2 40.2,56.6 		"/>
		<path class="st8" d="M48.4,43.3v4.2l3.8,2.2l2.3-1.3c0.4-0.9,1.2-3.2,1.5-4.1v-1.2L52.4,41L48.4,43.3z"/>
		<polygon class="st8" points="47.9,47.4 47.9,43.6 40.7,47.7 44.1,49.7 		"/>
		<path class="st8" d="M48.1,47.9l-3.8,2.2v4.4l3.8,2.2l1.2-0.7c0.6-0.6,2.1-2.7,2.6-3.4v-2.5L48.1,47.9z"/>
		<path class="st8" d="M52.5,50.1v2.2c0.9-1.3,1.1-1.8,1.7-3.2L52.5,50.1z"/>
		<path class="st8" d="M31.8,52.9l-12.7,7.3c3.7,2.2,8,3.4,12.7,3.4c4.6,0,8.3-1.6,12.1-3.8L31.8,52.9z"/>
		<polygon class="st8" points="27.9,16.2 30.8,14.6 27.9,12.9 		"/>
		<path class="st8" d="M31.8,14l11.8-6.8c-3.7-3.9-7.3-6.5-11.9-6.5c-4.5,0-8.3,2.5-12,6.4L31.8,14z"/>
		<path class="st8" d="M50.8,17.5c-1.2-2.3-2.4-4.6-3.9-6.6l-2.6,1.5v4.4l3.8,2.2L50.8,17.5z"/>
		<polygon class="st8" points="32.8,14.6 35.6,16.2 35.6,12.9 		"/>
		<polygon class="st8" points="40.7,19.2 47.9,23.3 47.9,19.4 44.1,17.2 		"/>
		<polygon class="st8" points="36.1,12.7 36.1,16.5 40.2,18.9 43.8,16.8 43.8,12.4 40.2,10.3 		"/>
		<path class="st8" d="M44.1,11.9l2.6-1.5c-0.7-0.9-1.4-1.8-2.1-2.6L40.7,10L44.1,11.9z"/>
		<path class="st8" d="M54.1,25c-0.8-2.4-2-4.7-3.2-7l-2.5,1.4v4.2l4.1,2.3L54.1,25z"/>
		<path class="st8" d="M54.1,25.6L53,26.2l1.8,1C54.5,26.5,54.3,26.4,54.1,25.6z"/>
	</g>
	<g>
		<path class="st1" d="M40.5,39.2c0,0-1,4.8-8.8,5.6c0,0-3.3,0.3-0.7,0.7c2.5,0.5,8.1,0.4,10-2.6c0.1-0.1,1-1.6,0.3-3.9
			C41.2,38.8,40.7,38.3,40.5,39.2z"/>
		<path class="st1" d="M37.6,39.1c0.8-0.3,1.9-1.8,1.3-3.2c-0.7-1.4-3.8-0.4-5.6,0.9c-1.5,1.1-0.2,1.8,0.2,2.1
			C34.4,39.4,37,39.3,37.6,39.1z"/>
		<path class="st1" d="M30.4,36.4c-2.7-3.3-4.6-3.6-5.2-3.4c-0.6,0.2-1.4,1.2-0.9,3.6c0.5,2.4,2.6,2.5,2.6,2.5S33,39.5,30.4,36.4z"
			/>
		<path class="st1" d="M22.8,25.3c-0.1,0.1-0.1,0.3,0.1,0.5l0.1,0.1c0.1,0.1,0.1,0.3,0.1,0.4c-1,1.3-1.7,2.8-1.9,4.5
			c-0.1,0.1-0.1,0.3-0.3,0.4c-0.4,0.2-1.3,0.9-1.3,1.7v2.4c0,0-0.1,2,2,2.2c0.1,0,0.4,0,0.5,0c0.2,0,0.5-0.2,0.5-0.7
			c0-0.9,0-3.8,0-4c0-5.1,4.2-9.3,9.3-9.3s9.3,4.2,9.3,9.3c0,0,0,3.2,0,4c0,0.6,0.4,0.7,0.6,0.7c0.1,0,0.3,0,0.3,0
			c2-0.1,2-2.2,2-2.2v-2.5c0-0.9-0.9-1.5-1.3-1.7c-0.1-0.1-0.2-0.2-0.3-0.4c-0.3-1.7-1-3.2-1.9-4.6c-0.1-0.1-0.1-0.3,0-0.3
			c0.1-0.1,0.1-0.3,0.1-0.5c-2.1-2.6-5.3-4.1-8.9-4.1C28.1,21.2,24.9,22.7,22.8,25.3z"/>
	</g>
</g>
<g id="Outline_4_">
	<path class="st8" d="M31.7,1.4c12.9,0,24.3,23,24.3,36.9c0,13.4-10.9,24.3-24.3,24.3S7.4,51.7,7.4,38.3C7.4,24.4,18.8,1.4,31.7,1.4
		 M31.7,0.4c-14,0-25.3,24-25.3,37.9s11.3,25.3,25.3,25.3S57,52.3,57,38.3S45.7,0.4,31.7,0.4L31.7,0.4z"/>
</g>
</svg>
