<?xml version="1.0" encoding="utf-8"?>
<!-- Generator: Adobe Illustrator 23.0.4, SVG Export Plug-In . SVG Version: 6.00 Build 0)  -->
<svg version="1.1" xmlns="http://www.w3.org/2000/svg" xmlns:xlink="http://www.w3.org/1999/xlink" x="0px" y="0px"
	 viewBox="0 0 64 64" style="enable-background:new 0 0 64 64;" xml:space="preserve">
<style type="text/css">
	.st0{fill:#00B9FF;}
</style>
<g id="Layer_1">
</g>
<g id="Layer_2">
	<g>
		<path class="st0" d="M40.9,26.6c0,4.9-4,8.9-8.9,8.9c-4.9,0-8.9-4-8.9-8.9c0-4.9,4-8.9,8.9-8.9C36.9,17.7,40.9,21.7,40.9,26.6z"/>
		<g>
			<path class="st0" d="M58.3,26.6C58.3,12,46.5,0.2,32,0.2C17.5,0.2,5.7,12,5.7,26.6c0,14.5,9.6,20.6,26.3,37.2V52.9
				c-12.8-13.2-18.6-16-18.6-26.3c0-10.3,8.3-18.6,18.6-18.6c10.3,0,18.6,8.3,18.6,18.6c0,10.3-8.3,18.6-18.6,18.6v7.7
				C46.6,52.9,58.3,41.1,58.3,26.6z"/>
		</g>
	</g>
	<g>
		<path class="st0" d="M40.7,63.5c-0.2,0-0.3-0.1-0.3-0.2l-0.1-0.7c0-0.1,0-0.1,0-0.2c1.8-3.7,2-4.3,1.8-5.3c-0.1-0.6-0.5-0.9-1-0.8
			c-0.3,0.1-0.6,0.3-0.6,0.6c0,0.1,0,0.3,0,0.6c0,0.2-0.1,0.3-0.2,0.3l-0.6,0.1c-0.2,0-0.3-0.1-0.3-0.2c-0.1-0.7-0.1-1.1,0.1-1.4
			c0.3-0.6,0.8-1,1.5-1.1c1.2-0.2,2.1,0.4,2.3,1.7c0.1,0.6,0.1,1.2-0.1,1.9c-0.2,0.7-0.2,0.7-1.2,2.9c0,0,0,0.1-0.1,0.1
			c-0.1,0.2,0.1,0.4,0.3,0.4l1.7-0.3c0.2,0,0.3,0.1,0.3,0.2l0.1,0.5c0,0.2-0.1,0.3-0.2,0.3L40.7,63.5z"/>
		<path class="st0" d="M48.9,58.3c0.5,1.3,0.7,2.6-0.8,3.2c-1.5,0.6-2.4-0.4-2.9-1.7l-1.1-2.7c-0.5-1.3-0.7-2.6,0.9-3.2
			c1.5-0.6,2.4,0.4,2.9,1.7L48.9,58.3z M46.4,59.6c0.2,0.6,0.5,1.2,1.3,0.9c0.7-0.3,0.5-1,0.3-1.5l-1.3-3.2
			c-0.2-0.6-0.5-1.2-1.3-0.9c-0.8,0.3-0.5,1-0.3,1.5L46.4,59.6z"/>
		<path class="st0" d="M53,58.8c-0.1,0.1-0.3,0-0.4-0.1l-3-4.7c-0.1-0.1-0.2-0.2-0.4-0.1l-0.5,0.3c-0.1,0.1-0.3,0-0.4-0.1l-0.1-0.2
			c-0.1-0.1-0.1-0.2,0-0.3c0.3-0.5,0.6-1.2,0.6-1.6c0-0.1,0.1-0.2,0.1-0.2l0.2-0.2c0.1-0.1,0.3,0,0.4,0.1l4,6.3
			c0.1,0.1,0,0.3-0.1,0.4L53,58.8z"/>
		<path class="st0" d="M55.3,54.5l0.1,0.1c0.4,0.5,0.8,0.5,1.2,0.2c0.2-0.2,0.3-0.5,0.3-0.7c-0.1-0.3-0.3-0.5-0.8-1.1l-0.2-0.3
			c-0.1-0.1-0.3-0.1-0.4,0c0,0-0.1,0.1-0.1,0.1c-0.1,0.3-0.2,0.5-0.4,0.7c-0.8,0.7-1.7,0.5-2.8-0.7c-1.2-1.3-1.3-2.5-0.3-3.4
			c1.2-1.1,2.5-0.3,3.4,0.8l1.9,2.1c0.6,0.7,0.9,1.2,0.9,1.7c0,0.6-0.2,1.1-0.7,1.5c-0.9,0.8-1.9,0.7-2.8-0.2l-0.1-0.2L55.3,54.5z
			 M54,50.8c-0.6-0.7-1.1-0.8-1.5-0.4c-0.4,0.4-0.3,0.9,0.4,1.7c0.7,0.8,1.1,0.9,1.5,0.5c0.2-0.2,0.3-0.4,0.3-0.8
			c0-0.1,0-0.1-0.1-0.2L54,50.8z"/>
	</g>
</g>
</svg>
