<svg xmlns="http://www.w3.org/2000/svg" viewBox="0 0 64 64"><title>gamescom-2014-details-badge</title><g id="Ebene_1" data-name="Ebene 1"><path d="M20.54,36.63,25.9,8.57h.39l4.28,22.85,1.22-3.08h.36l1.28,3L37.75,8.57h.39l5.33,28V48.4h-.2l-22.54-.1h-.2V36.63Zm3.28.16V45l16.38.07V36.77L38,24.1,35.62,37.83l0,.16H33.37l0-.13L32,34l-1.59,4,0,.12h-2l0-.16L26,24.13Z" style="fill:#8190aa;fill-rule:evenodd"/><path d="M7.52,6.11A53.85,53.85,0,0,1,32,0,54.59,54.59,0,0,1,56.47,6.11l.93.46v31l-.06.43a41.44,41.44,0,0,1-9.93,17.86C42.43,61.06,36.65,64,32,64s-10.19-3.39-15.08-8.5A42.23,42.23,0,0,1,6.66,38l-.06-.43v-31l.92-.46ZM32,3.33A50.17,50.17,0,0,0,9.95,8.64V37.36a38.93,38.93,0,0,0,9.37,15.83c4.3,4.49,9.09,7.47,12.68,7.47,3.79,0,8.66-2.57,13-7.1a38,38,0,0,0,9.05-16.19V8.65A50.87,50.87,0,0,0,32,3.33Z" style="fill:#8190aa;fill-rule:evenodd"/><path d="M19.19,25.55H18.07v2.9c-2.15-2-3.23-2.87-4.46-2.87A2.21,2.21,0,0,0,11.36,28a2.91,2.91,0,0,0,1.25,2.45l.8-.79A1.91,1.91,0,0,1,12.49,28a1.08,1.08,0,0,1,1.12-1.13c1,0,1.76.74,4.53,3.43h1Z" style="fill:#8190aa;fill-rule:evenodd"/><path d="M19.33,21.91c0-1.88-2.06-2.61-4-2.61s-4,.74-4,2.61,2,2.6,4,2.6,4-.73,4-2.6Zm-1.13,0c0,1-1.35,1.3-2.86,1.3s-2.84-.28-2.84-1.3,1.33-1.31,2.84-1.31S18.19,20.88,18.19,21.91Z" style="fill:#8190aa;fill-rule:evenodd"/><polygon points="19.19 15.53 11.47 15.53 11.47 16.65 13.59 18.73 14.37 17.98 13.13 16.81 19.19 16.81 19.19 15.53" style="fill:#8190aa;fill-rule:evenodd"/><path d="M19.19,10.15H17.41V9.34H16.27v.81h-4.8v1.63l4.83,2.75h1.1V11.42h1.78V10.15Zm-2.91,1.27v2l-3.46-2Z" style="fill:#8190aa;fill-rule:evenodd"/><rect y="63.83" width="0.17" height="0.17" style="fill:#8190aa;opacity:0.01"/><rect x="63.83" y="63.83" width="0.17" height="0.17" style="fill:#8190aa;opacity:0.01"/><rect width="0.17" height="0.17" style="fill:#8190aa;opacity:0.01"/><rect x="63.83" width="0.17" height="0.17" style="fill:#8190aa;opacity:0.01"/><rect width="0.17" height="0.17" style="fill:#8190aa;opacity:0.01"/><rect x="63.83" width="0.17" height="0.17" style="fill:#8190aa;opacity:0.01"/></g></svg>