<svg xmlns="http://www.w3.org/2000/svg" viewBox="0 0 16 16"><title>gamescom-2014-badge</title><g id="Ebene_1" data-name="Ebene 1"><polygon points="9.54 6.48 10.06 9.42 10.06 11.52 5.93 11.5 5.93 9.42 6.45 6.49 7 9.73 7.01 9.82 7.62 9.82 7.64 9.75 8 8.87 8.29 9.72 8.31 9.79 8.98 9.79 8.99 9.7 9.54 6.48" style="fill:#8190aa;fill-rule:evenodd"/><path d="M1.73,1.56V9.47C2.63,12.79,5.91,16,8,16s5.2-2.55,6.27-6.53V1.56A13.3,13.3,0,0,0,1.73,1.56ZM11,12.49h-.11l-5.85,0H5V9.37L6.35,2.09h.22L7.65,7.81l.24-.61h.21l.25.6L9.43,2.09h.21L11,9.36v3.13Z" style="fill:#8190aa;fill-rule:evenodd"/><rect y="15.83" width="0.17" height="0.17" style="fill:#8190aa;opacity:0.01"/><rect y="15.83" width="0.17" height="0.17" style="fill:#8190aa;opacity:0.01"/><rect x="15.83" y="15.83" width="0.17" height="0.17" style="fill:#8190aa;opacity:0.01"/><rect x="15.83" y="15.83" width="0.17" height="0.17" style="fill:#8190aa;opacity:0.01"/><rect width="0.17" height="0.17" style="fill:#8190aa;opacity:0.01"/><rect width="0.17" height="0.17" style="fill:#8190aa;opacity:0.01"/><rect x="15.83" width="0.17" height="0.17" style="fill:#8190aa;opacity:0.01"/><rect x="15.83" width="0.17" height="0.17" style="fill:#8190aa;opacity:0.01"/></g></svg>