<?xml version="1.0" encoding="utf-8"?>
<!-- Generator: Adobe Illustrator 26.3.1, SVG Export Plug-In . SVG Version: 6.00 Build 0)  -->
<svg version="1.1" id="Layer_1" xmlns="http://www.w3.org/2000/svg" xmlns:xlink="http://www.w3.org/1999/xlink" x="0px" y="0px"
	 viewBox="0 0 16 16" style="enable-background:new 0 0 16 16;" xml:space="preserve">
<style type="text/css">
	.st0{fill:#9966FF;}
	.st1{fill:#6600CC;}
	.st2{fill:#CC99FF;}
	.st3{fill:url(#SVGID_1_);}
	.st4{fill:url(#SVGID_00000068654717693595580820000016462751985880044214_);}
</style>
<polygon class="st0" points="14.6,8.8 8,13.2 1.4,8.8 8,4.5 "/>
<polygon class="st1" points="1.4,8.8 1.4,11.6 8,16 8,13.2 "/>
<polygon class="st2" points="14.6,8.8 14.6,11.6 8,16 8,13.2 "/>
<path class="st1" d="M8,6.9c-1.3,0-2.4,0.8-2.4,1.9s1.1,1.9,2.4,1.9s2.4-0.8,2.4-1.9S9.3,6.9,8,6.9z"/>
<path class="st1" d="M12,7.9c-0.7,0-1.2,0.4-1.2,0.9s0.5,0.9,1.2,0.9s1.2-0.4,1.2-0.9S12.7,7.9,12,7.9z"/>
<polygon class="st2" points="1.9,10 1.9,11 3.7,12.1 3.7,11.2 "/>
<linearGradient id="SVGID_1_" gradientUnits="userSpaceOnUse" x1="7.2455" y1="12.453" x2="8.7545" y2="12.453" gradientTransform="matrix(1 0 0 -1 0 18)">
	<stop  offset="0.1845" style="stop-color:#FCD28C"/>
	<stop  offset="0.3913" style="stop-color:#DDAD60"/>
	<stop  offset="0.5624" style="stop-color:#FCD28C"/>
	<stop  offset="0.7451" style="stop-color:#FDF9DE"/>
	<stop  offset="0.9109" style="stop-color:#B8844E"/>
</linearGradient>
<path class="st3" d="M8,9.4c-0.4,0-0.8-0.3-0.8-0.7V2.4C7.2,2,7.6,1.7,8,1.7S8.8,2,8.8,2.4v6.4C8.8,9.1,8.4,9.4,8,9.4L8,9.4z"/>
<radialGradient id="SVGID_00000127023145727400084580000013550957875358022041_" cx="8" cy="15.5878" r="3.5233" gradientTransform="matrix(1 0 0 -1 0 18)" gradientUnits="userSpaceOnUse">
	<stop  offset="0.1803" style="stop-color:#FDF9DE"/>
	<stop  offset="0.3291" style="stop-color:#FCD28C"/>
	<stop  offset="0.5269" style="stop-color:#DDAD60"/>
	<stop  offset="0.7639" style="stop-color:#B8844E"/>
</radialGradient>
<circle style="fill:url(#SVGID_00000127023145727400084580000013550957875358022041_);" cx="8" cy="2.4" r="2.4"/>
</svg>
