<?xml version="1.0" encoding="UTF-8" standalone="no"?>
<!-- Generator: Adobe Illustrator 26.0.3, SVG Export Plug-In . SVG Version: 6.00 Build 0)  -->

<svg
   xmlns:dc="http://purl.org/dc/elements/1.1/"
   xmlns:cc="http://creativecommons.org/ns#"
   xmlns:rdf="http://www.w3.org/1999/02/22-rdf-syntax-ns#"
   xmlns:svg="http://www.w3.org/2000/svg"
   xmlns="http://www.w3.org/2000/svg"
   xmlns:sodipodi="http://sodipodi.sourceforge.net/DTD/sodipodi-0.dtd"
   xmlns:inkscape="http://www.inkscape.org/namespaces/inkscape"
   version="1.1"
   id="Ebene_1"
   x="0px"
   y="0px"
   viewBox="0 0 16.000001 15.99932"
   xml:space="preserve"
   sodipodi:docname="hat.svg"
   width="16"
   height="15.99932"
   inkscape:version="0.92.5 (2060ec1f9f, 2020-04-08)"><metadata
   id="metadata40"><rdf:RDF><cc:Work
       rdf:about=""><dc:format>image/svg+xml</dc:format><dc:type
         rdf:resource="http://purl.org/dc/dcmitype/StillImage" /><dc:title></dc:title></cc:Work></rdf:RDF></metadata><defs
   id="defs38" /><sodipodi:namedview
   pagecolor="#ffffff"
   bordercolor="#666666"
   borderopacity="1"
   objecttolerance="10"
   gridtolerance="10"
   guidetolerance="10"
   inkscape:pageopacity="0"
   inkscape:pageshadow="2"
   inkscape:window-width="1497"
   inkscape:window-height="691"
   id="namedview36"
   showgrid="false"
   inkscape:zoom="10.155988"
   inkscape:cx="10.255428"
   inkscape:cy="10.521348"
   inkscape:window-x="1491"
   inkscape:window-y="335"
   inkscape:window-maximized="0"
   inkscape:current-layer="Ebene_1" />
<style
   type="text/css"
   id="style2">
	.st0{fill:#FFFFFF;}
	.st1{fill:none;stroke:#1D1D1B;stroke-width:11;stroke-miterlimit:10;}
	.st2{fill-rule:evenodd;clip-rule:evenodd;fill:#1D1D1B;}
	.st3{fill-rule:evenodd;clip-rule:evenodd;fill:url(#SVGID_1_);}
	.st4{fill:#1D1D1B;}
	.st5{opacity:0.33;fill-rule:evenodd;clip-rule:evenodd;fill:#FFFFFF;enable-background:new    ;}
</style>
<path
   class="st0"
   d="m 2.8689686,6.7032962 c -0.2968813,0.2207045 -2.72446452,0.869685 -2.72446452,2.6563487 0,1.7866651 3.41543332,3.9727011 8.17602062,3.9727011 4.7605903,0 7.5349703,-1.68945 7.5349703,-3.060976 0,-1.3715287 -3.126434,-2.8455264 -3.126434,-2.8455264 C 12.151065,5.983376 11.165844,2.6727912 8.373069,2.6727912 7.2486039,2.6754476 5.3963893,3.3191426 3.8068984,3.3191426"
   id="path4"
   inkscape:connector-curvature="0"
   style="fill:#ffffff;stroke-width:0.02627352" />
<path
   class="st0"
   d="m 8.3756972,2.675419 c -1.1270933,0 -2.9793079,0.6437236 -4.5714249,0.6437236 C 3.0160951,3.4794179 3.0633852,5.8231007 2.8689686,6.7006684"
   id="path6"
   inkscape:connector-curvature="0"
   style="fill:#ffffff;stroke-width:0.02627352" />
<path
   class="st1"
   d="M 2.8689686,6.7006684 C 2.5720873,6.9213736 0.14450408,7.5703541 0.14450408,9.3570177 c 0,1.7866643 3.41543332,3.9727003 8.17602062,3.9727003 4.7605903,0 7.5349703,-1.68945 7.5349703,-3.060976 0,-1.3715278 -3.126434,-2.8455256 -3.126434,-2.8455256 C 12.151065,5.983376 11.165844,2.6701641 8.373069,2.6701641 7.2486039,2.6727524 5.3963893,3.3165155 3.8068984,3.3165155"
   id="path8"
   inkscape:connector-curvature="0"
   style="fill:none;stroke:#1d1d1b;stroke-width:0.28900874;stroke-miterlimit:10" />
<path
   class="st1"
   d="m 8.3756972,2.6727912 c -1.1270933,0 -2.9793079,0.6437243 -4.5714249,0.6437243 -0.7881772,0.1602746 -0.7408871,2.503958 -0.9353037,3.3815258"
   id="path10"
   inkscape:connector-curvature="0"
   style="fill:none;stroke:#1d1d1b;stroke-width:0.28900874;stroke-miterlimit:10" />
<path
   class="st2"
   d="m 2.6062418,7.5861189 c 0,0 -0.291626,0.7435677 -0.2154346,1.4713699 0.267982,0.5149803 1.6052546,1.3373712 5.0311974,1.3373712 3.4259404,0 5.0443324,-1.0641168 5.1651854,-1.4713712 0.120853,-0.4072544 0.204927,-0.9590173 0.160262,-1.1770967 -0.147127,-0.302156 -0.267979,-0.4545486 -0.267979,-0.4545486 0,0 0.02103,1.3347442 -4.9523787,1.5528215 C 4.4505771,8.7894867 2.6062418,7.5861189 2.6062418,7.5861189 Z"
   id="path12"
   inkscape:connector-curvature="0"
   style="clip-rule:evenodd;fill:#1d1d1b;fill-rule:evenodd;stroke-width:0.02627352" />
<linearGradient
   id="SVGID_1_"
   gradientUnits="userSpaceOnUse"
   x1="244.47411"
   y1="533.54852"
   x2="288.30399"
   y2="356.5585"
   gradientTransform="matrix(0.02627256,0,0,0.02627448,-0.05542983,-7.6086739)">
	<stop
   offset="0.25"
   style="stop-color:#FFFFFF"
   id="stop14" />
	<stop
   offset="0.28"
   style="stop-color:#F7F7F7"
   id="stop16" />
	<stop
   offset="0.32"
   style="stop-color:#E2E2E2"
   id="stop18" />
	<stop
   offset="0.3564"
   style="stop-color:#BFBFBE"
   id="stop20" />
	<stop
   offset="0.4117"
   style="stop-color:#8F8F8E"
   id="stop22" />
	<stop
   offset="0.6767"
   style="stop-color:#515150"
   id="stop24" />
	<stop
   offset="0.7503"
   style="stop-color:#1D1D1B"
   id="stop26" />
</linearGradient>
<path
   class="st3"
   d="m 4.0407258,4.0811028 c 0,0 0.2837427,-0.2627445 1.1034472,-0.2627445 0.8197036,0 4.0880094,0.7383121 4.3349734,1.2349008 C 9.7261074,5.549847 9.2164197,5.4342388 9.0850568,5.4736504 8.9536949,5.5130606 4.1274247,4.3044365 4.0932712,4.2387496 4.0696301,4.1888296 4.0512393,4.1362791 4.0407288,4.0811028 Z"
   id="path29"
   style="clip-rule:evenodd;fill:url(#SVGID_1_);fill-rule:evenodd;stroke-width:0.02627352"
   inkscape:connector-curvature="0" />
<ellipse
   class="st4"
   cx="2.8926175"
   cy="6.7216868"
   rx="0.11822654"
   ry="0.11035279"
   id="ellipse31"
   style="fill:#1d1d1b;stroke-width:0.02627352" />
<path
   class="st5"
   d="m 3.4706104,8.1615285 c -0.178653,-0.01051 -0.2443359,-0.01051 -0.2968813,0.3547059 -0.057803,0.4072544 -0.136615,0.5832938 0.047292,0.85392 0.2285702,0.3389405 1.0114921,0.6358416 1.5448259,0.7120386 1.0955668,0.157647 1.5579624,0.294275 1.8942524,0.06831 C 6.9044325,9.9876055 7.0857136,8.98392 6.6890009,8.9418807 4.269298,8.6843918 3.6939304,8.1720384 3.4706124,8.1615285 Z"
   id="path33"
   inkscape:connector-curvature="0"
   style="clip-rule:evenodd;opacity:0.33000004;fill:#ffffff;fill-rule:evenodd;stroke-width:0.02627352;enable-background:new" />
</svg>