<svg xmlns="http://www.w3.org/2000/svg" viewBox="0 0 64 64"><title>64x64</title><g id="Layer_8" data-name="Layer 8"><polyline points="31.46 0.04 31.46 4.65 31.89 4.63 32.68 4.68 32.68 0.06 32 0 31.46 0.04" style="fill:#1c80b7"/></g><g id="Headphones"><path d="M54.7,44.48,58.9,46s8.38-8.16,3.6-16.88L59,27.55l.36-1.83-1.61-2.1.08-6.45A30.36,30.36,0,0,0,32,0V4.63" style="fill:#1c80b7"/><path d="M9.27,44.48,5.08,46s-8.38-8.16-3.6-16.88L5,27.55l-.36-1.83,1.61-2.1-.08-6.45A30.36,30.36,0,0,1,32,0V4.63" style="fill:#1c80b7"/></g><g id="Layer_7" data-name="Layer 7"><polyline points="29.91 4.79 31.89 4.63 33.85 4.79 33.85 64 29.91 64 29.91 4.79" style="fill:#1c2538"/></g><g id="Head"><path d="M31.9,4.63C29.85,4.7-2.27,6.32,9.34,44.71v0l9.55,13.9,0,0L29.47,64H31.9a.1.1,0,0,0,.1-.1V4.74A.1.1,0,0,0,31.9,4.63Z" style="fill:#1c2538"/><path d="M31.89,4.63C34.1,4.71,66,6.42,54.42,44.72L44.85,58.66,34.28,64H31.77V4.75A.12.12,0,0,1,31.89,4.63Z" style="fill:#1c2538"/></g><g id="Smirk"><path d="M53.82,45S51,54.08,36.08,54c0,0-6.28-.12-1.52,1.31s16.15,2.43,19.84-3.63c0,0,1.92-2.37.76-6.8C55.15,44.84,54.64,43.4,53.82,45Z" style="fill:#1c80b7"/></g><g id="Eyes"><path d="M19.44,43.92s-5.57-.1-7-6.6.72-9.28,2.37-9.69,6.6.41,13.91,9.28C35.62,45.15,19.44,43.92,19.44,43.92Z" style="fill:#fff"/><path d="M37.48,43.71s-6-2.16-1-5.77,13.4-6.39,15.15-2.58S49.85,43.5,48,44,44,45.36,37.48,43.71Z" style="fill:#fff"/></g></svg>