<?xml version="1.0" encoding="UTF-8"?>
<svg id="Layer_1" data-name="Layer 1" xmlns="http://www.w3.org/2000/svg" viewBox="0 0 16 16">
  <defs>
    <style>
      .cls-1 {
        fill: #6678af;
      }

      .cls-2 {
        fill: #99b1cc;
      }
    </style>
  </defs>
  <path class="cls-2" d="M6.5119,9.7963c-.1622-.0493-.3412-.1604-.5218-.3235-.3126-.2775-.632-.7105-.8838-1.251-.5015-1.0836-1.0657-2.1574-2.0245-2.3931-1.622-.3954-1.7972,1.0486-1.7972,1.0486l-.9707,.4359,1.2222,.1615c.4133,.4265,.9873,.5922,1.6541,.446,.7742,1.3044-.1601,2.7967,.9222,5.0728,.8103,1.7049,3.0049,2.117,5.5283,1.6563,1.5666-.2846,3.0737-.2354,4.2862,1.348,.9714,.0447,1.4696-.64,1.3325-1.5873l-1.3077-.5396,1.3324-.0056c.4818-.6828,.0841-1.8688-.5935-1.9511-2.1817,1.1989-3.9972,1.0658-4.3562,.0053,.5446-.4748,1.3132-.6805,2.3768-.6374,2.6336,.1038,1.8476-1.9923,1.8476-1.9923,1.9334-.7216,1.0302-2.9458-.1151-2.6429,1.9526-1.4911-.0257-3.7547-1.6468-2.4619C13.8902,1.7076,11.5142,.0764,11.5142,.0764c.0919,.768-.2485,1.7417-.7706,2.7206-.7209,1.3555-1.791,2.722-2.5542,3.5663-1.3111,1.4498-1.6584,2.6232-1.6775,3.433Z"/>
  <path class="cls-1" d="M6.0007,9.4621l-.0106,.0107c.1805,.1631,.3596,.2742,.5218,.3235,.0191-.8097,.3664-1.9831,1.6775-3.433,.7632-.8443,1.8332-2.2108,2.5542-3.5663l-.0052-.0041c-.5054-.3846-1.0777-.2001-1.3667,.3128C9.5981,.8836,6.8522,0,6.8522,0c.8743,1.6262-.1074,5.234-.7996,7.0667-.7029,1.8624-.0518,2.3954-.0518,2.3954Z"/>
</svg>