<?xml version="1.0" encoding="utf-8"?>
<!-- Generator: Adobe Illustrator 24.3.0, SVG Export Plug-In . SVG Version: 6.00 Build 0)  -->
<svg version="1.1" id="Layer_1" xmlns="http://www.w3.org/2000/svg" xmlns:xlink="http://www.w3.org/1999/xlink" x="0px" y="0px"
	 viewBox="0 0 64 64" style="enable-background:new 0 0 64 64;" xml:space="preserve">
<style type="text/css">
	.st0{fill:#B2B2B2;}
	.st1{fill:#F6F6F6;}
	.st2{fill:#FFFFFF;}
</style>
<g>
	<path class="st0" d="M54.8,43.6c-0.5,0-1.8-0.1-2.3-0.2l-20.4,0H11.6c-0.6,0.1-1.9,0.2-2.4,0.2c-2.5,0-4.8-2-6-3.8
		c-1.1-1.8-1.7-3.7-1.9-5.7c-0.2-2.8,0.7-7.7,3.9-9.2h0.4l0.1-0.5c0.6-6.5,3.1-12,7.6-16.3c4.9-4.8,11.5-7.5,18.7-7.5h0.1
		c7.1,0,13.7,2.6,18.7,7.5c4.4,4.3,7,9.8,7.6,16.3l0,0.5h0.5c3.2,1.5,4.1,6.4,3.9,9.2c-0.2,2-0.8,3.9-1.9,5.7
		C59.6,41.6,57.2,43.6,54.8,43.6z"/>
	<path d="M31.9,1.3L31.9,1.3L31.9,1.3l0.1,0l0,0c7,0,13.5,2.6,18.3,7.3c4.4,4.3,6.8,9.5,7.4,16l0.1,0.9h0.8c2.7,1.3,3.7,5.8,3.5,8.6
		c-0.2,1.9-0.8,3.8-1.8,5.5c-1.1,1.7-3.3,3.5-5.6,3.5c-0.5,0-1.8-0.1-2.2-0.2l-0.1,0h-0.1H32H11.6h-0.1l-0.1,0
		c-0.4,0.1-1.7,0.2-2.2,0.2c-2.3,0-4.5-1.8-5.5-3.5C2.7,37.9,2,36,1.8,34.1c-0.2-2.8,0.8-7.3,3.5-8.6h0.8l0.1-0.9
		c0.6-6.4,3-11.7,7.4-16C18.5,3.9,25,1.3,31.9,1.3 M32.1,0.3C32,0.3,32,0.3,32.1,0.3c-0.1,0-0.1,0-0.1,0c-7.2,0-14,2.7-19,7.6
		c-4.5,4.4-7.1,9.9-7.7,16.6H5.1c-3.5,1.5-4.5,6.7-4.3,9.7c0.2,2.1,0.9,4.1,2,5.9c1.2,1.9,3.7,4,6.4,4c0.5,0,1.9-0.1,2.4-0.2H32
		h20.4c0.5,0.1,1.9,0.2,2.4,0.2c2.7,0,5.2-2.1,6.4-4c1.1-1.8,1.8-3.8,2-5.9c0.2-3-0.8-8.2-4.3-9.7h-0.1c-0.6-6.7-3.2-12.2-7.7-16.6
		C46.1,3,39.3,0.3,32.1,0.3L32.1,0.3z"/>
</g>
<g>
	<path class="st1" d="M18.9,58.6c-0.4-0.3-0.8-0.4-1.2-0.4c-0.4,0-0.9,0.1-1.3,0.4l-4.8,3.7l0-6.4c0-6.6-0.6-13.8-1.7-21.5l-0.3-2.8
		c-0.5-7.9,1.7-14.4,6.5-19.3c4.2-4.3,9.8-6.6,15.9-6.6c6.2,0,11.7,2.3,15.9,6.6c4.8,4.9,6.9,11.4,6.5,19.3l-0.3,2.8
		C53,42.2,52.4,49.4,52.4,56v6.4c0,0,0,0,0,0l-4.9-3.8c-0.3-0.3-0.8-0.4-1.2-0.4c-0.4,0-0.8,0.1-1.2,0.4l-5.9,4.6h0l-5.9-4.6
		c-0.3-0.3-0.8-0.4-1.2-0.4h-0.2c-0.4,0-0.9,0.1-1.3,0.4l-5.8,4.6L18.9,58.6z"/>
	<path d="M32,6.3L32,6.3c6,0,11.4,2.2,15.6,6.5c4.7,4.8,6.8,11.1,6.3,18.9c-0.1,0.5-0.1,0.9-0.2,1.4c0,0.5-0.1,0.9-0.1,1.4
		c-1.1,7.7-1.7,14.9-1.7,21.6v5.4l-4-3.1c-0.4-0.4-1.1-0.5-1.6-0.5c-0.5,0-1,0.2-1.5,0.5l0,0l0,0l-5.6,4.4l-5.5-4.3
		c-0.4-0.4-1.1-0.5-1.6-0.5h-0.2c-0.5,0-1.1,0.1-1.6,0.5l-5.5,4.3l-5.6-4.4l0,0l0,0c-0.5-0.3-1-0.5-1.5-0.5c-0.5,0-1.1,0.1-1.6,0.5
		l-4,3.1V56c0-6.6-0.6-13.9-1.7-21.5c0-0.4-0.1-0.9-0.1-1.4c-0.1-0.5-0.1-1-0.1-1.4c-0.5-7.8,1.6-14.2,6.3-18.9
		C20.6,8.5,26,6.3,32,6.3 M32,5.3c-6.3,0-12,2.4-16.3,6.8c-4.9,5-7.1,11.6-6.6,19.7c0.1,0.9,0.2,1.9,0.3,2.8
		c1.2,8.1,1.7,15.2,1.7,21.4v6.4c0,0.3,0.2,0.5,0.5,0.5c0.1,0,0.2,0,0.3-0.1l4.9-3.8c0.2-0.2,0.6-0.3,0.9-0.3s0.6,0.1,0.9,0.3
		l5.9,4.6c0.1,0.1,0.2,0.1,0.3,0.1c0.1,0,0.2,0,0.3-0.1L31,59c0.2-0.2,0.6-0.3,0.9-0.3c0,0,0.1,0,0.2,0c0.3,0,0.7,0.1,0.9,0.3
		l5.9,4.6c0.1,0.1,0.2,0.1,0.3,0.1c0.1,0,0.2,0,0.3-0.1l5.9-4.6c0.3-0.2,0.6-0.3,0.9-0.3s0.7,0.1,0.9,0.3l4.9,3.8
		c0.1,0.1,0.2,0.1,0.3,0.1c0.3,0,0.5-0.2,0.5-0.5V56c0-6.2,0.5-13.3,1.7-21.4c0.1-0.9,0.2-1.9,0.3-2.8c0.5-8.1-1.7-14.7-6.6-19.7
		C44,7.7,38.3,5.3,32,5.3L32,5.3z"/>
</g>
<g id="Eyes_1_">
	<path d="M19.7,39.4c0,0-5.4-0.1-6.8-6.4s0.7-9,2.3-9.4s6.4,0.4,13.5,9C35.4,40.6,19.7,39.4,19.7,39.4z"/>
	<path d="M37.2,39.2c0,0-5.8-2.1-1-5.6c4.9-3.5,13-6.2,14.7-2.5s-1.7,7.9-3.5,8.4C45.6,40,43.5,40.8,37.2,39.2z"/>
</g>
</svg>
