<?xml version="1.0" encoding="UTF-8" standalone="no"?>
<!DOCTYPE svg PUBLIC "-//W3C//DTD SVG 1.1//EN" "http://www.w3.org/Graphics/SVG/1.1/DTD/svg11.dtd">
<svg width="100%" height="100%" viewBox="0 0 64 64" version="1.1" xmlns="http://www.w3.org/2000/svg" xmlns:xlink="http://www.w3.org/1999/xlink" xml:space="preserve" xmlns:serif="http://www.serif.com/" style="fill-rule:evenodd;clip-rule:evenodd;stroke-linejoin:round;stroke-miterlimit:2;">
    <g transform="matrix(1,0,0,1,0.0595962,-0.361221)">
        <path d="M6.047,13.16C6.933,11.108 8.136,9.285 9.587,7.773C10.058,7.361 10.646,6.773 10.94,6.538C13.117,4.773 15.94,3.655 18.587,3.479L20.94,3.479C24.235,3.655 27.764,4.891 30.587,6.891C31.705,7.714 33.117,8.949 33.764,9.773C33.882,9.949 34.058,10.126 34.058,10.126C34.058,10.126 34.235,9.949 34.352,9.773C34.999,8.949 36.411,7.714 37.529,6.891C40.352,4.891 43.882,3.655 47.176,3.479L49.529,3.479C51.705,3.597 54.117,4.42 55.999,5.714C58.548,7.394 60.698,9.987 62.045,13.16L54.149,13.16C52.524,11.62 50.456,10.832 48.058,10.832C46.705,10.832 45.646,11.008 44.293,11.42C43.045,11.828 41.807,12.393 40.594,13.16L27.522,13.16C26.31,12.393 25.071,11.828 23.823,11.42C22.47,11.008 21.411,10.832 20.058,10.832C17.651,10.832 15.63,11.603 13.981,13.16L6.047,13.16Z" style="fill:rgb(253,2,45);"/>
    </g>
    <path d="M6.107,12.799L14.041,12.799L12.647,14.353C12.176,15 11.412,16.471 11.118,17.412C10.588,19 10.412,20.294 10.412,22.059L10.412,22.412L4.374,22.412C4.307,21.185 4.317,20 4.412,19.118C4.668,16.864 5.243,14.736 6.103,12.812L6.107,12.799ZM28.508,22.412L27,20.882C25.412,19.353 23.706,18.118 22.176,17.353C21.706,17.118 21.294,16.882 21.294,16.882L21.294,16.824L21.824,16.471C22.471,16.059 24.529,15 24.706,15C24.824,15 26.353,15.882 27.353,16.529C29.588,17.882 31.529,19.412 32.647,20.588L34.018,22.412L28.508,22.412ZM37.186,22.412L36.824,21.647C36.471,21 36.176,20.353 36.176,20.353C36.176,20.235 36.941,19.412 37.588,18.765C39.588,16.824 42.118,15.529 44.588,15.118C45.471,15 47.118,15 48.059,15.176C49.824,15.471 51.294,16.235 52.412,17.353C53.659,18.625 54.493,20.361 54.859,22.412L37.186,22.412ZM54.208,12.799L62.105,12.799L62.176,12.941C63.176,15.235 63.882,18.294 63.882,20.353L63.882,22.353L63.878,22.412L57.807,22.412L57.824,22.118C57.824,19.647 57.412,17.706 56.412,15.765C55.81,14.582 55.079,13.591 54.22,12.812L54.208,12.799ZM27.582,12.799L40.653,12.799L40.635,12.812C38.833,13.84 37.063,15.255 35.294,17.059L34.118,18.235L32.941,17.059C31.172,15.255 29.403,13.84 27.601,12.812L27.582,12.799Z" style="fill:rgb(254,113,4);"/>
    <path d="M57.807,22.412L63.878,22.412L63.872,22.493L63.872,22.497C63.863,23.636 63.635,25.534 63.353,27C62.992,28.706 62.485,30.399 61.81,32.08L56.076,32.08C57.201,28.806 57.778,25.601 57.803,22.493L57.807,22.412ZM28.508,22.412L34.018,22.412L34.064,22.493C35.565,24.793 36.657,27.781 36.882,30.353C36.936,31.055 36.916,31.596 36.767,32.08L32.664,32.08L32.765,31.471C32.765,30.706 32.706,30.235 32.471,29.294C32.176,27.882 31.353,26 30.529,24.824L28.508,22.412ZM37.186,22.412L54.859,22.412L54.869,22.493C55.421,25.25 55.141,28.568 54,32.059L53.992,32.08L39.267,32.08C39.41,31.559 39.49,31.025 39.529,30.471C39.638,28.289 38.938,25.955 37.223,22.493L37.186,22.412ZM4.374,22.412L10.412,22.412L10.412,23.294L10.529,23.294C10.529,23.353 10.882,23.294 11.235,23.235C14.882,22.588 18.706,23.471 21.706,25.765C22.412,26.294 23.529,27.294 24.059,28C25.032,29.189 25.806,30.577 26.296,32.08L22.703,32.08C22.23,31.039 21.531,30.094 20.647,29.235C19.118,27.706 17.353,26.824 15.235,26.471C14.588,26.353 14.353,26.353 13.353,26.353C12.118,26.412 11.059,26.529 10.882,26.765C10.824,26.824 10.824,26.882 10.882,27.235C11,28 11.353,29.529 11.412,29.529C11.471,29.588 11.706,29.529 12.176,29.471C14.647,29 17.118,29.765 18.824,31.588L19.221,32.08L6.418,32.08L5.941,30.824L5.765,30.176L5.647,30.176C5.588,30.176 5.059,30.941 4.706,31.529L4.461,32.08L0.848,32.08C1.011,31.592 1.202,31.125 1.412,30.706C2.118,29.235 2.882,28.176 4,27C4.765,26.235 4.765,26.235 4.647,25.529L4.374,22.412Z" style="fill:rgb(250,222,2);"/>
    <path d="M56.076,32.08L61.81,32.08L61.798,32.107C60.552,35.317 58.743,38.503 56.293,41.686L51.437,41.686L51.706,41.294C52.824,39.412 54.235,36.765 55,34.941L56.076,32.08Z" style="fill:rgb(9,172,65);"/>
    <path d="M0.848,32.08L4.461,32.08L4.451,32.107C3.313,34.294 3.119,37.032 3.824,39.471C4.047,40.252 4.376,40.994 4.806,41.686L1.213,41.686C0.534,40.21 0.118,38.482 0.118,37.294L0.118,35.765C0.118,34.789 0.393,33.385 0.841,32.107L0.848,32.08Z" style="fill:rgb(9,172,65);"/>
    <path d="M39.267,32.08L53.992,32.08L53.982,32.107C52.985,35.175 51.326,38.411 49.063,41.686L39.879,41.686C39.029,40.325 38.349,38.582 37.824,36.529C37.588,35.765 37.588,35.765 37.941,35.176C38.599,34.132 39.028,33.138 39.258,32.107L39.267,32.08Z" style="fill:rgb(9,172,65);"/>
    <path d="M32.655,32.082L36.767,32.08L36.756,32.107C36.613,32.675 36.297,33.17 35.765,33.765L35.412,34.118C35.412,34.118 34.765,34.706 34.588,34.824C34.294,35.059 34.294,35.059 34.294,35.529C34.353,36.176 34.647,37.294 35.118,38.471C35.47,39.366 36.048,40.541 36.682,41.686L33.071,41.686C32.49,40.774 31.993,39.794 31.647,38.882C31.176,37.706 30.471,35.353 30.471,35C30.471,34.941 30.588,34.824 30.824,34.647C31.235,34.353 31.941,33.706 32.176,33.294C32.463,32.844 32.605,32.511 32.655,32.082Z" style="fill:rgb(9,172,65);"/>
    <path d="M22.704,32.081L26.293,32.083C26.61,33.021 26.887,34.007 27,35C27.118,35.706 27.118,37.353 27,38.059C26.847,39.315 26.534,40.539 26.053,41.686L22.31,41.686C23.286,40.165 23.765,38.427 23.765,36.529C23.765,34.928 23.415,33.414 22.704,32.081Z" style="fill:rgb(9,172,65);"/>
    <path d="M6.418,32.08L19.22,32.081C19.994,33.035 20.506,34.215 20.706,35.412C20.765,35.882 20.765,37.176 20.706,37.647C20.471,39.059 19.824,40.412 18.824,41.471L18.58,41.686L8.603,41.686C8.018,41.178 7.545,40.543 7.176,39.824C6.235,38 6.118,35.941 6.882,33.941C7,33.529 7,33.529 6.588,32.529L6.418,32.08Z" style="fill:rgb(9,172,65);"/>
    <path d="M33.071,41.686L36.682,41.686L38.235,44.353C38.471,44.647 38.647,44.941 38.647,45C38.647,45 38.471,45.176 38.235,45.412C37.235,46.294 36.294,46.882 35.235,47.353L34.647,47.588L34.647,47.882C34.647,48.294 34.941,49.176 35.294,50C35.471,50.353 35.647,50.647 35.647,50.706C35.647,50.706 35.529,50.882 35.353,51.059L34.891,51.378L30.789,51.378C30.648,51.055 30.374,50.74 30.059,50.529L29.706,50.294C29.706,50.294 30.235,50.118 30.412,50.059C30.882,49.941 31.118,49.706 31.294,49.471C31.412,49.235 31.412,48.529 31.235,47.882C31.118,47.235 31.059,46.706 31.176,46.471C31.294,46.294 31.294,46.235 31.765,46.176C32.529,46 33.059,45.765 33.588,45.471C34.118,45.118 35.059,44.471 35.059,44.412C35.059,44.412 34.882,44.176 34.647,43.882L33.071,41.686ZM39.879,41.686L49.063,41.686L48.998,41.774C46.871,44.871 44.204,47.999 41.059,51.059L40.715,51.378L38.945,51.378L39.235,51.176L39.529,50.824L39.176,50.412C38.824,49.941 38.235,49.176 38.235,49.059C38.235,49.059 38.471,48.824 38.824,48.647C40.176,47.824 41.235,46.882 42.588,45.353L42.765,45.118L42.706,45C42.647,44.941 42.176,44.412 41.706,43.882C41.176,43.353 40.588,42.765 40.471,42.588L39.879,41.686ZM51.437,41.686L56.293,41.686L53.529,45.176C52.471,46.412 49.294,49.588 47.941,50.824L47.258,51.378L43.996,51.378C46.874,48.246 49.387,44.993 51.379,41.774L51.437,41.686ZM22.31,41.686L26.053,41.686L26.01,41.774C25.595,42.805 25.038,43.771 24.353,44.647C23.824,45.353 22.824,46.471 22.176,47C20.176,48.588 17.706,49.647 15.118,49.941C14.412,50.059 12.765,50.059 12.059,49.941C9.059,49.588 6.294,48.294 4.176,46.235C3,45.059 2.235,44 1.529,42.529L1.213,41.686L4.806,41.686L4.868,41.774C5.314,42.517 5.877,43.2 6.529,43.824C8.059,45.294 9.765,46.235 11.882,46.588C12.765,46.765 14.353,46.765 15.235,46.588C17.353,46.235 19.118,45.353 20.647,43.824C21.295,43.194 21.844,42.518 22.251,41.774L22.31,41.686ZM8.603,41.686L8.71,41.774C9.972,43.018 11.697,43.706 13.588,43.706C15.487,43.706 17.186,43.055 18.473,41.774L18.58,41.686L8.603,41.686Z" style="fill:rgb(3,87,237);"/>
    <path d="M43.996,51.378L47.258,51.378L47.256,51.38C44.172,54.061 40.865,56.519 37.353,58.824C36.353,59.471 34.294,60.706 33.941,60.941L33.765,61L33.765,60.941C33.824,60.941 34.176,60.588 34.588,60.235C37.981,57.498 41.167,54.498 43.993,51.38L43.996,51.378ZM30.789,51.378L34.891,51.378L34.887,51.38C34.507,51.687 33.959,51.858 33.294,51.941L32.824,51.941L32.824,52C32.824,52.059 33.059,52.294 33.353,52.471C34.059,53.059 34.529,53.412 34.588,53.647C34.626,53.851 34.628,53.838 34.54,54.003C34.453,54.168 34.412,54.235 34.118,54.294C33.588,54.353 33.471,54.471 33.176,54.765C32.765,55.235 32.706,55.412 32.647,56.529C32.647,57.529 32.647,57.529 32.412,58C31.882,58.941 31.059,59.588 30.059,59.765C29.588,59.882 28.529,59.941 28.235,59.882C27.824,59.824 27.353,59.588 26.765,59.294C26.235,59 25.059,58.118 24.824,57.882L24.706,57.706L25.353,57.706C26.588,57.647 27.824,57.176 28.353,56.647C28.824,56.176 29.118,55.529 29.529,53.941C29.647,53.412 29.824,52.941 29.882,52.824C30.059,52.529 30.294,52.294 30.588,52.235C30.765,52.176 30.882,52.176 30.941,52.118L31,52.118L31,51.941L30.789,51.378ZM38.945,51.378L40.715,51.378L37.765,54.118L37.706,53.765C37.706,53.294 37.588,52.941 37.235,52.588L37,52.294L37.529,52.118L38.945,51.378Z" style="fill:rgb(106,13,136);"/>
</svg>
