<?xml version="1.0" encoding="UTF-8" standalone="no"?><!DOCTYPE svg PUBLIC "-//W3C//DTD SVG 1.1//EN" "http://www.w3.org/Graphics/SVG/1.1/DTD/svg11.dtd"><svg width="100%" height="100%" viewBox="0 0 64 64" version="1.1" xmlns="http://www.w3.org/2000/svg" xmlns:xlink="http://www.w3.org/1999/xlink" xml:space="preserve" style="fill-rule:evenodd;clip-rule:evenodd;stroke-linejoin:round;stroke-miterlimit:1.41421;"><g><path d="M11.21,10.899c2.19,-1.766 4.741,-2.055 6.171,-2.055c0.072,0 0.143,0.001 0.212,0.002c1.675,0.022 12.385,0.444 12.841,0.462c0.872,0.066 20.973,1.602 24.06,3.492c3.203,1.961 3.663,7.763 3.681,8.009l0.001,0.038l0,26.455c0,5.841 -3.378,9.135 -6.024,10.212c-2.118,1.155 -4.543,1.804 -6.167,1.951c-2.173,0.197 -12.787,0.738 -25.716,1.477c-13.583,1.535 -13.555,-12.873 -13.555,-12.873c0,0 -1.492,-21.906 -1.492,-28.217c0,-4.363 4.201,-7.721 5.988,-8.953l0,0Zm42.801,44.192c1.67,-1.555 3.142,-4.133 3.142,-7.789l0,-26.435c-0.028,-0.339 -0.515,-5.555 -3.193,-7.195c-2.389,-1.462 -17.835,-2.909 -23.585,-3.343c-0.093,-0.003 -11.133,-0.438 -12.798,-0.46c-0.066,-0.001 -0.131,-0.002 -0.196,-0.002c-1.366,0 -3.175,0.26 -4.836,1.325l24.049,35.386l17.417,8.513Z" style="fill:#0b0b16;"/><path d="M30.413,9.819c0,0 -11.139,-0.439 -12.829,-0.461c-3.439,-0.065 -10.742,1.458 -9.876,14.842c1.052,14.322 1.762,24.665 1.762,24.665c0,0 0.853,10.77 9.008,10.344c8.156,-0.426 31.243,-1.741 32.14,-1.819c2.301,-0.199 7.047,-3.324 7.047,-10.088c0,-8.979 0,-26.455 0,-26.455c0,0 -0.422,-5.764 -3.438,-7.611c-3.017,-1.847 -23.814,-3.417 -23.814,-3.417l0,0Z" style="fill:#0e6fb2;fill-rule:nonzero;"/><path d="M18.284,11.001c-1.742,0 -4.225,0.435 -6.163,2.502c-2.171,2.316 -3.101,6.112 -2.766,11.283c0.977,13.319 1.651,23.108 1.657,23.205c0.008,0.096 0.882,9.961 8.296,9.573c7.339,-0.383 29.361,-1.635 30.232,-1.71c2.187,-0.189 6.474,-3.206 6.474,-9.322l0,-24.89c-0.003,-0.041 -0.423,-5.344 -3.153,-7.015c-2.771,-1.696 -22.133,-3.175 -22.328,-3.19c-0.099,-0.004 -10.49,-0.413 -12.06,-0.434c-0.062,-0.001 -0.125,-0.002 -0.189,-0.002l0,0Zm0.594,46.915c-7.337,0 -8.198,-9.8 -8.206,-9.9c-0.007,-0.099 -0.68,-9.887 -1.658,-23.207c-0.341,-5.27 0.621,-9.152 2.858,-11.539c2.128,-2.27 4.931,-2.609 6.412,-2.609c0.066,0 0.131,0 0.194,0.001c1.574,0.021 11.969,0.431 12.074,0.435c0.807,0.061 19.647,1.5 22.486,3.239c2.88,1.763 3.301,7.069 3.317,7.294l0,24.902c0,6.413 -4.419,9.457 -6.786,9.662c-0.871,0.074 -22.902,1.327 -30.243,1.71c-0.152,0.008 -0.301,0.012 -0.448,0.012l0,0Z" style="fill:#fff;fill-rule:nonzero;"/><path d="M9.086,28.093l1.265,-0.426l0.27,-1.393l-0.923,-0.696l-0.825,0.796l-0.099,1.705l0.312,0.014Z" style="fill:#0e6fb2;fill-rule:nonzero;"/><path d="M9.74,15.675l1.961,-0.128l3.921,-2.245l-1.236,-2.827l-2.259,1.719l-1.392,1.705l-0.995,1.776l0,0Z" style="fill:#0e6fb2;fill-rule:nonzero;"/><path d="M55.711,27.887l1.264,0.014l0.093,2.33l-1.293,0.469l-0.064,-2.813l0,0Z" style="fill:#0e6fb2;fill-rule:nonzero;"/><path d="M32.587,55.856l0.427,1.734l3.58,-0.086l-0.781,-2.557l-3.226,0.909Z" style="fill:#0e6fb2;fill-rule:nonzero;"/><path d="M15.774,18.722l-2.143,-4.051l-4.542,0.611l4.051,-2.143l-0.61,-4.542l2.142,4.051l4.543,-0.611l-4.052,2.143l0.611,4.542Z" style="fill:#fff;fill-rule:nonzero;"/><path d="M55.498,34.619l-1.704,-4.139l-4.472,0.168l4.139,-1.703l-0.167,-4.473l1.703,4.14l4.472,-0.168l-4.139,1.703l0.168,4.472Z" style="fill:#fff;fill-rule:nonzero;"/><path d="M16.558,50.176l-1.531,-2.638l-3.003,0.524l2.638,-1.53l-0.524,-3.003l1.529,2.638l3.004,-0.524l-2.637,1.529l0.524,3.004Z" style="fill:#fff;fill-rule:nonzero;"/><path d="M53.302,48.233c0,-0.342 0.277,-0.618 0.618,-0.618c0.342,0 0.619,0.276 0.619,0.618c0,0.341 -0.277,0.618 -0.619,0.618c-0.341,0 -0.618,-0.277 -0.618,-0.618l0,0Z" style="fill:#fff;fill-rule:nonzero;"/><path d="M13.757,38.927c0,-0.342 0.277,-0.619 0.618,-0.619c0.342,0 0.619,0.277 0.619,0.619c0,0.341 -0.277,0.618 -0.619,0.618c-0.341,0 -0.618,-0.277 -0.618,-0.618Z" style="fill:#fff;fill-rule:nonzero;"/><path d="M7.172,43.381c0,-0.342 0.277,-0.619 0.618,-0.619c0.341,0 0.618,0.277 0.618,0.619c0,0.341 -0.277,0.618 -0.618,0.618c-0.341,0 -0.618,-0.277 -0.618,-0.618l0,0Z" style="fill:#eb1c29;fill-rule:nonzero;"/><path d="M13.139,32.132c0,-0.271 0.22,-0.49 0.49,-0.49c0.271,0 0.49,0.219 0.49,0.49c0,0.271 -0.219,0.49 -0.49,0.49c-0.27,0 -0.49,-0.219 -0.49,-0.49Z" style="fill:#fff;fill-rule:nonzero;"/><path d="M19.971,13.444c0,-0.174 0.14,-0.314 0.314,-0.314c0.173,0 0.314,0.14 0.314,0.314c0,0.174 -0.141,0.314 -0.314,0.314c-0.174,0 -0.314,-0.14 -0.314,-0.314Z" style="fill:#fff;fill-rule:nonzero;"/><path d="M22.616,13.023c0,-0.125 0.102,-0.226 0.226,-0.226c0.125,0 0.227,0.101 0.227,0.226c0,0.125 -0.102,0.226 -0.227,0.226c-0.124,0 -0.226,-0.101 -0.226,-0.226Z" style="fill:#fff;fill-rule:nonzero;"/><path d="M15.097,36.717c0,-0.162 0.132,-0.294 0.294,-0.294c0.162,0 0.294,0.132 0.294,0.294c0,0.163 -0.132,0.295 -0.294,0.295c-0.162,0 -0.294,-0.132 -0.294,-0.295Z" style="fill:#fff;fill-rule:nonzero;"/><path d="M11.739,36.424c0,-0.164 0.132,-0.295 0.294,-0.295c0.163,0 0.294,0.131 0.294,0.295c0,0.161 -0.131,0.293 -0.294,0.293c-0.162,0 -0.294,-0.132 -0.294,-0.293Z" style="fill:#fff;fill-rule:nonzero;"/><path d="M11.701,33.338c0,-0.099 0.081,-0.18 0.18,-0.18c0.1,0 0.181,0.081 0.181,0.18c0,0.1 -0.081,0.181 -0.181,0.181c-0.099,0 -0.18,-0.081 -0.18,-0.181Z" style="fill:#fff;fill-rule:nonzero;"/><path d="M12.546,33.573c0,-0.1 0.081,-0.181 0.181,-0.181c0.099,0 0.18,0.081 0.18,0.181c0,0.099 -0.081,0.18 -0.18,0.18c-0.1,0 -0.181,-0.081 -0.181,-0.18Z" style="fill:#fff;fill-rule:nonzero;"/><path d="M32.547,54.026c0,-0.188 0.153,-0.341 0.341,-0.341c0.189,0 0.342,0.153 0.342,0.341c0,0.189 -0.153,0.342 -0.342,0.342c-0.188,0 -0.341,-0.153 -0.341,-0.342Z" style="fill:#fff;fill-rule:nonzero;"/><path d="M31.226,53.505c0,-0.148 0.12,-0.267 0.267,-0.267c0.148,0 0.268,0.119 0.268,0.267c0,0.148 -0.12,0.268 -0.268,0.268c-0.147,0 -0.267,-0.12 -0.267,-0.268Z" style="fill:#fff;fill-rule:nonzero;"/><path d="M55.037,40.888c0,-0.203 0.165,-0.367 0.367,-0.367c0.203,0 0.367,0.164 0.367,0.367c0,0.202 -0.164,0.367 -0.367,0.367c-0.202,0 -0.367,-0.165 -0.367,-0.367Z" style="fill:#fff;fill-rule:nonzero;"/><path d="M53.695,45.891c0,-0.178 0.145,-0.322 0.322,-0.322c0.179,0 0.324,0.144 0.324,0.322c0,0.179 -0.145,0.322 -0.324,0.322c-0.177,0 -0.322,-0.143 -0.322,-0.322Z" style="fill:#fff;fill-rule:nonzero;"/><path d="M53.822,40.199c0,-0.109 0.088,-0.197 0.195,-0.197c0.109,0 0.197,0.088 0.197,0.197c0,0.107 -0.088,0.195 -0.197,0.195c-0.107,0 -0.195,-0.088 -0.195,-0.195Z" style="fill:#fff;fill-rule:nonzero;"/><path d="M8.643,47.295c0.023,0.326 -0.238,0.611 -0.582,0.635c-0.345,0.024 -0.643,-0.221 -0.666,-0.548l-0.133,-1.905c-0.023,-0.326 0.238,-0.61 0.582,-0.634c0.345,-0.024 0.642,0.221 0.665,0.547l0.134,1.905Z" style="fill:#fff;fill-rule:nonzero;"/><path d="M9.434,27.976c-0.134,0.039 -0.267,0.077 -0.399,0.114l-0.068,0.02c-0.341,0.097 -0.666,0.185 -0.954,0.259c-0.098,-1.346 -0.199,-2.737 -0.305,-4.169c-0.047,-0.737 -0.07,-1.439 -0.07,-2.105c-0.001,-0.692 0.024,-1.346 0.07,-1.966c0.435,-0.124 0.917,-0.262 1.435,-0.409c-0.207,1.518 -0.25,3.215 -0.129,5.089c0.033,0.449 0.066,0.894 0.098,1.334l0.32,-0.308c-0.026,-0.347 -0.052,-0.697 -0.077,-1.049c-0.124,-1.913 -0.075,-3.637 0.146,-5.168c1.741,-0.497 3.836,-1.091 5.868,-1.662l0.405,0.766l-0.114,-0.847c3.706,-1.04 7.134,-1.979 7.734,-2.071c0.097,-0.014 0.19,-0.021 0.278,-0.021c1.187,0 1.655,1.227 1.655,1.227c0,0 0.739,2.473 1.141,4.291c0.403,1.819 -1.255,2.274 -1.255,2.274c0,0 -2.643,0.71 -3.41,0.966c-0.767,0.256 -0.682,0.966 -0.682,0.966c0,0 0.345,1.274 0.885,3.264c-0.227,0.196 -0.454,0.393 -0.675,0.589l-0.045,0.039c-0.257,0.227 -0.508,0.452 -0.758,0.678l-0.05,0.046c-0.242,0.219 -0.481,0.439 -0.716,0.658l-0.047,0.043c-0.23,0.214 -0.458,0.428 -0.681,0.641l-0.044,0.042c-0.22,0.21 -0.436,0.418 -0.649,0.625l-0.043,0.042c-0.209,0.204 -0.417,0.409 -0.62,0.611l-0.041,0.04c-0.201,0.201 -0.399,0.4 -0.594,0.598l-0.039,0.04c-0.194,0.197 -0.385,0.393 -0.572,0.587l-0.038,0.039c-0.16,0.167 -0.32,0.334 -0.476,0.498c-0.979,-3.728 -1.732,-6.596 -1.816,-6.905c-0.181,-0.672 -0.741,-0.771 -1.053,-0.771c-0.129,0 -0.216,0.017 -0.216,0.017c0,0 -1.672,0.541 -3.248,1.004c0,-0.002 -0.001,-0.005 -0.001,-0.007l-0.15,0.051l0,0Z" style="fill:#086096;"/><path d="M31.748,53.423c-0.034,-0.108 -0.136,-0.185 -0.255,-0.185c-0.014,0 -0.027,0.001 -0.04,0.003l-0.001,0c-0.055,0.008 -0.105,0.034 -0.143,0.07l0,0c-0.051,0.049 -0.083,0.118 -0.083,0.194c0,0.057 0.017,0.109 0.046,0.152l0.001,0c0.048,0.07 0.129,0.116 0.22,0.116c0.148,0 0.268,-0.12 0.268,-0.268c0,-0.028 -0.004,-0.056 -0.012,-0.082l-0.001,0l0,0Zm-17.581,-9.728l0.052,0.302l0.053,0.302l0.052,0.302l0.106,0.603l0.105,0.604l0.053,0.301l0.052,0.302l0.022,0.121l-2.173,1.26l-0.465,0.27l0.906,-0.158l1.038,-0.181l1.039,-0.181l0.02,-0.004l0.145,0.249l0.148,0.256l0.148,0.255l0.148,0.255l0.148,0.255l0.148,0.255l0.296,0.51l0.148,0.255l0.148,0.255l0.054,0.093l-0.02,-0.11l-0.052,-0.302l-0.053,-0.301l-0.053,-0.302l-0.052,-0.302l-0.053,-0.302l-0.052,-0.301l-0.053,-0.302l-0.053,-0.302l-0.052,-0.302l-0.031,-0.178l1.483,-0.86l1.154,-0.669l-0.709,0.123l-1.039,0.182l-1.038,0.181l-0.218,0.038l-0.117,-0.202l-0.148,-0.255l-0.147,-0.254l-0.148,-0.256l-0.148,-0.255l-0.148,-0.255l-0.148,-0.255l-0.148,-0.255l-0.148,-0.256l-0.148,-0.255l-0.081,-0.14l0.029,0.166Zm40.306,4.815c0.042,-0.083 0.066,-0.177 0.066,-0.277c0,-0.026 -0.002,-0.052 -0.005,-0.077l0,-0.005c-0.013,-0.1 -0.051,-0.192 -0.106,-0.271l-0.003,-0.004c-0.061,-0.087 -0.145,-0.158 -0.243,-0.203l-0.007,-0.004c-0.078,-0.035 -0.164,-0.054 -0.255,-0.054c-0.292,0 -0.537,0.202 -0.601,0.475l-0.002,0.007c-0.01,0.043 -0.015,0.089 -0.015,0.136c0,0.06 0.009,0.119 0.025,0.174l0.003,0.011c0.03,0.093 0.081,0.177 0.147,0.246l0.007,0.006c0.085,0.085 0.194,0.145 0.316,0.169l0.006,0.001c0.037,0.007 0.075,0.011 0.114,0.011c0.24,0 0.449,-0.137 0.551,-0.337l0.002,-0.004l0,0Zm-0.139,-2.554c0.004,-0.021 0.007,-0.042 0.007,-0.065c0,-0.085 -0.033,-0.162 -0.087,-0.219l-0.003,-0.003c-0.058,-0.062 -0.142,-0.1 -0.234,-0.1c-0.177,0 -0.322,0.144 -0.322,0.322c0,0.016 0.001,0.031 0.003,0.046l0.001,0.006c0.017,0.105 0.085,0.192 0.176,0.238l0.005,0.002c0.042,0.019 0.088,0.03 0.137,0.03c0.155,0 0.284,-0.108 0.316,-0.253l0.001,-0.004l0,0Zm1.417,-4.948c0.013,-0.038 0.02,-0.078 0.02,-0.12c0,-0.07 -0.019,-0.135 -0.053,-0.191l-0.002,-0.002c-0.064,-0.103 -0.177,-0.172 -0.307,-0.174l-0.005,0c-0.118,0 -0.222,0.055 -0.289,0.142l-0.004,0.004c-0.046,0.061 -0.074,0.138 -0.074,0.221c0,0.043 0.008,0.085 0.021,0.123l0.003,0.008c0.039,0.1 0.12,0.179 0.221,0.215l0.005,0.002c0.037,0.012 0.076,0.019 0.117,0.019c0.16,0 0.297,-0.103 0.347,-0.246l0,-0.001l0,0Zm-1.551,-0.881c-0.028,-0.073 -0.099,-0.125 -0.183,-0.125c-0.107,0 -0.195,0.088 -0.195,0.197c0,0.036 0.01,0.071 0.028,0.1l0.001,0.003c0.035,0.055 0.096,0.092 0.166,0.092c0.109,0 0.197,-0.088 0.197,-0.195c0,-0.024 -0.004,-0.047 -0.012,-0.069l-0.002,-0.003l0,0Zm-39.744,-1.814c-0.027,-0.004 -0.054,-0.005 -0.081,-0.005c-0.227,0 -0.425,0.122 -0.533,0.305l0,0.001c-0.054,0.092 -0.085,0.199 -0.085,0.313c0,0.018 0.001,0.036 0.003,0.054l0,0.001c0.009,0.102 0.043,0.197 0.096,0.279l0,0.001c0.058,0.09 0.139,0.163 0.234,0.213l0.001,0c0.085,0.045 0.182,0.07 0.284,0.07c0.304,0 0.556,-0.219 0.609,-0.507l0,-0.001c0.006,-0.036 0.01,-0.073 0.01,-0.11c0,-0.072 -0.013,-0.141 -0.035,-0.205l0,-0.001c-0.034,-0.095 -0.09,-0.18 -0.162,-0.247l-0.001,-0.001c-0.092,-0.085 -0.209,-0.143 -0.34,-0.16l0,0l0,0Zm1.092,-1.845c-0.046,-0.029 -0.099,-0.045 -0.157,-0.045c-0.152,0 -0.278,0.117 -0.293,0.266l0,0c-0.001,0.009 -0.001,0.019 -0.001,0.028c0,0.098 0.048,0.185 0.122,0.239l0,0c0.049,0.035 0.108,0.056 0.172,0.056c0.159,0 0.289,-0.126 0.294,-0.284l0,-0.011c0,-0.104 -0.054,-0.196 -0.137,-0.248l0,-0.001l0,0Zm40.217,-8.567l-0.053,0.026l0.031,-0.015l0.022,-0.011Zm-0.155,-13.352c0.058,0.079 0.114,0.16 0.169,0.242l0.002,0.002c0.054,0.081 0.106,0.163 0.157,0.247l0.002,0.002c0.051,0.083 0.1,0.167 0.148,0.253l0.001,0.002c0.047,0.084 0.093,0.169 0.138,0.254l0.002,0.004c0.044,0.086 0.087,0.172 0.129,0.259l0.002,0.005c0.042,0.087 0.083,0.175 0.122,0.263l0.002,0.004c0.039,0.089 0.077,0.178 0.114,0.267l0.002,0.004c0.037,0.089 0.072,0.179 0.107,0.269l0.002,0.004c0.035,0.091 0.068,0.182 0.101,0.273l0.001,0.004c0.033,0.093 0.065,0.185 0.096,0.277l0.001,0.004c0.031,0.093 0.06,0.186 0.089,0.279l0.001,0.004c0.03,0.094 0.057,0.188 0.084,0.282l0.002,0.004c0.02,0.073 0.041,0.145 0.06,0.217l0.019,0.071c0.026,0.097 0.05,0.193 0.074,0.287l0.001,0.004c0.024,0.098 0.047,0.195 0.068,0.289l0.001,0.005c0.018,0.075 0.034,0.15 0.05,0.223l0.015,0.073c0.021,0.1 0.041,0.198 0.059,0.294l0.001,0.004c0.02,0.102 0.038,0.201 0.055,0.296l0,0.005c0.001,0.002 0.001,0.005 0.002,0.007l0.008,0.316l0.008,0.323l0.009,0.323l0.008,0.323l0.008,0.324l0.009,0.323l0.008,0.324l0.017,0.647l0.008,0.322l0.008,0.324l0.009,0.324l0.008,0.323l0.008,0.324l0.009,0.323l0.008,0.324l0.009,0.324l0.008,0.323l0.008,0.324l0.009,0.322l0.008,0.324l0.001,0.027l0,2.169l-0.513,0.019l-0.151,0.005l-0.57,0.022l-0.704,0.026l-0.02,0.001l-0.71,0.027l-0.003,-0.006l-0.112,-0.272l-0.112,-0.273l-0.112,-0.273l-0.112,-0.273l-0.112,-0.271l-0.112,-0.273l-0.113,-0.272l-0.112,-0.273l-0.112,-0.273l-0.112,-0.273l-0.112,-0.272l-0.112,-0.273l-0.113,-0.273l-0.112,-0.272l-0.112,-0.272l-0.018,-0.046l0.002,0.054l0.012,0.321l0.012,0.321l0.012,0.322l0.012,0.322l0.012,0.322l0.012,0.321l0.012,0.322l0.012,0.322l0.012,0.322l0.012,0.321l0.012,0.321l0.024,0.644l0.009,0.238l-3.093,1.273l-1.046,0.43l0.182,-0.007l0.723,-0.027l0.725,-0.027l0.724,-0.028l0.724,-0.027l0.722,-0.027l0.672,-0.025l0.009,0.02l0.112,0.272l0.112,0.273l0.112,0.273l0.112,0.273l0.225,0.545l0.112,0.273l0.112,0.272l0.112,0.272l0.224,0.545l0.113,0.273l0.112,0.273l0.112,0.273l0.112,0.272l0.013,0.03l-0.002,-0.035l-0.012,-0.322l-0.012,-0.322l-0.012,-0.322l-0.012,-0.321l-0.012,-0.322l-0.012,-0.322l-0.012,-0.32l-0.012,-0.322l-0.012,-0.322l-0.012,-0.322l-0.012,-0.322l-0.012,-0.321l-0.012,-0.322l-0.01,-0.255l0.429,-0.176l1.278,-0.526l0.628,-0.259l0,18.116c0,0.099 -0.001,0.197 -0.003,0.294l0,0.009c-0.003,0.109 -0.006,0.216 -0.011,0.323l-0.001,0.01c-0.004,0.099 -0.01,0.198 -0.016,0.296l-0.003,0.042c-0.007,0.1 -0.015,0.2 -0.025,0.299l-0.004,0.042c-0.009,0.103 -0.02,0.203 -0.032,0.304l-0.006,0.042c-0.013,0.104 -0.027,0.207 -0.042,0.309l-0.006,0.043c-0.016,0.105 -0.033,0.209 -0.052,0.312l-0.008,0.044c-0.02,0.107 -0.041,0.213 -0.063,0.318l-0.009,0.045c-0.024,0.109 -0.049,0.217 -0.075,0.324l-0.011,0.046c-0.028,0.111 -0.058,0.222 -0.088,0.33l-0.014,0.047c-0.032,0.114 -0.067,0.227 -0.102,0.338l-0.016,0.047c-0.038,0.118 -0.078,0.233 -0.119,0.347l-0.018,0.048c-0.045,0.121 -0.091,0.24 -0.139,0.356l-0.02,0.05c-0.056,0.133 -0.114,0.264 -0.173,0.393l-0.012,0.025c-0.065,0.139 -0.132,0.274 -0.202,0.407l-0.014,0.027c-0.076,0.145 -0.155,0.286 -0.236,0.423l-0.016,0.028c-0.096,0.162 -0.196,0.32 -0.299,0.473l-0.022,0.032c-0.11,0.164 -0.224,0.321 -0.34,0.473l-0.014,0.018c-0.144,0.186 -0.291,0.364 -0.442,0.533l-0.009,0.01c-0.197,0.221 -0.398,0.426 -0.603,0.617l-0.016,0.015c-0.335,0.312 -0.677,0.584 -1.018,0.82l-0.017,0.011c-0.701,0.482 -1.396,0.805 -2.002,0.978l-0.013,0.004c-0.257,0.072 -0.498,0.117 -0.716,0.136c-0.042,0.004 -0.131,0.01 -0.264,0.019l-0.035,0.002c-0.177,0.012 -0.423,0.027 -0.731,0.046l-0.173,0.01c-0.18,0.011 -0.377,0.023 -0.59,0.036l-0.089,0.005c-0.209,0.012 -0.433,0.025 -0.672,0.04l-0.182,0.01c-0.184,0.011 -0.377,0.022 -0.576,0.034l-0.116,0.007c-0.039,0.002 -0.079,0.005 -0.118,0.007c0.016,-0.083 0.031,-0.166 0.047,-0.25l0.034,-0.179c0.012,-0.061 0.023,-0.121 0.035,-0.182l0.068,-0.361l0.028,-0.15c0.01,-0.05 0.019,-0.101 0.029,-0.151c0.226,-0.014 0.438,-0.026 0.635,-0.038l0.21,-0.013c0.204,-0.012 0.389,-0.023 0.552,-0.033l0.133,-0.008c0.297,-0.018 0.513,-0.032 0.635,-0.041l0.054,-0.003c0.015,-0.002 0.027,-0.003 0.037,-0.003c0.347,-0.03 0.737,-0.121 1.151,-0.274l0.018,-0.007c0.371,-0.139 0.762,-0.328 1.157,-0.569l0.02,-0.012c0.412,-0.253 0.829,-0.563 1.234,-0.93l0.02,-0.018c0.21,-0.192 0.416,-0.399 0.617,-0.622l0.029,-0.032c0.148,-0.165 0.291,-0.339 0.431,-0.521l0.023,-0.03c0.116,-0.152 0.23,-0.311 0.339,-0.475l0.019,-0.028c0.096,-0.144 0.188,-0.292 0.278,-0.445l0.016,-0.027c0.08,-0.137 0.157,-0.278 0.232,-0.422l0.014,-0.026c0.067,-0.132 0.133,-0.267 0.196,-0.404l0.012,-0.026c0.058,-0.127 0.114,-0.257 0.167,-0.39l0.01,-0.025c0.05,-0.123 0.098,-0.25 0.144,-0.378l0.017,-0.048c0.04,-0.113 0.078,-0.227 0.114,-0.343l0.015,-0.047c0.034,-0.11 0.067,-0.222 0.098,-0.335l0.012,-0.047c0.029,-0.108 0.057,-0.217 0.083,-0.328l0.011,-0.045c0.024,-0.106 0.047,-0.213 0.069,-0.322l0.009,-0.044c0.021,-0.104 0.04,-0.21 0.058,-0.316l0.002,-0.011c0.019,-0.113 0.036,-0.228 0.052,-0.343l0.002,-0.011c0.015,-0.111 0.029,-0.223 0.041,-0.337l0.005,-0.043c0.01,-0.099 0.02,-0.199 0.028,-0.301l0.002,-0.021c0.008,-0.105 0.015,-0.211 0.021,-0.318l0.001,-0.02c0.006,-0.104 0.01,-0.209 0.013,-0.314l0.001,-0.021c0.003,-0.102 0.004,-0.206 0.005,-0.31l0,-16.118l-0.341,0.123l0,15.919c0,0.072 0,0.143 -0.002,0.214l0,0.03c-0.002,0.105 -0.005,0.209 -0.01,0.312l-0.001,0.021c-0.005,0.107 -0.011,0.212 -0.018,0.317l-0.001,0.021c-0.008,0.108 -0.018,0.215 -0.028,0.321l-0.002,0.021c-0.011,0.102 -0.022,0.204 -0.035,0.304l-0.006,0.043c-0.015,0.115 -0.032,0.229 -0.05,0.342l-0.002,0.01c-0.019,0.118 -0.04,0.234 -0.063,0.349l-0.002,0.011c-0.021,0.108 -0.044,0.215 -0.068,0.321l-0.011,0.045c-0.026,0.111 -0.053,0.22 -0.082,0.328l-0.012,0.046c-0.031,0.114 -0.064,0.225 -0.098,0.336l-0.015,0.047c-0.036,0.116 -0.074,0.231 -0.114,0.344l-0.017,0.048c-0.043,0.12 -0.088,0.237 -0.135,0.353l-0.02,0.049c-0.054,0.133 -0.11,0.263 -0.169,0.391l-0.012,0.026c-0.064,0.138 -0.131,0.273 -0.199,0.405l-0.014,0.027c-0.076,0.145 -0.155,0.286 -0.237,0.424l-0.016,0.027c-0.092,0.154 -0.187,0.303 -0.284,0.448l-0.02,0.029c-0.12,0.177 -0.245,0.347 -0.373,0.51l-0.029,0.037c-0.147,0.185 -0.297,0.36 -0.451,0.526l-0.021,0.022c-0.216,0.232 -0.437,0.445 -0.662,0.64l-0.026,0.023c-1.122,0.967 -2.308,1.479 -3.169,1.554c-0.008,0.001 -0.017,0.001 -0.027,0.002l-0.022,0.002c-0.119,0.009 -0.375,0.025 -0.748,0.048l-0.17,0.01c-0.176,0.011 -0.375,0.023 -0.593,0.036l-0.602,0.036c0.004,-0.025 0.009,-0.051 0.014,-0.076l0.034,-0.18c0.011,-0.06 0.023,-0.12 0.034,-0.181l0.034,-0.18c0.011,-0.06 0.022,-0.12 0.034,-0.181l0.017,-0.089c0.017,-0.09 0.034,-0.181 0.051,-0.272l0.034,-0.18c0.011,-0.06 0.022,-0.12 0.034,-0.181l0.033,-0.179c0.012,-0.06 0.023,-0.12 0.034,-0.18l0.068,-0.361l0.068,-0.361l0.033,-0.18c0.011,-0.06 0.023,-0.12 0.034,-0.18l0.034,-0.181c0.011,-0.06 0.022,-0.12 0.034,-0.18l0.008,-0.045c0.02,-0.105 0.039,-0.21 0.059,-0.316l0.008,-0.045c0.02,-0.105 0.04,-0.209 0.06,-0.315l0.067,-0.36l0.034,-0.18c0.011,-0.061 0.022,-0.121 0.033,-0.181l0.034,-0.18c0.011,-0.06 0.022,-0.12 0.034,-0.181l0.033,-0.18c0.012,-0.06 0.023,-0.12 0.034,-0.18l0.067,-0.361l0.034,-0.18c0.011,-0.06 0.022,-0.12 0.034,-0.18l0.067,-0.361l0.067,-0.361l0.034,-0.18c0.011,-0.06 0.022,-0.12 0.033,-0.18l0.034,-0.181c0.011,-0.06 0.022,-0.12 0.033,-0.18l0.034,-0.18c0.011,-0.06 0.022,-0.119 0.033,-0.179l0.034,-0.181c0.011,-0.06 0.022,-0.12 0.034,-0.18l0.016,-0.09c0.017,-0.09 0.034,-0.18 0.051,-0.27l0.033,-0.181c0.011,-0.06 0.022,-0.12 0.034,-0.18l0.017,-0.09c0.016,-0.09 0.033,-0.18 0.05,-0.27l0.016,-0.09c0.017,-0.09 0.034,-0.18 0.051,-0.27l0.033,-0.181c0.011,-0.06 0.023,-0.12 0.034,-0.18l0.017,-0.09c0.016,-0.09 0.033,-0.18 0.05,-0.27l0.016,-0.09c0.017,-0.09 0.034,-0.18 0.051,-0.27l0.033,-0.181c0.011,-0.06 0.022,-0.12 0.034,-0.179l0.033,-0.181c0.011,-0.06 0.022,-0.12 0.034,-0.18l0.033,-0.181c0.011,-0.06 0.022,-0.119 0.033,-0.179l0.017,-0.091c0.017,-0.09 0.034,-0.18 0.05,-0.27l0.017,-0.09c0.017,-0.091 0.034,-0.181 0.05,-0.27l0.067,-0.361l0.067,-0.36l0.033,-0.18c0.012,-0.06 0.023,-0.12 0.033,-0.179l0.017,-0.091c0.017,-0.091 0.034,-0.18 0.05,-0.27l0.017,-0.09c0.017,-0.091 0.034,-0.181 0.05,-0.27l0.067,-0.36l0.034,-0.182c0.011,-0.06 0.022,-0.12 0.033,-0.179l0.033,-0.181c0.011,-0.06 0.023,-0.12 0.033,-0.179l0.034,-0.181c0.011,-0.06 0.022,-0.119 0.033,-0.178l0.034,-0.182c0.011,-0.06 0.022,-0.119 0.033,-0.179l0.066,-0.36l0.034,-0.182c0.011,-0.06 0.022,-0.12 0.033,-0.178l0.034,-0.183c0.011,-0.06 0.022,-0.119 0.033,-0.178l0.017,-0.092c0.017,-0.091 0.033,-0.181 0.049,-0.268l0.067,-0.36l0.067,-0.361l0.017,-0.094c0.017,-0.092 0.034,-0.181 0.049,-0.266l0.035,-0.187c0.011,-0.06 0.022,-0.117 0.032,-0.172l0.018,-0.099c0.018,-0.097 0.034,-0.184 0.048,-0.261l0.04,-0.217c0.011,-0.06 0.02,-0.108 0.027,-0.144l0.005,-0.03c0.005,-0.026 0.008,-0.04 0.008,-0.04c0,0 0.006,-0.102 -0.006,-0.261l-0.002,-0.016c-0.007,-0.084 -0.02,-0.183 -0.042,-0.29l-0.004,-0.017c-0.019,-0.086 -0.043,-0.178 -0.076,-0.271l-0.006,-0.017c-0.03,-0.084 -0.067,-0.169 -0.112,-0.253l-0.008,-0.016c-0.044,-0.079 -0.094,-0.157 -0.153,-0.232l-0.006,-0.007c-0.061,-0.076 -0.131,-0.148 -0.21,-0.214l-0.008,-0.007c-0.082,-0.067 -0.175,-0.128 -0.279,-0.18l-0.011,-0.006c-0.111,-0.055 -0.236,-0.1 -0.376,-0.133l-0.02,-0.004c-0.1,-0.023 -0.207,-0.038 -0.322,-0.047c-0.065,-0.005 -0.129,-0.009 -0.195,-0.014l-0.037,-0.002c-0.187,-0.012 -0.377,-0.021 -0.568,-0.029l-0.039,-0.001c-0.199,-0.008 -0.397,-0.013 -0.592,-0.017l-0.084,-0.001c-0.196,-0.004 -0.387,-0.005 -0.571,-0.006l-0.043,0c-0.015,0 -0.029,0 -0.044,0c-0.208,0 -0.407,0.002 -0.59,0.004l-0.101,0.002c-0.231,0.003 -0.434,0.008 -0.597,0.013l-0.05,0.001c-0.241,0.007 -0.383,0.014 -0.383,0.014c0,0 -0.019,-0.003 -0.053,-0.003c-0.065,0 -0.183,0.009 -0.33,0.061l-0.015,0.005c-0.072,0.026 -0.151,0.064 -0.234,0.115l-0.008,0.006c-0.182,0.115 -0.378,0.301 -0.557,0.599l-0.007,0.012c-0.071,0.12 -0.14,0.26 -0.204,0.419l-0.008,0.022c-0.042,0.106 -0.081,0.22 -0.117,0.344l-0.007,0.027c-0.029,0.099 -0.055,0.204 -0.08,0.315c-0.002,0.009 -0.004,0.018 -0.006,0.028l-0.006,0.029c-0.018,0.084 -0.039,0.188 -0.064,0.31l-0.011,0.054c-0.016,0.081 -0.033,0.17 -0.052,0.265l-0.019,0.098c-0.011,0.056 -0.022,0.114 -0.034,0.174l-0.036,0.188c-0.011,0.057 -0.022,0.116 -0.034,0.176l-0.035,0.185c-0.011,0.058 -0.022,0.117 -0.034,0.177l-0.034,0.184c-0.017,0.088 -0.034,0.177 -0.051,0.269l-0.018,0.093l-0.067,0.359c-0.011,0.059 -0.022,0.118 -0.033,0.178l-0.034,0.183c-0.011,0.059 -0.022,0.118 -0.033,0.178l-0.034,0.182l-0.067,0.361c-0.017,0.088 -0.033,0.178 -0.05,0.269l-0.017,0.091c-0.011,0.059 -0.022,0.119 -0.033,0.179l-0.034,0.181c-0.021,0.115 -0.042,0.231 -0.064,0.349l-0.002,0.012c-0.02,0.11 -0.041,0.223 -0.062,0.336l-0.004,0.023c-0.021,0.115 -0.043,0.231 -0.064,0.348l-0.002,0.012c-0.021,0.115 -0.043,0.231 -0.064,0.348l-0.002,0.011c-0.021,0.116 -0.043,0.232 -0.064,0.349l-0.002,0.011c-0.021,0.116 -0.043,0.232 -0.064,0.349l-0.002,0.012c-0.021,0.111 -0.041,0.224 -0.062,0.337l-0.004,0.022c-0.02,0.112 -0.041,0.225 -0.062,0.338l-0.004,0.022c-0.021,0.116 -0.042,0.232 -0.063,0.349l-0.002,0.011c-0.021,0.112 -0.041,0.224 -0.062,0.337l-0.004,0.023c-0.021,0.115 -0.042,0.231 -0.063,0.347l-0.002,0.011c-0.021,0.112 -0.041,0.225 -0.062,0.338l-0.004,0.022c-0.02,0.112 -0.041,0.225 -0.061,0.337l-0.004,0.023c-0.021,0.116 -0.043,0.232 -0.064,0.348l-0.002,0.011c-0.02,0.113 -0.041,0.226 -0.061,0.338l-0.004,0.023c-0.016,0.089 -0.033,0.179 -0.049,0.269l-0.016,0.09c-0.021,0.112 -0.041,0.224 -0.061,0.336l-0.004,0.022c-0.021,0.117 -0.042,0.233 -0.063,0.349l-0.002,0.011c-0.022,0.116 -0.043,0.232 -0.064,0.348l-0.002,0.011c-0.011,0.06 -0.022,0.121 -0.032,0.181l-0.033,0.179c-0.021,0.117 -0.042,0.233 -0.063,0.349l-0.002,0.011c-0.021,0.117 -0.042,0.232 -0.063,0.348l-0.002,0.012c-0.021,0.116 -0.042,0.232 -0.063,0.348l-0.002,0.011c-0.021,0.117 -0.042,0.232 -0.063,0.348l-0.002,0.011c-0.021,0.117 -0.042,0.233 -0.063,0.349l-0.002,0.011c-0.02,0.112 -0.041,0.224 -0.061,0.336l-0.004,0.022c-0.021,0.117 -0.042,0.234 -0.063,0.349l-0.002,0.012c-0.02,0.112 -0.041,0.224 -0.061,0.336l-0.004,0.022c-0.02,0.113 -0.04,0.226 -0.061,0.337l-0.004,0.023c-0.02,0.113 -0.04,0.225 -0.06,0.336l-0.004,0.023c-0.022,0.117 -0.042,0.233 -0.063,0.348l-0.002,0.011c-0.021,0.117 -0.042,0.234 -0.063,0.348l-0.002,0.011c-0.02,0.114 -0.04,0.226 -0.06,0.337l-0.004,0.022c-0.021,0.114 -0.041,0.226 -0.061,0.337l-0.004,0.022c-0.021,0.118 -0.042,0.235 -0.063,0.349l-0.002,0.011c-0.019,0.107 -0.038,0.211 -0.057,0.315l-0.007,0.044c-0.022,0.118 -0.043,0.235 -0.063,0.348l-0.002,0.011c-0.022,0.119 -0.042,0.235 -0.063,0.349l-0.002,0.011c-0.021,0.119 -0.042,0.235 -0.062,0.348l-0.002,0.011l-0.065,0.359c-0.017,0.093 -0.033,0.184 -0.049,0.272l-0.015,0.087c-0.02,0.111 -0.039,0.216 -0.057,0.317l-0.008,0.042c-0.011,0.065 -0.023,0.127 -0.033,0.187l-0.031,0.173c-0.023,0.125 -0.043,0.238 -0.061,0.338l-0.004,0.02c-0.018,0.101 -0.034,0.189 -0.046,0.261c-0.037,0.002 -0.074,0.004 -0.111,0.006l-0.046,-0.167l-0.079,-0.289l-0.078,-0.289l-0.079,-0.289l-0.079,-0.289l-0.079,-0.289l-0.078,-0.289l-0.079,-0.289l-0.079,-0.289l-0.079,-0.289l-0.079,-0.289l-0.079,-0.289l-0.078,-0.288l-0.079,-0.289l-0.079,-0.289l-0.078,-0.289l-0.079,-0.289l-0.079,-0.289l-0.079,-0.289l-0.078,-0.289l-0.079,-0.289l-0.079,-0.288l-0.079,-0.29l-0.079,-0.289l-0.078,-0.289l-0.079,-0.289l-0.079,-0.289l-0.079,-0.289l-0.078,-0.288l-0.079,-0.289l-0.079,-0.289l-0.079,-0.289l-0.079,-0.29l-0.079,-0.289l-0.078,-0.288l-0.079,-0.289l-0.078,-0.288l-0.079,-0.29l-0.079,-0.288l-0.079,-0.29l-0.079,-0.289l-0.079,-0.289l-0.078,-0.289l-0.079,-0.288l-0.079,-0.289l-0.079,-0.289l-0.078,-0.289l-0.079,-0.289l-0.079,-0.289l-0.079,-0.289l-0.078,-0.288l-0.056,-0.205c0,0 -0.013,-0.029 -0.038,-0.078l-0.006,-0.011c-0.03,-0.06 -0.076,-0.145 -0.137,-0.245l-0.009,-0.015c-0.044,-0.072 -0.096,-0.152 -0.155,-0.233l-0.01,-0.015c-0.053,-0.073 -0.112,-0.148 -0.176,-0.222l-0.012,-0.014c-0.063,-0.072 -0.131,-0.142 -0.203,-0.208l-0.015,-0.014c-0.076,-0.068 -0.158,-0.132 -0.244,-0.187l-0.01,-0.006c-0.104,-0.066 -0.214,-0.119 -0.331,-0.154l-0.009,-0.003c-0.098,-0.028 -0.2,-0.044 -0.305,-0.044c-0.08,0 -0.161,0.009 -0.244,0.028c-0.043,0.01 -0.086,0.019 -0.129,0.028l-0.028,0.006c-0.292,0.058 -0.593,0.093 -0.882,0.112l-0.042,0.003c-0.206,0.013 -0.407,0.018 -0.595,0.018c-0.024,0 -0.048,0 -0.072,-0.001l-0.044,0c-0.219,-0.002 -0.417,-0.011 -0.58,-0.021l-0.027,-0.002c-0.28,-0.019 -0.453,-0.041 -0.453,-0.041l-0.32,0.435l-0.379,0.513l-0.377,0.512l-0.378,0.513l-0.379,0.513l-0.255,0.346c0,0 0.002,0.008 0.007,0.024l0.019,0.07c0.013,0.048 0.031,0.115 0.053,0.199l0.025,0.09c0.011,0.042 0.023,0.087 0.036,0.135l0.042,0.154c0.012,0.044 0.024,0.09 0.037,0.139l0.041,0.15c0.012,0.046 0.025,0.093 0.038,0.141l0.04,0.149c0.013,0.046 0.026,0.093 0.039,0.141l0.04,0.148c0.012,0.046 0.025,0.094 0.038,0.142l0.04,0.148c0.013,0.046 0.025,0.094 0.038,0.142l0.04,0.146c0.013,0.047 0.026,0.095 0.039,0.143l0.039,0.146c0.013,0.047 0.026,0.095 0.039,0.143l0.04,0.146c0.019,0.071 0.038,0.143 0.058,0.216l0.02,0.073c0.013,0.048 0.026,0.096 0.039,0.144l0.04,0.146c0.012,0.047 0.025,0.095 0.038,0.143l0.04,0.146c0.025,0.092 0.05,0.186 0.076,0.28l0.002,0.01c0.025,0.091 0.05,0.185 0.076,0.279l0.002,0.009c0.025,0.092 0.051,0.185 0.076,0.28l0.003,0.009c0.025,0.092 0.05,0.185 0.076,0.28l0.002,0.009c0.025,0.092 0.051,0.186 0.076,0.28l0.003,0.009c0.025,0.093 0.05,0.186 0.076,0.28l0.002,0.01c0.025,0.089 0.049,0.18 0.074,0.27l0.005,0.019c0.025,0.092 0.05,0.186 0.076,0.28l0.002,0.009c0.025,0.09 0.049,0.18 0.074,0.271l0.005,0.018c0.022,0.084 0.045,0.168 0.068,0.253l0.01,0.036c0.024,0.089 0.049,0.18 0.074,0.27l0.005,0.018c0.022,0.085 0.045,0.168 0.068,0.253l0.01,0.036c0.02,0.072 0.039,0.145 0.059,0.217l0.02,0.073c0.025,0.093 0.05,0.186 0.076,0.28l0.002,0.009c0.025,0.09 0.05,0.18 0.074,0.271l0.005,0.018c0.025,0.093 0.051,0.186 0.076,0.28l0.003,0.009c0.025,0.093 0.05,0.186 0.076,0.279l0.002,0.009c0.025,0.093 0.051,0.187 0.076,0.28l0.003,0.009c0.026,0.096 0.052,0.193 0.079,0.289l0.002,0.009c0.025,0.094 0.051,0.187 0.076,0.281l0.003,0.009c0.025,0.093 0.051,0.187 0.076,0.28l0.01,0.036c0.023,0.085 0.046,0.168 0.069,0.253l0.005,0.018c0.024,0.087 0.048,0.175 0.071,0.262l0.003,0.009c0.026,0.096 0.052,0.193 0.078,0.289l0.005,0.018c0.025,0.09 0.05,0.18 0.074,0.271l0.003,0.009c0.025,0.093 0.051,0.186 0.076,0.279l0.003,0.009c0.025,0.094 0.051,0.187 0.076,0.281l0.01,0.036c0.023,0.084 0.046,0.168 0.069,0.252l0.005,0.018c0.025,0.091 0.05,0.181 0.074,0.271l0.005,0.018c0.025,0.091 0.049,0.181 0.074,0.271l0.01,0.036c0.023,0.084 0.046,0.169 0.069,0.252l0.007,0.027c0.017,0.062 0.034,0.122 0.05,0.183l0.001,0.003c0.007,0.025 0.014,0.051 0.021,0.076l0.003,0.009c0.025,0.094 0.051,0.187 0.076,0.28l0.003,0.009c0.025,0.093 0.051,0.187 0.076,0.28l0.005,0.018c0.024,0.085 0.047,0.168 0.07,0.252l0.005,0.018c0.02,0.073 0.039,0.145 0.059,0.217l0.02,0.072c0.026,0.094 0.051,0.187 0.077,0.28l0.002,0.009c0.021,0.076 0.042,0.153 0.063,0.228l0,0.001c0.006,0.02 0.011,0.04 0.017,0.06l0.002,0.009c0.026,0.094 0.052,0.187 0.077,0.279l0.003,0.009c0.025,0.094 0.051,0.188 0.077,0.28l0.045,0.165l-0.433,0.025l-0.377,0.021c-0.126,0.007 -0.252,0.014 -0.377,0.021l-0.024,0.001c-0.244,0.014 -0.488,0.028 -0.731,0.041l-0.024,0.002c-0.244,0.013 -0.489,0.027 -0.732,0.041l-0.047,0.002c-0.237,0.014 -0.472,0.027 -0.708,0.04l-0.047,0.003c-0.237,0.013 -0.472,0.026 -0.707,0.039l-0.095,0.005c-0.221,0.013 -0.441,0.025 -0.66,0.037l-0.024,0.001c-0.245,0.014 -0.488,0.028 -0.73,0.041l-0.024,0.001c-0.245,0.014 -0.488,0.028 -0.73,0.041l-0.024,0.001c-0.245,0.014 -0.488,0.027 -0.73,0.041l-0.024,0.001c-0.245,0.014 -0.489,0.027 -0.73,0.04l-0.095,0.006c-0.221,0.012 -0.44,0.024 -0.657,0.036l-0.024,0.001c-0.246,0.014 -0.489,0.027 -0.729,0.04l-0.024,0.002c-0.246,0.013 -0.49,0.026 -0.729,0.04l-0.024,0.001c-0.247,0.013 -0.49,0.027 -0.729,0.04l-0.024,0.001c-0.247,0.013 -0.49,0.027 -0.727,0.039l-0.024,0.002c-0.249,0.013 -0.491,0.026 -0.728,0.039l-0.048,0.003c-0.24,0.013 -0.475,0.025 -0.702,0.037l-0.048,0.003c-0.242,0.013 -0.476,0.025 -0.702,0.037l-0.049,0.003c-0.243,0.013 -0.478,0.025 -0.7,0.037l-0.005,0c-0.045,0.003 -0.089,0.005 -0.134,0.007c-0.158,0.008 -0.313,0.013 -0.466,0.013c-0.035,0 -0.069,-0.001 -0.104,-0.001l-0.002,0c-0.207,-0.003 -0.41,-0.013 -0.607,-0.03l-0.004,0c-0.182,-0.016 -0.358,-0.038 -0.531,-0.066l-0.004,0c-0.161,-0.026 -0.32,-0.057 -0.474,-0.092l-0.004,-0.001c-0.147,-0.034 -0.29,-0.072 -0.43,-0.114l-0.004,0c-0.134,-0.041 -0.266,-0.084 -0.394,-0.132l-0.003,-0.001c-0.125,-0.046 -0.246,-0.094 -0.366,-0.147l-0.002,-0.001c-0.115,-0.05 -0.228,-0.103 -0.338,-0.159l-0.003,-0.001c-0.107,-0.054 -0.213,-0.111 -0.316,-0.171l-0.003,-0.001c-0.101,-0.058 -0.199,-0.118 -0.296,-0.18l-0.002,-0.002c-0.094,-0.061 -0.187,-0.124 -0.277,-0.188l-0.003,-0.002c-0.089,-0.064 -0.176,-0.129 -0.261,-0.196l-0.002,-0.002c-0.084,-0.066 -0.166,-0.134 -0.247,-0.203l-0.002,-0.002c-0.08,-0.069 -0.158,-0.139 -0.235,-0.211l-0.002,-0.001c-0.075,-0.071 -0.149,-0.143 -0.221,-0.216l-0.002,-0.002c-0.072,-0.073 -0.142,-0.147 -0.211,-0.222l-0.002,-0.002c-0.068,-0.075 -0.135,-0.15 -0.2,-0.227l-0.003,-0.003c-0.065,-0.076 -0.128,-0.153 -0.189,-0.23l-0.003,-0.004c-0.061,-0.077 -0.122,-0.155 -0.18,-0.233l-0.003,-0.004c-0.059,-0.079 -0.116,-0.158 -0.172,-0.238l-0.002,-0.004c-0.056,-0.08 -0.111,-0.161 -0.165,-0.242l-0.002,-0.004c-0.053,-0.081 -0.106,-0.164 -0.156,-0.246l-0.003,-0.004c-0.051,-0.083 -0.101,-0.166 -0.15,-0.249l-0.002,-0.004c-0.049,-0.084 -0.096,-0.169 -0.143,-0.253l-0.002,-0.004c-0.046,-0.085 -0.092,-0.17 -0.136,-0.256l-0.002,-0.004c-0.045,-0.086 -0.088,-0.172 -0.13,-0.258l-0.002,-0.004c-0.042,-0.087 -0.084,-0.174 -0.124,-0.261l-0.002,-0.004c-0.041,-0.089 -0.08,-0.177 -0.119,-0.265l-0.002,-0.005c-0.038,-0.088 -0.076,-0.178 -0.113,-0.266l-0.001,-0.004c-0.038,-0.091 -0.074,-0.181 -0.108,-0.271l-0.002,-0.004c-0.035,-0.091 -0.07,-0.182 -0.103,-0.272l-0.002,-0.005c-0.033,-0.091 -0.066,-0.183 -0.097,-0.274l-0.002,-0.004c-0.032,-0.093 -0.063,-0.185 -0.093,-0.276l-0.001,-0.005c-0.031,-0.094 -0.06,-0.187 -0.089,-0.279l-0.001,-0.005c-0.029,-0.094 -0.057,-0.188 -0.084,-0.281l-0.001,-0.004c-0.028,-0.096 -0.054,-0.191 -0.079,-0.284l-0.002,-0.005c-0.026,-0.097 -0.051,-0.192 -0.074,-0.285l-0.002,-0.005c-0.024,-0.098 -0.048,-0.194 -0.07,-0.288l-0.001,-0.005c-0.024,-0.099 -0.045,-0.195 -0.066,-0.29l-0.001,-0.005c-0.022,-0.1 -0.043,-0.198 -0.062,-0.292l-0.001,-0.005c-0.02,-0.101 -0.039,-0.199 -0.056,-0.293l-0.001,-0.005c-0.02,-0.104 -0.037,-0.203 -0.053,-0.297l0,-0.005c-0.018,-0.107 -0.034,-0.207 -0.048,-0.299l-0.001,-0.005c-0.016,-0.113 -0.03,-0.214 -0.041,-0.301l-0.001,-0.004c-0.017,-0.138 -0.029,-0.242 -0.035,-0.307l0,-0.002c-0.005,-0.048 -0.007,-0.073 -0.007,-0.073c0,0 -0.006,-0.081 -0.016,-0.241l-0.003,-0.032c-0.005,-0.079 -0.012,-0.173 -0.019,-0.284l-0.001,-0.017c-0.007,-0.09 -0.014,-0.19 -0.021,-0.3l-0.003,-0.037c-0.006,-0.087 -0.012,-0.18 -0.019,-0.279l-0.001,-0.019c-0.007,-0.094 -0.014,-0.194 -0.021,-0.298l-0.002,-0.019c-0.006,-0.095 -0.013,-0.195 -0.02,-0.298l-0.002,-0.019c-0.006,-0.096 -0.013,-0.195 -0.02,-0.298l-0.001,-0.01c-0.007,-0.099 -0.014,-0.202 -0.021,-0.307l-0.001,-0.01c-0.007,-0.099 -0.014,-0.201 -0.022,-0.307l0,-0.009c-0.007,-0.1 -0.014,-0.203 -0.022,-0.308l0,-0.009c-0.007,-0.101 -0.014,-0.203 -0.022,-0.308l0,-0.009c-0.007,-0.1 -0.015,-0.202 -0.022,-0.306l0,-0.01c-0.008,-0.1 -0.015,-0.203 -0.022,-0.307l-0.001,-0.019c-0.007,-0.098 -0.014,-0.197 -0.021,-0.298l-0.001,-0.009c-0.007,-0.101 -0.014,-0.203 -0.021,-0.307l-0.001,-0.01c-0.007,-0.101 -0.014,-0.203 -0.022,-0.307l-0.001,-0.02c-0.007,-0.098 -0.014,-0.196 -0.021,-0.297l-0.001,-0.019c-0.007,-0.098 -0.014,-0.197 -0.021,-0.296l-0.001,-0.01c-0.007,-0.102 -0.014,-0.203 -0.021,-0.307l0,-0.001c-0.002,-0.02 -0.003,-0.041 -0.005,-0.061l0.021,-0.022c0,0 0.091,-0.134 0.27,-0.384l0.004,-0.006c0.097,-0.135 0.218,-0.303 0.363,-0.502l0.006,-0.007c0.112,-0.152 0.238,-0.322 0.378,-0.509l0.003,-0.004c0.035,-0.045 0.07,-0.092 0.106,-0.139c0.001,0.026 0.003,0.051 0.005,0.077l0.001,0.01c0.006,0.093 0.013,0.187 0.019,0.278l0.003,0.039c0.007,0.104 0.015,0.206 0.022,0.307l0,0.01c0.008,0.1 0.015,0.199 0.021,0.297l0.002,0.02c0.007,0.103 0.014,0.205 0.022,0.307l0,0.009c0.007,0.1 0.014,0.199 0.021,0.296l0.001,0.02c0.007,0.1 0.014,0.199 0.021,0.297l0.002,0.02c0.007,0.103 0.014,0.206 0.021,0.307l0.001,0.009c0.007,0.104 0.014,0.207 0.021,0.307l0.001,0.01c0.007,0.104 0.015,0.206 0.022,0.307l0,0.01c0.008,0.104 0.015,0.207 0.022,0.307l0.001,0.01c0.007,0.1 0.013,0.199 0.02,0.296l0.002,0.019c0.007,0.105 0.014,0.208 0.021,0.307l0.001,0.01c0.007,0.105 0.014,0.208 0.021,0.307l0.001,0.01c0.007,0.105 0.015,0.208 0.021,0.307l0.001,0.01c0.007,0.102 0.014,0.202 0.021,0.297l0.001,0.019c0.007,0.107 0.015,0.21 0.022,0.308l0,0.009c0.008,0.108 0.015,0.211 0.022,0.308l0,0.009c0.008,0.11 0.015,0.212 0.022,0.308l0,0.009c0.008,0.109 0.015,0.209 0.021,0.299l0.001,0.018c0.008,0.116 0.015,0.216 0.021,0.3l0.001,0.017c0.013,0.192 0.021,0.295 0.021,0.305c0,0.002 0.001,0.005 0.001,0.01l0,0.001c0.003,0.033 0.013,0.14 0.035,0.306l0,0.004c0.011,0.086 0.025,0.186 0.042,0.301l0.001,0.006c0.014,0.091 0.03,0.191 0.048,0.298l0.001,0.005c0.016,0.093 0.034,0.192 0.054,0.296l0.001,0.005c0.017,0.094 0.037,0.192 0.058,0.294l0.001,0.005c0.019,0.094 0.04,0.191 0.062,0.291l0.001,0.004c0.022,0.094 0.044,0.191 0.068,0.29l0.001,0.004c0.023,0.094 0.047,0.19 0.072,0.288l0.002,0.004c0.024,0.094 0.049,0.188 0.076,0.285l0.001,0.005c0.026,0.092 0.054,0.187 0.082,0.282l0.001,0.005c0.028,0.092 0.056,0.186 0.086,0.28l0.002,0.004c0.029,0.092 0.059,0.185 0.091,0.278l0.001,0.005c0.031,0.091 0.063,0.183 0.096,0.275l0.002,0.005c0.032,0.09 0.066,0.181 0.1,0.272l0.002,0.005c0.034,0.089 0.069,0.179 0.106,0.27l0.001,0.004c0.037,0.089 0.074,0.178 0.112,0.268l0.002,0.004c0.038,0.089 0.077,0.177 0.117,0.266l0.002,0.004c0.04,0.087 0.08,0.175 0.122,0.262l0.002,0.004c0.042,0.087 0.085,0.174 0.129,0.26l0.002,0.004c0.044,0.086 0.089,0.171 0.135,0.256l0.002,0.004c0.046,0.085 0.093,0.169 0.142,0.253l0.002,0.004c0.048,0.084 0.098,0.167 0.148,0.249l0.003,0.004c0.05,0.083 0.102,0.165 0.155,0.247l0.003,0.004c0.054,0.082 0.109,0.163 0.165,0.244l0.002,0.002c0.056,0.081 0.113,0.161 0.172,0.24l0.002,0.002c0.058,0.079 0.119,0.157 0.18,0.235l0.003,0.003c0.062,0.078 0.126,0.155 0.191,0.231l0.002,0.002c0.065,0.076 0.132,0.152 0.2,0.226l0.002,0.002c0.069,0.075 0.14,0.148 0.212,0.221l0.002,0.001c0.072,0.074 0.147,0.146 0.223,0.216l0.002,0.002c0.078,0.071 0.156,0.141 0.237,0.209l0.002,0.002c0.082,0.069 0.165,0.136 0.25,0.202l0.002,0.001c0.087,0.067 0.176,0.133 0.267,0.196l0.002,0.001c0.092,0.064 0.186,0.126 0.283,0.186l0.002,0.002c0.099,0.061 0.199,0.12 0.302,0.176l0.002,0.002c0.106,0.057 0.214,0.113 0.324,0.166l0.002,0.001c0.114,0.054 0.231,0.106 0.35,0.154l0.002,0.001c0.124,0.05 0.251,0.097 0.379,0.14l0.003,0.001c0.135,0.045 0.272,0.086 0.413,0.123l0.003,0.001c0.148,0.039 0.3,0.073 0.456,0.102l0.003,0.001c0.165,0.031 0.334,0.057 0.506,0.077l0.004,0c0.188,0.022 0.38,0.036 0.576,0.044l0.003,0c0.099,0.004 0.2,0.005 0.302,0.005c0.122,0 0.245,-0.002 0.371,-0.008l0.009,0c0.023,-0.001 0.045,-0.002 0.068,-0.004c0.212,-0.011 0.436,-0.022 0.671,-0.035l0.023,-0.001c0.232,-0.012 0.476,-0.025 0.729,-0.039l0.023,-0.001c0.235,-0.013 0.477,-0.026 0.729,-0.039l0.023,-0.002c0.235,-0.012 0.48,-0.025 0.729,-0.039l0.023,-0.001c0.237,-0.013 0.48,-0.026 0.729,-0.04l0.023,-0.001c0.238,-0.013 0.481,-0.026 0.728,-0.04l0.024,-0.001c0.238,-0.013 0.482,-0.027 0.729,-0.04l0.024,-0.001c0.24,-0.014 0.482,-0.027 0.729,-0.041l0.047,-0.002c0.232,-0.013 0.469,-0.026 0.707,-0.039l0.094,-0.005c0.217,-0.012 0.438,-0.025 0.66,-0.037l0.023,-0.001c0.241,-0.014 0.485,-0.027 0.731,-0.041l0.023,-0.001c0.241,-0.013 0.485,-0.027 0.73,-0.041l0.023,-0.001c0.243,-0.013 0.486,-0.027 0.731,-0.041l0.047,-0.002c0.235,-0.013 0.472,-0.027 0.708,-0.04l0.094,-0.005c0.219,-0.012 0.439,-0.025 0.66,-0.037l0.047,-0.003c0.235,-0.013 0.472,-0.026 0.708,-0.039l0.047,-0.003c0.236,-0.013 0.472,-0.026 0.709,-0.04l0.023,-0.001c0.244,-0.014 0.488,-0.027 0.732,-0.041l0.006,0c0.032,-0.002 0.063,-0.004 0.095,-0.006l-0.009,-0.039l-0.072,-0.292l-0.001,-0.006l-0.093,0.006c-0.217,0.012 -0.433,0.024 -0.65,0.036l-0.023,0.001c-0.245,0.014 -0.489,0.028 -0.732,0.041l-0.024,0.002c-0.244,0.013 -0.488,0.027 -0.73,0.041l-0.048,0.002c-0.236,0.014 -0.472,0.027 -0.707,0.04l-0.095,0.005c-0.221,0.013 -0.441,0.025 -0.66,0.037l-0.047,0.003c-0.237,0.013 -0.472,0.026 -0.706,0.039l-0.048,0.003c-0.237,0.013 -0.473,0.026 -0.707,0.039l-0.095,0.005c-0.221,0.013 -0.44,0.025 -0.658,0.037l-0.048,0.003c-0.237,0.013 -0.474,0.026 -0.707,0.039l-0.023,0.001c-0.246,0.014 -0.49,0.027 -0.73,0.04l-0.095,0.005c-0.222,0.013 -0.441,0.025 -0.658,0.037l-0.048,0.002c-0.238,0.013 -0.472,0.026 -0.704,0.039l-0.024,0.001c-0.247,0.014 -0.491,0.027 -0.729,0.04l-0.024,0.001c-0.248,0.014 -0.491,0.027 -0.728,0.04l-0.024,0.001c-0.249,0.014 -0.492,0.027 -0.728,0.04l-0.025,0.001c-0.25,0.014 -0.494,0.027 -0.728,0.039l-0.024,0.002c-0.253,0.013 -0.495,0.026 -0.726,0.038l-0.024,0.002c-0.245,0.012 -0.478,0.025 -0.697,0.036c-0.009,0.001 -0.019,0.001 -0.028,0.002l-0.003,0c-0.133,0.006 -0.262,0.009 -0.391,0.009c-0.095,0 -0.189,-0.001 -0.282,-0.005l-0.003,0c-0.196,-0.007 -0.388,-0.022 -0.574,-0.044l-0.002,0c-0.173,-0.021 -0.341,-0.048 -0.506,-0.08l-0.003,0c-0.153,-0.031 -0.302,-0.066 -0.449,-0.106l-0.003,-0.001c-0.138,-0.038 -0.274,-0.08 -0.407,-0.126l-0.003,-0.001c-0.126,-0.044 -0.25,-0.092 -0.371,-0.143l-0.002,-0.002c-0.117,-0.049 -0.231,-0.101 -0.342,-0.157l-0.002,-0.001c-0.108,-0.054 -0.214,-0.111 -0.316,-0.17l-0.003,-0.001c-0.1,-0.058 -0.198,-0.118 -0.294,-0.181l-0.003,-0.001c-0.094,-0.061 -0.186,-0.125 -0.276,-0.191l-0.002,-0.001c-0.088,-0.064 -0.174,-0.13 -0.258,-0.198l-0.002,-0.002c-0.083,-0.066 -0.165,-0.136 -0.244,-0.206l-0.002,-0.002c-0.078,-0.069 -0.155,-0.14 -0.229,-0.212l-0.002,-0.002c-0.074,-0.071 -0.146,-0.144 -0.217,-0.219l-0.001,-0.001c-0.07,-0.074 -0.138,-0.148 -0.205,-0.224l-0.002,-0.002c-0.066,-0.076 -0.13,-0.152 -0.194,-0.23l-0.001,-0.001c-0.063,-0.078 -0.125,-0.157 -0.185,-0.236l-0.001,-0.002c-0.06,-0.078 -0.118,-0.158 -0.175,-0.238l-0.003,-0.004c-0.056,-0.08 -0.112,-0.161 -0.166,-0.242l-0.002,-0.004c-0.054,-0.081 -0.106,-0.163 -0.157,-0.246l-0.003,-0.003c-0.051,-0.083 -0.1,-0.166 -0.149,-0.249l-0.002,-0.004c-0.049,-0.084 -0.096,-0.168 -0.142,-0.253l-0.003,-0.004c-0.046,-0.085 -0.091,-0.17 -0.135,-0.255l-0.002,-0.004c-0.044,-0.087 -0.087,-0.174 -0.129,-0.26l-0.002,-0.004c-0.042,-0.088 -0.083,-0.175 -0.123,-0.262l-0.002,-0.004c-0.04,-0.089 -0.079,-0.178 -0.117,-0.266l-0.002,-0.004c-0.038,-0.09 -0.075,-0.179 -0.111,-0.269l-0.002,-0.004c-0.036,-0.09 -0.071,-0.18 -0.105,-0.27l-0.002,-0.005c-0.035,-0.091 -0.068,-0.182 -0.1,-0.272l-0.002,-0.005c-0.033,-0.092 -0.064,-0.184 -0.095,-0.276l-0.001,-0.004c-0.032,-0.094 -0.062,-0.186 -0.091,-0.278l-0.001,-0.005c-0.03,-0.095 -0.058,-0.188 -0.085,-0.28l-0.002,-0.005c-0.028,-0.095 -0.055,-0.19 -0.08,-0.283l-0.002,-0.005c-0.026,-0.096 -0.051,-0.191 -0.075,-0.285l-0.001,-0.005c-0.025,-0.098 -0.049,-0.193 -0.071,-0.287l-0.001,-0.005c-0.024,-0.099 -0.046,-0.196 -0.067,-0.29l-0.001,-0.005c-0.022,-0.1 -0.042,-0.197 -0.061,-0.291l-0.001,-0.005c-0.021,-0.102 -0.04,-0.201 -0.057,-0.294l-0.001,-0.005c-0.019,-0.105 -0.036,-0.205 -0.051,-0.297l-0.001,-0.005c-0.018,-0.11 -0.034,-0.21 -0.046,-0.3l-0.001,-0.003c-0.017,-0.123 -0.03,-0.225 -0.04,-0.305l0,-0.002c-0.014,-0.113 -0.019,-0.178 -0.02,-0.185c0,-0.006 -0.003,-0.048 -0.008,-0.126l-0.001,-0.014c-0.005,-0.073 -0.012,-0.174 -0.021,-0.302l-0.003,-0.035c-0.005,-0.083 -0.012,-0.177 -0.019,-0.282l-0.001,-0.018c-0.007,-0.092 -0.014,-0.192 -0.021,-0.299l-0.001,-0.019c-0.007,-0.093 -0.014,-0.193 -0.021,-0.298l-0.001,-0.009c-0.007,-0.098 -0.014,-0.2 -0.021,-0.308l-0.002,-0.019c-0.006,-0.095 -0.013,-0.194 -0.02,-0.297l-0.002,-0.02c-0.006,-0.096 -0.013,-0.195 -0.02,-0.297l-0.001,-0.01c-0.007,-0.099 -0.014,-0.202 -0.022,-0.307l-0.005,-0.078c-0.005,-0.078 -0.011,-0.158 -0.017,-0.239l0,-0.01c-0.007,-0.1 -0.014,-0.202 -0.022,-0.307l-0.001,-0.019c-0.007,-0.097 -0.014,-0.195 -0.021,-0.296l-0.003,-0.039c-0.006,-0.091 -0.013,-0.184 -0.019,-0.278l-0.001,-0.02c-0.007,-0.097 -0.014,-0.196 -0.021,-0.297l-0.001,-0.01c-0.007,-0.101 -0.014,-0.202 -0.022,-0.307l-0.002,-0.039c-0.007,-0.091 -0.013,-0.184 -0.02,-0.277l-0.001,-0.02c-0.007,-0.098 -0.014,-0.197 -0.021,-0.297l-0.002,-0.02c-0.006,-0.097 -0.013,-0.196 -0.02,-0.296l-0.002,-0.019c-0.007,-0.098 -0.014,-0.197 -0.021,-0.297l0,-0.01c-0.008,-0.102 -0.015,-0.203 -0.022,-0.307l-0.001,-0.01c-0.007,-0.101 -0.014,-0.204 -0.021,-0.307l-0.001,-0.01c-0.007,-0.101 -0.014,-0.203 -0.022,-0.307l-0.003,-0.039c-0.006,-0.091 -0.013,-0.184 -0.019,-0.277l0,-0.001c0,-0.006 -0.001,-0.011 -0.001,-0.017c0.122,-0.159 0.251,-0.325 0.388,-0.499l0.006,-0.008c0.133,-0.169 0.272,-0.346 0.418,-0.528l0.007,-0.008c0.138,-0.173 0.281,-0.35 0.431,-0.534l0.007,-0.009c0.143,-0.175 0.292,-0.356 0.445,-0.541l0.008,-0.008c0.148,-0.179 0.3,-0.36 0.458,-0.547l0.007,-0.009c0.153,-0.18 0.31,-0.365 0.472,-0.552l0.007,-0.009c0.159,-0.184 0.321,-0.371 0.488,-0.562l0.008,-0.008c0.164,-0.187 0.332,-0.378 0.504,-0.57l0.008,-0.009c0.17,-0.191 0.343,-0.382 0.52,-0.578l0.009,-0.009c0.175,-0.193 0.355,-0.388 0.538,-0.586l0.009,-0.009c0.182,-0.197 0.367,-0.395 0.557,-0.596l0.004,-0.004c0.034,-0.037 0.069,-0.073 0.104,-0.111c0.005,0.018 0.009,0.035 0.014,0.053l0.001,0.002c0.023,0.09 0.047,0.181 0.071,0.272l0.005,0.018c0.024,0.091 0.047,0.181 0.071,0.272l0.005,0.019c0.024,0.092 0.049,0.187 0.074,0.281l0.002,0.009c0.024,0.091 0.048,0.181 0.072,0.272l0.005,0.018c0.023,0.091 0.047,0.181 0.071,0.272l0.005,0.019c0.022,0.083 0.044,0.168 0.066,0.253l0.01,0.036c0.023,0.09 0.047,0.181 0.071,0.272l0.005,0.018c0.022,0.084 0.044,0.169 0.067,0.254l0.009,0.037c0.024,0.09 0.048,0.18 0.072,0.271l0.004,0.019c0.025,0.093 0.05,0.187 0.074,0.281l0.003,0.009c0.024,0.094 0.049,0.187 0.073,0.281l0.003,0.009c0.024,0.094 0.049,0.187 0.074,0.281l0.002,0.01c0.024,0.09 0.048,0.181 0.071,0.272l0.005,0.018c0.024,0.09 0.048,0.181 0.072,0.272l0.005,0.018c0.024,0.094 0.049,0.188 0.073,0.282l0.003,0.009c0.024,0.093 0.049,0.187 0.073,0.281l0.003,0.009c0.024,0.093 0.049,0.187 0.073,0.28l0.003,0.009c0.022,0.085 0.044,0.17 0.067,0.254l0.009,0.037c0.025,0.093 0.049,0.187 0.074,0.281l0.002,0.009c0.023,0.085 0.045,0.169 0.067,0.254l0.009,0.036c0.024,0.091 0.048,0.182 0.072,0.272l0.005,0.018c0.024,0.094 0.049,0.188 0.073,0.282l0.003,0.009c0.022,0.085 0.044,0.169 0.066,0.253l0.01,0.036c0.024,0.094 0.049,0.188 0.074,0.282l0.002,0.009c0.024,0.09 0.048,0.181 0.072,0.272l0.004,0.018c0.024,0.091 0.048,0.181 0.072,0.272l0.004,0.018c0.025,0.094 0.05,0.188 0.074,0.281l0.003,0.009c0.024,0.094 0.049,0.188 0.073,0.282l0.003,0.009c0.025,0.094 0.049,0.187 0.074,0.281l0.002,0.009c0.024,0.091 0.048,0.182 0.071,0.272l0.005,0.019c0.025,0.093 0.05,0.188 0.074,0.281l0.002,0.009c0.023,0.085 0.045,0.169 0.067,0.254l0.01,0.036c0.024,0.094 0.049,0.187 0.073,0.28l0.003,0.01c0.024,0.093 0.049,0.188 0.073,0.281l0.003,0.009c0.025,0.097 0.051,0.193 0.076,0.29l0.005,0.018c0.024,0.091 0.047,0.182 0.071,0.272l0.005,0.018c0.024,0.091 0.048,0.183 0.071,0.273l0.005,0.018c0.023,0.088 0.046,0.175 0.069,0.263l0.002,0.009c0.024,0.091 0.048,0.182 0.072,0.271l0.004,0.018c0.024,0.092 0.048,0.182 0.072,0.273l0.005,0.018c0.024,0.091 0.047,0.182 0.071,0.272l0.005,0.018c0.024,0.092 0.048,0.182 0.071,0.272l0.005,0.018c0.025,0.095 0.049,0.189 0.074,0.282l0.002,0.009c0.024,0.091 0.048,0.181 0.072,0.272l0.004,0.018c0.024,0.091 0.048,0.182 0.072,0.272l0.004,0.018c0.025,0.094 0.05,0.189 0.074,0.281l0.003,0.009c0.024,0.092 0.047,0.183 0.071,0.273l0.005,0.018c0.024,0.091 0.048,0.182 0.071,0.271l0.005,0.018c0.025,0.095 0.049,0.189 0.074,0.282l0.002,0.009c0.025,0.095 0.05,0.189 0.074,0.282l0.002,0.009c0.024,0.091 0.048,0.182 0.072,0.272l0.005,0.017c0.023,0.092 0.048,0.184 0.071,0.273l0.005,0.018c0.024,0.092 0.048,0.182 0.071,0.272l0.005,0.018c0.025,0.095 0.049,0.189 0.073,0.281l0.003,0.009c0.024,0.092 0.048,0.183 0.071,0.272l0.005,0.018c0.023,0.086 0.045,0.171 0.067,0.254l0.009,0.036c0.023,0.087 0.045,0.172 0.067,0.255l0.009,0.036c0.025,0.093 0.049,0.184 0.072,0.272l0.005,0.018c0.025,0.096 0.049,0.191 0.074,0.282l0.002,0.009c0.024,0.094 0.048,0.184 0.071,0.272l0.005,0.017c0.025,0.098 0.05,0.192 0.074,0.282l0.002,0.008c0.025,0.096 0.049,0.186 0.071,0.273l0.005,0.017c0.026,0.101 0.051,0.194 0.074,0.282l0.002,0.008c0.026,0.101 0.05,0.192 0.072,0.275l0.004,0.017c0.03,0.111 0.054,0.206 0.075,0.282l0.001,0.007c0.039,0.149 0.06,0.227 0.06,0.227c0,0 0.006,0.022 0.019,0.061l0.001,0.002c0.02,0.059 0.055,0.155 0.108,0.272l0.001,0.002c0.035,0.079 0.079,0.167 0.131,0.26l0.001,0.002c0.045,0.081 0.097,0.165 0.156,0.248l0.001,0.002c0.056,0.079 0.118,0.159 0.187,0.235l0.001,0.001c0.069,0.076 0.144,0.149 0.227,0.215l0.001,0.001c0.087,0.07 0.182,0.134 0.285,0.186l0.002,0.001c0.12,0.061 0.251,0.107 0.393,0.134l0.002,0c0.087,0.017 0.179,0.025 0.276,0.025c0.148,0 0.307,-0.02 0.477,-0.067l0.002,0c0.031,-0.008 0.063,-0.018 0.095,-0.028c0.526,-0.169 1.141,-0.36 1.744,-0.546l0.015,-0.005c0.638,-0.197 1.262,-0.386 1.755,-0.536l0.028,-0.008c0.584,-0.177 0.976,-0.294 0.976,-0.294c0,0 0.237,-0.084 0.403,-0.387l0.001,-0.001c0.056,-0.103 0.105,-0.232 0.133,-0.391l0,-0.002c0.017,-0.1 0.027,-0.212 0.025,-0.338l0,-0.002c-0.001,-0.096 -0.009,-0.2 -0.025,-0.313l0,-0.002c-0.013,-0.093 -0.032,-0.193 -0.057,-0.298l0,-0.001c-0.003,-0.011 -0.005,-0.021 -0.008,-0.032c-0.013,-0.055 -0.035,-0.142 -0.065,-0.258l-0.004,-0.016c-0.021,-0.079 -0.045,-0.171 -0.072,-0.275l-0.002,-0.009c-0.023,-0.085 -0.048,-0.179 -0.075,-0.281l-0.004,-0.017c-0.023,-0.086 -0.047,-0.177 -0.072,-0.273l-0.005,-0.017c-0.023,-0.087 -0.047,-0.177 -0.072,-0.272l-0.019,-0.07c-0.019,-0.071 -0.038,-0.144 -0.059,-0.22l-0.004,-0.017c-0.024,-0.088 -0.048,-0.179 -0.073,-0.273l-0.009,-0.035c-0.022,-0.083 -0.045,-0.167 -0.068,-0.254l-0.005,-0.018c-0.024,-0.089 -0.048,-0.18 -0.073,-0.272l-0.005,-0.018c-0.023,-0.089 -0.048,-0.179 -0.073,-0.272l-0.004,-0.018c-0.024,-0.089 -0.048,-0.179 -0.073,-0.271l-0.005,-0.018c-0.024,-0.089 -0.048,-0.18 -0.073,-0.271l-0.009,-0.036c-0.023,-0.084 -0.045,-0.168 -0.068,-0.253l-0.005,-0.018c-0.024,-0.09 -0.048,-0.181 -0.073,-0.272l-0.039,-0.144c-0.013,-0.048 -0.026,-0.097 -0.039,-0.146l-0.039,-0.144c-0.012,-0.048 -0.026,-0.097 -0.039,-0.146l-0.038,-0.143c-0.013,-0.049 -0.027,-0.097 -0.04,-0.146l-0.038,-0.144c-0.013,-0.048 -0.026,-0.096 -0.039,-0.145l-0.039,-0.144c-0.013,-0.048 -0.026,-0.097 -0.039,-0.145l-0.039,-0.144c-0.013,-0.048 -0.026,-0.096 -0.039,-0.145l-0.039,-0.144c-0.013,-0.049 -0.026,-0.097 -0.039,-0.146l-0.039,-0.144c-0.013,-0.048 -0.026,-0.097 -0.039,-0.145l-0.039,-0.144c-0.013,-0.049 -0.026,-0.097 -0.039,-0.146l-0.078,-0.289l-0.039,-0.144c-0.013,-0.049 -0.026,-0.097 -0.039,-0.146l-0.019,-0.072c-0.02,-0.072 -0.039,-0.144 -0.059,-0.217l-0.039,-0.144c-0.013,-0.048 -0.026,-0.096 -0.039,-0.145l-0.039,-0.144c-0.013,-0.048 -0.026,-0.097 -0.039,-0.145l-0.039,-0.145c-0.013,-0.048 -0.026,-0.096 -0.039,-0.145l-0.039,-0.144c-0.013,-0.048 -0.026,-0.097 -0.039,-0.145l-0.078,-0.289l-0.02,-0.072c-0.019,-0.073 -0.039,-0.145 -0.058,-0.218l-0.039,-0.144c-0.013,-0.048 -0.026,-0.097 -0.039,-0.145l-0.039,-0.144c-0.013,-0.048 -0.026,-0.097 -0.039,-0.145l-0.02,-0.072c-0.019,-0.072 -0.039,-0.144 -0.058,-0.217l-0.02,-0.072c-0.019,-0.073 -0.039,-0.145 -0.059,-0.217l-0.039,-0.145c-0.013,-0.048 -0.026,-0.096 -0.039,-0.144l-0.039,-0.145c-0.013,-0.048 -0.026,-0.096 -0.039,-0.145l-0.039,-0.144c-0.013,-0.049 -0.026,-0.097 -0.039,-0.145l-0.019,-0.072c-0.02,-0.072 -0.039,-0.144 -0.059,-0.217l-0.039,-0.144c-0.013,-0.049 -0.026,-0.097 -0.039,-0.145l-0.01,-0.036c-0.023,-0.085 -0.045,-0.169 -0.068,-0.253l-0.02,-0.073c-0.019,-0.072 -0.039,-0.145 -0.058,-0.217l-0.01,-0.036c-0.023,-0.084 -0.046,-0.169 -0.069,-0.253l-0.009,-0.036c-0.023,-0.085 -0.046,-0.169 -0.069,-0.254l-0.01,-0.036c-0.022,-0.084 -0.045,-0.169 -0.068,-0.253l-0.01,-0.036c-0.023,-0.084 -0.045,-0.169 -0.068,-0.253l-0.02,-0.072c-0.019,-0.073 -0.039,-0.145 -0.059,-0.217l-0.005,-0.018c-0.024,-0.091 -0.048,-0.181 -0.073,-0.272l-0.005,-0.018c-0.024,-0.09 -0.048,-0.18 -0.073,-0.27l-0.01,-0.036c-0.022,-0.085 -0.045,-0.169 -0.068,-0.253l-0.01,-0.037c-0.023,-0.084 -0.046,-0.169 -0.068,-0.253l-0.02,-0.072c-0.019,-0.073 -0.039,-0.145 -0.059,-0.217l-0.002,-0.009c-0.025,-0.094 -0.05,-0.186 -0.076,-0.28l-0.005,-0.018c-0.024,-0.091 -0.049,-0.181 -0.073,-0.271l-0.078,-0.289l-0.003,-0.009c-0.025,-0.094 -0.05,-0.187 -0.075,-0.28l-0.003,-0.009c-0.025,-0.094 -0.051,-0.188 -0.076,-0.281l-0.078,-0.289l-0.005,-0.018c-0.024,-0.091 -0.049,-0.181 -0.073,-0.271l-0.002,-0.005c-0.025,-0.095 -0.051,-0.19 -0.077,-0.285l-0.039,-0.144c-0.013,-0.049 -0.026,-0.097 -0.039,-0.145l-0.005,-0.018c-0.024,-0.09 -0.049,-0.181 -0.073,-0.271l-0.003,-0.009c-0.025,-0.094 -0.05,-0.187 -0.075,-0.28l-0.003,-0.009c-0.025,-0.094 -0.051,-0.188 -0.076,-0.281l-0.002,-0.009c-0.026,-0.094 -0.051,-0.187 -0.076,-0.28l-0.005,-0.018c-0.024,-0.09 -0.049,-0.181 -0.073,-0.27l-0.005,-0.018c-0.025,-0.091 -0.049,-0.181 -0.073,-0.271l-0.005,-0.019c-0.025,-0.091 -0.049,-0.181 -0.074,-0.271l-0.002,-0.009c-0.026,-0.094 -0.051,-0.187 -0.076,-0.28l-0.005,-0.018c-0.025,-0.091 -0.049,-0.182 -0.073,-0.271l-0.003,-0.009c-0.025,-0.095 -0.051,-0.188 -0.076,-0.281l-0.002,-0.009c-0.026,-0.093 -0.051,-0.187 -0.076,-0.279l-0.005,-0.018c-0.025,-0.092 -0.049,-0.181 -0.073,-0.271l-0.005,-0.019c-0.025,-0.09 -0.049,-0.181 -0.073,-0.27l-0.003,-0.009c-0.025,-0.095 -0.051,-0.188 -0.076,-0.281l-0.005,-0.018c-0.025,-0.091 -0.049,-0.181 -0.073,-0.271l-0.005,-0.018c-0.025,-0.092 -0.049,-0.182 -0.074,-0.271l-0.005,-0.018c-0.024,-0.092 -0.049,-0.182 -0.073,-0.271l-0.002,-0.009c-0.026,-0.095 -0.051,-0.189 -0.076,-0.281l-0.005,-0.015c-0.02,-0.077 -0.041,-0.153 -0.061,-0.228c0.047,-0.041 0.093,-0.08 0.141,-0.121l0.007,-0.006c0.3,-0.258 0.605,-0.516 0.915,-0.774l0.008,-0.006c0.324,-0.27 0.654,-0.539 0.988,-0.808l0.009,-0.007c0.357,-0.287 0.72,-0.573 1.087,-0.858l0.01,-0.007c0.399,-0.309 0.804,-0.616 1.216,-0.921l0.005,-0.004c0.462,-0.341 0.932,-0.681 1.409,-1.016l0.006,-0.005c0.561,-0.394 1.132,-0.783 1.714,-1.166l0.009,-0.006c0.775,-0.509 1.566,-1.006 2.378,-1.49l0.007,-0.005c2.666,-1.59 5.527,-3.026 8.561,-4.193l0.01,-0.004c0.795,-0.305 1.602,-0.593 2.421,-0.859l0.007,-0.002c0.581,-0.19 1.166,-0.368 1.759,-0.536l0.005,-0.001c0.481,-0.136 0.967,-0.265 1.455,-0.386l0.009,-0.003c0.419,-0.104 0.837,-0.201 1.261,-0.293l0.009,-0.002c0.376,-0.082 0.756,-0.159 1.136,-0.231l0.008,-0.002c0.345,-0.065 0.691,-0.127 1.04,-0.184l0.007,-0.001c0.32,-0.053 0.643,-0.102 0.965,-0.148l0.007,-0.001c0.301,-0.042 0.601,-0.081 0.904,-0.117l0.007,-0.001c0.284,-0.034 0.568,-0.065 0.854,-0.093l0.004,-0.001c0.085,-0.008 0.169,-0.016 0.254,-0.024c0.083,0.038 0.157,0.076 0.223,0.115l0.002,0.001c0.013,0.007 0.026,0.015 0.038,0.022c0.084,0.051 0.165,0.106 0.245,0.164l0.002,0.001c0.087,0.064 0.171,0.131 0.253,0.201l0.002,0.002c0.078,0.068 0.155,0.139 0.229,0.213l0.002,0.002c0.071,0.071 0.141,0.145 0.208,0.222l0.002,0.002c0.066,0.075 0.13,0.151 0.192,0.231l0.001,0.002c0.061,0.077 0.12,0.156 0.177,0.237l0.002,0.002c0.056,0.08 0.111,0.162 0.164,0.245l0.001,0.002c0.053,0.082 0.103,0.165 0.152,0.25l0.002,0.002c0.048,0.084 0.096,0.169 0.142,0.256l0.001,0.002c0.045,0.086 0.09,0.173 0.133,0.26l0.001,0.002c0.042,0.087 0.083,0.174 0.122,0.262l0.002,0.004c0.04,0.088 0.078,0.177 0.115,0.266l0.002,0.004c0.037,0.09 0.073,0.179 0.107,0.27l0.002,0.004c0.035,0.091 0.069,0.182 0.101,0.274l0.002,0.004c0.032,0.092 0.064,0.184 0.094,0.276l0.001,0.004c0.031,0.094 0.06,0.187 0.088,0.28l0.002,0.004c0.022,0.072 0.043,0.144 0.063,0.215l0.021,0.071c0.026,0.096 0.052,0.191 0.076,0.285l0.002,0.005c0.025,0.097 0.049,0.193 0.071,0.287l0.001,0.005c0.018,0.075 0.036,0.149 0.052,0.222l0.016,0.072c0.022,0.1 0.042,0.198 0.061,0.293l0.001,0.004c0.021,0.102 0.039,0.201 0.057,0.295l0.001,0.005c0.014,0.079 0.027,0.156 0.04,0.229l0.012,0.073c0.017,0.107 0.033,0.207 0.046,0.3l0.001,0.005c0.016,0.112 0.03,0.213 0.041,0.302l0,0.004c0.016,0.129 0.027,0.23 0.034,0.297l0.001,0.013c0.005,0.052 0.007,0.08 0.007,0.083l0,6.248l0.341,0.004l0,-6.264c-0.002,-0.024 -0.008,-0.104 -0.021,-0.231l-0.001,-0.008c-0.008,-0.082 -0.02,-0.184 -0.035,-0.302l0,-0.004c-0.012,-0.092 -0.026,-0.192 -0.042,-0.302l-0.001,-0.004c-0.013,-0.094 -0.029,-0.195 -0.047,-0.3l-0.012,-0.073c-0.012,-0.074 -0.026,-0.15 -0.04,-0.229l-0.001,-0.004c-0.018,-0.095 -0.037,-0.194 -0.057,-0.295l-0.001,-0.005c-0.02,-0.095 -0.04,-0.192 -0.063,-0.292l-0.016,-0.072c-0.016,-0.073 -0.034,-0.147 -0.052,-0.222l-0.001,-0.004c-0.023,-0.095 -0.047,-0.19 -0.073,-0.287l-0.001,-0.005c-0.024,-0.094 -0.05,-0.189 -0.078,-0.284l-0.02,-0.071c-0.021,-0.072 -0.042,-0.143 -0.064,-0.215l-0.002,-0.005c-0.028,-0.092 -0.058,-0.185 -0.089,-0.278l-0.001,-0.005c-0.031,-0.091 -0.063,-0.183 -0.096,-0.275l-0.001,-0.005c-0.033,-0.091 -0.067,-0.182 -0.102,-0.273l-0.001,-0.002c-0.035,-0.091 -0.072,-0.181 -0.11,-0.271l-0.001,-0.004c-0.038,-0.089 -0.076,-0.177 -0.116,-0.265l-0.002,-0.005c-0.04,-0.087 -0.081,-0.175 -0.123,-0.261l-0.002,-0.004c-0.043,-0.087 -0.087,-0.173 -0.133,-0.258l-0.001,-0.003c-0.046,-0.086 -0.093,-0.171 -0.142,-0.255l-0.002,-0.004c-0.049,-0.084 -0.099,-0.167 -0.151,-0.248l-0.001,-0.002c-0.053,-0.083 -0.108,-0.165 -0.164,-0.246l-0.001,-0.002c-0.057,-0.081 -0.115,-0.16 -0.175,-0.238l-0.001,-0.002c-0.061,-0.079 -0.124,-0.157 -0.189,-0.233l-0.002,-0.001c-0.066,-0.077 -0.134,-0.152 -0.204,-0.225l-0.001,-0.002c-0.072,-0.074 -0.146,-0.146 -0.222,-0.216l-0.002,-0.002c-0.078,-0.072 -0.159,-0.141 -0.242,-0.206l-0.002,-0.002c-0.081,-0.065 -0.166,-0.127 -0.252,-0.185c0.247,-0.02 0.492,-0.037 0.741,-0.052l0.005,0c0.247,-0.015 0.494,-0.027 0.742,-0.038l0.005,0c0.237,-0.01 0.475,-0.018 0.713,-0.024l0.001,0c0.011,0 0.022,-0.001 0.033,-0.001c0.059,0.073 0.116,0.148 0.172,0.224l0.002,0.002Z" style="fill:#3087bc;"/><path d="M26.729,54.226c-0.481,0.146 -1.073,0.326 -1.676,0.512l-0.057,0.017c-0.585,0.181 -1.177,0.365 -1.687,0.529c-0.033,0.01 -0.065,0.02 -0.097,0.028l-0.008,0.003c-0.167,0.044 -0.323,0.064 -0.469,0.064c-0.097,0 -0.189,-0.008 -0.276,-0.025l-0.007,-0.001c-0.14,-0.027 -0.27,-0.073 -0.388,-0.133l-0.005,-0.003c-0.102,-0.052 -0.196,-0.115 -0.282,-0.184l-0.004,-0.003c-0.082,-0.066 -0.156,-0.138 -0.224,-0.213l-0.004,-0.004c-0.067,-0.075 -0.129,-0.154 -0.184,-0.232l-0.006,-0.008c-0.056,-0.081 -0.107,-0.163 -0.151,-0.242l-0.005,-0.009c-0.05,-0.09 -0.093,-0.176 -0.127,-0.253l-0.003,-0.006c-0.052,-0.115 -0.086,-0.21 -0.106,-0.268l-0.002,-0.008c-0.012,-0.035 -0.018,-0.055 -0.018,-0.055c0,0 -0.021,-0.078 -0.06,-0.227l-0.016,-0.062c-0.017,-0.065 -0.037,-0.141 -0.06,-0.227l-0.017,-0.068c-0.018,-0.069 -0.038,-0.143 -0.059,-0.224l-0.009,-0.034c-0.021,-0.08 -0.043,-0.165 -0.067,-0.256l-0.018,-0.069c-0.019,-0.071 -0.038,-0.144 -0.058,-0.221l-0.009,-0.035c-0.022,-0.081 -0.044,-0.167 -0.067,-0.255l-0.019,-0.07c-0.019,-0.071 -0.038,-0.144 -0.057,-0.219l-0.009,-0.036c-0.022,-0.083 -0.045,-0.168 -0.067,-0.255l-0.038,-0.143c-0.013,-0.049 -0.026,-0.097 -0.039,-0.147l-0.037,-0.144c-0.013,-0.048 -0.026,-0.097 -0.039,-0.147l-0.019,-0.071c-0.018,-0.072 -0.038,-0.145 -0.057,-0.219l-0.019,-0.072c-0.019,-0.072 -0.038,-0.144 -0.057,-0.218l-0.01,-0.036c-0.022,-0.083 -0.044,-0.168 -0.066,-0.254l-0.019,-0.072c-0.019,-0.072 -0.038,-0.144 -0.057,-0.218l-0.019,-0.072c-0.019,-0.072 -0.038,-0.145 -0.057,-0.219l-0.019,-0.071c-0.019,-0.072 -0.038,-0.145 -0.058,-0.218l-0.009,-0.036c-0.022,-0.085 -0.044,-0.17 -0.067,-0.255l-0.009,-0.036c-0.022,-0.084 -0.045,-0.169 -0.067,-0.255l-0.019,-0.072c-0.019,-0.072 -0.038,-0.145 -0.057,-0.217l-0.019,-0.073c-0.019,-0.072 -0.038,-0.144 -0.057,-0.218l-0.01,-0.035c-0.022,-0.085 -0.044,-0.17 -0.067,-0.255l-0.018,-0.072c-0.019,-0.072 -0.039,-0.145 -0.058,-0.218l-0.038,-0.145c-0.012,-0.048 -0.025,-0.096 -0.038,-0.145l-0.009,-0.036c-0.022,-0.085 -0.045,-0.17 -0.067,-0.255l-0.019,-0.072c-0.019,-0.072 -0.038,-0.145 -0.057,-0.218l-0.019,-0.072c-0.019,-0.073 -0.038,-0.145 -0.057,-0.218l-0.019,-0.073c-0.019,-0.072 -0.038,-0.145 -0.058,-0.218l-0.018,-0.072c-0.019,-0.072 -0.038,-0.145 -0.058,-0.217l-0.009,-0.036c-0.022,-0.085 -0.044,-0.169 -0.067,-0.254l-0.019,-0.073c-0.019,-0.072 -0.038,-0.145 -0.057,-0.218l-0.009,-0.036c-0.022,-0.084 -0.045,-0.169 -0.067,-0.254l-0.019,-0.072c-0.019,-0.073 -0.038,-0.145 -0.057,-0.218l-0.019,-0.072c-0.019,-0.073 -0.038,-0.146 -0.057,-0.218l-0.01,-0.037c-0.022,-0.084 -0.044,-0.168 -0.066,-0.253l-0.019,-0.072c-0.019,-0.073 -0.039,-0.146 -0.058,-0.218l-0.009,-0.036c-0.022,-0.085 -0.045,-0.17 -0.067,-0.254l-0.019,-0.073c-0.019,-0.073 -0.038,-0.145 -0.057,-0.218l-0.019,-0.073c-0.019,-0.072 -0.038,-0.144 -0.057,-0.217l-0.01,-0.036c-0.022,-0.085 -0.044,-0.17 -0.066,-0.255l-0.01,-0.036c-0.022,-0.085 -0.044,-0.169 -0.067,-0.254l-0.019,-0.073c-0.019,-0.072 -0.038,-0.144 -0.057,-0.217l-0.019,-0.073c-0.019,-0.072 -0.038,-0.145 -0.057,-0.217l-0.009,-0.037c-0.023,-0.084 -0.045,-0.169 -0.067,-0.254l-0.019,-0.072c-0.019,-0.072 -0.038,-0.144 -0.057,-0.217l-0.01,-0.036c-0.022,-0.085 -0.044,-0.17 -0.066,-0.255l-0.019,-0.072c-0.019,-0.073 -0.038,-0.145 -0.058,-0.218l-0.019,-0.072c-0.019,-0.073 -0.038,-0.146 -0.057,-0.218l-0.009,-0.036c-0.022,-0.085 -0.045,-0.17 -0.067,-0.254l-0.019,-0.073c-0.019,-0.072 -0.038,-0.145 -0.057,-0.218l-0.01,-0.036c-0.022,-0.084 -0.044,-0.169 -0.066,-0.253l-0.01,-0.036c-0.022,-0.085 -0.044,-0.17 -0.066,-0.254l-0.01,-0.037c-0.022,-0.084 -0.044,-0.169 -0.066,-0.254l-0.02,-0.072c-0.019,-0.073 -0.038,-0.146 -0.057,-0.218l-0.019,-0.073c-0.019,-0.072 -0.038,-0.145 -0.057,-0.217l-0.01,-0.037c-0.022,-0.085 -0.044,-0.169 -0.066,-0.254l-0.01,-0.036c-0.022,-0.085 -0.044,-0.17 -0.066,-0.254l-0.01,-0.036c-0.022,-0.085 -0.045,-0.17 -0.067,-0.254l-0.019,-0.073c-0.019,-0.073 -0.038,-0.145 -0.057,-0.217l-0.019,-0.073c-0.019,-0.073 -0.038,-0.146 -0.057,-0.218l-0.019,-0.073c-0.019,-0.072 -0.038,-0.145 -0.057,-0.217l-0.038,-0.145c-0.013,-0.048 -0.026,-0.097 -0.038,-0.144l-0.019,-0.073c-0.019,-0.073 -0.038,-0.145 -0.057,-0.218l-0.02,-0.073c-0.019,-0.072 -0.038,-0.144 -0.057,-0.217l-0.009,-0.036c-0.023,-0.085 -0.045,-0.171 -0.067,-0.254l-0.019,-0.073c-0.019,-0.073 -0.038,-0.145 -0.057,-0.218l-0.019,-0.073c-0.019,-0.072 -0.039,-0.145 -0.057,-0.217l-0.002,-0.007c-0.004,-0.016 -0.009,-0.032 -0.013,-0.048c0.156,-0.164 0.316,-0.331 0.476,-0.498l0.038,-0.039c0.187,-0.194 0.378,-0.39 0.572,-0.587l0.039,-0.04c0.195,-0.198 0.393,-0.397 0.594,-0.598l0.041,-0.04c0.203,-0.202 0.411,-0.407 0.62,-0.611l0.022,-0.021c0.22,-0.215 0.442,-0.429 0.67,-0.646l0.022,-0.021c0.23,-0.219 0.465,-0.441 0.703,-0.662l0.023,-0.021c0.243,-0.226 0.49,-0.453 0.74,-0.68l0.025,-0.023c0.258,-0.234 0.518,-0.466 0.783,-0.701l0.022,-0.019c0.229,-0.202 0.463,-0.407 0.698,-0.609c0.016,0.06 0.032,0.121 0.049,0.182l0.017,0.061c0.022,0.084 0.045,0.168 0.068,0.253l0.01,0.037c0.019,0.071 0.039,0.143 0.059,0.216l0.019,0.073c0.02,0.071 0.039,0.143 0.059,0.216l0.02,0.073c0.019,0.072 0.039,0.144 0.058,0.216l0.02,0.073c0.023,0.084 0.046,0.168 0.069,0.253l0.01,0.037c0.012,0.047 0.025,0.095 0.038,0.143l0.04,0.146c0.019,0.072 0.039,0.144 0.058,0.216l0.02,0.073c0.023,0.083 0.046,0.168 0.068,0.252l0.01,0.036c0.023,0.084 0.046,0.168 0.069,0.253l0.01,0.037c0.019,0.071 0.039,0.144 0.058,0.216l0.02,0.073c0.023,0.084 0.045,0.168 0.068,0.253l0.01,0.036c0.02,0.072 0.039,0.144 0.059,0.217l0.02,0.073c0.019,0.072 0.039,0.144 0.058,0.216l0.02,0.073c0.019,0.072 0.039,0.144 0.058,0.216l0.02,0.072c0.023,0.084 0.045,0.168 0.068,0.253l0.01,0.036c0.023,0.084 0.046,0.169 0.069,0.253l0.01,0.037c0.022,0.084 0.045,0.168 0.068,0.253l0.01,0.036c0.019,0.072 0.039,0.144 0.059,0.217l0.019,0.072c0.023,0.084 0.046,0.168 0.069,0.253l0.009,0.036c0.023,0.085 0.046,0.169 0.069,0.253l0.01,0.037c0.019,0.072 0.039,0.144 0.058,0.217l0.02,0.072c0.02,0.072 0.039,0.144 0.059,0.217l0.019,0.072c0.02,0.072 0.039,0.145 0.059,0.217l0.02,0.073c0.022,0.084 0.045,0.168 0.068,0.253l0.01,0.036c0.023,0.084 0.045,0.168 0.068,0.252l0.01,0.037c0.02,0.072 0.039,0.144 0.059,0.216l0.019,0.073c0.023,0.084 0.046,0.168 0.069,0.253l0.009,0.036c0.02,0.072 0.04,0.144 0.059,0.217l0.02,0.072c0.019,0.072 0.039,0.145 0.058,0.217l0.02,0.073c0.023,0.084 0.046,0.168 0.068,0.253l0.01,0.036c0.023,0.084 0.046,0.168 0.068,0.252l0.01,0.036c0.023,0.085 0.046,0.169 0.069,0.254l0.009,0.036c0.02,0.072 0.04,0.144 0.059,0.217l0.02,0.072c0.023,0.084 0.045,0.169 0.068,0.253l0.01,0.036c0.006,0.024 0.013,0.048 0.019,0.072l0.04,0.145c0.003,0.012 0.006,0.024 0.009,0.036l0.01,0.036c0.023,0.085 0.046,0.169 0.069,0.254l0.009,0.036c0.02,0.072 0.039,0.144 0.059,0.217l0.02,0.072c0.019,0.072 0.039,0.145 0.058,0.217l0.02,0.073c0.023,0.084 0.045,0.168 0.068,0.253l0.01,0.036c0.02,0.072 0.039,0.145 0.059,0.217l0.019,0.072c0.023,0.085 0.046,0.169 0.068,0.253l0.01,0.036c0.013,0.048 0.026,0.096 0.039,0.145l0.039,0.144c0.02,0.073 0.039,0.145 0.059,0.217l0.019,0.073c0.02,0.072 0.039,0.144 0.059,0.216l0.019,0.073c0.023,0.084 0.046,0.169 0.069,0.253l0.01,0.036c0.022,0.085 0.045,0.169 0.068,0.253l0.01,0.036c0.019,0.072 0.039,0.145 0.058,0.217l0.02,0.072c0.019,0.072 0.039,0.145 0.058,0.217l0.02,0.072c0.023,0.085 0.045,0.17 0.068,0.254l0.01,0.036c0.02,0.073 0.039,0.145 0.059,0.217l0.019,0.072c0.019,0.072 0.039,0.145 0.059,0.217l0.019,0.072c0.023,0.085 0.046,0.169 0.068,0.254l0.01,0.036c0.023,0.085 0.046,0.169 0.068,0.253l0.01,0.036c0.023,0.085 0.046,0.169 0.068,0.253l0.01,0.036c0.023,0.085 0.046,0.169 0.068,0.253l0.01,0.036c0.02,0.073 0.039,0.146 0.059,0.218l0.019,0.072c0.013,0.048 0.026,0.096 0.039,0.145l0.039,0.144c0.023,0.085 0.046,0.17 0.068,0.254l0.01,0.036c0.02,0.073 0.039,0.145 0.059,0.217l0.019,0.072c0.023,0.085 0.046,0.17 0.068,0.254l0.01,0.036c0.023,0.085 0.046,0.169 0.068,0.253l0.01,0.036c0.019,0.072 0.039,0.145 0.058,0.217l0.02,0.072c0.019,0.073 0.039,0.145 0.058,0.217l0.019,0.072c0.023,0.085 0.046,0.17 0.069,0.254l0.009,0.035c0.023,0.086 0.046,0.171 0.069,0.255l0.009,0.035c0.02,0.074 0.039,0.146 0.059,0.218l0.019,0.072c0.02,0.073 0.039,0.146 0.059,0.218l0.019,0.072c0.013,0.049 0.026,0.097 0.039,0.145l0.038,0.144c0.02,0.073 0.04,0.146 0.059,0.217l0.019,0.072c0.02,0.073 0.039,0.146 0.058,0.218l0.019,0.071c0.02,0.074 0.04,0.147 0.059,0.218l0.019,0.072c0.02,0.074 0.039,0.147 0.059,0.219l0.019,0.071c0.013,0.049 0.026,0.098 0.039,0.147l0.038,0.142c0.02,0.075 0.039,0.148 0.059,0.219l0.018,0.071c0.014,0.05 0.027,0.1 0.04,0.148l0.038,0.142c0.02,0.076 0.039,0.149 0.058,0.22l0.019,0.069c0.02,0.077 0.04,0.151 0.058,0.221l0.018,0.069c0.025,0.092 0.047,0.177 0.068,0.256l0.009,0.034c0.022,0.083 0.041,0.159 0.059,0.226l0.017,0.065c0.03,0.116 0.052,0.203 0.065,0.258c0.003,0.009 0.005,0.019 0.007,0.029l0.001,0.004c0.024,0.103 0.043,0.2 0.056,0.292l0.001,0.008c0.016,0.114 0.024,0.219 0.025,0.315l0,0.006c0.001,0.124 -0.008,0.235 -0.025,0.334l-0.002,0.007c-0.028,0.157 -0.076,0.283 -0.132,0.385l-0.002,0.004c-0.166,0.299 -0.401,0.383 -0.401,0.383c0,0 -0.405,0.121 -1.004,0.302l-0.094,0.029l0,0Z" style="fill:#367ba6;"/><path d="M32.678,55.915c-0.007,-0.026 -0.014,-0.053 -0.022,-0.079l-0.003,-0.013c-0.018,-0.066 -0.036,-0.13 -0.054,-0.197l-0.01,-0.036c-0.023,-0.083 -0.046,-0.168 -0.069,-0.252l-0.01,-0.036c-0.023,-0.084 -0.046,-0.169 -0.069,-0.253l-0.01,-0.036c-0.023,-0.084 -0.046,-0.169 -0.069,-0.253l-0.01,-0.036c-0.023,-0.084 -0.046,-0.168 -0.069,-0.252l-0.01,-0.037c-0.023,-0.084 -0.046,-0.168 -0.069,-0.253l-0.01,-0.036c-0.023,-0.084 -0.045,-0.168 -0.069,-0.252l-0.009,-0.036c-0.023,-0.085 -0.046,-0.169 -0.07,-0.253l-0.009,-0.036c-0.023,-0.084 -0.046,-0.169 -0.069,-0.253l-0.01,-0.036c-0.023,-0.084 -0.046,-0.169 -0.069,-0.253l-0.01,-0.036c-0.023,-0.085 -0.046,-0.168 -0.069,-0.253l-0.01,-0.036c-0.023,-0.084 -0.046,-0.169 -0.069,-0.253l-0.01,-0.037c-0.023,-0.084 -0.046,-0.168 -0.068,-0.253l-0.01,-0.036c-0.023,-0.084 -0.046,-0.169 -0.069,-0.253l-0.01,-0.036c-0.023,-0.084 -0.046,-0.169 -0.069,-0.253l-0.01,-0.036c-0.023,-0.084 -0.045,-0.168 -0.068,-0.252l-0.01,-0.036c-0.023,-0.085 -0.046,-0.169 -0.069,-0.253l-0.02,-0.072c-0.019,-0.073 -0.039,-0.145 -0.059,-0.217l-0.01,-0.036c-0.023,-0.085 -0.045,-0.169 -0.068,-0.253l-0.04,-0.145c-0.013,-0.048 -0.026,-0.097 -0.039,-0.145l-0.02,-0.072c-0.019,-0.073 -0.039,-0.144 -0.058,-0.217l-0.01,-0.036c-0.023,-0.084 -0.046,-0.169 -0.069,-0.252l-0.02,-0.073c-0.019,-0.072 -0.039,-0.144 -0.058,-0.216l-0.02,-0.073c-0.02,-0.072 -0.039,-0.144 -0.059,-0.216l-0.01,-0.036c-0.023,-0.085 -0.046,-0.17 -0.068,-0.253l-0.02,-0.073c-0.02,-0.072 -0.039,-0.145 -0.059,-0.216l-0.01,-0.037c-0.023,-0.085 -0.046,-0.169 -0.068,-0.253l-0.005,-0.018c-0.025,-0.091 -0.049,-0.182 -0.074,-0.271l-0.01,-0.037c-0.023,-0.085 -0.046,-0.169 -0.068,-0.252l-0.01,-0.037c-0.023,-0.085 -0.046,-0.169 -0.069,-0.252l-0.009,-0.036c-0.023,-0.085 -0.046,-0.169 -0.069,-0.252l-0.01,-0.037c-0.023,-0.085 -0.046,-0.17 -0.068,-0.253l-0.01,-0.037c-0.023,-0.085 -0.046,-0.169 -0.068,-0.252l-0.01,-0.037c-0.024,-0.085 -0.047,-0.17 -0.069,-0.253l-0.005,-0.018c-0.025,-0.092 -0.049,-0.183 -0.073,-0.271l-0.01,-0.037c-0.024,-0.086 -0.046,-0.17 -0.069,-0.252l-0.01,-0.037c-0.023,-0.086 -0.046,-0.17 -0.068,-0.252l-0.01,-0.037c-0.023,-0.086 -0.046,-0.17 -0.068,-0.251l-0.02,-0.075c-0.02,-0.074 -0.04,-0.146 -0.058,-0.215l-0.011,-0.038c-0.023,-0.087 -0.046,-0.171 -0.068,-0.251l-0.01,-0.038c-0.024,-0.088 -0.046,-0.172 -0.068,-0.252l-0.021,-0.076c-0.02,-0.076 -0.039,-0.147 -0.057,-0.213l-0.011,-0.04c-0.025,-0.093 -0.048,-0.176 -0.067,-0.249l-0.007,-0.024c-0.031,-0.115 -0.055,-0.204 -0.071,-0.265l-0.006,-0.022c-0.013,-0.048 -0.02,-0.072 -0.02,-0.072l0.255,-0.346l0.379,-0.513l0.378,-0.513l0.377,-0.512l0.379,-0.513l0.32,-0.435c0,0 0.179,0.023 0.466,0.042l0.014,0.001c0.172,0.01 0.381,0.019 0.613,0.021l0.011,0c0.024,0.001 0.048,0.001 0.072,0.001c0.2,0 0.415,-0.006 0.637,-0.021l0.014,-0.001c0.294,-0.02 0.6,-0.056 0.896,-0.117l0.008,-0.002c0.04,-0.008 0.081,-0.017 0.121,-0.026c0.083,-0.019 0.164,-0.028 0.244,-0.028c0.107,0 0.21,0.016 0.309,0.046l0.005,0.001c0.119,0.036 0.231,0.09 0.336,0.157l0.005,0.003c0.091,0.058 0.176,0.125 0.255,0.198l0.004,0.003c0.076,0.069 0.147,0.143 0.212,0.219l0.003,0.003c0.066,0.076 0.126,0.154 0.181,0.229l0.005,0.008c0.061,0.084 0.114,0.166 0.159,0.24l0.005,0.008c0.063,0.103 0.11,0.191 0.14,0.251l0.003,0.005c0.025,0.049 0.038,0.078 0.038,0.078l0.056,0.205l0.078,0.288l0.079,0.289l0.079,0.289l0.079,0.289l0.078,0.289l0.079,0.289l0.079,0.289l0.079,0.288l0.078,0.289l0.079,0.289l0.079,0.289l0.079,0.29l0.079,0.288l0.079,0.29l0.078,0.288l0.079,0.289l0.078,0.288l0.079,0.289l0.079,0.29l0.079,0.289l0.079,0.289l0.079,0.289l0.078,0.288l0.079,0.289l0.079,0.289l0.079,0.289l0.078,0.289l0.079,0.289l0.079,0.29l0.079,0.288l0.079,0.289l0.078,0.289l0.079,0.289l0.079,0.289l0.079,0.289l0.078,0.289l0.079,0.289l0.079,0.289l0.078,0.288l0.079,0.289l0.079,0.289l0.079,0.289l0.079,0.289l0.079,0.289l0.078,0.289l0.079,0.289l0.079,0.289l0.079,0.289l0.078,0.289l0.079,0.289l0.046,0.167c-0.146,0.009 -0.292,0.017 -0.439,0.025l-0.094,0.006c-0.219,0.012 -0.44,0.025 -0.662,0.037l-0.377,0.022c-0.126,0.007 -0.253,0.014 -0.38,0.022l-0.376,0.021c-0.126,0.007 -0.253,0.014 -0.379,0.022l-0.378,0.021c-0.126,0.007 -0.253,0.014 -0.379,0.021l-0.146,0.009c-0.048,0.002 -0.097,0.005 -0.145,0.008l0.033,0.109l0.069,0.226c0.053,-0.003 0.105,-0.006 0.158,-0.009l0.378,-0.021c0.126,-0.007 0.252,-0.014 0.377,-0.021l0.379,-0.022c0.126,-0.007 0.252,-0.014 0.377,-0.021l0.19,-0.011c0.19,-0.011 0.379,-0.022 0.566,-0.032l0.191,-0.011c0.189,-0.011 0.378,-0.022 0.566,-0.032l0.19,-0.011c0.191,-0.011 0.379,-0.022 0.567,-0.032l0.38,-0.022c0.126,-0.007 0.252,-0.015 0.376,-0.022l0.191,-0.011c0.191,-0.011 0.38,-0.021 0.567,-0.032l0.381,-0.022c0.127,-0.007 0.252,-0.014 0.376,-0.022l0.381,-0.022c0.126,-0.007 0.251,-0.014 0.375,-0.021l0.383,-0.022c0.127,-0.008 0.252,-0.015 0.375,-0.022l0.097,-0.005c0.226,-0.014 0.447,-0.026 0.661,-0.039l0.195,-0.011c0.193,-0.011 0.381,-0.022 0.564,-0.033l0.099,-0.006c0.228,-0.013 0.448,-0.026 0.66,-0.038l0.1,-0.006c0.231,-0.014 0.451,-0.027 0.66,-0.039l0.063,-0.003c0.021,-0.002 0.042,-0.003 0.063,-0.004c-0.019,0.101 -0.038,0.201 -0.057,0.301l-0.017,0.091c-0.018,0.091 -0.034,0.181 -0.051,0.27l-0.009,0.046c-0.02,0.106 -0.04,0.211 -0.06,0.315l-0.006,0.031c-0.014,0.074 -0.027,0.146 -0.041,0.219c-0.17,0.01 -0.346,0.02 -0.526,0.031l-0.092,0.005c-0.215,0.013 -0.437,0.025 -0.666,0.039l-0.046,0.002c-0.231,0.014 -0.469,0.028 -0.712,0.042l-0.186,0.011c-0.188,0.01 -0.379,0.021 -0.572,0.032l-0.187,0.011c-0.188,0.011 -0.378,0.022 -0.571,0.033l-0.187,0.011c-0.188,0.011 -0.378,0.022 -0.571,0.033l-0.376,0.021c-0.126,0.008 -0.253,0.015 -0.381,0.022l-0.188,0.011c-0.188,0.011 -0.378,0.022 -0.57,0.033l-0.376,0.021c-0.126,0.007 -0.253,0.015 -0.381,0.022l-0.093,0.005c-0.219,0.013 -0.44,0.025 -0.663,0.038l-0.187,0.011c-0.188,0.01 -0.378,0.021 -0.568,0.032l-0.189,0.011c-0.189,0.011 -0.378,0.021 -0.569,0.032l-0.188,0.011c-0.188,0.011 -0.377,0.021 -0.567,0.032l-0.188,0.011c-0.189,0.011 -0.379,0.021 -0.569,0.032l-0.188,0.011c-0.189,0.01 -0.378,0.021 -0.568,0.032l-0.188,0.011c-0.188,0.01 -0.377,0.021 -0.567,0.032l-0.377,0.021c-0.126,0.007 -0.252,0.014 -0.379,0.021l-0.377,0.022c-0.126,0.007 -0.252,0.014 -0.377,0.021l-0.324,0.018c-0.015,-0.055 -0.03,-0.11 -0.045,-0.165l-0.01,-0.036c-0.023,-0.083 -0.047,-0.168 -0.07,-0.253l-0.01,-0.036c-0.023,-0.083 -0.046,-0.167 -0.069,-0.252l-0.002,-0.008c-0.005,-0.018 -0.01,-0.035 -0.015,-0.053l-0.008,-0.029c-0.018,-0.065 -0.036,-0.133 -0.055,-0.199l-0.005,-0.018c-0.024,-0.09 -0.049,-0.18 -0.074,-0.271l-0.04,-0.144c-0.013,-0.048 -0.026,-0.096 -0.039,-0.145l-0.01,-0.036c-0.023,-0.084 -0.046,-0.167 -0.07,-0.252l-0.01,-0.036c-0.023,-0.084 -0.046,-0.169 -0.069,-0.253l-0.01,-0.036c-0.023,-0.084 -0.046,-0.168 -0.069,-0.253l0,0Zm0.408,-2.167c-0.056,-0.039 -0.124,-0.063 -0.198,-0.063c-0.183,0 -0.333,0.145 -0.34,0.327l0,0.002c-0.001,0.004 -0.001,0.008 -0.001,0.012c0,0.103 0.045,0.194 0.116,0.257l0.002,0.002c0.06,0.051 0.138,0.083 0.223,0.083c0.189,0 0.342,-0.153 0.342,-0.342c0,-0.006 0,-0.012 -0.001,-0.018l0,-0.003c-0.006,-0.105 -0.06,-0.197 -0.141,-0.256l-0.002,-0.001l0,0Zm16.26,-8.291c-0.017,0.09 -0.034,0.18 -0.05,0.27l-0.017,0.09c-0.011,0.06 -0.023,0.12 -0.034,0.18l-0.033,0.181c-0.017,0.09 -0.034,0.18 -0.051,0.27l-0.016,0.09c-0.02,0.105 -0.039,0.21 -0.059,0.315l-0.008,0.045c-0.017,0.091 -0.034,0.18 -0.05,0.27l-0.017,0.091c-0.011,0.06 -0.023,0.12 -0.034,0.18l-0.033,0.18c-0.012,0.06 -0.023,0.12 -0.034,0.18l-0.034,0.181c-0.011,0.06 -0.022,0.119 -0.033,0.179l-0.034,0.18c-0.011,0.06 -0.022,0.12 -0.033,0.18l-0.034,0.181c-0.011,0.06 -0.022,0.12 -0.033,0.18l-0.034,0.18l-0.067,0.361l-0.067,0.361c-0.012,0.06 -0.023,0.12 -0.034,0.18l-0.034,0.18l-0.067,0.361c-0.011,0.06 -0.022,0.12 -0.034,0.18l-0.033,0.18c-0.017,0.091 -0.034,0.181 -0.051,0.271l-0.017,0.09c-0.011,0.06 -0.022,0.12 -0.033,0.181l-0.034,0.18c-0.017,0.09 -0.034,0.18 -0.051,0.27l-0.016,0.09c-0.02,0.106 -0.04,0.21 -0.06,0.315l-0.008,0.045c-0.022,0.121 -0.045,0.241 -0.067,0.361l-0.034,0.18c-0.011,0.061 -0.023,0.121 -0.034,0.181l-0.017,0.09c-0.017,0.09 -0.034,0.18 -0.05,0.27l-0.034,0.181c-0.012,0.06 -0.023,0.12 -0.034,0.18l-0.034,0.181c-0.011,0.06 -0.023,0.12 -0.034,0.18l-0.034,0.18c-0.011,0.06 -0.022,0.12 -0.033,0.179l-0.017,0.091c-0.017,0.091 -0.034,0.181 -0.051,0.27l-0.017,0.091c-0.017,0.09 -0.034,0.181 -0.051,0.27l-0.017,0.091c-0.017,0.091 -0.034,0.18 -0.051,0.27l-0.009,0.046c-0.02,0.106 -0.039,0.211 -0.059,0.315l-0.007,0.038c-0.002,0.012 -0.005,0.025 -0.007,0.038c-0.052,0.003 -0.105,0.006 -0.159,0.009l-0.182,0.011c-0.184,0.01 -0.377,0.022 -0.578,0.034l-0.183,0.01c-0.186,0.011 -0.378,0.022 -0.576,0.034l-0.373,0.022c-0.126,0.007 -0.255,0.015 -0.386,0.022l-0.185,0.011c-0.187,0.011 -0.379,0.022 -0.573,0.033l-0.186,0.011c-0.187,0.01 -0.377,0.021 -0.571,0.033l-0.375,0.021c-0.126,0.007 -0.253,0.015 -0.382,0.022l-0.093,0.006c-0.218,0.012 -0.441,0.025 -0.665,0.038l-0.376,0.021c-0.126,0.007 -0.252,0.015 -0.381,0.022l-0.187,0.011c-0.188,0.011 -0.378,0.021 -0.57,0.032l-0.051,0.003c-0.052,0.003 -0.103,0.006 -0.155,0.009c0.012,-0.072 0.028,-0.16 0.046,-0.261l0.004,-0.02c0.018,-0.1 0.038,-0.213 0.061,-0.338l0.015,-0.085c0.015,-0.086 0.032,-0.178 0.049,-0.275l0.016,-0.086c0.015,-0.087 0.032,-0.178 0.049,-0.273l0.015,-0.087c0.016,-0.088 0.032,-0.179 0.049,-0.272l0.065,-0.359l0.015,-0.088c0.016,-0.088 0.033,-0.179 0.049,-0.271l0.016,-0.089c0.016,-0.088 0.032,-0.179 0.049,-0.271l0.016,-0.088c0.016,-0.089 0.032,-0.179 0.049,-0.271l0.064,-0.359l0.016,-0.089c0.016,-0.089 0.032,-0.18 0.049,-0.271l0.032,-0.178c0.011,-0.06 0.022,-0.12 0.033,-0.181l0.064,-0.359l0.032,-0.178c0.011,-0.06 0.022,-0.12 0.033,-0.181l0.016,-0.089c0.016,-0.09 0.032,-0.18 0.049,-0.27l0.016,-0.09c0.016,-0.089 0.032,-0.179 0.048,-0.269l0.009,-0.045c0.018,-0.104 0.037,-0.209 0.056,-0.315l0.033,-0.179c0.01,-0.059 0.021,-0.119 0.032,-0.179l0.033,-0.18c0.01,-0.06 0.021,-0.12 0.032,-0.181l0.065,-0.358l0.032,-0.18c0.011,-0.06 0.022,-0.12 0.033,-0.18l0.008,-0.045c0.019,-0.104 0.038,-0.208 0.057,-0.314l0.008,-0.045c0.019,-0.104 0.038,-0.209 0.057,-0.314l0.008,-0.045c0.019,-0.105 0.038,-0.21 0.057,-0.315l0.008,-0.045c0.019,-0.105 0.038,-0.209 0.057,-0.315l0.016,-0.09c0.017,-0.089 0.033,-0.18 0.049,-0.27l0.008,-0.044c0.019,-0.105 0.038,-0.211 0.058,-0.315l0.008,-0.045c0.019,-0.105 0.038,-0.21 0.057,-0.315l0.016,-0.089c0.016,-0.09 0.032,-0.179 0.049,-0.269l0.032,-0.18c0.011,-0.06 0.022,-0.12 0.033,-0.179l0.016,-0.09c0.017,-0.091 0.033,-0.181 0.049,-0.271l0.009,-0.045c0.019,-0.105 0.038,-0.209 0.057,-0.314l0.032,-0.18c0.011,-0.06 0.022,-0.12 0.033,-0.18l0.017,-0.09c0.016,-0.09 0.032,-0.18 0.049,-0.27l0.008,-0.045c0.019,-0.104 0.038,-0.209 0.057,-0.313l0.016,-0.09c0.017,-0.091 0.033,-0.18 0.05,-0.27l0.008,-0.045c0.019,-0.105 0.038,-0.21 0.057,-0.315l0.009,-0.045c0.019,-0.105 0.038,-0.21 0.057,-0.315l0.008,-0.045c0.02,-0.105 0.039,-0.21 0.058,-0.314l0.008,-0.046c0.019,-0.105 0.039,-0.21 0.058,-0.315l0.008,-0.045c0.019,-0.105 0.039,-0.21 0.058,-0.315l0.008,-0.045c0.019,-0.106 0.039,-0.21 0.058,-0.314l0.008,-0.046c0.02,-0.105 0.039,-0.21 0.058,-0.314l0.017,-0.091c0.016,-0.09 0.033,-0.18 0.049,-0.268l0.008,-0.046c0.02,-0.106 0.039,-0.211 0.058,-0.315l0.017,-0.091c0.017,-0.09 0.034,-0.18 0.05,-0.269l0.008,-0.046c0.02,-0.106 0.04,-0.211 0.059,-0.314l0.017,-0.092c0.017,-0.091 0.033,-0.18 0.05,-0.269l0.008,-0.046c0.02,-0.106 0.04,-0.211 0.059,-0.314l0.008,-0.046c0.02,-0.107 0.04,-0.212 0.059,-0.315l0.017,-0.091c0.017,-0.092 0.034,-0.181 0.05,-0.268l0.005,-0.024c0.022,-0.116 0.043,-0.228 0.064,-0.338l0.008,-0.046c0.021,-0.109 0.041,-0.213 0.06,-0.315l0.009,-0.047c0.021,-0.109 0.041,-0.214 0.06,-0.314l0.018,-0.096c0.018,-0.093 0.036,-0.182 0.052,-0.266l0.01,-0.05c0.022,-0.114 0.043,-0.218 0.061,-0.313l0.006,-0.027c0.027,-0.134 0.05,-0.247 0.069,-0.337l0.002,-0.007c0.003,-0.018 0.007,-0.034 0.01,-0.05c0.025,-0.111 0.051,-0.216 0.08,-0.315l0.002,-0.007c0.04,-0.141 0.084,-0.269 0.13,-0.386l0.003,-0.008c0.065,-0.161 0.135,-0.301 0.208,-0.423l0.002,-0.003c0.178,-0.297 0.374,-0.481 0.555,-0.596l0.004,-0.003c0.089,-0.057 0.175,-0.096 0.253,-0.123l0.004,-0.002c0.144,-0.05 0.262,-0.059 0.326,-0.059c0.034,0 0.053,0.003 0.053,0.003c0,0 0.162,-0.008 0.433,-0.015l0.018,-0.001c0.183,-0.005 0.415,-0.01 0.68,-0.014l0.017,0c0.179,-0.002 0.371,-0.004 0.573,-0.004c0.026,0 0.051,0 0.076,0l0.011,0c0.204,0.001 0.417,0.003 0.634,0.007l0.021,0c0.201,0.004 0.406,0.009 0.612,0.018l0.019,0c0.197,0.008 0.393,0.018 0.587,0.03l0.018,0.001c0.066,0.005 0.13,0.009 0.195,0.014c0.121,0.009 0.233,0.026 0.337,0.05l0.005,0.001c0.142,0.034 0.269,0.08 0.382,0.136l0.005,0.003c0.106,0.053 0.2,0.115 0.283,0.183l0.004,0.004c0.081,0.067 0.151,0.141 0.213,0.218l0.003,0.003c0.062,0.079 0.114,0.161 0.159,0.244l0.002,0.004c0.047,0.088 0.086,0.177 0.117,0.266l0.001,0.004c0.034,0.098 0.06,0.194 0.079,0.284l0.001,0.004c0.023,0.112 0.036,0.215 0.043,0.302l0.001,0.004c0.012,0.159 0.006,0.261 0.006,0.261c0,0 -0.004,0.019 -0.01,0.054l-0.003,0.016c-0.01,0.053 -0.025,0.135 -0.045,0.243l-0.022,0.118c-0.016,0.09 -0.036,0.193 -0.057,0.31l-0.009,0.05c-0.016,0.082 -0.032,0.17 -0.049,0.264l-0.018,0.095c-0.018,0.099 -0.037,0.203 -0.058,0.313l-0.008,0.047c-0.019,0.101 -0.038,0.205 -0.058,0.314l-0.009,0.047c-0.016,0.086 -0.032,0.176 -0.049,0.267l-0.018,0.093c-0.02,0.109 -0.04,0.222 -0.062,0.337l-0.004,0.023c-0.019,0.103 -0.039,0.207 -0.058,0.315l-0.009,0.046c-0.019,0.102 -0.038,0.207 -0.058,0.314l-0.009,0.046c-0.016,0.088 -0.033,0.178 -0.049,0.269l-0.017,0.091c-0.017,0.089 -0.033,0.179 -0.05,0.269l-0.017,0.092c-0.016,0.088 -0.033,0.177 -0.05,0.268l-0.017,0.091c-0.019,0.103 -0.038,0.208 -0.058,0.314l-0.008,0.046c-0.019,0.103 -0.039,0.209 -0.059,0.315l-0.008,0.046c-0.019,0.103 -0.039,0.208 -0.058,0.314l-0.009,0.046c-0.021,0.111 -0.041,0.224 -0.063,0.338l-0.004,0.022c-0.019,0.105 -0.038,0.209 -0.058,0.315l-0.009,0.046c-0.019,0.103 -0.038,0.208 -0.058,0.314l-0.008,0.045c-0.017,0.089 -0.033,0.179 -0.05,0.269l-0.017,0.091c-0.016,0.09 -0.033,0.18 -0.05,0.27l-0.017,0.091c-0.02,0.111 -0.042,0.224 -0.062,0.338l-0.005,0.022c-0.021,0.113 -0.041,0.225 -0.062,0.338l-0.005,0.023c-0.019,0.104 -0.038,0.209 -0.058,0.315l-0.008,0.045c-0.02,0.105 -0.04,0.21 -0.059,0.315l-0.008,0.046c-0.02,0.104 -0.039,0.209 -0.059,0.315l-0.008,0.045c-0.011,0.06 -0.023,0.12 -0.034,0.18l-0.033,0.18l0,0Z" style="fill:#2273a1;"/><path d="M32.482,41.163c2.048,7.58 5.111,18.829 5.326,19.381c0.153,0.378 1.652,2.434 4.611,2.434l0.001,0c0.313,0 0.638,-0.023 0.964,-0.07c3.462,-0.494 4.759,-1.915 4.98,-2.676c0.206,-0.714 3.636,-19.204 4.949,-26.316c0.009,-0.269 -0.029,-1.317 -1.17,-1.402c-0.606,-0.045 -1.324,-0.068 -2.134,-0.068c-0.953,0 -1.691,0.032 -1.698,0.033l-0.046,0.002l-0.044,-0.006c-0.062,0.002 -0.73,0.045 -1.054,1.524c-0.447,2.042 -3.756,20.51 -3.79,20.697l-0.997,0.044l-4.094,-15.018c-0.169,-0.349 -0.719,-1.234 -1.307,-1.1c-0.516,0.119 -1.118,0.18 -1.79,0.18c-0.384,0 -0.714,-0.02 -0.938,-0.039l-1.769,2.4l0,0Zm9.938,22.838l-0.001,0c-3.55,0 -5.314,-2.464 -5.56,-3.074c-0.288,-0.712 -4.903,-17.791 -5.429,-19.736l-0.064,-0.238l2.413,-3.272l0.298,0.037c0.005,0.001 0.483,0.061 1.112,0.061c0.595,0 1.119,-0.051 1.56,-0.153c0.118,-0.028 0.239,-0.042 0.359,-0.042c1.3,0 2.045,1.571 2.126,1.75l0.027,0.076l3.51,12.873c0.904,-5.03 3.035,-16.852 3.397,-18.503c0.505,-2.302 1.853,-2.338 2.129,-2.325c0.155,-0.006 0.839,-0.032 1.712,-0.032c0.835,0 1.579,0.024 2.21,0.071c1.793,0.134 2.166,1.704 2.114,2.515l-0.008,0.059c-0.193,1.043 -4.718,25.554 -4.978,26.449c-0.359,1.238 -2.099,2.873 -5.818,3.404c-0.374,0.054 -0.747,0.08 -1.109,0.08l0,0Z" style="fill:#0b0b16;fill-rule:nonzero;"/><path d="M31.924,41.058c0,0 5.125,18.974 5.409,19.678c0.285,0.704 2.344,3.219 6.124,2.679c3.779,-0.54 5.143,-2.16 5.399,-3.041c0.256,-0.881 4.966,-26.399 4.966,-26.399c0,0 0.12,-1.84 -1.641,-1.971c-1.763,-0.132 -3.894,-0.036 -3.894,-0.036c0,0 -1.165,-0.153 -1.62,1.922c-0.454,2.074 -3.793,20.716 -3.793,20.716l-4.106,-15.061c0,0 -0.76,-1.686 -1.904,-1.421c-1.304,0.302 -2.852,0.102 -2.852,0.102l-2.088,2.832l0,0Z" style="fill:#fff;fill-rule:nonzero;"/><path d="M15.436,24.354c0.775,0 1.353,0.429 1.547,1.149c0.254,0.942 6.776,25.802 6.842,26.053c0,0 0.382,1.266 1.297,1.266c0.13,0 0.271,-0.024 0.418,-0.072c1.64,-0.525 4.169,-1.283 4.493,-1.381c0.15,-0.084 0.339,-0.416 0.156,-1.167c-0.352,-1.448 -7.107,-26.356 -7.174,-26.607l-0.015,-0.073c-0.046,-0.389 0.108,-1.206 1.028,-1.512c0.773,-0.258 3.33,-0.946 3.439,-0.975c0.192,-0.056 1.168,-0.409 0.889,-1.669c-0.374,-1.688 -1.05,-3.979 -1.125,-4.232c-0.053,-0.123 -0.463,-1.006 -1.373,-0.87c-1.073,0.163 -12.149,3.31 -17.89,4.961c-0.207,0.099 -1.249,0.681 -0.82,2.13c0.587,1.987 1.283,4.1 1.291,4.121c0.031,0.091 0.219,0.545 0.823,0.545c0.081,0 0.168,-0.008 0.258,-0.023c1.261,-0.219 5.5,-1.589 5.542,-1.603l0.06,-0.015c0.023,-0.005 0.144,-0.026 0.314,-0.026l0,0Zm9.686,29.491c-1.688,0 -2.26,-1.936 -2.284,-2.019c-0.069,-0.261 -6.59,-25.119 -6.843,-26.057c-0.031,-0.118 -0.105,-0.392 -0.559,-0.392c-0.042,0 -0.077,0.002 -0.1,0.005c-0.47,0.151 -4.363,1.402 -5.642,1.624c-0.147,0.025 -0.293,0.038 -0.432,0.038l0,0c-1.11,0 -1.661,-0.821 -1.798,-1.255c-0.004,-0.014 -0.705,-2.142 -1.298,-4.144c-0.574,-1.941 0.68,-3.054 1.423,-3.371l0.059,-0.022c0.68,-0.195 16.648,-4.785 18.057,-4.999c0.119,-0.018 0.238,-0.028 0.354,-0.028c1.522,0 2.109,1.494 2.133,1.557l0.012,0.036c0.007,0.025 0.749,2.511 1.151,4.327c0.401,1.814 -0.884,2.675 -1.62,2.877c-0.028,0.008 -2.639,0.71 -3.383,0.958c-0.284,0.095 -0.336,0.28 -0.336,0.4c0.436,1.607 6.816,25.138 7.167,26.58c0.462,1.899 -0.745,2.353 -0.797,2.371c-0.053,0.016 -2.796,0.838 -4.533,1.394c-0.25,0.08 -0.495,0.12 -0.731,0.12l0,0Z" style="fill:#0b0b16;fill-rule:nonzero;"/><path d="M15.22,24.882c0,0 1.013,-0.197 1.269,0.754c0.256,0.951 6.841,26.05 6.841,26.05c0,0 0.604,2.116 2.366,1.552c1.762,-0.565 4.519,-1.389 4.519,-1.389c0,0 0.83,-0.296 0.471,-1.767c-0.358,-1.472 -7.178,-26.621 -7.178,-26.621c0,0 -0.085,-0.71 0.682,-0.966c0.767,-0.256 3.41,-0.966 3.41,-0.966c0,0 1.658,-0.455 1.255,-2.274c-0.402,-1.818 -1.141,-4.291 -1.141,-4.291c0,0 -0.54,-1.417 -1.933,-1.206c-1.392,0.212 -17.991,4.986 -17.991,4.986c0,0 -1.73,0.739 -1.133,2.756c0.597,2.018 1.296,4.136 1.296,4.136c0,0 0.342,1.093 1.654,0.866c1.312,-0.228 5.613,-1.62 5.613,-1.62l0,0Z" style="fill:#fff;fill-rule:nonzero;"/><path d="M43.734,55.337c0,0 3.795,-21.12 4.25,-23.194c0.011,-0.054 0.025,-0.1 0.038,-0.151c-0.372,0.086 -1.036,0.446 -1.355,1.898c-0.417,1.905 -3.331,18.137 -3.793,20.716c0.14,0.684 0.284,0.731 0.284,0.731l0.576,0Z" style="fill:#a5aaac;fill-rule:nonzero;"/><path d="M38.649,58.989c-0.284,-0.704 -5.409,-19.678 -5.409,-19.678l0.799,-1.084c-0.016,-0.001 -0.027,-0.001 -0.027,-0.001l-2.088,2.832c0,0 5.125,18.974 5.409,19.678c0.285,0.704 2.344,3.219 6.124,2.679c3.779,-0.54 5.143,-2.16 5.399,-3.041c0.009,-0.03 0.022,-0.091 0.041,-0.176c-0.842,0.612 -2.152,1.188 -4.125,1.47c-3.78,0.54 -5.838,-1.976 -6.123,-2.679l0,0Z" style="fill:#a5aaac;fill-rule:nonzero;"/><path d="M23.22,22.467c0,0 0.168,0.551 0.288,0.994c-0.016,-0.589 0.35,-0.856 0.682,-0.966c0.767,-0.256 3.41,-0.966 3.41,-0.966c0,0 1.323,-0.368 1.314,-1.747c-0.041,0.013 -4.059,1.293 -4.822,1.548c-0.767,0.256 -0.872,1.137 -0.872,1.137l0,0Z" style="fill:#a5aaac;fill-rule:nonzero;"/><path d="M30.647,49.925c-0.116,0.609 -0.531,0.759 -0.531,0.759c0,0 -1.342,0.242 -3.104,0.806c-1.762,0.565 -2.366,-1.552 -2.366,-1.552c0,0 -6.585,-25.098 -6.841,-26.049c-0.256,-0.951 -1.27,-0.754 -1.27,-0.754c0,0 -4.3,1.392 -5.612,1.62c-1.312,0.227 -1.655,-0.866 -1.655,-0.866c0,0 -0.698,-2.118 -1.295,-4.136c-0.116,-0.39 -0.143,-0.731 -0.113,-1.029c-0.045,0.013 -0.07,0.02 -0.07,0.02c0,0 -1.73,0.739 -1.133,2.756c0.597,2.018 1.296,4.136 1.296,4.136c0,0 0.342,1.093 1.654,0.866c1.312,-0.228 5.613,-1.62 5.613,-1.62c0,0 1.013,-0.197 1.269,0.754c0.256,0.951 6.841,26.05 6.841,26.05c0,0 0.604,2.116 2.366,1.552c1.762,-0.565 4.519,-1.389 4.519,-1.389c0,0 0.83,-0.296 0.471,-1.767c-0.009,-0.037 -0.023,-0.092 -0.039,-0.157l0,0Z" style="fill:#a5aaac;fill-rule:nonzero;"/><path d="M48.076,16.127l0.106,0.803l0.377,0.625l0.288,0.291l0.736,0.383l1.099,0.056l1.114,-0.407l0.507,-0.385c0,0 0.332,-0.4 0.383,-0.426c0.05,-0.027 0.429,-0.603 0.429,-0.603l0.026,-0.27l-1.097,-0.238l-2.555,0.054l-1.413,0.117l0,0Z" style="fill:#fff;fill-rule:nonzero;"/><path d="M40.427,12.94l-0.192,0.877l0.159,0.921l0.244,0.589l0.395,0.485l0.862,0.624l1.482,0.297l1.035,-0.049l0.511,-0.216l0.522,-0.487l0.47,-0.724l-3.106,-1.812l-2.382,-0.505l0,0Z" style="fill:#fff;fill-rule:nonzero;"/><path d="M44.409,32.425l0.119,1.132l-0.116,1.524l-0.269,2.003l-1.512,3.682l-0.562,0.963l-1.495,-0.174l0.61,-1.227l0.975,-1.948l0.502,-2.229l0.165,-1.936l0.154,-2.211l1.429,0.421Z" style="fill:#a17425;fill-rule:nonzero;"/><path d="M37.962,34.968l1.594,-0.63l1.012,-0.549l1.402,-1.051l1.006,-0.77l-0.083,2.185l-0.218,1.775l-0.717,2.824l-0.815,1.894l-0.615,0.821l-0.477,-1.905l-0.96,-2.629l-1.12,-1.524l-0.009,-0.441l0,0Z" style="fill:#583839;fill-rule:nonzero;"/><path d="M30.197,22.995l0.564,1.283l-3.037,0.6l-2.517,1.181l-2.411,1.493l-1,0.725l-0.414,-1.55l2.573,-1.909l2.413,-1.051l2.425,-0.654l1.404,-0.118Z" style="fill:#583839;fill-rule:nonzero;"/><path d="M30.686,24.463l-1.163,2.606l-1.03,2.736l-2.339,-1.063l-4.228,-0.399l0.875,-0.92l2.136,-1.318l2.325,-1.04l2.467,-0.613l0.957,0.011Z" style="fill:#a17425;fill-rule:nonzero;"/><path d="M48.122,15.985l0.037,0.659l0.211,0.59l0.421,0.536l0.411,0.287l0.465,0.167l0.434,0.037l0.782,0.034l0.604,-0.246l0.586,-0.41l0.357,-0.385l0.323,-0.548l-0.036,-0.509l-0.964,-0.031l-2.446,-0.571l-1.185,0.39l0,0Zm-7.63,-3.255l-0.15,0.629l-0.16,0.679l0.108,0.552l0.323,0.712l0.525,0.574l0.489,0.395l0.59,0.253l0.475,0.116l0.444,0.118l1.205,-0.027l0.756,-0.378l0.402,-0.424l0.294,-0.511l-0.205,-0.21c0,0 -2.159,-1.479 -2.225,-1.472c-0.065,0.007 -2.871,-1.006 -2.871,-1.006l0,0Zm-9.33,8.942l0.557,0.709l0.885,0.696l1.271,-0.222l0.73,-0.559l1.423,-1.905l0.377,-1.839l0.128,-2.536l0.543,-1.725l0.674,-1.517l1.289,-1.496l1.355,-1.086l1.231,-0.394l2.16,-0.315l1.825,0.028l2.162,0.342l2.671,1.408l1.487,0.984l0.924,1.701l0.364,1.782l-0.052,2.419l-0.851,2.766l-1.419,3.395l-0.396,0.81l0.084,0.803l-0.285,0.841l-2.347,3.122l-3.156,2.526l-1.812,-0.555l-2.618,2.227l-2.417,1.001l0.498,0.781l-0.594,0.391l-3.597,0.007l-3.319,-1.099l-2.586,-2.272l-0.969,-2.332l-0.058,-1.179l1.107,0.519l1.107,-3.034l1.341,-2.466l-0.966,-1.675l1.249,-1.052l0,0Z" style="fill:#eb1c29;"/><path d="M37.998,13.004c0.02,-0.251 0.974,-1.809 0.974,-1.809l1.354,-0.981l1.926,-0.628l1.344,-0.197l3.152,0.148c0,0 1.717,0.631 1.832,0.674c0.115,0.043 2.411,1.342 2.411,1.342l1.046,0.922l1.096,1.773l-0.236,0.909c-1.355,-4.762 -12.63,-6.284 -14.899,-2.153l0,0Z" style="fill:#6a0a16;fill-rule:nonzero;"/><path d="M29.996,16.396l0.345,2.399l0.217,1.182l0.61,1.839l0.715,1.06l1.089,0.211l0.767,-0.198l0.799,-0.339l0.631,-0.832l0.658,-1.02l0.204,-0.948l0.5,-2.28l0.212,-2.619l1.539,-2.992l1.111,-1.137c0,0 1.277,-0.643 1.366,-0.676c0.089,-0.032 1.203,-0.452 1.203,-0.452l2.132,-0.248l2.318,0.429l2.951,0.732l1.82,1.2l1.19,1.382l0.783,1.726l0.218,2.065l-0.309,2.119l-0.792,2.402l-1.233,2.149l-0.455,2.064l0.081,0.549l0.548,-0.058l0.77,-1.08l0.87,-1.643l1.67,-1.753l0.926,-1.767l0.612,-2.361l-0.186,-1.534l-0.231,-1.298l-0.749,-1.406l-0.017,-1.691l-0.379,-1.63l-0.578,-1.955l-1.415,-2.216l-1.808,-1.526l-0.51,-1.315l-1.048,-1.143l-1.281,-0.512l-2.516,-0.757l-1.971,-0.209l-0.828,0.272l-0.909,0.396l-0.918,0.747l-0.314,0.336l-1.542,0.555l-1.003,0.594l-0.989,0.731l-0.656,0.6l-0.339,0.316l-0.713,0.283l-0.701,0.606l-0.667,0.697l-0.869,0.348l-1.73,0.969l-0.942,1.398l-0.826,2.06l-0.023,1.114l0.047,1.108l0.48,1.898l0.065,1.059Z" style="fill:#ec9b25;fill-rule:nonzero;"/><path d="M30.686,24.463l-1.163,2.606l-1.03,2.736l-1.025,-0.466c-0.142,4.196 4.053,5.9 4.053,5.9c-2.727,-4.219 0.256,-7.672 2.43,-10.144c2.174,-2.472 2.046,-5.968 2.046,-5.968l-4.262,2.217c0,0 -0.768,0.469 -1.577,1.279c-0.12,0.119 -0.258,0.255 -0.406,0.409l0.445,-0.037l0.564,1.283" style="fill:#6a0a16;fill-rule:nonzero;"/><path d="M41.453,9.699c-0.788,0.533 -3.105,2.236 -3.105,2.236l-1.412,2.268l-0.369,3.313l-0.407,2.533l-0.82,1.214l-1.058,1.446l-1.273,0.45l-0.681,-0.189l-0.563,-0.519l-0.482,-0.541l-0.414,-1.043l-0.155,-0.685l-0.058,-0.558l-0.581,-1.727l-0.014,-1.567l-0.111,-1.048l-0.42,-1.248l-0.25,-1.597l0.283,-1.874l0.659,-1.444l1.123,-1.494l1.527,-0.917l0.98,-0.351l0.497,-0.782l0.996,-0.462l0.391,-0.207l1.262,-1.343l1.665,-0.904l1.95,-0.674l0.436,-0.582l0.701,-0.528l0.822,-0.417l1.395,-0.064l0.772,0.923l0.672,1.663l0.418,1.496l0.099,0.952l-0.204,2.19c-1.23,-9.279 -13.502,-0.79 -4.271,2.081l0,0Z" style="fill:#a17425;fill-rule:nonzero;"/><path d="M40.544,1.945l0.813,-0.691l0.806,-0.536l1.202,-0.213l0.917,0.355c0,0 0.599,0.92 0.641,0.984c0.041,0.065 0.641,1.367 0.641,1.367l0.329,2.589l-0.396,0.197l-0.515,-1.466l-0.839,-1.398l-0.759,-0.817l-0.945,-0.278l-1.427,-0.091l-0.468,-0.002l0,0Z" style="fill:#583839;fill-rule:nonzero;"/><path d="M32.318,9.071l-0.918,1.108l-0.425,1.557l-0.192,1.132l-0.105,1.746l0.466,-0.005l1.062,-0.902l0.802,-1.14l0.444,-1.27l0.154,-1.183c0,0 -0.109,-1.034 -0.116,-1.1c-0.007,-0.066 -0.249,-0.675 -0.249,-0.675l-0.923,0.732l0,0Z" style="fill:#583839;fill-rule:nonzero;"/><path d="M45.829,0.809l2.126,0.66c2.29,3.141 1.917,6.962 1.917,6.962l-2.509,-0.893c0.262,-4.299 -1.534,-6.729 -1.534,-6.729l0,0Z" style="fill:#fdcc50;fill-rule:nonzero;"/><path d="M47.191,7.747c0.378,0.83 0.212,2.008 0.212,2.008l2.512,1.196c0.254,-1.456 -0.25,-2.459 -0.25,-2.459l-2.474,-0.745l0,0Z" style="fill:#fdcc50;fill-rule:nonzero;"/><path d="M52.987,16.873c-0.861,1.559 -2.691,1.605 -2.691,1.605c-2.933,-0.056 -2.331,-3.272 -2.331,-3.272l0.015,0.039l0,-0.048l4.944,0.551c-0.555,-4.091 -4.668,-5.904 -9.292,-5.921c-3.972,0.073 -6.688,3.445 -6.884,7.661c-0.237,5.434 -3.8,7.502 -5.601,4.651c-0.144,0.125 -0.408,0.363 -0.73,0.697l0.811,1.609c-1.967,2.708 -2.537,5.971 -2.537,5.971c-0.329,-0.237 -0.661,-0.442 -0.992,-0.62c0.162,1.309 0.783,2.698 2.134,4.089c0,0 3.107,3.036 8.137,1.904c-0.191,-0.24 -0.401,-0.476 -0.631,-0.708c0,0 3.133,-1.074 5.498,-3.442l1.731,0.553c1.348,-1.039 4.162,-3.414 5.708,-6.204c-0.269,-1.009 0.918,-3.101 1.603,-4.634c0.737,-1.695 1.082,-3.184 1.108,-4.481l0,0Zm-4.635,-0.499c0.216,2.488 3.626,2.11 4.275,0.272c-0.783,-0.068 -1.464,-0.119 -2.045,-0.158l0.004,0.029c0.034,0.329 -0.205,0.625 -0.534,0.659c-0.33,0.035 -0.625,-0.204 -0.66,-0.534c-0.008,-0.077 -0.001,-0.153 0.019,-0.224c-0.469,-0.025 -0.822,-0.037 -1.059,-0.044l0,0Zm-17.385,3.529c0.256,1.337 1.38,4.505 3.718,1.958c0,0 1.212,-1.293 1.47,-4.666c1.005,-12.439 16.17,-8.254 17.251,-2.658c1.223,5.62 -3.106,10.209 -2.531,11.344c0.655,0.467 7.994,-13.859 0.276,-20.753c0.304,1.522 0.272,3.05 0.214,3.935l-0.395,0.513c-2.03,-1.504 -5.233,-1.865 -5.233,-1.865c-1.072,-4.802 -3.062,-5.287 -3.062,-5.287c-3.361,-0.341 -5.713,1.796 -6.351,2.456c0.391,0.288 0.73,0.922 0.94,2.095c0,0 0.857,3.529 -1.951,9.24c-0.531,1.105 -2.888,4.095 -4.346,3.688l0,0Zm-0.52,-2.795c-0.054,1.401 0.4,3.463 2.882,0.802c0.28,-0.227 4.329,-5.142 3.182,-11.445c0,0 -0.485,-2.199 -2.081,-0.359c1.958,0.268 1.754,3.972 0.695,7.131c-1.187,3.032 -3.292,5.519 -4.678,3.871l0,0Zm18.398,-15.014c-1.358,-0.703 -2.989,-1.096 -4.108,-1.302c1.631,1.898 1.494,5.517 1.446,6.273c2.429,0.293 4.123,1.258 4.742,1.661c-0.156,-4.305 -1.057,-6.076 -2.084,-6.63l0.004,-0.002l0,0Zm-2.798,4.956l-0.034,-0.042l0.009,0.039l0.025,0.003Zm-0.419,-1.395c-0.893,-6.761 -3.672,-4.737 -4.527,-3.929c0.759,-0.094 1.255,-0.065 1.255,-0.065c1.695,0.191 2.726,2.35 3.272,3.994Zm-14.67,8.697c1.21,-0.744 2.801,-3.377 2.123,-5.554c-2.124,1.697 -2.165,4.653 -2.123,5.554Zm-0.744,0.876l0.029,0.151c0.913,3.276 3.144,0.511 4.302,-2.481c0.914,-3.116 1.122,-6.931 -1.243,-5.99c-4.412,2.27 -3.743,7.374 -3.195,7.585c0.081,0.045 0.172,0.065 0.272,0.063c-0.393,-3.636 1.81,-5.79 2.459,-6.339c-0.026,-0.048 -0.052,-0.095 -0.08,-0.141c-0.269,-0.409 0.381,-0.707 0.52,-0.456c2.082,3.798 -1.589,7.831 -3.064,7.608l0,0Zm23.309,7.184c2.818,-3.647 2.067,-6.984 1.731,-7.732c-0.114,2.618 -0.75,5.311 -1.731,7.732Zm-10.809,10.248c-2.009,1.893 -4.306,2.646 -4.306,2.646c1.612,1.69 2.082,4.412 2.211,5.537c1.805,-3.115 2.065,-6.774 2.095,-8.183Zm-1.771,8.726l0.964,0.103c2.796,-4.411 2.196,-8.85 2.196,-8.85l-0.884,-0.249c0.214,4.842 -1.809,8.272 -2.276,8.996l0,0Zm-19.385,-12.5l-0.551,-2.099c3.407,-3.11 6.842,-3.802 8.451,-3.949c0.403,-0.424 0.859,-0.854 1.374,-1.289c-0.278,-0.617 -0.49,-1.393 -0.609,-2.336c-0.312,-0.621 -0.481,-1.682 -0.423,-3.35c-0.09,-0.266 -0.175,-0.565 -0.25,-0.898l-0.015,-0.069l-0.004,-0.018l-0.003,-0.017l-0.004,-0.018l-0.004,-0.017l-0.003,-0.017l-0.003,-0.017l-0.004,-0.017l-0.004,-0.02l-0.004,-0.019l-0.004,-0.017l-0.005,-0.023l-0.005,-0.026l-0.048,-0.243c-1.084,-2.271 0.247,-7.193 4.127,-8.246c0.379,-0.466 1.139,-1.29 1.889,-1.464c1.484,-1.852 3.474,-2.588 4.936,-2.877c1.596,-1.791 3.217,-1.821 3.386,-1.819l0.013,-0.02c3.474,0.277 5.729,1.714 5.729,1.714c0.606,0.599 1.024,1.371 1.308,2.2c3.006,2.097 4.305,5.542 4.435,9.282c2.97,4.548 -0.954,9.506 -2.57,11.038c-0.252,0.494 -0.517,0.971 -0.795,1.427c-0.426,0.668 -0.786,0.836 -1.033,0.845c-0.485,0.914 -2.145,3.609 -6.161,6.655c0.104,1.624 -0.052,5.107 -2.576,8.939l-2.159,-0.215c0,0 0.251,-2.763 -1.518,-5.438c-0.001,0.004 -5.625,1.407 -9.153,-2.162c0,0 -2.178,-1.921 -2.412,-4.876c-2.808,-1.163 -5.328,-0.524 -5.328,-0.524l0,0Zm8.681,-4.158c-1.386,0.25 -4.961,1.081 -7.754,3.352c1.133,-0.049 3.894,-0.012 5.815,1.315c0,0 0.384,-2.386 1.939,-4.667Zm-8.34,3.117c0.641,-0.575 3.712,-3.11 8.527,-3.659l-0.385,-0.833c0,0 -4.478,0.104 -8.395,3.557l0.253,0.935Zm18.708,-14.61c-1.014,3.214 3.97,4.361 4.992,2.308c-0.628,-0.296 -1.227,-0.576 -1.775,-0.83c0.037,0.345 -0.203,0.64 -0.532,0.675c-0.33,0.035 -0.625,-0.204 -0.66,-0.534c-0.025,-0.233 0.087,-0.448 0.272,-0.568c-1.338,-0.618 -2.224,-1.018 -2.297,-1.051l0,0Zm5.77,1.634c-1.606,3.73 -5.154,1.648 -5.842,0.672c-0.78,-1.025 -0.49,-2.14 -0.348,-2.536c-0.424,-0.244 -0.663,-0.417 -0.663,-0.417l0.904,-0.995l5.956,3.263l-0.007,0.013l0,0Zm-8.612,4.191c0.823,-0.67 1.829,-0.407 2.077,-0.158c0.157,0.157 -0.256,0.32 -0.256,0.32c-0.168,0.354 2.186,1.452 2.756,1.372c4.252,-0.285 6.22,1.753 6.22,1.753c1.25,0.276 1.905,-0.151 1.905,-0.151l0.136,0.132c-0.754,0.553 -2.438,0.413 -2.438,0.413c-2.18,-1.921 -5.729,-1.589 -5.729,-1.589c-0.662,0.127 -3.928,-1.872 -4.432,-1.885c-0.273,-0.068 -0.239,-0.207 -0.239,-0.207l0,0Z" style="fill:#0b0b16;fill-rule:nonzero;"/><path d="M20.791,59.199l-1.172,0.542l-0.859,0.253l-1.03,0.27l-0.496,-0.126l-0.219,0.487" style="fill:#df9025;fill-rule:nonzero;"/><path d="M21.775,59.166l-1.579,1.014l-1.082,0.584l-0.832,0.289l-0.59,0.18l-0.383,-0.061l-0.173,-0.106l-0.101,-0.183l-0.02,-0.258l0.195,-0.184l2.44,-0.607l1.413,-0.538l0.404,-0.075l0.308,-0.055l0,0Z" style="fill:#df9025;fill-rule:nonzero;"/><path d="M26.153,32.65c0.898,1.955 3.228,5.38 8.585,5.631l-1.041,1.126l-1.685,1.891l-1.837,2.034l-2.161,2.456l-1.415,1.693l-2.423,2.832l-1.349,1.627l-1.479,1.787l-0.633,0.869l-0.951,1.262l-0.573,0.757l-1.047,1.595l-0.479,0.809l-0.388,0.836l-0.216,0.706l0.097,0.081l0.119,0.031l0.316,0.002l0.404,-0.056l0.462,-0.122l0.697,-0.21l0.784,-0.345l0.86,-0.412l0.818,-0.443l0.594,0.067l-0.758,0.529l-0.786,0.468l-1.662,0.9l-0.931,0.384l-1.119,0.279l-0.609,0.029l-0.574,-0.268l-0.529,-0.358l-0.303,-0.654l-0.081,-0.637l-0.018,-0.938l0.23,-1.556l0.464,-1.993l0.825,-2.353l1.056,-2.687l1.342,-3.093l1.756,-3.754l1.63,-3.228l3.644,-6.98l0.364,-0.594l0,0Z" style="fill:#fdcc50;"/><path d="M27.029,34.189c0.989,1.433 2.627,3.007 5.259,3.719c-2.96,3.349 -16.808,19.253 -16.165,22.865c0,0 -3.187,-0.963 10.906,-26.584l0,0Z" style="fill:#ec9b25;"/><path d="M26.025,32.486c-0.154,-0.382 -0.216,-0.622 -0.219,-0.633l0.481,-0.118c0.039,0.159 0.774,2.976 3.754,4.722c2.75,1.292 4.507,1.308 4.507,1.308c0,0 0.256,0.234 0.107,0.277c-0.041,0.012 -0.282,-0.017 -0.618,-0.068l-0.029,0.254c-4.819,-0.547 -6.929,-3.529 -7.748,-5.214c-4.265,7.767 -7.079,13.559 -8.816,17.821c-1.83,4.484 -2.457,7.283 -2.343,8.856c0.053,0.742 0.261,1.195 0.548,1.454c0.286,0.26 0.68,0.363 1.19,0.328c0.15,-0.01 0.309,-0.033 0.474,-0.067c-0.077,-0.02 -0.151,-0.051 -0.22,-0.097c-0.171,-0.112 -0.268,-0.315 -0.28,-0.53c-0.025,-0.488 0.231,-1.145 0.821,-2.17c0.593,-1.019 1.536,-2.385 2.925,-4.19c2.704,-3.512 7.1,-8.685 13.887,-16.153l0.081,-0.123l0.778,-0.09l-0.306,0.291c-10.413,11.444 -15.255,17.553 -16.968,20.499c-0.28,0.478 -0.474,0.876 -0.596,1.189c0.092,0.006 0.191,0.004 0.296,-0.002c1.214,-0.079 2.085,-0.482 2.766,-0.882l2.303,-0.171c-0.91,0.67 -1.865,1.315 -2.922,1.889c-1.058,0.574 -2.103,1.003 -3.007,1.069l-0.006,0c-0.58,0.041 -1.12,-0.079 -1.524,-0.447c-0.406,-0.369 -0.642,-0.954 -0.699,-1.765c-0.116,-1.723 0.539,-4.548 2.377,-9.064c1.769,-4.343 4.641,-10.243 9.006,-18.173Zm-6.218,27.606c0.465,-0.256 0.954,-0.551 1.44,-0.858c-1.225,0.65 -2.487,1.182 -3.484,1.257c-0.163,0.012 -0.319,0.01 -0.468,-0.006c-0.023,0.109 -0.03,0.196 -0.024,0.262c0.013,0.121 0.04,0.149 0.078,0.177c0.039,0.03 0.135,0.056 0.288,0.045c0.45,-0.027 1.273,-0.377 2.17,-0.877l0,0Z" style="fill:#0b0b16;"/></g></svg>