<?xml version="1.0" encoding="utf-8"?>
<!-- Generator: Adobe Illustrator 26.3.1, SVG Export Plug-In . SVG Version: 6.00 Build 0)  -->
<svg version="1.1" id="Layer_1" xmlns="http://www.w3.org/2000/svg" xmlns:xlink="http://www.w3.org/1999/xlink" x="0px" y="0px"
	 viewBox="0 0 16 16" style="enable-background:new 0 0 16 16;" xml:space="preserve">
<style type="text/css">
	.st0{fill:url(#SVGID_1_);}
	.st1{fill:#404040;}
	.st2{fill:#969696;}
	.st3{fill:url(#SVGID_00000160149428305911563070000002646803714711685812_);}
	.st4{fill:#FF0033;}
	.st5{fill:url(#SVGID_00000120540306375201232990000008959450718316632504_);}
	.st6{fill:url(#SVGID_00000169522089604201998270000008984970649986807699_);}
</style>
<linearGradient id="SVGID_1_" gradientUnits="userSpaceOnUse" x1="8" y1="13.5347" x2="8" y2="4.7835" gradientTransform="matrix(1 0 0 -1 0 18)">
	<stop  offset="0" style="stop-color:#4D4D4D"/>
	<stop  offset="0.1738" style="stop-color:#8D8D8D"/>
	<stop  offset="0.4635" style="stop-color:#FFFFFF"/>
	<stop  offset="0.7799" style="stop-color:#8D8D8D"/>
	<stop  offset="1" style="stop-color:#4D4D4D"/>
</linearGradient>
<polygon class="st0" points="8,4.5 1.4,8.8 8,13.2 14.6,8.8 "/>
<polygon class="st1" points="1.4,8.8 1.4,11.6 8,16 8,13.2 "/>
<polygon class="st2" points="14.6,8.8 14.6,11.6 8,16 8,13.2 "/>
<path class="st1" d="M8,6.9c-1.3,0-2.4,0.8-2.4,1.9s1.1,1.9,2.4,1.9s2.4-0.8,2.4-1.9S9.3,6.9,8,6.9z"/>
<linearGradient id="SVGID_00000133494329029391244330000003650163683299955099_" gradientUnits="userSpaceOnUse" x1="12.0108" y1="8.2178" x2="12.0108" y2="10.1005" gradientTransform="matrix(1 0 0 -1 0 18)">
	<stop  offset="0" style="stop-color:#990000"/>
	<stop  offset="0.1175" style="stop-color:#BB0011"/>
	<stop  offset="0.2631" style="stop-color:#E00023"/>
	<stop  offset="0.3813" style="stop-color:#F6002E"/>
	<stop  offset="0.4563" style="stop-color:#FF0033"/>
	<stop  offset="0.5472" style="stop-color:#F5002E"/>
	<stop  offset="0.6963" style="stop-color:#DD0022"/>
	<stop  offset="0.8842" style="stop-color:#B5000E"/>
	<stop  offset="1" style="stop-color:#990000"/>
</linearGradient>
<path style="fill:url(#SVGID_00000133494329029391244330000003650163683299955099_);" d="M12,7.9c-0.7,0-1.2,0.4-1.2,0.9
	s0.5,0.9,1.2,0.9s1.2-0.4,1.2-0.9S12.7,7.9,12,7.9z"/>
<polygon class="st4" points="1.9,10 1.9,11 3.7,12.1 3.7,11.2 "/>
<linearGradient id="SVGID_00000083770841571260406700000017913025619849256625_" gradientUnits="userSpaceOnUse" x1="7.2455" y1="12.453" x2="8.7545" y2="12.453" gradientTransform="matrix(1 0 0 -1 0 18)">
	<stop  offset="0" style="stop-color:#4D4D4D"/>
	<stop  offset="0.2344" style="stop-color:#8D8D8D"/>
	<stop  offset="0.5062" style="stop-color:#FFFFFF"/>
	<stop  offset="0.7585" style="stop-color:#8D8D8D"/>
	<stop  offset="1" style="stop-color:#4D4D4D"/>
</linearGradient>
<path style="fill:url(#SVGID_00000083770841571260406700000017913025619849256625_);" d="M8,9.4c-0.4,0-0.8-0.3-0.8-0.7V2.4
	C7.2,2,7.6,1.7,8,1.7S8.8,2,8.8,2.4v6.4C8.8,9.1,8.4,9.4,8,9.4L8,9.4z"/>
<radialGradient id="SVGID_00000096779567021054986940000003629737748103291318_" cx="8" cy="15.5878" r="3.0527" gradientTransform="matrix(1 0 0 -1 0 18)" gradientUnits="userSpaceOnUse">
	<stop  offset="0.2059" style="stop-color:#FF3333"/>
	<stop  offset="0.4813" style="stop-color:#FF0033"/>
	<stop  offset="0.6128" style="stop-color:#E90028"/>
	<stop  offset="0.8842" style="stop-color:#B2000C"/>
	<stop  offset="1" style="stop-color:#990000"/>
</radialGradient>
<circle style="fill:url(#SVGID_00000096779567021054986940000003629737748103291318_);" cx="8" cy="2.4" r="2.4"/>
</svg>
