<?xml version="1.0" encoding="UTF-8"?>
<svg id="Layer_1" data-name="Layer 1" xmlns="http://www.w3.org/2000/svg" xmlns:xlink="http://www.w3.org/1999/xlink" viewBox="0 0 64 64">
  <defs>
    <style>
      .cls-1 {
        fill: url(#New_Gradient_Swatch_5);
      }

      .cls-2 {
        fill: #ffe366;
      }

      .cls-3 {
        fill: #f6a;
      }

      .cls-4 {
        fill: #ff7f57;
      }

      .cls-5 {
        fill: #8c5039;
      }

      .cls-6 {
        fill: url(#linear-gradient);
      }
    </style>
    <linearGradient id="New_Gradient_Swatch_5" data-name="New Gradient Swatch 5" x1="35.2855" y1="51.446" x2="47.1768" y2="63.442" gradientTransform="translate(-19.7055 20.9045) rotate(-45)" gradientUnits="userSpaceOnUse">
      <stop offset="0" stop-color="#fc6"/>
      <stop offset="1" stop-color="#ff7f57"/>
    </linearGradient>
    <linearGradient id="linear-gradient" x1="-12.4479" y1="27.3325" x2="86.5256" y2="125.7739" gradientTransform="translate(-19.7055 20.9045) rotate(-45)" gradientUnits="userSpaceOnUse">
      <stop offset=".3004" stop-color="#fc6"/>
      <stop offset=".7851" stop-color="#ff7f57"/>
    </linearGradient>
  </defs>
  <path class="cls-2" d="M39.997,9.4747c-.009,.0034-.0162,.0074-.0253,.0108-.5726-1.495-1.6451-2.9348-3.6275-4.2735-1.7973-1.2138-5.6847-1.4645-8.22-.1113,.015,.0154,.0235,.0375,.0381,.0533C20.7367-1.312,17.2832,6.9376,6.3235,.5-.4568,10.0805-1.7701,22.8818,4.2045,27.258c.0591,.0435,.1029,.0652,.161,.1073-.5071,1.3749-.6544,2.8792-.3409,4.3794,.6659,3.1866,2.6501,6.0727,5.1229,7.5048-.0307-.0022-.0808-.0054-.0808-.0054-1.4093,5.0541,5.8443,12.1381,12.8298,9.5736,2.2795,1.5445,4.8576,2.9332,6.6842,4.8837,7.0012,7.476,11.0241,3.6014,10.1579-.1135l3.4651,1.5419v-.0004l1.2054,.5361v.0004l4.5775,2.0363v-.0004l1.1824,.5259c.0074,.0086,.0134,.0223,.0209,.0309l11.3555,5.0513c.9606,.4273,1.9026,.09,2.484-.5724,.0453-.0485,.0525-.1203,.0932-.1726,.1841-.251,.3723-.5043,.4347-.8156,.0032-.0152-.0008-.0309,.0022-.0463,.0796-.4032,.0417-.8413-.1576-1.2824-.002-.0048,.0006-.0094-.0018-.0142l-.226-.5279-.3735-.8724h0l-4.5306-10.5786-.4237-.9895h0l-2.7884-6.511c-.0401-.1243-.1131-.2141-.157-.3346l-6.9549-16.2402c2.2735-3.4212,.2791-12.509-7.9492-14.8774Z"/>
  <path class="cls-3" d="M25.9361,13.9187c3.5419-2.9893,3.9074-6.9611,2.2262-8.7646C20.7367-1.312,17.2832,6.9376,6.3235,.5-.4568,10.0805-1.7701,22.8818,4.2045,27.258c.0591,.0435,.1029,.0652,.161,.1073,.3597-.9744,.875-1.8936,1.6471-2.6577,4.5266-4.4784,13.5358-5.3978,19.9234-10.7889Z"/>
  <path class="cls-2" d="M36.3443,5.212c-1.7973-1.2138-5.6847-1.4645-8.22-.1113,.015,.0154,.0235,.0375,.0381,.0533,1.6812,1.8035,1.3157,5.7753-2.2262,8.7646-6.3876,5.3911-15.3969,6.3104-19.9234,10.7889-.7721,.7641-1.2874,1.6832-1.6471,2.6577-.5071,1.3749-.6544,2.8792-.3409,4.3794,.6659,3.1866,2.6501,6.0727,5.1229,7.5048,.8363,.06,12.6792,.647,18.1542-13.7259,3.804-9.9871,5.577-13.4027,12.67-16.0381-.5726-1.495-1.6451-2.9348-3.6275-4.2735Z"/>
  <path class="cls-1" d="M47.9462,24.3521c-2.4965-1.2437-3.7085,3.514-3.8242,9.8963,.3172-.0004,.6238,.0287,.9355,.0441,4.458,.2202,8.3008,2.0644,9.8435,6.2998l-6.9549-16.2402Z"/>
  <path class="cls-6" d="M45.0575,34.2925c-.3118-.0154-.6184-.0445-.9355-.0441-8.9158,.013-19.7115,6.1607-19.5118,13.0548l24.5589,10.9246,11.3818,5.0631c1.3642,.6071,2.7431-.2917,3.0066-1.5417,.0836-.4172,.0445-.8726-.163-1.3239l-8.4933-19.833c-1.5427-4.2354-5.3855-6.0797-9.8435-6.2998Z"/>
  <g>
    <rect class="cls-4" x="31.8426" y="41.6547" width="4.5771" height="4.5784"/>
    <path class="cls-4" d="M36.4197,40.4513l-4.5773-.0002v-.4604c1.4158-.8696,2.9553-1.6442,4.5775-2.2768l-.0002,2.7374Z"/>
    <polygon class="cls-4" points="30.6377 49.9845 24.9154 47.439 30.6377 47.4388 30.6377 49.9845"/>
    <polygon class="cls-4" points="54.9758 46.2337 54.9758 41.6554 55.3699 41.6554 57.3305 46.2337 54.9758 46.2337"/>
    <path class="cls-4" d="M42.2038,40.4515l-4.5794-.0002v-3.1839c1.4964-.5018,3.0349-.87,4.5794-1.0536v4.2377Z"/>
    <polygon class="cls-4" points="59.555 52.0176 54.9758 52.0176 54.9758 47.438 57.8464 47.438 59.555 51.4279 59.555 52.0176"/>
    <polygon class="cls-4" points="53.7724 60.2759 50.9184 59.0061 53.7724 59.0061 53.7724 60.2759"/>
    <polygon class="cls-4" points="36.4195 47.4388 36.4195 52.0176 35.2078 52.0176 31.8428 50.5208 31.8428 47.4388 36.4195 47.4388"/>
    <polygon class="cls-4" points="59.5554 59.0061 59.5554 62.8481 54.9758 60.8113 54.9758 59.0061 59.5554 59.0061"/>
    <polygon class="cls-4" points="47.9871 53.2225 47.9866 57.7022 43.4093 55.666 43.4091 53.2229 47.9871 53.2225"/>
    <polygon class="cls-4" points="42.2038 55.1298 37.918 53.2231 42.2038 53.2227 42.2038 55.1298"/>
    <path class="cls-4" d="M30.6377,46.2329l-5.501-.0002c.8468-1.4846,2.3445-3.0855,4.2736-4.5786l1.2277,.0002-.0002,4.5786Z"/>
    <polygon class="cls-4" points="60.7586 54.2382 62.2849 57.8021 60.7586 57.8021 60.7586 54.2382"/>
    <rect class="cls-4" x="43.4086" y="41.655" width="4.579" height="4.5784"/>
    <path class="cls-4" d="M62.8006,59.0061l.5994,1.4001c.8019,1.7446-.8887,3.4903-2.641,2.9079l-.0002-4.308h2.0418Z"/>
    <rect class="cls-4" x="37.6244" y="41.6549" width="4.5794" height="4.5784"/>
    <rect class="cls-4" x="49.1924" y="53.2223" width="4.58" height="4.5792"/>
    <rect class="cls-4" x="37.6245" y="47.4385" width="4.5793" height="4.5791"/>
    <rect class="cls-4" x="43.4089" y="47.4383" width="4.5785" height="4.5793"/>
    <path class="cls-4" d="M53.7724,39.6376v.8143s-4.58-.0004-4.58-.0004v-3.6053c1.645,.5621,3.1837,1.4929,4.58,2.7914Z"/>
    <path class="cls-4" d="M47.9881,36.5279l-.0002,3.9238-4.5796-.0004-.0002-4.3191c1.5563-.086,3.0925,.0367,4.58,.3958Z"/>
    <rect class="cls-4" x="49.1924" y="47.4382" width="4.58" height="4.5794"/>
    <rect class="cls-4" x="54.9758" y="53.2218" width="4.5794" height="4.5802"/>
    <rect class="cls-4" x="49.1924" y="41.6552" width="4.58" height="4.5784"/>
  </g>
  <path class="cls-5" d="M39.997,9.4747c-.009,.0034-.0163,.0073-.0252,.0109-7.093,2.6352-8.866,6.0509-12.6701,16.0379-5.4749,14.3729-17.3177,13.7857-18.1542,13.7258-.0306-.0022-.0808-.0053-.0808-.0053-1.4094,5.0542,5.8448,12.1377,12.8298,9.5736,2.2796,1.5443,4.8578,2.9333,6.6842,4.8838,9.4406,10.0807,13.4874-.4758,7.3977-3.4518-2.7979-1.3674-7.3304-.1318-10.5801-4.0837-.2058-.2503-.3466-.5539-.5214-.8314,1.6303-6.0526,11.1906-11.0743,19.2451-11.0862,.1158-6.3823,1.3278-11.1401,3.8242-9.8962,2.2736-3.4213,.2792-12.5091-7.9492-14.8774Z"/>
  <polygon class="cls-2" points="34.6164 14.7684 38.5579 17.5785 43.2755 16.4934 41.8209 21.1104 44.3108 25.2617 39.4702 25.3051 36.2915 28.9559 34.7545 24.3657 30.3 22.4707 34.1906 19.5904 34.6164 14.7684"/>
</svg>