<?xml version="1.0" encoding="utf-8"?>
<!-- Generator: Adobe Illustrator 22.0.1, SVG Export Plug-In . SVG Version: 6.00 Build 0)  -->
<svg version="1.1" id="Layer_1" xmlns="http://www.w3.org/2000/svg" xmlns:xlink="http://www.w3.org/1999/xlink" x="0px" y="0px"
	 viewBox="0 0 16 16" style="enable-background:new 0 0 16 16;" xml:space="preserve">
<style type="text/css">
	.st0{fill:#B79D63;}
</style>
<g>
	<path class="st0" d="M16,9.127v-1.6c0-0.55-0.55-0.95-0.825-1.1c-0.1-0.05-0.15-0.15-0.175-0.25c-0.2-1.1-0.65-2.1-1.275-2.976
		c-0.05-0.075-0.05-0.175,0.025-0.25l0,0c0.1-0.075,0.1-0.225,0.025-0.3C12.4,1,10.3,0,8,0S3.575,1,2.2,2.651
		c-0.075,0.1-0.075,0.225,0.025,0.3L2.25,2.976c0.075,0.075,0.075,0.175,0.025,0.25C1.625,4.076,1.2,5.076,1,6.176
		c-0.025,0.1-0.075,0.2-0.175,0.25C0.55,6.577,0,6.977,0,7.527v1.6c0,0-0.025,1.45,1.5,1.45c0,0,0.475,0.1,0.475-0.5
		c0-0.575,0-2.476,0-2.626C1.975,4.126,4.675,1.4,8,1.4s6.025,2.701,6.025,6.051l0,0c0,0,0,2.05,0,2.626
		c0,0.575,0.475,0.5,0.475,0.5C16.025,10.577,16,9.127,16,9.127z"/>
	<path class="st0" d="M13.75,11.678c0,0-0.65,3.201-5.75,3.676c0,0-2.15,0.175-0.475,0.5c1.675,0.325,5.6,0.275,6.65-1.925
		c0,0,0.575-0.875,0.025-2.351C14.2,11.578,13.975,11.103,13.75,11.678z"/>
	<path class="st0" d="M4.95,11.653c0,0-1.35-0.025-1.7-1.6s0.175-2.251,0.575-2.351c0.4-0.1,1.6,0.1,3.375,2.251
		C8.875,11.953,4.95,11.653,4.95,11.653z"/>
	<path class="st0" d="M9.325,11.603c0,0-1.45-0.525-0.25-1.4c1.2-0.875,3.25-1.55,3.675-0.625c0.4,0.925-0.425,1.975-0.875,2.1
		C11.45,11.828,10.9,12.003,9.325,11.603z"/>
</g>
</svg>
