<?xml version="1.0" encoding="utf-8"?>
<!-- Generator: Adobe Illustrator 24.0.3, SVG Export Plug-In . SVG Version: 6.00 Build 0)  -->
<svg version="1.1" id="Layer_1" xmlns="http://www.w3.org/2000/svg" xmlns:xlink="http://www.w3.org/1999/xlink" x="0px" y="0px"
	 viewBox="0 0 64 64" style="enable-background:new 0 0 64 64;" xml:space="preserve">
<style type="text/css">
	.st0{fill:#DE7AAF;}
	.st1{fill:#FFFFFF;}
</style>
<path class="st0" d="M58.1,6.6c-3.3-3.9-7.8-6.1-12.7-6.1c-3.7,0-7.8,1.1-10.6,3.8c-0.7,0.7-1.2,1.3-1.7,2c-0.6,0.8-1.9,0.8-2.4,0
	c-0.5-0.7-1-1.4-1.7-2c-2.8-2.7-6.9-3.8-10.6-3.8c-4.9,0-9.4,2.2-12.7,6.1c-3.2,3.9-5,9.2-5,15c0,5.9,2,11.4,6.3,17.1
	C11,43.8,16.5,49,22.8,55c1.8,1.7,5.5,5.1,8.1,7.7c0.6,0.6,1.5,0.6,2.1,0c2.7-2.6,6.3-6,8.1-7.7c6.4-6,11.9-11.2,15.7-16.4
	c4.3-5.7,6.3-11.2,6.3-17.1C63.1,15.8,61.4,10.4,58.1,6.6z"/>
<g>
	<path class="st1" d="M51.6,32.7v-4.1c0-1.4-1.4-2.4-2.1-2.8c-0.2-0.1-0.3-0.3-0.4-0.7c-0.6-2.8-1.7-5.3-3.2-7.5
		c-0.1-0.1-0.1-0.4,0-0.6l0,0c0.2-0.2,0.2-0.6,0.1-0.8c-3.4-4.2-8.7-6.7-14.6-6.7s-11.2,2.5-14.6,6.7c-0.2,0.2-0.2,0.6,0.1,0.8
		l0.1,0.1c0.2,0.2,0.2,0.4,0.1,0.7c-1.7,2.1-2.8,4.6-3.2,7.4c-0.1,0.2-0.2,0.6-0.4,0.7c-0.7,0.3-2.1,1.4-2.1,2.8v4
		c0,0-0.1,3.6,3.8,3.6c0,0,1.2,0.2,1.2-1.2c0-1.4,0-6.3,0-6.6c0-8.4,6.9-15.2,15.2-15.2s15.2,6.9,15.2,15.2l0,0c0,0,0,5.2,0,6.6
		c0,1.4,1.2,1.2,1.2,1.2C51.6,36.3,51.6,32.7,51.6,32.7z"/>
	<path class="st1" d="M45.8,39.1c0,0-1.7,8.1-14.5,9.3c0,0-5.4,0.4-1.2,1.2s14.1,0.7,16.8-4.9c0,0,1.4-2.2,0.1-6
		C47,38.9,46.4,37.6,45.8,39.1z"/>
	<path class="st1" d="M23.6,39c0,0-3.4-0.1-4.3-4.1s0.4-5.6,1.4-6c1-0.2,4.1,0.2,8.5,5.6C33.6,39.7,23.6,39,23.6,39z"/>
	<path class="st1" d="M34.7,38.9c0,0-3.6-1.3-0.7-3.5c3-2.2,8.2-3.9,9.3-1.5c1,2.3-1.1,5-2.2,5.3C40.1,39.4,38.6,39.9,34.7,38.9z"/>
</g>
</svg>
