<svg xmlns="http://www.w3.org/2000/svg" version="1.1" xmlns:xlink="http://www.w3.org/1999/xlink" xmlns:svgjs="http://svgjs.com/svgjs" width="512" height="512" x="0" y="0" viewBox="0 0 64 64" style="enable-background:new 0 0 512 512" xml:space="preserve" class=""><g><g data-name="Fill Outline"><g data-name="Stroke copy"><rect width="58" height="44" x="3" y="3" fill="#00a1a2" rx="4" data-original="#84d2f4" class=""></rect><path fill="#008585" d="M61 37v6a4 4 0 0 1-4 4H7a4 4 0 0 1-4-4V7a4 4 0 0 1 4-4h15v15a19 19 0 0 0 19 19z" data-original="#57b7eb" class=""></path><path fill="#e9f1f2" d="M12 55h40a6 6 0 0 1 6 6H6a6 6 0 0 1 6-6z" data-original="#e9f1f2" class=""></path><path fill="#d0d8da" d="M43 47H21a8.09 8.09 0 0 1-4.472 7.236L15 55h34l-1.528-.764A8.09 8.09 0 0 1 43 47z" data-original="#d0d8da" class=""></path><path fill="#93999a" d="M43 47H21a8.09 8.09 0 0 1-4.472 7.236L15 55z" data-original="#93999a" class=""></path><path fill="#d0d8da" d="M58 61H6a6.027 6.027 0 0 1 4.21-5.73A4 4 0 0 0 14 58h43.19a5.857 5.857 0 0 1 .81 3z" data-original="#d0d8da" class=""></path><path fill="#00f7f7" d="M54 17c0-.189-.014-.375-.028-.561L57.16 14.6l-3-5.2-3.185 1.839a7.106 7.106 0 0 0-.975-.556V7h-6v3.683a7.106 7.106 0 0 0-.975.558L39.84 9.4l-3 5.2 3.188 1.841c-.014.186-.028.372-.028.561s.014.375.028.561L36.84 19.4l3 5.2 3.185-1.839a7.106 7.106 0 0 0 .975.558V27h6v-3.683a7.106 7.106 0 0 0 .975-.558L54.16 24.6l3-5.2-3.188-1.841A7.34 7.34 0 0 0 54 17zm-7 3a3 3 0 1 1 3-3 3 3 0 0 1-3 3z" data-original="#f9e109" class=""></path><path fill="#00dbdb" d="m12.657 33.921 4.242-4.243-2.828-2.828L7 33.921l7.071 7.071 2.828-2.828z" data-original="#fcbc04" class=""></path><path fill="#00f7f7" d="m35.343 33.921-4.242-4.243 2.828-2.828L41 33.921l-7.071 7.071-2.828-2.828zM23.057 24.59l3.94.697-3.132 17.73-3.94-.696z" data-original="#f9e109" class=""></path><g fill="#fcbc04"><path d="m38.14 36.78-4.21 4.21-2.83-2.83 2.62-2.62a18.217 18.217 0 0 0 4.42 1.24zM26.19 29.88 23.87 43l-3.93-.69 3.12-17.73.12.02a18.889 18.889 0 0 0 3.01 5.28zM56.98 19.29a14.441 14.441 0 0 1-4.48.71 14.609 14.609 0 0 1-3.82-.51A3.026 3.026 0 0 1 47 20a2.981 2.981 0 0 1-2.98-2.75 14.415 14.415 0 0 1-5-6.42l-2.18 3.77 3.19 1.84a5.242 5.242 0 0 0 0 1.12l-3.19 1.84 3 5.2 3.19-1.84a6.618 6.618 0 0 0 .97.56V27h6v-3.68a6.618 6.618 0 0 0 .97-.56l3.19 1.84 3-5.2z" fill="#00dbdb" data-original="#fcbc04" class=""></path></g></g><g fill="#323232" data-name="Outline copy"><path d="M61 38a1 1 0 0 0-1 1v4a3 3 0 0 1-3 3H7a3 3 0 0 1-3-3V21a1 1 0 0 0-2 0v22a5.006 5.006 0 0 0 5 5h12.93a7.048 7.048 0 0 1-3.849 5.342L14.764 54H12a7.008 7.008 0 0 0-7 7 1 1 0 0 0 1 1h7a1 1 0 0 0 0-2H7.1a5.008 5.008 0 0 1 4.9-4h22a1 1 0 0 0 0-2H18.682a8.993 8.993 0 0 0 3.249-6h20.138a8.993 8.993 0 0 0 3.249 6H38a1 1 0 0 0 0 2h14a5.008 5.008 0 0 1 4.9 4H17a1 1 0 0 0 0 2h41a1 1 0 0 0 1-1 7.008 7.008 0 0 0-7-7h-2.764l-1.317-.658A7.048 7.048 0 0 1 44.07 48H57a5.006 5.006 0 0 0 5-5v-4a1 1 0 0 0-1-1zM57 2H7a5.006 5.006 0 0 0-5 5v10a1 1 0 0 0 2 0V7a3 3 0 0 1 3-3h50a3 3 0 0 1 3 3v28a1 1 0 0 0 2 0V7a5.006 5.006 0 0 0-5-5z" fill="#444654" data-original="#323232" class=""></path><path d="m35.974 19.9 3 5.2a1 1 0 0 0 1.366.366L43 23.928V27a1 1 0 0 0 1 1h6a1 1 0 0 0 1-1v-3.072l2.66 1.536a1 1 0 0 0 1.366-.366l3-5.2a1 1 0 0 0-.366-1.366L55 17l2.66-1.536a1 1 0 0 0 .366-1.366l-3-5.2a1 1 0 0 0-1.366-.366L51 10.072V7a1 1 0 0 0-2 0v3.683a1 1 0 0 0 .57.9 6.05 6.05 0 0 1 .835.478 1 1 0 0 0 1.07.044l2.319-1.338 2 3.462-2.322 1.342a1 1 0 0 0-.5.946c.012.159.025.318.025.481s-.013.322-.025.481a1 1 0 0 0 .5.946l2.322 1.342-2 3.462-2.319-1.338a1 1 0 0 0-1.07.044 6.05 6.05 0 0 1-.835.478 1 1 0 0 0-.57.9V26h-4v-2.683a1 1 0 0 0-.57-.9 6.05 6.05 0 0 1-.835-.478 1 1 0 0 0-1.07-.044l-2.319 1.338-2-3.462 2.322-1.342a1 1 0 0 0 .5-.946c-.015-.161-.028-.32-.028-.483s.013-.322.025-.481a1 1 0 0 0-.5-.946l-2.322-1.342 2-3.462 2.319 1.338a1 1 0 0 0 1.07-.044 6.05 6.05 0 0 1 .835-.478 1 1 0 0 0 .57-.9V8h1a1 1 0 0 0 0-2H44a1 1 0 0 0-1 1v3.072l-2.66-1.536a1 1 0 0 0-1.366.366l-3 5.2a1 1 0 0 0 .366 1.366L39 17l-2.66 1.536a1 1 0 0 0-.366 1.364z" fill="#444654" data-original="#323232" class=""></path><path d="M43 17a4 4 0 1 0 4-4 4 4 0 0 0-4 4zm4-2a2 2 0 1 1-2 2 2 2 0 0 1 2-2zM6.293 34.628l7.071 7.072a1 1 0 1 0 1.414-1.414l-6.364-6.365 5.657-5.657 1.414 1.415-3.535 3.535a1 1 0 0 0 0 1.414l4.242 4.242a1 1 0 0 0 1.414-1.414l-3.535-3.535 3.535-3.535a1 1 0 0 0 0-1.414l-2.828-2.829a1 1 0 0 0-1.414 0l-7.071 7.071a1 1 0 0 0 0 1.414zM30.394 38.87l2.828 2.83a1 1 0 0 0 1.414 0l7.071-7.071a1 1 0 0 0 0-1.414l-7.071-7.071a1.029 1.029 0 0 0-1.414 0l-2.828 2.829a1 1 0 0 0 0 1.414l3.535 3.535-3.535 3.535a1 1 0 0 0 0 1.413zm5.656-4.242a1 1 0 0 0 0-1.414l-3.535-3.535 1.414-1.415 5.657 5.657-5.657 5.657-1.414-1.415zM19.116 42.879a1 1 0 0 0 .646.411l3.939.694a.947.947 0 0 0 .174.016 1 1 0 0 0 .984-.826l1.427-8.09a1 1 0 0 0-1.97-.348l-1.253 7.106-1.969-.348 2.778-15.757 1.969.348-.831 4.715a1 1 0 0 0 1.97.348l1-5.7a1 1 0 0 0-.812-1.158l-3.934-.69a1 1 0 0 0-1.158.81L18.95 42.132a1 1 0 0 0 .166.747zM9 14a1 1 0 0 0 1-1V9a1 1 0 0 0-2 0v4a1 1 0 0 0 1 1zM15 14a3 3 0 1 0-3-3 3 3 0 0 0 3 3zm0-4a1 1 0 1 1-1 1 1 1 0 0 1 1-1zM22 13V9a1 1 0 0 0-2 0v4a1 1 0 0 0 2 0zM27 8a3 3 0 1 0 3 3 3 3 0 0 0-3-3zm0 4a1 1 0 1 1 1-1 1 1 0 0 1-1 1zM8 21a1 1 0 0 0 2 0v-4a1 1 0 0 0-2 0zM15 22a3 3 0 1 0-3-3 3 3 0 0 0 3 3zm0-4a1 1 0 1 1-1 1 1 1 0 0 1 1-1zM28 17v4a1 1 0 0 0 2 0v-4a1 1 0 0 0-2 0zM23 22a3 3 0 1 0-3-3 3 3 0 0 0 3 3zm0-4a1 1 0 1 1-1 1 1 1 0 0 1 1-1z" fill="#444654" data-original="#323232" class=""></path></g></g></g></svg>