<svg xmlns="http://www.w3.org/2000/svg" version="1.1" xmlns:xlink="http://www.w3.org/1999/xlink" xmlns:svgjs="http://svgjs.com/svgjs" width="512" height="512" x="0" y="0" viewBox="0 0 64 64" style="enable-background:new 0 0 512 512" xml:space="preserve" class=""><g><path d="m26 52h12a0 0 0 0 1 0 0v4a4 4 0 0 1 -4 4h-4a4 4 0 0 1 -4-4v-4a0 0 0 0 1 0 0z" fill="#edebf1" data-original="#edebf1"></path><path d="m31 18a2.962 2.962 0 0 1 1 .184v-6.184a16 16 0 0 0 -16 16h6.184a2.962 2.962 0 0 0 -.184 1 3 3 0 0 0 6 0 2.962 2.962 0 0 0 -.184-1h4.184v-4.184a2.962 2.962 0 0 1 -1 .184 3 3 0 0 1 0-6z" fill="#f26674" data-original="#f26674" class=""></path><path d="m33 32a2.962 2.962 0 0 0 -1 .184v-4.184h-4.184a2.962 2.962 0 0 1 .184 1 3 3 0 0 1 -6 0 2.962 2.962 0 0 1 .184-1h-6.184a16 16 0 0 0 10 14.826v3.174h6v-8.184a2.962 2.962 0 0 0 1 .184 3 3 0 0 0 0-6z" fill="#fbdb75" data-original="#fbdb75" class=""></path><path d="m41.816 28a2.962 2.962 0 0 0 .184-1 3 3 0 0 0 -6 0 2.962 2.962 0 0 0 .184 1h-4.184v4.184a2.962 2.962 0 0 1 1-.184 3 3 0 0 1 0 6 2.962 2.962 0 0 1 -1-.184v8.184h6v-3.174a16 16 0 0 0 10-14.826z" fill="#b3de8a" data-original="#b3de8a" class=""></path><path d="m44.184 20a2.962 2.962 0 0 1 -.184-1 3 3 0 0 1 6 0 2.962 2.962 0 0 1 -.184 1h6.184a16 16 0 0 0 -16-16v6.184a2.962 2.962 0 0 0 -1-.184 3 3 0 0 0 0 6 2.962 2.962 0 0 0 1-.184v4.184z" fill="#00bebe" data-original="#82bcf3" class=""></path><rect fill="#425b72" height="6" rx="2" width="20" x="22" y="46" data-original="#425b72" class=""></rect><path d="m32 9a1 1 0 0 1 -1-1v-4a1 1 0 0 1 2 0v4a1 1 0 0 1 -1 1z" fill="#000000" data-original="#000000" class=""></path><path d="m22 11.68a1 1 0 0 1 -.867-.5l-2-3.464a1 1 0 1 1 1.732-1l2 3.464a1 1 0 0 1 -.865 1.5z" fill="#000000" data-original="#000000" class=""></path><path d="m14.679 19a.992.992 0 0 1 -.5-.134l-3.465-2a1 1 0 0 1 1-1.732l3.465 2a1 1 0 0 1 -.5 1.866z" fill="#000000" data-original="#000000" class=""></path><path d="m12 29h-4a1 1 0 0 1 0-2h4a1 1 0 0 1 0 2z" fill="#000000" data-original="#000000" class=""></path><path d="m11.216 41a1 1 0 0 1 -.5-1.866l3.465-2a1 1 0 1 1 1 1.732l-3.465 2a.992.992 0 0 1 -.5.134z" fill="#000000" data-original="#000000" class=""></path><path d="m52.784 41a.992.992 0 0 1 -.5-.134l-3.465-2a1 1 0 1 1 1-1.732l3.465 2a1 1 0 0 1 -.5 1.866z" fill="#000000" data-original="#000000" class=""></path><path d="m56 29h-4a1 1 0 0 1 0-2h4a1 1 0 0 1 0 2z" fill="#000000" data-original="#000000" class=""></path><path d="m48 27h-5a4 4 0 0 0 -8 0h-2v-3.184a1 1 0 0 0 -1.333-.942 2 2 0 1 1 0-3.748 1 1 0 0 0 1.333-.942v-6.184a1 1 0 0 0 -1-1 17 17 0 0 0 -7 32.485v1.515h-1a3 3 0 0 0 -3 3v2a3 3 0 0 0 3 3h1v3a5.006 5.006 0 0 0 5 5h4a5.006 5.006 0 0 0 5-5v-3h1a3 3 0 0 0 3-3v-2a3 3 0 0 0 -3-3h-1v-1.515a16.925 16.925 0 0 0 10-15.485 1 1 0 0 0 -1-1zm-17-13.967v3.967a4 4 0 0 0 0 8v2h-3.184a1 1 0 0 0 -.942 1.334 2 2 0 1 1 -3.748 0 1 1 0 0 0 -.942-1.334h-5.151a15.023 15.023 0 0 1 13.967-13.967zm-4.625 28.867a14.933 14.933 0 0 1 -9.338-12.9h3.963a4 4 0 0 0 8 0h2v3.184a1 1 0 0 0 1.333.942 2 2 0 1 1 0 3.748 1 1 0 0 0 -1.333.942v7.184h-4v-2.174a1 1 0 0 0 -.625-.926zm10.625 14.1a3 3 0 0 1 -3 3h-4a3 3 0 0 1 -3-3v-3h2v3a1 1 0 0 0 2 0v-3h2v3a1 1 0 0 0 2 0v-3h2zm3-9a1 1 0 0 1 1 1v2a1 1 0 0 1 -1 1h-16a1 1 0 0 1 -1-1v-2a1 1 0 0 1 1-1zm-2.375-5.1a1 1 0 0 0 -.625.927v2.173h-4v-6a4 4 0 0 0 0-8v-2h3.184a1 1 0 0 0 .942-1.334 2 2 0 1 1 3.748 0 1 1 0 0 0 .942 1.334h5.151a14.937 14.937 0 0 1 -9.342 12.9z" fill="#000000" data-original="#000000" class=""></path><path d="m40 3a1 1 0 0 0 -1 1v5a4 4 0 0 0 0 8v3a1 1 0 0 0 1 1h4.184a1 1 0 0 0 .942-1.334 2 2 0 1 1 3.748 0 1 1 0 0 0 .942 1.334h6.184a1 1 0 0 0 1-1 17.019 17.019 0 0 0 -17-17zm11 16a4 4 0 0 0 -8 0h-2v-3.184a1 1 0 0 0 -1.333-.942 2 2 0 1 1 0-3.748 1 1 0 0 0 1.333-.942v-5.151a15.023 15.023 0 0 1 13.967 13.967z" fill="#000000" data-original="#000000" class=""></path></g></svg>