<svg xmlns="http://www.w3.org/2000/svg" version="1.1" xmlns:xlink="http://www.w3.org/1999/xlink" xmlns:svgjs="http://svgjs.com/svgjs" width="512" height="512" x="0" y="0" viewBox="0 0 64 64" style="enable-background:new 0 0 512 512" xml:space="preserve" class=""><g><g data-name="Fill Outline"><g data-name="Stroke copy"><path fill="#00f7f7" d="M46 13a2.992 2.992 0 0 0-.907 5.845A4 4 0 0 0 49 22v-6a3 3 0 0 0-3-3z" data-original="#e59730" class=""></path><rect width="18" height="18" x="31" y="26" fill="#e9f1f2" rx="3" data-original="#e9f1f2" class=""></rect><path fill="#d0d8da" d="M49 39v2a3 3 0 0 1-3 3H34a3 3 0 0 1-3-3V29a3 3 0 0 1 3-3h4v6a7 7 0 0 0 7 7z" data-original="#d0d8da"></path><path fill="#e9f1f2" d="M49 30h2a2 2 0 0 1 2 2v4a2 2 0 0 1-2 2h-2v-8z" data-original="#e9f1f2" class=""></path><path fill="#d0d8da" d="M53 35.82V36a2.006 2.006 0 0 1-2 2h-2v-8h2v3a2.968 2.968 0 0 0 2 2.82zM29 30h2v8h-2a2 2 0 0 1-2-2v-4a2 2 0 0 1 2-2z" data-original="#d0d8da"></path><path fill="#93999a" d="M27 35.82V36a2.006 2.006 0 0 0 2 2h2v-8h-2v3a2.968 2.968 0 0 1-2 2.82z" data-original="#93999a" class=""></path><path fill="#00dbdb" d="M51 10a3 3 0 0 0-3-3 2.969 2.969 0 0 0-1.019.19c0-.064.019-.125.019-.19a2.986 2.986 0 0 0-4.8-2.383 3.986 3.986 0 0 0-7.107 1.552A3.959 3.959 0 0 0 34 6a4 4 0 0 0 0 8 3.953 3.953 0 0 0 1.9-.5A3.972 3.972 0 0 0 39 15a3.847 3.847 0 0 0 1.127-.181 2.983 2.983 0 0 0 5.407.772A2.913 2.913 0 0 0 47 16a3 3 0 0 0 3-3 2.963 2.963 0 0 0-.092-.7A2.978 2.978 0 0 0 51 10z" data-original="#f9e109" class=""></path><path fill="#00a1a2" d="M49.99 13.1A2.98 2.98 0 0 1 47 16a2.95 2.95 0 0 1-1.47-.41 2.977 2.977 0 0 1-5.4-.77A3.871 3.871 0 0 1 39 15a3.961 3.961 0 0 1-3.1-1.5 3.956 3.956 0 0 1-1.9.5 4 4 0 0 1-.96-7.88 3.585 3.585 0 0 0-.13.99 4 4 0 0 0 4 4 3.956 3.956 0 0 0 1.9-.5 3.961 3.961 0 0 0 3.1 1.5 3.8 3.8 0 0 0 1.12-.18 2.985 2.985 0 0 0 5.41.77 2.921 2.921 0 0 0 1.47.41.22.22 0 0 0 .08-.01z" data-original="#fcbc04" class=""></path><circle cx="23" cy="20" r="2" fill="#84d2f4" data-original="#84d2f4" class=""></circle><circle cx="29" cy="12" r="2" fill="#84d2f4" data-original="#84d2f4" class=""></circle><circle cx="7" cy="14" r="2" fill="#84d2f4" data-original="#84d2f4" class=""></circle><circle cx="16" cy="16" r="2" fill="#84d2f4" data-original="#84d2f4" class=""></circle><circle cx="5" cy="25" r="2" fill="#84d2f4" data-original="#84d2f4" class=""></circle><circle cx="39" cy="16" r="2" fill="#84d2f4" data-original="#84d2f4" class=""></circle><circle cx="49" cy="22" r="2" fill="#84d2f4" data-original="#84d2f4" class=""></circle><circle cx="52" cy="9" r="2" fill="#84d2f4" data-original="#84d2f4" class=""></circle><path fill="#d0d8da" d="M35 44h10v5H35z" data-original="#d0d8da"></path><path fill="#93999a" d="M35 49v-5h10z" data-original="#93999a" class=""></path><path fill="#e9f1f2" d="M17 49h40a4 4 0 0 1 4 4v8H17V49z" data-original="#e9f1f2" class=""></path><path fill="#d0d8da" d="M61 53v8H17V49h10.01A9.957 9.957 0 0 0 35 53z" data-original="#d0d8da"></path><path fill="#57b7eb" d="M29 55h22v6H29z" data-original="#57b7eb" class=""></path><path fill="#84d2f4" d="M49 61H38l-6-6h11z" data-original="#84d2f4" class=""></path><path fill="#00dbdb" d="M23.026 50a9.068 9.068 0 0 0-.156-1.642l2.183-1.26-3-5.2-2.184 1.26a8.978 8.978 0 0 0-2.843-1.639V39h-6v2.523a8.989 8.989 0 0 0-2.843 1.639L6 41.9l-3 5.2 2.183 1.26a8.665 8.665 0 0 0 0 3.284L3 52.9l3 5.2 2.183-1.26a8.989 8.989 0 0 0 2.843 1.639V61h6v-2.523a8.978 8.978 0 0 0 2.843-1.639l2.184 1.26 3-5.2-2.183-1.26A9.068 9.068 0 0 0 23.026 50zm-9 4a4 4 0 1 1 4-4 4 4 0 0 1-4 4z" data-original="#f9e109" class=""></path><circle cx="22" cy="31" r="2" fill="#84d2f4" data-original="#84d2f4" class=""></circle><g fill="#57b7eb"><path d="M53.82 9.82a2 2 0 1 1-2.64-2.64A1.891 1.891 0 0 0 51 8a2.006 2.006 0 0 0 2 2 1.891 1.891 0 0 0 .82-.18zM50.82 22.82a2 2 0 1 1-2.64-2.64A1.891 1.891 0 0 0 48 21a2.006 2.006 0 0 0 2 2 1.891 1.891 0 0 0 .82-.18zM40.82 16.82a2 2 0 1 1-2.64-2.64A1.891 1.891 0 0 0 38 15a2.006 2.006 0 0 0 2 2 1.891 1.891 0 0 0 .82-.18zM30.82 12.82a2 2 0 1 1-2.64-2.64A1.891 1.891 0 0 0 28 11a2.006 2.006 0 0 0 2 2 1.891 1.891 0 0 0 .82-.18zM24.82 20.82a2 2 0 1 1-2.64-2.64A1.891 1.891 0 0 0 22 19a2.006 2.006 0 0 0 2 2 1.891 1.891 0 0 0 .82-.18zM17.82 16.82a2 2 0 1 1-2.64-2.64A1.891 1.891 0 0 0 15 15a2.006 2.006 0 0 0 2 2 1.891 1.891 0 0 0 .82-.18zM23.82 31.82a2 2 0 1 1-2.64-2.64A1.891 1.891 0 0 0 21 30a2.006 2.006 0 0 0 2 2 1.891 1.891 0 0 0 .82-.18zM8.82 14.82a2 2 0 1 1-2.64-2.64A1.891 1.891 0 0 0 6 13a2.006 2.006 0 0 0 2 2 1.891 1.891 0 0 0 .82-.18zM6.82 25.82a2 2 0 1 1-2.64-2.64A1.891 1.891 0 0 0 4 24a2.006 2.006 0 0 0 2 2 1.891 1.891 0 0 0 .82-.18z" fill="#57b7eb" data-original="#57b7eb" class=""></path></g><path fill="#00a1a2" d="M19 56A13 13 0 0 1 6 43a9.469 9.469 0 0 1 .05-1.07L6 41.9l-3 5.2 2.18 1.26a9.04 9.04 0 0 0 0 3.28L3 52.9l3 5.2 2.18-1.26a9.181 9.181 0 0 0 2.85 1.64V61h6v-2.52a9.132 9.132 0 0 0 2.84-1.64l2.18 1.26 1.74-3.01A12.918 12.918 0 0 1 19 56z" data-original="#fcbc04" class=""></path></g><g fill="#323232" data-name="Outline copy"><circle cx="36" cy="33" r="1" fill="#323232" data-original="#323232" class=""></circle><circle cx="44" cy="33" r="1" fill="#323232" data-original="#323232" class=""></circle><path d="M45 39a1 1 0 0 0-1-1h-8a1 1 0 0 0 0 2h8a1 1 0 0 0 1-1zM39 7.764l-.1-.211a1 1 0 1 0-1.79.894l.106.211A4.212 4.212 0 0 0 41 11a1 1 0 0 0 0-2 2.224 2.224 0 0 1-2-1.236z" fill="#323232" data-original="#323232" class=""></path><circle cx="46" cy="10" r="1" fill="#323232" data-original="#323232" class=""></circle><path d="M57 48H46v-3a4 4 0 0 0 4-4v-2h1a3 3 0 0 0 3-3v-4a2.994 2.994 0 0 0-2.624-2.962l6.331-6.331A1 1 0 0 0 58 22V9a1 1 0 0 0-1-1h-2.184a2.991 2.991 0 1 0-5.079 2.947 2.045 2.045 0 0 1-.468.581 1 1 0 0 0-.332 1A2.052 2.052 0 0 1 49 13a1.99 1.99 0 0 1-2.966 1.726c-.023-.014-.05-.014-.074-.026A2 2 0 0 1 45 13a1 1 0 0 0-2 0 4 4 0 0 0 1.048 2.687A1.96 1.96 0 0 1 43 16a1.875 1.875 0 0 1-1.031-.306 2.976 2.976 0 0 0-4.58-2.216 2.9 2.9 0 0 1-.71-.606c-.016-.02-.038-.03-.054-.047A2.965 2.965 0 0 1 36 11a1 1 0 0 0-2 0 4.993 4.993 0 0 0 .419 1.96 2.933 2.933 0 0 1-2.438-.775c0-.062.019-.121.019-.185a2.985 2.985 0 0 0-.979-2.2 2.929 2.929 0 0 1 3.794-2.666 1 1 0 0 0 1.252-.755A3.011 3.011 0 0 1 39 4a2.974 2.974 0 0 1 2.4 1.216c.01.014.026.02.037.033A2.978 2.978 0 0 1 42 7a1 1 0 0 0 2 0 4.958 4.958 0 0 0-.4-1.932A1.9 1.9 0 0 1 44 5a2 2 0 0 1 2 1.974c0 .021-.014.118-.016.139a.97.97 0 0 0 .894 1.033 1.032 1.032 0 0 0 1.1-.893A1.774 1.774 0 0 0 48 7a4 4 0 0 0-4-4 3.909 3.909 0 0 0-1.6.343A4.931 4.931 0 0 0 39 2a5.025 5.025 0 0 0-4.589 3.02A4.966 4.966 0 0 0 29.1 9.01c-.035 0-.067-.01-.1-.01a2.993 2.993 0 0 0-1 5.816V20a1 1 0 0 0 .293.707l4.5 4.5a3.992 3.992 0 0 0-2.715 3.036L24 24.446v-1.63a3 3 0 1 0-2 0V25a1 1 0 0 0 .47.848l5.4 3.376A3 3 0 0 0 26 32v4a3 3 0 0 0 3 3h1v2a4 4 0 0 0 4 4v3h-6.039a1 1 0 0 0 0 2H57a3 3 0 0 1 3 3v8a1 1 0 0 0 2 0v-8a5.006 5.006 0 0 0-5-5zM23 19a1 1 0 1 1-1 1 1 1 0 0 1 1-1zm33 2.586-6.207 6.206A3.991 3.991 0 0 0 46 25h-1v-1.279l1.3-.434a2.993 2.993 0 1 0 3.7-4.1V16c0-.116-.011-.235-.023-.354A3.969 3.969 0 0 0 51 13a3.283 3.283 0 0 0-.019-.354 4.1 4.1 0 0 0 .5-.7A2.936 2.936 0 0 0 54.816 10H56zm-16.071-.214A1.012 1.012 0 0 0 40 21v-2.184a3 3 0 0 0 1.479-1.131 3.923 3.923 0 0 0 1.045.27 4.035 4.035 0 0 0 1.738 1.632 4.97 4.97 0 0 0 1.171 1.881l-1.749.583A1 1 0 0 0 43 23v2h-4.523zM49 21a1 1 0 1 1-1 1 1 1 0 0 1 1-1zm3-13a1 1 0 1 1-1 1 1 1 0 0 1 1-1zm-4 8.858v2.326a2.989 2.989 0 0 0-1.214.809 2.965 2.965 0 0 1-.715-1.358 1 1 0 0 0-.674-.742 1.994 1.994 0 0 1-.61-.335 3.967 3.967 0 0 0 1.047-.743A3.766 3.766 0 0 0 47 17a3.939 3.939 0 0 0 1-.142zM39 15a1 1 0 1 1-1 1 1 1 0 0 1 1-1zm-10-4a1 1 0 1 1-1 1 1 1 0 0 1 1-1zm1 3.816a3 3 0 0 0 1.156-.739 4.931 4.931 0 0 0 4.513.623 5.148 5.148 0 0 0 .494.368A2.936 2.936 0 0 0 38 18.816v1.992L36.323 25h-.909L30 19.586zM29 37a1 1 0 0 1-1-1v-4a1 1 0 0 1 1-1h1v6zm7 8h3a1 1 0 0 0 0-2h-5a2 2 0 0 1-2-2V29a2 2 0 0 1 2-2h12a2 2 0 0 1 2 2v3a1 1 0 0 0 2 0v-1h1a1 1 0 0 1 1 1v4a1 1 0 0 1-1 1h-1v-1a1 1 0 0 0-2 0v5a2 2 0 0 1-2 2h-3a1 1 0 0 0 0 2h1v3h-8z" fill="#323232" data-original="#323232" class=""></path><path d="M51 54H40a1 1 0 0 0 0 2h2.586l4 4h-8.172l-4-4H36a1 1 0 0 0 0-2h-7a1 1 0 0 0-1 1v6a1 1 0 0 0 1 1h22a1 1 0 0 0 1-1v-6a1 1 0 0 0-1-1zm-21 2h1.586l4 4H30zm20 4h-.586l-4-4H50zM25.919 46.6l-3-5.2a1 1 0 0 0-1.366-.366l-1.06.612 2.542-4.123a1 1 0 0 0 .149-.523v-3.184a3 3 0 1 0-2 0v2.9l-2.69 4.362c-.157-.078-.307-.165-.468-.235V39a1 1 0 0 0-1-1H17V18.816a3 3 0 1 0-2 0V38h-2V24a1 1 0 0 0-.293-.707L8 18.586v-1.77a3 3 0 1 0-2 0V19a1 1 0 0 0 .293.707L11 24.414v13.591a1 1 0 0 0-.974.995v1.843c-.3.132-.593.283-.88.443L9 33.98a1 1 0 0 0-.293-.687L6 30.586v-2.77a3 3 0 1 0-2 0V31a1 1 0 0 0 .293.707l2.715 2.715.14 6.988-.648-.374a1 1 0 0 0-1.366.366l-3 5.2a1 1 0 0 0 .366 1.362l1.593.92a9.328 9.328 0 0 0 0 2.232l-1.593.92a1 1 0 0 0-.366 1.364l3 5.2a1 1 0 0 0 1.366.366l1.6-.921a9.851 9.851 0 0 0 1.931 1.114V61a1 1 0 0 0 2 0v-2.523a1 1 0 0 0-.666-.943 7.938 7.938 0 0 1-2.526-1.456 1 1 0 0 0-1.15-.107l-1.318.761-2-3.464 1.317-.76a1 1 0 0 0 .483-1.049 7.672 7.672 0 0 1 0-2.918 1 1 0 0 0-.483-1.049l-1.317-.76 2-3.464 1.318.761a1 1 0 0 0 1.15-.107 7.938 7.938 0 0 1 2.526-1.456 1 1 0 0 0 .666-.943V40h4v1.523a1 1 0 0 0 .666.943 7.932 7.932 0 0 1 2.527 1.456 1 1 0 0 0 1.15.107l1.318-.761 2 3.464-1.317.76a1 1 0 0 0-.483 1.047 7.748 7.748 0 0 1 0 2.922 1 1 0 0 0 .483 1.047l1.317.76-2 3.464-1.318-.761a1 1 0 0 0-1.15.107 7.932 7.932 0 0 1-2.527 1.456 1 1 0 0 0-.666.943V60H15a1 1 0 0 0 0 2h2.026a1 1 0 0 0 1-1v-1.843a9.859 9.859 0 0 0 1.932-1.114l1.6.921a1 1 0 0 0 1.366-.366l3-5.2a1 1 0 0 0-.366-1.366l-1.593-.92a9.468 9.468 0 0 0 0-2.232l1.593-.92a1 1 0 0 0 .361-1.36zM22.184 30a1 1 0 1 1-1 1 1 1 0 0 1 1-1zM16 15a1 1 0 1 1-1 1 1 1 0 0 1 1-1zm-9-2a1 1 0 1 1-1 1 1 1 0 0 1 1-1zM5 24a1 1 0 1 1-1 1 1 1 0 0 1 1-1z" fill="#323232" data-original="#323232" class=""></path><path d="M14.026 47a2.96 2.96 0 0 1 .751.11 1 1 0 1 0 .5-1.935A4.889 4.889 0 0 0 14.026 45a5 5 0 1 0 5 5 4.872 4.872 0 0 0-.19-1.3 1 1 0 0 0-1.93.524 2.963 2.963 0 0 1 .12.781 3 3 0 1 1-3-3z" fill="#323232" data-original="#323232" class=""></path></g></g></g></svg>