<svg xmlns="http://www.w3.org/2000/svg" version="1.1" xmlns:xlink="http://www.w3.org/1999/xlink" xmlns:svgjs="http://svgjs.com/svgjs" width="512" height="512" x="0" y="0" viewBox="0 0 682.66669 682.66669" style="enable-background:new 0 0 512 512" xml:space="preserve" class=""><g><defs id="defs1867"><clipPath clipPathUnits="userSpaceOnUse" id="clipPath1877"><path d="M 0,512 H 512 V 0 H 0 Z" id="path1875" fill="#000000" data-original="#000000"></path></clipPath></defs><g id="g1869" transform="matrix(1.3333333,0,0,-1.3333333,0,682.66667)"><g id="g1871"><g id="g1873" clip-path="url(#clipPath1877)"><g id="g1879" transform="translate(401.5273,269.4951)"><path d="m 0,0 c -10.071,0 -18.236,8.165 -18.236,18.236 0,10.071 8.165,18.236 18.236,18.236 10.071,0 18.236,-8.165 18.236,-18.236 C 18.236,8.165 10.071,0 0,0 m -291.063,0 c -10.072,0 -18.236,8.165 -18.236,18.236 0,10.071 8.164,18.236 18.236,18.236 10.071,0 18.235,-8.165 18.235,-18.236 C -272.828,8.165 -280.992,0 -291.063,0 M 81.621,69.82 h -420.053 c -2.607,-1.221 -4.599,-2.186 -4.599,-2.186 l -9.818,-13.379 v -300.5 l 5.818,-9.75 11.094,-6.001 H 81.621 c 11.79,0 21.348,9.559 21.348,21.349 V 48.472 c 0,11.79 -9.558,21.348 -21.348,21.348" style="fill-opacity:1;fill-rule:nonzero;stroke:none" id="path1881" fill="#ffd500" data-original="#ffd500" class=""></path></g><g id="g1883" transform="translate(53.8364,28.8477)"><path d="m 0,0 v 289.119 c 0,11.791 9.558,21.349 21.349,21.349 h -46.342 c -11.79,0 -21.348,-9.558 -21.348,-21.349 L -46.341,0 c 0,-11.79 9.558,-21.348 21.348,-21.348 H 21.349 C 9.558,-21.348 0,-11.79 0,0" style="fill-opacity:1;fill-rule:nonzero;stroke:none" id="path1885" fill="#fbc700" data-original="#fbc700" class=""></path></g><g id="g1887" transform="translate(265.3706,502.5508)"><path d="m 0,0 h -5.125 l -10,-13.301 -0.625,-14.842 4.75,-11.533 5.25,-2.625 5.75,-0.8 c 8.312,3.622 14.125,11.905 14.125,21.551 C 14.125,-11.905 8.312,-3.621 0,0" style="fill-opacity:1;fill-rule:nonzero;stroke:none" id="path1889" fill="#60b9fe" data-original="#60b9fe" class=""></path></g><g id="g1891" transform="translate(251.2456,481.0005)"><path d="M 0,0 C 0,9.645 5.813,17.929 14.125,21.55 11.252,22.802 8.083,23.5 4.75,23.5 -8.229,23.5 -18.75,12.979 -18.75,0 c 0,-12.979 10.521,-23.5 23.5,-23.5 3.333,0 6.502,0.698 9.375,1.95 C 5.813,-17.929 0,-9.646 0,0" style="fill-opacity:1;fill-rule:nonzero;stroke:none" id="path1893" fill="#00bdbd" data-original="#1ca8ff" class=""></path></g><g id="g1895" transform="translate(123.8535,228.1636)"><path d="M 0,0 -15.616,-64.849 -33.834,-2.82 -52.053,-64.849 -67.668,0" style="stroke:#000000;stroke-width:15;stroke-linecap:round;stroke-linejoin:round;stroke-miterlimit:10;stroke-dasharray:none;stroke-opacity:1" id="path1897" fill="none" stroke="#000000" stroke-width="15" stroke-linecap="round" stroke-linejoin="round" stroke-miterlimit="10" stroke-dasharray="none" stroke-opacity="" data-original="#000000" class=""></path></g><g id="g1899" transform="translate(205.5757,195.7388)"><path d="m 0,0 c 0,-17.907 -14.517,-32.424 -32.424,-32.424 -17.908,0 -32.425,14.517 -32.425,32.424 0,17.908 14.517,32.425 32.425,32.425 C -14.517,32.425 0,17.908 0,0 Z" style="stroke:#000000;stroke-width:15;stroke-linecap:round;stroke-linejoin:round;stroke-miterlimit:10;stroke-dasharray:none;stroke-opacity:1" id="path1901" fill="none" stroke="#000000" stroke-width="15" stroke-linecap="round" stroke-linejoin="round" stroke-miterlimit="10" stroke-dasharray="none" stroke-opacity="" data-original="#000000" class=""></path></g><g id="g1903" transform="translate(230.229,195.7388)"><path d="m 0,0 h 16.104 c 8.954,0 16.212,7.259 16.212,16.212 0,8.954 -7.258,16.213 -16.212,16.213 H -3.232 v -64.849" style="stroke:#000000;stroke-width:15;stroke-linecap:round;stroke-linejoin:round;stroke-miterlimit:10;stroke-dasharray:none;stroke-opacity:1" id="path1905" fill="none" stroke="#000000" stroke-width="15" stroke-linecap="round" stroke-linejoin="round" stroke-miterlimit="10" stroke-dasharray="none" stroke-opacity="" data-original="#000000" class=""></path></g><g id="g1907" transform="translate(261.9126,163.3145)"><path d="M 0,0 -24.516,31.778" style="stroke:#000000;stroke-width:15;stroke-linecap:round;stroke-linejoin:round;stroke-miterlimit:10;stroke-dasharray:none;stroke-opacity:1" id="path1909" fill="none" stroke="#000000" stroke-width="15" stroke-linecap="round" stroke-linejoin="round" stroke-miterlimit="10" stroke-dasharray="none" stroke-opacity="" data-original="#000000" class=""></path></g><g id="g1911" transform="translate(413.2812,163.3145)"><path d="M 0,0 V 64.849 L 42.534,0 v 64.849" style="stroke:#000000;stroke-width:15;stroke-linecap:round;stroke-linejoin:round;stroke-miterlimit:10;stroke-dasharray:none;stroke-opacity:1" id="path1913" fill="none" stroke="#000000" stroke-width="15" stroke-linecap="round" stroke-linejoin="round" stroke-miterlimit="10" stroke-dasharray="none" stroke-opacity="" data-original="#000000" class=""></path></g><g id="g1915" transform="translate(381.2603,228.1636)"><path d="M 0,0 V -64.849" style="stroke:#000000;stroke-width:15;stroke-linecap:round;stroke-linejoin:round;stroke-miterlimit:10;stroke-dasharray:none;stroke-opacity:1" id="path1917" fill="none" stroke="#000000" stroke-width="15" stroke-linecap="round" stroke-linejoin="round" stroke-miterlimit="10" stroke-dasharray="none" stroke-opacity="" data-original="#000000" class=""></path></g><g id="g1919" transform="translate(350.7192,62.0269)"><path d="M 0,0 H -21.351 V 54.564 H 0" style="stroke:#000000;stroke-width:15;stroke-linecap:round;stroke-linejoin:round;stroke-miterlimit:10;stroke-dasharray:none;stroke-opacity:1" id="path1921" fill="none" stroke="#000000" stroke-width="15" stroke-linecap="round" stroke-linejoin="round" stroke-miterlimit="10" stroke-dasharray="none" stroke-opacity="" data-original="#000000" class=""></path></g><g id="g1923" transform="translate(349.5332,89.3091)"><path d="M 0,0 H -19.718" style="stroke:#000000;stroke-width:15;stroke-linecap:round;stroke-linejoin:round;stroke-miterlimit:10;stroke-dasharray:none;stroke-opacity:1" id="path1925" fill="none" stroke="#000000" stroke-width="15" stroke-linecap="round" stroke-linejoin="round" stroke-miterlimit="10" stroke-dasharray="none" stroke-opacity="" data-original="#000000" class=""></path></g><g id="g1927" transform="translate(206.5859,89.3091)"><path d="m 0,0 c 0,-15.067 -12.215,-27.282 -27.282,-27.282 -15.068,0 -27.282,12.215 -27.282,27.282 0,15.067 12.214,27.282 27.282,27.282 C -12.215,27.282 0,15.067 0,0 Z" style="stroke:#000000;stroke-width:15;stroke-linecap:round;stroke-linejoin:round;stroke-miterlimit:10;stroke-dasharray:none;stroke-opacity:1" id="path1929" fill="none" stroke="#000000" stroke-width="15" stroke-linecap="round" stroke-linejoin="round" stroke-miterlimit="10" stroke-dasharray="none" stroke-opacity="" data-original="#000000" class=""></path></g><g id="g1931" transform="translate(107.8608,89.3091)"><path d="m 0,0 h 13.551 c 7.533,0 13.64,6.107 13.64,13.641 0,7.534 -6.107,13.641 -13.64,13.641 h -16.27 v -54.564" style="stroke:#000000;stroke-width:15;stroke-linecap:round;stroke-linejoin:round;stroke-miterlimit:10;stroke-dasharray:none;stroke-opacity:1" id="path1933" fill="none" stroke="#000000" stroke-width="15" stroke-linecap="round" stroke-linejoin="round" stroke-miterlimit="10" stroke-dasharray="none" stroke-opacity="" data-original="#000000" class=""></path></g><g id="g1935" transform="translate(134.52,62.0269)"><path d="M 0,0 -20.628,26.738" style="stroke:#000000;stroke-width:15;stroke-linecap:round;stroke-linejoin:round;stroke-miterlimit:10;stroke-dasharray:none;stroke-opacity:1" id="path1937" fill="none" stroke="#000000" stroke-width="15" stroke-linecap="round" stroke-linejoin="round" stroke-miterlimit="10" stroke-dasharray="none" stroke-opacity="" data-original="#000000" class=""></path></g><g id="g1939" transform="translate(280.8735,89.3091)"><path d="m 0,0 h 13.55 c 7.534,0 13.641,6.107 13.641,13.641 0,7.534 -6.107,13.641 -13.641,13.641 H -2.719 v -54.564" style="stroke:#000000;stroke-width:15;stroke-linecap:round;stroke-linejoin:round;stroke-miterlimit:10;stroke-dasharray:none;stroke-opacity:1" id="path1941" fill="none" stroke="#000000" stroke-width="15" stroke-linecap="round" stroke-linejoin="round" stroke-miterlimit="10" stroke-dasharray="none" stroke-opacity="" data-original="#000000" class=""></path></g><g id="g1943" transform="translate(307.5322,62.0269)"><path d="M 0,0 -20.628,26.738" style="stroke:#000000;stroke-width:15;stroke-linecap:round;stroke-linejoin:round;stroke-miterlimit:10;stroke-dasharray:none;stroke-opacity:1" id="path1945" fill="none" stroke="#000000" stroke-width="15" stroke-linecap="round" stroke-linejoin="round" stroke-miterlimit="10" stroke-dasharray="none" stroke-opacity="" data-original="#000000" class=""></path></g><g id="g1947" transform="translate(58.9043,89.3091)"><path d="m 0,0 h 13.551 c 7.533,0 13.64,6.107 13.64,13.641 0,7.534 -6.107,13.641 -13.64,13.641 h -16.27 v -54.564" style="stroke:#000000;stroke-width:15;stroke-linecap:round;stroke-linejoin:round;stroke-miterlimit:10;stroke-dasharray:none;stroke-opacity:1" id="path1949" fill="none" stroke="#000000" stroke-width="15" stroke-linecap="round" stroke-linejoin="round" stroke-miterlimit="10" stroke-dasharray="none" stroke-opacity="" data-original="#000000" class=""></path></g><g id="g1951" transform="translate(402.2827,109.5825)"><path d="m 0,0 c 0,0 -6.418,6.665 -15.059,6.665 -8.639,0 -14.934,-6.295 -14.934,-12.775 0,-6.48 8.146,-11.664 18.452,-14.379 10.307,-2.716 12.487,-8.044 12.487,-13.721 0,-5.678 -5.019,-13.001 -16.786,-13.001 -11.767,0 -17.033,8.557 -17.033,8.557" style="stroke:#000000;stroke-width:15;stroke-linecap:round;stroke-linejoin:round;stroke-miterlimit:10;stroke-dasharray:none;stroke-opacity:1" id="path1953" fill="none" stroke="#000000" stroke-width="15" stroke-linecap="round" stroke-linejoin="round" stroke-miterlimit="10" stroke-dasharray="none" stroke-opacity="" data-original="#000000" class=""></path></g><g id="g1955" transform="translate(454.8687,109.5825)"><path d="m 0,0 c 0,0 -6.418,6.665 -15.058,6.665 -8.64,0 -14.935,-6.295 -14.935,-12.775 0,-6.48 8.146,-11.664 18.452,-14.379 10.307,-2.716 12.487,-8.044 12.487,-13.721 0,-5.678 -5.019,-13.001 -16.786,-13.001 -11.767,0 -17.033,8.557 -17.033,8.557" style="stroke:#000000;stroke-width:15;stroke-linecap:round;stroke-linejoin:round;stroke-miterlimit:10;stroke-dasharray:none;stroke-opacity:1" id="path1957" fill="none" stroke="#000000" stroke-width="15" stroke-linecap="round" stroke-linejoin="round" stroke-miterlimit="10" stroke-dasharray="none" stroke-opacity="" data-original="#000000" class=""></path></g><g id="g1959" transform="translate(255.1211,105.1309)"><path d="m 0,0 c -1.788,6.603 -7.822,11.46 -14.99,11.46 -8.576,0 -15.529,-6.952 -15.529,-15.528 v -23.507 c 0,-8.576 6.953,-15.529 15.529,-15.529 8.576,0 15.528,6.953 15.528,15.529 v 7.35 h -9.494" style="stroke:#000000;stroke-width:15;stroke-linecap:round;stroke-linejoin:round;stroke-miterlimit:10;stroke-dasharray:none;stroke-opacity:1" id="path1961" fill="none" stroke="#000000" stroke-width="15" stroke-linecap="round" stroke-linejoin="round" stroke-miterlimit="10" stroke-dasharray="none" stroke-opacity="" data-original="#000000" class=""></path></g><g id="g1963" transform="translate(284.4824,228.1636)"><path d="M 0,0 V -64.849" style="stroke:#000000;stroke-width:15;stroke-linecap:round;stroke-linejoin:round;stroke-miterlimit:10;stroke-dasharray:none;stroke-opacity:1" id="path1965" fill="none" stroke="#000000" stroke-width="15" stroke-linecap="round" stroke-linejoin="round" stroke-miterlimit="10" stroke-dasharray="none" stroke-opacity="" data-original="#000000" class=""></path></g><g id="g1967" transform="translate(320.2007,228.1636)"><path d="M 0,0 -31.986,-32.425" style="stroke:#000000;stroke-width:15;stroke-linecap:round;stroke-linejoin:round;stroke-miterlimit:10;stroke-dasharray:none;stroke-opacity:1" id="path1969" fill="none" stroke="#000000" stroke-width="15" stroke-linecap="round" stroke-linejoin="round" stroke-miterlimit="10" stroke-dasharray="none" stroke-opacity="" data-original="#000000" class=""></path></g><g id="g1971" transform="translate(320.2007,163.3145)"><path d="M 0,0 -31.986,32.424" style="stroke:#000000;stroke-width:15;stroke-linecap:round;stroke-linejoin:round;stroke-miterlimit:10;stroke-dasharray:none;stroke-opacity:1" id="path1973" fill="none" stroke="#000000" stroke-width="15" stroke-linecap="round" stroke-linejoin="round" stroke-miterlimit="10" stroke-dasharray="none" stroke-opacity="" data-original="#000000" class=""></path></g><g id="g1975" transform="translate(256,504.5005)"><path d="M 0,0 C -12.979,0 -23.5,-10.521 -23.5,-23.5 -23.5,-36.479 -12.979,-47 0,-47 12.979,-47 23.5,-36.479 23.5,-23.5 23.5,-10.521 12.979,0 0,0 Z" style="stroke:#000000;stroke-width:15;stroke-linecap:round;stroke-linejoin:round;stroke-miterlimit:10;stroke-dasharray:none;stroke-opacity:1" id="path1977" fill="none" stroke="#000000" stroke-width="15" stroke-linecap="round" stroke-linejoin="round" stroke-miterlimit="10" stroke-dasharray="none" stroke-opacity="" data-original="#000000" class=""></path></g><g id="g1979" transform="translate(242.3394,460.1611)"><path d="M 0,0 -118.486,-154.928" style="stroke:#000000;stroke-width:15;stroke-linecap:round;stroke-linejoin:round;stroke-miterlimit:10;stroke-dasharray:none;stroke-opacity:1" id="path1981" fill="none" stroke="#000000" stroke-width="15" stroke-linecap="round" stroke-linejoin="round" stroke-miterlimit="10" stroke-dasharray="none" stroke-opacity="" data-original="#000000" class=""></path></g><g id="g1983" transform="translate(269.2769,460.6621)"><path d="M 0,0 120.455,-157.502" style="stroke:#000000;stroke-width:15;stroke-linecap:round;stroke-linejoin:round;stroke-miterlimit:10;stroke-dasharray:none;stroke-opacity:1" id="path1985" fill="none" stroke="#000000" stroke-width="15" stroke-linecap="round" stroke-linejoin="round" stroke-miterlimit="10" stroke-dasharray="none" stroke-opacity="" data-original="#000000" class=""></path></g><g id="g1987" transform="translate(401.5317,269.4951)"><path d="m 0,0 c -10.071,0 -18.236,8.165 -18.236,18.236 0,10.071 8.165,18.236 18.236,18.236 10.071,0 18.236,-8.165 18.236,-18.236 C 18.236,8.165 10.071,0 0,0 Z m -291.063,0 c -10.072,0 -18.236,8.165 -18.236,18.236 0,10.071 8.164,18.236 18.236,18.236 10.071,0 18.235,-8.165 18.235,-18.236 C -272.828,8.165 -280.992,0 -291.063,0 Z m 128.031,69.82 h -209.652 c -11.79,0 -21.348,-9.558 -21.348,-21.348 v -289.119 c 0,-11.79 9.558,-21.349 21.348,-21.349 H 81.621 c 11.79,0 21.348,9.559 21.348,21.349 v 122.202 m 0,35 V 48.472 c 0,11.79 -9.558,21.348 -21.348,21.348 h -209.653" style="stroke:#000000;stroke-width:15;stroke-linecap:round;stroke-linejoin:round;stroke-miterlimit:10;stroke-dasharray:none;stroke-opacity:1" id="path1989" fill="none" stroke="#000000" stroke-width="15" stroke-linecap="round" stroke-linejoin="round" stroke-miterlimit="10" stroke-dasharray="none" stroke-opacity="" data-original="#000000" class=""></path></g></g></g></g></g></svg>