<?xml version="1.0" encoding="UTF-8"?>
<svg id="Layer_1" data-name="Layer 1" xmlns="http://www.w3.org/2000/svg" viewBox="0 0 64 64">
  <defs>
    <style>
      .cls-1 {
        fill: #ffccf1;
      }

      .cls-2 {
        fill: #ff7bcc;
      }

      .cls-3 {
        fill: #600;
      }
    </style>
  </defs>
  <path class="cls-2" d="m52.1747,38.16c5.5629-.3854,10.1886-3.3105,10.2401-10.0857-.1548-1.8787-.6621-2.0377-7.4374-2.0892,5.451-4.024,5.7679-4.4509,4.789-6.0617-4.024-5.451-9.4855-5.0985-14.2126-2.1406-1.6321,1.0213-3.1969,2.1413-4.587,3.3353.7142-1.703,1.3021-3.5524,1.7731-5.4363,1.3524-5.4097,0-10.7129-6.4277-12.8555-1.8345-.4333-2.1426,0-4.2852,6.4277-2.1426-6.4277-2.4506-6.861-4.2852-6.4277-6.4277,2.1426-7.7802,7.4457-6.4277,12.8555.467,1.8679,1.0486,3.7021,1.7546,5.3932-1.3989-1.2055-2.9762-2.3361-4.6224-3.3662-4.727-2.9579-10.1886-3.3105-14.2126,2.1406-.979,1.6108-.662,2.0377,4.789,6.0617-6.7753.0515-7.2825.2106-7.4374,2.0892.0515,6.7752,4.6771,9.7003,10.2401,10.0857,1.9207.1331,3.845.1467,5.6714-.0021-1.5788.9579-3.1415,2.1086-4.6299,3.356-4.2739,3.5815-6.2969,8.6669-2.3561,14.1784,1.2294,1.4289,1.7334,1.2594,7.2449-2.6814-2.0447,6.4595-2.0502,6.9911-.3113,7.7189,6.4595,2.0447,10.6708-1.4507,12.7564-6.6222.7202-1.7856,1.3277-3.6115,1.7505-5.3945.4232,1.7975,1.0347,3.6393,1.761,5.4402,2.0856,5.1714,6.2969,8.6669,12.7564,6.6222,1.7388-.7277,1.7333-1.2594-.3114-7.7189,5.5115,3.9408,6.0154,4.1103,7.2449,2.6814,3.9407-5.5115,1.9178-10.5968-2.3561-14.1784-1.4757-1.2366-3.0245-2.3787-4.5895-3.3318,1.8403.153,3.7809.1406,5.7182.0063Z"/>
  <path class="cls-1" d="m46.1223,36.312c3.8939-.2698,7.132-2.3173,7.168-7.0599-.1083-1.3151-.4634-1.4265-5.2061-1.4624,3.8157-2.8168,4.0375-3.1157,3.3522-4.2432-2.8168-3.8157-6.6398-3.569-9.9488-1.4984-1.1425.7149-2.2379,1.499-3.2109,2.3347.4999-1.1921.9115-2.4867,1.2412-3.8055.9467-3.7867,0-7.499-4.4995-8.9988-1.2841-.3033-1.4998,0-2.9996,4.4994-1.4998-4.4994-1.7155-4.8027-2.9996-4.4994-4.4994,1.4998-5.4461,5.212-4.4994,8.9988.3268,1.3075.734,2.5915,1.2281,3.7752-.9792-.8439-2.0833-1.6353-3.2356-2.3563-3.3089-2.0705-7.132-2.3173-9.9488,1.4984-.6854,1.1276-.4635,1.4264,3.3522,4.2432-4.7427.036-5.0978.1473-5.2061,1.4624.036,4.7427,3.274,6.7902,7.168,7.06,1.3445.0931,2.6916.1027,3.9701-.0015-1.1052.6705-2.1991,1.4761-3.241,2.3492-2.9917,2.5071-4.4078,6.0668-1.6493,9.9249.8606,1.0002,1.2134.8816,5.0714-1.877-1.4313,4.5217-1.4351,4.8938-.218,5.4032,4.5217,1.4313,7.4696-1.0154,8.9295-4.6355.5041-1.2499.9294-2.5281,1.2254-3.7761.2962,1.2582.7242,2.5475,1.2327,3.8082,1.4599,3.6201,4.4078,6.0668,8.9295,4.6356,1.2172-.5094,1.2133-.8816-.218-5.4033,3.858,2.7585,4.2108,2.8771,5.0714,1.877,2.7585-3.858,1.3424-7.4177-1.6493-9.9249-1.033-.8657-2.1171-1.6651-3.2126-2.3323,1.2882.1071,2.6467.0984,4.0027.0044Z"/>
  <path class="cls-3" d="m32,40.9596l-1.7073-3.4594c-.4208-.8526-1.2342-1.4436-2.1751-1.5803l-3.8177-.5547,2.7625-2.6928c.6808-.6637.9915-1.6198.8308-2.5569l-.6521-3.8022,3.4146,1.7952c.8416.4424,1.847.4424,2.6885,0l3.4146-1.7952-.6521,3.8022c-.1607.9371.15,1.8933.8308,2.5569l2.7625,2.6928-3.8177.5547c-.9409.1367-1.7543.7277-2.1751,1.5803l-1.7073,3.4594Z"/>
  <path class="cls-3" d="m32.0385,22.7586c-1.0428,0-1.8882.8454-1.8882,1.8882s.8454,1.8883,1.8882,1.8883,1.8883-.8454,1.8883-1.8883-.8455-1.8882-1.8883-1.8882Z"/>
  <path class="cls-3" d="m26.0815,30.7822c.3223-.9918-.2205-2.0571-1.2123-2.3794-.9918-.3222-2.0571.2206-2.3794,1.2124s.2205,2.0571,1.2123,2.3793c.9919.3223,2.0571-.2205,2.3794-1.2123Z"/>
  <path class="cls-3" d="m28.28,37.76c-.8437-.613-2.0246-.426-2.6376.4177s-.4259,2.0246.4178,2.6376,2.0245.426,2.6375-.4177c.613-.8438.426-2.0246-.4177-2.6376Z"/>
  <path class="cls-3" d="m35.5956,37.8254c-.8437.613-1.0307,1.7938-.4177,2.6376.613.8437,1.7938,1.0307,2.6375.4177s1.0308-1.7939.4178-2.6376-1.7939-1.0307-2.6376-.4177Z"/>
  <path class="cls-3" d="m41.5102,29.721c-.3223-.9918-1.3876-1.5346-2.3794-1.2123s-1.5346,1.3875-1.2123,2.3793c.3223.9919,1.3875,1.5347,2.3794,1.2124.9918-.3223,1.5346-1.3876,1.2123-2.3794Z"/>
</svg>