<svg xmlns="http://www.w3.org/2000/svg" version="1.1" xmlns:xlink="http://www.w3.org/1999/xlink" xmlns:svgjs="http://svgjs.com/svgjs" width="512" height="512" x="0" y="0" viewBox="0 0 256 256" style="enable-background:new 0 0 512 512" xml:space="preserve" class=""><g><path fill="#5290db" d="m163.698 85.343-11.339-2.854c-6.01-1.513-10.736-4.105-10.675-4.074a7.236 7.236 0 0 1-4.036-6.489v-3.408a20.752 20.752 0 0 1-9.649 2.376c-3.475 0-6.756-.862-9.649-2.376v3.408a7.235 7.235 0 0 1-4.036 6.489c-3.339 1.646-6.253 2.961-10.675 4.074L92.3 85.343a8.265 8.265 0 0 0-6.235 7.555h83.865a8.256 8.256 0 0 0-6.232-7.555z" data-original="#5290db"></path><path fill="#f9d0b4" d="M145.952 24.899c-1.37-1.436-3.596-1.568-5.157-.343-2.468 1.937-6.739 4.332-12.771 4.332-6.047 0-10.34-2.406-12.819-4.346-1.56-1.221-3.782-1.084-5.149.35l-.007.008a10.826 10.826 0 0 0-2.992 7.473V49.95c0 11.519 9.425 20.944 20.944 20.944 11.519 0 20.944-9.425 20.944-20.944V32.372a10.836 10.836 0 0 0-2.993-7.473z" data-original="#f9d0b4" class=""></path><path fill="#f9d0b4" d="M150.288 33.987c-.458 0-.906.039-1.344.107v15.855c0 .472-.022.94-.053 1.405.456.073.92.122 1.397.122a8.745 8.745 0 0 0 0-17.489zM107.056 49.949V34.094a8.747 8.747 0 0 0-1.344-.107 8.744 8.744 0 0 0 0 17.488c.477 0 .941-.049 1.397-.122a21.042 21.042 0 0 1-.053-1.404z" data-original="#f9d0b4" class=""></path><path fill="#5b5d60" d="M148.865 16.122c-.701 0-1.309-.541-1.319-1.242-.161-11.67-13.487-13.863-26.759-11.571-11.252 1.943-19.476 11.701-19.476 23.119v8.756a8.696 8.696 0 0 1 4.402-1.197c.457 0 .906.039 1.344.107v-1.722c0-2.783 1.071-5.459 2.992-7.473l.007-.008c1.367-1.433 3.589-1.57 5.149-.35 2.479 1.94 6.772 4.346 12.819 4.346 6.032 0 10.303-2.395 12.771-4.332 1.561-1.225 3.788-1.093 5.157.343a10.826 10.826 0 0 1 2.992 7.473v1.722a8.747 8.747 0 0 1 1.344-.107c1.626 0 3.143.452 4.448 1.225v-7.189c0-10.448-3.774-11.9-5.871-11.9z" data-original="#5b5d60" class=""></path><path fill="#b2e26d" d="m247.265 245.945-11.339-2.854c-6.01-1.513-10.736-4.105-10.675-4.074a7.235 7.235 0 0 1-4.036-6.489v-3.409a20.748 20.748 0 0 1-9.649 2.376c-3.475 0-6.756-.862-9.649-2.376v3.408a7.235 7.235 0 0 1-4.036 6.489c-3.339 1.646-6.253 2.962-10.675 4.074l-11.339 2.854a8.265 8.265 0 0 0-6.235 7.555H253.5a8.264 8.264 0 0 0-6.235-7.554z" data-original="#b2e26d"></path><path fill="#f9d0b4" d="M229.519 185.501c-1.369-1.436-3.596-1.568-5.157-.343-2.468 1.937-6.739 4.332-12.771 4.332-6.047 0-10.34-2.406-12.819-4.346-1.56-1.221-3.782-1.084-5.149.35l-.007.008a10.826 10.826 0 0 0-2.992 7.473v17.577c0 11.519 9.425 20.944 20.944 20.944 11.519 0 20.944-9.425 20.944-20.944v-17.577a10.839 10.839 0 0 0-2.993-7.474z" data-original="#f9d0b4" class=""></path><path fill="#f9d0b4" d="M233.855 194.59c-.458 0-.906.039-1.344.107v15.855c0 .472-.022.94-.053 1.405.456.073.92.122 1.397.122a8.745 8.745 0 0 0 0-17.489zM190.624 210.551v-15.855a8.747 8.747 0 0 0-1.344-.107 8.744 8.744 0 0 0 0 17.488c.477 0 .941-.049 1.397-.122a20.367 20.367 0 0 1-.053-1.404z" data-original="#f9d0b4" class=""></path><path fill="#5b5d60" d="M232.433 176.724c-.701 0-1.309-.541-1.319-1.242-.161-11.67-13.487-13.863-26.759-11.571-11.252 1.943-19.476 11.701-19.476 23.12v8.756a8.696 8.696 0 0 1 4.402-1.197c.458 0 .906.039 1.344.107v-1.722c0-2.783 1.071-5.459 2.992-7.473l.007-.008c1.367-1.433 3.589-1.57 5.149-.35 2.479 1.94 6.772 4.346 12.819 4.346 6.032 0 10.303-2.395 12.771-4.332 1.561-1.225 3.788-1.093 5.157.343a10.826 10.826 0 0 1 2.992 7.473v1.722a8.747 8.747 0 0 1 1.344-.107c1.626 0 3.143.452 4.448 1.225v-7.189c-.001-10.449-3.775-11.901-5.871-11.901z" data-original="#5b5d60" class=""></path><path fill="#fc657e" d="m80.131 245.945-11.339-2.854c-6.01-1.513-10.736-4.105-10.675-4.074a7.235 7.235 0 0 1-4.036-6.489v-3.409c-2.892 1.514-6.174 2.376-9.649 2.376s-6.756-.862-9.649-2.376v3.408a7.235 7.235 0 0 1-4.036 6.489c-3.339 1.646-6.253 2.962-10.675 4.074l-11.339 2.854a8.265 8.265 0 0 0-6.235 7.555h83.865a8.26 8.26 0 0 0-6.232-7.554z" data-original="#fc657e" class=""></path><path fill="#f9d0b4" d="M62.384 185.501c-1.369-1.436-3.596-1.568-5.157-.343-2.468 1.937-6.739 4.332-12.771 4.332-6.047 0-10.34-2.406-12.819-4.346-1.56-1.221-3.782-1.084-5.149.35l-.007.008a10.826 10.826 0 0 0-2.992 7.473v17.577c0 11.519 9.425 20.944 20.944 20.944 11.519 0 20.944-9.425 20.944-20.944v-17.577a10.834 10.834 0 0 0-2.993-7.474z" data-original="#f9d0b4" class=""></path><path fill="#f9d0b4" d="M66.72 194.59c-.458 0-.906.039-1.344.107v15.855c0 .472-.022.94-.053 1.405.456.073.92.122 1.397.122a8.744 8.744 0 0 0 0-17.489zM23.489 210.551v-15.855a8.747 8.747 0 0 0-1.344-.107 8.744 8.744 0 0 0 0 17.488c.477 0 .941-.049 1.397-.122a21.016 21.016 0 0 1-.053-1.404z" data-original="#f9d0b4" class=""></path><path fill="#5b5d60" d="M65.298 176.724c-.701 0-1.309-.541-1.319-1.242-.161-11.67-13.487-13.863-26.759-11.571-11.252 1.943-19.476 11.701-19.476 23.12v8.756a8.696 8.696 0 0 1 4.402-1.197c.457 0 .906.039 1.344.107v-1.722c0-2.783 1.071-5.459 2.992-7.473l.007-.008c1.367-1.433 3.589-1.57 5.149-.35 2.479 1.94 6.772 4.346 12.819 4.346 6.032 0 10.303-2.395 12.771-4.332 1.561-1.225 3.788-1.093 5.157.343a10.826 10.826 0 0 1 2.992 7.473v1.722a8.747 8.747 0 0 1 1.344-.107c1.626 0 3.143.452 4.448 1.225v-7.189c-.001-10.449-3.774-11.901-5.871-11.901z" data-original="#5b5d60" class=""></path><path fill="#f9d0b4" d="M114.316 78.414c-.387.191-.768.377-1.147.559 2.194 6.073 8.026 10.444 14.831 10.444 6.798 0 12.625-4.362 14.824-10.424a27.131 27.131 0 0 1-1.14-.579 7.235 7.235 0 0 1-4.036-6.489v-3.409a20.752 20.752 0 0 1-9.649 2.376c-3.475 0-6.756-.862-9.649-2.376v3.408a7.231 7.231 0 0 1-4.034 6.49zM197.883 239.016c-.387.191-.768.377-1.147.559 2.194 6.073 8.026 10.444 14.831 10.444 6.798 0 12.625-4.362 14.824-10.424a27.131 27.131 0 0 1-1.14-.579 7.235 7.235 0 0 1-4.036-6.489v-3.409a20.748 20.748 0 0 1-9.649 2.376c-3.475 0-6.756-.862-9.649-2.376v3.408a7.23 7.23 0 0 1-4.034 6.49zM30.748 239.016c-.387.191-.768.377-1.147.559 2.194 6.073 8.026 10.444 14.831 10.444 6.798 0 12.625-4.362 14.824-10.424a27.131 27.131 0 0 1-1.14-.579 7.235 7.235 0 0 1-4.036-6.489v-3.409a20.748 20.748 0 0 1-9.649 2.376c-3.475 0-6.756-.862-9.649-2.376v3.408a7.23 7.23 0 0 1-4.034 6.49z" data-original="#f9d0b4" class=""></path><path fill="#00bebe" d="M179.245 150.534h-9.198a1.375 1.375 0 0 1-1.337-1.084 41.494 41.494 0 0 0-5.416-13.074 1.375 1.375 0 0 1 .179-1.712l6.504-6.504a1.37 1.37 0 0 0 0-1.939l-9.544-9.544a1.372 1.372 0 0 0-1.939 0l-6.504 6.504a1.375 1.375 0 0 1-1.712.179 41.494 41.494 0 0 0-13.074-5.416 1.374 1.374 0 0 1-1.084-1.337v-9.198a1.37 1.37 0 0 0-1.371-1.371h-13.498c-.757 0-1.371.614-1.371 1.371v9.198c0 .646-.454 1.195-1.084 1.337a41.494 41.494 0 0 0-13.074 5.416 1.375 1.375 0 0 1-1.712-.179l-6.504-6.504a1.372 1.372 0 0 0-1.939 0l-9.545 9.544a1.372 1.372 0 0 0 0 1.939l6.504 6.504c.457.457.524 1.166.179 1.712a41.484 41.484 0 0 0-5.416 13.074 1.375 1.375 0 0 1-1.337 1.084h-9.197c-.757 0-1.371.614-1.371 1.371v13.498c0 .757.614 1.371 1.371 1.371h9.197c.646 0 1.195.454 1.337 1.084a41.494 41.494 0 0 0 5.416 13.074 1.375 1.375 0 0 1-.179 1.712l-6.504 6.504a1.372 1.372 0 0 0 0 1.939l9.545 9.544a1.372 1.372 0 0 0 1.939 0l6.504-6.504a1.375 1.375 0 0 1 1.712-.179 41.494 41.494 0 0 0 13.074 5.416c.63.142 1.084.69 1.084 1.337v9.198c0 .757.614 1.371 1.371 1.371h13.498c.757 0 1.371-.614 1.371-1.371V200.7c0-.646.454-1.195 1.084-1.337a41.484 41.484 0 0 0 13.074-5.416 1.374 1.374 0 0 1 1.712.179l6.504 6.504a1.372 1.372 0 0 0 1.939 0l9.544-9.544a1.37 1.37 0 0 0 0-1.939l-6.504-6.504a1.375 1.375 0 0 1-.179-1.712 41.484 41.484 0 0 0 5.416-13.074c.142-.63.69-1.084 1.337-1.084h9.198c.757 0 1.371-.614 1.371-1.371v-13.498a1.37 1.37 0 0 0-1.371-1.37z" data-original="#fcdd86" class=""></path><circle cx="128" cy="158.653" r="29.218" fill="#00ffff" data-original="#70d6f9" class=""></circle><path d="M86.07 95.398a2.5 2.5 0 0 1-2.499-2.639 10.718 10.718 0 0 1 8.12-9.841l11.339-2.854c4.316-1.086 7.164-2.405 10.18-3.892a4.706 4.706 0 0 0 2.641-4.247v-2.581a2.5 2.5 0 1 1 5 0v2.581a9.674 9.674 0 0 1-5.43 8.731c-3.276 1.615-6.378 3.05-11.17 4.256l-11.339 2.854a5.742 5.742 0 0 0-4.349 5.271 2.5 2.5 0 0 1-2.493 2.361zM169.93 95.397a2.5 2.5 0 0 1-2.494-2.361 5.74 5.74 0 0 0-4.349-5.27l-11.339-2.854c-3.248-.817-6.12-1.935-7.958-2.729-1.666-.719-2.701-1.185-3.361-1.602a9.672 9.672 0 0 1-5.281-8.657v-2.83a2.5 2.5 0 1 1 5 0v2.83a4.706 4.706 0 0 0 2.641 4.247l.122.064c.232.125 4.625 2.46 10.059 3.828l11.339 2.854a10.717 10.717 0 0 1 8.12 9.84 2.5 2.5 0 0 1-2.499 2.64z" fill="#000000" data-original="#000000" class=""></path><path d="M128 73.393c-12.927 0-23.444-10.517-23.444-23.443V32.372a13.27 13.27 0 0 1 3.683-9.198c2.263-2.372 5.916-2.627 8.506-.601 2.224 1.74 5.986 3.815 11.278 3.815 5.28 0 9.02-2.065 11.228-3.798 2.592-2.036 6.251-1.784 8.51.584a13.272 13.272 0 0 1 3.683 9.198v17.577c0 12.927-10.517 23.444-23.444 23.444zm-15.188-47.18a1.3 1.3 0 0 0-.947.404 8.301 8.301 0 0 0-2.309 5.755v17.577c0 10.17 8.274 18.443 18.444 18.443s18.444-8.273 18.444-18.443V32.372c0-2.15-.817-4.191-2.301-5.747-.472-.494-1.247-.539-1.804-.102-2.828 2.219-7.606 4.865-14.315 4.865-6.717 0-11.516-2.652-14.359-4.877a1.39 1.39 0 0 0-.853-.298z" fill="#000000" data-original="#000000" class=""></path><path d="M150.288 53.976a2.5 2.5 0 1 1 0-5c3.443 0 6.244-2.801 6.244-6.244s-2.801-6.244-6.244-6.244a2.5 2.5 0 1 1 0-5c6.2 0 11.244 5.044 11.244 11.244s-5.044 11.244-11.244 11.244zM105.712 53.976c-6.2 0-11.244-5.044-11.244-11.244s5.044-11.244 11.244-11.244a2.5 2.5 0 1 1 0 5c-3.443 0-6.244 2.801-6.244 6.244s2.801 6.244 6.244 6.244a2.5 2.5 0 1 1 0 5z" fill="#000000" data-original="#000000" class=""></path><path d="M101.311 37.333a2.5 2.5 0 0 1-2.5-2.5v-8.405A25.91 25.91 0 0 1 120.362.845c6.373-1.1 18.088-2.098 24.938 3.59 2.774 2.304 4.383 5.495 4.693 9.28 2.809.466 7.243 2.996 7.243 14.308v6.519a2.5 2.5 0 1 1-5 0v-6.519c0-5.799-1.292-9.401-3.37-9.401-2.077 0-3.79-1.663-3.819-3.708-.039-2.852-1.001-5.021-2.941-6.632-3.819-3.17-11.628-4.109-20.893-2.51a20.92 20.92 0 0 0-17.401 20.656v8.405a2.501 2.501 0 0 1-2.501 2.5zM169.637 256a2.5 2.5 0 0 1-2.499-2.639 10.718 10.718 0 0 1 8.121-9.84l11.339-2.854c4.32-1.088 7.166-2.406 10.179-3.893a4.707 4.707 0 0 0 2.642-4.247v-2.402a2.5 2.5 0 1 1 5 0v2.402a9.673 9.673 0 0 1-5.43 8.731c-3.273 1.615-6.374 3.049-11.17 4.257l-11.339 2.854a5.74 5.74 0 0 0-4.349 5.27 2.5 2.5 0 0 1-2.494 2.361zM253.498 256a2.5 2.5 0 0 1-2.494-2.361 5.74 5.74 0 0 0-4.349-5.27l-11.339-2.854c-3.248-.817-6.12-1.935-7.958-2.729-1.667-.72-2.703-1.186-3.362-1.603a9.672 9.672 0 0 1-5.28-8.656v-2.402a2.5 2.5 0 1 1 5 0v2.402a4.706 4.706 0 0 0 2.641 4.247c.042.021.083.042.124.065.236.127 4.621 2.459 10.056 3.828l11.339 2.854a10.718 10.718 0 0 1 8.12 9.84 2.5 2.5 0 0 1-2.498 2.639z" fill="#000000" data-original="#000000" class=""></path><path d="M211.567 233.995c-12.927 0-23.444-10.517-23.444-23.444v-17.577c0-3.441 1.308-6.708 3.683-9.199 2.262-2.372 5.916-2.626 8.506-.6 2.223 1.74 5.985 3.815 11.278 3.815 5.28 0 9.02-2.066 11.228-3.799 2.591-2.036 6.25-1.784 8.51.584a13.27 13.27 0 0 1 3.682 9.198v17.577c.001 12.928-10.516 23.445-23.443 23.445zm-15.188-47.179a1.3 1.3 0 0 0-.948.404 8.297 8.297 0 0 0-2.308 5.755v17.577c0 10.17 8.274 18.444 18.444 18.444s18.443-8.274 18.443-18.444v-17.577c0-2.15-.817-4.192-2.301-5.748-.473-.495-1.25-.539-1.804-.102-2.828 2.22-7.607 4.866-14.315 4.866-6.718 0-11.517-2.652-14.36-4.877a1.373 1.373 0 0 0-.851-.298z" fill="#000000" data-original="#000000" class=""></path><path d="M233.855 214.578a2.5 2.5 0 1 1 0-5c3.443 0 6.244-2.801 6.244-6.244s-2.801-6.244-6.244-6.244a2.5 2.5 0 1 1 0-5c6.2 0 11.244 5.044 11.244 11.244s-5.044 11.244-11.244 11.244zM189.28 214.578c-6.2 0-11.244-5.044-11.244-11.244s5.044-11.244 11.244-11.244a2.5 2.5 0 1 1 0 5c-3.443 0-6.244 2.801-6.244 6.244s2.801 6.244 6.244 6.244a2.5 2.5 0 1 1 0 5z" fill="#000000" data-original="#000000" class=""></path><path d="M184.878 197.625a2.5 2.5 0 0 1-2.5-2.5v-8.094a25.91 25.91 0 0 1 21.551-25.583c6.373-1.101 18.088-2.098 24.938 3.59 2.774 2.304 4.383 5.495 4.693 9.28 2.809.466 7.243 2.996 7.243 14.308v5.964a2.5 2.5 0 1 1-5 0v-5.964c0-5.799-1.292-9.401-3.37-9.401-2.077 0-3.79-1.663-3.819-3.708-.039-2.852-1.001-5.021-2.941-6.632-3.818-3.171-11.629-4.11-20.893-2.51a20.922 20.922 0 0 0-17.402 20.656v8.094a2.5 2.5 0 0 1-2.5 2.5zM2.502 256a2.5 2.5 0 0 1-2.499-2.639 10.718 10.718 0 0 1 8.121-9.84l11.339-2.854c4.319-1.087 7.165-2.406 10.18-3.893a4.706 4.706 0 0 0 2.641-4.247v-2.902a2.5 2.5 0 1 1 5 0v2.902a9.674 9.674 0 0 1-5.43 8.731c-3.274 1.615-6.375 3.05-11.17 4.257l-11.339 2.854a5.74 5.74 0 0 0-4.349 5.27A2.5 2.5 0 0 1 2.502 256zM86.363 256a2.5 2.5 0 0 1-2.494-2.361 5.74 5.74 0 0 0-4.349-5.27l-11.339-2.854c-3.248-.817-6.12-1.935-7.958-2.729-1.668-.72-2.703-1.186-3.362-1.603a9.672 9.672 0 0 1-5.28-8.656v-2.777a2.5 2.5 0 1 1 5 0v2.777a4.706 4.706 0 0 0 2.641 4.247c.042.021.083.042.124.065.238.127 4.621 2.459 10.056 3.827l11.339 2.854a10.718 10.718 0 0 1 8.121 9.84 2.5 2.5 0 0 1-2.499 2.64z" fill="#000000" data-original="#000000" class=""></path><path d="M44.433 233.995c-12.927 0-23.443-10.517-23.443-23.444v-17.577c0-3.441 1.308-6.708 3.682-9.198a6.322 6.322 0 0 1 8.506-.601c2.224 1.74 5.986 3.815 11.278 3.815 5.279 0 9.02-2.066 11.228-3.799 2.592-2.037 6.25-1.785 8.51.584a13.273 13.273 0 0 1 3.683 9.199v17.577c-.001 12.927-10.518 23.444-23.444 23.444zm-15.188-47.179c-.349 0-.692.136-.947.403a8.3 8.3 0 0 0-2.309 5.755v17.577c0 10.17 8.273 18.444 18.443 18.444s18.444-8.274 18.444-18.444v-17.577c0-2.15-.817-4.192-2.301-5.748-.472-.494-1.247-.539-1.804-.102-2.828 2.22-7.607 4.866-14.314 4.866-6.717 0-11.517-2.652-14.36-4.877a1.387 1.387 0 0 0-.852-.297z" fill="#000000" data-original="#000000" class=""></path><path d="M66.72 214.578a2.5 2.5 0 1 1 0-5c3.443 0 6.244-2.801 6.244-6.244s-2.801-6.244-6.244-6.244a2.5 2.5 0 1 1 0-5c6.2 0 11.244 5.044 11.244 11.244s-5.044 11.244-11.244 11.244zM22.145 214.578c-6.2 0-11.244-5.044-11.244-11.244s5.044-11.244 11.244-11.244a2.5 2.5 0 1 1 0 5c-3.443 0-6.244 2.801-6.244 6.244s2.801 6.244 6.244 6.244a2.5 2.5 0 1 1 0 5z" fill="#000000" data-original="#000000" class=""></path><path d="M17.744 197.708a2.5 2.5 0 0 1-2.5-2.5v-8.177a25.912 25.912 0 0 1 21.551-25.583c6.374-1.101 18.089-2.098 24.938 3.59 2.774 2.304 4.383 5.495 4.693 9.279 2.809.466 7.243 2.996 7.243 14.309v6.457a2.5 2.5 0 1 1-5 0v-6.457c0-5.799-1.292-9.401-3.37-9.401-2.077 0-3.791-1.663-3.819-3.708-.039-2.852-1.001-5.021-2.941-6.632-3.819-3.171-11.629-4.11-20.893-2.51a20.92 20.92 0 0 0-17.401 20.656v8.177a2.501 2.501 0 0 1-2.501 2.5zM134.749 213.769h-13.498a3.875 3.875 0 0 1-3.871-3.871v-8.299a43.87 43.87 0 0 1-12.237-5.07l-5.87 5.869a3.874 3.874 0 0 1-5.474 0l-9.544-9.544a3.875 3.875 0 0 1 0-5.474l5.869-5.87a43.87 43.87 0 0 1-5.07-12.237h-8.299a3.875 3.875 0 0 1-3.871-3.871v-13.498a3.875 3.875 0 0 1 3.871-3.871h8.299a43.87 43.87 0 0 1 5.07-12.237l-5.869-5.87a3.875 3.875 0 0 1-.001-5.473l9.545-9.545a3.874 3.874 0 0 1 5.474 0l5.87 5.869a43.9 43.9 0 0 1 12.237-5.07v-8.299a3.875 3.875 0 0 1 3.871-3.871h13.498a3.875 3.875 0 0 1 3.871 3.871v8.299a43.87 43.87 0 0 1 12.237 5.07l5.87-5.869a3.874 3.874 0 0 1 5.474 0l9.544 9.544a3.846 3.846 0 0 1 1.134 2.737 3.843 3.843 0 0 1-1.135 2.738l-5.868 5.869a43.9 43.9 0 0 1 5.07 12.237h8.299a3.875 3.875 0 0 1 3.871 3.871v13.498a3.875 3.875 0 0 1-3.871 3.871h-8.299a43.87 43.87 0 0 1-5.07 12.237l5.869 5.87c.73.73 1.134 1.703 1.134 2.737s-.403 2.007-1.135 2.738l-9.543 9.543a3.874 3.874 0 0 1-5.474 0l-5.87-5.869a43.858 43.858 0 0 1-12.237 5.07v8.299a3.875 3.875 0 0 1-3.871 3.871zm-12.369-5h11.239V200.7a3.857 3.857 0 0 1 3.034-3.775 38.897 38.897 0 0 0 12.288-5.09 3.855 3.855 0 0 1 4.816.524l5.706 5.705 7.947-7.947-5.705-5.706a3.857 3.857 0 0 1-.524-4.816 38.91 38.91 0 0 0 5.09-12.287 3.858 3.858 0 0 1 3.775-3.036h8.069v-11.239h-8.069a3.856 3.856 0 0 1-3.775-3.035 38.924 38.924 0 0 0-5.09-12.287 3.857 3.857 0 0 1 .524-4.816l5.705-5.706-7.947-7.947-5.706 5.705a3.856 3.856 0 0 1-4.815.525 38.905 38.905 0 0 0-12.288-5.091 3.855 3.855 0 0 1-3.035-3.775v-8.068H122.38v8.068a3.857 3.857 0 0 1-3.037 3.776 38.887 38.887 0 0 0-12.285 5.09 3.857 3.857 0 0 1-4.816-.524l-5.706-5.705-7.947 7.947 5.705 5.706a3.856 3.856 0 0 1 .525 4.815 38.918 38.918 0 0 0-5.091 12.288 3.858 3.858 0 0 1-3.775 3.035h-8.069v11.239h8.069a3.856 3.856 0 0 1 3.775 3.035 38.94 38.94 0 0 0 5.09 12.288 3.857 3.857 0 0 1-.524 4.816l-5.705 5.706 7.947 7.947 5.706-5.705a3.856 3.856 0 0 1 4.816-.524 38.901 38.901 0 0 0 12.287 5.09 3.858 3.858 0 0 1 3.036 3.775v8.068zm56.865-55.735h.01z" fill="#000000" data-original="#000000" class=""></path><path d="M128 149a48.011 48.011 0 0 1-23.481-6.141 2.5 2.5 0 1 1 2.45-4.358 42.993 42.993 0 0 0 21.031 5.5c7.423 0 14.75-1.933 21.19-5.589a2.5 2.5 0 1 1 2.469 4.347A48 48 0 0 1 128 149zM105.871 179.058a2.5 2.5 0 0 1-1.221-4.683 48.02 48.02 0 0 1 23.35-6.067 48.022 48.022 0 0 1 23.335 6.059 2.5 2.5 0 0 1-2.435 4.367 43.006 43.006 0 0 0-20.899-5.426 43.001 43.001 0 0 0-20.913 5.434 2.506 2.506 0 0 1-1.217.316z" fill="#000000" data-original="#000000" class=""></path><path d="M128 190.372c-10.368 0-18.489-13.933-18.489-31.719s8.122-31.718 18.489-31.718 18.489 13.932 18.489 31.718-8.121 31.719-18.489 31.719zm0-58.437c-7.312 0-13.489 12.235-13.489 26.718s6.177 26.719 13.489 26.719 13.489-12.236 13.489-26.719-6.177-26.718-13.489-26.718z" fill="#000000" data-original="#000000" class=""></path><path d="M156.359 161.153H99.641a2.5 2.5 0 1 1 0-5h56.718a2.5 2.5 0 1 1 0 5z" fill="#000000" data-original="#000000" class=""></path><path d="M128 189.513a2.5 2.5 0 0 1-2.5-2.5v-56.718a2.5 2.5 0 1 1 5 0v56.718a2.5 2.5 0 0 1-2.5 2.5z" fill="#000000" data-original="#000000" class=""></path><path fill="#f5c84c" d="M34.106 121.5h2.3v2.3c0 1.8 1.4 3.2 3.2 3.2 1.7 0 3.2-1.4 3.2-3.1v-2.4h2.3c1.8 0 3.2-1.4 3.2-3.2 0-1.7-1.4-3.2-3.1-3.2h-2.4v-2.3c0-1.8-1.4-3.2-3.2-3.2-1.7 0-3.2 1.4-3.2 3.1v2.4h-2.3c-1.8 0-3.2 1.4-3.2 3.2-.1 1.7 1.3 3.2 3.2 3.2-.1 0-.1 0 0 0z" data-original="#f5c84c" class=""></path><circle cx="56.506" cy="140.6" r="3.4" fill="#00ffff" data-original="#70d6f9" class=""></circle><circle cx="179.506" cy="15.4" r="3.4" fill="#fc657e" data-original="#fc657e" class=""></circle><path fill="#87d147" d="M161.288 229.2c-3.1-.6-5.6-3-6.2-6.1 0-.1-.3-.1-.3 0-.6 3.1-3.1 5.5-6.2 6.1-.1 0-.1.2 0 .3 3.1.6 5.6 3 6.2 6.1 0 .1.3.1.3 0 .6-3.1 3.1-5.5 6.2-6.1.1-.1.1-.3 0-.3z" data-original="#87d147" class=""></path><path fill="#00ffff" d="M189.088 42.2c4.5-.8 8-4.3 8.9-8.7 0-.2.4-.2.4 0 .9 4.4 4.4 7.9 8.9 8.7.2 0 .2.3 0 .4-4.5.8-8 4.3-8.9 8.7 0 .2-.4.2-.4 0-.9-4.4-4.4-7.9-8.9-8.7-.2-.1-.2-.4 0-.4z" data-original="#70d6f9" class=""></path><path d="M128 190.372c-17.49 0-31.718-14.229-31.718-31.719S110.51 126.935 128 126.935s31.718 14.229 31.718 31.718S145.49 190.372 128 190.372zm0-58.437c-14.732 0-26.718 11.986-26.718 26.718 0 14.733 11.986 26.719 26.718 26.719s26.718-11.986 26.718-26.719c0-14.732-11.986-26.718-26.718-26.718zM128 91.917c-7.283 0-13.866-4.34-16.771-11.058a2.5 2.5 0 0 1 4.589-1.985c2.113 4.886 6.895 8.042 12.182 8.042 5.281 0 10.06-3.151 12.176-8.027a2.5 2.5 0 1 1 4.587 1.991c-2.909 6.705-9.49 11.037-16.763 11.037zM211.567 252.52c-7.208 0-13.763-4.278-16.701-10.898a2.5 2.5 0 1 1 4.57-2.028c2.137 4.815 6.898 7.926 12.131 7.926 5.217 0 9.974-3.099 12.117-7.894a2.498 2.498 0 0 1 3.302-1.262 2.498 2.498 0 0 1 1.262 3.302c-2.946 6.593-9.494 10.854-16.681 10.854zM44.433 252.52c-7.293 0-13.879-4.348-16.78-11.078a2.5 2.5 0 0 1 4.592-1.98c2.109 4.895 6.894 8.057 12.188 8.057 5.313 0 10.104-3.177 12.205-8.095a2.498 2.498 0 0 1 3.281-1.316 2.498 2.498 0 0 1 1.316 3.281c-2.888 6.762-9.484 11.131-16.802 11.131z" fill="#000000" data-original="#000000" class=""></path></g></svg>