<svg xmlns="http://www.w3.org/2000/svg" version="1.1" xmlns:xlink="http://www.w3.org/1999/xlink" xmlns:svgjs="http://svgjs.com/svgjs" width="512" height="512" x="0" y="0" viewBox="0 0 256 256" style="enable-background:new 0 0 512 512" xml:space="preserve" class=""><g><path fill="#9be5f9" d="M126.098 139.613v-29.819a7.5 7.5 0 0 1 7.838-7.49 7.493 7.493 0 0 1 7.175 7.49v29.771C154.814 136.151 165 123.745 165 109c0-17.369-14.131-31.5-31.5-31.5S102 91.631 102 109c0 14.819 10.29 27.274 24.098 30.613z" data-original="#9be5f9" class=""></path><path fill="#f9d0b4" d="M179.381 142.123a7.508 7.508 0 0 0-8.244 7.471v-.187c0-3.921-2.866-7.422-6.769-7.794a7.508 7.508 0 0 0-8.244 7.471v-.51a7.508 7.508 0 0 0-8.244-7.471c-3.903.372-6.769 3.874-6.769 7.794v-39.103a7.493 7.493 0 0 0-7.175-7.49 7.5 7.5 0 0 0-7.838 7.49v62.735c0 .653-.839.92-1.217.387L115.107 158a7.847 7.847 0 0 0-13.567 7.747l11.377 24.605c2.201 4.901 4.908 9.55 7.926 13.995 2.592 3.819 5.039 8.662 5.383 16.793l.128 32.359 54.674-.005v-37.381c0-7.771 2.418-12.435 3.563-16.577a32.127 32.127 0 0 0 1.559-9.886v-39.733c0-3.92-2.866-7.422-6.769-7.794z" data-original="#f9d0b4" class=""></path><circle cx="201" cy="64.5" r="15" fill="#00abab" data-original="#87d147" class=""></circle><circle cx="72" cy="64.5" r="15" fill="#008585" data-original="#fca265" class=""></circle><circle cx="62" cy="143.5" r="22" fill="#00dbdb" data-original="#fc657e" class=""></circle><path fill="#00f7f7" d="M126.098 129.164V109.794a7.5 7.5 0 0 1 7.838-7.49 7.493 7.493 0 0 1 7.175 7.49v19.293C149.223 126.012 155 118.19 155 109c0-11.874-9.626-21.5-21.5-21.5S112 97.126 112 109c0 9.269 5.876 17.144 14.098 20.164z" data-original="#70d6f9" class=""></path><circle cx="133.5" cy="31.5" r="22" fill="#00dbdb" data-original="#6cadef" class=""></circle><path fill="#00dbdb" d="M192.435 25.21c-3.157-.561-5.613-3.017-6.245-6.104 0-.14-.281-.14-.281 0-.631 3.087-3.087 5.543-6.245 6.104-.14 0-.14.21 0 .281 3.157.561 5.613 3.017 6.245 6.104 0 .14.281.14.281 0 .632-3.087 3.087-5.543 6.245-6.104.14-.071.14-.281 0-.281z" data-original="#fc657e" class=""></path><path fill="#00f7f7" d="M213.426 173.5h2.3v-2.3c0-1.7 1.4-3.2 3.2-3.2s3.2 1.4 3.2 3.2v2.3h2.3c1.7 0 3.2 1.4 3.2 3.2s-1.4 3.2-3.2 3.2h-2.3v2.3c0 1.7-1.4 3.2-3.2 3.2s-3.2-1.4-3.2-3.2v-2.3h-2.3c-1.7 0-3.2-1.4-3.2-3.2s1.4-3.2 3.2-3.2z" data-original="#70d6f9" class=""></path><circle cx="200.624" cy="210.6" r="3.4" fill="#00f7f7" data-original="#f5c84c" class=""></circle><path d="M141.11 158.737a2.5 2.5 0 0 1-2.5-2.5v-6.643a2.5 2.5 0 1 1 5 0v6.643a2.5 2.5 0 0 1-2.5 2.5zM156.124 158.737a2.5 2.5 0 0 1-2.5-2.5v-6.643a2.5 2.5 0 1 1 5 0v6.643a2.5 2.5 0 0 1-2.5 2.5zM171.137 158.737a2.5 2.5 0 0 1-2.5-2.5v-6.643a2.5 2.5 0 1 1 5 0v6.643a2.5 2.5 0 0 1-2.5 2.5z" fill="#444654" data-original="#000000" class=""></path><path d="M126.354 256a2.5 2.5 0 0 1-2.5-2.49l-.128-32.359c-.323-7.604-2.685-12.058-4.951-15.4-3.344-4.925-6.006-9.627-8.138-14.374l-11.366-24.58c-2.091-4.656-.535-10.06 3.688-12.875a10.291 10.291 0 0 1 14.189 2.635l6.449 9.841v-56.603a9.912 9.912 0 0 1 3.086-7.222 9.938 9.938 0 0 1 7.361-2.766 9.979 9.979 0 0 1 9.565 9.988v30.162a9.527 9.527 0 0 1 4.032-1.341 10.043 10.043 0 0 1 8.706 3.607 10.061 10.061 0 0 1 8.257-3.097c2.681.256 5.054 1.642 6.693 3.673a9.8 9.8 0 0 1 .614-.609 10.064 10.064 0 0 1 7.705-2.555c5.064.483 9.032 5 9.032 10.283l-.001 39.733c0 3.607-.56 7.175-1.663 10.605-.292 1.044-.646 2.086-1.021 3.189-1.143 3.362-2.438 7.173-2.438 12.669v37.381a2.5 2.5 0 1 1-5 0v-37.381c0-6.322 1.5-10.734 2.704-14.278.357-1.05.694-2.042.95-2.965.009-.035.02-.069.03-.103a29.566 29.566 0 0 0 1.438-9.117l.001-39.733c0-2.734-1.979-5.064-4.507-5.306a4.958 4.958 0 0 0-3.866 1.277 5.017 5.017 0 0 0-1.641 3.706 2.5 2.5 0 1 1-5 0v-.187c0-2.734-1.979-5.064-4.506-5.306a4.966 4.966 0 0 0-3.867 1.277 5.02 5.02 0 0 0-1.64 3.706 2.5 2.5 0 1 1-5 0v-.51a5.017 5.017 0 0 0-1.641-3.706 4.968 4.968 0 0 0-3.866-1.276c-2.527.241-4.507 2.571-4.507 5.305a2.5 2.5 0 1 1-5 0v-39.103a4.99 4.99 0 0 0-4.783-4.993 4.926 4.926 0 0 0-3.687 1.382 4.956 4.956 0 0 0-1.543 3.61v62.735a3.16 3.16 0 0 1-2.21 3.021 3.158 3.158 0 0 1-3.548-1.19l-9.823-14.99c-1.636-2.31-4.857-2.908-7.284-1.289a5.331 5.331 0 0 0-1.912 6.641l11.366 24.58c2.022 4.503 4.546 8.957 7.725 13.64 2.662 3.924 5.434 9.141 5.813 18.092l.13 32.455a2.5 2.5 0 0 1-2.49 2.51l-.007.001zM201 82c-9.649 0-17.5-7.851-17.5-17.5S191.351 47 201 47s17.5 7.851 17.5 17.5S210.649 82 201 82zm0-30c-6.893 0-12.5 5.607-12.5 12.5S194.107 77 201 77s12.5-5.607 12.5-12.5S207.893 52 201 52zM72 82c-9.649 0-17.5-7.851-17.5-17.5S62.351 47 72 47s17.5 7.851 17.5 17.5S81.649 82 72 82zm0-30c-6.893 0-12.5 5.607-12.5 12.5S65.107 77 72 77s12.5-5.607 12.5-12.5S78.893 52 72 52zM62 168c-13.51 0-24.5-10.991-24.5-24.5S48.49 119 62 119s24.5 10.991 24.5 24.5S75.51 168 62 168zm0-44c-10.752 0-19.5 8.748-19.5 19.5S51.248 163 62 163s19.5-8.748 19.5-19.5S72.752 124 62 124z" fill="#444654" data-original="#000000" class=""></path><path d="M151.835 99.138a2.5 2.5 0 0 1-1.361-4.6l36.005-23.297a2.5 2.5 0 0 1 2.717 4.198l-36.005 23.297c-.42.272-.89.402-1.356.402zM115.825 98.252a2.483 2.483 0 0 1-1.461-.473L83.501 75.518a2.5 2.5 0 0 1 2.926-4.055l30.863 22.262a2.5 2.5 0 0 1-1.465 4.527zM82.438 136.309a2.5 2.5 0 0 1-1.095-4.749l31.021-15.08a2.5 2.5 0 0 1 2.186 4.497l-31.021 15.08a2.487 2.487 0 0 1-1.091.252z" fill="#444654" data-original="#000000" class=""></path><path d="M125.642 131.491c-.304 0-.613-.056-.914-.174-9.25-3.639-15.228-12.398-15.228-22.317 0-13.234 10.767-24 24-24s24 10.766 24 24c0 9.874-5.939 18.62-15.133 22.282a2.5 2.5 0 0 1-1.85-4.645c7.279-2.899 11.982-9.822 11.982-17.636 0-10.477-8.523-19-19-19s-19 8.523-19 19c0 7.85 4.732 14.783 12.058 17.664a2.5 2.5 0 0 1-.915 4.826zM133.5 56C119.99 56 109 45.009 109 31.5S119.99 7 133.5 7 158 17.991 158 31.5 147.01 56 133.5 56zm0-44c-10.752 0-19.5 8.748-19.5 19.5S122.748 51 133.5 51 153 42.252 153 31.5 144.252 12 133.5 12z" fill="#444654" data-original="#000000" class=""></path><path d="M133.5 89.292a2.5 2.5 0 0 1-2.5-2.5v-32.5a2.5 2.5 0 1 1 5 0v32.5a2.5 2.5 0 0 1-2.5 2.5z" fill="#444654" data-original="#000000" class=""></path><path fill="#00f7f7" d="M77.624 21.75c-4.5-.8-8-4.3-8.9-8.7 0-.2-.4-.2-.4 0-.9 4.4-4.4 7.9-8.9 8.7-.2 0-.2.3 0 .4 4.5.8 8 4.3 8.9 8.7 0 .2.4.2.4 0 .9-4.4 4.4-7.9 8.9-8.7.2-.1.2-.4 0-.4z" data-original="#f5c84c" class=""></path><circle cx="100.624" cy="3.4" r="3.4" fill="#00abab" data-original="#87d147" class=""></circle></g></svg>