<?xml version="1.0" encoding="UTF-8" standalone="no"?><!DOCTYPE svg PUBLIC "-//W3C//DTD SVG 1.1//EN" "http://www.w3.org/Graphics/SVG/1.1/DTD/svg11.dtd"><svg width="100%" height="100%" viewBox="0 0 32 32" version="1.1" xmlns="http://www.w3.org/2000/svg" xmlns:xlink="http://www.w3.org/1999/xlink" xml:space="preserve" style="fill-rule:evenodd;clip-rule:evenodd;stroke-linejoin:round;stroke-miterlimit:1.41421;"><g><path d="M5.633,5.449c1.095,-0.883 2.37,-1.027 3.085,-1.027c0.036,0 0.071,0 0.106,0.001c0.838,0.011 6.193,0.222 6.42,0.231c0.436,0.032 10.487,0.801 12.03,1.745c1.602,0.981 1.832,3.882 1.841,4.005l0.001,0.019l0,13.228c0,2.92 -1.69,4.567 -3.012,5.106c-1.059,0.577 -2.272,0.901 -3.084,0.975c-1.087,0.099 -6.394,0.369 -12.858,0.739c-6.792,0.767 -6.778,-6.437 -6.778,-6.437c0,0 -0.746,-10.953 -0.746,-14.109c0,-2.181 2.101,-3.86 2.995,-4.476l0,0Zm21.4,22.096c0.835,-0.778 1.571,-2.066 1.571,-3.894l0,-13.218c-0.014,-0.169 -0.257,-2.777 -1.597,-3.597c-1.194,-0.732 -8.917,-1.455 -11.792,-1.672c-0.047,-0.002 -5.567,-0.219 -6.399,-0.23c-0.033,-0.001 -0.065,-0.001 -0.098,-0.001c-0.683,0 -1.588,0.13 -2.418,0.663l12.025,17.692l8.708,4.257Z" style="fill:#0b0b16;"/><path d="M15.234,4.909c0,0 -5.569,-0.219 -6.415,-0.231c-1.719,-0.032 -5.371,0.729 -4.937,7.421c0.525,7.161 0.881,12.333 0.881,12.333c0,0 0.426,5.385 4.504,5.172c4.077,-0.213 15.621,-0.871 16.069,-0.909c1.151,-0.1 3.524,-1.663 3.524,-5.044c0,-4.49 0,-13.228 0,-13.228c0,0 -0.211,-2.882 -1.719,-3.806c-1.509,-0.923 -11.907,-1.708 -11.907,-1.708l0,0Z" style="fill:#3087bc;fill-rule:nonzero;"/><path d="M16.269,20.581c1.023,3.79 2.555,9.414 2.662,9.691c0.077,0.189 0.826,1.216 2.306,1.216l0,0c0.157,0 0.32,-0.011 0.482,-0.035c1.731,-0.247 2.38,-0.957 2.491,-1.338c0.103,-0.357 1.817,-9.602 2.474,-13.158c0.005,-0.134 -0.015,-0.658 -0.585,-0.701c-0.303,-0.022 -0.662,-0.034 -1.067,-0.034c-0.476,0 -0.846,0.017 -0.849,0.017l-0.023,0.001l-0.022,-0.003c-0.031,0.001 -0.365,0.022 -0.527,0.762c-0.224,1.021 -1.878,10.255 -1.895,10.348l-0.498,0.023l-2.048,-7.51c-0.084,-0.174 -0.359,-0.617 -0.653,-0.55c-0.258,0.06 -0.559,0.09 -0.895,0.09c-0.192,0 -0.357,-0.01 -0.469,-0.019l-0.884,1.2l0,0Zm4.968,11.419l0,0c-1.775,0 -2.657,-1.232 -2.78,-1.537c-0.144,-0.356 -2.452,-8.895 -2.714,-9.868l-0.033,-0.119l1.207,-1.636l0.149,0.019c0.002,0 0.241,0.03 0.556,0.03c0.297,0 0.56,-0.026 0.78,-0.077c0.059,-0.014 0.12,-0.021 0.179,-0.021c0.65,0 1.023,0.786 1.064,0.875l0.013,0.038l1.755,6.437c0.452,-2.515 1.518,-8.426 1.698,-9.251c0.253,-1.152 0.927,-1.17 1.065,-1.163c0.078,-0.003 0.419,-0.016 0.856,-0.016c0.417,0 0.789,0.012 1.105,0.035c0.897,0.067 1.083,0.852 1.057,1.258l-0.004,0.029c-0.097,0.522 -2.359,12.777 -2.489,13.225c-0.18,0.619 -1.049,1.436 -2.909,1.702c-0.187,0.027 -0.374,0.04 -0.555,0.04l0,0Z" style="fill:#0b0b16;fill-rule:nonzero;"/><path d="M15.989,20.528c0,0 2.563,9.487 2.705,9.839c0.142,0.352 1.172,1.61 3.062,1.34c1.89,-0.27 2.572,-1.08 2.699,-1.521c0.128,-0.44 2.483,-13.199 2.483,-13.199c0,0 0.061,-0.92 -0.82,-0.986c-0.881,-0.065 -1.947,-0.018 -1.947,-0.018c0,0 -0.582,-0.076 -0.81,0.961c-0.227,1.038 -1.897,10.358 -1.897,10.358l-2.053,-7.53c0,0 -0.38,-0.843 -0.952,-0.711c-0.651,0.151 -1.426,0.051 -1.426,0.051l-1.044,1.416l0,0Z" style="fill:#fff;fill-rule:nonzero;"/><path d="M7.745,12.176c0.388,0 0.677,0.215 0.774,0.575c0.127,0.471 3.388,12.901 3.421,13.026c0,0 0.191,0.633 0.648,0.633c0.065,0 0.136,-0.012 0.21,-0.035c0.82,-0.263 2.084,-0.642 2.246,-0.691c0.075,-0.042 0.17,-0.208 0.078,-0.584c-0.176,-0.724 -3.553,-13.177 -3.587,-13.303l-0.007,-0.037c-0.024,-0.194 0.054,-0.602 0.514,-0.756c0.386,-0.129 1.665,-0.473 1.719,-0.487c0.096,-0.028 0.584,-0.205 0.444,-0.835c-0.186,-0.843 -0.525,-1.989 -0.562,-2.116c-0.026,-0.061 -0.231,-0.503 -0.686,-0.435c-0.537,0.082 -6.075,1.655 -8.946,2.481c-0.103,0.05 -0.624,0.341 -0.41,1.065c0.294,0.994 0.642,2.05 0.646,2.06c0.015,0.046 0.109,0.273 0.411,0.273c0.041,0 0.084,-0.004 0.13,-0.012c0.63,-0.109 2.749,-0.794 2.771,-0.801l0.03,-0.008c0.011,-0.002 0.072,-0.013 0.156,-0.013l0,0Zm4.843,14.746c-0.844,0 -1.13,-0.968 -1.142,-1.009c-0.034,-0.131 -3.295,-12.56 -3.421,-13.029c-0.016,-0.059 -0.053,-0.196 -0.28,-0.196c-0.021,0 -0.038,0.001 -0.049,0.002c-0.235,0.076 -2.182,0.701 -2.821,0.812c-0.074,0.013 -0.147,0.02 -0.217,0.02l0,0c-0.555,-0.001 -0.83,-0.411 -0.898,-0.628c-0.003,-0.007 -0.353,-1.071 -0.649,-2.072c-0.287,-0.97 0.339,-1.527 0.711,-1.686l0.03,-0.01c0.339,-0.098 8.323,-2.393 9.028,-2.5c0.059,-0.009 0.119,-0.014 0.177,-0.014c0.761,0 1.054,0.747 1.066,0.779l0.007,0.017c0.003,0.013 0.374,1.256 0.575,2.164c0.201,0.907 -0.442,1.337 -0.81,1.438c-0.014,0.004 -1.32,0.355 -1.692,0.479c-0.142,0.048 -0.167,0.14 -0.168,0.2c0.218,0.804 3.409,12.57 3.584,13.291c0.231,0.949 -0.373,1.176 -0.399,1.185c-0.026,0.008 -1.398,0.419 -2.266,0.697c-0.125,0.04 -0.248,0.06 -0.366,0.06l0,0Z" style="fill:#0b0b16;fill-rule:nonzero;"/><path d="M7.637,12.44c0,0 0.507,-0.098 0.635,0.377c0.128,0.476 3.42,13.025 3.42,13.025c0,0 0.303,1.058 1.184,0.776c0.881,-0.282 2.259,-0.694 2.259,-0.694c0,0 0.415,-0.148 0.236,-0.884c-0.18,-0.736 -3.59,-13.31 -3.59,-13.31c0,0 -0.042,-0.355 0.341,-0.483c0.384,-0.128 1.705,-0.483 1.705,-0.483c0,0 0.829,-0.228 0.628,-1.137c-0.201,-0.909 -0.571,-2.145 -0.571,-2.145c0,0 -0.27,-0.709 -0.966,-0.603c-0.696,0.105 -8.996,2.492 -8.996,2.492c0,0 -0.864,0.37 -0.566,1.379c0.298,1.008 0.648,2.067 0.648,2.067c0,0 0.171,0.547 0.827,0.433c0.656,-0.114 2.806,-0.81 2.806,-0.81l0,0Z" style="fill:#fff;fill-rule:nonzero;"/><path d="M24.065,8.063l0.053,0.402l0.189,0.312l0.144,0.145l0.368,0.192l0.55,0.028l0.557,-0.203l0.253,-0.193c0,0 0.166,-0.2 0.192,-0.213c0.025,-0.014 0.214,-0.301 0.214,-0.301l0.013,-0.136l-0.548,-0.119l-1.278,0.028l-0.707,0.058l0,0Z" style="fill:#fff;fill-rule:nonzero;"/><path d="M20.241,6.469l-0.096,0.439l0.079,0.461l0.122,0.294l0.198,0.242l0.431,0.313l0.741,0.148l0.517,-0.024l0.256,-0.108l0.261,-0.244l0.235,-0.362l-1.553,-0.906l-1.191,-0.253l0,0Z" style="fill:#fff;fill-rule:nonzero;"/><path d="M22.232,16.212l0.059,0.566l-0.058,0.762l-0.134,1.001l-0.756,1.841l-0.281,0.482l-0.748,-0.087l0.305,-0.613l0.488,-0.974l0.251,-1.115l0.082,-0.968l0.078,-1.106l0.714,0.211Z" style="fill:#a17425;fill-rule:nonzero;"/><path d="M19.008,17.483l0.797,-0.314l0.506,-0.275l0.702,-0.526l0.503,-0.385l-0.042,1.093l-0.109,0.887l-0.359,1.412l-0.407,0.947l-0.307,0.411l-0.239,-0.953l-0.48,-1.314l-0.56,-0.762l-0.005,-0.221l0,0Z" style="fill:#583839;fill-rule:nonzero;"/><path d="M15.126,11.497l0.282,0.642l-1.519,0.3l-1.258,0.59l-1.205,0.746l-0.501,0.363l-0.207,-0.775l1.287,-0.954l1.206,-0.526l1.213,-0.327l0.702,-0.059Z" style="fill:#583839;fill-rule:nonzero;"/><path d="M15.371,12.231l-0.582,1.303l-0.515,1.368l-1.169,-0.532l-2.115,-0.199l0.438,-0.46l1.068,-0.659l1.163,-0.52l1.233,-0.307l0.479,0.006Z" style="fill:#a17425;fill-rule:nonzero;"/><path d="M24.088,7.992l0.019,0.329l0.105,0.295l0.211,0.268l0.205,0.144l0.233,0.083l0.217,0.019l0.391,0.017l0.302,-0.123l0.293,-0.205l0.179,-0.193l0.161,-0.273l-0.018,-0.255l-0.482,-0.016l-1.223,-0.285l-0.593,0.195l0,0Zm-3.815,-1.627l-0.074,0.314l-0.081,0.34l0.054,0.275l0.162,0.356l0.262,0.287l0.245,0.198l0.295,0.126l0.238,0.058l0.221,0.06l0.603,-0.014l0.378,-0.189l0.201,-0.212l0.147,-0.255l-0.102,-0.105c0,0 -1.08,-0.74 -1.113,-0.736c-0.033,0.003 -1.436,-0.503 -1.436,-0.503l0,0Zm-4.665,4.47l0.279,0.355l0.442,0.348l0.636,-0.111l0.365,-0.28l0.711,-0.952l0.189,-0.92l0.064,-1.268l0.271,-0.862l0.337,-0.759l0.645,-0.748l0.678,-0.543l0.615,-0.196l1.08,-0.158l0.912,0.014l1.082,0.171l1.335,0.704l0.743,0.492l0.463,0.851l0.181,0.891l-0.026,1.209l-0.425,1.383l-0.71,1.698l-0.198,0.404l0.043,0.402l-0.143,0.421l-1.173,1.56l-1.579,1.263l-0.906,-0.277l-1.309,1.114l-1.208,0.5l0.249,0.391l-0.297,0.195l-1.799,0.003l-1.659,-0.549l-1.293,-1.136l-0.485,-1.166l-0.029,-0.589l0.554,0.259l0.553,-1.517l0.671,-1.233l-0.483,-0.837l0.624,-0.527l0,0Z" style="fill:#eb1c29;"/><path d="M15.025,8.198l0.173,1.199l0.109,0.591l0.305,0.919l0.357,0.53l0.544,0.106l0.384,-0.099l0.4,-0.17l0.315,-0.416l0.329,-0.51l0.102,-0.474l0.25,-1.14l0.106,-1.309l0.77,-1.496l0.555,-0.568c0,0 0.638,-0.322 0.683,-0.339c0.045,-0.016 0.601,-0.226 0.601,-0.226l1.066,-0.124l1.16,0.215l1.475,0.366l0.91,0.6l0.595,0.691l0.392,0.863l0.108,1.032l-0.154,1.06l-0.396,1.201l-0.617,1.074l-0.227,1.032l0.04,0.275l0.275,-0.029l0.385,-0.54l0.435,-0.822l0.834,-0.876l0.464,-0.884l0.305,-1.18l-0.092,-0.767l-0.116,-0.649l-0.374,-0.703l-0.009,-0.846l-0.19,-0.814l-0.289,-0.978l-0.707,-1.108l-0.904,-0.763l-0.255,-0.658l-0.524,-0.571l-0.641,-0.256l-1.257,-0.379l-0.986,-0.104l-0.414,0.136l-0.455,0.198l-0.458,0.373l-0.158,0.168l-0.77,0.278l-0.502,0.297l-0.495,0.365l-0.328,0.301l-0.169,0.158l-0.356,0.141l-0.351,0.303l-0.333,0.348l-0.435,0.174l-0.865,0.485l-0.471,0.699l-0.413,1.03l-0.012,0.557l0.024,0.554l0.24,0.949l0.032,0.53Z" style="fill:#ec9b25;fill-rule:nonzero;"/><path d="M26.521,8.436c-0.43,0.779 -1.345,0.803 -1.345,0.803c-1.467,-0.029 -1.166,-1.636 -1.166,-1.636l0.007,0.019l0.001,-0.024l2.471,0.276c-0.277,-2.046 -2.334,-2.953 -4.645,-2.961c-1.986,0.037 -3.344,1.723 -3.443,3.83c-0.118,2.717 -1.899,3.751 -2.8,2.326c-0.072,0.062 -0.204,0.181 -0.365,0.348l0.406,0.805c-0.984,1.354 -1.269,2.985 -1.269,2.985c-0.165,-0.118 -0.33,-0.221 -0.496,-0.31c0.081,0.655 0.391,1.349 1.067,2.045c0,0 1.553,1.518 4.068,0.952c-0.095,-0.12 -0.2,-0.238 -0.315,-0.354c0,0 1.566,-0.537 2.749,-1.721l0.865,0.276c0.675,-0.519 2.081,-1.706 2.854,-3.102c-0.134,-0.504 0.459,-1.55 0.802,-2.317c0.368,-0.847 0.541,-1.591 0.554,-2.24l0,0Zm-2.318,-0.25c0.109,1.245 1.813,1.055 2.138,0.137c-0.391,-0.035 -0.732,-0.06 -1.023,-0.08l0.003,0.015c0.017,0.164 -0.103,0.312 -0.268,0.33c-0.165,0.017 -0.312,-0.103 -0.33,-0.267c-0.004,-0.039 0,-0.077 0.01,-0.113c-0.235,-0.012 -0.411,-0.018 -0.53,-0.022l0,0Zm-8.692,1.765c0.128,0.669 0.69,2.252 1.859,0.979c0,0 0.606,-0.646 0.735,-2.333c0.502,-6.219 8.085,-4.127 8.626,-1.329c0.611,2.81 -1.554,5.104 -1.266,5.672c0.328,0.234 3.997,-6.929 0.138,-10.377c0.152,0.762 0.136,1.526 0.107,1.968l-0.198,0.256c-1.015,-0.752 -2.616,-0.932 -2.616,-0.932c-0.536,-2.401 -1.531,-2.644 -1.531,-2.644c-1.68,-0.17 -2.856,0.898 -3.176,1.228c0.196,0.144 0.365,0.461 0.47,1.048c0,0 0.429,1.764 -0.975,4.62c-0.265,0.552 -1.444,2.048 -2.173,1.844l0,0Zm-0.26,-1.398c-0.027,0.701 0.2,1.732 1.441,0.401c0.14,-0.113 2.164,-2.571 1.591,-5.722c0,0 -0.243,-1.1 -1.04,-0.18c0.979,0.134 0.877,1.986 0.347,3.566c-0.594,1.516 -1.646,2.759 -2.339,1.935l0,0Zm9.199,-7.507c-0.679,-0.351 -1.495,-0.548 -2.054,-0.65c0.815,0.948 0.747,2.758 0.723,3.136c1.214,0.147 2.062,0.629 2.371,0.831c-0.078,-2.153 -0.529,-3.039 -1.042,-3.316l0.002,-0.001l0,0Zm-1.399,2.478l-0.017,-0.021l0.005,0.02l0.012,0.001Zm-0.209,-0.697c-0.447,-3.381 -1.837,-2.368 -2.264,-1.965c0.379,-0.046 0.628,-0.032 0.628,-0.032c0.847,0.095 1.362,1.175 1.636,1.997Zm-7.336,4.348c0.606,-0.372 1.401,-1.688 1.062,-2.777c-1.062,0.849 -1.082,2.327 -1.062,2.777Zm-0.372,0.439l0.015,0.075c0.456,1.638 1.572,0.255 2.151,-1.241c0.457,-1.557 0.561,-3.465 -0.622,-2.995c-2.205,1.135 -1.871,3.688 -1.597,3.793c0.04,0.022 0.086,0.032 0.136,0.031c-0.197,-1.818 0.905,-2.895 1.229,-3.169c-0.013,-0.024 -0.026,-0.047 -0.04,-0.071c-0.134,-0.204 0.191,-0.353 0.26,-0.228c1.041,1.899 -0.794,3.916 -1.532,3.805l0,0Zm11.655,3.591c1.409,-1.823 1.033,-3.492 0.866,-3.866c-0.058,1.31 -0.376,2.656 -0.866,3.866Zm-5.405,5.124c-1.004,0.947 -2.152,1.323 -2.152,1.323c0.805,0.846 1.041,2.206 1.105,2.769c0.903,-1.557 1.032,-3.387 1.047,-4.092Zm-0.885,4.363l0.482,0.052c1.398,-2.205 1.098,-4.425 1.098,-4.425l-0.442,-0.124c0.107,2.42 -0.905,4.136 -1.138,4.497l0,0Zm-9.692,-6.25l-0.276,-1.049c1.704,-1.555 3.421,-1.901 4.226,-1.974c0.201,-0.212 0.429,-0.427 0.686,-0.645c-0.139,-0.309 -0.245,-0.697 -0.304,-1.168c-0.156,-0.311 -0.241,-0.841 -0.211,-1.675c-0.046,-0.133 -0.088,-0.282 -0.126,-0.449l-0.007,-0.034l-0.002,-0.009l-0.002,-0.009l-0.002,-0.009l-0.002,-0.008l-0.001,-0.009l-0.002,-0.009l-0.002,-0.008l-0.002,-0.01l-0.001,-0.01l-0.002,-0.008l-0.003,-0.011l-0.002,-0.014l-0.025,-0.121c-0.541,-1.136 0.124,-3.596 2.064,-4.123c0.189,-0.233 0.569,-0.645 0.945,-0.732c0.741,-0.926 1.737,-1.294 2.467,-1.439c0.798,-0.895 1.609,-0.91 1.693,-0.909l0.007,-0.01c1.737,0.138 2.864,0.857 2.864,0.857c0.303,0.299 0.512,0.685 0.654,1.1c1.503,1.048 2.153,2.771 2.218,4.641c1.485,2.274 -0.477,4.753 -1.285,5.519c-0.126,0.247 -0.259,0.485 -0.397,0.713c-0.214,0.334 -0.394,0.418 -0.517,0.423c-0.243,0.457 -1.073,1.804 -3.081,3.327c0.052,0.812 -0.025,2.554 -1.288,4.47l-1.079,-0.108c0,0 0.126,-1.381 -0.759,-2.718c0,0.001 -2.813,0.703 -4.577,-1.082c0,0 -1.089,-0.96 -1.206,-2.438c-1.404,-0.581 -2.663,-0.262 -2.663,-0.262l0,0Zm4.34,-2.079c-0.693,0.125 -2.48,0.541 -3.877,1.676c0.566,-0.024 1.947,-0.006 2.907,0.658c0,0 0.193,-1.193 0.97,-2.334Zm-4.17,1.559c0.32,-0.287 1.856,-1.555 4.263,-1.829l-0.192,-0.417c0,0 -2.239,0.052 -4.197,1.778l0.126,0.468Zm9.354,-7.305c-0.507,1.607 1.985,2.18 2.496,1.154c-0.314,-0.148 -0.613,-0.288 -0.887,-0.415c0.018,0.172 -0.102,0.32 -0.267,0.338c-0.164,0.017 -0.312,-0.103 -0.329,-0.268c-0.013,-0.116 0.043,-0.224 0.135,-0.283c-0.669,-0.309 -1.112,-0.51 -1.148,-0.526l0,0Zm2.885,0.817c-0.803,1.865 -2.577,0.824 -2.921,0.336c-0.39,-0.513 -0.245,-1.07 -0.174,-1.268c-0.212,-0.122 -0.332,-0.209 -0.332,-0.209l0.453,-0.497l2.978,1.631l-0.004,0.007l0,0Zm-4.306,2.095c0.412,-0.335 0.915,-0.203 1.038,-0.079c0.079,0.079 -0.128,0.16 -0.128,0.16c-0.084,0.177 1.093,0.726 1.378,0.686c2.127,-0.142 3.11,0.877 3.11,0.877c0.626,0.138 0.953,-0.075 0.953,-0.075l0.068,0.065c-0.377,0.277 -1.219,0.207 -1.219,0.207c-1.09,-0.961 -2.864,-0.794 -2.864,-0.794c-0.332,0.063 -1.965,-0.936 -2.217,-0.943c-0.136,-0.034 -0.119,-0.104 -0.119,-0.104l0,0Z" style="fill:#0b0b16;fill-rule:nonzero;"/><path d="M10.423,29.599l-0.586,0.271l-0.429,0.126l-0.515,0.136l-0.249,-0.063l-0.109,0.243" style="fill:#df9025;fill-rule:nonzero;"/><path d="M10.915,29.582l-0.789,0.508l-0.541,0.292l-0.417,0.144l-0.294,0.09l-0.192,-0.03l-0.087,-0.053l-0.05,-0.092l-0.01,-0.129l0.098,-0.092l1.22,-0.304l0.706,-0.269l0.202,-0.037l0.154,-0.028l0,0Z" style="fill:#df9025;fill-rule:nonzero;"/><path d="M13.104,16.324c0.449,0.978 1.614,2.69 4.292,2.816l-0.52,0.563l-0.843,0.945l-0.918,1.017l-1.081,1.228l-0.707,0.847l-1.212,1.416l-0.674,0.813l-0.74,0.894l-0.316,0.434l-0.476,0.631l-0.286,0.379l-0.524,0.797l-0.239,0.405l-0.194,0.418l-0.108,0.353l0.049,0.04l0.059,0.016l0.158,0.001l0.202,-0.028l0.231,-0.061l0.349,-0.105l0.391,-0.173l0.431,-0.205l0.409,-0.222l0.296,0.033l-0.378,0.265l-0.394,0.234l-0.83,0.45l-0.466,0.192l-0.56,0.139l-0.304,0.015l-0.287,-0.134l-0.265,-0.179l-0.151,-0.327l-0.04,-0.319l-0.009,-0.469l0.114,-0.778l0.232,-0.996l0.413,-1.177l0.528,-1.343l0.671,-1.547l0.878,-1.877l0.815,-1.614l1.822,-3.489l0.182,-0.298l0,0Z" style="fill:#fdcc50;"/><path d="M13.04,16.242c-0.077,-0.19 -0.108,-0.31 -0.109,-0.316l0.24,-0.059c0.019,0.08 0.387,1.488 1.877,2.361c1.375,0.646 2.253,0.654 2.253,0.654c0,0 0.128,0.117 0.054,0.138c-0.021,0.006 -0.141,-0.008 -0.309,-0.034l-0.014,0.127c-2.41,-0.273 -3.465,-1.764 -3.875,-2.607c-2.132,3.884 -3.539,6.78 -4.408,8.911c-0.915,2.242 -1.228,3.641 -1.171,4.428c0.026,0.371 0.131,0.597 0.274,0.727c0.143,0.13 0.34,0.181 0.595,0.164c0.075,-0.005 0.154,-0.017 0.237,-0.034c-0.039,-0.01 -0.076,-0.025 -0.11,-0.048c-0.085,-0.056 -0.134,-0.158 -0.14,-0.265c-0.013,-0.244 0.116,-0.573 0.411,-1.085c0.296,-0.51 0.768,-1.193 1.462,-2.095c1.352,-1.756 3.55,-4.343 6.944,-8.077l0.04,-0.061l0.389,-0.045l-0.153,0.146c-5.207,5.721 -7.628,8.776 -8.484,10.249c-0.14,0.239 -0.237,0.438 -0.298,0.595c0.046,0.002 0.095,0.002 0.148,-0.002c0.607,-0.039 1.042,-0.241 1.383,-0.441l1.151,-0.085c-0.454,0.335 -0.932,0.658 -1.461,0.945c-0.529,0.287 -1.051,0.501 -1.503,0.534l-0.003,0c-0.29,0.02 -0.56,-0.04 -0.762,-0.223c-0.203,-0.185 -0.321,-0.477 -0.349,-0.883c-0.059,-0.862 0.269,-2.274 1.188,-4.532c0.885,-2.172 2.321,-5.122 4.503,-9.087Zm-3.109,13.804c0.233,-0.129 0.477,-0.276 0.72,-0.43c-0.612,0.325 -1.244,0.591 -1.742,0.629c-0.081,0.006 -0.159,0.005 -0.234,-0.003c-0.012,0.054 -0.015,0.098 -0.012,0.131c0.007,0.061 0.02,0.075 0.039,0.089c0.02,0.014 0.067,0.028 0.144,0.022c0.225,-0.013 0.637,-0.189 1.085,-0.438l0,0Z" style="fill:#0b0b16;"/></g></svg>