<?xml version="1.0" encoding="UTF-8" standalone="no"?>
<!DOCTYPE svg PUBLIC "-//W3C//DTD SVG 1.1//EN" "http://www.w3.org/Graphics/SVG/1.1/DTD/svg11.dtd">
<svg width="100%" height="100%" viewBox="0 0 16 16" version="1.1" xmlns="http://www.w3.org/2000/svg" xmlns:xlink="http://www.w3.org/1999/xlink" xml:space="preserve" xmlns:serif="http://www.serif.com/" style="fill-rule:evenodd;clip-rule:evenodd;stroke-linejoin:round;stroke-miterlimit:2;">
    <g transform="matrix(0.0168151,0,0,0.0168151,7.46192,7.46192)">
        <g transform="matrix(1,0,0,1,-919.478,-493.837)">
            <path d="M1171.66,437.937C1168.26,439.937 1164.96,442.037 1161.46,443.937C1144.96,453.037 1128.86,462.637 1111.96,470.937C1084.56,484.337 1056.46,496.137 1027.66,506.037C1024.86,507.037 1021.96,508.237 1019.06,508.637C1015.36,509.137 1013.46,511.037 1012.26,514.337C1006.36,529.737 993.2,598 987.4,613.4C987,614.5 987.5,616.2 987.9,617.5C991.2,627.2 994.5,636.8 997.8,646.5C998.9,649.6 997.6,652.2 996.2,655C984.9,677.7 976.1,701.4 969.8,726C963.7,749.5 958.2,773.1 952.4,796.7C951.8,799.1 951.1,801.5 949.8,803.9C944.9,783.2 940.5,762.3 935,741.7C930.8,726.3 925.3,711.2 920.1,696.1C915.7,683.3 911.6,670.2 906,657.9C903,651.4 903.2,646.1 905.7,640C908.8,632.5 911.6,624.8 914.4,617.2C914.8,616.1 915,614.6 914.7,613.5C909.4,597.5 893.794,533.103 885.994,518.003C884.794,515.603 883.294,514.503 880.694,513.603C860.394,506.303 839.794,499.803 820.194,490.903C794.594,479.303 769.894,465.803 744.894,453.003C739.294,450.103 734.194,446.303 728.094,443.403C731.994,453.503 745.7,512.2 750.4,522C763.1,548.5 779.6,572.7 795.5,597.3C797,599.7 798.5,600.2 801.3,599.9C819.6,598 838,597.9 856.2,601.1C857.7,601.4 859.1,603.1 860.1,604.5C872.4,622.1 880.2,641.8 886.9,662C890.4,672.7 893.9,683.5 896.4,694.4C903.8,726.6 911.1,758.7 917.5,791.1C921.3,810.3 923.6,829.7 925.9,849.1C928.8,873.3 931.2,897.6 933.7,921.8C936,944.5 937.2,967.3 936.8,990.2C936.7,993.6 936.8,997.1 936.8,1001.6C930,996.2 923.6,991.2 917.4,986C895.7,967.5 877.7,945.6 859.6,923.8C835.3,894.7 813.6,863.8 792.9,832.1C782.7,816.4 777.6,799.6 777.8,781.2C778,755.3 774.7,729.7 770.3,704.3C763.3,664.2 752.8,624.9 738.3,586.9C733.3,573.6 726.4,561 720.8,547.9C711,524.9 702.3,501.5 697.8,476.8C694.7,460.1 692,443.4 689.4,426.6C686.5,407.7 683.7,388.9 681.2,370C679.7,358.1 678.6,346.1 677.9,334.1C677.3,323.7 676.9,313.2 677.3,302.7C677.7,290.7 678.8,278.7 679.8,266.8C679.9,265.3 681.1,263.5 682.3,262.4C695.8,251 711.3,242.8 726.5,234.1C764.2,212.2 803.7,194.1 844.2,178.2C869.2,168.4 889.4,153 905,131.2C918.8,111.9 928.6,90.7 933.7,67.4C935.2,60.6 940.1,57.1 944.8,53.1C949.7,48.9 954.1,49.2 959,53.2C964.1,57.4 968.8,61.5 970.4,68.6C977.3,99 992.1,125.2 1012.7,148.4C1024,161.2 1037.4,170.1 1053.1,176.3C1068.5,182.4 1083.8,188.6 1098.8,195.4C1134.6,211.7 1169.8,229.2 1203,250.4C1209.2,254.3 1215,258.8 1220.9,263.2C1222.1,264.1 1223.1,265.8 1223.3,267.3C1226.2,287.6 1226.4,308 1225.6,328.5C1224.5,357.3 1220.3,385.7 1215.8,414C1212,438.4 1208.5,462.9 1202.6,486.8C1196,513.4 1186.6,539.3 1174.2,564C1160.9,590.5 1152.2,618.6 1144.6,647C1137.7,672.9 1131.4,698.9 1128.3,725.5C1126.3,742.9 1125.3,760.5 1123.6,777.9C1122.6,788.2 1122.3,798.7 1119.6,808.5C1117.3,817 1112.6,825.1 1107.9,832.6C1087.4,865.6 1064.7,897.1 1039.5,926.6C1025.9,942.5 1012,958.1 997.6,973.2C987.7,983.6 976.7,993 964.1,1001C964,1000.1 963.9,999.6 963.9,999.1C964,991.8 964,984.4 964.4,977.1C965.6,955.8 966.6,934.4 968.2,913.1C969.4,897 971.1,881 973,865C979.7,809.5 988.5,754.5 1003.5,700.5C1010.1,676.5 1017,652.7 1027.3,630.1C1031.4,621 1037,612.5 1042.2,603.8C1043,602.4 1045.1,601.4 1046.7,601C1060.4,598 1074.4,598.7 1088.3,598.7C1089.7,598.7 1091.5,598.2 1092.4,597.3C1103.4,586.5 1113.9,575.3 1125.1,564.8C1131.5,558.8 1135.7,551.7 1139.9,544.3C1149.5,527.3 1165.46,457.037 1172.26,438.737C1172.36,438.437 1172.46,438.237 1172.46,437.937C1172.06,437.637 1171.86,437.837 1171.66,437.937ZM834.2,728.3C826.9,717.5 819.6,706.8 812.4,695.9C809.8,692 806.8,689 802.9,686.3C797.7,682.8 793.1,678.6 788.3,674.6C787.6,674 786.9,673.5 785.5,672.3C787.3,677.9 789,682.5 790.2,687.2C796.2,712.6 801.8,738.1 804.2,764.1C804.7,769.4 805.3,774.6 805.5,779.9C805.9,792.5 806,805.1 806.3,817.8C806.3,819.4 806.5,821.3 807.3,822.7C812.2,831.5 817,840.3 822.5,848.8C843.8,881.9 867.9,912.8 893.4,942.6C902.4,953.1 912.7,962.6 922.4,972.6C922.7,972.4 923,972.3 923.3,972.1C923.4,970.7 923.7,969.3 923.7,967.9C923.2,959.3 922.7,950.7 921.9,942.1C920,923.1 918.1,904.1 915.9,885.2C913.4,864.1 910.6,843 907.5,822C905.5,808.7 902.4,795.6 900.1,782.4C897.3,766.4 894.3,750.6 888.9,735.2C885.6,725.9 882.6,716.5 879.6,707.1C873.1,686.7 866.4,666.3 855.9,647.4C854.8,645.5 853.3,643.5 851.5,642.5C839.2,635.6 826.6,629.1 814.3,622.1C810.2,619.8 806.5,616.6 802.8,613.7C801.3,612.5 800.3,610.8 799,609.5C781.3,591.4 763.3,573.5 749.7,551.9C749.3,551.2 748.6,550.7 747.9,549.9C747.1,552.4 746.6,554.8 745.6,556.9C744.6,558.9 744.6,560.5 745.6,562.5C749.6,570 753.2,577.7 757.3,585.1C770.5,608.8 783.9,632.3 800.7,653.8C804.2,658.3 807.7,663 810.5,668C819.9,685.3 827,703.6 833.3,722.2C833.7,724.2 833.8,726.4 834.2,728.3ZM920.3,208.2C920.2,208.1 920.1,208 920,207.9C920.3,207.4 920.4,206.8 920.8,206.4C930,195.4 935.8,182.6 941.1,169.4C944.2,161.7 945.8,154.2 945.5,145.7C944.7,127.5 944.9,109.2 944.7,91C944.7,89.7 944.5,88.4 944.5,87.8C941.1,95.6 937.9,103.9 933.9,111.7C930.3,118.7 926.5,125.9 921.2,131.6C914.3,139 905.8,144.9 898,151.4C889.7,158.4 881.3,165.1 873.4,172.5C867.3,178.1 860.4,182.1 852.9,185.1C820.2,198 787.2,210.4 756,226.8C734.4,238.1 713.5,250.1 697.2,268.7C696.2,269.8 695.2,271.6 695.4,273C696,278.7 696.4,284.5 698,289.9C700.9,299.1 705,307.9 708,317C718.6,349.6 718.494,333.903 728.894,366.503C730.194,370.503 732.394,374.603 732.094,378.503C731.394,387.503 729.494,396.303 727.994,405.703C722.694,406.003 717.094,406.403 710.994,406.803C712.094,408.003 712.694,409.003 713.594,409.703C721.494,416.203 729.194,422.903 737.294,429.003C745.194,434.903 753.194,440.703 761.694,445.503C785.894,459.003 810.894,471.203 836.694,481.603C848.794,486.503 861.094,490.803 873.394,495.303C873.694,494.903 873.894,494.603 874.194,494.203C873.194,491.903 872.294,489.603 871.294,487.403C861.094,464.903 851.594,442.203 838.194,421.303C838.394,421.003 838.594,420.703 838.794,420.403C846.194,430.303 854.194,439.803 860.994,450.103C868.894,461.903 876.594,474.003 883.094,486.703C896.094,512.003 918.7,586 930.8,610.9C927.2,617.1 923.3,623.3 920,629.8C917.3,635.1 915.4,640.9 913,646.3C912.1,648.4 912.6,649.7 913.8,651.5C919.5,659.9 925.3,668.2 930.4,677C937.3,688.8 941.2,701.8 944.9,714.8C946.5,720.5 948.4,726.1 950.2,731.9C950.7,707 951.3,682.4 951.6,657.8C951.9,635.7 952.4,613.6 951.9,591.5C951.6,580.9 921,494.1 898.9,465C910.4,455.6 919.8,444.6 928.1,432.8C935.9,421.9 944,411.1 948.2,398.2C948.8,396.5 949.5,394.8 949.5,393C949.6,379.3 949.4,365.6 949.6,352C949.9,333.3 950.4,314.7 950.8,296C951,285.7 951.2,275.3 951.5,265C952,246.5 952.6,228 953,209.5C953.073,207.075 955.164,179.268 953.6,177.1C947.7,184.3 942,191.4 936.2,198.4C931.7,203.2 926.6,206.7 920.3,208.2ZM785.5,672.2C785.4,672.3 785.3,672.4 785.3,672.5C785.3,672.6 785.4,672.7 785.5,672.8C785.6,672.7 785.7,672.6 785.7,672.5C785.7,672.4 785.6,672.3 785.5,672.2Z" style="fill:rgb(26,132,173);fill-rule:nonzero;"/>
        </g>
        <g transform="matrix(1,0,0,1,-919.478,-493.837)">
            <path d="M647.8,457.7C652.5,470.2 657.1,482.8 662.1,495.2C663.9,499.7 666.8,503.7 669.5,507.8C702.3,555.6 725.3,607.6 736.8,664.7C741,685.8 743.8,707.2 745,728.7C745.5,738.6 744.7,748.6 744.2,758.6C744,762.9 742.8,763.2 738.9,761.5C709.8,748.9 682.8,732.6 657.6,713.5C649,707 640.4,700.4 632.1,693.6C630,691.9 628.7,689.3 627.1,687.1C611.4,666.1 599.8,642.7 588.4,619.2C583,608 577.4,596.9 572.4,585.5C569.5,579 567.2,572.1 565.2,565.2C564.5,562.8 565,559.7 565.9,557.4C568.7,550.7 571.7,544 575.1,537.6C587.6,514.1 599.9,490.5 615.3,468.6C615.9,467.7 615.9,465.9 615.5,464.8C600.2,426.3 588.7,386.6 577.7,346.8C573.1,330 570.5,312.6 567.5,295.3C565.3,282.5 563.5,269.5 562.2,256.6C561.3,247.9 561.6,239.1 561.6,230.3C561.6,229 563.3,227.3 564.7,226.4C575.6,219.9 586.5,213.3 597.7,207.3C621.1,194.7 644.3,181.6 668.3,170.4C702.7,154.4 737.6,139.6 773.5,127.3C787.4,122.5 801.1,116.8 815.2,112.8C847.1,103.7 878.3,91.9 911.3,86.4C911.5,86.4 911.7,86.5 912.8,86.6C911.6,90.9 910.8,95.3 909,99.2C906.5,104.8 903.3,110 900.5,115.4C898.6,119.1 895.4,120.6 891.5,121.8C874.5,126.8 857.5,131.7 840.7,137.1C779.4,156.7 723.2,186.6 669.9,222.4C652.6,233.5 636,246 619.1,258C617.1,259.4 616.3,261 616.4,263.4C617.2,277.4 617.5,291.5 618.8,305.5C620.1,320.2 621.8,334.9 624,349.5C626.4,365 629.6,380.4 632.5,395.9C633.6,402 634.8,408.2 635.9,414.3C635.7,414.6 635.3,414.9 635.4,415.2C637.7,425.2 639.8,435.2 642.5,445.1C643.6,449.4 646,453.5 647.8,457.7Z" style="fill:rgb(26,132,173);fill-rule:nonzero;"/>
        </g>
        <g transform="matrix(1,0,0,1,-919.478,-493.837)">
            <path d="M1266.9,415.8C1270.4,397.5 1274.2,379.3 1277.2,361C1279.8,344.5 1281.8,327.9 1283.5,311.3C1284.9,297.4 1285,283.5 1286.6,269.6C1287.5,261.4 1282.3,257.5 1277.2,253.8C1258.2,240.2 1239,226.8 1219.5,213.9C1194.9,197.6 1169.1,183.4 1142.7,170.2C1104,150.9 1063.9,135.7 1022.4,123.9C1017.7,122.6 1012.9,121.4 1008.2,120C1007.3,119.8 1006.3,119.3 1005.8,118.6C999.1,109.6 993.9,99.8 991.4,88.8C991.2,88 991.4,87.2 991.4,85.9C1000.9,88 1010.3,89.6 1019.4,92.2C1037.1,97.2 1054.8,102.2 1072.2,108.2C1105.7,119.7 1139.1,131.6 1172.3,143.8C1186.2,148.9 1199.6,155.3 1213.2,161.4C1255.2,180.3 1295.8,202.1 1335.3,225.8C1339.3,228.2 1341.5,230.5 1341.4,235.8C1341.3,255.8 1339.7,275.6 1335.8,295.2C1332.4,312.1 1330.1,329.3 1325.7,346C1319.4,369.9 1312,393.6 1304.4,417.2C1299,433.8 1292.4,450 1286.5,466.4C1286.1,467.6 1286.6,469.7 1287.4,470.8C1305.3,497 1320,525 1334.2,553.4C1337,559.1 1337.3,564.3 1335.3,570.5C1329.9,587.5 1321.3,603 1313.7,619C1302.7,642.2 1291.1,665 1276.2,686C1269.2,695.9 1259.8,703 1250.3,710C1224.7,728.7 1198.3,746 1169.3,759.1C1166.7,760.3 1164,761.3 1161.4,762.5C1158.7,763.8 1157.2,763.1 1157.1,760.1C1156.7,750.1 1155.6,740.1 1156.1,730.2C1157.9,696.7 1163.1,663.8 1172.7,631.6C1185.9,587.4 1205.6,546.2 1232.3,508.5C1242.3,494.5 1248.2,478.8 1253.1,462.6C1253.4,461.5 1253.8,460.3 1254.1,459.1C1254.4,458.9 1254.9,458.8 1255,458.6C1258.2,449.5 1261.8,440.6 1264.5,431.3C1266.2,426.4 1266.2,421 1266.9,415.8Z" style="fill:rgb(26,132,173);fill-rule:nonzero;"/>
        </g>
    </g>
</svg>
