<?xml version="1.0" encoding="UTF-8" standalone="no"?>
<!DOCTYPE svg PUBLIC "-//W3C//DTD SVG 1.1//EN" "http://www.w3.org/Graphics/SVG/1.1/DTD/svg11.dtd">
<svg width="100%" height="100%" viewBox="0 0 64 64" version="1.1" xmlns="http://www.w3.org/2000/svg" xmlns:xlink="http://www.w3.org/1999/xlink" xml:space="preserve" xmlns:serif="http://www.serif.com/" style="fill-rule:evenodd;clip-rule:evenodd;stroke-linejoin:round;stroke-miterlimit:2;">
    <g transform="matrix(0.0672603,0,0,0.0672603,29.8477,29.8477)">
        <g transform="matrix(1,0,0,1,-919.478,-493.837)">
            <path d="M1164.5,490.8C1161.1,492.8 1157.8,494.9 1154.3,496.8C1137.8,505.9 1121.7,515.5 1104.8,523.8C1077.4,537.2 1049.3,549 1020.5,558.9C1017.7,559.9 1014.8,561.1 1011.9,561.5C1008.2,562 1006.3,563.9 1005.1,567.2C999.2,582.6 993.2,598 987.4,613.4C987,614.5 987.5,616.2 987.9,617.5C991.2,627.2 994.5,636.8 997.8,646.5C998.9,649.6 997.6,652.2 996.2,655C984.9,677.7 976.1,701.4 969.8,726C963.7,749.5 958.2,773.1 952.4,796.7C951.8,799.1 951.1,801.5 949.8,803.9C944.9,783.2 940.5,762.3 935,741.7C930.8,726.3 925.3,711.2 920.1,696.1C915.7,683.3 911.6,670.2 906,657.9C903,651.4 903.2,646.1 905.7,640C908.8,632.5 911.6,624.8 914.4,617.2C914.8,616.1 915,614.6 914.7,613.5C909.4,597.5 904.3,581.4 896.5,566.3C895.3,563.9 893.8,562.8 891.2,561.9C870.9,554.6 850.3,548.1 830.7,539.2C805.1,527.6 780.4,514.1 755.4,501.3C749.8,498.4 744.7,494.6 738.6,491.7C742.5,501.8 745.7,512.2 750.4,522C763.1,548.5 779.6,572.7 795.5,597.3C797,599.7 798.5,600.2 801.3,599.9C819.6,598 838,597.9 856.2,601.1C857.7,601.4 859.1,603.1 860.1,604.5C872.4,622.1 880.2,641.8 886.9,662C890.4,672.7 893.9,683.5 896.4,694.4C903.8,726.6 911.1,758.7 917.5,791.1C921.3,810.3 923.6,829.7 925.9,849.1C928.8,873.3 931.2,897.6 933.7,921.8C936,944.5 937.2,967.3 936.8,990.2C936.7,993.6 936.8,997.1 936.8,1001.6C930,996.2 923.6,991.2 917.4,986C895.7,967.5 877.7,945.6 859.6,923.8C835.3,894.7 813.6,863.8 792.9,832.1C782.7,816.4 777.6,799.6 777.8,781.2C778,755.3 774.7,729.7 770.3,704.3C763.3,664.2 752.8,624.9 738.3,586.9C733.3,573.6 726.4,561 720.8,547.9C711,524.9 702.3,501.5 697.8,476.8C694.7,460.1 692,443.4 689.4,426.6C686.5,407.7 683.7,388.9 681.2,370C679.7,358.1 678.6,346.1 677.9,334.1C677.3,323.7 676.9,313.2 677.3,302.7C677.7,290.7 678.8,278.7 679.8,266.8C679.9,265.3 681.1,263.5 682.3,262.4C695.8,251 711.3,242.8 726.5,234.1C764.2,212.2 803.7,194.1 844.2,178.2C869.2,168.4 889.4,153 905,131.2C918.8,111.9 928.6,90.7 933.7,67.4C935.2,60.6 940.1,57.1 944.8,53.1C949.7,48.9 954.1,49.2 959,53.2C964.1,57.4 968.8,61.5 970.4,68.6C977.3,99 992.1,125.2 1012.7,148.4C1024,161.2 1037.4,170.1 1053.1,176.3C1068.5,182.4 1083.8,188.6 1098.8,195.4C1134.6,211.7 1169.8,229.2 1203,250.4C1209.2,254.3 1215,258.8 1220.9,263.2C1222.1,264.1 1223.1,265.8 1223.3,267.3C1226.2,287.6 1226.4,308 1225.6,328.5C1224.5,357.3 1220.3,385.7 1215.8,414C1212,438.4 1208.5,462.9 1202.6,486.8C1196,513.4 1186.6,539.3 1174.2,564C1160.9,590.5 1152.2,618.6 1144.6,647C1137.7,672.9 1131.4,698.9 1128.3,725.5C1126.3,742.9 1125.3,760.5 1123.6,777.9C1122.6,788.2 1122.3,798.7 1119.6,808.5C1117.3,817 1112.6,825.1 1107.9,832.6C1087.4,865.6 1064.7,897.1 1039.5,926.6C1025.9,942.5 1012,958.1 997.6,973.2C987.7,983.6 976.7,993 964.1,1001C964,1000.1 963.9,999.6 963.9,999.1C964,991.8 964,984.4 964.4,977.1C965.6,955.8 966.6,934.4 968.2,913.1C969.4,897 971.1,881 973,865C979.7,809.5 988.5,754.5 1003.5,700.5C1010.1,676.5 1017,652.7 1027.3,630.1C1031.4,621 1037,612.5 1042.2,603.8C1043,602.4 1045.1,601.4 1046.7,601C1060.4,598 1074.4,598.7 1088.3,598.7C1089.7,598.7 1091.5,598.2 1092.4,597.3C1103.4,586.5 1113.9,575.3 1125.1,564.8C1131.5,558.8 1135.7,551.7 1139.9,544.3C1149.5,527.3 1158.3,509.9 1165.1,491.6C1165.2,491.3 1165.3,491.1 1165.3,490.8C1164.9,490.5 1164.7,490.7 1164.5,490.8ZM1141.6,361C1144.1,359 1146.8,357.2 1148.9,354.8C1154.4,348.6 1159.7,342.2 1165,335.9C1173.4,325.9 1182.3,316.4 1187.5,304.1C1192.8,291.5 1199,279.1 1204.7,266.9C1188.3,252.2 1169.2,242.9 1148.8,234C1149.4,235.1 1149.6,235.5 1149.8,235.7C1159.6,245.5 1169.3,255.2 1179.2,264.9C1181.3,267 1182.3,268.9 1181.2,272.1C1175.5,288.2 1170,304.4 1162,319.6C1154.8,333.1 1148,346.8 1141,360.4C1141,360.7 1140.9,361 1140.9,361.4C1141.1,361.4 1141.4,361.2 1141.6,361ZM993.6,471.4C987.3,474.6 980.9,477.9 974.4,481.2C969.7,475.2 965.2,468.7 959.8,462.8C952.5,454.8 949.1,445.9 950.1,434.9C950.8,427.6 950.2,420.2 950.2,411.9C936.1,431.3 923.9,451 906.3,467C909.5,468.3 912.3,469.6 915.2,470.6C921,472.7 925.9,475.8 929.3,481.1C934.1,488.7 938.9,496.3 943.8,503.8C950,513.1 953.1,523.1 951.8,534.4C951.4,537.7 951.7,541.1 951.7,544.5C954.1,540.2 955.5,535.8 957.8,531.7C966,517.2 974.3,502.8 982.7,488.5C986.1,482.8 990.1,477.4 993.9,471.8C994.1,471.5 994.2,471.2 994.4,470.8C994.2,471.1 993.9,471.2 993.6,471.4ZM1135.4,417.7C1134.1,419 1132.7,420.1 1131.6,421.5C1123.8,431.5 1115,440.5 1105,448.3C1103.4,449.5 1100.5,449.7 1098.4,449.3C1097.5,449.1 1096.5,446.4 1096.5,444.9C1096.5,441.1 1097,437.3 1097.3,432.8C1069.4,463.3 1048.8,497.8 1033,536.3C1036.7,535 1039.8,534.2 1042.6,532.8C1049.9,529.2 1057.1,525.5 1064.3,521.6C1073.6,516.5 1083.1,511.7 1091.9,505.7C1098.9,500.9 1105,494.8 1111,488.8C1113.9,485.9 1115.7,481.9 1118,478.5C1117.7,478.3 1117.4,478 1117.2,477.8C1116.1,478.3 1115.1,478.7 1114,479.3C1110,481.5 1106.1,483.9 1102.1,486C1101,486.6 1099.5,486.4 1098.2,486.5C1098.1,486.2 1098,485.8 1097.9,485.5C1101.6,481.6 1105.4,477.8 1108.9,473.7C1115.1,466.2 1120.8,458.4 1127,450.9C1129.6,447.8 1131.3,444.7 1131.8,440.5C1132.6,433 1134.4,425.7 1135.8,418.3C1135.9,418.1 1136,417.9 1136.1,417.7C1135.9,417.5 1135.6,417.6 1135.4,417.7ZM834.2,728.3C826.9,717.5 819.6,706.8 812.4,695.9C809.8,692 806.8,689 802.9,686.3C797.7,682.8 793.1,678.6 788.3,674.6C787.6,674 786.9,673.5 785.5,672.3C787.3,677.9 789,682.5 790.2,687.2C796.2,712.6 801.8,738.1 804.2,764.1C804.7,769.4 805.3,774.6 805.5,779.9C805.9,792.5 806,805.1 806.3,817.8C806.3,819.4 806.5,821.3 807.3,822.7C812.2,831.5 817,840.3 822.5,848.8C843.8,881.9 867.9,912.8 893.4,942.6C902.4,953.1 912.7,962.6 922.4,972.6C922.7,972.4 923,972.3 923.3,972.1C923.4,970.7 923.7,969.3 923.7,967.9C923.2,959.3 922.7,950.7 921.9,942.1C920,923.1 918.1,904.1 915.9,885.2C913.4,864.1 910.6,843 907.5,822C905.5,808.7 902.4,795.6 900.1,782.4C897.3,766.4 894.3,750.6 888.9,735.2C885.6,725.9 882.6,716.5 879.6,707.1C873.1,686.7 866.4,666.3 855.9,647.4C854.8,645.5 853.3,643.5 851.5,642.5C839.2,635.6 826.6,629.1 814.3,622.1C810.2,619.8 806.5,616.6 802.8,613.7C801.3,612.5 800.3,610.8 799,609.5C781.3,591.4 763.3,573.5 749.7,551.9C749.3,551.2 748.6,550.7 747.9,549.9C747.1,552.4 746.6,554.8 745.6,556.9C744.6,558.9 744.6,560.5 745.6,562.5C749.6,570 753.2,577.7 757.3,585.1C770.5,608.8 783.9,632.3 800.7,653.8C804.2,658.3 807.7,663 810.5,668C819.9,685.3 827,703.6 833.3,722.2C833.7,724.2 833.8,726.4 834.2,728.3ZM920.3,208.2C920.2,208.1 920.1,208 920,207.9C920.3,207.4 920.4,206.8 920.8,206.4C930,195.4 935.8,182.6 941.1,169.4C944.2,161.7 945.8,154.2 945.5,145.7C944.7,127.5 944.9,109.2 944.7,91C944.7,89.7 944.5,88.4 944.5,87.8C941.1,95.6 937.9,103.9 933.9,111.7C930.3,118.7 926.5,125.9 921.2,131.6C914.3,139 905.8,144.9 898,151.4C889.7,158.4 881.3,165.1 873.4,172.5C867.3,178.1 860.4,182.1 852.9,185.1C820.2,198 787.2,210.4 756,226.8C734.4,238.1 713.5,250.1 697.2,268.7C696.2,269.8 695.2,271.6 695.4,273C696,278.7 696.4,284.5 698,289.9C700.9,299.1 705,307.9 708,317C718.6,349.6 729,382.2 739.4,414.8C740.7,418.8 742.9,422.9 742.6,426.8C741.9,435.8 740,444.6 738.5,454C733.2,454.3 727.6,454.7 721.5,455.1C722.6,456.3 723.2,457.3 724.1,458C732,464.5 739.7,471.2 747.8,477.3C755.7,483.2 763.7,489 772.2,493.8C796.4,507.3 821.4,519.5 847.2,529.9C859.3,534.8 871.6,539.1 883.9,543.6C884.2,543.2 884.4,542.9 884.7,542.5C883.7,540.2 882.8,537.9 881.8,535.7C871.6,513.2 862.1,490.5 848.7,469.6C848.9,469.3 849.1,469 849.3,468.7C856.7,478.6 864.7,488.1 871.5,498.4C879.4,510.2 887.1,522.3 893.6,535C906.6,560.3 918.7,586 930.8,610.9C927.2,617.1 923.3,623.3 920,629.8C917.3,635.1 915.4,640.9 913,646.3C912.1,648.4 912.6,649.7 913.8,651.5C919.5,659.9 925.3,668.2 930.4,677C937.3,688.8 941.2,701.8 944.9,714.8C946.5,720.5 948.4,726.1 950.2,731.9C950.7,707 951.3,682.4 951.6,657.8C951.9,635.7 952.4,613.6 951.9,591.5C951.6,580.9 954,571.3 958.1,562C963.8,549.1 969.8,536.3 975.6,523.5C976.2,522.2 976.6,520.8 977,519.5C976.7,519.4 976.4,519.2 976.1,519.1C966.7,532.2 955.4,544.1 950.3,560.2C936.8,526.4 921,494.1 898.9,465C910.4,455.6 919.8,444.6 928.1,432.8C935.9,421.9 944,411.1 948.2,398.2C948.8,396.5 949.5,394.8 949.5,393C949.6,379.3 949.4,365.6 949.6,352C949.9,333.3 950.4,314.7 950.8,296C951,285.7 951.2,275.3 951.5,265C952,246.5 952.6,228 953,209.5C953.2,202.9 953,196.2 953,189.5C953.4,189.4 953.9,189.3 954.3,189.2C966.2,205.6 981.2,218.2 1000.4,225.1C981.4,212.4 966.8,195.4 953.6,177.1C947.7,184.3 942,191.4 936.2,198.4C931.7,203.2 926.6,206.7 920.3,208.2ZM1125.3,594.1C1119.7,601.5 1114.5,608.4 1109.2,615.2C1108.5,616.2 1107.4,617.1 1106.3,617.5C1103.5,618.5 1100.6,619.3 1097.7,620C1077.4,625.2 1059.8,635.6 1042.6,647.3C1036.3,651.6 1033.1,657 1031.7,664.1C1029.2,677.7 1026.5,691.2 1024.1,704.8C1019.1,733.5 1012.7,762.1 1011.8,791.4C1011.5,800.2 1011,809 1010.6,817.8C1013.9,811.2 1016.3,804.3 1019,797.6C1029.6,770.9 1043.2,745.8 1058.7,721.6C1079.2,689.4 1099.8,657.2 1122.3,626.4C1123.5,624.8 1125,622.9 1125,621.1C1125.5,612.4 1125.3,603.7 1125.3,594.1ZM1002.1,372.3C1010.3,366.7 1018.4,361.2 1026.3,355.8C1026.7,355.5 1027.1,355.2 1027.3,354.7C1032.3,345 1037.4,335.3 1038.9,324.3C1041.5,306.5 1041.3,288.6 1037.4,271C1036.6,267.4 1036.6,263.2 1031.4,261.1C1025.1,275.8 1018,290.2 1012.8,305.3C1007.4,321 1000.8,336.7 1002,354.1C1002.5,360.1 1002.1,366.2 1002.1,372.3ZM1089.8,405.6C1090.1,405.7 1090.4,405.8 1090.7,405.8C1096.5,387.3 1102.3,368.8 1108,350.3C1107.7,350.2 1107.4,350 1107,349.9C1079.5,374.3 1053.8,400.4 1030.1,428.5C1014.9,416.6 1002.1,402.8 991.8,386.6C996.1,404.2 1016.4,431 1032.4,440.9C1049.9,415.3 1069.9,392.1 1094.4,371.4C1092.9,383.5 1091.3,394.6 1089.8,405.6ZM1089.9,407.5C1089.9,407.7 1089.9,407.8 1089.8,408C1089.9,407.9 1089.9,407.7 1089.9,407.5ZM785.5,672.2C785.4,672.3 785.3,672.4 785.3,672.5C785.3,672.6 785.4,672.7 785.5,672.8C785.6,672.7 785.7,672.6 785.7,672.5C785.7,672.4 785.6,672.3 785.5,672.2Z" style="fill:rgb(26,132,173);fill-rule:nonzero;"/>
        </g>
        <g transform="matrix(1,0,0,1,-919.478,-493.837)">
            <path d="M647.8,457.7C652.5,470.2 657.1,482.8 662.1,495.2C663.9,499.7 666.8,503.7 669.5,507.8C702.3,555.6 725.3,607.6 736.8,664.7C741,685.8 743.8,707.2 745,728.7C745.5,738.6 744.7,748.6 744.2,758.6C744,762.9 742.8,763.2 738.9,761.5C709.8,748.9 682.8,732.6 657.6,713.5C649,707 640.4,700.4 632.1,693.6C630,691.9 628.7,689.3 627.1,687.1C611.4,666.1 599.8,642.7 588.4,619.2C583,608 577.4,596.9 572.4,585.5C569.5,579 567.2,572.1 565.2,565.2C564.5,562.8 565,559.7 565.9,557.4C568.7,550.7 571.7,544 575.1,537.6C587.6,514.1 599.9,490.5 615.3,468.6C615.9,467.7 615.9,465.9 615.5,464.8C600.2,426.3 588.7,386.6 577.7,346.8C573.1,330 570.5,312.6 567.5,295.3C565.3,282.5 563.5,269.5 562.2,256.6C561.3,247.9 561.6,239.1 561.6,230.3C561.6,229 563.3,227.3 564.7,226.4C575.6,219.9 586.5,213.3 597.7,207.3C621.1,194.7 644.3,181.6 668.3,170.4C702.7,154.4 737.6,139.6 773.5,127.3C787.4,122.5 801.1,116.8 815.2,112.8C847.1,103.7 878.3,91.9 911.3,86.4C911.5,86.4 911.7,86.5 912.8,86.6C911.6,90.9 910.8,95.3 909,99.2C906.5,104.8 903.3,110 900.5,115.4C898.6,119.1 895.4,120.6 891.5,121.8C874.5,126.8 857.5,131.7 840.7,137.1C779.4,156.7 723.2,186.6 669.9,222.4C652.6,233.5 636,246 619.1,258C617.1,259.4 616.3,261 616.4,263.4C617.2,277.4 617.5,291.5 618.8,305.5C620.1,320.2 621.8,334.9 624,349.5C626.4,365 629.6,380.4 632.5,395.9C633.6,402 634.8,408.2 635.9,414.3C635.7,414.6 635.3,414.9 635.4,415.2C637.7,425.2 639.8,435.2 642.5,445.1C643.6,449.4 646,453.5 647.8,457.7Z" style="fill:rgb(26,132,173);fill-rule:nonzero;"/>
        </g>
        <g transform="matrix(1,0,0,1,-919.478,-493.837)">
            <path d="M1266.9,415.8C1270.4,397.5 1274.2,379.3 1277.2,361C1279.8,344.5 1281.8,327.9 1283.5,311.3C1284.9,297.4 1285,283.5 1286.6,269.6C1287.5,261.4 1282.3,257.5 1277.2,253.8C1258.2,240.2 1239,226.8 1219.5,213.9C1194.9,197.6 1169.1,183.4 1142.7,170.2C1104,150.9 1063.9,135.7 1022.4,123.9C1017.7,122.6 1012.9,121.4 1008.2,120C1007.3,119.8 1006.3,119.3 1005.8,118.6C999.1,109.6 993.9,99.8 991.4,88.8C991.2,88 991.4,87.2 991.4,85.9C1000.9,88 1010.3,89.6 1019.4,92.2C1037.1,97.2 1054.8,102.2 1072.2,108.2C1105.7,119.7 1139.1,131.6 1172.3,143.8C1186.2,148.9 1199.6,155.3 1213.2,161.4C1255.2,180.3 1295.8,202.1 1335.3,225.8C1339.3,228.2 1341.5,230.5 1341.4,235.8C1341.3,255.8 1339.7,275.6 1335.8,295.2C1332.4,312.1 1330.1,329.3 1325.7,346C1319.4,369.9 1312,393.6 1304.4,417.2C1299,433.8 1292.4,450 1286.5,466.4C1286.1,467.6 1286.6,469.7 1287.4,470.8C1305.3,497 1320,525 1334.2,553.4C1337,559.1 1337.3,564.3 1335.3,570.5C1329.9,587.5 1321.3,603 1313.7,619C1302.7,642.2 1291.1,665 1276.2,686C1269.2,695.9 1259.8,703 1250.3,710C1224.7,728.7 1198.3,746 1169.3,759.1C1166.7,760.3 1164,761.3 1161.4,762.5C1158.7,763.8 1157.2,763.1 1157.1,760.1C1156.7,750.1 1155.6,740.1 1156.1,730.2C1157.9,696.7 1163.1,663.8 1172.7,631.6C1185.9,587.4 1205.6,546.2 1232.3,508.5C1242.3,494.5 1248.2,478.8 1253.1,462.6C1253.4,461.5 1253.8,460.3 1254.1,459.1C1254.4,458.9 1254.9,458.8 1255,458.6C1258.2,449.5 1261.8,440.6 1264.5,431.3C1266.2,426.4 1266.2,421 1266.9,415.8Z" style="fill:rgb(26,132,173);fill-rule:nonzero;"/>
        </g>
        <g transform="matrix(1,0,0,1,-919.478,-493.837)">
            <path d="M824.5,436.3C805.9,421.8 786,409 765.4,397.7C757,393.1 752,386.2 747,378.8C735.7,362.1 726.4,344.4 718.3,325.9C718.5,325.7 718.7,325.6 718.9,325.4C727.3,333.4 735.5,341.7 744.3,349.3C754.5,358.1 765.2,366.1 775.7,374.5C775.9,374.3 776.2,374.1 776.4,373.9C775.6,372.7 775,371.4 774,370.4C754.6,348.6 740.1,323.7 729.2,296.7C727,291.2 725.9,285.2 724.7,279.4C724.4,278 725,276.1 725.9,274.9C738.2,257.7 754,244.4 772.3,234.1C784.8,227 797.7,220.8 810.5,214.3C811,214 811.6,213.9 811.9,213.8C808,218 803.9,222.2 800,226.5C781.6,246.4 769.8,269.8 763.5,296C762,302.2 762.2,308.3 766,314.2C771.5,322.9 776.2,332.1 781.2,341.1C781.7,342 782,343 781.8,344.4C776.1,339 770.3,333.6 764.6,328.2C771.4,346.9 779.9,364.7 792,380.6C786.8,361.3 783.9,341.7 783.4,320.8C784.5,322.2 785.1,322.9 785.6,323.7C793.8,336 804.9,345.4 815.8,355C823.2,361.5 830.8,367.8 838.3,374.2C848.4,382.8 858.5,391.5 869.7,401C870.8,399.3 871.7,397.5 873,396.2C887.4,381.4 898.3,364.1 907.8,345.9C908.3,344.9 908.6,343.6 909.2,342.6C911.4,339.3 910.4,336.4 909,333C897.3,304.9 887.2,276.3 880.2,246.6C879.5,243.6 878.6,240.6 877.7,237.4C882.8,235 887.9,232.6 892.4,230.5C895.8,244.9 898.9,259.4 902.8,273.6C907,288.8 911.8,303.8 916.6,318.8C920.3,330.6 924.6,342.2 928.3,354C929.1,356.4 929.1,359.5 928.4,362C923.6,379.1 917.2,395.4 905.9,409.3C901.8,414.3 897.2,418.9 892.7,423.5C891.7,424.5 890,425.1 888.6,425.2C884.2,425.7 879.8,426 875.3,426.2C874.4,426.2 873.2,425.8 872.5,425.2C858.5,411.6 844.4,397.9 830.5,384.1C820.4,374.1 810.5,363.8 800.6,353.6C800.5,353.5 800.4,353.6 799.7,353.7C800.8,358.3 801.8,362.9 802.9,367.4C804.9,375.5 807.3,383.6 809,391.8C812.2,407.2 818.9,421.4 824.7,435.8C824.8,436 824.7,436.1 824.5,436.3Z" style="fill:rgb(26,132,173);fill-rule:nonzero;"/>
        </g>
        <g transform="matrix(1,0,0,1,-919.478,-493.837)">
            <path d="M932.7,125.5C934,142.3 929.6,157.1 924,171.8C922.8,174.9 921.9,178 919,180.2C917.2,181.6 915.7,182.1 913.5,181.7C907.2,180.5 900.8,179.3 894.4,178.4C891.5,178 888.4,178.3 885.3,178.3C902.3,162.4 920.9,147.5 932.7,125.5Z" style="fill:rgb(26,132,173);fill-rule:nonzero;"/>
        </g>
    </g>
</svg>
