<?xml version="1.0" encoding="utf-8"?>
<!-- Generator: Adobe Illustrator 24.1.0, SVG Export Plug-In . SVG Version: 6.00 Build 0)  -->
<svg version="1.1" id="Layer_1" xmlns="http://www.w3.org/2000/svg" xmlns:xlink="http://www.w3.org/1999/xlink" x="0px" y="0px"
	 viewBox="0 0 64 64" style="enable-background:new 0 0 64 64;" xml:space="preserve">
<style type="text/css">
	.st0{fill:#AA71AE;}
	.st1{fill:#FFFFFF;}
	.st2{display:none;}
	.st3{fill:#D8820C;}
	.st4{fill:#F9B23D;}
	.st5{fill:#FEEC3B;}
	.st6{fill:#FDD597;}
	.st7{fill:#EC616A;}
	.st8{fill:#E59B2F;}
	.st9{fill:#5AB0E3;}
	.st10{fill:#70B638;}
	.st11{fill:#E9D200;}
	.st12{fill:none;}
	.st13{fill:#E1C60A;}
</style>
<g id="Detail_4_">
	<path class="st7" d="M57,38.3c0,14-11.3,25.3-25.3,25.3S6.4,52.3,6.4,38.3S17.8,0.4,31.7,0.4S57,24.3,57,38.3z"/>
	<g>
		<path class="st1" d="M55.4,47.4L36,58.5v-3.8l20.6-11.9c0-0.2,0.1-0.4,0.1-0.6l-21,12.1l-3.2-1.9L57,38.3c0-0.2,0-0.4,0-0.6
			L32,52.1l0,0l0,0L6.5,37.4c0,0.2,0,0.4,0,0.6l25,14.5l-3.2,1.9L6.7,41.9c0,0.2,0.1,0.4,0.1,0.6L28,54.7v3.8L8,47
			c0.1,0.3,0.2,0.5,0.3,0.7L31.2,61L28,62.8v0.5c1.2,0.2,2.5,0.3,3.7,0.3c1.5,0,2.9-0.1,4.3-0.4v-0.4L32.8,61l22.3-12.8
			C55.2,47.9,55.3,47.6,55.4,47.4z"/>
		<path class="st1" d="M11.9,17.7L28,8.4v3.8L9.7,22.8c-0.1,0.2-0.2,0.5-0.3,0.7l18.8-10.9l3.2,1.9L8,28.1c-0.1,0.2-0.1,0.5-0.2,0.7
			l24.2-14l0,0l0,0l23.6,13.6c-0.1-0.2-0.1-0.5-0.2-0.7L32.5,14.5l3.2-1.9l18.1,10.5c-0.1-0.2-0.2-0.5-0.3-0.7L36,12.2V8.4l15.3,8.9
			c-0.1-0.3-0.3-0.6-0.4-0.8L32.8,6L36,4.1v-3c-1.4-0.5-2.8-0.8-4.3-0.8c-1.3,0-2.5,0.2-3.7,0.6v3.2L31.2,6L12.3,16.9
			C12.2,17.1,12.1,17.4,11.9,17.7z"/>
	</g>
	<polygon class="st7" points="28.5,54.7 28.5,58.8 32,60.8 35.5,58.8 35.5,54.7 32,52.7 	"/>
	<polygon class="st7" points="28.5,63.1 28.5,62.9 32,63.3 35.5,62.9 35.5,63.1 32,61 	"/>
	<polygon class="st7" points="28.5,12.2 28.5,8.1 32,6.1 35.5,8.1 35.5,12.2 32,14.3 	"/>
	<polygon class="st7" points="28.5,3.9 28.5,1.8 32,1.1 35.5,1.8 35.5,3.9 32,5.9 	"/>
	<g>
		<path class="st1" d="M40.5,39.2c0,0-1,4.8-8.8,5.6c0,0-3.3,0.3-0.7,0.7c2.5,0.5,8.1,0.4,10-2.6c0.1-0.1,1-1.6,0.3-3.9
			C41.2,38.8,40.7,38.3,40.5,39.2z"/>
		<path class="st1" d="M37.6,39.1c0.8-0.3,1.9-1.8,1.3-3.2c-0.7-1.4-3.8-0.4-5.6,0.9c-1.5,1.1-0.2,1.8,0.2,2.1
			C34.4,39.4,37,39.3,37.6,39.1z"/>
		<path class="st1" d="M30.4,36.4c-2.7-3.3-4.6-3.6-5.2-3.4c-0.6,0.2-1.4,1.2-0.9,3.6c0.5,2.4,2.6,2.5,2.6,2.5S33,39.5,30.4,36.4z"
			/>
		<path class="st1" d="M22.8,25.3c-0.1,0.1-0.1,0.3,0.1,0.5l0.1,0.1c0.1,0.1,0.1,0.3,0.1,0.4c-1,1.3-1.7,2.8-1.9,4.5
			c-0.1,0.1-0.1,0.3-0.3,0.4c-0.4,0.2-1.3,0.9-1.3,1.7v2.4c0,0-0.1,2,2,2.2c0.1,0,0.4,0,0.5,0c0.2,0,0.5-0.2,0.5-0.7
			c0-0.9,0-3.8,0-4c0-5.1,4.2-9.3,9.3-9.3s9.3,4.2,9.3,9.3c0,0,0,3.2,0,4c0,0.6,0.4,0.7,0.6,0.7c0.1,0,0.3,0,0.3,0
			c2-0.1,2-2.2,2-2.2v-2.5c0-0.9-0.9-1.5-1.3-1.7c-0.1-0.1-0.2-0.2-0.3-0.4c-0.3-1.7-1-3.2-1.9-4.6c-0.1-0.1-0.1-0.3,0-0.3
			c0.1-0.1,0.1-0.3,0.1-0.5c-2.1-2.6-5.3-4.1-8.9-4.1C28.1,21.2,24.9,22.7,22.8,25.3z"/>
	</g>
</g>
<g id="Outline_2_">
	<path class="st7" d="M31.7,1.4c12.9,0,24.3,23,24.3,36.9c0,13.4-10.9,24.3-24.3,24.3S7.4,51.7,7.4,38.3C7.4,24.4,18.8,1.4,31.7,1.4
		 M31.7,0.4c-14,0-25.3,24-25.3,37.9c0,14,11.3,25.3,25.3,25.3S57,52.3,57,38.3S45.7,0.4,31.7,0.4L31.7,0.4z"/>
</g>
</svg>
