<?xml version="1.0" encoding="UTF-8"?>
<svg id="Layer_1" data-name="Layer 1" xmlns="http://www.w3.org/2000/svg" viewBox="0 0 16 16">
  <defs>
    <style>
      .cls-1 {
        fill: #900;
      }

      .cls-2 {
        fill: #f90;
      }

      .cls-3 {
        fill: #f03;
      }

      .cls-4 {
        fill: #ff0;
      }
    </style>
  </defs>
  <path class="cls-3" d="M15.831,5.2516l-2.8257-2.8879c-.1114-.1114-.2642-.1761-.4222-.1761H3.4169c-.158,0-.3108,.0648-.4196,.1761L.169,5.2516c-.2253,.2305-.2253,.5983,0,.8262l7.4101,7.5577c.2305,.2357,.6113,.2357,.8418,0l1.5229-1.5515,.4196-.4299,5.4676-5.5764c.2253-.228,.2253-.5957,0-.8262Z"/>
  <path class="cls-4" d="M14.0931,5.2516l-1.611-1.6473c-.1113-.1114-.2642-.1761-.4222-.1761H3.9401c-.158,0-.3109,.0648-.4196,.1761l-1.6161,1.6473c-.2253,.2305-.2253,.5983,0,.8288l5.6747,5.7836c.2305,.2357,.6113,.2383,.8418,.0026l.2797-.2823,.3755-.3833,.1295-.1321,4.8874-4.991c.2253-.228,.2253-.5957,0-.8262Z"/>
  <path class="cls-1" d="M9.0762,11.201l.4455,.4533c.2305,.2357,.6113,.2357,.8418,0l-.4196,.4299-1.5229,1.5514c-.2305,.2357-.6113,.2357-.8418,0L.169,6.0779c-.2253-.2279-.2253-.5957,0-.8262L2.9973,2.3637c.1088-.1114,.2616-.1761,.4196-.1761h3.8851c-.158,0-.3108,.0648-.4196,.1761l-1.0412,1.0645h-1.9011c-.158,0-.3108,.0648-.4196,.1761l-1.6162,1.6473c-.2253,.2305-.2253,.5983,0,.8288l5.6748,5.7836c.2305,.2357,.6113,.2383,.8418,.0026l.2797-.2823,.3756-.3833Z"/>
  <path class="cls-2" d="M8.4209,11.8666c-.2305,.2357-.6113,.2331-.8418-.0026L1.9043,6.0805c-.2253-.2305-.2253-.5983,0-.8288l1.6162-1.6473c.1088-.1114,.2616-.1761,.4196-.1761h1.9011l-1.7871,1.8234c-.2253,.2305-.2253,.5983,0,.8262l5.0221,5.1231-.3756,.3833-.2797,.2823Z"/>
  <path d="M11.5988,5.9141c.5189-.0772,.4376,.632,.176,.7831-.4166,.2407-.9517,.0856-1.3137-.3836-.3091-.4007-.3478-.6542-.8432-1.645-.7673-1.5346-1.6176-.0333-1.6176-.0333,0,0-.8503-1.5013-1.6176,.0333-.4954,.9908-.5341,1.2444-.8432,1.645-.362,.4692-.8971,.6243-1.3137,.3836-.2616-.1511-.343-.8603,.176-.7831-.8445-.7921-1.9373,1.8526,.7673,1.7903,2.0455-.0471,2.8311-1.7903,2.8311-1.7903,0,0,.7856,1.7432,2.8311,1.7903,2.7045,.0623,1.6117-2.5825,.7673-1.7903Z"/>
</svg>