<?xml version="1.0" encoding="UTF-8"?>
<svg id="Layer_1" data-name="Layer 1" xmlns="http://www.w3.org/2000/svg" viewBox="0 0 64 64">
  <defs>
    <style>
      .cls-1 {
        fill: #1488fa;
      }
    </style>
  </defs>
  <path class="cls-1" d="M62.7987,49.5554l-7.9478-6.7065,1.3319-3.2154,3.3139-.2364,2.9592-2.7248c.4965-3.17,.4965-6.3736,0-9.52l-2.9592-2.7189-3.3139-.2364-1.651-3.9837,2.179-2.512,.1694-4.0192c-1.8796-2.575-4.1453-4.8408-6.7341-6.7282l-4.0192,.1675-2.51,2.1771-3.9837-1.651-.2364-3.3139-2.7208-2.9592c-3.1681-.4965-6.3696-.5004-9.5239-.0039l-2.7189,2.9612-.2364,3.3158-3.9857,1.651-2.512-2.179-4.0153-.1694c-2.5731,1.8756-4.8388,4.1413-6.7302,6.7341l.1675,4.0172,2.1771,2.51-1.651,3.9857-3.3119,.2364-2.9612,2.7189c-.4965,3.17-.4985,6.3736-.0039,9.5239l2.9592,2.7208,3.3178,.2364,1.651,3.9837-2.1771,2.51-.1734,4.0153c1.8796,2.581,4.1453,4.8467,6.7381,6.7341l4.0153-.1694,2.51-2.1751,3.9857,1.651,.2364,3.3139,2.7228,2.9592c3.172,.4925,6.3775,.4925,9.52,0l2.7208-2.9592,.2364-3.3139,3.2154-1.3319,6.7065,7.9478,4.7482,.201,8.6964-8.6964s-.201-4.7482-.201-4.7482Zm-10.7757,11.1636l-15.2148-18.0381-8.8085,.9787-9.7872-7.8295v-11.7448l10.7659,10.7659,5.8724-5.8722-10.7659-10.7659h11.7446l7.8298,9.7872-.9787,8.8085,18.0381,15.2148s-8.6957,8.6954-8.6957,8.6954Z"/>
  <rect class="cls-1" x="49.6046" y="49.8423" width="5.2206" height="4.7461" transform="translate(-21.6284 52.2175) rotate(-45.0019)"/>
</svg>