<?xml version="1.0" encoding="UTF-8" standalone="no"?>
<!DOCTYPE svg PUBLIC "-//W3C//DTD SVG 1.1//EN" "http://www.w3.org/Graphics/SVG/1.1/DTD/svg11.dtd">
<svg width="100%" height="100%" viewBox="0 0 64 64" version="1.1" xmlns="http://www.w3.org/2000/svg" xmlns:xlink="http://www.w3.org/1999/xlink" xml:space="preserve" xmlns:serif="http://www.serif.com/" style="fill-rule:evenodd;clip-rule:evenodd;stroke-linejoin:round;stroke-miterlimit:2;">
    <rect id="PietSmiet_detailed" x="0" y="0" width="64" height="64" style="fill:none;"/>
    <path d="M49.966,12.514C47.815,12.514 45.834,14.043 44.25,16.617L43.856,16.617C43.856,15.909 44.038,14.979 44.419,14.129L19.581,14.129C19.962,14.979 20.144,15.909 20.144,16.617L19.75,16.617C18.166,14.043 16.184,12.514 14.034,12.514C8.844,12.514 4.636,21.424 4.636,32.415C4.636,43.406 8.844,51.486 14.034,51.486C17.602,51.486 20.706,48.105 22.297,41.901C19.178,41.361 16.798,38.636 16.798,35.365C16.798,31.707 19.774,28.731 23.432,28.731C27.089,28.731 30.065,31.707 30.065,35.365C30.065,36.071 29.954,36.751 29.749,37.39L34.251,37.39C34.046,36.751 33.935,36.071 33.935,35.365C33.935,31.707 36.911,28.731 40.568,28.731C44.226,28.731 47.202,31.707 47.202,35.365C47.202,38.636 44.822,41.361 41.703,41.901C43.294,48.105 46.398,51.486 49.966,51.486C55.156,51.486 59.364,43.406 59.364,32.415C59.364,21.424 55.156,12.514 49.966,12.514" style="fill:rgb(77,185,13);fill-rule:nonzero;"/>
    <path d="M13.158,19.105L12.896,19.366L12.896,22.419L13.158,22.68L14.91,22.68L15.172,22.419L15.172,19.366L14.91,19.105L13.158,19.105Z" style="fill:rgb(10,10,10);fill-rule:nonzero;"/>
    <path d="M13.158,25.48L12.896,25.741L12.896,28.794L13.158,29.055L14.91,29.055L15.172,28.794L15.172,25.741L14.91,25.48L13.158,25.48Z" style="fill:rgb(10,10,10);fill-rule:nonzero;"/>
    <path d="M15.695,22.942L15.434,23.204L15.434,24.956L15.695,25.217L18.748,25.217L19.009,24.956L19.009,23.204L18.748,22.942L15.695,22.942Z" style="fill:rgb(10,10,10);fill-rule:nonzero;"/>
    <path d="M9.32,22.942L9.059,23.204L9.059,24.956L9.32,25.217L12.373,25.217L12.634,24.956L12.634,23.204L12.373,22.942L9.32,22.942Z" style="fill:rgb(10,10,10);fill-rule:nonzero;"/>
    <path d="M49.966,26.07C49.142,26.07 48.474,26.738 48.474,27.563C48.474,28.387 49.142,29.055 49.966,29.055C50.791,29.055 51.459,28.387 51.459,27.563C51.459,26.738 50.791,26.07 49.966,26.07" style="fill:rgb(10,10,10);fill-rule:nonzero;"/>
    <path d="M53.449,22.587C52.625,22.587 51.956,23.256 51.956,24.08C51.956,24.904 52.625,25.573 53.449,25.573C54.273,25.573 54.941,24.904 54.941,24.08C54.941,23.256 54.273,22.587 53.449,22.587" style="fill:rgb(10,10,10);fill-rule:nonzero;"/>
    <path d="M46.484,22.587C45.659,22.587 44.991,23.256 44.991,24.08C44.991,24.904 45.659,25.573 46.484,25.573C47.308,25.573 47.976,24.904 47.976,24.08C47.976,23.256 47.308,22.587 46.484,22.587" style="fill:rgb(10,10,10);fill-rule:nonzero;"/>
    <path d="M49.966,19.105C49.142,19.105 48.474,19.773 48.474,20.597C48.474,21.422 49.142,22.09 49.966,22.09C50.791,22.09 51.459,21.422 51.459,20.597C51.459,19.773 50.791,19.105 49.966,19.105" style="fill:rgb(10,10,10);fill-rule:nonzero;"/>
    <path d="M32,19.105C30.626,19.105 29.513,20.218 29.513,21.592C29.513,22.966 30.626,24.08 32,24.08C33.374,24.08 34.488,22.966 34.488,21.592C34.488,20.218 33.374,19.105 32,19.105" style="fill:rgb(10,10,10);fill-rule:nonzero;"/>
    <path d="M43.926,15.788L20.074,15.788L19.581,14.129L44.419,14.129L43.926,15.788Z" style="fill:rgb(106,224,30);fill-rule:nonzero;"/>
    <path d="M49.966,51.486C46.398,51.486 43.294,48.104 41.703,41.901C44.822,41.361 47.202,38.636 47.202,35.365C47.202,31.707 44.226,28.731 40.568,28.731C36.911,28.731 33.935,31.707 33.935,35.365C33.935,36.071 34.046,36.751 34.251,37.39L29.749,37.39C29.954,36.751 30.065,36.071 30.065,35.365C30.065,31.707 27.09,28.731 23.432,28.731C19.774,28.731 16.798,31.707 16.798,35.365C16.798,38.636 19.178,41.361 22.297,41.901C20.706,48.104 17.602,51.486 14.034,51.486C8.844,51.486 4.636,43.405 4.636,32.415C4.636,21.424 8.844,12.514 14.034,12.514C16.185,12.514 18.166,14.043 19.75,16.617L20.144,16.617C20.144,15.909 19.962,14.979 19.581,14.129L44.419,14.129C44.038,14.979 43.856,15.909 43.856,16.617L44.25,16.617C45.834,14.043 47.816,12.514 49.966,12.514C55.156,12.514 59.364,21.424 59.364,32.415C59.364,43.405 55.156,51.486 49.966,51.486M49.966,10.855C48.477,10.855 47.057,11.43 45.76,12.471L18.24,12.471C16.943,11.43 15.523,10.855 14.034,10.855C7.633,10.855 2.978,20.508 2.978,32.415C2.978,44.321 7.633,53.145 14.034,53.145C18.672,53.145 22.135,49.091 23.943,41.986C23.958,41.982 23.973,41.978 23.989,41.975C26.053,41.802 27.852,40.681 28.946,39.048L35.054,39.048C36.148,40.681 37.947,41.802 40.011,41.975C40.027,41.978 40.042,41.982 40.057,41.986C41.866,49.091 45.329,53.145 49.966,53.145C56.367,53.145 61.022,44.321 61.022,32.415C61.022,20.508 56.367,10.855 49.966,10.855" style="fill:rgb(10,10,10);fill-rule:nonzero;"/>
    <path d="M4.797,28.731C5.851,20.703 10.134,14.172 14.034,14.172C16.04,14.172 18.016,15.059 19.356,16.617L19.75,16.617C18.166,14.043 16.184,12.514 14.034,12.514C9.438,12.514 5.613,19.5 4.797,28.731" style="fill:rgb(106,224,30);fill-rule:nonzero;"/>
    <path d="M59.203,28.731C58.149,20.703 53.865,14.172 49.966,14.172C47.961,14.172 45.984,15.059 44.644,16.617L44.25,16.617C45.834,14.043 47.816,12.514 49.966,12.514C54.562,12.514 58.387,19.5 59.203,28.731" style="fill:rgb(106,224,30);fill-rule:nonzero;"/>
    <path d="M59.356,31.585C59.15,42.192 55.025,49.828 49.966,49.828C47.227,49.828 44.969,47.571 43.365,42.791C45.631,41.736 47.202,39.439 47.202,36.774L47.202,35.365C47.202,38.636 44.822,41.361 41.703,41.901L41.703,41.901C43.294,48.104 46.398,51.486 49.966,51.486C55.156,51.486 59.364,43.405 59.364,32.415C59.364,32.137 59.361,31.86 59.356,31.585" style="fill:rgb(60,132,13);fill-rule:nonzero;"/>
    <path d="M4.644,31.586C4.85,42.192 8.975,49.828 14.034,49.828C16.773,49.828 19.031,47.571 20.634,42.791C18.369,41.737 16.798,39.439 16.798,36.775L16.798,35.365C16.798,38.636 19.178,41.362 22.297,41.901L22.297,41.901C20.706,48.105 17.602,51.487 14.034,51.487C8.844,51.487 4.636,43.406 4.636,32.415C4.636,32.137 4.639,31.86 4.644,31.586" style="fill:rgb(60,132,13);fill-rule:nonzero;"/>
    <path d="M23.432,27.073C19.768,27.073 16.798,30.043 16.798,33.707L16.798,35.365L16.798,35.365C16.798,31.707 19.774,28.731 23.432,28.731C27.089,28.731 30.065,31.707 30.065,35.365L30.065,33.707C30.065,30.043 27.095,27.073 23.432,27.073" style="fill:rgb(106,224,30);fill-rule:nonzero;"/>
    <path d="M40.568,27.073C36.905,27.073 33.935,30.043 33.935,33.707L33.935,35.365L33.935,35.365C33.935,31.707 36.911,28.731 40.568,28.731C44.226,28.731 47.202,31.707 47.202,35.365L47.202,33.707C47.202,30.043 44.232,27.073 40.568,27.073" style="fill:rgb(106,224,30);fill-rule:nonzero;"/>
    <path d="M23.432,30.39C22.058,30.39 20.944,31.503 20.944,32.877C20.944,34.251 22.058,35.365 23.432,35.365C24.805,35.365 25.919,34.251 25.919,32.877C25.919,31.503 24.805,30.39 23.432,30.39" style="fill:rgb(124,124,123);fill-rule:nonzero;"/>
    <path d="M40.568,30.39C39.195,30.39 38.081,31.503 38.081,32.877C38.081,34.251 39.195,35.365 40.568,35.365C41.942,35.365 43.056,34.251 43.056,32.877C43.056,31.503 41.942,30.39 40.568,30.39" style="fill:rgb(124,124,123);fill-rule:nonzero;"/>
</svg>
