<?xml version="1.0" encoding="UTF-8" standalone="no"?>
<!DOCTYPE svg PUBLIC "-//W3C//DTD SVG 1.1//EN" "http://www.w3.org/Graphics/SVG/1.1/DTD/svg11.dtd">
<svg width="100%" height="100%" viewBox="0 0 16 16" version="1.1" xmlns="http://www.w3.org/2000/svg" xmlns:xlink="http://www.w3.org/1999/xlink" xml:space="preserve" xmlns:serif="http://www.serif.com/" style="fill-rule:evenodd;clip-rule:evenodd;stroke-linejoin:round;stroke-miterlimit:2;">
    <g transform="matrix(0.250923,0,0,0.250923,-0.0145663,-0.134919)">
        <path d="M6.047,13.16C6.933,11.108 8.136,9.285 9.587,7.773C10.058,7.361 10.646,6.773 10.94,6.538C13.117,4.773 15.94,3.655 18.587,3.479L20.94,3.479C24.235,3.655 27.764,4.891 30.587,6.891C31.705,7.714 33.117,8.949 33.764,9.773C33.882,9.949 34.058,10.126 34.058,10.126C34.058,10.126 34.235,9.949 34.352,9.773C34.999,8.949 36.411,7.714 37.529,6.891C40.352,4.891 43.882,3.655 47.176,3.479L49.529,3.479C51.705,3.597 54.117,4.42 55.999,5.714C58.548,7.394 60.698,9.987 62.045,13.16L54.149,13.16C52.524,11.62 50.456,10.832 48.058,10.832C46.705,10.832 45.646,11.008 44.293,11.42C43.045,11.828 41.807,12.393 40.594,13.16L27.522,13.16C26.31,12.393 25.071,11.828 23.823,11.42C22.47,11.008 21.411,10.832 20.058,10.832C17.651,10.832 15.63,11.603 13.981,13.16L6.047,13.16Z" style="fill:rgb(253,2,45);"/>
    </g>
    <g transform="matrix(0.250923,0,0,0.250923,-0.0295203,-0.0442808)">
        <path d="M6.107,12.799L14.041,12.799L12.647,14.353C12.176,15 11.412,16.471 11.118,17.412C10.588,19 10.412,20.294 10.412,22.059L10.412,22.412L4.374,22.412C4.307,21.185 4.317,20 4.412,19.118C4.668,16.864 5.243,14.736 6.103,12.812L6.107,12.799ZM28.508,22.412L27,20.882C25.412,19.353 23.706,18.118 22.176,17.353C21.706,17.118 21.294,16.882 21.294,16.882L21.294,16.824L21.824,16.471C22.471,16.059 24.529,15 24.706,15C24.824,15 26.353,15.882 27.353,16.529C29.588,17.882 31.529,19.412 32.647,20.588L34.018,22.412L28.508,22.412ZM37.186,22.412L36.824,21.647C36.471,21 36.176,20.353 36.176,20.353C36.176,20.235 36.941,19.412 37.588,18.765C39.588,16.824 42.118,15.529 44.588,15.118C45.471,15 47.118,15 48.059,15.176C49.824,15.471 51.294,16.235 52.412,17.353C53.659,18.625 54.493,20.361 54.859,22.412L37.186,22.412ZM54.208,12.799L62.105,12.799L62.176,12.941C63.176,15.235 63.882,18.294 63.882,20.353L63.882,22.353L63.878,22.412L57.807,22.412L57.824,22.118C57.824,19.647 57.412,17.706 56.412,15.765C55.81,14.582 55.079,13.591 54.22,12.812L54.208,12.799ZM27.582,12.799L40.653,12.799L40.635,12.812C38.833,13.84 37.063,15.255 35.294,17.059L34.118,18.235L32.941,17.059C31.172,15.255 29.403,13.84 27.601,12.812L27.582,12.799Z" style="fill:rgb(254,113,4);"/>
    </g>
    <g transform="matrix(0.250923,0,0,0.250923,-0.0295203,-0.0442808)">
        <path d="M43.996,51.378L47.258,51.378L47.256,51.38C44.172,54.061 40.865,56.519 37.353,58.824C36.353,59.471 34.294,60.706 33.941,60.941L33.765,61L33.765,60.941C33.824,60.941 34.176,60.588 34.588,60.235C37.981,57.498 41.167,54.498 43.993,51.38L43.996,51.378ZM30.789,51.378L34.891,51.378L34.887,51.38C34.507,51.687 33.959,51.858 33.294,51.941L32.824,51.941L32.824,52C32.824,52.059 33.059,52.294 33.353,52.471C34.059,53.059 34.529,53.412 34.588,53.647C34.626,53.851 34.628,53.838 34.54,54.003C34.453,54.168 34.412,54.235 34.118,54.294C33.588,54.353 33.471,54.471 33.176,54.765C32.765,55.235 32.706,55.412 32.647,56.529C32.647,57.529 32.647,57.529 32.412,58C31.882,58.941 31.059,59.588 30.059,59.765C29.588,59.882 28.529,59.941 28.235,59.882C27.824,59.824 27.353,59.588 26.765,59.294C26.235,59 25.059,58.118 24.824,57.882L24.706,57.706L25.353,57.706C26.588,57.647 27.824,57.176 28.353,56.647C28.824,56.176 29.118,55.529 29.529,53.941C29.647,53.412 29.824,52.941 29.882,52.824C30.059,52.529 30.294,52.294 30.588,52.235C30.765,52.176 30.882,52.176 30.941,52.118L31,52.118L31,51.941L30.789,51.378ZM38.945,51.378L40.715,51.378L37.765,54.118L37.706,53.765C37.706,53.294 37.588,52.941 37.235,52.588L37,52.294L37.529,52.118L38.945,51.378Z" style="fill:rgb(106,13,136);"/>
    </g>
    <path d="M14.476,5.579L15.999,5.579L15.997,5.601C15.995,5.887 15.938,6.363 15.867,6.731C15.777,7.159 15.649,7.583 15.48,8.005L14.041,8.005C14.324,7.184 14.468,6.38 14.475,5.6L14.476,5.579ZM7.124,5.579L8.506,5.579L8.518,5.6C8.895,6.177 9.168,6.926 9.225,7.572C9.239,7.748 9.234,7.884 9.196,8.005L8.167,8.005L8.192,7.852C8.192,7.661 8.177,7.542 8.118,7.306C8.044,6.952 7.838,6.48 7.631,6.185L7.124,5.579ZM9.301,5.579L13.736,5.579L13.738,5.6C13.877,6.292 13.807,7.124 13.52,8L13.518,8.005L9.823,8.005C9.859,7.875 9.879,7.741 9.889,7.601C9.917,7.054 9.741,6.468 9.311,5.6L9.301,5.579ZM1.09,8.005L1.09,8.005L0.183,8.005C0.224,7.883 0.272,7.766 0.325,7.661C0.502,7.292 0.694,7.026 0.974,6.731C1.166,6.539 1.166,6.539 1.137,6.362L1.068,5.579L2.583,5.579L2.583,5.801L2.613,5.801C2.613,5.815 2.701,5.801 2.79,5.786C3.705,5.624 4.664,5.845 5.417,6.421C5.594,6.554 5.875,6.804 6.007,6.982C6.252,7.28 6.446,7.628 6.569,8.005L5.667,8.005L5.667,8.005L4.793,8.005L4.793,8.005L1.581,8.005L1.581,8.005L1.09,8.005Z" style="fill:rgb(250,222,2);"/>
    <path d="M8.269,10.416L9.175,10.416L9.565,11.085C9.624,11.159 9.668,11.232 9.668,11.247C9.668,11.247 9.624,11.292 9.565,11.351C9.314,11.572 9.077,11.72 8.812,11.838L8.664,11.897L8.664,11.97C8.664,12.074 8.738,12.295 8.827,12.502C8.871,12.59 8.915,12.664 8.915,12.679C8.915,12.679 8.886,12.723 8.841,12.768L8.725,12.848L7.696,12.848C7.661,12.767 7.592,12.687 7.513,12.635L7.424,12.576C7.424,12.576 7.557,12.531 7.601,12.517C7.72,12.487 7.779,12.428 7.823,12.369C7.852,12.31 7.852,12.133 7.808,11.97C7.779,11.808 7.764,11.675 7.793,11.616C7.823,11.572 7.823,11.557 7.941,11.542C8.133,11.498 8.266,11.439 8.399,11.365C8.531,11.277 8.768,11.114 8.768,11.1C8.768,11.1 8.723,11.041 8.664,10.967L8.269,10.416ZM9.977,10.416L12.281,10.416L12.265,10.438C11.731,11.215 11.062,12 10.273,12.768L10.187,12.848L9.743,12.848L9.815,12.797L9.889,12.708L9.801,12.605C9.712,12.487 9.565,12.295 9.565,12.266C9.565,12.266 9.624,12.207 9.712,12.162C10.052,11.956 10.317,11.72 10.657,11.336L10.701,11.277L10.686,11.247C10.672,11.232 10.554,11.1 10.435,10.967C10.303,10.834 10.155,10.686 10.125,10.642L9.977,10.416ZM12.877,10.416L14.096,10.416L13.402,11.292C13.137,11.601 12.339,12.399 12,12.708L11.829,12.848L11.01,12.848C11.732,12.062 12.363,11.245 12.863,10.438L12.877,10.416ZM1.177,10.416L1.177,10.416L2.129,10.416L2.129,10.416L4.633,10.416L4.632,10.416L5.568,10.416L5.568,10.416L6.508,10.416L6.497,10.438C6.393,10.697 6.253,10.939 6.081,11.159C5.968,11.31 5.769,11.536 5.612,11.681L5.612,11.698L5.594,11.698C5.573,11.717 5.554,11.734 5.535,11.749C5.033,12.148 4.413,12.413 3.764,12.487C3.587,12.517 3.173,12.517 2.996,12.487C2.244,12.399 1.55,12.074 1.018,11.557C0.723,11.262 0.531,10.996 0.354,10.627L0.275,10.416L1.176,10.416L1.177,10.416Z" style="fill:rgb(3,87,237);"/>
    <path d="M1.09,8.006L1.581,8.006L1.581,8.005L4.793,8.006L4.793,8.006L6.032,8.006L6.032,8.006L6.568,8.006C6.648,8.241 6.717,8.489 6.745,8.738C6.775,8.915 6.775,9.328 6.745,9.506C6.707,9.821 6.629,10.128 6.508,10.416L6.032,10.416L6.032,10.418L0.797,10.418L0.797,10.416L0.275,10.416C0.104,10.045 -0,9.612 -0,9.314L-0,8.93C-0,8.685 0.069,8.333 0.181,8.012L0.183,8.005L1.09,8.005L1.09,8.006ZM14.041,8.005L15.48,8.005L15.477,8.012C15.164,8.818 14.711,9.617 14.096,10.416L12.877,10.416L12.945,10.317C13.225,9.845 13.579,9.181 13.771,8.723L14.041,8.005ZM8.164,8.006L9.196,8.005L9.193,8.012C9.157,8.155 9.078,8.279 8.945,8.428L8.856,8.517C8.856,8.517 8.694,8.664 8.649,8.694C8.576,8.753 8.576,8.753 8.576,8.871C8.59,9.033 8.664,9.314 8.782,9.609C8.871,9.834 9.016,10.128 9.175,10.416L8.269,10.416C8.123,10.187 7.998,9.941 7.911,9.712C7.793,9.417 7.616,8.827 7.616,8.738C7.616,8.723 7.646,8.694 7.705,8.649C7.808,8.576 7.985,8.413 8.044,8.31C8.116,8.197 8.152,8.113 8.164,8.006ZM9.823,8.005L13.518,8.005L13.516,8.012C13.266,8.782 12.849,9.594 12.281,10.416L9.977,10.416C9.764,10.074 9.593,9.637 9.461,9.122C9.402,8.93 9.402,8.93 9.491,8.782C9.656,8.52 9.763,8.271 9.821,8.012L9.823,8.005Z" style="fill:rgb(9,172,65);"/>
</svg>
