<?xml version="1.0" encoding="utf-8"?>
<!-- Generator: Adobe Illustrator 23.0.3, SVG Export Plug-In . SVG Version: 6.00 Build 0)  -->
<svg version="1.1" id="Layer_1" xmlns="http://www.w3.org/2000/svg" xmlns:xlink="http://www.w3.org/1999/xlink" x="0px" y="0px"
	 viewBox="0 0 16 16" style="enable-background:new 0 0 16 16;" xml:space="preserve">
<style type="text/css">
	.st0{fill:#2680C3;}
	.st1{fill:#FFFFFF;}
	.st2{fill:#BECFD4;}
	.st3{fill:#1C2537;}
</style>
<path class="st0" d="M16,8.59V7.41c0-0.25-0.17-0.47-0.42-0.53l-1.79-0.44v0c-0.14-0.51-0.34-0.99-0.59-1.43l0,0l0.96-1.58
	c0.13-0.22,0.1-0.49-0.08-0.67l-0.84-0.84c-0.18-0.18-0.46-0.21-0.67-0.08l-1.58,0.96l0,0c-0.44-0.26-0.93-0.46-1.43-0.59h0
	L9.12,0.42C9.06,0.17,8.84,0,8.59,0H7.41C7.16,0,6.94,0.17,6.88,0.42L6.44,2.21h0C5.93,2.35,5.45,2.55,5.01,2.81l0,0L3.43,1.84
	c-0.22-0.13-0.49-0.1-0.67,0.08L1.93,2.76C1.75,2.94,1.71,3.22,1.84,3.43l0.96,1.58l0,0C2.55,5.45,2.35,5.93,2.21,6.44v0L0.42,6.88
	C0.17,6.94,0,7.16,0,7.41v1.18c0,0.25,0.17,0.47,0.42,0.53l1.79,0.44v0c0.14,0.51,0.34,0.99,0.59,1.43l0,0l-0.96,1.58
	c-0.13,0.22-0.1,0.49,0.08,0.67l0.84,0.84c0.18,0.18,0.46,0.21,0.67,0.08l1.58-0.96l0,0c0.44,0.26,0.93,0.46,1.43,0.59h0l0.44,1.79
	C6.94,15.83,7.16,16,7.41,16h1.18c0.25,0,0.47-0.17,0.53-0.42l0.44-1.79h0c0.51-0.14,0.99-0.34,1.43-0.59l0,0l1.58,0.96
	c0.22,0.13,0.49,0.1,0.67-0.08l0.84-0.84c0.18-0.18,0.21-0.46,0.08-0.67l-0.96-1.58l0,0c0.26-0.44,0.46-0.93,0.59-1.43v0l1.79-0.44
	C15.83,9.06,16,8.84,16,8.59z"/>
<circle class="st1" cx="8.01" cy="8.01" r="4.59"/>
<path class="st2" d="M10.62,5.38c-0.6-0.6-1.36-0.96-2.18-1.06v0.57c0.67,0.09,1.29,0.4,1.78,0.89c0.59,0.59,0.92,1.38,0.92,2.22
	s-0.33,1.63-0.92,2.22C9.63,10.81,8.84,11.14,8,11.14s-1.63-0.33-2.22-0.92C5.19,9.63,4.86,8.84,4.86,8h0.45L4.58,6.74L3.85,8H4.3
	c0,0.99,0.39,1.92,1.09,2.62c0.7,0.7,1.63,1.09,2.62,1.09c0.99,0,1.92-0.39,2.62-1.09c0.7-0.7,1.09-1.63,1.09-2.62
	C11.71,7.01,11.32,6.08,10.62,5.38z"/>
<path class="st3" d="M9.35,9.9C9.22,9.9,9.09,9.85,9,9.76l-1.4-1.4C7.5,8.26,7.45,8.13,7.45,8V4.08c0-0.27,0.22-0.5,0.5-0.5
	c0.27,0,0.5,0.22,0.5,0.5v3.71L9.7,9.05c0.19,0.19,0.19,0.51,0,0.7C9.6,9.85,9.47,9.9,9.35,9.9z"/>
</svg>
