<?xml version="1.0" encoding="utf-8"?>
<!-- Generator: Adobe Illustrator 24.0.1, SVG Export Plug-In . SVG Version: 6.00 Build 0)  -->
<svg version="1.1" id="Toast" xmlns="http://www.w3.org/2000/svg" xmlns:xlink="http://www.w3.org/1999/xlink" x="0px" y="0px"
	 viewBox="0 0 500 500" style="enable-background:new 0 0 500 500;" xml:space="preserve">
<style type="text/css">
	.st0{fill:#560081;}
	.st1{display:none;}
	.st2{display:inline;}
	.st3{display:inline;opacity:0.63;}
	.st4{fill:#620C77;}
	.st5{fill:#AB00FF;}
	.st6{display:inline;opacity:0.5;}
	.st7{fill:#690D7F;}
	.st8{display:inline;fill:#5F008E;}
	.st9{display:inline;opacity:0.6;fill:#5F008E;enable-background:new    ;}
	.st10{display:inline;opacity:0.5;fill:#5F008E;enable-background:new    ;}
	.st11{display:inline;opacity:0.75;fill:#5F008E;enable-background:new    ;}
	.st12{display:inline;opacity:0.85;fill:#5F008E;enable-background:new    ;}
	.st13{display:inline;opacity:0.65;fill:#5F008E;enable-background:new    ;}
	.st14{display:inline;opacity:0.79;fill:#560081;enable-background:new    ;}
	.st15{display:inline;opacity:0.75;fill:#560081;enable-background:new    ;}
</style>
<g id="Innenflächen">
	<g id="Innen_Klein">
		<path id="Fläche_ohne_Effekt" class="st0" d="M416.3,478.9c-0.6,0-1.2-0.3-1.5-0.9s-0.7-1.4,2.3-5.3c6.1-7.5,10-19.2,12-35.8
			c1.4-11.8,0.3-26.8-4.1-55.3c-4.7-30.4-5.5-42.4-4.8-71.7c0.7-31.9,2.8-53,7.4-75.1c1.6-7.7,2-8.4,6.9-11.6
			c10.3-6.7,20-20.9,22.3-32.8c1.9-9.1,0.8-27.7-2.4-37.6c-8.7-27.2-31.7-55-61.5-74.5c-10.6-6.9-35.1-19.1-48.6-24
			c-19.2-7.1-45.8-13.5-71.3-17.1c-8-1.1-28-1.9-49.7-1.9c-17.6,0-31.7,0.5-37.9,1.4C122,45.4,65.9,75.2,35.5,116.4
			c-6.8,9.1-6.8,9.1-7.8,9.1h-0.9l-0.5-0.8c-0.5-0.9-0.5-0.9,2.8-7c7.3-13.2,16.4-24.9,29.5-37.8c17.7-17.7,33-28.4,58.4-40.8
			c28-13.6,54.7-20,102-24.4c3.3-0.3,10.4-0.5,19.4-0.5c12.9,0,26.5,0.4,34.7,0.9c60.8,3.8,118.8,27,163.3,65.3
			c17.8,15.4,28.4,29.1,37.6,48.8c14.7,31.2,16.4,57.7,5.4,80.9c-5.3,11.3-15.8,22-28.7,29.2c-2.5,1.4-4.4,2.5-5.8,3.4
			c1.9-0.5,5-1.7,10.1-4.3c6.7-3.4,8.5-3.9,9.4-3.9s1.4,0.5,1.6,0.8s0.5,0.9,0.1,1.8c-1.5,3.7-4.3,18.9-5.3,29
			c-2.2,23-3.4,72.7-2.5,108.5c0.5,19.4,0.9,44.1,0.9,55c0,17.9-0.2,20.2-2.2,24.7c-3.4,7.2-8.5,12.3-16,16.1
			C435.8,472.9,419.3,478.9,416.3,478.9z"/>
		<g id="Fläche_mit_Effekt" class="st1">
			<g class="st2">
				<path class="st0" d="M416.2,478.9c-0.6,0-1.2-0.3-1.5-0.9s-0.7-1.4,2.3-5.3c6.1-7.5,10-19.2,12-35.8c1.4-11.8,0.3-26.8-4.1-55.3
					c-4.7-30.4-5.5-42.4-4.8-71.7c0.7-31.9,2.8-53,7.4-75.1c1.6-7.7,2-8.4,6.9-11.6c10.3-6.7,20-20.9,22.3-32.8
					c1.9-9.1,0.8-27.7-2.4-37.6c-8.7-27.2-31.7-55-61.5-74.5c-10.6-6.9-35.1-19.1-48.6-24c-19.2-7.1-45.8-13.5-71.3-17.1
					c-8-1.1-28-1.9-49.7-1.9c-17.6,0-31.7,0.5-37.9,1.4c-63.4,8.6-119.5,38.4-149.9,79.6c-6.8,9.1-6.8,9.1-7.8,9.1h-0.9l-0.5-0.8
					c-0.5-0.9-0.5-0.9,2.8-7c7.3-13.2,16.4-24.9,29.5-37.8c17.7-17.7,33-28.4,58.4-40.8c28-13.6,54.7-20,102-24.4
					c3.3-0.3,10.4-0.5,19.4-0.5c12.9,0,26.5,0.4,34.7,0.9c60.8,3.8,118.8,27,163.3,65.3c17.8,15.4,28.4,29.1,37.6,48.8
					c14.7,31.2,16.4,57.7,5.4,80.9c-5.3,11.3-15.8,22-28.7,29.2c-2.5,1.4-4.4,2.5-5.8,3.4c1.9-0.5,5-1.7,10.1-4.3
					c6.7-3.4,8.5-3.9,9.4-3.9s1.4,0.5,1.6,0.8s0.5,0.9,0.1,1.8c-1.5,3.7-4.3,18.9-5.3,29c-2.2,23-3.4,72.7-2.5,108.5
					c0.5,19.4,0.9,44.1,0.9,55c0,17.9-0.2,20.2-2.2,24.7c-3.4,7.2-8.5,12.3-16,16.1C435.7,472.9,419.2,478.9,416.2,478.9z"/>
			</g>
			<g class="st3">
				<path class="st4" d="M416.2,478.9c-0.6,0-1.2-0.3-1.5-0.9s-0.7-1.4,2.3-5.3c6.1-7.5,10-19.2,12-35.8c1.4-11.8,0.3-26.8-4.1-55.3
					c-4.7-30.4-5.5-42.4-4.8-71.7c0.7-31.9,2.8-53,7.4-75.1c1.6-7.7,2-8.4,6.9-11.6c10.3-6.7,20-20.9,22.3-32.8
					c1.9-9.1,0.8-27.7-2.4-37.6c-8.7-27.2-31.7-55-61.5-74.5c-10.6-6.9-35.1-19.1-48.6-24c-19.2-7.1-45.8-13.5-71.3-17.1
					c-8-1.1-28-1.9-49.7-1.9c-17.6,0-31.7,0.5-37.9,1.4c-63.4,8.6-119.5,38.4-149.9,79.6c-6.8,9.1-6.8,9.1-7.8,9.1h-0.9l-0.5-0.8
					c-0.5-0.9-0.5-0.9,2.8-7c7.3-13.2,16.4-24.9,29.5-37.8c17.7-17.7,33-28.4,58.4-40.8c28-13.6,54.7-20,102-24.4
					c3.3-0.3,10.4-0.5,19.4-0.5c12.9,0,26.5,0.4,34.7,0.9c60.8,3.8,118.8,27,163.3,65.3c17.8,15.4,28.4,29.1,37.6,48.8
					c14.7,31.2,16.4,57.7,5.4,80.9c-5.3,11.3-15.8,22-28.7,29.2c-2.5,1.4-4.4,2.5-5.8,3.4c1.9-0.5,5-1.7,10.1-4.3
					c6.7-3.4,8.5-3.9,9.4-3.9s1.4,0.5,1.6,0.8s0.5,0.9,0.1,1.8c-1.5,3.7-4.3,18.9-5.3,29c-2.2,23-3.4,72.7-2.5,108.5
					c0.5,19.4,0.9,44.1,0.9,55c0,17.9-0.2,20.2-2.2,24.7c-3.4,7.2-8.5,12.3-16,16.1C435.7,472.9,419.2,478.9,416.2,478.9z"/>
			</g>
		</g>
	</g>
	<g id="Innen_Groß">
		<path id="Fläche_ohne_Effekt_1_" class="st5" d="M248.3,492.9c-31,0-57.6-0.5-69.3-1.2c-74.8-5-117.5-14.3-127-27.7
			c-6.6-9.3-10.8-26.4-12.3-49.4c-1.2-19.9,0-39.5,4.9-77.6c2.6-19.9,2.8-69.5,0.4-87c-1.4-10.7-3.6-21.3-5-25.9
			c-0.1-0.4-0.5-1.4,0.2-2.4c0.8-1.2,2.5-1.2,5.8-1.2c0.7,0,1.3,0,1.8-0.1c-0.5-0.2-1.1-0.4-1.8-0.6c-12.4-3.6-21.6-11.2-26.7-22
			C16.1,191.1,16,190,16,178c0-11.6,0.3-13.5,3.4-22.5c7.9-22.6,23.5-46.2,40.9-61.4c32.5-28.5,81.8-49.5,125.6-53.6
			c11.4-1,24.2-1.6,37.2-1.6c15.1,0,29.6,0.7,42.1,2.1c65.7,7.3,120.8,31,155,66.8c21.2,22.1,31.5,43.9,31.6,66.7
			c0.1,15.9-4.4,27.3-15.1,38.2c-6.9,7-14.6,11.3-28.2,16.2c-5.2,1.9-6.9,3-7.6,3.5c0.4,0,1,0.1,1.9,0.1c0.5,0,1.1,0,1.8,0
			c3.1,0,8.7-0.8,12.2-1.7l9.2-2.4l-1.1,4.5c-5.4,18.7-9.6,58-9.6,89.7c0,21,0.9,31.9,5.2,61.4c3.9,26.7,4.5,55.3,1.5,66.6
			c-4.1,15-12.1,26.1-21.9,30.5c-7.8,3.5-40,7.7-84.1,10.8C305.2,492.4,279.2,492.9,248.3,492.9z"/>
		<g id="Fläche_mit_Effekt_1_" class="st1">
			<g class="st2">
				<path class="st5" d="M248.3,492.9c-31,0-57.6-0.5-69.3-1.2c-74.8-5-117.5-14.3-127-27.7c-6.6-9.3-10.8-26.4-12.3-49.4
					c-1.2-19.9,0-39.5,4.9-77.6c2.6-19.9,2.8-69.5,0.4-87c-1.4-10.7-3.6-21.3-5-25.9c-0.1-0.4-0.5-1.4,0.2-2.4
					c0.8-1.2,2.5-1.2,5.8-1.2c0.7,0,1.3,0,1.8-0.1c-0.5-0.2-1.1-0.4-1.8-0.6c-12.4-3.6-21.6-11.2-26.7-22C16.1,191.1,16,190,16,178
					c0-11.6,0.3-13.5,3.4-22.5c7.9-22.6,23.5-46.2,40.9-61.4c32.5-28.5,81.8-49.5,125.6-53.6c11.4-1,24.2-1.6,37.2-1.6
					c15.1,0,29.6,0.7,42.1,2.1c65.7,7.3,120.8,31,155,66.8c21.2,22.1,31.5,43.9,31.6,66.7c0.1,15.9-4.4,27.3-15.1,38.2
					c-6.9,7-14.6,11.3-28.2,16.2c-5.2,1.9-6.9,3-7.6,3.5c0.4,0,1,0.1,1.9,0.1c0.5,0,1.1,0,1.8,0c3.1,0,8.7-0.8,12.2-1.7l9.2-2.4
					l-1.1,4.5c-5.4,18.7-9.6,58-9.6,89.7c0,21,0.9,31.9,5.2,61.4c3.9,26.7,4.5,55.3,1.5,66.6c-4.1,15-12.1,26.1-21.9,30.5
					c-7.8,3.5-40,7.7-84.1,10.8C305.2,492.4,279.2,492.9,248.3,492.9z"/>
			</g>
			<g class="st6">
				<path class="st7" d="M248.3,492.9c-31,0-57.6-0.5-69.3-1.2c-74.8-5-117.5-14.3-127-27.7c-6.6-9.3-10.8-26.4-12.3-49.4
					c-1.2-19.9,0-39.5,4.9-77.6c2.6-19.9,2.8-69.5,0.4-87c-1.4-10.7-3.6-21.3-5-25.9c-0.1-0.4-0.5-1.4,0.2-2.4
					c0.8-1.2,2.5-1.2,5.8-1.2c0.7,0,1.3,0,1.8-0.1c-0.5-0.2-1.1-0.4-1.8-0.6c-12.4-3.6-21.6-11.2-26.7-22C16.1,191.1,16,190,16,178
					c0-11.6,0.3-13.5,3.4-22.5c7.9-22.6,23.5-46.2,40.9-61.4c32.5-28.5,81.8-49.5,125.6-53.6c11.4-1,24.2-1.6,37.2-1.6
					c15.1,0,29.6,0.7,42.1,2.1c65.7,7.3,120.8,31,155,66.8c21.2,22.1,31.5,43.9,31.6,66.7c0.1,15.9-4.4,27.3-15.1,38.2
					c-6.9,7-14.6,11.3-28.2,16.2c-5.2,1.9-6.9,3-7.6,3.5c0.4,0,1,0.1,1.9,0.1c0.5,0,1.1,0,1.8,0c3.1,0,8.7-0.8,12.2-1.7l9.2-2.4
					l-1.1,4.5c-5.4,18.7-9.6,58-9.6,89.7c0,21,0.9,31.9,5.2,61.4c3.9,26.7,4.5,55.3,1.5,66.6c-4.1,15-12.1,26.1-21.9,30.5
					c-7.8,3.5-40,7.7-84.1,10.8C305.2,492.4,279.2,492.9,248.3,492.9z"/>
			</g>
		</g>
	</g>
</g>
<g id="Punkte" class="st1">
	<circle class="st8" cx="82.2" cy="135.7" r="4.8"/>
	<circle class="st9" cx="80.9" cy="186" r="3.5"/>
	<circle class="st10" cx="38.7" cy="159.9" r="4.1"/>
	<circle class="st11" cx="108.6" cy="456.4" r="7.3"/>
	<circle class="st8" cx="62.8" cy="394.7" r="2"/>
	<circle class="st12" cx="82.4" cy="358.6" r="5.1"/>
	<circle class="st8" cx="98.6" cy="322.4" r="2.7"/>
	<circle class="st8" cx="68.1" cy="299.1" r="3.3"/>
	
		<ellipse transform="matrix(6.652063e-02 -0.9978 0.9978 6.652063e-02 -212.0944 318.9007)" class="st13" cx="64.4" cy="272.8" rx="3.7" ry="3.7"/>
	<circle class="st8" cx="62.6" cy="230.9" r="1.8"/>
	<circle class="st8" cx="59.9" cy="199.4" r="2.7"/>
	<circle class="st8" cx="319" cy="470.9" r="3.1"/>
	<circle class="st8" cx="347.6" cy="440.8" r="4.1"/>
	<circle class="st8" cx="385.9" cy="464.4" r="4.7"/>
	<circle class="st8" cx="394.8" cy="421.3" r="2"/>
	<circle class="st8" cx="357.8" cy="407.7" r="6.1"/>
	<circle class="st8" cx="379.7" cy="371.1" r="1.6"/>
	<circle class="st13" cx="385.7" cy="335.8" r="2.2"/>
	<circle class="st8" cx="364.3" cy="327.8" r="2.7"/>
	<circle class="st13" cx="399.3" cy="300.3" r="4.5"/>
	<circle class="st8" cx="370.6" cy="270.9" r="1.8"/>
	<circle class="st8" cx="401.9" cy="261.3" r="5.1"/>
	<circle class="st8" cx="375.7" cy="219.1" r="3.3"/>
	<circle class="st8" cx="409.7" cy="199.4" r="2.7"/>
	<circle class="st8" cx="432.3" cy="175.3" r="3.1"/>
	<circle class="st13" cx="412.3" cy="149.1" r="2.7"/>
	<circle class="st13" cx="385.9" cy="111.1" r="4.7"/>
	<circle class="st8" cx="348.9" cy="89.5" r="1.3"/>
	<circle class="st13" cx="321.2" cy="80.2" r="2.2"/>
	<circle class="st8" cx="382.4" cy="149.9" r="3.4"/>
	<circle class="st8" cx="339.3" cy="117.2" r="6.1"/>
	<circle class="st13" cx="265.2" cy="66" r="4"/>
	<circle class="st12" cx="208.6" cy="60.4" r="3.3"/>
	<circle class="st14" cx="165.7" cy="73.6" r="7.6"/>
	<circle class="st15" cx="102.2" cy="94.6" r="6.3"/>
	<circle class="st8" cx="130.1" cy="109.1" r="2.7"/>
	<circle class="st8" cx="186.8" cy="100.4" r="2.9"/>
	<circle class="st8" cx="237.5" cy="91.8" r="3.6"/>
	<circle class="st8" cx="279.3" cy="106.8" r="3.4"/>
	<circle class="st13" cx="96.9" cy="419.1" r="5.3"/>
	<circle class="st8" cx="93.8" cy="387.7" r="2.1"/>
	
		<ellipse transform="matrix(6.652045e-02 -0.9978 0.9978 6.652045e-02 -368.3285 470.1042)" class="st8" cx="67.1" cy="431.9" rx="4.3" ry="4.3"/>
	<circle class="st8" cx="288.3" cy="473.3" r="5.5"/>
</g>
<g id="Außenform">
	<path id="Rahmen" d="M478.1,123.5c-13.9-27.2-29.8-44.8-57.6-63.7C380.2,32.4,333.6,15.2,288,11c-12.1-1.1-53.6-2-63-1.4
		c-70.1,4.8-118,21.5-158.2,55.3C48,80.7,34,98.4,23.5,119.5C12.9,140.9,9.6,155.6,10.2,178c0.3,13.8,2,17.7,3.5,21.2
		c3.8,8.1,10.8,15.5,17.9,18.9c5.8,2.7,5,0.1,8.4,25.4c4.2,31.5,3.5,70-2.1,112.5c-3.6,28-4.6,51-3,67.2
		c2.7,25.7,7.2,39.2,15.7,46.7c5,4.4,17.7,9.9,30,13c25.7,6.4,72.6,11.7,124.4,14.1c90.3,4.2,203.1-5.7,234.4-20.4
		c9.4-4.4,19.5-13.7,22.7-20.8c2.3-5.1,2.4-6,2.4-30.3c-0.1-13.8-0.6-34.5-1.3-46c-2-35.4,0.8-115,4.8-138.8l2.3-9.6
		c0.1-0.4,0.2-0.7,0.5-1l4.5-6c0.1-0.1,0.2-0.2,0.3-0.4c6.9-7.5,10.8-14,14.1-24.2c2.3-7.1,2.6-9.6,2.7-22
		C492.5,157.1,489.4,145.6,478.1,123.5z M399.6,479.5c-7.7,3.5-40,7.6-83.6,10.7c-23.4,1.6-111.6,1.6-137,0
		c-73.8-4.9-116.7-14.1-125.9-27.1c-6.4-9-10.6-26-12-48.6c-1.2-19.8,0-39,4.9-77.3c2.6-20.1,2.8-70,0.4-87.4
		c-1.3-10.1-3.5-21.1-5-26.1c-0.5-1.5,0.2-1.7,4.6-1.7c6.2,0,6.4-1.9,0.4-3.6c-12-3.5-20.8-10.7-25.7-21.2
		c-3.1-6.4-3.2-7.2-3.2-19.2c0-11.5,0.3-13.3,3.3-22c7.7-22.2,23.4-45.8,40.5-60.8C93.5,67,142.9,46,186,42
		c24.9-2.3,55.5-2.1,79,0.5c65.7,7.3,119.9,30.6,154.1,66.3c20.9,21.8,31.1,43.3,31.2,65.7c0.1,15.7-4.3,26.6-14.7,37.1
		c-6.7,6.7-14.1,11-27.6,15.8c-5.7,2.1-8.6,3.7-8.8,4.9c-0.3,1.5,0.5,1.7,5.5,1.6c3.2,0,8.9-0.8,12.6-1.8l6.8-1.8l-0.5,2.1
		c-5.4,18.8-9.6,58.1-9.6,90c0,21.3,1,32.6,5.2,61.6c3.9,26.7,4.5,54.9,1.5,66C416.8,464.4,409.1,475.3,399.6,479.5z M477.9,208.9
		c-5.2,11.1-15.5,21.5-28.1,28.5c-4.9,2.7-8.8,5.2-8.8,5.7c0,2.1,5.6,0.6,14.5-4c6.8-3.5,9.5-4.4,9-3.3c-1.6,4-4.4,19.6-5.4,29.5
		c-2.2,22.6-3.4,72.5-2.5,108.7c0.5,19.5,0.9,44.3,0.9,55c0,17.7-0.2,19.9-2.1,24.1c-3.2,6.8-8,11.7-15.3,15.4
		c-5.9,2.9-21.7,8.5-24.2,8.5c-0.5,0,0.4-1.7,2-3.8c6.3-7.8,10.3-19.9,12.3-36.5c1.4-11.9,0.3-27.1-4.1-55.7
		c-4.7-30.3-5.5-42.2-4.8-71.4c0.7-31.8,2.8-52.9,7.4-74.8c1.5-7.4,1.7-7.7,6.3-10.7c10.6-6.9,20.5-21.3,23-33.8
		c2-9.5,0.8-28.2-2.4-38.3c-8.8-27.4-32.1-55.7-62.1-75.3c-10.8-7.1-35.3-19.2-48.9-24.2c-19.5-7.2-46.4-13.6-71.6-17.2
		c-15.8-2.2-73-2.6-88-0.5C121.1,43.5,64.9,73.3,34.1,115c-8,10.7-8.2,10.9-3.8,3c7.2-13,16.3-24.7,29.2-37.5
		c17.7-17.7,32.8-28.2,58-40.5c27.8-13.5,54.7-19.9,101.5-24.3c8.3-0.8,38.8-0.6,53.9,0.4C333.4,19.9,391.1,43,435.3,81
		c17.5,15.1,28.1,28.8,37.2,48.3C487,160.2,488.8,186,477.9,208.9z"/>
</g>
</svg>
