<?xml version="1.0" encoding="utf-8"?>
<!-- Generator: Adobe Illustrator 23.0.2, SVG Export Plug-In . SVG Version: 6.00 Build 0)  -->
<svg version="1.1" id="Perspective" xmlns="http://www.w3.org/2000/svg" xmlns:xlink="http://www.w3.org/1999/xlink" x="0px"
	 y="0px" viewBox="0 0 64 64" style="enable-background:new 0 0 64 64;" xml:space="preserve">
<style type="text/css">
	.st0{fill:#1C2437;}
	.st1{fill:#35425B;}
	.st2{fill:#2880C3;}
	.st3{fill:#FFFFFF;}
</style>
<ellipse class="st0" cx="31.9" cy="51.1" rx="31.5" ry="11.1"/>
<path class="st0" d="M10.8,8.7v38.3c-0.1,0.2-0.1,0.5-0.1,0.7c0,4.1,9.5,7.5,21.2,7.5c11.7,0,21.2-3.4,21.2-7.5V8.7H10.8z"/>
<ellipse class="st1" cx="31.9" cy="8.7" rx="21.2" ry="7.5"/>
<g>
	<path class="st2" d="M31.9,46.6c-11.1,0-20.1-3-21.1-6.8v7.3c-0.1,0.2-0.1,0.5-0.1,0.7c0,4.1,9.5,7.5,21.2,7.5
		c11.7,0,21.2-3.4,21.2-7.5v-8.7C53.2,43.2,43.7,46.6,31.9,46.6z"/>
	<path class="st2" d="M10.7,39.1c0,0.2,0,0.5,0.1,0.7v-1.4C10.7,38.6,10.7,38.8,10.7,39.1z"/>
</g>
<g>
	<path class="st3" d="M43.1,32.8v-2.2c0-0.8-0.8-1.3-1.1-1.5c-0.1-0.1-0.2-0.2-0.2-0.3c-0.3-1.5-0.9-2.9-1.8-4.1
		c-0.1-0.1-0.1-0.2,0-0.3l0,0c0.1-0.1,0.1-0.3,0-0.4c-1.9-2.3-4.8-3.7-8-3.7s-6.1,1.4-8.1,3.7c-0.1,0.1-0.1,0.3,0,0.4l0,0
		c0.1,0.1,0.1,0.2,0,0.3c-0.9,1.2-1.5,2.6-1.8,4.1c0,0.1-0.1,0.3-0.2,0.3c-0.4,0.2-1.1,0.8-1.1,1.5v2.2c0,0,0,2,2.1,2
		c0,0,0.7,0.1,0.7-0.7c0-0.8,0-3.4,0-3.6c0-4.6,3.8-8.4,8.4-8.4s8.4,3.8,8.4,8.4l0,0c0,0,0,2.8,0,3.6s0.7,0.7,0.7,0.7
		C43.1,34.9,43.1,32.8,43.1,32.8z"/>
	<path class="st3" d="M40,36.4c0,0-0.9,4.4-8,5.1c0,0-3,0.2-0.7,0.7c2.3,0.5,7.8,0.4,9.2-2.7c0,0,0.8-1.2,0-3.3
		C40.6,36.3,40.3,35.6,40,36.4z"/>
	<path class="st3" d="M27.7,36.4c0,0-1.9,0-2.4-2.2c-0.5-2.2,0.2-3.1,0.8-3.3s2.2,0.1,4.7,3.1C33.2,36.8,27.7,36.4,27.7,36.4z"/>
	<path class="st3" d="M33.8,36.3c0,0-2-0.7-0.3-1.9c1.7-1.2,4.5-2.2,5.1-0.9c0.6,1.3-0.6,2.7-1.2,2.9C36.8,36.6,36,36.8,33.8,36.3z"
		/>
</g>
</svg>
