<?xml version="1.0" encoding="utf-8"?>
<!-- Generator: Adobe Illustrator 24.1.0, SVG Export Plug-In . SVG Version: 6.00 Build 0)  -->
<svg version="1.1" id="Layer_1" xmlns="http://www.w3.org/2000/svg" xmlns:xlink="http://www.w3.org/1999/xlink" x="0px" y="0px"
	 viewBox="0 0 16 16" style="enable-background:new 0 0 16 16;" xml:space="preserve">
<style type="text/css">
	.st0{fill:#AA71AE;}
	.st1{fill:#FFFFFF;}
	.st2{display:none;}
	.st3{fill:#D8820C;}
	.st4{fill:#F9B23D;}
	.st5{fill:#FEEC3B;}
	.st6{fill:#FDD597;}
	.st7{fill:#EC616A;}
	.st8{fill:#E59B2F;}
	.st9{fill:#5AB0E3;}
	.st10{fill:#70B638;}
	.st11{fill:#E9D200;}
	.st12{fill:none;}
	.st13{fill:#E1C60A;}
</style>
<g id="Base_1_">
	<g>
		<path class="st7" d="M14.3,9.6c0,3.5-2.8,6.4-6.4,6.4s-6.4-2.8-6.4-6.4s3-9.5,6.5-9.5S14.3,6.1,14.3,9.6z"/>
		<path class="st1" d="M14.2,9.7L14.2,9.7V9.3l-6.1,3.5L1.9,9.3v0.4l5.8,3.4l-0.6,0.3l-5.2-3v0.2c0,0.1,0,0.1,0,0.2v0.1l5,2.9v0.7
			l-4.8-2.8L2.3,12v0.1v0.1l5.3,3.1l-0.8,0.4l0.3,0.1c0,0,0.5,0,0.9,0h0.1c0.4,0,0.8-0.1,0.8-0.1l0.3-0.1l-0.7-0.4l5.1-3l0,0l0,0
			c0-0.1,0-0.1,0.1-0.2l0.1-0.4l-4.7,2.7v-0.7L14,11l0,0v-0.1v-0.1v-0.3l-5.1,3l-0.6-0.3L14.2,9.7L14.2,9.7z"/>
		<polygon class="st7" points="7.2,15.8 7.2,15.8 8.1,15.9 9,15.8 9,15.8 8.1,15.3 		"/>
		<path class="st7" d="M8,0.3c3.2,0,6.1,5.8,6.1,9.3c0,3.4-2.7,6.1-6.1,6.1S1.9,13,1.9,9.6C1.9,6.1,4.7,0.3,8,0.3 M8,0.1
			c-3.5,0-6.4,6-6.4,9.5S4.4,16,8,16c3.5,0,6.4-2.8,6.4-6.4C14.3,6.1,11.5,0.1,8,0.1L8,0.1z"/>
	</g>
</g>
<g>
	<path class="st1" d="M10.9,8.3c0,0-0.3,1.6-3,1.9c0,0-1.1,0.1-0.2,0.2c0.8,0.2,2.7,0.1,3.4-0.9c0,0,0.3-0.5,0.1-1.3
		C11.1,8.2,10.9,8,10.9,8.3z"/>
	<path class="st1" d="M9.9,8.3c0.3-0.1,0.6-0.6,0.4-1.1C10.1,6.7,9,7.1,8.4,7.5C7.9,7.9,8.4,8.1,8.5,8.2C8.8,8.4,9.7,8.4,9.9,8.3z"
		/>
	<path class="st1" d="M7.5,7.4C6.5,6.3,5.9,6.2,5.7,6.2C5.5,6.3,5.2,6.6,5.4,7.4c0.2,0.8,0.9,0.8,0.9,0.8S8.3,8.4,7.5,7.4z"/>
	<path class="st1" d="M4.9,3.6c0,0,0,0.1,0,0.2l0,0c0,0,0,0.1,0,0.1C4.7,4.4,4.4,4.9,4.3,5.5c0,0,0,0.1-0.1,0.1
		C4.1,5.7,3.8,5.9,3.8,6.2V7c0,0,0,0.7,0.7,0.7c0,0,0.1,0,0.2,0c0.1,0,0.2-0.1,0.2-0.2c0-0.3,0-1.3,0-1.4C4.8,4.4,6.2,3,8,3
		s3.1,1.4,3.1,3.1c0,0,0,1.1,0,1.4c0,0.2,0.1,0.2,0.2,0.2c0,0,0.1,0,0.1,0c0.7,0,0.7-0.7,0.7-0.7V6.2c0-0.3-0.3-0.5-0.4-0.6
		c0,0-0.1-0.1-0.1-0.1c-0.1-0.6-0.3-1.1-0.6-1.6c0,0,0-0.1,0-0.1c0,0,0-0.1,0-0.2c-0.7-0.9-1.8-1.4-3-1.4C6.7,2.2,5.6,2.7,4.9,3.6z"
		/>
</g>
</svg>
