<?xml version="1.0" encoding="utf-8"?>
<!-- Generator: Adobe Illustrator 24.1.0, SVG Export Plug-In . SVG Version: 6.00 Build 0)  -->
<svg version="1.1" id="Layer_1" xmlns="http://www.w3.org/2000/svg" xmlns:xlink="http://www.w3.org/1999/xlink" x="0px" y="0px"
	 viewBox="0 0 64 64" style="enable-background:new 0 0 64 64;" xml:space="preserve">
<style type="text/css">
	.st0{fill:#AA71AE;}
	.st1{fill:#FFFFFF;}
	.st2{display:none;}
	.st3{fill:#D8820C;}
	.st4{fill:#F9B23D;}
	.st5{fill:#FEEC3B;}
	.st6{fill:#FDD597;}
	.st7{fill:#EC616A;}
	.st8{fill:#E59B2F;}
	.st9{fill:#5AB0E3;}
	.st10{fill:#70B638;}
	.st11{fill:#E9D200;}
	.st12{fill:none;}
	.st13{fill:#E1C60A;}
</style>
<g id="Base_4_">
	<path class="st9" d="M57,38.3c0,14-11.3,25.3-25.3,25.3S6.4,52.3,6.4,38.3S17.8,0.4,31.7,0.4S57,24.3,57,38.3z"/>
	<g>
		<path class="st1" d="M32,51.9l-14.4-8.3l-8.9,5.2c0.1,0.3,0.3,0.6,0.4,0.9l8.5-4.9L32,53l14.4-8.3l8.1,4.7
			c0.1-0.3,0.3-0.6,0.4-0.9l-8.5-4.9L32,51.9z"/>
		<path class="st1" d="M39.7,59.9v-3.6l3.1-1.8l3.1,1.8v2.9c0.3-0.2,0.7-0.5,1-0.7v-2.2l3.1-1.8l0.7,0.4c0.2-0.3,0.4-0.5,0.7-0.8
			L50,53.4l-3.6,2.1l-3.6-2.1l-3.6,2.1l-3.6-2.1L32,55.5l-3.6-2.1l-3.6,2.1l-3.6-2.1l-3.6,2.1L14,53.4l-1.8,1
			c0.2,0.3,0.4,0.5,0.7,0.8l1.1-0.6l3.1,1.8V59c0.3,0.2,0.7,0.5,1,0.7v-3.3l3.1-1.8l3.1,1.8V60l-2.7,1.6c0.4,0.2,0.8,0.3,1.2,0.5
			l2-1.1l3.1,1.8v0.7c0.3,0.1,0.7,0.1,1,0.1v-0.9l3.1-1.8l3.1,1.8v0.8c0.3,0,0.7-0.1,1-0.2v-0.6l3.1-1.8l1.8,1
			c0.4-0.2,0.8-0.3,1.2-0.5L39.7,59.9z M31.5,59.9l-3.1,1.8l-3.1-1.8v-3.6l3.1-1.8l3.1,1.8V59.9z M38.7,59.9l-3.1,1.8l-3.1-1.8v-3.6
			l3.1-1.8l3.1,1.8V59.9z"/>
		<path class="st1" d="M13,44.2l3.9-2.2v-4.5l-3.6-2.1v-3.9l3.6-2.1V25L13,22.7l-3.6,2.1L9,24.6c0,0.2-0.1,0.4-0.1,0.5l0.2,0.1v3.9
			L7.5,30c-0.1,0.2-0.1,0.5-0.2,0.7l2-1.2l3.4,1.9v3.9l-3.4,1.9l-2.8-1.6c0,0.2,0,0.4,0,0.6l2.6,1.5v3.9L6.9,43
			c0,0.2,0.1,0.3,0.1,0.5l2.4-1.4L13,44.2z M9.6,29.1v-3.9l3.4-1.9l3.4,1.9v3.9l-3.4,2L9.6,29.1z M9.6,37.8l3.4-1.9l3.4,1.9v3.9
			L13,43.6l-3.4-1.9V37.8z"/>
		<path class="st1" d="M32,13.9l-14.4,8.3l-6.2-3.6c-0.1,0.3-0.3,0.6-0.4,0.9l6.6,3.8L32,15.1l14.4,8.3l6.2-3.6
			c-0.1-0.3-0.3-0.6-0.4-0.9l-5.7,3.3L32,13.9z"/>
		<path class="st1" d="M21.2,5.2L24.3,7v3.6l-3.1,1.8l-3.1-1.8V8.1c-0.3,0.4-0.7,0.8-1,1.2v1.2l-1.5,0.9c-0.4,0.6-0.8,1.2-1.2,1.8
			l3.2-1.9l3.6,2.1l3.6-2.1l3.6,2.1l3.6-2.1l3.6,2.1l3.6-2.1l3.6,2.1l3.2-1.9l2.4,1.4c-0.4-0.6-0.4-1.5-0.9-2.1l-0.6-0.4V10
			c-0.3-0.4-1.1-0.7-1.4-1.1v1.8l-2.7,1.6l-3.1-1.8V7l2.9-1.7c-0.3-0.2-0.5-0.5-0.8-0.7l-2.6,1.5l-3.1-1.8V1.2
			c-0.3-0.1-0.7-0.2-1-0.3v3.4L32,6.1l-3.1-1.8V0.7c-0.3,0.1-0.7,0.2-1,0.3v3.3l-3.1,1.8l-2.9-1.7c-0.5,0.4-0.9,0.8-1.3,1.2
			L21.2,5.2z M32.5,7l3.1-1.8L38.7,7v3.6l-3.1,1.8l-3.1-1.8C32.5,10.6,32.5,7,32.5,7z M25.3,7l3.1-1.8L31.5,7v3.6l-3.1,1.8l-3.1-1.8
			V7z"/>
		<path class="st1" d="M47.2,25v4.5l3.6,2.1v3.9l-3.6,2.1V42l3.9,2.2l3.6-2.1l1.9,1.1c0-0.2,0.1-0.3,0.1-0.5l-1.7-1v-3.9l2.1-1.2
			c0-0.2,0-0.4,0-0.6l-2.3,1.3l-3.4-1.9v-3.9l3.4-1.9l1.4,0.8c-0.1-0.2-0.1-0.5-0.2-0.7l-1-0.6V26c-0.1-0.5-0.3-0.9-0.4-1.4l-3.4-2
			L47.2,25z M54.4,37.8v3.9L51,43.6l-3.4-1.9v-3.9l3.4-1.9L54.4,37.8z M54.4,29.1l-3.4,2l-3.4-1.9v-3.9l3.4-1.9l3.4,1.9V29.1z"/>
	</g>
	<g>
		<path class="st1" d="M40.5,39.2c0,0-1,4.8-8.8,5.6c0,0-3.3,0.3-0.7,0.7c2.5,0.5,8.1,0.4,10-2.6c0.1-0.1,1-1.6,0.3-3.9
			C41.2,38.8,40.7,38.3,40.5,39.2z"/>
		<path class="st1" d="M37.6,39.1c0.8-0.3,1.9-1.8,1.3-3.2c-0.7-1.4-3.8-0.4-5.6,0.9c-1.5,1.1-0.2,1.8,0.2,2.1
			C34.4,39.4,37,39.3,37.6,39.1z"/>
		<path class="st1" d="M30.4,36.4c-2.7-3.3-4.6-3.6-5.2-3.4c-0.6,0.2-1.4,1.2-0.9,3.6c0.5,2.4,2.6,2.5,2.6,2.5S33,39.5,30.4,36.4z"
			/>
		<path class="st1" d="M22.8,25.3c-0.1,0.1-0.1,0.3,0.1,0.5l0.1,0.1c0.1,0.1,0.1,0.3,0.1,0.4c-1,1.3-1.7,2.8-1.9,4.5
			c-0.1,0.1-0.1,0.3-0.3,0.4c-0.4,0.2-1.3,0.9-1.3,1.7v2.4c0,0-0.1,2,2,2.2c0.1,0,0.4,0,0.5,0c0.2,0,0.5-0.2,0.5-0.7
			c0-0.9,0-3.8,0-4c0-5.1,4.2-9.3,9.3-9.3s9.3,4.2,9.3,9.3c0,0,0,3.2,0,4c0,0.6,0.4,0.7,0.6,0.7c0.1,0,0.3,0,0.3,0
			c2-0.1,2-2.2,2-2.2v-2.5c0-0.9-0.9-1.5-1.3-1.7c-0.1-0.1-0.2-0.2-0.3-0.4c-0.3-1.7-1-3.2-1.9-4.6c-0.1-0.1-0.1-0.3,0-0.3
			c0.1-0.1,0.1-0.3,0.1-0.5c-2.1-2.6-5.3-4.1-8.9-4.1C28.1,21.2,24.9,22.7,22.8,25.3z"/>
	</g>
</g>
<g id="Outline_5_">
	<path class="st9" d="M31.7,1.4c12.9,0,24.3,23,24.3,36.9c0,13.4-10.9,24.3-24.3,24.3S7.4,51.7,7.4,38.3C7.4,24.4,18.8,1.4,31.7,1.4
		 M31.7,0.4c-14,0-25.3,24-25.3,37.9c0,14,11.3,25.3,25.3,25.3S57,52.3,57,38.3S45.7,0.4,31.7,0.4L31.7,0.4z"/>
</g>
</svg>
