<?xml version="1.0" encoding="utf-8"?>
<!-- Generator: Adobe Illustrator 24.1.0, SVG Export Plug-In . SVG Version: 6.00 Build 0)  -->
<svg version="1.1" id="Layer_1" xmlns="http://www.w3.org/2000/svg" xmlns:xlink="http://www.w3.org/1999/xlink" x="0px" y="0px"
	 viewBox="0 0 64 64" style="enable-background:new 0 0 64 64;" xml:space="preserve">
<style type="text/css">
	.st0{fill:#AA71AE;}
	.st1{fill:#FFFFFF;}
	.st2{display:none;}
	.st3{fill:#D8820C;}
	.st4{fill:#F9B23D;}
	.st5{fill:#FEEC3B;}
	.st6{fill:#FDD597;}
	.st7{fill:#EC616A;}
	.st8{fill:#E59B2F;}
	.st9{fill:#5AB0E3;}
	.st10{fill:#70B638;}
	.st11{fill:#E9D200;}
	.st12{fill:none;}
	.st13{fill:#E1C60A;}
</style>
<g id="Base_5_">
	<path class="st1" d="M57,38.3c0,14-11.3,25.3-25.3,25.3S6.4,52.3,6.4,38.3S17.8,0.4,31.7,0.4S57,24.3,57,38.3z"/>
</g>
<g id="Detail_6_">
	<g>
		<path class="st10" d="M20,20.8l-7.2-4.1c-0.3,0.7-0.7,1.3-1,2l6,3.4L20,20.8z"/>
		<path class="st10" d="M22.8,19.2l-8.6-5c-0.4,0.6-0.7,1.3-1.1,2l7.5,4.3L22.8,19.2z"/>
		<path class="st10" d="M25.5,17.6l-9.9-5.7c-0.4,0.6-0.8,1.3-1.2,1.9l8.9,5.1L25.5,17.6z"/>
		<path class="st10" d="M48.6,42.9l6.4,3.7L54.8,47l-6.4-3.7l-2.2,1.3l8.1,4.7c1.6-3.3,2.6-7,2.6-11c0-4.9-1.6-10.8-4-16.7L48.6,24
			V42.9z"/>
		<path class="st10" d="M28.3,16l-11-6.4c-0.5,0.6-0.9,1.2-1.3,1.8l10,5.9L28.3,16z"/>
		<path class="st10" d="M20.5,46.4L10.9,52l-0.2-0.4l9.4-5.4l-2.2-1.3l-8.3,4.8c0.8,1.5,1.7,2.9,2.7,4.2l10.5-6.1L20.5,46.4z"/>
		<path class="st10" d="M15.1,43.3L8.7,47l-0.2-0.4l6.4-3.7V24l-4.4-2.5c-2.4,5.9-3.8,12-3.8,16.9c0,4,1,7.5,2.7,10.9l8-4.6
			L15.1,43.3z"/>
		<path class="st10" d="M23.3,48l-10.8,6.2c0.5,0.6,1,1.2,1.5,1.7l11.5-6.6L23.3,48z"/>
		<path class="st10" d="M17.3,22.3L11.6,19c-0.3,0.7-0.6,1.4-0.9,2.1l4.5,2.6L17.3,22.3z"/>
		<path class="st10" d="M42.9,20.5l7.4-4.3c-0.4-0.7-0.7-1.3-1.1-2l-8.6,4.9L42.9,20.5z"/>
		<path class="st10" d="M37.4,17.3l10.1-5.8c-0.4-0.6-0.9-1.2-1.3-1.8l-11,6.4L37.4,17.3z"/>
		<path class="st10" d="M40.2,18.9l8.8-5.1c-0.4-0.6-0.8-1.3-1.2-1.9l-9.9,5.7L40.2,18.9z"/>
		<path class="st10" d="M45.6,22l6-3.4c-0.3-0.7-0.7-1.3-1-2l-7.2,4.1L45.6,22z"/>
		<path class="st10" d="M34.7,15.7l11-6.4c-0.5-0.6-0.9-1.2-1.4-1.7l-11.7,6.8L34.7,15.7z"/>
		<path class="st10" d="M31,14.4L19,7.5c-0.5,0.5-1,1.1-1.4,1.7l11.3,6.5L31,14.4z"/>
		<path class="st10" d="M31.7,14.3l0.2-0.1l12-6.9c-3.4-3.7-7-5.6-11.2-6l3.6,2.1v5.3l-4.6,2.6l-4.6-2.6V3.3l3.6-2.1
			c-4.2,0.3-8,2.2-11.4,5.9l12.2,7L31.7,14.3z"/>
		<polygon class="st10" points="35.3,8 35.3,3.9 31.7,1.8 28.1,3.9 28.1,8 31.7,10.1 		"/>
		<path class="st10" d="M48.3,23.6l4.4-2.5c-0.3-0.7-0.6-1.4-0.9-2.1l-5.7,3.3L48.3,23.6z"/>
		<path class="st10" d="M35.2,50.9l12,6.9c0.6-0.5,1.2-1,1.8-1.6l-11.5-6.6L35.2,50.9z"/>
		<path class="st10" d="M37.9,49.3l11.5,6.6c0.5-0.5,1.1-1.1,1.5-1.7L40.2,48L37.9,49.3z"/>
		<path class="st10" d="M31.7,52.6l-0.3,0.1l-12.2,7.1c2.5,1.5,4.9,1.8,7.9,2.4v-4.1l4.6-2.6l4.6,2.6v4.1c3-0.5,5.5-0.8,8-2.3
			L32,52.7L31.7,52.6z"/>
		<path class="st10" d="M43.4,46.1l9.4,5.4L52.6,52l-9.7-5.6l-2.2,1.3l10.6,6.1c1-1.3,1.9-2.7,2.7-4.2l-8.3-4.8L43.4,46.1z"/>
		<path class="st10" d="M47.6,24.3l-15.8-9.1L16,24.3v18.3l15.8,9.1l15.8-9.1V24.3z"/>
		<path class="st10" d="M32.5,52.5l12.2,7c0.7-0.4,1.4-0.9,2-1.4l-12-6.9L32.5,52.5z"/>
		<path class="st10" d="M28.8,51.2l-12,7c0.6,0.5,1.3,1,2,1.4L31,52.5L28.8,51.2z"/>
		<path class="st10" d="M26,49.6l-11.5,6.7c0.6,0.5,1.2,1.1,1.8,1.6l12-6.9L26,49.6z"/>
		<path class="st10" d="M35.3,62.4v-3.7l-3.6-2.1l-3.6,2.1v3.7c1.2,0.2,2.4,0.3,3.6,0.3C32.9,62.7,34.1,62.5,35.3,62.4z"/>
	</g>
	<g>
		<path class="st1" d="M40.5,39.2c0,0-1,4.8-8.8,5.6c0,0-3.3,0.3-0.7,0.7c2.5,0.5,8.1,0.4,10-2.6c0.1-0.1,0.8-1.4,0.4-3.4
			C41.3,39.1,40.7,38.3,40.5,39.2z"/>
		<path class="st1" d="M37.6,39.1c0.8-0.3,1.9-1.8,1.3-3.2c-0.7-1.4-3.8-0.4-5.6,0.9c-1.5,1.1-0.2,1.8,0.2,2.1
			C34.4,39.4,37,39.3,37.6,39.1z"/>
		<path class="st1" d="M30.4,36.4c-2.7-3.3-4.6-3.6-5.2-3.4c-0.6,0.2-1.4,1.2-0.9,3.6c0.5,2.4,2.6,2.5,2.6,2.5S33,39.5,30.4,36.4z"
			/>
		<path class="st1" d="M22.8,25.3c-0.1,0.1-0.1,0.3,0.1,0.5l0.1,0.1c0.1,0.1,0.1,0.3,0.1,0.4c-1,1.3-1.7,2.8-1.9,4.5
			c-0.1,0.1-0.1,0.3-0.3,0.4c-0.4,0.2-1.3,0.9-1.3,1.7v2.4c0,0-0.1,2,2,2.2c0.1,0,0.4,0,0.5,0c0.2,0,0.5-0.2,0.5-0.7
			c0-0.9,0-3.8,0-4c0-5.1,4.2-9.3,9.3-9.3s9.3,4.2,9.3,9.3c0,0,0,3.2,0,4c0,0.6,0.4,0.7,0.6,0.7c0.1,0,0.3,0,0.3,0
			c2-0.1,2-2.2,2-2.2v-2.5c0-0.9-0.9-1.5-1.3-1.7c-0.1-0.1-0.2-0.2-0.3-0.4c-0.3-1.7-1-3.2-1.9-4.6c-0.1-0.1-0.1-0.3,0-0.3
			c0.1-0.1,0.1-0.3,0.1-0.5c-2.1-2.6-5.3-4.1-8.9-4.1C28.1,21.2,24.9,22.7,22.8,25.3z"/>
	</g>
</g>
<g id="Outline_7_">
	<path class="st10" d="M31.7,1.4c12.9,0,24.3,23,24.3,36.9c0,13.4-10.9,24.3-24.3,24.3S7.4,51.7,7.4,38.3
		C7.4,24.4,18.8,1.4,31.7,1.4 M31.7,0.4c-14,0-25.3,24-25.3,37.9s11.3,25.3,25.3,25.3S57,52.3,57,38.3S45.7,0.4,31.7,0.4L31.7,0.4z"
		/>
</g>
</svg>
