<?xml version="1.0" encoding="UTF-8" standalone="no"?>
<!DOCTYPE svg PUBLIC "-//W3C//DTD SVG 1.1//EN" "http://www.w3.org/Graphics/SVG/1.1/DTD/svg11.dtd">
<svg width="100%" height="100%" viewBox="0 0 64 64" version="1.1" xmlns="http://www.w3.org/2000/svg" xmlns:xlink="http://www.w3.org/1999/xlink" xml:space="preserve" xmlns:serif="http://www.serif.com/" style="fill-rule:evenodd;clip-rule:evenodd;stroke-linejoin:round;stroke-miterlimit:2;">
    <g transform="matrix(0.221861,0,0,0.231312,0.0464248,0.0863503)">
        <g transform="matrix(1,0,0,1,-5.87,-11.74)">
            <path d="M253.33,154.79C251.213,151.647 247.606,149.823 243.82,149.98L221.56,150.89C221.5,150.26 221.44,149.64 221.35,149C221.21,148 221.04,146.94 220.85,145.92L242.28,133.58L282.89,134.75C282.995,134.753 283.1,134.755 283.205,134.755C289.198,134.755 294.13,129.823 294.13,123.83C294.13,117.956 289.392,113.079 283.52,112.91L239.83,111.64C237.809,111.581 235.81,112.087 234.06,113.1L213.24,125.1C211.61,122.236 209.771,119.495 207.74,116.9L222.34,96L259.9,71.24C262.815,69.196 264.555,65.851 264.555,62.29C264.555,56.294 259.621,51.36 253.625,51.36C251.604,51.36 249.622,51.921 247.9,52.98L208.57,78.85C207.396,79.611 206.378,80.588 205.57,81.73L191.46,102C190.89,101.63 190.32,101.26 189.74,100.91L195.62,59.36C196.035,56.375 195.198,53.348 193.31,51L165,15.81C162.941,13.018 159.672,11.367 156.203,11.367C150.207,11.367 145.273,16.301 145.273,22.297C145.273,24.955 146.243,27.525 148,29.52L173.31,61L169.59,87.31C161.688,76.496 149.072,70.09 135.679,70.09C112.638,70.09 93.679,89.049 93.679,112.09C93.679,113.953 93.803,115.814 94.05,117.66C94.15,118.37 94.26,119.08 94.4,119.77L72.29,103.57L67.46,63.44C66.714,58.06 62.065,54.012 56.634,54.012C50.638,54.012 45.704,58.946 45.704,64.942C45.704,65.312 45.722,65.682 45.76,66.05L51.16,110.89C51.527,113.887 53.112,116.605 55.54,118.4L89.79,143.51C89.66,144.09 89.55,144.69 89.43,145.28L64.56,141.16C63.189,140.931 61.787,140.969 60.43,141.27L14.43,151.33C9.349,152.355 5.661,156.861 5.661,162.044C5.661,168.04 10.595,172.974 16.591,172.974C17.439,172.974 18.285,172.876 19.11,172.68L63.03,163.07L88.79,167.33C89.226,170.511 89.894,173.656 90.79,176.74L67.11,183.43C65.163,183.974 63.407,185.051 62.04,186.54L32.46,218.69C30.489,220.728 29.386,223.454 29.386,226.289C29.386,232.285 34.32,237.219 40.316,237.219C43.46,237.219 46.456,235.863 48.53,233.5L76.05,203.62L100.44,196.73C101.36,198.03 102.31,199.29 103.31,200.52L86.72,216.18C83.963,218.778 82.749,222.631 83.52,226.34L94.52,279.55C95.65,284.505 100.094,288.049 105.176,288.049C111.172,288.049 116.106,283.115 116.106,277.119C116.106,276.445 116.044,275.772 115.92,275.11L106.13,227.88L119.82,215C130.409,221.566 142.624,225.047 155.083,225.047C186.264,225.047 213.513,203.25 220.36,172.83L238.62,172.08L265.62,212.08C267.66,215.026 271.023,216.789 274.607,216.789C280.603,216.789 285.537,211.855 285.537,205.859C285.537,203.731 284.916,201.65 283.75,199.87L253.33,154.79Z" style="fill:rgb(255,202,0);fill-rule:nonzero;"/>
        </g>
        <g transform="matrix(1,0,0,1,-5.87,-11.74)">
            <path d="M241,128.39L283,129.61C283.055,129.612 283.11,129.612 283.165,129.612C286.337,129.612 288.947,127.002 288.947,123.83C288.947,120.72 286.439,118.139 283.33,118.05L239.64,116.78C238.569,116.752 237.51,117.018 236.58,117.55L210.29,132.69C207.818,127.323 204.574,122.347 200.66,117.92C200.788,117.773 200.908,117.619 201.02,117.46L218.69,92.2L257.07,66.94C258.693,65.871 259.673,64.053 259.673,62.11C259.673,58.938 257.062,56.327 253.89,56.327C252.76,56.327 251.654,56.658 250.71,57.28L211.4,83.15C210.785,83.553 210.253,84.069 209.83,84.67L192.19,110C189.527,107.956 186.701,106.133 183.74,104.55C184.004,104.018 184.183,103.448 184.27,102.86L190.52,58.7C190.751,57.115 190.308,55.504 189.3,54.26L161,19C159.907,17.577 158.211,16.741 156.416,16.741C153.246,16.741 150.636,19.35 150.636,22.521C150.636,23.886 151.12,25.207 152,26.25L178.74,59.48L173,100C171.67,99.58 170.32,99.22 169,98.9C163.418,85.652 150.376,76.995 136,76.995C116.355,76.995 100.19,93.16 100.19,112.805C100.19,117.581 101.146,122.309 103,126.71C102.187,128.043 101.43,129.413 100.73,130.82L67.45,106.4L62.35,64.06C61.911,61.255 59.469,59.166 56.63,59.166C53.453,59.166 50.84,61.78 50.84,64.956C50.84,65.117 50.846,65.279 50.86,65.44L56.26,110.28C56.454,111.876 57.297,113.324 58.59,114.28L94.59,140.65C95.189,141.09 95.869,141.41 96.59,141.59C95.677,144.794 95.032,148.069 94.66,151.38L63.75,146.27C63.026,146.136 62.284,146.136 61.56,146.27L15.56,156.34C12.903,156.913 10.99,159.282 10.99,162C10.99,165.176 13.604,167.79 16.78,167.79C17.19,167.79 17.599,167.746 18,167.66L62.88,157.83L93.27,162.83C93.649,162.898 94.035,162.921 94.42,162.9C94.51,164.07 94.63,165.24 94.79,166.41C95.44,171.061 96.624,175.621 98.32,180L68.54,188.41C67.518,188.685 66.591,189.235 65.86,190L36.24,222.18C35.208,223.256 34.631,224.69 34.631,226.181C34.631,229.352 37.241,231.961 40.411,231.961C42.071,231.961 43.653,231.246 44.75,230L73.26,199.05L102.1,190.91C102.582,190.768 103.042,190.563 103.47,190.3C105.685,193.848 108.259,197.158 111.15,200.18L90.25,219.91C88.789,221.285 88.144,223.325 88.55,225.29L99.55,278.5C100.077,281.023 102.229,282.904 104.8,283.09C105.332,283.131 105.867,283.098 106.39,282.99C109.065,282.438 111.002,280.061 111.002,277.329C111.002,276.933 110.961,276.538 110.88,276.15L100.51,226.1L119.29,208.37C119.496,208.168 119.687,207.951 119.86,207.72C130.146,215.024 142.453,218.95 155.069,218.95C184.782,218.95 210.36,197.172 215.1,167.84L215.44,167.84L241.25,166.78L269.82,209.16C270.894,210.752 272.694,211.709 274.615,211.709C277.788,211.709 280.399,209.098 280.399,205.925C280.399,204.772 280.055,203.646 279.41,202.69L249.04,157.63C247.922,155.982 246.03,155.021 244.04,155.09L215.88,156.25C215.813,154.092 215.633,151.939 215.34,149.8C215.057,147.752 214.67,145.719 214.18,143.71C214.467,143.603 214.744,143.472 215.01,143.32L241,128.39Z" style="fill:rgb(49,49,49);fill-rule:nonzero;"/>
        </g>
        <g transform="matrix(1,0,0,1,-5.87,-11.74)">
            <path d="M152.72,89.57C150.679,84.721 145.907,81.551 140.646,81.551C134.08,81.551 128.477,86.487 127.65,93C125.37,91.269 122.584,90.331 119.722,90.331C112.53,90.331 106.612,96.249 106.612,103.441C106.612,110.633 112.53,116.551 119.722,116.551C126.301,116.551 131.912,111.598 132.73,105.07C135.011,106.807 137.8,107.748 140.667,107.748C147.853,107.748 153.767,101.835 153.767,94.648C153.767,92.893 153.414,91.156 152.73,89.54L152.72,89.57Z" style="fill:white;fill-rule:nonzero;"/>
        </g>
        <circle cx="130.67" cy="81.94" r="6.17" style="fill:rgb(49,49,49);"/>
        <circle cx="116.08" cy="88.14" r="6.17" style="fill:rgb(49,49,49);"/>
        <g transform="matrix(1,0,0,1,-5.87,-11.74)">
            <path d="M145.4,181L167.64,170.46L163.25,178.75L171.5,179.55C171.5,179.55 131.69,198.89 130.73,196.63C124.44,181.83 151.78,163.17 148.73,155.94C146.5,150.69 140.4,149.6 135.73,151.57C129.36,154.28 122.83,167.7 122.83,167.7L122.99,158.47L115.99,163.65C116.518,154.15 122.498,145.769 131.31,142.18C143.73,136.91 154.4,141.94 158.23,150.97C163.29,163 146.29,180.16 145.4,181Z" style="fill:rgb(255,202,0);fill-rule:nonzero;"/>
        </g>
        <g transform="matrix(1,0,0,1,-5.87,-11.74)">
            <path d="M176.4,124.29C177.76,124.89 194.76,169.93 194.76,169.93L187.24,166.07L185.32,173.7L170.93,138.52L166.38,146.25L165.38,138.46L159.91,140.71C159.91,140.71 164.43,129.39 167.35,128.15C170.27,126.91 175,123.65 176.4,124.29Z" style="fill:rgb(255,202,0);fill-rule:nonzero;"/>
        </g>
    </g>
</svg>
