<?xml version="1.0" encoding="UTF-8"?>
<svg id="Layer_1" data-name="Layer 1" xmlns="http://www.w3.org/2000/svg" viewBox="0 0 16 16">
  <defs>
    <style>
      .cls-1 {
        fill: #fff;
      }

      .cls-2 {
        fill: #f09;
      }
    </style>
  </defs>
  <g>
    <path d="M14.746,3.2329C13.8199,1.6933,11.5672,.0485,8.0195,.038c-.0062,.0004-.0325-.0004-.0385,0C3.5158,.05,1.7038,2.4853,1.2501,3.2399c-.4999,.8838-.5002,1.838-.3386,3.0908,.2891,2.2399,.8987,4.1939,.9772,4.4396,.041,.2299,.3399,1.1852,2.4829,1.9064l.2484,1.9385,.0718,.0716c.8503,.8505,2.0792,1.2753,3.3082,1.2753s2.4579-.4249,3.3082-1.2753l.0718-.0716,.2484-1.9385c2.143-.7213,2.4419-1.6766,2.4829-1.9064,.0786-.2457,.6882-2.1996,.9772-4.4396,.1617-1.2529,.1614-2.207-.3426-3.0978Z"/>
    <path class="cls-1" d="M14.4993,6.2548c-.2954,2.2883-.954,4.3348-.9605,4.3553l-.012,.053c-.0014,.0085-.1656,.8462-2.2585,1.5055l-.1813,.0573-.2703,2.1099c-.2211,.2076-.4742,.3798-.7452,.5242v-1.7972h-.5943v2.0562c-.3766,.1279-.7757,.2033-1.1799,.2285v-1.9318h-.5943v1.9318c-.4042-.0252-.8034-.1006-1.1799-.2285v-2.0562h-.5943v1.7972c-.271-.1445-.5241-.3166-.7452-.5242l-.2703-2.1099-.1813-.0573c-2.091-.6586-2.2568-1.4955-2.2573-1.4955l-.0132-.0631c-.0066-.0205-.6651-2.067-.9605-4.3553-.1459-1.1318-.1523-1.9822,.2625-2.7155,.4098-.6814,2.0693-2.902,6.2365-2.907,3.3111,.0043,5.3926,1.5036,6.2328,2.9,.4188,.7402,.4125,1.5907,.2666,2.7224Z"/>
  </g>
  <g>
    <path d="M7.0917,8.4533c-.0431-.4899-.4222-.8855-.9098-.9497-.3882-.0511-.8673-.0804-1.3085-.0131-.9401,.1783-1.4102,.4214-1.6533,1.0536-.2488,.6468,.0982,1.9286,.8753,2.3989,.6159,.3728,1.9126,0,2.4151-.3728,.3759-.2789,.68-.9935,.5812-2.1169Z"/>
    <path d="M8.9083,8.4533c.0431-.4899,.4222-.8855,.9098-.9497,.3882-.0511,.8673-.0804,1.3085-.0131,.9401,.1783,1.4102,.4214,1.6533,1.0536,.2488,.6468-.0982,1.9286-.8753,2.3989-.6159,.3728-1.9126,0-2.4151-.3728-.3759-.2789-.68-.9935-.5812-2.1169Z"/>
  </g>
  <g>
    <polygon class="cls-2" points="9.8164 4.5627 10.9395 1.5324 8 3.4054 5.061 1.5324 6.1831 4.5627 3.1455 6.4987 6.9014 6.4987 8 9.4655 9.0996 6.4987 12.8545 6.4987 9.8164 4.5627"/>
    <polygon class="cls-1" points="7.4211 6.2485 8.0002 7.8113 8.5792 6.2485 7.4211 6.2485"/>
    <polygon class="cls-1" points="9.0455 5.9239 10.8841 5.9239 9.3966 4.9762 9.0455 5.9239"/>
    <polygon class="cls-1" points="5.1159 5.9239 6.9545 5.9239 6.6034 4.9762 5.1159 5.9239"/>
    <polygon class="cls-1" points="8.3019 3.894 9.2321 4.4866 9.8068 2.9352 8.3019 3.894"/>
    <polygon class="cls-1" points="6.1932 2.9352 6.7682 4.4866 7.6981 3.894 6.1932 2.9352"/>
    <polygon class="cls-1" points="7.4746 5.674 8.5254 5.674 8.8125 4.9006 8 4.383 7.1885 4.9006 7.4746 5.674"/>
  </g>
  <path d="M8.7666,11.5773c-.1116-.7295-.7625-1.2042-.7662-1.2069v-.0005s-.0004,.0002-.0004,.0002l-.0003-.0002v.0005c-.0038,.0027-.6548,.4774-.7664,1.2069-.1119,.7315,.4386,.7188,.4386,.7188,0,0,.1866,.0081,.3281-.1232,.1414,.1313,.328,.1232,.328,.1232,0,0,.5505,.0128,.4386-.7188Z"/>
</svg>