<?xml version="1.0" encoding="utf-8"?>
<!-- Generator: Adobe Illustrator 23.1.1, SVG Export Plug-In . SVG Version: 6.00 Build 0)  -->
<svg version="1.1" id="Layer_1" xmlns="http://www.w3.org/2000/svg" xmlns:xlink="http://www.w3.org/1999/xlink" x="0px" y="0px"
	 viewBox="0 0 64 64" style="enable-background:new 0 0 64 64;" xml:space="preserve">
<style type="text/css">
	.st0{fill:#00263E;}
	.st1{fill:#E7D5BA;}
	.st2{fill:#0082CA;}
	.st3{fill:#B5532B;}
</style>
<g>
	<path class="st0" d="M60.6,50.8c0.5-1.1,0.6-2.2,0.5-3.4c0-1.2,0-2.4,0-3.6C61,32.6,53.9,22.9,43.3,19.5c-1.6-0.5-3.2-1.2-4.7-2
		c-2.8-1.5-5.8-2.9-9-3.2c-1.7-0.2-2.7-0.8-3.8-1.9c-0.5-0.5-0.7-1-0.5-1.7c0.6-2.2-0.5-4.2-2.7-5c-2-0.7-4.3,0.2-5.1,2.2
		c-0.4,0.9-0.9,1.3-1.7,1.6c-1.9,0.8-2.8,3-2.2,4.9c0.6,2,2.5,3.3,4.5,3.1c0.8-0.1,1.7-0.7,2.3,0.4c0.5,0.7,1.5,1.1,1.8,2.3
		c-2-0.7-3.8-1.6-5.7-1.6c-1.8,0-2.8-0.8-3.9-2c-0.4-0.5-0.6-0.8-0.4-1.5c0.6-2.4-0.5-4.5-2.8-5.2c-2.2-0.7-4.3,0.4-5.2,2.6
		C4,12.8,4,13.2,3.5,13.3c-1.6,0.4-2.5,1.5-3.2,2.9c0,0.1-0.1,0.1-0.1,0.2c0,0,0,0,0,0c0,0,0,0,0,0c-0.1,0.3-0.2,0.6-0.2,1
		s0.1,0.7,0.2,1c0,0,0,0,0,0c0,0,0,0.1,0.1,0.1c0,0,0,0,0,0.1c1.2,2.5,2.8,3.4,4.9,3c1.3-0.3,3.5,1.3,3.6,2.7
		c0.1,1.8,0.5,3.6,1.1,5.3c0.4,0.9,0.3,1.7-0.1,2.7c-1.9,5.2-2,10.3,1.2,15.1c0.9,1.3,2,2.3,3.4,3.6c-1.8,0-3.4,0-4.9,0
		c-1.2,0-1.7,0.7-1.5,1.8c0.3,3.3,3,5.8,6.3,5.8c14.2,0,28.4,0,42.6,0c2.6,0,4.4-1.3,5.6-3.5C64.1,52.2,63.6,51.2,60.6,50.8z"/>
	<path class="st1" d="M9.8,13.8c-0.1-1-0.6-1.6-1.7-1.7c-1.1,0-1.8,0.6-1.7,1.7c0,1.3-0.3,2-1.8,1.8c-0.8-0.1-1.4,0.4-1.7,1.2
		c-0.3,0.7-0.1,1.4,0.5,1.9c0.7,0.5,1.4,0.6,2.1,0.1c1-0.8,1.8-0.5,2.5,0.4C8.3,19.6,8.7,20,9,20.3c0.2,0.2,0.5,0.4,0.5,0.4
		c0.6-0.5,1.2-1,1.7-1.7c0.3-0.4-0.4-0.7-0.7-0.9c-1.1-1-2.4-2-0.9-3.7C9.8,14.3,9.8,14.1,9.8,13.8z"/>
	<path class="st1" d="M17.9,11.6c-0.9-0.1-1.6,0.3-1.9,1.1c-0.2,0.7-0.1,1.4,0.5,1.9c0.7,0.6,1.5,0.6,2.2,0c0.9-0.7,1.6-0.5,2.3,0.3
		c0.4,0.4,0.8,0.9,1.3,1.3c0.2,0.2,0.3,0.4,0.7,0.2c1.5-0.9,1.6-1.7,0.3-3c-0.2-0.2-0.3-0.3-0.5-0.5c-0.7-0.7-0.9-1.4-0.2-2.2
		c0.6-0.7,0.5-1.5,0-2.2c-0.5-0.6-1.2-0.7-1.9-0.5c-0.9,0.3-1.2,1-1.1,1.9C19.7,11.2,19,11.6,17.9,11.6z"/>
	<path class="st2" d="M10.8,53.5c1,2,2.5,2.6,4.4,2.6c13.6,0,27.3,0,40.9,0c0.5,0,1,0,1.5-0.1c1.3-0.3,2.3-1,2.8-2.5
		C44,53.5,27.5,53.5,10.8,53.5z"/>
	<path class="st3" d="M11.9,34.1c-0.3,1.3-0.5,2.1-0.6,3c-1.2,7,3.9,13.7,10.7,13.8c11.4,0.2,22.7,0.1,34.1,0c1.6,0,2.5-1,2.6-2.7
		c0-1.6,0-3.3,0-4.9c-0.3-7.7-3.6-13.9-9.8-18.4C43.3,21,37.2,20,30.7,21.1c-1.6,0.3-3.1,0.4-5.1,0.7c2.1,1.2,3.7,2.2,5.3,3.4
		c3.1,2.4,4.8,5.5,4.7,9.4c-0.1,4.5-3.2,8.5-7.4,9.9c-4.3,1.4-9,0-11.9-3.4C14.6,38.9,13.3,36.7,11.9,34.1z"/>
	<path class="st3" d="M11.5,24.6c0,0.1,0,0.6,0.1,1c1.1,5.2,3.4,9.8,6.8,13.8c3.3,3.9,9,4.1,12.4,0.5c3.5-3.7,3.1-9.3-1-12.6
		c-1.8-1.4-3.7-2.6-5.7-3.6c-2.8-1.4-5.7-2.7-9-2.9C12.4,20.7,11.4,21.6,11.5,24.6z"/>
	<path class="st3" d="M33.6,18.2c-2.1-1.1-4.3-1.8-6.7-1.5c-1.2,0.1-1.9,0.7-2.2,1.8c-0.1,0.5-0.1,0.8,0.6,0.7
		C28,18.9,30.8,18.6,33.6,18.2z"/>
	<path class="st0" d="M57.2,43.1c-0.1,1,0.5,2.4-1.1,2.5c-1.6,0.1-1.3-1.3-1.4-2.2c-0.3-4.8-2.1-9-5.4-12.6c-0.6-0.6-0.8-1.3-0.1-2
		c0.7-0.6,1.4-0.4,1.9,0.3C54.9,33,56.9,37.8,57.2,43.1z"/>
	<path class="st0" d="M48.4,27.2c-0.2,0.7-0.6,1.2-1.3,1c-0.9-0.2-1.7-0.6-1.8-1.7c0-0.8,0.4-1.2,1.2-1.2
		C47.4,25.4,48.5,26.5,48.4,27.2z"/>
</g>
</svg>
