<?xml version="1.0" encoding="utf-8"?>
<!-- Generator: Adobe Illustrator 24.0.1, SVG Export Plug-In . SVG Version: 6.00 Build 0)  -->
<svg version="1.1" id="Ebene_1" xmlns="http://www.w3.org/2000/svg" xmlns:xlink="http://www.w3.org/1999/xlink" x="0px" y="0px"
	 viewBox="0 0 750 750" style="enable-background:new 0 0 750 750;" xml:space="preserve">
<style type="text/css">
	.st0{display:none;fill:#FF0000;}
	.st1{fill:#FF0000;}
</style>
<g id="R_Letter_Complete">
	<path id="R_Letter" d="M390.5,182.7c55.1,0,110.2,0,165.3,0c3.3,0.3,27.7,3.1,42.3,25.2c12.2,18.5,9.1,37.9,8.3,42
		c-15.2,57.4-30.3,114.8-45.5,172.2c-3.1,7.9-11.3,25.8-30.4,40.3c-17.3,13.1-34.8,16.8-43.2,18c-8.5,0-17,0-25.5,0l77.4,248.8
		l-131.8-75.3c-3-2-7.7-5.5-11.8-11.3c-4.2-5.9-6.1-11.6-6.9-15.1c-20.1-65.8-40.3-131.5-60.4-197.3h90.2c3.5-0.6,9.5-2,15.7-6.1
		c5-3.2,8.2-7,10.2-9.6c15.6-57.2,31.2-114.3,46.8-171.5c1.1-2.5,0.8-5.3-0.8-7.4c-1.7-2.2-4.5-3.3-7.2-2.8
		c-35.3-0.1-70.6-0.3-105.9-0.4C381.7,215.9,386.1,199.3,390.5,182.7z"/>
</g>
<g id="I_Letter_Complete">
	<path id="i_Point__x28_unrelevant_x29_" class="st0" d="M269.1,140.3h79c3.5-0.1,13.7-0.9,23.4-8.5c8.7-6.8,12.1-15.3,13.2-18.8
		c4.8-17.7,9.6-35.5,14.4-53.2h-80.6c-3.5,0.2-12.9,1.4-21.9,8.4c-8.9,7-12.2,15.8-13.3,19.2C278.6,105,273.9,122.6,269.1,140.3z"/>
	<polygon id="Star__x28_old_x29_" class="st0" points="336.1,31.4 345.1,70.6 386.8,76.9 347.4,107.5 343.4,150.6 310,130.3 
		265.9,150.6 284.7,107.5 261.4,76.9 306.4,70.6 	"/>
	<path id="i_Letter" class="st1" d="M261.3,595.3l111-412.6H200.8c31.2,31.4,62.3,62.9,93.5,94.3c-10.4-0.1-20.9-0.1-31.3-0.2
		c-3.7,0.3-11.7,1.6-19.8,7.2c-8.2,5.7-12.2,12.9-13.7,16.2c-28.9,107.6-57.9,215.1-86.8,322.7h84c3.4-0.2,12.6-1.3,21.5-8.2
		C257.2,607.5,260.4,598.5,261.3,595.3z"/>
	<path id="Star__x28_new_x29_" class="st1" d="M341,69.7h47.1L345.3,99l8.2,50.6c-13-10.1-26-20.3-38.9-30.4
		c-17,10.1-33.9,20.3-50.9,30.4l23.1-50.4l-29.3-29.3l46.5-0.2l28.9-48.8L341,69.7z"/>
</g>
</svg>
