<?xml version="1.0" encoding="utf-8"?>
<!-- Generator: Adobe Illustrator 24.1.0, SVG Export Plug-In . SVG Version: 6.00 Build 0)  -->
<svg version="1.1" id="Layer_1" xmlns="http://www.w3.org/2000/svg" xmlns:xlink="http://www.w3.org/1999/xlink" x="0px" y="0px"
	 viewBox="0 0 64 64" style="enable-background:new 0 0 64 64;" xml:space="preserve">
<style type="text/css">
	.st0{fill:url(#SVGID_1_);stroke:#000000;stroke-width:0.25;stroke-miterlimit:10;}
	.st1{fill:url(#SVGID_2_);stroke:#000000;stroke-width:0.25;stroke-miterlimit:10;}
	.st2{fill:url(#SVGID_3_);stroke:#000000;stroke-width:0.25;stroke-miterlimit:10;}
	.st3{fill:url(#SVGID_4_);stroke:#000000;stroke-width:0.25;stroke-miterlimit:10;}
	.st4{fill:url(#SVGID_5_);stroke:#000000;stroke-width:0.25;stroke-miterlimit:10;}
	.st5{fill:#797979;stroke:#000000;stroke-width:0.25;stroke-miterlimit:10;}
	.st6{fill:url(#SVGID_6_);stroke:#000000;stroke-miterlimit:10;}
	.st7{fill:url(#SVGID_7_);stroke:#000000;stroke-miterlimit:10;}
	.st8{fill:url(#SVGID_8_);stroke:#000000;stroke-miterlimit:10;}
	.st9{fill:url(#SVGID_9_);stroke:#000000;stroke-miterlimit:10;}
	.st10{fill:url(#SVGID_10_);stroke:#000000;stroke-miterlimit:10;}
	.st11{fill:#FFFFFF;}
	.st12{fill:#797979;stroke:#000000;stroke-miterlimit:10;}
</style>
<linearGradient id="SVGID_1_" gradientUnits="userSpaceOnUse" x1="15.35" y1="-871.7804" x2="15.35" y2="-919.8895" gradientTransform="matrix(1 0 0 -1 -9.094947e-13 -870.1102)">
	<stop  offset="3.306878e-04" style="stop-color:#FFFBDC"/>
	<stop  offset="1" style="stop-color:#827C42"/>
</linearGradient>
<path style="fill:url(#SVGID_1_);stroke:#000000;stroke-miterlimit:10;" d="M29.7,41.3c0,15.5,0,4.3,0,7.8l0,0h-0.1h-0.1h-0.2h-0.4
	L28,49c-0.6-0.1-1.2-0.1-1.7-0.2c-1.1-0.2-2.3-0.4-3.4-0.6c-1.1-0.3-2.2-0.5-3.2-0.9s-2.1-0.7-3.1-1.1c-3.9-1.7-7.3-3.9-9.8-6.5
	C4.2,37,2.4,34,1.6,31c-0.2-0.8-0.3-1.5-0.5-2.3c0-0.8-0.1-1.5-0.1-2.2c0.1-0.7,0.1-1.5,0.2-2.2s0.3-1.3,0.4-2
	c1.3-5.2,4.1-10.1,8-14.2c1-1,2-1.9,2.9-2.9l2.9-2.8L16,2c1-0.9,2.5,0.2,1.9,1.4l0,0l-1.8,3.3C15.5,7.8,14.9,9,14.4,10
	c-2,4.2-2.7,8.6-2.1,12.8c0.1,0.5,0.2,1,0.3,1.6c0.1,0.5,0.3,0.9,0.4,1.3c0.2,0.4,0.4,0.8,0.6,1.2l0.7,1.2c1.1,1.5,2.6,2.7,4.3,3.7
	c1.7,0.9,3.6,1.5,5.5,1.8c0.5,0.1,1,0.1,1.4,0.1c0.5,0,1,0,1.4,0l1.4-0.1l0.7-0.1h0.3h0.2h0.1l0,0l0,0l0,0
	C29.7,37,29.7,25.7,29.7,41.3z"/>
<linearGradient id="SVGID_2_" gradientUnits="userSpaceOnUse" x1="48.6" y1="-871.7804" x2="48.6" y2="-919.881" gradientTransform="matrix(1 0 0 -1 -9.094947e-13 -870.1102)">
	<stop  offset="3.306878e-04" style="stop-color:#FFFBDC"/>
	<stop  offset="1" style="stop-color:#827C42"/>
</linearGradient>
<path style="fill:url(#SVGID_2_);stroke:#000000;stroke-miterlimit:10;" d="M34.3,41.3c0-15.5,0-4.3,0-7.8l0,0l0,0l0,0h0.1h0.2h0.3
	l0.7,0.1l1.4,0.1c0.5,0,0.9,0,1.4,0c0.5-0.1,1-0.1,1.4-0.1c1.9-0.3,3.8-0.9,5.5-1.8c1.7-0.9,3.2-2.2,4.3-3.7l0.7-1.2
	c0.2-0.4,0.4-0.8,0.6-1.2c0.1-0.4,0.3-0.8,0.4-1.3c0.1-0.5,0.2-1,0.3-1.6c0.6-4.2-0.1-8.6-2.1-12.8c-0.5-1-1.1-2.2-1.7-3.3L46,3.4
	l0,0c-0.5-1.2,1-2.3,2-1.4l0.5,0.4l2.9,2.8c1,1,1.9,1.9,2.9,2.9c3.9,4.1,6.7,9,8,14.2c0.2,0.7,0.3,1.3,0.4,2
	c0.1,0.7,0.1,1.5,0.2,2.2c0,0.7-0.1,1.5-0.1,2.2c-0.1,0.7-0.3,1.5-0.5,2.3c-0.8,3-2.6,5.9-5.1,8.5s-5.9,4.8-9.8,6.5
	c-1,0.4-2,0.8-3.1,1.1c-1,0.3-2.1,0.6-3.2,0.9c-1.1,0.2-2.2,0.4-3.4,0.6c-0.6,0.1-1.1,0.1-1.7,0.2L35.2,49h-0.4h-0.2h-0.1h-0.1l0,0
	C34.3,45.6,34.3,56.8,34.3,41.3z"/>
<g>
	
		<linearGradient id="SVGID_3_" gradientUnits="userSpaceOnUse" x1="32.05" y1="-897.3102" x2="32.05" y2="-927.9876" gradientTransform="matrix(1 0 0 -1 -9.094947e-13 -870.1102)">
		<stop  offset="0" style="stop-color:#9D9D9C"/>
		<stop  offset="0.1693" style="stop-color:#7F7F7E"/>
		<stop  offset="0.3468" style="stop-color:#676766"/>
		<stop  offset="0.5359" style="stop-color:#565655"/>
		<stop  offset="0.7426" style="stop-color:#4C4C4B"/>
		<stop  offset="1" style="stop-color:#494948"/>
	</linearGradient>
	<path style="fill:url(#SVGID_3_);stroke:#000000;stroke-miterlimit:10;" d="M32,27.2c-15.1,0-27.3,12.2-27.3,27.3l0,0
		c18,4.4,36.7,4.4,54.7,0l0,0C59.3,39.5,47.1,27.2,32,27.2z"/>
</g>
<linearGradient id="SVGID_4_" gradientUnits="userSpaceOnUse" x1="32" y1="-893.9102" x2="32" y2="-928.0103" gradientTransform="matrix(1 0 0 -1 -9.094947e-13 -870.1102)">
	<stop  offset="0" style="stop-color:#9D9D9C"/>
	<stop  offset="4.838407e-02" style="stop-color:#929291"/>
	<stop  offset="0.2096" style="stop-color:#747473"/>
	<stop  offset="0.3793" style="stop-color:#5C5C5B"/>
	<stop  offset="0.5591" style="stop-color:#4B4B4A"/>
	<stop  offset="0.7554" style="stop-color:#414140"/>
	<stop  offset="1" style="stop-color:#3E3E3D"/>
</linearGradient>
<polygon style="fill:url(#SVGID_4_);stroke:#000000;stroke-miterlimit:10;" points="27.5,57.9 27.5,26.2 32,23.8 36.5,26.2 
	36.5,57.9 "/>
<linearGradient id="SVGID_5_" gradientUnits="userSpaceOnUse" x1="32" y1="-902.7102" x2="32" y2="-920.8128" gradientTransform="matrix(1 0 0 -1 -9.094947e-13 -870.1102)">
	<stop  offset="0" style="stop-color:#9D9D9C"/>
	<stop  offset="4.838407e-02" style="stop-color:#929291"/>
	<stop  offset="0.2096" style="stop-color:#747473"/>
	<stop  offset="0.3793" style="stop-color:#5C5C5B"/>
	<stop  offset="0.5591" style="stop-color:#4B4B4A"/>
	<stop  offset="0.7554" style="stop-color:#414140"/>
	<stop  offset="1" style="stop-color:#3E3E3D"/>
</linearGradient>
<circle style="fill:url(#SVGID_5_);stroke:#000000;stroke-miterlimit:10;" cx="32" cy="41.7" r="9.1"/>
<g>
	<path class="st11" d="M37.7,42.5v-1.1c0-0.4-0.4-0.7-0.6-0.8c-0.1,0-0.1-0.1-0.1-0.2c-0.2-0.8-0.5-1.5-0.9-2.1c0,0,0-0.1,0-0.2l0,0
		c0.1-0.1,0.1-0.2,0-0.2c-1-1.2-2.5-1.9-4.1-1.9c-1.6,0-3.1,0.7-4.1,1.9c-0.1,0.1-0.1,0.2,0,0.2l0,0c0.1,0.1,0.1,0.1,0,0.2
		c-0.5,0.6-0.8,1.3-0.9,2.1c0,0.1-0.1,0.2-0.1,0.2c-0.2,0.1-0.6,0.4-0.6,0.8v1.1c0,0,0,1,1.1,1c0,0,0.3,0.1,0.3-0.3
		c0-0.4,0-1.8,0-1.9c0-2.4,1.9-4.3,4.3-4.3s4.3,1.9,4.3,4.3l0,0c0,0,0,1.5,0,1.9s0.3,0.3,0.3,0.3C37.7,43.5,37.7,42.5,37.7,42.5z"/>
	<path class="st11" d="M36.1,44.3c0,0-0.5,2.3-4.1,2.6c0,0-1.5,0.1-0.3,0.3c1.2,0.2,4,0.2,4.7-1.4c0,0,0.4-0.6,0-1.7
		C36.4,44.2,36.2,43.9,36.1,44.3z"/>
	<path class="st11" d="M29.8,44.3c0,0-1,0-1.2-1.1s0.1-1.6,0.4-1.7c0.3-0.1,1.1,0.1,2.4,1.6C32.6,44.5,29.8,44.3,29.8,44.3z"/>
	<path class="st11" d="M32.9,44.2c0,0-1-0.4-0.2-1s2.3-1.1,2.6-0.4c0.3,0.7-0.3,1.4-0.6,1.5C34.5,44.4,34,44.5,32.9,44.2z"/>
</g>
<path class="st12" d="M61.1,58.8C42,63.5,22,63.5,2.9,58.8l0,0v-5.3l0,0c19.1,4.7,39.1,4.7,58.2,0C61.1,53.5,61.1,58.8,61.1,58.8z"
	/>
</svg>
