<svg xmlns="http://www.w3.org/2000/svg" viewBox="0 0 16 16"><title>16X16</title><g id="Eyes"><polyline points="7.87 0.01 7.87 1.16 7.98 1.16 8.17 1.17 8.17 0.01 8 0 7.87 0.01" style="fill:#1c80b7"/><path d="M13.68,11.12l1,.39s2.1-2,.9-4.22l-.88-.4.09-.46-.4-.52,0-1.61A7.59,7.59,0,0,0,8,0V1.15" style="fill:#1c80b7"/><path d="M2.32,11.12l-1,.39s-2.1-2-.9-4.22l.88-.4-.09-.46.4-.52,0-1.61A7.59,7.59,0,0,1,8,0V1.15" style="fill:#1c80b7"/><polyline points="7.48 1.2 7.98 1.16 8.47 1.2 8.47 16 7.48 16 7.48 1.2" style="fill:#1c2538"/><path d="M8,1.16c-.51,0-8.55.42-5.64,10h0l2.39,3.48h0L7.37,16H8a0,0,0,0,0,0,0V1.18A0,0,0,0,0,8,1.16Z" style="fill:#1c2538"/><path d="M8,1.16c.55,0,8.54.45,5.64,10l-2.4,3.49L8.57,16H7.95V1.19A0,0,0,0,1,8,1.16Z" style="fill:#1c2538"/><path d="M13.46,11.25S12.75,13.52,9,13.49c0,0-1.57,0-.38.33s4,.61,5-.91a2,2,0,0,0,.19-1.7S13.66,10.85,13.46,11.25Z" style="fill:#1c80b7"/><path d="M4.86,11A1.93,1.93,0,0,1,3.11,9.33C2.75,7.71,3.29,7,3.7,6.91S5.35,7,7.18,9.23C8.91,11.29,4.86,11,4.86,11Z" style="fill:#fff"/><path d="M9.37,10.93s-1.49-.54-.26-1.44,3.35-1.6,3.79-.64A1.82,1.82,0,0,1,12,11,4,4,0,0,1,9.37,10.93Z" style="fill:#fff"/></g></svg>