<?xml version="1.0" encoding="UTF-8"?>
<svg id="Layer_1" data-name="Layer 1" xmlns="http://www.w3.org/2000/svg" viewBox="0 0 64 64">
  <defs>
    <style>
      .cls-1 {
        fill: #6678af;
      }

      .cls-2 {
        fill: #22b573;
      }

      .cls-3 {
        fill: #99b1cc;
      }
    </style>
  </defs>
  <path class="cls-2" d="M10.2427,51.4297c-.1448-3.0369-1.8971-4.8334-2.752-5.5346-.3732-.6394-.6964-1.2378-.9755-1.8202,.6175,.7386,1.5692,1.5302,2.9891,1.9198-.9193-2.3304-2.8489-3.1967-3.6287-3.4606-.3582-1.0505-.5897-2.2044-.7251-3.652,.45,1.1077,1.3641,2.5777,3.1999,3.5507-.4623-2.9369-2.4993-4.4184-3.2969-4.8947-.0112-.275-.0201-.5698-.0283-.8998-.0178-.6979-.0434-1.5106-.1043-2.3626,.4528,1.1965,1.3253,2.6471,3.0182,3.7474-.2309-3.4318-2.5059-5.2842-3.2596-5.8079-.2189-1.304-.5825-2.5956-1.2296-3.6647-.0708-.1172-.2246-.1533-.3433-.084-.1182,.0713-.1558,.2256-.0845,.3438,.6146,1.0149,.9611,2.259,1.1702,3.5219-.7867,.717-2.6348,2.7548-2.5112,6.0097,1.7562-1.4244,2.4435-3.1771,2.7087-4.4736,.0887,1.0057,.1147,1.9708,.1352,2.7828,.0082,.3212,.017,.6092,.0276,.8788-.559,.5719-2.282,2.6121-1.8864,5.7127,1.3228-1.2837,1.8394-2.7403,2.025-3.8832,.1432,1.274,.3756,2.319,.7021,3.2888-.3826,.6343-1.3725,2.6259-.4855,5.0823,.9474-1.4435,1.0483-2.8776,.9443-3.8901,.3346,.7585,.7461,1.5164,1.2246,2.3356,.1494,1.1365,.7496,3.5838,3.1658,5.2536Z"/>
  <g>
    <path class="cls-3" d="M24.7771,39.1133c-.6436-.1955-1.3543-.6366-2.0708-1.2839-1.2407-1.1013-2.5084-2.8196-3.5076-4.9648-1.9903-4.3007-4.2296-8.5622-8.0348-9.4974-6.4372-1.5693-7.1325,4.1618-7.1325,4.1618L.1789,29.2589l4.8506,.6409c1.6404,1.6925,3.9182,2.3501,6.5646,1.7702,3.0725,5.1766-.6353,11.0992,3.6602,20.1328,3.2158,6.7664,11.9257,8.402,21.9406,6.5733,6.2174-1.1296,12.1988-.9342,17.0108,5.3498,3.8554,.1775,5.8324-2.5402,5.2883-6.2998l-5.19-2.1415,5.2881-.0223c1.9122-2.7098,.3337-7.4169-2.3555-7.7434-8.6586,4.758-15.8639,4.2298-17.2887,.0212,2.1613-1.8845,5.2117-2.7008,9.4329-2.5295,10.4523,.412,7.3325-7.9071,7.3325-7.9071,7.6731-2.8639,4.0884-11.6912-.457-10.4892,7.7492-5.9178-.1019-14.9015-6.5357-9.7709C54.0598,7.0112,44.6297,.5376,44.6297,.5376c.3649,3.0481-.9861,6.9124-3.0584,10.7973-2.8612,5.3796-7.108,10.8029-10.1369,14.1539-5.2033,5.7539-6.5817,10.4109-6.6574,13.6245Z"/>
    <path class="cls-1" d="M22.7482,37.7868l-.0419,.0426c.7165,.6472,1.4271,1.0884,2.0708,1.2839,.0757-3.2136,1.4541-7.8706,6.6574-13.6245,3.0289-3.351,7.2757-8.7743,10.1369-14.1539l-.0207-.0163c-2.0059-1.5266-4.2769-.7942-5.4241,1.2414C37.0254,3.741,26.1274,.2342,26.1274,.2342c3.4698,6.4541-.4263,20.7724-3.1735,28.046-2.7895,7.3914-.2057,9.5066-.2057,9.5066Z"/>
  </g>
</svg>