<?xml version="1.0" encoding="UTF-8" standalone="no"?>
<!DOCTYPE svg PUBLIC "-//W3C//DTD SVG 1.1//EN" "http://www.w3.org/Graphics/SVG/1.1/DTD/svg11.dtd">
<svg width="100%" height="100%" viewBox="0 0 32 32" version="1.1" xmlns="http://www.w3.org/2000/svg" xmlns:xlink="http://www.w3.org/1999/xlink" xml:space="preserve" xmlns:serif="http://www.serif.com/" style="fill-rule:evenodd;clip-rule:evenodd;stroke-linejoin:round;stroke-miterlimit:2;">
    <rect id="PietSmiet_aligned" x="0" y="-0" width="32" height="32" style="fill:none;"/>
    <path d="M25.905,5.257C24.719,5.257 23.627,6.1 22.753,7.519L22.536,7.519C22.536,7.129 22.636,6.616 22.847,6.148L9.153,6.148C9.364,6.616 9.464,7.129 9.464,7.519L9.247,7.519C8.374,6.1 7.281,5.257 6.095,5.257C3.234,5.257 0.914,10.169 0.914,16.229C0.914,22.288 3.234,26.743 6.095,26.743C8.062,26.743 9.773,24.878 10.651,21.459C8.931,21.161 7.619,19.659 7.619,17.855C7.619,15.839 9.26,14.198 11.276,14.198C13.293,14.198 14.933,15.839 14.933,17.855C14.933,18.244 14.872,18.619 14.759,18.971L17.241,18.971C17.128,18.619 17.067,18.244 17.067,17.855C17.067,15.839 18.707,14.198 20.724,14.198C22.74,14.198 24.381,15.839 24.381,17.855C24.381,19.659 23.069,21.161 21.349,21.459C22.227,24.878 23.938,26.743 25.905,26.743C28.766,26.743 31.086,22.288 31.086,16.229C31.086,10.169 28.766,5.257 25.905,5.257" style="fill:rgb(77,185,13);fill-rule:nonzero;"/>
    <path d="M22.575,7.062L9.425,7.062L9.153,6.148L22.847,6.148L22.575,7.062Z" style="fill:rgb(106,224,30);fill-rule:nonzero;"/>
    <path d="M0.1,14.014L0.1,18.427C0.605,23.85 2.973,27.657 6.095,27.657C8.652,27.657 10.561,25.422 11.558,21.505C11.566,21.503 11.575,21.501 11.583,21.499C12.722,21.404 13.713,20.786 14.316,19.886L17.684,19.886C18.287,20.786 19.279,21.404 20.417,21.499C20.425,21.501 20.434,21.503 20.442,21.505C21.439,25.422 23.348,27.657 25.905,27.657C29.027,27.657 31.395,23.85 31.9,18.427L31.9,14.014C31.395,8.508 29.027,4.343 25.905,4.343C25.084,4.343 24.301,4.66 23.586,5.234L8.414,5.234C7.699,4.66 6.916,4.343 6.095,4.343C2.973,4.343 0.605,8.508 0.1,14.014ZM25.905,26.743C23.938,26.743 22.227,24.878 21.349,21.459C23.069,21.161 24.381,19.659 24.381,17.855C24.381,15.839 22.74,14.198 20.724,14.198C18.707,14.198 17.067,15.839 17.067,17.855C17.067,18.244 17.128,18.619 17.241,18.971L14.759,18.971C14.872,18.619 14.933,18.244 14.933,17.855C14.933,15.839 13.293,14.198 11.276,14.198C9.26,14.198 7.619,15.839 7.619,17.855C7.619,19.659 8.931,21.161 10.651,21.459C9.773,24.878 8.062,26.743 6.095,26.743C3.234,26.743 0.914,22.288 0.914,16.229C0.914,10.169 3.234,5.257 6.095,5.257C7.281,5.257 8.373,6.1 9.247,7.519L9.464,7.519C9.464,7.129 9.364,6.616 9.153,6.148L22.847,6.148C22.636,6.616 22.536,7.129 22.536,7.519L22.753,7.519C23.627,6.1 24.719,5.257 25.905,5.257C28.766,5.257 31.086,10.169 31.086,16.229C31.086,22.288 28.766,26.743 25.905,26.743Z" style="fill:rgb(10,10,10);fill-rule:nonzero;"/>
    <path d="M1.003,14.198C1.584,9.772 3.945,6.171 6.095,6.171C7.201,6.171 8.291,6.66 9.029,7.519L9.247,7.519C8.374,6.101 7.281,5.257 6.095,5.257C3.562,5.257 1.453,9.109 1.003,14.198" style="fill:rgb(106,224,30);fill-rule:nonzero;"/>
    <path d="M30.997,14.198C30.416,9.772 28.054,6.171 25.905,6.171C24.799,6.171 23.71,6.66 22.971,7.519L22.753,7.519C23.627,6.101 24.719,5.257 25.905,5.257C28.438,5.257 30.547,9.109 30.997,14.198" style="fill:rgb(106,224,30);fill-rule:nonzero;"/>
    <path d="M31.081,15.771C30.968,21.619 28.694,25.829 25.905,25.829C24.395,25.829 23.15,24.584 22.266,21.949C23.515,21.368 24.381,20.101 24.381,18.632L24.381,17.855C24.381,19.659 23.069,21.161 21.349,21.459L21.349,21.458C22.227,24.878 23.938,26.743 25.905,26.743C28.766,26.743 31.086,22.288 31.086,16.229C31.086,16.075 31.084,15.923 31.081,15.771" style="fill:rgb(60,132,13);fill-rule:nonzero;"/>
    <path d="M0.919,15.771C1.032,21.619 3.306,25.829 6.095,25.829C7.606,25.829 8.85,24.584 9.734,21.949C8.485,21.368 7.619,20.101 7.619,18.632L7.619,17.855C7.619,19.658 8.931,21.161 10.651,21.459L10.651,21.459C9.773,24.878 8.062,26.743 6.095,26.743C3.234,26.743 0.914,22.288 0.914,16.229C0.914,16.076 0.916,15.923 0.919,15.771" style="fill:rgb(60,132,13);fill-rule:nonzero;"/>
    <path d="M11.276,13.284C9.256,13.284 7.619,14.921 7.619,16.941L7.619,17.855L7.619,17.855C7.619,15.839 9.26,14.198 11.276,14.198C13.293,14.198 14.933,15.839 14.933,17.855L14.933,16.941C14.933,14.921 13.296,13.284 11.276,13.284" style="fill:rgb(106,224,30);fill-rule:nonzero;"/>
    <path d="M20.724,13.284C18.704,13.284 17.067,14.921 17.067,16.941L17.067,17.855L17.067,17.855C17.067,15.839 18.707,14.198 20.724,14.198C22.74,14.198 24.381,15.839 24.381,17.855L24.381,16.941C24.381,14.921 22.744,13.284 20.724,13.284" style="fill:rgb(106,224,30);fill-rule:nonzero;"/>
    <path d="M11.276,15.112C10.519,15.112 9.905,15.726 9.905,16.484C9.905,17.241 10.519,17.855 11.276,17.855C12.034,17.855 12.648,17.241 12.648,16.484C12.648,15.726 12.034,15.112 11.276,15.112" style="fill:rgb(124,124,123);fill-rule:nonzero;"/>
    <path d="M20.724,15.112C19.966,15.112 19.352,15.726 19.352,16.484C19.352,17.241 19.966,17.855 20.724,17.855C21.481,17.855 22.095,17.241 22.095,16.484C22.095,15.726 21.481,15.112 20.724,15.112" style="fill:rgb(124,124,123);fill-rule:nonzero;"/>
    <g>
        <g>
            <path d="M25,12C24.448,12 24,12.448 24,13C24,13.552 24.448,14 25,14C25.552,14 26,13.552 26,13C26,12.448 25.552,12 25,12" style="fill:rgb(10,10,10);fill-rule:nonzero;"/>
            <path d="M27,10C26.448,10 26,10.448 26,11C26,11.552 26.448,12 27,12C27.552,12 28,11.552 28,11C28,10.448 27.552,10 27,10" style="fill:rgb(10,10,10);fill-rule:nonzero;"/>
            <path d="M23,10C22.448,10 22,10.448 22,11C22,11.552 22.448,12 23,12C23.552,12 24,11.552 24,11C24,10.448 23.552,10 23,10" style="fill:rgb(10,10,10);fill-rule:nonzero;"/>
            <path d="M25,8C24.448,8 24,8.448 24,9C24,9.552 24.448,10 25,10C25.552,10 26,9.552 26,9C26,8.448 25.552,8 25,8" style="fill:rgb(10,10,10);fill-rule:nonzero;"/>
        </g>
        <g>
            <path d="M6.517,8.029L6.373,8.173L6.373,9.856L6.517,10L7.483,10L7.627,9.856L7.627,8.173L7.483,8.029L6.517,8.029Z" style="fill:rgb(10,10,10);fill-rule:nonzero;"/>
            <path d="M6.517,12L6.373,12.144L6.373,13.827L6.517,13.971L7.483,13.971L7.627,13.827L7.627,12.144L7.483,12L6.517,12Z" style="fill:rgb(10,10,10);fill-rule:nonzero;"/>
            <path d="M8.173,10.373L8.029,10.517L8.029,11.483L8.173,11.627L9.856,11.627L10,11.483L10,10.517L9.856,10.373L8.173,10.373Z" style="fill:rgb(10,10,10);fill-rule:nonzero;"/>
            <path d="M4.144,10.373L4,10.517L4,11.483L4.144,11.627L5.827,11.627L5.971,11.483L5.971,10.517L5.827,10.373L4.144,10.373Z" style="fill:rgb(10,10,10);fill-rule:nonzero;"/>
        </g>
        <path d="M16,8C14.895,8 14,8.896 14,10C14,11.105 14.895,12 16,12C17.104,12 18,11.105 18,10C18,8.896 17.104,8 16,8" style="fill:rgb(10,10,10);fill-rule:nonzero;"/>
    </g>
</svg>
