<?xml version="1.0" encoding="utf-8"?>
<!-- Generator: Adobe Illustrator 24.3.0, SVG Export Plug-In . SVG Version: 6.00 Build 0)  -->
<svg version="1.1" id="Layer_1" xmlns="http://www.w3.org/2000/svg" xmlns:xlink="http://www.w3.org/1999/xlink" x="0px" y="0px"
	 viewBox="0 0 16 16" style="enable-background:new 0 0 16 16;" xml:space="preserve">
<style type="text/css">
	.st0{fill:#B2B2B2;}
	.st1{fill:#FFFFFF;}
</style>
<g>
	<path class="st0" d="M14.7,6.1L14.7,6.1c-0.2-1.7-0.8-3-1.9-4.1c-1.3-1.2-3-1.9-4.8-1.9l0,0l0,0C6.2,0.1,4.5,0.8,3.2,2
		C2.1,3.1,1.5,4.5,1.3,6.1l0,0C0.4,6.5,0.2,7.8,0.2,8.5c0,0.5,0.2,1,0.5,1.5s0.9,1,1.6,1C2.4,11,8,11,8,11s5.6,0,5.7,0
		c0.7,0,1.3-0.5,1.6-1c0.3-0.4,0.4-0.9,0.5-1.5C15.8,7.8,15.6,6.5,14.7,6.1z"/>
	<path d="M8,0.3L8,0.3c1.7,0,3.4,0.6,4.6,1.8c1.1,1.1,1.7,2.4,1.8,4v0.2h0.2c0.7,0.3,0.9,1.5,0.9,2.1c0,0.5-0.2,0.9-0.5,1.4
		c-0.3,0.4-0.8,0.9-1.4,0.9c-0.1,0-5.7,0-5.7,0s-5.5,0-5.7,0c-0.6,0-1.1-0.5-1.4-0.9C0.7,9.5,0.5,9,0.5,8.5c0-0.7,0.2-1.8,0.9-2.2
		h0.2V6.1c0.1-1.6,0.7-2.9,1.8-4C4.6,1,6.2,0.3,8,0.3 M8,0.1L8,0.1L8,0.1C6.2,0.1,4.5,0.8,3.2,2C2.1,3.1,1.5,4.5,1.3,6.1l0,0
		C0.4,6.5,0.2,7.8,0.2,8.5c0,0.5,0.2,1,0.5,1.5s0.9,1,1.6,1C2.4,11,8,11,8,11s5.6,0,5.7,0c0.7,0,1.3-0.5,1.6-1
		c0.3-0.4,0.4-0.9,0.5-1.5c0-0.7-0.2-2-1.1-2.4l0,0c-0.1-1.7-0.8-3-1.9-4.1C11.5,0.8,9.8,0.1,8,0.1L8,0.1z"/>
</g>
<path d="M8,1.6L8,1.6c1.5,0,2.8,0.6,3.9,1.6c1.2,1.2,1.7,2.8,1.6,4.7c0,0.2-0.4,6.1-0.5,7.4c-0.1,0-0.1-0.1-0.2-0.1
	c-1.1-0.8-1.1-0.8-1.2-0.8c-0.1,0-0.1,0-1.4,0.9c-0.2,0.1-0.3,0.2-0.4,0.3c-0.2-0.2-0.7-0.5-1.1-0.8c-0.6-0.4-0.6-0.4-0.7-0.4
	c-0.1,0-0.1,0-0.7,0.4C7,15,6.5,15.4,6.2,15.6c-0.1-0.1-0.2-0.2-0.4-0.3c-1.3-0.9-1.3-0.9-1.4-0.9s-0.1,0-1.2,0.8
	c-0.1,0.1-0.1,0.1-0.2,0.1C2.9,14,2.6,8.1,2.5,7.9C2.4,6,2.9,4.4,4.1,3.2C5.2,2.2,6.5,1.6,8,1.6 M8,1.3C6.4,1.3,5,1.9,3.9,3
	C2.7,4.3,2.2,5.9,2.3,7.9c0,0.2,0.5,7.6,0.5,7.6c0,0.1,0,0.1,0.1,0.1c0,0,1.4-1,1.5-1s1.7,1.2,1.8,1.2S8,14.7,8,14.7l1.8,1.2
	c0,0,1.7-1.2,1.8-1.2s1.5,1,1.5,1c0.1,0,0.1,0,0.1-0.1c0,0,0.5-7.4,0.5-7.6c0.1-2-0.4-3.7-1.6-4.9C11,1.9,9.6,1.3,8,1.3L8,1.3z"/>
<g>
	<g>
		<path class="st1" d="M8,1.6c-1.5,0-2.8,0.6-3.9,1.6C2.9,4.4,2.4,6,2.5,7.9c0,0.2,0.4,6.1,0.5,7.4c0.1,0,0.1-0.1,0.2-0.1
			c1.1-0.8,1.1-0.8,1.2-0.8s0.1,0,1.4,0.9c0.2,0.1,0.3,0.2,0.4,0.3c0.2-0.2,0.7-0.5,1.1-0.8c0.6-0.4,0.6-0.4,0.7-0.4
			c0.1,0,0.1,0,0.7,0.4C9,15,9.5,15.4,9.8,15.6c0.1-0.1,0.2-0.2,0.4-0.3c1.3-0.9,1.3-0.9,1.4-0.9c0.1,0,0.1,0,1.2,0.8
			c0.1,0.1,0.1,0.1,0.2,0.1c0.1-1.3,0.5-7.2,0.5-7.4c0.1-1.9-0.4-3.5-1.6-4.7C10.8,2.2,9.5,1.6,8,1.6z"/>
	</g>
	<g>
		<path class="st1" d="M2.9,15.7L2.9,15.7C2.9,15.7,2.8,15.7,2.9,15.7C2.8,15.7,2.9,15.7,2.9,15.7z"/>
	</g>
</g>
<g id="Eyes_3_">
	<path d="M4.9,9.8c0,0-1.3,0-1.7-1.6S3.4,6,3.8,5.9S5.4,6,7.2,8.1C8.9,10.1,4.9,9.8,4.9,9.8z"/>
	<path d="M9.3,9.8c0,0-1.4-0.5-0.2-1.4s3.2-1.5,3.7-0.6s-0.4,2-0.9,2.1C11.4,10,10.9,10.2,9.3,9.8z"/>
</g>
</svg>
