<?xml version="1.0" encoding="UTF-8" standalone="no"?>
<!DOCTYPE svg PUBLIC "-//W3C//DTD SVG 1.1//EN" "http://www.w3.org/Graphics/SVG/1.1/DTD/svg11.dtd">
<svg width="100%" height="100%" viewBox="0 0 128 128" version="1.1" xmlns="http://www.w3.org/2000/svg" xmlns:xlink="http://www.w3.org/1999/xlink" xml:space="preserve" xmlns:serif="http://www.serif.com/" style="fill-rule:evenodd;clip-rule:evenodd;stroke-linejoin:round;stroke-miterlimit:2;">
    <ellipse cx="64.22" cy="29.08" rx="17.61" ry="7.05" style="fill:rgb(105,89,26);"/>
    <path d="M55.2,32.71C55.545,33.153 55.815,33.65 56,34.18C58.723,33.622 61.491,33.311 64.27,33.25C67.049,33.311 69.817,33.622 72.54,34.18C72.714,33.655 72.967,33.159 73.29,32.71C73.561,32.3 73.854,31.906 74.17,31.53C73.91,27.21 72.71,21.53 71.55,19.35C70.18,16.91 68,13 69.78,10.22C70.88,8.524 71.476,6.551 71.5,4.53L58.32,4.53C58.173,8.541 57.593,12.524 56.59,16.41C55.37,20.47 54.59,28.53 54.37,31.59C54.666,31.949 54.943,32.323 55.2,32.71Z" style="fill:rgb(142,123,37);fill-rule:nonzero;"/>
    <ellipse cx="64.91" cy="4.53" rx="6.59" ry="3.55" style="fill:rgb(161,138,40);"/>
    <path d="M124.09,47.2C123.178,44.774 122.018,42.448 120.63,40.26C119.03,37.755 117.159,35.434 115.05,33.34L110.44,29.27L103.83,24.61C90.58,16.34 79.06,23.61 74.59,25.49L74.4,25.57L74.34,25.57L74.21,25.63L74.05,25.72L73.92,25.79L73.7,26L73.58,26.09L54.49,26.09L54.37,26L54.25,25.92L54.13,25.85L53.97,25.76L53.83,25.7L53.78,25.7L53.59,25.62C49.12,23.76 37.59,16.47 24.35,24.74L17.73,29.4L13,33.34C10.894,35.434 9.026,37.755 7.43,40.26C6.056,42.452 4.907,44.777 4,47.2C1.79,52.88 0.61,59.75 0.65,68.36C0.67,74.333 1.46,80.279 3,86.05C5.51,95.33 10.19,103.96 17.71,110.37C22.24,114.23 26.71,115.14 30.56,114.76L30.25,114.41L97.85,114.41L97.55,114.76C101.39,115.14 105.87,114.23 110.4,110.37C117.92,103.96 122.6,95.37 125.1,86.05C126.626,80.277 127.402,74.331 127.41,68.36C127.45,59.75 126.26,52.88 124.09,47.2ZM100.57,111C100.57,111 100.58,111 100.57,111Z" style="fill:rgb(204,85,26);fill-rule:nonzero;"/>
    <path d="M112.28,67.42C112.071,64.789 111.714,62.171 111.21,59.58C109.21,49.49 105.28,42.43 100.79,37.47C92.15,27.97 81.52,22.19 79.02,21.47L77.02,21.14L76.49,21.14C74.473,21.32 72.676,22.5 71.71,24.28C71.493,24.589 71.318,24.925 71.19,25.28L56.91,25.28C56.778,24.927 56.603,24.591 56.39,24.28C55.419,22.5 53.619,21.32 51.6,21.14L51.07,21.14L49.07,21.47C46.57,22.2 35.95,27.98 27.31,37.47C22.81,42.47 18.86,49.47 16.88,59.58C16.381,62.172 16.024,64.789 15.81,67.42L15.81,72.19C15.982,78.35 16.79,84.476 18.22,90.47C20.05,97.96 23.22,106.04 28.64,112.66L30.47,114.74C31.377,115.704 32.335,116.618 33.34,117.48C38.75,122.12 43.34,121.65 46.34,120.48L81.8,120.48C84.71,121.63 89.35,122.1 94.8,117.48C95.8,116.61 96.8,115.69 97.67,114.74L98.79,113.49C98.91,113.36 99.38,112.79 99.5,112.66C104.93,106.04 108.09,97.96 109.91,90.47C111.347,84.477 112.158,78.351 112.33,72.19L112.28,67.42Z" style="fill:rgb(216,108,34);fill-rule:nonzero;"/>
    <path d="M49.16,25.41L49.52,25.31L49.16,25.41Z" style="fill:none;fill-rule:nonzero;"/>
    <path d="M49.65,25.28L49.87,25.28L49.65,25.28Z" style="fill:none;fill-rule:nonzero;"/>
    <path d="M50,25.2L50.16,25.2L50,25.2Z" style="fill:none;fill-rule:nonzero;"/>
    <path d="M22.66,25.62L22.27,25.89L22.66,25.62Z" style="fill:none;fill-rule:nonzero;"/>
    <path d="M22,26.07L21.67,26.3L22,26.07Z" style="fill:none;fill-rule:nonzero;"/>
    <path d="M23.5,25.07L22.88,25.48L23.5,25.07Z" style="fill:none;fill-rule:nonzero;"/>
    <path d="M18.39,28.67L18.17,28.83L18.39,28.67Z" style="fill:none;fill-rule:nonzero;"/>
    <path d="M21.36,26.51L21.06,26.71L21.36,26.51Z" style="fill:none;fill-rule:nonzero;"/>
    <path d="M20.75,26.93L20.47,27.13L20.75,26.93Z" style="fill:none;fill-rule:nonzero;"/>
    <path d="M20.15,27.36L19.88,27.55L20.15,27.36Z" style="fill:none;fill-rule:nonzero;"/>
    <path d="M19,28.23L18.77,28.4L19,28.23Z" style="fill:none;fill-rule:nonzero;"/>
    <path d="M19.55,27.79L19.3,28L19.55,27.79Z" style="fill:none;fill-rule:nonzero;"/>
    <path d="M52.46,31.05L52.58,30.98L52.46,31.05Z" style="fill:none;fill-rule:nonzero;"/>
    <path d="M53.75,30.44L53.85,30.44L53.75,30.44Z" style="fill:none;fill-rule:nonzero;"/>
    <path d="M78.17,33.4C78.17,33.33 78.1,33.26 78.07,33.2C78.04,33.14 78.14,33.33 78.17,33.4Z" style="fill:none;fill-rule:nonzero;"/>
    <path d="M54.3,30.24L54.35,30.24L54.3,30.24Z" style="fill:none;fill-rule:nonzero;"/>
    <path d="M78,33.13C77.979,33.083 77.952,33.04 77.92,33C77.952,33.04 77.979,33.083 78,33.13Z" style="fill:none;fill-rule:nonzero;"/>
    <path d="M76.47,31.54L76.3,31.43L76.47,31.54Z" style="fill:none;fill-rule:nonzero;"/>
    <path d="M76.68,31.69L76.55,31.6L76.68,31.69Z" style="fill:none;fill-rule:nonzero;"/>
    <path d="M76.88,31.85L76.76,31.76L76.88,31.85Z" style="fill:none;fill-rule:nonzero;"/>
    <path d="M76.18,31.35L76.03,31.25L76.18,31.35Z" style="fill:none;fill-rule:nonzero;"/>
    <path d="M77.59,32.53L77.5,32.43L77.59,32.53Z" style="fill:none;fill-rule:nonzero;"/>
    <path d="M77.07,32L77,31.92L77.07,32Z" style="fill:none;fill-rule:nonzero;"/>
    <path d="M77.89,32.92C77.86,32.882 77.833,32.842 77.81,32.8C77.833,32.842 77.86,32.882 77.89,32.92Z" style="fill:none;fill-rule:nonzero;"/>
    <path d="M77.74,32.72L77.66,32.61L77.74,32.72Z" style="fill:none;fill-rule:nonzero;"/>
    <path d="M77.25,32.18L77.15,32.08L77.25,32.18Z" style="fill:none;fill-rule:nonzero;"/>
    <path d="M54,30.34L54.09,30.34L54,30.34Z" style="fill:none;fill-rule:nonzero;"/>
    <path d="M50.71,32.35L50.8,32.26L50.71,32.35Z" style="fill:none;fill-rule:nonzero;"/>
    <path d="M50.54,32.53L50.63,32.43L50.54,32.53Z" style="fill:none;fill-rule:nonzero;"/>
    <path d="M51.06,32L51.17,31.91L51.06,32Z" style="fill:none;fill-rule:nonzero;"/>
    <path d="M50.88,32.18C50.916,32.149 50.949,32.116 50.98,32.08C50.949,32.116 50.916,32.149 50.88,32.18Z" style="fill:none;fill-rule:nonzero;"/>
    <path d="M50.39,32.72C50.419,32.685 50.446,32.648 50.47,32.61C50.446,32.648 50.419,32.685 50.39,32.72Z" style="fill:none;fill-rule:nonzero;"/>
    <path d="M50,33.4C50.031,33.33 50.067,33.263 50.11,33.2C50.067,33.263 50.031,33.33 50,33.4Z" style="fill:none;fill-rule:nonzero;"/>
    <path d="M50.11,33.13L50.19,33L50.11,33.13Z" style="fill:none;fill-rule:nonzero;"/>
    <path d="M50.24,32.92L50.33,32.8L50.24,32.92Z" style="fill:none;fill-rule:nonzero;"/>
    <path d="M52.71,30.92L52.83,30.86L52.71,30.92Z" style="fill:none;fill-rule:nonzero;"/>
    <path d="M53.48,30.56L53.59,30.56L53.48,30.56Z" style="fill:none;fill-rule:nonzero;"/>
    <path d="M53,30.79L53.12,30.74L53,30.79Z" style="fill:none;fill-rule:nonzero;"/>
    <path d="M53.22,30.67L53.33,30.62L53.22,30.67Z" style="fill:none;fill-rule:nonzero;"/>
    <path d="M51.46,31.69L51.58,31.6L51.46,31.69Z" style="fill:none;fill-rule:nonzero;"/>
    <path d="M51.67,31.54L51.83,31.43L51.67,31.54Z" style="fill:none;fill-rule:nonzero;"/>
    <path d="M51.26,31.85L51.37,31.76L51.26,31.85Z" style="fill:none;fill-rule:nonzero;"/>
    <path d="M52,31.35L52.16,31.25L52,31.35Z" style="fill:none;fill-rule:nonzero;"/>
    <path d="M52.22,31.19L52.34,31.12L52.22,31.19Z" style="fill:none;fill-rule:nonzero;"/>
    <path d="M84.5,118.1L84.39,118.25L84.5,118.1Z" style="fill:none;fill-rule:nonzero;"/>
    <path d="M88.62,110.14C88.598,110.228 88.571,110.315 88.54,110.4C88.571,110.315 88.598,110.228 88.62,110.14Z" style="fill:none;fill-rule:nonzero;"/>
    <path d="M89.81,99.2C89.73,99.75 89.64,100.31 89.55,100.87C89.64,100.31 89.73,99.75 89.81,99.2Z" style="fill:none;fill-rule:nonzero;"/>
    <path d="M90.44,93.39C90.293,95.31 90.083,97.247 89.81,99.2C90.083,97.253 90.293,95.317 90.44,93.39Z" style="fill:none;fill-rule:nonzero;"/>
    <path d="M75.92,31.19L75.79,31.12L75.92,31.19Z" style="fill:none;fill-rule:nonzero;"/>
    <path d="M87.79,112.52L87.66,112.82L87.79,112.52Z" style="fill:none;fill-rule:nonzero;"/>
    <path d="M86.28,115.54L86.28,115.62L86.28,115.54Z" style="fill:none;fill-rule:nonzero;"/>
    <path d="M86.73,114.75C86.73,114.82 86.66,114.89 86.62,114.95C86.58,115.01 86.69,114.82 86.73,114.75Z" style="fill:none;fill-rule:nonzero;"/>
    <path d="M88.37,111C88.37,111.11 88.3,111.21 88.26,111.31C88.3,111.16 88.33,111.06 88.37,111Z" style="fill:none;fill-rule:nonzero;"/>
    <path d="M85,117.52C84.961,117.565 84.924,117.611 84.89,117.66C84.924,117.611 84.961,117.565 85,117.52Z" style="fill:none;fill-rule:nonzero;"/>
    <path d="M85.4,116.91L85.32,117.02L85.4,116.91Z" style="fill:none;fill-rule:nonzero;"/>
    <path d="M87.11,114L86.99,114.26L87.11,114Z" style="fill:none;fill-rule:nonzero;"/>
    <path d="M88.09,111.75L87.97,112.06L88.09,111.75Z" style="fill:none;fill-rule:nonzero;"/>
    <path d="M87.46,113.27C87.46,113.37 87.38,113.46 87.33,113.56C87.38,113.46 87.42,113.37 87.46,113.27Z" style="fill:none;fill-rule:nonzero;"/>
    <path d="M45.37,117.52C45.412,117.562 45.449,117.609 45.48,117.66C45.449,117.609 45.412,117.562 45.37,117.52Z" style="fill:none;fill-rule:nonzero;"/>
    <path d="M84,118.67L83.88,118.81L84,118.67Z" style="fill:none;fill-rule:nonzero;"/>
    <path d="M42.87,113.27C42.87,113.37 42.96,113.46 43,113.56C43,113.46 42.91,113.37 42.87,113.27Z" style="fill:none;fill-rule:nonzero;"/>
    <path d="M42.24,111.75L42.36,112.06L42.24,111.75Z" style="fill:none;fill-rule:nonzero;"/>
    <path d="M41.71,110.14C41.741,110.225 41.768,110.312 41.79,110.4C41.768,110.312 41.741,110.225 41.71,110.14Z" style="fill:none;fill-rule:nonzero;"/>
    <path d="M42.55,112.52L42.67,112.82L42.55,112.52Z" style="fill:none;fill-rule:nonzero;"/>
    <path d="M42,111C42,111.11 42.07,111.21 42.1,111.31C42,111.16 42,111.06 42,111Z" style="fill:none;fill-rule:nonzero;"/>
    <path d="M83.54,119.23L83.43,119.34L83.54,119.23Z" style="fill:none;fill-rule:nonzero;"/>
    <path d="M83,119.78L82.93,119.86L83,119.78Z" style="fill:none;fill-rule:nonzero;"/>
    <path d="M90.49,92.56C90.49,92.18 90.54,91.8 90.56,91.42C90.54,91.8 90.52,92.18 90.49,92.56Z" style="fill:none;fill-rule:nonzero;"/>
    <path d="M40.38,109.3C38.826,103.454 37.884,97.461 37.57,91.42C37.884,97.461 38.826,103.454 40.38,109.3Z" style="fill:none;fill-rule:nonzero;"/>
    <path d="M87.75,109.3C88.495,106.523 89.096,103.709 89.55,100.87C89.096,103.709 88.495,106.523 87.75,109.3Z" style="fill:none;fill-rule:nonzero;"/>
    <path d="M46.3,118.67L46.42,118.81L46.3,118.67Z" style="fill:none;fill-rule:nonzero;"/>
    <path d="M46.79,119.23L46.9,119.34L46.79,119.23Z" style="fill:none;fill-rule:nonzero;"/>
    <path d="M45.83,118.1L45.95,118.25L45.83,118.1Z" style="fill:none;fill-rule:nonzero;"/>
    <path d="M43.22,114L43.35,114.26L43.22,114Z" style="fill:none;fill-rule:nonzero;"/>
    <path d="M47.39,119.86L47.31,119.78L47.39,119.86Z" style="fill:none;fill-rule:nonzero;"/>
    <path d="M43.6,114.75L43.71,114.95L43.6,114.75Z" style="fill:none;fill-rule:nonzero;"/>
    <path d="M44.05,115.54L44.1,115.62L44.05,115.54Z" style="fill:none;fill-rule:nonzero;"/>
    <path d="M44.94,116.91L45,117L44.94,116.91Z" style="fill:none;fill-rule:nonzero;"/>
    <path d="M74.38,30.44L74.28,30.44L74.38,30.44Z" style="fill:none;fill-rule:nonzero;"/>
    <path d="M74.93,21.42L74.88,21.42L74.93,21.42Z" style="fill:none;fill-rule:nonzero;"/>
    <path d="M77.33,32.26L77.43,32.35L77.33,32.26Z" style="fill:none;fill-rule:nonzero;"/>
    <path d="M105.47,25.62L105.87,25.89L105.47,25.62Z" style="fill:none;fill-rule:nonzero;"/>
    <path d="M106.14,26.07L106.47,26.3L106.14,26.07Z" style="fill:none;fill-rule:nonzero;"/>
    <path d="M104.63,25.07L105.25,25.48L104.63,25.07Z" style="fill:none;fill-rule:nonzero;"/>
    <path d="M37.43,86.86L37.43,82.86C37.43,84.19 37.42,85.52 37.43,86.86Z" style="fill:none;fill-rule:nonzero;"/>
    <path d="M39.25,66.34C39.34,65.87 39.42,65.4 39.51,64.94C39.42,65.4 39.34,65.87 39.25,66.34Z" style="fill:none;fill-rule:nonzero;"/>
    <path d="M38.88,68.47C38.96,68 39.04,67.47 39.13,67.05C39,67.52 39,68 38.88,68.47Z" style="fill:none;fill-rule:nonzero;"/>
    <path d="M37.57,91.42C37.49,89.89 37.44,88.42 37.43,86.86C37.44,88.37 37.49,89.89 37.57,91.42Z" style="fill:none;fill-rule:nonzero;"/>
    <path d="M38.61,70.25C38.61,69.9 38.71,69.55 38.77,69.25C38.71,69.55 38.66,69.9 38.61,70.25Z" style="fill:none;fill-rule:nonzero;"/>
    <path d="M79,25.41L78.64,25.31L79,25.41Z" style="fill:none;fill-rule:nonzero;"/>
    <path d="M78.48,25.28L78.27,25.28L78.48,25.28Z" style="fill:none;fill-rule:nonzero;"/>
    <path d="M78.1,25.2L77.93,25.2L78.1,25.2Z" style="fill:none;fill-rule:nonzero;"/>
    <path d="M90.56,91.42C90.653,89.887 90.703,88.367 90.71,86.86C90.703,88.373 90.653,89.893 90.56,91.42Z" style="fill:none;fill-rule:nonzero;"/>
    <path d="M37.92,75.88C37.87,76.39 37.83,76.88 37.79,77.41C37.83,76.89 37.87,76.39 37.92,75.88Z" style="fill:none;fill-rule:nonzero;"/>
    <path d="M38.45,71.38C38.35,72.12 38.25,72.86 38.16,73.61C38.25,72.86 38.35,72.12 38.45,71.38Z" style="fill:none;fill-rule:nonzero;"/>
    <path d="M90.21,75.88C90.26,76.39 90.31,76.88 90.35,77.41C90.31,76.89 90.26,76.39 90.21,75.88Z" style="fill:none;fill-rule:nonzero;"/>
    <path d="M37.72,78.18C37.72,78.69 37.65,79.18 37.62,79.73C37.65,79.21 37.69,78.69 37.72,78.18Z" style="fill:none;fill-rule:nonzero;"/>
    <path d="M38.55,70.65L38.61,70.25L38.55,70.65Z" style="fill:none;fill-rule:nonzero;"/>
    <path d="M106.77,26.51L107.07,26.71L106.77,26.51Z" style="fill:none;fill-rule:nonzero;"/>
    <path d="M37.62,79.73C37.55,80.73 37.51,81.81 37.47,82.87C37.51,81.81 37.55,80.77 37.62,79.73Z" style="fill:none;fill-rule:nonzero;"/>
    <path d="M90.52,79.73C90.52,80.51 90.6,81.29 90.63,82.08C90.6,81.29 90.56,80.51 90.52,79.73Z" style="fill:none;fill-rule:nonzero;"/>
    <path d="M114.59,32.81L114.66,32.88L114.59,32.81Z" style="fill:none;fill-rule:nonzero;"/>
    <path d="M113.57,31.85L113.69,31.96L113.57,31.85Z" style="fill:none;fill-rule:nonzero;"/>
    <path d="M114.09,32.33L114.18,32.42L114.09,32.33Z" style="fill:none;fill-rule:nonzero;"/>
    <path d="M112.52,30.92L112.67,31.04L112.52,30.92Z" style="fill:none;fill-rule:nonzero;"/>
    <path d="M74.11,30.34L74.02,30.34L74.11,30.34Z" style="fill:none;fill-rule:nonzero;"/>
    <path d="M110.88,29.55L111.07,29.71L110.88,29.55Z" style="fill:none;fill-rule:nonzero;"/>
    <path d="M111.43,30L111.61,30.15L111.43,30Z" style="fill:none;fill-rule:nonzero;"/>
    <path d="M113.05,31.38L113.18,31.5L113.05,31.38Z" style="fill:none;fill-rule:nonzero;"/>
    <path d="M75.67,31.05L75.55,31L75.67,31.05Z" style="fill:none;fill-rule:nonzero;"/>
    <path d="M75.42,30.92L75.31,30.86L75.42,30.92Z" style="fill:none;fill-rule:nonzero;"/>
    <path d="M74.91,30.67L74.8,30.62L74.91,30.67Z" style="fill:none;fill-rule:nonzero;"/>
    <path d="M74.65,30.56L74.54,30.56L74.65,30.56Z" style="fill:none;fill-rule:nonzero;"/>
    <path d="M75.17,30.79L75.06,30.74L75.17,30.79Z" style="fill:none;fill-rule:nonzero;"/>
    <path d="M112,30.46L112.16,30.59L112,30.46Z" style="fill:none;fill-rule:nonzero;"/>
    <path d="M108,27.36L108.26,27.55L108,27.36Z" style="fill:none;fill-rule:nonzero;"/>
    <path d="M108.58,27.79L108.83,27.98L108.58,27.79Z" style="fill:none;fill-rule:nonzero;"/>
    <path d="M107.38,26.93L107.67,27.13L107.38,26.93Z" style="fill:none;fill-rule:nonzero;"/>
    <path d="M109.17,28.23L109.4,28.4L109.17,28.23Z" style="fill:none;fill-rule:nonzero;"/>
    <path d="M109.75,28.67L109.97,28.83L109.75,28.67Z" style="fill:none;fill-rule:nonzero;"/>
    <path d="M110.32,29.11L110.52,29.27L110.32,29.11Z" style="fill:none;fill-rule:nonzero;"/>
    <path d="M93.22,78.37C93.22,77.21 93.13,76.06 93.06,74.93C93.06,74.36 92.56,69.04 92.46,68.22C92.36,67.4 91.08,59.22 90.98,58.72C89.953,53.367 88.618,48.078 86.98,42.88C86.85,42.47 86.23,40.18 86.03,39.44C85.96,39.18 84.97,36.27 84.93,36.18C84.89,36.09 83.62,33.61 83.61,33.59C83.36,33.18 81.67,30.89 81.61,30.76C81.55,30.63 79.01,28.17 78.42,27.71C70.045,21.197 58.225,21.197 49.85,27.71C49.27,28.17 46.7,30.71 46.66,30.76C46.62,30.81 44.87,33.18 44.66,33.59C44.66,33.59 43.4,36.04 43.34,36.18C43.28,36.32 42.34,39.18 42.23,39.44C42.03,40.18 41.41,42.44 41.28,42.88C39.647,48.08 38.311,53.368 37.28,58.72C37.18,59.22 35.9,67.4 35.8,68.22C35.7,69.04 35.24,74.36 35.2,74.93C35.13,76.06 35.08,77.21 35.04,78.37C35.04,79.82 34.98,81.28 35.04,82.75C35.04,84.4 35.11,86.07 35.2,87.75C35.547,94.369 36.579,100.934 38.28,107.34C38.36,107.65 39.73,111.53 39.81,111.7C39.89,111.87 40.11,112.34 40.19,112.51C40.27,112.68 40.51,113.14 40.61,113.32L41.1,114.19C41.1,114.19 42.1,115.76 42.1,115.8C42.23,115.99 43.6,117.72 43.65,117.8C43.7,117.88 45.07,119.31 45.25,119.49C45.917,120.123 46.583,120.713 47.25,121.26C57.165,128.956 71.145,128.956 81.06,121.26C81.76,120.707 82.427,120.117 83.06,119.49L84.67,117.8C84.67,117.8 86.08,116.02 86.21,115.8L87.21,114.19C87.34,113.98 87.66,113.39 87.7,113.32C87.74,113.25 88.08,112.6 88.12,112.51C88.16,112.42 88.46,111.8 88.51,111.7C88.56,111.6 89.95,107.7 90.03,107.34C91.731,100.934 92.763,94.369 93.11,87.75C93.21,86.07 93.26,84.4 93.27,82.75C93.28,81.28 93.27,79.82 93.22,78.37Z" style="fill:rgb(237,111,47);fill-rule:nonzero;"/>
    <path d="M104.21,85C104.21,83 103.26,79.62 101.91,78.56C101.725,78.39 101.483,78.295 101.232,78.295C100.772,78.295 100.368,78.613 100.26,79.06C99.85,80.333 99.359,81.579 98.79,82.79C97.257,86.371 94.976,89.583 92.1,92.21C88.576,95.366 84.511,97.86 80.1,99.57C79.1,99.98 75,101.33 74.99,101.33C74.68,101.43 70.07,102.56 69.54,102.67L62.34,103.67C44.9,105.49 66.77,109.32 83.21,106.42L86.7,105.68C88.743,105.188 90.725,104.47 92.61,103.54C102.79,98.61 103.77,90.39 103.77,90.39C104.137,88.621 104.294,86.816 104.24,85.01" style="fill:rgb(255,220,75);fill-rule:nonzero;"/>
    <path d="M77.47,72.35C80.91,72.81 84.34,73.35 87.8,73.56C91.815,73.987 95.807,72.504 98.57,69.56C101.731,66.317 103.372,61.88 103.08,57.36C102.83,52.75 98.78,50.02 93.3,50.97C88.41,51.81 84.07,53.72 79.68,55.48C75.882,56.849 72.367,58.903 69.31,61.54C65.31,65.25 67.58,70.18 73.97,71.73C75.12,72.01 76.3,72.16 77.47,72.37" style="fill:rgb(255,220,75);fill-rule:nonzero;"/>
    <path d="M58.37,62.74C57.981,61.649 57.406,60.634 56.67,59.74C54.006,55.788 50.767,52.256 47.06,49.26C45.189,47.637 43.215,46.138 41.15,44.77C38.527,42.945 35.799,41.275 32.98,39.77C27.52,37 22.55,39.68 21.24,45.9C19.737,52.677 20.994,59.78 24.73,65.63C27.33,69.82 31.36,71.8 36.17,72.25C39.17,72.53 42.17,72.7 45.17,72.91C47.62,72.97 50.07,73.14 52.46,72.33C55.61,71.26 58.03,69.33 58.57,65.96C58.748,64.882 58.663,63.777 58.32,62.74" style="fill:rgb(255,220,75);fill-rule:nonzero;"/>
</svg>
