<?xml version="1.0" encoding="UTF-8" standalone="no"?>
<!DOCTYPE svg PUBLIC "-//W3C//DTD SVG 1.1//EN" "http://www.w3.org/Graphics/SVG/1.1/DTD/svg11.dtd">
<svg width="100%" height="100%" viewBox="0 0 16 16" version="1.1" xmlns="http://www.w3.org/2000/svg" xmlns:xlink="http://www.w3.org/1999/xlink" xml:space="preserve" xmlns:serif="http://www.serif.com/" style="fill-rule:evenodd;clip-rule:evenodd;stroke-linejoin:round;stroke-miterlimit:2;">
    <g transform="matrix(0.0154378,0,0,0.0154378,-6.80387,-0.288701)">
        <path d="M872.2,1049.7L872.2,941.9C862.8,939.9 853.6,938.2 844.5,936.1C795.2,925 748.6,906.9 704.4,882.6C702,881.3 701,879.9 701,877C701.1,852.3 701.1,827.7 701.1,803L701.1,798.9C753.5,834.6 810.1,858.6 872.1,871.1C872.2,869.6 872.3,868.4 872.3,867.2C872.3,849.3 872,831.3 872.4,813.4C873.3,773 897.2,733.6 939.2,716.1C951.1,711.2 963.5,708.6 976.2,707.6C1004.7,705.5 1032.7,700.5 1059.8,691.2C1060.5,691 1061.2,690.6 1062,690.2C1059.7,676.3 1059.1,662.4 1060.5,648.5C1062.7,626.7 1069.1,606.2 1079,586.8C1100.9,544 1133.5,512 1177.1,491.6C1201.1,480.4 1226.4,474.4 1253,475.7C1256.8,475.9 1258.3,474.8 1259.1,471C1267.5,433.5 1269.1,395.7 1263.7,357.6C1258.2,318.4 1245.4,281.8 1225.6,247.6C1206.2,213.9 1181,185.1 1150.5,160.9C1118.2,135.4 1082.2,117.3 1042.6,106.1C1010.7,97 978,93.8 945,95.4C909.8,97.1 875.9,104.9 843.3,118.4C800.4,136.2 763.6,162.4 732.6,197C700.8,232.5 678.5,273.2 665.7,319C659.8,339.9 656.4,361.2 655.1,382.9C653.3,412.6 656,441.9 662.3,470.9C663.1,474.7 664.6,475.7 668.5,475.5C687.4,474.9 705.7,478.2 723.4,484.5C770.8,501.2 806.8,531.9 832.6,574.7C844.6,594.6 852.9,616.1 856.4,639.1C861.2,670.1 858.2,700.1 842.3,727.8C826.1,755.9 801.8,773.4 770.5,781.1C741.4,788.2 712.7,785.3 684.6,775.6C652.5,764.5 625.4,745.9 602.3,721.1C578.4,695.3 562.1,665.5 554.1,631.3C548.9,609.2 548.2,587 553.6,564.7C559.3,541.3 570.2,521 588.6,505.1C590.9,503.1 591.3,501.4 590.5,498.5C584.7,476.2 580.7,453.5 579.2,430.5C572.4,328 601,236.7 666,157.5C720.3,91.4 789.9,48.9 873.1,28.9C907.3,20.7 942.1,17.5 977.4,19.1C1058.2,22.9 1130.8,49.3 1194.7,98.7C1265.4,153.4 1311.1,224.7 1332.6,311.5C1338.4,334.8 1341.5,358.5 1342.8,382.5C1344.9,423 1340.3,462.7 1330,501.9C1329.6,503.2 1330.3,505.5 1331.3,506.4C1344.8,518.8 1354.3,533.7 1360.3,550.9C1366.6,569 1369.2,587.6 1367.5,606.8C1363.9,647.2 1348.2,682.6 1322.2,713.4C1294.6,746.1 1260.6,768.9 1218.9,779.7C1187,787.9 1155.6,787.1 1125.3,773.2C1117.3,769.5 1110.2,763.9 1102.6,759.4C1101.4,758.7 1099.4,758.1 1098.2,758.5C1079.7,765.4 1061,771.1 1041.7,775.2C1040.8,775.4 1040,775.8 1039.2,776.1L1039.2,873.1C1105.5,861.4 1166,836.5 1221.5,798.4C1221.6,800.1 1221.7,801.2 1221.7,802.3C1221.7,827.1 1221.7,851.9 1221.8,876.7C1221.8,879.4 1220.8,880.7 1218.5,882C1174,906.8 1127.1,925 1077.4,936.1C1065.7,938.7 1054,940.9 1042.2,942.9C1039.2,943.4 1038.8,944.6 1038.8,947.1C1038.9,968.3 1038.8,989.5 1038.8,1010.6C1038.8,1022.7 1038.7,1034.9 1038.9,1047C1038.9,1049.7 1038.1,1050.6 1035.4,1050.8C1012.1,1052.2 988.8,1054.4 965.5,1055C948.6,1055.5 931.7,1054.3 914.8,1053.3C900.9,1052.5 886.8,1050.9 872.2,1049.7ZM683,529.9C683.4,531.1 683.6,531.8 683.9,532.3C689.5,542.6 695,553 700.8,563.1C701.7,564.6 703.9,565.5 705.7,566.3C712.7,569.2 720.3,571 726.6,574.9C755.3,592.9 772.3,617.7 769,653.1C767.8,665.6 762,676.3 752.1,684.2C735.8,697.3 717.3,698.4 698.3,692.4C664.1,681.7 637.4,647.9 638.9,611.6C639,609.9 638.4,608 637.6,606.6C630.9,594.5 624.1,582.6 617.4,570.6C616.7,569.4 616.1,568.1 615.4,566.6C614.9,567.3 614.6,567.6 614.4,567.9C603.3,588.9 602,610.9 607.8,633.5C615.1,662.1 631,685.3 654.1,703.4C679.4,723.3 707.8,733.7 740.4,729.1C761.7,726.1 779,715.7 791,697.6C805.4,676.1 807.6,652.2 801.2,627.9C789.4,583.5 761.3,553.1 718.6,536.4C707.5,532.1 695.7,529.8 683,529.9ZM1304.6,570.1C1297.5,582.4 1290.6,594.6 1283.4,606.6C1280.8,611 1278.3,615 1278.8,620.5C1279.1,623.1 1278.2,625.8 1277.6,628.5C1270.9,661.8 1242.6,689.5 1208.7,695C1176.7,700.2 1148.5,680.5 1148.1,644.8C1147.9,626.8 1154.7,610.8 1165.9,596.8C1179.2,580.3 1195.8,569.1 1217.1,565.4C1218.5,565.2 1220.1,563.8 1220.9,562.6C1224.6,556.6 1228.2,550.4 1231.6,544.2C1234,539.7 1236.1,535.1 1238.7,529.9L1234.5,529.9C1219.9,529.9 1205.7,533 1192.6,539.2C1149.5,559.5 1122.1,592.2 1114.8,640.1C1112.1,657.8 1114.5,674.8 1123,690.7C1139.9,722.5 1171.3,733.3 1204,729.6C1223.5,727.4 1241.5,720.2 1257.2,708.4C1295.5,679.8 1317.8,643.2 1312.3,593.6C1311.3,585.3 1308.6,577.4 1304.6,570.1Z" style="fill:rgb(191,0,70);fill-rule:nonzero;"/>
    </g>
</svg>
