<?xml version="1.0" encoding="UTF-8"?>
<svg id="Layer_5" data-name="Layer 5" xmlns="http://www.w3.org/2000/svg" xmlns:xlink="http://www.w3.org/1999/xlink" viewBox="0 0 16 16">
  <defs>
    <style>
      .cls-1 {
        fill: #1b143b;
      }

      .cls-2 {
        fill: url(#New_Gradient_Swatch_3);
      }

      .cls-3 {
        fill: #b71f37;
      }

      .cls-4 {
        fill: #4b5960;
      }

      .cls-5 {
        fill: url(#linear-gradient);
      }

      .cls-6 {
        fill: #56c8ff;
      }

      .cls-7 {
        fill: #4b9a58;
      }
    </style>
    <linearGradient id="linear-gradient" x1="2.6244" y1="6.988" x2="8.9944" y2=".618" gradientUnits="userSpaceOnUse">
      <stop offset=".1541" stop-color="#d3631a"/>
      <stop offset=".3275" stop-color="#f7bd29"/>
      <stop offset=".4475" stop-color="#fff"/>
      <stop offset=".6294" stop-color="#fc0"/>
    </linearGradient>
    <linearGradient id="New_Gradient_Swatch_3" data-name="New Gradient Swatch 3" x1="8.4956" y1="12.8592" x2="14.8656" y2="6.4892" gradientUnits="userSpaceOnUse">
      <stop offset="0" stop-color="#d3631a"/>
      <stop offset=".238" stop-color="#f7bd29"/>
      <stop offset=".4475" stop-color="#fff"/>
      <stop offset=".7473" stop-color="#fc0"/>
    </linearGradient>
  </defs>
  <path class="cls-6" d="m3.8752,7.5478c.324-.8068.0275-1.7068-.6616-2.1782.0492-.078.0944-.1596.13-.2482.2169-.5399.1021-1.1257-.2397-1.5479.2082-.1825.3824-.409.4927-.6835.3746-.9329-.0778-1.9928-1.0107-2.3675C1.6531.1478.5931.6003.2184,1.5331c-.2955.7358-.0709,1.5455.4926,2.0408-.0954.1176-.1804.2458-.2397.3937-.2421.6027-.0764,1.2664.3643,1.6909-.1382.154-.257.3293-.3386.5325-.3747.9328.0778,1.9928,1.0107,2.3675.0342.0138.0695.0186.1041.0301-.1868.5203.0633,1.0989.5806,1.3068.5295.2126,1.1312-.0442,1.3439-.5737.15-.3734.0571-.7762-.1908-1.0596.2249-.1868.413-.4238.5297-.7141Z"/>
  <g>
    <path class="cls-4" d="m15.6411,10.9266c-.2972-.5269-2.5576-4.4785-4.4093-5.7244-.9429-.6337-1.5125-.7423-2.0644-.8468-.1498-.0288-.3035-.0574-.4725-.1015-.1206-.0315-.2913-.0584-.4925-.088-.4382-.0644-1.1002-.1617-1.4762-.4521-.8764-.6781-1.777-1.4768-2.2977-1.9507-.0191-.1849-.0968-.3668-.235-.5144l-.4746-.5041c-.1598-.1706-.383-.272-.613-.2788-.2207-.0067-.4372.0734-.5974.2249l-1.3527,1.2727c-.1621.1521-.2549.3593-.2615.5835-.0068.2295.0807.4584.2399.6275l.4756.5056c.1382.1466.314.2354.4981.2646.4382.5443,1.1768,1.4863,1.8067,2.4134.2675.3932.3238,1.0599.3612,1.5011.0174.2021.034.3739.0579.497.0337.1711.053.3262.0722.4778.0712.5566.1446,1.1321.7191,2.1114,1.1305,1.9252,4.9348,4.4225,5.4444,4.7516.1665.1444.3771.2253.6013.2324.0245.0009.0479.0009.0723-.0002.2312-.0099.4492-.1013.6183-.261l3.6706-3.4526c.3637-.341.4044-.8999.1092-1.289Z"/>
    <path class="cls-7" d="m15.1014,11.2944s-.2467-.4437-.6401-1.0849c-.1093-.1781-.2319-.3733-.3621-.5771-.5486-.8589-1.2608-1.8912-1.9876-2.7242-.1478-.1695-.2956-.3303-.4431-.4793-.2722-.275-.5417-.5139-.8-.6876-1.0972-.7378-1.5771-.6604-2.3375-.8587-.4156-.1083-1.5218-.1288-2.2023-.6551-1.0965-.8479-2.2144-1.8675-2.6096-2.2336l.0082-.0077c.0784-.0737.0752-.2044-.0072-.292l-.4752-.5053c-.0823-.0875-.2127-.0987-.2911-.025l-1.3531,1.2728c-.0784.0738-.0752.2045.0071.292l.4753.5053c.0824.0876.2126.0987.2911.025l.0082-.0077c.3412.4168,1.2905,1.5949,2.0699,2.7413.4836.7113.4365,1.8168.5192,2.2382.1515.7711.0448,1.2454.7142,2.3856.1576.2683.3795.552.6373.8404.1397.1563.2912.3137.4513.4716.787.7764,1.7738,1.5502,2.5976,2.1503.1955.1424.3828.2767.554.3967.6159.4319,1.0438.7053,1.0438.7053.1191.1266.32.1327.4466.0137l.5055-.4755.135-.127,2.3905-2.2486.135-.1269.5055-.4755c.1266-.1191.1327-.32.0136-.4467Z"/>
    <path class="cls-5" d="m6.3288,4.2276c-1.3583-1.0504-2.7695-2.3824-2.7695-2.3824-.1748-.1859-.4399-.2391-.6661-.1558-.0754.0277-.1464.0707-.2084.129h0s-.0512.0482-.0512.0482l-.3119.2934-.0512.0482c-.2479.2332-.2599.6266-.0268.8745,0,0,1.2433,1.49,2.2086,2.91.4837.7114.4366,1.8168.5193,2.2382.9919-.0893,1.8935-.3855,2.4762-.9336s.9334-1.43,1.0833-2.4145c-.4156-.1083-1.5218-.1289-2.2023-.6551Z"/>
    <path class="cls-7" d="m2.9539,1.1641l-1.3531,1.2728c-.0784.0737-.0752.2045.0071.292l.4752.5052c.0823.0875.2127.0987.2911.025l1.3531-1.2728c.0784-.0737.0752-.2045-.0071-.292l-.4752-.5052c-.0823-.0875-.2127-.0987-.2911-.025Z"/>
    <path class="cls-2" d="m9.8357,9.8431c-.8333.7838-1.7255,1.4256-2.6242,1.9162.6926.6832,1.561,1.3641,2.2859,1.8923.7856-.4547,1.5666-1.029,2.3021-1.7208s1.3562-1.436,1.8579-2.1921c-.4828-.7558-1.1095-1.6643-1.7491-2.3973-.5445.8669-1.2395,1.7181-2.0726,2.5017Z"/>
    <ellipse class="cls-1" cx="9.4575" cy="9.4338" rx="2.0608" ry="2.5811" transform="translate(-3.8949 9.0421) rotate(-43.2477)"/>
    <ellipse class="cls-3" cx="9.4575" cy="9.4338" rx="1.2043" ry="1.5084" transform="translate(-3.8949 9.0421) rotate(-43.2477)"/>
  </g>
</svg>