<?xml version="1.0" encoding="UTF-8" standalone="no"?>
<!DOCTYPE svg PUBLIC "-//W3C//DTD SVG 1.1//EN" "http://www.w3.org/Graphics/SVG/1.1/DTD/svg11.dtd">
<svg width="100%" height="100%" viewBox="0 0 64 64" version="1.1" xmlns="http://www.w3.org/2000/svg" xmlns:xlink="http://www.w3.org/1999/xlink" xml:space="preserve" xmlns:serif="http://www.serif.com/" style="fill-rule:evenodd;clip-rule:evenodd;stroke-linejoin:round;stroke-miterlimit:2;">
    <g transform="matrix(4,0,0,4,-96,-96)">
        <g transform="matrix(0.891584,0,0,0.891584,22.963,32.8237)">
            <g transform="matrix(1.1216,0,0,1.1216,1.1631,-9.8967)">
                <path d="M2.545,11.917L2.545,9.019C2.545,8.492 2.559,8.058 2.588,7.719C2.617,7.405 2.678,7.126 2.77,6.88C2.862,6.661 2.99,6.481 3.155,6.339C3.368,6.162 3.576,6 3.779,5.854L5.102,4.992C5.358,4.809 5.528,4.652 5.61,4.521C5.688,4.37 5.726,4.151 5.726,3.863L5.726,2.609C5.726,2.223 5.688,1.962 5.61,1.826C5.518,1.711 5.32,1.653 5.014,1.653C4.884,1.653 4.76,1.664 4.644,1.685C4.533,1.721 4.457,1.774 4.419,1.842C4.356,1.925 4.317,2.027 4.303,2.147C4.283,2.335 4.273,2.508 4.273,2.664L4.273,4.232L2.603,4.232L2.603,2.664C2.603,2.069 2.639,1.596 2.712,1.246C2.77,0.906 2.888,0.64 3.068,0.447C3.252,0.264 3.499,0.141 3.809,0.078C4.157,0.026 4.569,-0 5.043,-0C5.518,-0 5.93,0.026 6.278,0.078C6.574,0.136 6.816,0.259 7.005,0.447C7.189,0.63 7.31,0.891 7.368,1.23C7.426,1.57 7.455,2.03 7.455,2.609L7.455,3.942C7.455,4.276 7.441,4.555 7.412,4.78C7.387,4.989 7.327,5.193 7.23,5.391C7.148,5.558 7.029,5.718 6.874,5.869C6.666,6.047 6.467,6.191 6.278,6.3L4.847,7.217C4.741,7.29 4.642,7.366 4.55,7.444C4.482,7.518 4.424,7.598 4.375,7.687C4.346,7.75 4.322,7.857 4.303,8.009C4.283,8.155 4.273,8.299 4.273,8.44L4.273,11.198L5.712,11.198L5.712,8.134L7.455,8.134L7.455,11.558C5.812,11.58 4.17,11.699 2.545,11.917Z" style="fill:rgb(81,97,140);fill-rule:nonzero;"/>
            </g>
            <g transform="matrix(1.1216,0,0,1.1216,1.1631,-9.8967)">
                <path d="M8.667,11.559C8.62,11.245 8.596,10.829 8.596,10.312L8.596,2.664C8.596,2.048 8.63,1.575 8.697,1.246C8.756,0.906 8.874,0.64 9.053,0.447C9.237,0.264 9.487,0.141 9.802,0.078C10.15,0.026 10.562,-0 11.037,-0C11.511,-0 11.923,0.026 12.272,0.078C12.572,0.141 12.824,0.264 13.027,0.447C13.201,0.635 13.325,0.901 13.398,1.246C13.46,1.627 13.492,2.1 13.492,2.664L13.492,10.312C13.492,10.877 13.46,11.349 13.398,11.731C13.385,11.79 13.372,11.848 13.357,11.902C11.804,11.699 10.236,11.584 8.667,11.559ZM11.763,10.312C11.763,10.574 11.758,10.746 11.748,10.83C11.739,10.945 11.705,11.052 11.647,11.151C11.579,11.24 11.499,11.292 11.407,11.308C11.286,11.344 11.158,11.362 11.022,11.362C10.882,11.362 10.761,11.344 10.659,11.308C10.557,11.292 10.484,11.245 10.441,11.167C10.383,11.088 10.346,10.981 10.332,10.845C10.313,10.678 10.303,10.5 10.303,10.312L10.303,2.664C10.303,2.246 10.349,1.972 10.441,1.842C10.528,1.716 10.731,1.653 11.051,1.653C11.163,1.653 11.286,1.664 11.422,1.685C11.518,1.721 11.594,1.768 11.647,1.826C11.705,1.925 11.739,2.027 11.748,2.131C11.758,2.225 11.763,2.403 11.763,2.664L11.763,10.312Z" style="fill:rgb(158,168,196);"/>
            </g>
        </g>
        <g transform="matrix(0.0416275,0,0,0.0381394,31.667,37.6118)">
            <g transform="matrix(1,0,0,1,-289.633,-390.64)">
                <path d="M160.283,446.057C147.896,448.17 135.562,450.572 123.292,453.257C125.017,438.937 126.954,424.611 129.11,410.283C121.481,397.92 113.596,385.651 105.453,373.485C118.971,370.524 132.563,367.875 146.213,365.543C150.994,392.371 155.684,419.209 160.283,446.057Z" style="fill:rgb(253,111,55);fill-rule:nonzero;"/>
            </g>
            <g transform="matrix(1,0,0,1,-289.633,-390.64)">
                <path d="M430.685,438.443C342.732,424.019 252.309,424.032 164.36,438.48C159.817,410.98 155.182,383.49 150.455,356.01C247.549,340.04 347.469,340.027 444.568,355.969C439.849,383.451 435.221,410.942 430.685,438.443Z" style="fill:rgb(253,111,55);fill-rule:nonzero;"/>
            </g>
            <g transform="matrix(1,0,0,1,-289.633,-390.64)">
                <path d="M434.986,446.057C447.372,448.17 459.706,450.572 471.977,453.257C470.254,438.937 468.319,424.612 466.164,410.286C473.793,397.92 481.674,385.652 489.814,373.485C476.297,370.524 462.707,367.876 449.057,365.543C444.275,392.371 439.585,419.209 434.986,446.057Z" style="fill:rgb(253,111,55);fill-rule:nonzero;"/>
            </g>
            <g transform="matrix(1,0,0,1,-289.633,-390.64)">
                <path d="M211.224,415.454C211.472,417.455 210.383,417.265 209.738,417.347C202.451,418.268 195.175,419.305 187.913,420.455C187.27,420.558 186.276,421.044 185.955,419.053C185.724,417.619 185.493,416.185 185.262,414.751C184.941,412.759 186.05,412.908 186.7,412.805C188.542,412.513 190.385,412.229 192.229,411.952C191.489,407.031 190.749,402.11 190.008,397.19C184.374,389.661 178.592,382.195 172.665,374.796C171.922,374.922 171.179,375.049 170.436,375.177C169.665,375.311 169.021,375.668 168.744,374.079C168.457,372.436 168.17,370.793 167.884,369.151C167.759,368.436 167.388,367.844 169.12,367.544C172.41,366.977 175.703,366.431 178.999,365.908C180.386,365.687 180.635,366.14 181.068,366.643C183.994,370.596 186.881,374.565 189.731,378.55C191.037,380.315 193.084,383.688 194.521,387.153C194.577,387.145 194.633,387.136 194.688,387.128C194.765,386.656 194.841,386.183 194.918,385.71C195.723,381.034 195.964,379.616 196.722,377.556C198.348,372.935 200.013,368.319 201.719,363.707C202.24,362.257 202.542,362.545 203.5,362.424C206.662,362.028 209.826,361.651 212.991,361.293C213.775,361.205 214.446,360.888 214.624,362.492C214.807,364.149 214.991,365.806 215.174,367.463C215.352,369.068 214.635,368.904 213.859,368.992C212.939,369.095 212.019,369.201 211.1,369.307C207.661,378.047 204.373,386.81 201.233,395.59C201.896,400.522 202.559,405.454 203.222,410.385C205.069,410.137 206.917,409.896 208.766,409.662C209.418,409.579 210.439,409.126 210.688,411.129C210.866,412.571 211.045,414.012 211.224,415.454Z" style="fill:white;fill-rule:nonzero;"/>
            </g>
            <g transform="matrix(1,0,0,1,-289.633,-390.64)">
                <path d="M263.779,410.93C263.873,412.865 262.969,412.665 262.24,412.703C251.403,413.252 240.576,414.053 229.768,415.106C229.121,415.168 228.102,415.594 227.901,413.587C227.757,412.142 227.613,410.697 227.469,409.251C227.268,407.244 228.363,407.459 229.017,407.396C230.407,407.26 231.797,407.129 233.188,407.002C231.98,393.797 230.773,380.593 229.566,367.388C228.098,367.523 226.629,367.661 225.162,367.804C224.471,367.871 223.381,368.303 223.181,366.296C223.036,364.851 222.892,363.407 222.748,361.961C222.547,359.954 223.713,360.162 224.411,360.094C236.042,358.961 247.693,358.099 259.354,357.506C260.316,357.457 261.183,357.254 261.256,358.786C261.454,362.87 261.651,366.953 261.849,371.036C261.937,372.89 261.074,372.77 260.131,372.818C258.247,372.913 256.362,373.017 254.478,373.127C253.792,373.166 252.698,373.556 252.575,371.542C252.476,369.905 252.376,368.267 252.276,366.629C248.618,366.852 244.961,367.102 241.305,367.378C241.64,371.804 241.975,376.23 242.31,380.655C247.116,380.291 251.925,379.975 256.736,379.705C257.584,379.659 258.506,379.367 258.609,381.3C258.704,383.073 258.799,384.845 258.894,386.618C259.001,388.632 257.894,388.369 257.221,388.407C252.469,388.672 247.717,388.985 242.968,389.344C243.366,394.601 243.763,399.858 244.161,405.115C247.632,404.852 251.104,404.615 254.577,404.403C254.462,402.524 254.348,400.644 254.233,398.765C254.17,397.719 253.882,397.087 255.872,396.97C257.695,396.864 259.519,396.764 261.344,396.671C262.173,396.628 263.074,396.342 263.167,398.277C263.371,402.495 263.575,406.712 263.779,410.93Z" style="fill:white;fill-rule:nonzero;"/>
            </g>
            <g transform="matrix(1,0,0,1,-289.633,-390.64)">
                <path d="M299.222,375.898C297.863,370.329 297.855,368.232 297.511,365.811C297.454,365.407 297.396,365.003 297.338,364.6L297.165,364.6C296.477,370.168 295.971,372.994 295.211,375.901C293.977,380.532 292.765,385.164 291.578,389.801C295.26,389.77 298.942,389.766 302.625,389.79C301.513,385.158 300.378,380.527 299.222,375.898ZM322.414,410.54C322.343,412.557 321.301,412.197 320.651,412.176C315.027,411.993 309.401,411.876 303.775,411.829C303.126,411.823 302.069,412.139 302.082,410.121C302.091,408.669 302.1,407.217 302.108,405.764C302.12,403.746 303.186,404.077 303.842,404.082C304.717,404.09 305.592,404.099 306.467,404.11C305.867,401.763 305.261,399.416 304.647,397.071C299.897,397.025 295.147,397.026 290.396,397.076C289.813,399.421 289.235,401.768 288.664,404.116C289.566,404.104 290.468,404.094 291.371,404.085C292.027,404.079 293.092,403.748 293.105,405.766C293.115,407.219 293.125,408.671 293.134,410.123C293.147,412.141 292.09,411.826 291.441,411.831C286.085,411.879 280.73,411.99 275.376,412.161C274.727,412.181 273.684,412.539 273.615,410.523C273.564,409.072 273.515,407.621 273.465,406.168C273.396,404.152 274.473,404.439 275.129,404.418C275.949,404.392 276.769,404.367 277.589,404.344C281.936,388.802 286.595,373.3 291.566,357.848C291.822,357.039 291.643,356.555 293.481,356.543C296.516,356.527 299.551,356.528 302.586,356.547C304.424,356.56 304.245,357.044 304.5,357.852C309.344,373.308 313.883,388.81 318.116,404.349C319.045,404.375 319.975,404.404 320.904,404.434C321.561,404.455 322.638,404.169 322.566,406.186C322.516,407.637 322.465,409.089 322.414,410.54Z" style="fill:white;fill-rule:nonzero;"/>
            </g>
            <g transform="matrix(1,0,0,1,-289.633,-390.64)">
                <path d="M352.153,382.516C354.693,382.704 357.9,382.961 360.367,381.069C362.292,379.533 362.841,377.235 363.025,375.145C363.16,373.618 363.041,371.095 361.449,369.419C359.691,367.648 356.758,367.327 354.254,367.138C353.188,367.057 352.123,366.979 351.058,366.903C350.689,372.054 350.322,377.204 349.954,382.356C350.688,382.409 351.421,382.461 352.153,382.516ZM376.631,414.544C376.404,416.549 375.391,416.11 374.744,416.038C371.298,415.659 367.849,415.303 364.398,414.974C363.023,414.843 362.98,414.436 362.716,413.762C359.715,406.191 356.598,398.637 353.365,391.105C352.027,391.001 350.689,390.903 349.352,390.807C348.993,395.824 348.635,400.84 348.276,405.858C349.56,405.949 350.842,406.044 352.124,406.143C352.779,406.193 353.869,405.954 353.709,407.966C353.595,409.413 353.479,410.862 353.365,412.31C353.205,414.321 352.179,413.915 351.531,413.866C345.242,413.383 338.949,412.985 332.652,412.671C332.004,412.638 330.936,412.911 331.03,410.896C331.099,409.445 331.168,407.994 331.236,406.543C331.331,404.528 332.382,404.901 333.037,404.934C334.431,405.003 335.824,405.078 337.218,405.155C337.955,391.915 338.692,378.676 339.43,365.437C337.959,365.355 336.487,365.278 335.016,365.204C334.323,365.169 333.184,365.438 333.278,363.423C333.347,361.973 333.415,360.522 333.484,359.071C333.579,357.055 334.701,357.432 335.4,357.468C342.223,357.807 349.041,358.24 355.854,358.764C362.666,359.291 367.242,360.448 370.913,364.127C374.503,367.724 375.042,371.602 374.575,376.095C374.115,380.509 373.056,383.236 370.95,385.538C369.893,386.729 367.645,388.854 364.353,389.766C364.063,389.848 363.773,389.929 363.484,390.01C366.349,395.969 369.133,401.945 371.836,407.935C373.089,408.066 374.342,408.202 375.594,408.339C376.248,408.412 377.346,408.209 377.119,410.214C376.956,411.658 376.793,413.101 376.631,414.544Z" style="fill:white;fill-rule:nonzero;"/>
            </g>
            <g transform="matrix(1,0,0,1,-289.633,-390.64)">
                <path d="M415.313,374.211C415.097,374.095 414.881,373.979 414.664,373.863C413.612,373.288 411.697,372.58 409.721,372.283C403.523,371.354 401.194,374.228 400.763,377.338C400.151,381.735 404.194,383.761 408.671,386.65C410.321,387.715 413.846,389.984 416.207,392.337C421.242,397.26 421.842,402.462 421.082,406.83C420.545,409.933 418.961,414.562 414.417,417.886C411.2,420.214 406.931,421.709 400.348,420.73C396.586,420.132 384.474,416.99 384.939,413.092C385.441,409.063 385.943,405.033 386.444,401.002C386.494,400.602 386.366,399.609 388.021,399.817C390.061,400.076 392.1,400.342 394.138,400.618C395.791,400.842 395.454,401.449 395.355,402.168C395.023,404.593 394.69,407.018 394.357,409.443C394.666,409.621 394.974,409.799 395.281,409.977C396.357,410.614 399.105,411.734 401.788,412.133C408.689,413.17 409.951,407.926 410.27,405.927C411.003,401.31 408.409,399.075 402.085,395.214C398.5,392.978 394.005,390.333 391.597,387.097C389.551,384.392 388.981,381.316 389.48,377.312C390.71,367.151 398.724,361.824 410.675,363.613C418.688,364.813 425.797,368.666 425.319,371.369C424.704,374.948 424.089,378.526 423.474,382.104C423.2,383.694 422.226,383.281 421.802,383.209C419.711,382.854 417.618,382.508 415.525,382.17C413.829,381.899 414.185,381.304 414.299,380.586C414.637,378.461 414.975,376.336 415.313,374.211Z" style="fill:white;fill-rule:nonzero;"/>
            </g>
        </g>
    </g>
</svg>
