<?xml version="1.0" encoding="utf-8"?>
<!-- Generator: Adobe Illustrator 24.3.0, SVG Export Plug-In . SVG Version: 6.00 Build 0)  -->
<svg version="1.1" id="Layer_1" xmlns="http://www.w3.org/2000/svg" xmlns:xlink="http://www.w3.org/1999/xlink" x="0px" y="0px"
	 viewBox="0 0 64 64" style="enable-background:new 0 0 64 64;" xml:space="preserve">
<style type="text/css">
	.st0{fill:url(#SVGID_1_);}
	.st1{fill:url(#SVGID_2_);}
	.st2{fill:url(#SVGID_3_);}
	.st3{fill:none;}
</style>
<g>
	<g>
		
			<linearGradient id="SVGID_1_" gradientUnits="userSpaceOnUse" x1="6.4624" y1="1.6871" x2="57.5191" y2="52.7438" gradientTransform="matrix(1 0 0 -1 0 66)">
			<stop  offset="2.469378e-02" style="stop-color:#B5870F"/>
			<stop  offset="0.3979" style="stop-color:#F6ED7D"/>
			<stop  offset="0.7283" style="stop-color:#D6A925"/>
			<stop  offset="0.972" style="stop-color:#E1B123"/>
		</linearGradient>
		<path class="st0" d="M62,47.6L42.6,18.1c-0.1-0.1-0.1-0.3-0.1-0.5V7.7h1.2c1.3,0,2.4-1.1,2.4-2.5V2.9c0-1.4-1.1-2.5-2.4-2.5H20.3
			c-1.3,0-2.4,1.1-2.4,2.5v2.3c0,1.4,1.1,2.5,2.4,2.5h1.2v9.9c0,0.2-0.1,0.3-0.1,0.5L2,47.6c-0.9,1.3-1.3,2.9-1.3,4.5v3.2
			c0,4.3,3.4,7.7,7.5,7.7h47.6c4.1,0,7.5-3.5,7.5-7.7V52C63.3,50.4,62.8,48.9,62,47.6z M56.5,55.3c0,0.4-0.3,0.7-0.7,0.7H8.2
			c-0.4,0-0.7-0.3-0.7-0.7V52c0-0.2,0.1-0.4,0.2-0.6L27.1,22c0.9-1.3,1.3-2.8,1.3-4.4V7.7h7.2v9.9c0,1.6,0.5,3.1,1.3,4.4l19.4,29.5
			c0.1,0.2,0.2,0.4,0.2,0.6C56.5,52.1,56.5,55.3,56.5,55.3z"/>
		
			<linearGradient id="SVGID_2_" gradientUnits="userSpaceOnUse" x1="26.3327" y1="37.2" x2="33.2343" y2="37.2" gradientTransform="matrix(1 0 0 -1 0 66)">
			<stop  offset="2.469378e-02" style="stop-color:#B5870F"/>
			<stop  offset="0.7283" style="stop-color:#D6A925"/>
			<stop  offset="0.972" style="stop-color:#E1B123"/>
		</linearGradient>
		<ellipse class="st1" cx="29.8" cy="28.8" rx="3.5" ry="3.5"/>
		
			<linearGradient id="SVGID_3_" gradientUnits="userSpaceOnUse" x1="12.7378" y1="21.6814" x2="50.947" y2="21.6814" gradientTransform="matrix(1 0 0 -1 0 66)">
			<stop  offset="2.469378e-02" style="stop-color:#B5870F"/>
			<stop  offset="0.7283" style="stop-color:#D6A925"/>
			<stop  offset="0.972" style="stop-color:#E1B123"/>
		</linearGradient>
		<path class="st2" d="M41.7,37.2c-2.4,2.2-3.7,1.7-6,0.2c-2.6-1.7-4.4-2-8.5,0.2c-2.6,1.4-4.3,0.6-5.2-0.2l-8.8,12.5
			c-0.8,1.1,0,2.7,1.3,2.7h34.9c1.3,0,2.1-1.6,1.3-2.7L41.7,37.2z M21.6,49.7c-1.6,0-2.9-1.3-2.9-3c0-1.6,1.3-3,2.9-3s2.9,1.3,2.9,3
			S23.2,49.7,21.6,49.7z M32.4,46.7c-2.1,0-3.8-1.7-3.8-3.9s1.7-3.9,3.8-3.9s3.8,1.7,3.8,3.9S34.4,46.7,32.4,46.7z M41.5,49.6
			c-1.2,0-2.2-1-2.2-2.3c0-1.2,1-2.3,2.2-2.3s2.2,1,2.2,2.3S42.7,49.6,41.5,49.6z"/>
	</g>
</g>
<path class="st3" d="M7.9,35.3L7.9,35.3L7.9,35.3z"/>
<path class="st3" d="M7.9,35L7.9,35L7.9,35z"/>
<path class="st3" d="M7.9,35.2L7.9,35.2L7.9,35.2z"/>
<path class="st3" d="M7.9,35.4L7.9,35.4L7.9,35.4z"/>
<path class="st3" d="M7.9,34.9L7.9,34.9L7.9,34.9z"/>
<path class="st3" d="M7.9,35.6L7.9,35.6L7.9,35.6z"/>
</svg>
