<?xml version="1.0" encoding="utf-8"?>
<!-- Generator: Adobe Illustrator 24.3.0, SVG Export Plug-In . SVG Version: 6.00 Build 0)  -->
<svg version="1.1" xmlns="http://www.w3.org/2000/svg" xmlns:xlink="http://www.w3.org/1999/xlink" x="0px" y="0px"
	 viewBox="0 0 64 64" style="enable-background:new 0 0 64 64;" xml:space="preserve">
<style type="text/css">
	.st0{fill:#2A80C3;}
	.st1{fill:#020203;}
	.st2{fill:#E0E0E0;}
	.st3{fill:none;stroke:#FFFFFF;stroke-width:0.9012;stroke-linecap:round;stroke-miterlimit:10;}
	.st4{fill:#999999;stroke:#020203;stroke-miterlimit:10;}
	.st5{fill:none;stroke:url(#SVGID_1_);stroke-width:7;stroke-linecap:round;stroke-miterlimit:10;}
	.st6{fill:#2A5688;stroke:#2A5688;stroke-width:0.2;stroke-miterlimit:10;}
	.st7{fill:url(#SVGID_2_);}
	.st8{fill:#010202;}
	.st9{fill:#2A5688;}
	.st10{fill:url(#SVGID_3_);}
	.st11{fill:url(#SVGID_4_);}
	.st12{fill:url(#SVGID_5_);}
	.st13{fill:url(#SVGID_6_);}
	.st14{fill:#FFFFFF;}
	.st15{fill:url(#SVGID_7_);}
	.st16{fill:#E6007E;}
	.st17{fill:url(#SVGID_8_);}
	.st18{fill:#6C6C6C;}
	.st19{fill:url(#SVGID_9_);}
	.st20{fill:#FAFAFA;}
	.st21{fill:url(#SVGID_10_);}
	.st22{fill:none;stroke:url(#SVGID_11_);stroke-width:5;stroke-linecap:round;stroke-miterlimit:10;}
	.st23{fill:none;stroke:url(#SVGID_12_);stroke-width:5;stroke-linecap:round;stroke-miterlimit:10;}
	.st24{fill:none;stroke:url(#SVGID_13_);stroke-width:5;stroke-linecap:round;stroke-miterlimit:10;}
	.st25{fill:none;stroke:url(#SVGID_14_);stroke-width:1.2489;stroke-linecap:round;stroke-miterlimit:10;}
	.st26{fill:none;stroke:url(#SVGID_15_);stroke-width:7;stroke-linecap:round;stroke-miterlimit:10;}
	.st27{fill:#133E20;}
	.st28{fill:url(#SVGID_16_);}
	.st29{fill:url(#SVGID_17_);}
	.st30{fill:url(#SVGID_18_);}
	.st31{fill:url(#SVGID_19_);}
	.st32{fill:none;stroke:url(#SVGID_20_);stroke-width:2;stroke-miterlimit:10;}
	.st33{fill:none;stroke:url(#SVGID_21_);stroke-width:2;stroke-miterlimit:10;}
	.st34{fill:none;stroke:url(#SVGID_22_);stroke-width:2;stroke-miterlimit:10;}
	.st35{fill:none;stroke:url(#SVGID_23_);stroke-width:2;stroke-miterlimit:10;}
	.st36{fill:url(#SVGID_24_);}
	.st37{fill:none;stroke:url(#SVGID_25_);stroke-width:2;stroke-miterlimit:10;}
	.st38{fill:none;stroke:url(#SVGID_26_);stroke-width:2;stroke-miterlimit:10;}
	.st39{fill:none;stroke:url(#SVGID_27_);stroke-width:2;stroke-miterlimit:10;}
	.st40{fill:url(#SVGID_28_);}
	.st41{fill:url(#SVGID_29_);}
	.st42{fill:url(#SVGID_30_);}
	.st43{fill:none;stroke:url(#SVGID_31_);stroke-width:2;stroke-miterlimit:10;}
	.st44{fill:none;stroke:url(#SVGID_32_);stroke-width:2;stroke-miterlimit:10;}
	.st45{fill:none;stroke:url(#SVGID_33_);stroke-width:2;stroke-miterlimit:10;}
	.st46{fill:none;stroke:url(#SVGID_34_);stroke-width:2;stroke-miterlimit:10;}
	.st47{fill:none;stroke:url(#SVGID_35_);stroke-width:2;stroke-miterlimit:10;}
	.st48{fill:none;stroke:url(#SVGID_36_);stroke-width:2;stroke-miterlimit:10;}
	.st49{fill:url(#SVGID_37_);}
	.st50{fill:url(#SVGID_38_);}
	.st51{fill:url(#SVGID_39_);}
	.st52{fill:url(#SVGID_40_);}
	.st53{fill:url(#SVGID_41_);}
	.st54{fill:none;stroke:url(#SVGID_42_);stroke-width:2;stroke-miterlimit:10;}
	.st55{fill:none;stroke:url(#SVGID_43_);stroke-width:2;stroke-miterlimit:10;}
	.st56{fill:none;stroke:url(#SVGID_44_);stroke-width:2;stroke-miterlimit:10;}
	.st57{fill:none;stroke:url(#SVGID_45_);stroke-width:2;stroke-miterlimit:10;}
	.st58{fill:url(#SVGID_46_);}
	.st59{fill:none;stroke:url(#SVGID_47_);stroke-width:2;stroke-miterlimit:10;}
	.st60{fill:none;stroke:url(#SVGID_48_);stroke-width:2;stroke-miterlimit:10;}
	.st61{fill:none;stroke:url(#SVGID_49_);stroke-width:2;stroke-miterlimit:10;}
	.st62{fill:url(#SVGID_50_);}
	.st63{fill:url(#SVGID_51_);}
	.st64{fill:url(#SVGID_52_);}
	.st65{fill:none;stroke:url(#SVGID_53_);stroke-width:2;stroke-miterlimit:10;}
	.st66{fill:none;stroke:url(#SVGID_54_);stroke-width:2;stroke-miterlimit:10;}
	.st67{fill:none;stroke:url(#SVGID_55_);stroke-width:2;stroke-miterlimit:10;}
	.st68{fill:none;stroke:url(#SVGID_56_);stroke-width:2;stroke-miterlimit:10;}
	.st69{fill:none;stroke:url(#SVGID_57_);stroke-width:2;stroke-miterlimit:10;}
	.st70{fill:none;stroke:url(#SVGID_58_);stroke-width:2;stroke-miterlimit:10;}
	.st71{fill:url(#SVGID_59_);}
	.st72{fill:none;stroke:url(#SVGID_60_);stroke-width:5;stroke-miterlimit:10;}
	.st73{fill:url(#SVGID_61_);}
	.st74{fill:url(#SVGID_62_);}
	.st75{fill:url(#SVGID_63_);}
	.st76{fill:none;stroke:#6EC6D9;stroke-width:2;stroke-miterlimit:10;}
	.st77{fill:#6EC6D9;}
	.st78{fill:url(#SVGID_64_);}
	.st79{fill:url(#SVGID_65_);}
	.st80{opacity:0.53;fill:#5288BC;}
	.st81{fill:#1C2537;}
	.st82{clip-path:url(#SVGID_67_);}
	.st83{fill:#285587;}
	.st84{fill:#BECFD4;stroke:#020203;stroke-width:0.3263;stroke-miterlimit:10;}
	.st85{fill:#E8E8E8;}
	.st86{fill:none;stroke:#020203;stroke-width:0.2447;stroke-miterlimit:10;}
	.st87{fill:#1883BE;}
	.st88{fill:none;stroke:#020203;stroke-width:0.3263;stroke-miterlimit:10;}
	.st89{fill:#0F1526;}
	.st90{opacity:0.6;fill:#16253B;}
	.st91{opacity:0.6;}
	.st92{fill:#16253B;}
	.st93{clip-path:url(#SVGID_69_);}
	.st94{fill:#BECFD4;}
	.st95{fill:none;stroke:#020203;stroke-width:0.3263;stroke-linecap:round;stroke-miterlimit:10;}
	.st96{opacity:0.25;}
	.st97{fill:#2A80C3;stroke:#FFFFFF;stroke-width:0.9;stroke-linecap:round;stroke-miterlimit:10;}
	.st98{fill:none;stroke:#FFFFFF;stroke-width:0.8694;stroke-linecap:round;stroke-miterlimit:10;}
	.st99{fill:#64C7F2;}
	.st100{fill:none;stroke:#64C7F2;stroke-width:18;stroke-miterlimit:10;}
	.st101{fill:none;stroke:#64C7F2;stroke-width:18;stroke-linecap:round;stroke-miterlimit:10;}
</style>
<g id="Layer_2">
</g>
<g id="Layer_1">
	
		<linearGradient id="SVGID_1_" gradientUnits="userSpaceOnUse" x1="-41.8529" y1="33.8781" x2="109.2907" y2="33.8781" gradientTransform="matrix(-1 0 0 1 29.3378 0)">
		<stop  offset="0" style="stop-color:#E6007E"/>
		<stop  offset="7.380247e-03" style="stop-color:#E6107F"/>
		<stop  offset="4.767627e-02" style="stop-color:#EB5684"/>
		<stop  offset="9.308982e-02" style="stop-color:#F08182"/>
		<stop  offset="0.1419" style="stop-color:#F4A078"/>
		<stop  offset="0.195" style="stop-color:#F9B765"/>
		<stop  offset="0.2537" style="stop-color:#FDC94E"/>
		<stop  offset="0.32" style="stop-color:#FFD730"/>
		<stop  offset="0.3974" style="stop-color:#FFE100"/>
		<stop  offset="0.4931" style="stop-color:#FFE800"/>
		<stop  offset="0.6274" style="stop-color:#FFEC00"/>
		<stop  offset="1" style="stop-color:#FFED00"/>
	</linearGradient>
	<path style="fill:url(#SVGID_1_);" d="M0.6,19.2v19.4l3.8,3.8H37l-1.7,3c-0.1,0-0.3-0.1-0.4-0.1H21.8c-0.4-0.6-1-1-1.8-1
		c-1.1,0-2.1,0.9-2.1,2.1c0,1.1,0.9,2.1,2.1,2.1c0.7,0,1.4-0.4,1.8-1H34l-1.7,2.9H15.9l-4-4c0.2-0.7,0-1.4-0.6-1.9
		c-0.8-0.8-2.1-0.8-2.9,0c-0.8,0.8-0.8,2.1,0,2.9C9,48,9.7,48.2,10.4,48l4.6,4.6h6.2l-3.1,5.2c-0.7,0-1.4,0.4-1.7,1
		c-0.6,1-0.2,2.3,0.7,2.8c1,0.6,2.3,0.2,2.8-0.7c0.4-0.6,0.4-1.4,0-2l3.7-6.3h3.4l-3.1,5.2c-0.7,0-1.4,0.4-1.7,1
		c-0.6,1-0.2,2.3,0.7,2.8c1,0.6,2.3,0.2,2.8-0.7c0.4-0.6,0.4-1.4,0-2l3.7-6.3h3.8l6-10.2H44l5.7-2.8c0,0,0.1,0,0.1-0.1L63.6,33V22
		L47.3,5.7H14.1l-4,4c0,0,0,0,0,0c0,0,0,0,0,0L0.6,19.2z M48.5,10c-0.2,0.2-0.4,0.3-0.5,0.6H32.4l-2.6-2.6h16.7L48.5,10z M2.8,20.1
		l2.4-2.4L9.5,22c-0.2,0.7,0,1.4,0.6,1.9c0.8,0.8,2.1,0.8,2.9,0c0.8-0.8,0.8-2.1,0-2.9c-0.5-0.5-1.3-0.7-1.9-0.6l-4.3-4.3l4.1-4.1
		l10.6,10.6h23.1l1.3,1.3c-0.2,0.7,0,1.4,0.6,1.9c0.8,0.8,2.1,0.8,2.9,0c0.8-0.8,0.8-2.1,0-2.9c-0.5-0.5-1.3-0.7-1.9-0.6l-1.9-1.9
		H22.4l-9.9-9.9L15,7.9h0.8l9.6,9.6h23.4l1.4,1.4c-0.2,0.7,0,1.4,0.6,1.9c0.8,0.8,2.1,0.8,2.9,0c0.8-0.8,0.8-2.1,0-2.9
		c-0.5-0.5-1.3-0.7-1.9-0.6l-2.1-2.1H26.4l-7.4-7.4h7.7l4.9,4.9H48c0.4,0.6,1,1,1.8,1c0.7,0,1.3-0.3,1.7-0.8l10,10v8.6l-8.2,4
		L50.6,33v-2.1l3.6-3.6h1.6c0.4,0.6,1,1,1.8,1c1.1,0,2.1-0.9,2.1-2.1c0-1.1-0.9-2.1-2.1-2.1c-0.7,0-1.4,0.4-1.8,1h-2.6l-4.9,4.9v4
		l2.7,2.7l-1.6,0.8L37.8,25.6H18.1c-0.4-0.6-1-1-1.8-1c-1.1,0-2.1,0.9-2.1,2.1s0.9,2.1,2.1,2.1c0.7,0,1.4-0.4,1.8-1h18.8l10.5,10.5
		l-4,1.9l-9.6-9.6H10.4L9,29.2c0.2-0.7,0-1.4-0.6-1.9c-0.8-0.8-2.1-0.8-2.9,0c-0.8,0.8-0.8,2.1,0,2.9c0.5,0.5,1.3,0.7,1.9,0.6
		l2.1,2.1h23.4l7.4,7.4h-7.7l-4.8-4.8H11.3c-0.4-0.6-1-1-1.8-1c-1.1,0-2.1,0.9-2.1,2.1c0,1.1,0.9,2.1,2.1,2.1c0.7,0,1.4-0.4,1.8-1
		h15.6l2.6,2.6H5.3l-2.5-2.5V20.1z"/>
</g>
<g id="Layer_3_5_">
</g>
</svg>
