<?xml version="1.0" encoding="utf-8"?>
<!-- Generator: Adobe Illustrator 24.3.0, SVG Export Plug-In . SVG Version: 6.00 Build 0)  -->
<svg version="1.1" xmlns="http://www.w3.org/2000/svg" xmlns:xlink="http://www.w3.org/1999/xlink" x="0px" y="0px"
	 viewBox="0 0 16 16" style="enable-background:new 0 0 16 16;" xml:space="preserve">
<style type="text/css">
	.st0{fill:#2A80C3;}
	.st1{fill:#020203;}
	.st2{fill:#E0E0E0;}
	.st3{fill:none;stroke:#FFFFFF;stroke-width:0.9012;stroke-linecap:round;stroke-miterlimit:10;}
	.st4{fill:#999999;stroke:#020203;stroke-miterlimit:10;}
	.st5{fill:none;stroke:url(#SVGID_1_);stroke-width:7;stroke-linecap:round;stroke-miterlimit:10;}
	.st6{fill:#2A5688;stroke:#2A5688;stroke-width:0.2;stroke-miterlimit:10;}
	.st7{fill:url(#SVGID_2_);}
	.st8{fill:#010202;}
	.st9{fill:#2A5688;}
	.st10{fill:url(#SVGID_3_);}
	.st11{fill:url(#SVGID_4_);}
	.st12{fill:url(#SVGID_5_);}
	.st13{fill:url(#SVGID_6_);}
	.st14{fill:#FFFFFF;}
	.st15{fill:url(#SVGID_7_);}
	.st16{fill:#E6007E;}
	.st17{fill:url(#SVGID_8_);}
	.st18{fill:#6C6C6C;}
	.st19{fill:url(#SVGID_9_);}
	.st20{fill:#FAFAFA;}
	.st21{fill:url(#SVGID_10_);}
	.st22{fill:none;stroke:url(#SVGID_11_);stroke-width:5;stroke-linecap:round;stroke-miterlimit:10;}
	.st23{fill:none;stroke:url(#SVGID_12_);stroke-width:5;stroke-linecap:round;stroke-miterlimit:10;}
	.st24{fill:none;stroke:url(#SVGID_13_);stroke-width:5;stroke-linecap:round;stroke-miterlimit:10;}
	.st25{fill:none;stroke:url(#SVGID_14_);stroke-width:1.2489;stroke-linecap:round;stroke-miterlimit:10;}
	.st26{fill:none;stroke:url(#SVGID_15_);stroke-width:7;stroke-linecap:round;stroke-miterlimit:10;}
	.st27{fill:#133E20;}
	.st28{fill:url(#SVGID_16_);}
	.st29{fill:url(#SVGID_17_);}
	.st30{fill:url(#SVGID_18_);}
	.st31{fill:url(#SVGID_19_);}
	.st32{fill:none;stroke:url(#SVGID_20_);stroke-width:2;stroke-miterlimit:10;}
	.st33{fill:none;stroke:url(#SVGID_21_);stroke-width:2;stroke-miterlimit:10;}
	.st34{fill:none;stroke:url(#SVGID_22_);stroke-width:2;stroke-miterlimit:10;}
	.st35{fill:none;stroke:url(#SVGID_23_);stroke-width:2;stroke-miterlimit:10;}
	.st36{fill:url(#SVGID_24_);}
	.st37{fill:none;stroke:url(#SVGID_25_);stroke-width:2;stroke-miterlimit:10;}
	.st38{fill:none;stroke:url(#SVGID_26_);stroke-width:2;stroke-miterlimit:10;}
	.st39{fill:none;stroke:url(#SVGID_27_);stroke-width:2;stroke-miterlimit:10;}
	.st40{fill:url(#SVGID_28_);}
	.st41{fill:url(#SVGID_29_);}
	.st42{fill:url(#SVGID_30_);}
	.st43{fill:none;stroke:url(#SVGID_31_);stroke-width:2;stroke-miterlimit:10;}
	.st44{fill:none;stroke:url(#SVGID_32_);stroke-width:2;stroke-miterlimit:10;}
	.st45{fill:none;stroke:url(#SVGID_33_);stroke-width:2;stroke-miterlimit:10;}
	.st46{fill:none;stroke:url(#SVGID_34_);stroke-width:2;stroke-miterlimit:10;}
	.st47{fill:none;stroke:url(#SVGID_35_);stroke-width:2;stroke-miterlimit:10;}
	.st48{fill:none;stroke:url(#SVGID_36_);stroke-width:2;stroke-miterlimit:10;}
	.st49{fill:url(#SVGID_37_);}
	.st50{fill:url(#SVGID_38_);}
	.st51{fill:url(#SVGID_39_);}
	.st52{fill:url(#SVGID_40_);}
	.st53{fill:url(#SVGID_41_);}
	.st54{fill:none;stroke:url(#SVGID_42_);stroke-width:2;stroke-miterlimit:10;}
	.st55{fill:none;stroke:url(#SVGID_43_);stroke-width:2;stroke-miterlimit:10;}
	.st56{fill:none;stroke:url(#SVGID_44_);stroke-width:2;stroke-miterlimit:10;}
	.st57{fill:none;stroke:url(#SVGID_45_);stroke-width:2;stroke-miterlimit:10;}
	.st58{fill:url(#SVGID_46_);}
	.st59{fill:none;stroke:url(#SVGID_47_);stroke-width:2;stroke-miterlimit:10;}
	.st60{fill:none;stroke:url(#SVGID_48_);stroke-width:2;stroke-miterlimit:10;}
	.st61{fill:none;stroke:url(#SVGID_49_);stroke-width:2;stroke-miterlimit:10;}
	.st62{fill:url(#SVGID_50_);}
	.st63{fill:url(#SVGID_51_);}
	.st64{fill:url(#SVGID_52_);}
	.st65{fill:none;stroke:url(#SVGID_53_);stroke-width:2;stroke-miterlimit:10;}
	.st66{fill:none;stroke:url(#SVGID_54_);stroke-width:2;stroke-miterlimit:10;}
	.st67{fill:none;stroke:url(#SVGID_55_);stroke-width:2;stroke-miterlimit:10;}
	.st68{fill:none;stroke:url(#SVGID_56_);stroke-width:2;stroke-miterlimit:10;}
	.st69{fill:none;stroke:url(#SVGID_57_);stroke-width:2;stroke-miterlimit:10;}
	.st70{fill:none;stroke:url(#SVGID_58_);stroke-width:2;stroke-miterlimit:10;}
	.st71{fill:url(#SVGID_59_);}
	.st72{fill:none;stroke:url(#SVGID_60_);stroke-width:5;stroke-miterlimit:10;}
	.st73{fill:url(#SVGID_61_);}
	.st74{fill:url(#SVGID_62_);}
	.st75{fill:url(#SVGID_63_);}
	.st76{fill:none;stroke:#6EC6D9;stroke-width:2;stroke-miterlimit:10;}
	.st77{fill:#6EC6D9;}
	.st78{fill:url(#SVGID_64_);}
	.st79{fill:url(#SVGID_65_);}
	.st80{opacity:0.53;fill:#5288BC;}
	.st81{fill:#1C2537;}
	.st82{clip-path:url(#SVGID_67_);}
	.st83{fill:#285587;}
	.st84{fill:#BECFD4;stroke:#020203;stroke-width:0.3263;stroke-miterlimit:10;}
	.st85{fill:#E8E8E8;}
	.st86{fill:none;stroke:#020203;stroke-width:0.2447;stroke-miterlimit:10;}
	.st87{fill:#1883BE;}
	.st88{fill:none;stroke:#020203;stroke-width:0.3263;stroke-miterlimit:10;}
	.st89{fill:#0F1526;}
	.st90{opacity:0.6;fill:#16253B;}
	.st91{opacity:0.6;}
	.st92{fill:#16253B;}
	.st93{clip-path:url(#SVGID_69_);}
	.st94{fill:#BECFD4;}
	.st95{fill:none;stroke:#020203;stroke-width:0.3263;stroke-linecap:round;stroke-miterlimit:10;}
	.st96{opacity:0.25;}
	.st97{fill:#2A80C3;stroke:#FFFFFF;stroke-width:0.9;stroke-linecap:round;stroke-miterlimit:10;}
	.st98{fill:none;stroke:#FFFFFF;stroke-width:0.8694;stroke-linecap:round;stroke-miterlimit:10;}
	.st99{fill:#64C7F2;}
	.st100{fill:none;stroke:#64C7F2;stroke-width:18;stroke-miterlimit:10;}
	.st101{fill:none;stroke:#64C7F2;stroke-width:18;stroke-linecap:round;stroke-miterlimit:10;}
</style>
<g id="Layer_2">
</g>
<g id="Layer_1">
	
		<linearGradient id="SVGID_1_" gradientUnits="userSpaceOnUse" x1="-137.163" y1="8" x2="-98.824" y2="8" gradientTransform="matrix(-1 0 0 1 -119.2501 0)">
		<stop  offset="0" style="stop-color:#E6007E"/>
		<stop  offset="7.380247e-03" style="stop-color:#E6107F"/>
		<stop  offset="4.767627e-02" style="stop-color:#EB5684"/>
		<stop  offset="9.308982e-02" style="stop-color:#F08182"/>
		<stop  offset="0.1419" style="stop-color:#F4A078"/>
		<stop  offset="0.195" style="stop-color:#F9B765"/>
		<stop  offset="0.2537" style="stop-color:#FDC94E"/>
		<stop  offset="0.32" style="stop-color:#FFD730"/>
		<stop  offset="0.3974" style="stop-color:#FFE100"/>
		<stop  offset="0.4931" style="stop-color:#FFE800"/>
		<stop  offset="0.6274" style="stop-color:#FFEC00"/>
		<stop  offset="1" style="stop-color:#FFED00"/>
	</linearGradient>
	<path style="fill:url(#SVGID_1_);" d="M0,4.3l0,4.9l1,1h8.3l-0.4,0.8c0,0-0.1,0-0.1,0H5.4c-0.1-0.1-0.3-0.2-0.4-0.2
		c-0.3,0-0.5,0.2-0.5,0.5c0,0.3,0.2,0.5,0.5,0.5c0.2,0,0.4-0.1,0.4-0.2h3.1L8,12.2H3.9l-1-1c0-0.2,0-0.4-0.1-0.5
		c-0.2-0.2-0.5-0.2-0.7,0c-0.2,0.2-0.2,0.5,0,0.7c0.1,0.1,0.3,0.2,0.5,0.1l1.2,1.2h1.6l-0.8,1.3c-0.2,0-0.3,0.1-0.4,0.3
		c-0.1,0.3-0.1,0.6,0.2,0.7c0.3,0.1,0.6,0.1,0.7-0.2c0.1-0.2,0.1-0.4,0-0.5l0.9-1.6h0.9L6,14.1c-0.2,0-0.3,0.1-0.4,0.3
		c-0.1,0.3-0.1,0.6,0.2,0.7c0.3,0.1,0.6,0.1,0.7-0.2c0.1-0.2,0.1-0.4,0-0.5l0.9-1.6h1l1.5-2.6H11l1.4-0.7c0,0,0,0,0,0L16,7.8V5
		l-4.1-4.1H3.4l-1,1c0,0,0,0,0,0c0,0,0,0,0,0L0,4.3z M12.2,2C12.1,2,12.1,2,12,2.1h-4L7.4,1.4h4.2L12.2,2z M0.6,4.5l0.6-0.6L2.3,5
		c0,0.2,0,0.4,0.1,0.5c0.2,0.2,0.5,0.2,0.7,0c0.2-0.2,0.2-0.5,0-0.7C3,4.6,2.8,4.6,2.6,4.6L1.6,3.5l1.1-1.1l2.7,2.7h5.9l0.3,0.3
		c0,0.2,0,0.4,0.1,0.5c0.2,0.2,0.5,0.2,0.7,0c0.2-0.2,0.2-0.5,0-0.7C12.2,5.1,12,5,11.9,5.1l-0.5-0.5H5.5L3,2.1l0.6-0.6h0.2l2.4,2.4
		h5.9l0.4,0.4c0,0.2,0,0.4,0.1,0.5c0.2,0.2,0.5,0.2,0.7,0c0.2-0.2,0.2-0.5,0-0.7c-0.1-0.1-0.3-0.2-0.5-0.1l-0.5-0.5H6.5L4.7,1.4h1.9
		l1.2,1.2H12c0.1,0.1,0.3,0.2,0.4,0.2c0.2,0,0.3-0.1,0.4-0.2l2.5,2.5v2.2l-2.1,1l-0.7-0.7V7.2l0.9-0.9H14c0.1,0.1,0.3,0.2,0.4,0.2
		C14.8,6.6,15,6.3,15,6s-0.2-0.5-0.5-0.5c-0.2,0-0.4,0.1-0.4,0.2h-0.6L12.1,7v1l0.7,0.7l-0.4,0.2l-3-3h-5C4.4,5.8,4.2,5.7,4,5.7
		c-0.3,0-0.5,0.2-0.5,0.5S3.7,6.7,4,6.7c0.2,0,0.4-0.1,0.4-0.2h4.8l2.7,2.7l-1,0.5L8.4,7.2H2.5L2.1,6.8c0-0.2,0-0.4-0.1-0.5
		c-0.2-0.2-0.5-0.2-0.7,0c-0.2,0.2-0.2,0.5,0,0.7c0.1,0.1,0.3,0.2,0.5,0.1l0.5,0.5h5.9l1.9,1.9H8.1L6.9,8.4H2.7
		C2.6,8.2,2.5,8.1,2.3,8.1C2,8.1,1.7,8.4,1.7,8.7C1.7,9,2,9.2,2.3,9.2c0.2,0,0.4-0.1,0.4-0.2h4l0.7,0.7H1.2L0.6,9V4.5z"/>
</g>
<g id="Layer_3_5_">
</g>
</svg>
