<?xml version="1.0" encoding="UTF-8"?>
<svg id="Layer_1" data-name="Layer 1" xmlns="http://www.w3.org/2000/svg" xmlns:xlink="http://www.w3.org/1999/xlink" viewBox="0 0 64 64">
  <defs>
    <style>
      .cls-1 {
        fill: #ffccbc;
      }

      .cls-2 {
        fill: url(#linear-gradient-2);
      }

      .cls-3 {
        fill: url(#radial-gradient);
      }

      .cls-4 {
        fill: gray;
      }

      .cls-5 {
        fill: #f38390;
      }

      .cls-6 {
        fill: #d91a35;
      }

      .cls-7 {
        fill: url(#radial-gradient-2);
      }

      .cls-8 {
        fill: url(#New_Gradient_Swatch_1);
      }

      .cls-9 {
        fill: #1a1a1a;
      }

      .cls-10 {
        fill: url(#linear-gradient);
      }
    </style>
    <linearGradient id="linear-gradient" x1="6.8608" y1="34.6876" x2="53.0163" y2="34.6876" gradientUnits="userSpaceOnUse">
      <stop offset=".5186" stop-color="#fff"/>
      <stop offset=".9402" stop-color="#b3b3b3"/>
    </linearGradient>
    <radialGradient id="radial-gradient" cx="19.9731" cy="33.3516" fx="19.9731" fy="33.3516" r="7.586" gradientTransform="translate(-10.4896) scale(1.3743 1)" gradientUnits="userSpaceOnUse">
      <stop offset="0" stop-color="#ed3b79" stop-opacity=".7"/>
      <stop offset=".441" stop-color="#f481a3" stop-opacity=".4011"/>
      <stop offset="1" stop-color="#ffe1dc" stop-opacity="0"/>
    </radialGradient>
    <radialGradient id="radial-gradient-2" cx="38.8267" fx="38.8267" r="7.586" xlink:href="#radial-gradient"/>
    <linearGradient id="linear-gradient-2" x1="5.803" y1="21.4286" x2="54.758" y2="21.4286" xlink:href="#linear-gradient"/>
    <radialGradient id="New_Gradient_Swatch_1" data-name="New Gradient Swatch 1" cx="50.4267" cy="23.4584" fx="50.4267" fy="23.4584" r="6.4801" gradientTransform="translate(-2.6748) scale(1.0697 1)" gradientUnits="userSpaceOnUse">
      <stop offset=".0904" stop-color="#f2f2f2"/>
      <stop offset=".4768" stop-color="#f0f0f0"/>
      <stop offset=".6341" stop-color="#e8e8e8"/>
      <stop offset=".7497" stop-color="#dcdcdc"/>
      <stop offset=".8449" stop-color="#cbcbcb"/>
      <stop offset=".9266" stop-color="#b4b4b4"/>
      <stop offset=".9994" stop-color="#999"/>
      <stop offset="1" stop-color="#999"/>
    </radialGradient>
  </defs>
  <path class="cls-6" d="m61.2296,23.4593c0-2.4143-.9744-4.726-2.7101-6.4834C55.687,7.372,44.9056.5,32.4358.5,19.8477.5,9.1609,7.3582,6.3482,17.0114c-1.6016.9941-2.789,2.5405-3.2979,4.3177-.5503,1.933-.284,3.9567.7535,5.7004.2998.5049.6608.9665,1.0809,1.3807-1.4754,3.7457-1.6135,7.9056-.359,11.953,1.8048,5.8227,7.4499,14.4423,24.0895,22.4504l1.4241.6864,1.3768-.7771c16.7323-9.4244,25.5688-20.7225,24.3538-30.8136,3.2585-1.5819,5.4597-4.8128,5.4597-8.45Z"/>
  <path class="cls-10" d="m51.4046,27.6143c4.9356,8.4091-1.2701,21.1831-21.308,32.4694C6.6442,48.7974,4.152,35.6908,8.7885,27.6143c0-10.1282,9.5213-18.3229,21.308-18.3229s21.308,8.1947,21.308,18.3229Z"/>
  <path class="cls-1" d="m37.104,42.2636l-7.1431-3.8376-7.1879,3.8376c-7.0815,0-12.8754-5.4162-12.8754-12.036h0c0-6.6198,5.7939-12.0361,12.8754-12.0361h14.331c7.0815,0,12.8754,5.4162,12.8754,12.036h0c0,6.6198-5.7939,12.0361-12.8754,12.0361Z"/>
  <ellipse class="cls-5" cx="29.9268" cy="33.215" rx="4.4699" ry="2.6535"/>
  <ellipse class="cls-3" cx="16.9601" cy="33.3516" rx="12.3384" ry="5.8733"/>
  <ellipse class="cls-7" cx="42.8712" cy="33.3516" rx="12.3384" ry="5.8733"/>
  <path class="cls-4" d="m29.9196,35.8017c1.5509-2.7228,6.2793-5.4103,9.1542,2.6875,0,.0354.0378.1061.0378.1414.3404.9901.9079,1.7327,1.6266,2.2985,1.7022,1.3437,4.3123,1.662,6.8467.8487,0,0-2.7614,5.6578-9.6081,5.481-4.9554-.1414-7.3763-2.9703-8.0572-6.3297-.6431,3.3593-3.064,6.1882-8.0572,6.3297-6.8089.1768-9.5703-5.481-9.5703-5.481,2.5723.8133,5.1445.4951,6.8089-.8487.7187-.5658,1.324-1.3084,1.6266-2.2985,0-.0354.0378-.1061.0378-.1414,2.9127-8.0977,7.6411-5.4103,9.1542-2.6875Z"/>
  <ellipse class="cls-9" cx="20.0028" cy="30.5698" rx="3.0903" ry="2.8889"/>
  <ellipse class="cls-9" cx="39.8743" cy="30.5698" rx="3.0903" ry="2.8889"/>
  <path class="cls-6" d="m32.4358,19.5452c9.791,0,18.4325,1.4889,23.706,3.764.043-.4522.089-.9039.089-1.3645,0-10.1703-10.6534-18.415-23.7951-18.415S8.6409,11.7743,8.6409,21.9447c0,.4606.0461.9121.089,1.3643,5.2733-2.2751,13.9149-3.7638,23.7058-3.7638Z"/>
  <path class="cls-2" d="m49.9757,27.7762c-.7859,0-1.5826-.1811-2.3182-.5636-3.8003-1.9742-10.4606-3.202-17.3776-3.202s-13.5773,1.2278-17.3794,3.202c-2.2985,1.1993-5.2142.4227-6.4953-1.7343-1.2811-2.1553-.4522-4.8742,1.8553-6.0718,5.2913-2.7491,13.3171-4.3258,22.0194-4.3258s16.728,1.5767,22.0212,4.3258c2.3039,1.1976,3.1364,3.9165,1.8553,6.0718-.8756,1.4693-2.5012,2.2979-4.1807,2.2979Z"/>
  <ellipse class="cls-8" cx="51.2687" cy="23.4584" rx="6.932" ry="6.4801"/>
</svg>