<?xml version="1.0" encoding="UTF-8" standalone="no"?>
<!DOCTYPE svg PUBLIC "-//W3C//DTD SVG 1.1//EN" "http://www.w3.org/Graphics/SVG/1.1/DTD/svg11.dtd">
<svg width="100%" height="100%" viewBox="0 0 64 64" version="1.1" xmlns="http://www.w3.org/2000/svg" xmlns:xlink="http://www.w3.org/1999/xlink" xml:space="preserve" xmlns:serif="http://www.serif.com/" style="fill-rule:evenodd;clip-rule:evenodd;stroke-linejoin:round;stroke-miterlimit:2;">
    <path d="M50.365,7.268C46.961,2.947 41.854,0.296 36.362,-0C37.855,2.291 38.131,5.175 37.098,7.708C37.04,7.846 36.979,7.983 36.915,8.119C35.292,7.831 33.647,7.685 31.999,7.683C16.429,7.683 3.805,20.29 3.805,35.846C3.805,51.401 16.429,64 31.999,64C47.57,64 60.195,51.393 60.195,35.846C60.202,29.699 58.185,23.718 54.456,18.831C54.403,14.632 52.964,10.566 50.365,7.268Z" style="fill:rgb(255,205,0);fill-rule:nonzero;"/>
    <g transform="matrix(0.165187,0,0,0.165187,3.80507,-1.06581e-14)">
        <path d="M228.05,38.79C233.214,55.211 226.476,73.181 211.79,82.16C210.94,82.67 210.09,83.16 209.22,83.59C195.143,79.156 180.469,76.907 165.71,76.92C85.85,76.92 21.1,141.58 21.1,221.35C21.1,301.12 85.85,365.77 165.71,365.77C245.57,365.77 310.32,301.11 310.32,221.35C310.371,183.421 295.42,146.969 268.75,120C276.869,86.757 259.541,52.182 228.05,38.79ZM78.94,293.79C32.32,259 38,194.51 54,193.71C55.058,193.75 56.104,193.952 57.1,194.31C73.4,203.31 108.1,271.9 109.94,289.87C112.06,310.07 93.08,304.32 78.94,293.78L78.94,293.79ZM245.16,211.28C244.58,271.28 169.77,327.68 144.56,300C120.79,273.92 174.76,188.39 220.56,179.59C243,178.49 245.25,201.38 245.16,211.27L245.16,211.28Z" style="fill:rgb(15,15,15);fill-rule:nonzero;"/>
    </g>
</svg>
