<?xml version="1.0" encoding="utf-8"?>
<!-- Generator: Adobe Illustrator 22.0.1, SVG Export Plug-In . SVG Version: 6.00 Build 0)  -->
<svg version="1.1" id="Layer_1" xmlns="http://www.w3.org/2000/svg" xmlns:xlink="http://www.w3.org/1999/xlink" x="0px" y="0px"
	 viewBox="0 0 16 16" style="enable-background:new 0 0 16 16;" xml:space="preserve">
<style type="text/css">
	.st0{fill:#FFFFFF;}
	.st1{fill:#E73C30;}
	.st2{fill:#FBD645;}
	.st3{fill:#706F6F;}
</style>
<g>
	<polygon class="st0" points="12,1.1 4,1.1 0,8 4,14.9 12,14.9 16,8 	"/>
	<g>
		<path class="st1" d="M2.9,4h4.8v1.6H4.9v1.1h2.7v1.6H4.9v1.2h2.7c0,0,0,1.2,1.3,1.6H2.9V4z"/>
		<path class="st2" d="M8.3,4h5l-1.2,2.8c0,0,1.3,0.7,1.2,2.2s-1.3,2.2-2.2,2.2s-2.1,0-2.8-1.6l1.5-0.7c0,0,0.2,0.7,1,0.7
			c0.8,0,0.9-0.8,0.9-0.8s0-0.9-0.8-1L9.8,7.6l1.2-2l-2.8,0V4z"/>
	</g>
	<g>
		<path class="st3" d="M4.4,13.5l0.9-0.6c0.1-0.1,0.2-0.2,0.2-0.3c0-0.1-0.1-0.2-0.2-0.2S5,12.6,4.8,12.8l-0.5-0.4
			c0.2-0.3,0.5-0.5,0.9-0.5c0.5,0,0.8,0.3,0.8,0.7v0c0,0.3-0.2,0.5-0.4,0.6l-0.4,0.2h0.8V14H4.4V13.5z"/>
		<path class="st3" d="M6.4,13L6.4,13c0-0.6,0.4-1.1,1-1.1c0.6,0,1,0.5,1,1.1v0c0,0.6-0.4,1.1-1,1.1C6.8,14.1,6.4,13.6,6.4,13z
			 M7.7,13L7.7,13c0-0.3-0.1-0.5-0.3-0.5c-0.2,0-0.3,0.2-0.3,0.5v0c0,0.3,0.1,0.5,0.3,0.5C7.6,13.5,7.7,13.3,7.7,13z"/>
		<path class="st3" d="M9,12.5l-0.3,0.1l-0.1-0.5l0.6-0.2h0.5V14H9V12.5z"/>
		<path class="st3" d="M10.1,13.5L10.1,13.5c0-0.3,0.1-0.4,0.4-0.5c-0.2-0.1-0.3-0.2-0.3-0.5v0c0-0.3,0.3-0.6,0.8-0.6
			c0.5,0,0.8,0.2,0.8,0.6v0c0,0.2-0.1,0.4-0.3,0.5c0.2,0.1,0.4,0.2,0.4,0.5v0c0,0.4-0.4,0.6-0.9,0.6C10.4,14.1,10.1,13.8,10.1,13.5z
			 M11.2,13.4L11.2,13.4c0-0.1-0.1-0.2-0.2-0.2s-0.2,0.1-0.2,0.2v0c0,0.1,0.1,0.2,0.2,0.2C11.1,13.6,11.2,13.5,11.2,13.4z
			 M11.2,12.6L11.2,12.6c0-0.1-0.1-0.2-0.2-0.2c-0.1,0-0.2,0.1-0.2,0.2v0c0,0.1,0.1,0.2,0.2,0.2C11.1,12.8,11.2,12.7,11.2,12.6z"/>
	</g>
</g>
</svg>
