<?xml version="1.0" encoding="UTF-8" standalone="no"?>
<!DOCTYPE svg PUBLIC "-//W3C//DTD SVG 1.1//EN" "http://www.w3.org/Graphics/SVG/1.1/DTD/svg11.dtd">
<svg width="100%" height="100%" viewBox="0 0 16 16" version="1.1" xmlns="http://www.w3.org/2000/svg" xmlns:xlink="http://www.w3.org/1999/xlink" xml:space="preserve" xmlns:serif="http://www.serif.com/" style="fill-rule:evenodd;clip-rule:evenodd;stroke-linejoin:round;stroke-miterlimit:2;">
    <rect id="firework_a3" x="-0" y="0" width="16" height="16" style="fill:none;"/>
    <g>
        <path d="M8.737,10.349C9.517,9.296 10.503,8.471 11.487,7.858C13.202,6.79 14.797,6.428 14.797,6.428C15.279,6.225 15.505,5.669 15.302,5.187C15.099,4.705 14.543,4.479 14.061,4.682C14.061,4.682 12.518,5.598 10.967,7.217C10.135,8.084 9.29,9.109 8.737,10.349Z" style="fill:rgb(255,160,51);"/>
        <path d="M7.68,10.216C7.659,8.932 7.431,7.579 7.197,6.343C6.786,4.173 6.285,2.473 6.285,2.473C6.065,1.999 5.501,1.793 5.027,2.013C4.553,2.233 4.346,2.797 4.567,3.271C4.567,3.271 5.767,5.04 6.725,7.294C7.124,8.232 7.455,9.237 7.68,10.216Z" style="fill:rgb(255,160,51);"/>
        <path d="M6.076,11.247C5.332,10.808 4.604,10.529 3.939,10.281C2.543,9.76 1.547,9.609 1.547,9.609C1.025,9.644 0.63,10.096 0.666,10.618C0.701,11.14 1.154,11.534 1.675,11.499C1.675,11.499 2.511,11.167 3.814,11.097C4.499,11.061 5.253,11.103 6.076,11.247Z" style="fill:rgb(255,160,51);"/>
        <path d="M8.613,11.406C9.181,11.288 9.867,11.257 10.569,11.304C12.069,11.405 13.452,11.805 13.452,11.805C13.974,11.82 14.411,11.408 14.426,10.885C14.441,10.363 14.029,9.926 13.506,9.911C13.506,9.911 12.019,10.2 10.495,10.676C9.803,10.892 9.131,11.107 8.613,11.406Z" style="fill:rgb(255,160,51);"/>
        <path d="M6.63,10.139C6.103,8.675 5.524,7.673 5.022,6.914C3.964,5.312 3.074,4.96 3.074,4.96C2.574,4.807 2.044,5.089 1.891,5.589C1.738,6.089 2.02,6.619 2.52,6.772C2.52,6.772 3.39,6.808 4.711,7.966C5.302,8.483 5.93,9.182 6.63,10.139Z" style="fill:rgb(255,20,75);"/>
        <path d="M8.67,8.752C8.997,7.752 9.345,6.871 9.714,6.119C10.457,4.605 11.148,3.753 11.148,3.753C11.372,3.281 11.17,2.715 10.697,2.491C10.225,2.267 9.66,2.469 9.436,2.942C9.436,2.942 9.209,3.832 8.997,5.302C8.859,6.264 8.697,7.424 8.67,8.752Z" style="fill:rgb(255,20,75);"/>
        <path d="M6.595,12.246C5.711,12.113 4.83,12.238 4.013,12.391C2.513,12.672 1.404,13.173 1.404,13.173C0.979,13.477 0.882,14.07 1.186,14.495C1.491,14.92 2.083,15.017 2.508,14.712C2.508,14.712 3.37,13.653 4.733,12.906C5.304,12.593 5.93,12.361 6.595,12.246Z" style="fill:rgb(255,20,75);"/>
        <path d="M8.487,12.272C9.415,12.609 10.201,12.999 10.859,13.418C12.149,14.24 12.781,15.042 12.781,15.042C13.202,15.353 13.795,15.265 14.106,14.844C14.417,14.424 14.329,13.83 13.908,13.519C13.908,13.519 13.099,13.127 11.715,12.778C10.825,12.554 9.752,12.314 8.487,12.272Z" style="fill:rgb(255,20,75);"/>
        <path d="M4.322,4.853L2.761,1.871C2.597,1.668 2.299,1.635 2.095,1.799C1.892,1.963 1.86,2.262 2.024,2.465C2.024,2.465 2.736,3.077 3.46,3.843C3.769,4.171 4.064,4.524 4.322,4.853Z" style="fill:rgb(39,30,208);"/>
        <path d="M7.713,4.631C7.775,4.09 7.778,3.434 7.782,2.818C7.788,1.825 7.769,0.983 7.769,0.983C7.72,0.726 7.473,0.557 7.216,0.606C6.959,0.654 6.789,0.902 6.838,1.159C6.838,1.159 7.2,2.135 7.462,3.217C7.58,3.704 7.666,4.2 7.713,4.631Z" style="fill:rgb(39,30,208);"/>
        <path d="M11.201,5.608C11.506,5.228 12.028,4.735 12.602,4.262C13.705,3.354 14.948,2.528 14.948,2.528C15.147,2.358 15.17,2.058 15,1.86C14.829,1.661 14.53,1.638 14.332,1.809C14.332,1.809 13.307,2.922 12.379,4.038C11.899,4.616 11.443,5.179 11.201,5.608Z" style="fill:rgb(39,30,208);"/>
        <path d="M11.746,9.131C12.339,8.928 12.952,8.815 13.513,8.768C14.513,8.685 15.279,8.807 15.279,8.807C15.541,8.802 15.748,8.585 15.743,8.324C15.737,8.062 15.52,7.855 15.259,7.86C15.259,7.86 14.443,8.002 13.425,8.364C12.883,8.557 12.291,8.792 11.746,9.131Z" style="fill:rgb(39,30,208);"/>
        <path d="M6.922,12.57C6.183,12.902 5.724,13.259 5.397,13.569C4.772,14.162 4.723,14.612 4.723,14.612C4.709,15.091 4.938,15.286 5.199,15.265C5.459,15.244 5.654,15.016 5.633,14.755C5.633,14.755 5.496,14.329 5.943,13.636C6.152,13.313 6.462,12.963 6.922,12.57Z" style="fill:rgb(39,30,208);"/>
        <path d="M7.929,12.696C8.227,13.068 8.405,13.413 8.507,13.735C8.703,14.356 8.546,14.775 8.546,14.775C8.536,15.036 8.74,15.256 9.001,15.266C9.263,15.276 9.483,15.073 9.493,14.811L9.48,14.683C9.48,14.683 9.405,14.28 9.031,13.75C8.793,13.414 8.474,13.031 7.929,12.696Z" style="fill:rgb(39,30,208);"/>
        <path d="M4.741,9.76C4.186,9.248 3.595,8.818 3.062,8.448C2.025,7.727 1.212,7.301 1.212,7.301C0.966,7.212 0.694,7.34 0.605,7.586C0.516,7.831 0.643,8.103 0.889,8.192C0.889,8.192 1.751,8.361 2.866,8.811C3.459,9.051 4.106,9.371 4.741,9.76Z" style="fill:rgb(39,30,208);"/>
    </g>
</svg>
