<?xml version="1.0" encoding="UTF-8" standalone="no"?>
<!DOCTYPE svg PUBLIC "-//W3C//DTD SVG 1.1//EN" "http://www.w3.org/Graphics/SVG/1.1/DTD/svg11.dtd">
<svg width="100%" height="100%" viewBox="0 0 16 16" version="1.1" xmlns="http://www.w3.org/2000/svg" xmlns:xlink="http://www.w3.org/1999/xlink" xml:space="preserve" xmlns:serif="http://www.serif.com/" style="fill-rule:evenodd;clip-rule:evenodd;stroke-linejoin:round;stroke-miterlimit:2;">
    <g transform="matrix(0.0554652,0,0,0.057828,0.0115922,0.0215698)">
        <g transform="matrix(1,0,0,1,-5.87,-11.74)">
            <path d="M253.33,154.79C251.213,151.647 247.606,149.823 243.82,149.98L221.56,150.89C221.5,150.26 221.44,149.64 221.35,149C221.21,148 221.04,146.94 220.85,145.92L242.28,133.58L282.89,134.75C282.995,134.753 283.1,134.755 283.205,134.755C289.198,134.755 294.13,129.823 294.13,123.83C294.13,117.956 289.392,113.079 283.52,112.91L239.83,111.64C237.809,111.581 235.81,112.087 234.06,113.1L213.24,125.1C211.61,122.236 209.771,119.495 207.74,116.9L222.34,96L259.9,71.24C262.815,69.196 264.555,65.851 264.555,62.29C264.555,56.294 259.621,51.36 253.625,51.36C251.604,51.36 249.622,51.921 247.9,52.98L208.57,78.85C207.396,79.611 206.378,80.588 205.57,81.73L191.46,102C190.89,101.63 190.32,101.26 189.74,100.91L195.62,59.36C196.035,56.375 195.198,53.348 193.31,51L165,15.81C162.941,13.018 159.672,11.367 156.203,11.367C150.207,11.367 145.273,16.301 145.273,22.297C145.273,24.955 146.243,27.525 148,29.52L173.31,61L169.59,87.31C161.688,76.496 149.072,70.09 135.679,70.09C112.638,70.09 93.679,89.049 93.679,112.09C93.679,113.953 93.803,115.814 94.05,117.66C94.15,118.37 94.26,119.08 94.4,119.77L72.29,103.57L67.46,63.44C66.714,58.06 62.065,54.012 56.634,54.012C50.638,54.012 45.704,58.946 45.704,64.942C45.704,65.312 45.722,65.682 45.76,66.05L51.16,110.89C51.527,113.887 53.112,116.605 55.54,118.4L89.79,143.51C89.66,144.09 89.55,144.69 89.43,145.28L64.56,141.16C63.189,140.931 61.787,140.969 60.43,141.27L14.43,151.33C9.349,152.355 5.661,156.861 5.661,162.044C5.661,168.04 10.595,172.974 16.591,172.974C17.439,172.974 18.285,172.876 19.11,172.68L63.03,163.07L88.79,167.33C89.226,170.511 89.894,173.656 90.79,176.74L67.11,183.43C65.163,183.974 63.407,185.051 62.04,186.54L32.46,218.69C30.489,220.728 29.386,223.454 29.386,226.289C29.386,232.285 34.32,237.219 40.316,237.219C43.46,237.219 46.456,235.863 48.53,233.5L76.05,203.62L100.44,196.73C101.36,198.03 102.31,199.29 103.31,200.52L86.72,216.18C83.963,218.778 82.749,222.631 83.52,226.34L94.52,279.55C95.65,284.505 100.094,288.049 105.176,288.049C111.172,288.049 116.106,283.115 116.106,277.119C116.106,276.445 116.044,275.772 115.92,275.11L106.13,227.88L119.82,215C130.409,221.566 142.624,225.047 155.083,225.047C186.264,225.047 213.513,203.25 220.36,172.83L238.62,172.08L265.62,212.08C267.66,215.026 271.023,216.789 274.607,216.789C280.603,216.789 285.537,211.855 285.537,205.859C285.537,203.731 284.916,201.65 283.75,199.87L253.33,154.79Z" style="fill:rgb(255,202,0);fill-rule:nonzero;"/>
        </g>
        <g transform="matrix(0.91002,0,0,0.91002,7.66575,1.62583)">
            <path d="M214.18,143.71C214.467,143.603 210.29,132.69 210.29,132.69C207.818,127.323 204.574,122.347 200.66,117.92C200.788,117.773 192.19,110 192.19,110C189.527,107.956 186.701,106.133 183.74,104.55C184.004,104.018 173,100 173,100C171.67,99.58 170.32,99.22 169,98.9C163.418,85.652 150.376,76.995 136,76.995C116.355,76.995 100.19,93.16 100.19,112.805C100.19,117.581 101.146,122.309 103,126.71C102.187,128.043 101.43,129.413 100.73,130.82C100.73,130.82 95.869,141.41 96.59,141.59C95.677,144.794 95.032,148.069 94.66,151.38C94.66,151.38 94.035,162.921 94.42,162.9C94.51,164.07 94.63,165.24 94.79,166.41C95.44,171.061 96.624,175.621 98.32,180C98.32,180 103.042,190.563 103.47,190.3C105.685,193.848 108.259,197.158 111.15,200.18C111.15,200.18 119.687,207.951 119.86,207.72C130.146,215.024 142.453,218.95 155.069,218.95C184.782,218.95 210.36,197.172 215.1,167.84L215.88,156.25C215.813,154.092 215.633,151.939 215.34,149.8C215.057,147.752 214.67,145.719 214.18,143.71Z" style="fill:rgb(49,49,49);fill-rule:nonzero;"/>
        </g>
        <g transform="matrix(1,0,0,1,7.11581,5.26145)">
            <circle cx="130.67" cy="81.94" r="6.17" style="fill:rgb(49,49,49);"/>
        </g>
        <g transform="matrix(1,0,0,1,1.1046,7.70073)">
            <circle cx="116.08" cy="88.14" r="6.17" style="fill:rgb(49,49,49);"/>
        </g>
    </g>
</svg>
