<?xml version="1.0" encoding="UTF-8"?>
<svg id="Layer_1" data-name="Layer 1" xmlns="http://www.w3.org/2000/svg" viewBox="0 0 16 16">
  <defs>
    <style>
      .cls-1 {
        fill: #1488fa;
      }
    </style>
  </defs>
  <path class="cls-1" d="M15.633,12.3508l-1.9697-1.6621,.3301-.7969,.8213-.0586,.7334-.6753c.123-.7856,.123-1.5796,0-2.3594l-.7334-.6738-.8213-.0586-.4092-.9873,.54-.6226,.042-.9961c-.4658-.6382-1.0273-1.1997-1.6689-1.6675l-.9961,.0415-.6221,.5395-.9873-.4092-.0586-.8213-.6743-.7334c-.7852-.123-1.5786-.124-2.3603-.001l-.6738,.7339-.0586,.8218-.9878,.4092-.6226-.54-.9951-.042c-.6377,.4648-1.1992,1.0264-1.668,1.6689l.0415,.9956,.5395,.6221-.4092,.9878-.8208,.0586-.7339,.6738c-.123,.7856-.1235,1.5796-.001,2.3603l.7334,.6743,.8223,.0586,.4092,.9873-.5395,.6221-.043,.9951c.4658,.6396,1.0273,1.2012,1.6699,1.6689l.9951-.042,.6221-.5391,.9878,.4092,.0586,.8213,.6748,.7334c.7861,.1221,1.5806,.1221,2.3594,0l.6743-.7334,.0586-.8213,.7969-.3301,1.6621,1.9697,1.1768,.0498,2.1553-2.1553-.0498-1.1768v.0004Zm-2.6707,2.7667l-3.7707-4.4705-2.183,.2426-2.4256-1.9404v-2.9108l2.6681,2.6681,1.4554-1.4553-2.6681-2.6681h2.9107l1.9405,2.4256-.2426,2.183,4.4705,3.7707-2.1551,2.155h0Z"/>
  <rect class="cls-1" x="12.3629" y="12.422" width="1.2938" height="1.1762" transform="translate(-5.389 13.0105) rotate(-45.0019)"/>
</svg>