<?xml version="1.0" encoding="UTF-8" standalone="no"?>
<!DOCTYPE svg PUBLIC "-//W3C//DTD SVG 1.1//EN" "http://www.w3.org/Graphics/SVG/1.1/DTD/svg11.dtd">
<svg width="100%" height="100%" viewBox="0 0 64 64" version="1.1" xmlns="http://www.w3.org/2000/svg" xmlns:xlink="http://www.w3.org/1999/xlink" xml:space="preserve" xmlns:serif="http://www.serif.com/" style="fill-rule:evenodd;clip-rule:evenodd;stroke-linejoin:round;stroke-miterlimit:2;">
    <g transform="matrix(0.0630033,0,0,0.0630033,-28.4832,-2.03186)">
        <path d="M782.03,1033.89C781.97,1033.73 781.95,1033.48 781.85,1033.44C766.47,1027.67 762.45,1015.7 762.56,1000.45C762.91,954.83 762.64,909.2 762.77,863.57C762.78,859.75 761.63,857.13 758.95,854.45C660.51,756.15 562.17,657.76 463.7,559.48C458.79,554.58 455.57,548.76 452.09,542.99L452.09,530.99C458.61,517.23 470.79,508.35 480.94,497.75C490.39,487.89 500.29,478.46 509.82,468.67C512.04,466.39 513.2,466.29 515.5,468.62C533.18,486.51 551.08,504.19 568.74,522.1C571.43,524.82 572.82,524.99 575.63,522.16C607.08,490.47 638.68,458.93 670.25,427.35C672.03,428.21 671.24,429.74 671.24,430.88C671.28,522.51 671.29,614.13 671.27,705.76C671.27,717.09 671.31,728.42 671.01,739.74C670.9,743.89 672.14,746.81 675.12,749.78C752.72,827.21 830.22,904.74 907.73,982.25C916.8,991.32 925.9,1000.36 934.92,1009.48C944.38,1019.05 942.89,1028.09 930.99,1033.87C881.34,1033.89 831.69,1033.89 782.03,1033.89Z" style="fill:rgb(156,38,22);fill-rule:nonzero;"/>
    </g>
    <g transform="matrix(0.0630033,0,0,0.0630033,-28.4832,-2.03186)">
        <path d="M1467.91,543C1462.54,555.03 1452.47,563.13 1443.49,572.12C1387.23,628.46 1330.9,684.73 1274.6,741.03C1272.6,743.03 1270.63,745.07 1268.07,746.39C1259.79,750.67 1250.05,745.5 1249.02,736.25C1248.89,735.1 1248.94,733.92 1248.94,732.76L1248.94,428.59C1249.34,428.28 1249.74,427.96 1250.13,427.65C1251.2,429.03 1252.13,430.53 1253.34,431.76C1283.59,462.05 1313.9,492.28 1344.07,522.65C1346.73,525.33 1348.08,525.62 1350.9,522.75C1368.3,505.05 1385.93,487.58 1403.45,470C1404.72,468.72 1405.7,467.14 1406.89,465.61C1424.89,483.58 1442.21,500.88 1459.52,518.19C1463.44,522.11 1465.6,527.11 1467.9,532.02C1467.91,535.67 1467.91,539.33 1467.91,543Z" style="fill:rgb(156,38,22);fill-rule:nonzero;"/>
    </g>
    <g transform="matrix(0.0630033,0,0,0.0630033,-28.4832,-2.03186)">
        <path d="M1111.88,828.91C1114.87,830.08 1115.28,833.8 1118.13,835.19C1119.03,835.63 1118.62,836.65 1118.01,837.31C1117.11,838.29 1116.17,839.23 1115.22,840.17C1064.82,890.57 1014.38,940.95 964.08,991.45C960.85,994.7 959.17,994.73 955.92,991.46C905.62,940.95 855.21,890.55 804.72,840.24C801.66,837.19 800.57,835.14 804.84,832.53C806.09,831.77 807.05,830.49 807.11,828.82C809.61,827.31 811.42,825.09 813.22,822.86C814.48,821.74 815.74,820.62 816.99,819.49C821.48,813.05 827.12,807.61 832.59,802.08C854.97,779.47 877.5,757 900.07,734.59C903.42,731.27 905.41,727.62 906.19,722.96C909.5,703.09 912.22,683.17 913.87,663.07C915.36,644.96 915.93,626.86 915.66,608.72C914.81,551.45 898,499.93 859.76,456.44C843.36,437.78 824,422.64 802.22,410.56C772.09,393.86 739.78,384.14 705.76,379.64C701.19,379.04 696.4,379.57 692.18,377.07C690.2,377.8 689.06,379.53 687.67,380.92C650.79,417.76 613.88,454.58 577.15,491.57C573.61,495.14 571.65,495.26 568.04,491.62C531.07,454.39 493.92,417.35 456.83,380.25C455.78,379.2 454.78,378.09 453.51,376.75C455.37,375.59 457.19,376.06 458.87,376.06C534.65,376.03 610.43,376.01 686.22,376.11C690.03,376.12 692.74,375.05 695.39,372.32C703.95,363.47 712.76,354.87 721.91,345.73C716.67,344.06 711.59,346.27 707.03,344.21C709.74,341.75 713.08,342.78 716.06,342.94C720.94,343.2 724.46,341.57 727.91,338.09C762.12,303.66 796.48,269.39 830.79,235.06C832.67,233.18 834.53,231.29 836.96,230.09L1083.03,230.09C1085.45,231.29 1087.32,233.18 1089.2,235.06C1123.27,269.15 1157.42,303.17 1191.36,337.39C1195.32,341.38 1199.32,343.4 1204.93,342.93C1207.57,342.71 1210.6,341.88 1212.96,344.21C1208.4,346.14 1203.5,344.33 1197.67,345.54C1203.39,351.16 1209.26,355.7 1213.57,361.41C1222.74,373.59 1234.23,376.57 1249.27,376.4C1319.71,375.57 1390.17,376.03 1460.62,376.03L1466.09,376.03C1465.9,378.33 1464.25,379.12 1463.15,380.23C1426.08,417.35 1388.93,454.39 1351.96,491.62C1348.35,495.25 1346.39,495.15 1342.85,491.58C1306.11,454.59 1269.21,417.78 1232.33,380.94C1230.93,379.55 1229.79,377.81 1227.81,377.09C1222.66,380.04 1216.8,379.36 1211.27,380.09C1182.62,383.9 1155.13,391.76 1129.26,404.5C1086.01,425.79 1052.56,457.4 1030.14,500.43C1017.59,524.52 1009.73,550.01 1006.64,576.87C1003.98,600.02 1003.7,623.27 1005.05,646.61C1006.48,671.24 1009.35,695.64 1013.23,719.97C1014.28,726.52 1016.81,731.66 1021.6,736.37C1043.34,757.73 1064.77,779.4 1086.35,800.93C1092.23,806.8 1097.4,813.34 1103.52,818.97C1104.65,820.51 1105.78,822.06 1106.92,823.6C1108.62,825.33 1110.67,826.73 1111.88,828.91Z" style="fill:rgb(254,249,228);fill-rule:nonzero;"/>
    </g>
    <g transform="matrix(0.0630033,0,0,0.0630033,-28.4832,-2.03186)">
        <path d="M692.18,377.08C757.31,382.64 814.73,405.35 859.56,454.39C888.39,485.93 906.07,523.31 912.99,565.61C917.34,592.19 917.69,618.93 916.33,645.77C914.98,672.57 911.8,699.13 907.04,725.53C906.39,729.11 904.95,731.91 902.33,734.52C875.03,761.65 847.85,788.9 820.63,816.1C819.45,817.27 818.19,818.36 816.97,819.49C816.57,817.26 818.44,816.27 819.57,814.96C827.4,805.89 834.74,796.41 842.33,787.14C852.8,774.35 855.05,759.61 853.47,743.93C849.45,703.93 825.76,678.83 790.71,663.05C760.76,649.56 729.02,646.18 696.52,648.61C693.83,648.81 691.93,649.38 691.94,645.28C692.09,556.05 692.09,466.81 692.11,377.58C692.13,377.41 692.16,377.25 692.18,377.08Z" style="fill:rgb(214,156,31);fill-rule:nonzero;"/>
    </g>
    <g transform="matrix(0.0630033,0,0,0.0630033,-28.4832,-2.03186)">
        <path d="M1103.53,818.97C1101.33,819.05 1100.45,817.17 1099.21,815.94C1071.86,788.65 1044.57,761.29 1017.17,734.05C1014.78,731.67 1013.57,729.06 1012.99,725.86C1005.95,687.12 1002.31,648.1 1003,608.69C1003.9,557.28 1017.23,509.96 1048.65,468.53C1078.55,429.11 1118.17,403.84 1164.89,389.02C1185.37,382.52 1206.35,378.53 1227.8,377.09C1227.85,381.75 1227.93,386.41 1227.93,391.07C1227.94,475.16 1227.9,559.25 1228.02,643.34C1228.03,647.8 1227.29,648.89 1222.39,648.57C1184.85,646.13 1148.57,650.86 1115.44,670.15C1089.88,685.03 1072.74,706.37 1067.46,736.11C1063.83,756.56 1066.43,775.43 1081,791.62C1088.92,800.38 1096.05,809.83 1103.53,818.97Z" style="fill:rgb(214,156,31);fill-rule:nonzero;"/>
    </g>
    <g transform="matrix(0.0630033,0,0,0.0630033,-28.4832,-2.03186)">
        <path d="M836.96,230.09C836.47,232.01 834.77,232.95 833.51,234.21C798.67,269.1 763.75,303.9 729.02,338.9C725.21,342.74 721.47,344.94 715.99,344.22C713.05,343.83 710.01,344.19 707.02,344.22C669.66,342.4 633.49,335.31 598.94,320.55C539.36,295.11 502.73,250.77 488.06,187.76C478.55,146.91 475.54,105.61 477.8,63.84C478.1,58.24 477.7,52.56 479.46,46.43C486.77,66.33 494.86,85.25 504.19,103.62C515.6,126.08 528.84,147.33 544.37,167.24C568.98,198.8 601.43,216.9 640.07,225.1C655.75,228.43 671.46,230.3 687.56,230.2C737.36,229.86 787.16,230.09 836.96,230.09Z" style="fill:rgb(214,156,31);fill-rule:nonzero;"/>
    </g>
    <g transform="matrix(0.0630033,0,0,0.0630033,-28.4832,-2.03186)">
        <path d="M1212.97,344.22C1199.97,346.83 1191.68,340.03 1183.1,331.22C1151.26,298.53 1118.72,266.51 1086.48,234.22C1085.22,232.96 1083.52,232.02 1083.03,230.1C1136.33,230.09 1189.67,231.42 1242.91,229.7C1297.28,227.95 1344.41,208.99 1378.46,163.75C1404.43,129.25 1423.48,91.22 1438.8,51.1C1439.27,49.86 1439.71,48.61 1440.18,47.38C1440.23,47.25 1440.44,47.19 1440.74,46.99C1442.5,53.88 1442.25,60.92 1442.5,67.82C1444.12,111.94 1441.31,155.65 1428.94,198.32C1420.11,228.77 1406.8,256.83 1383.64,279.26C1359.39,302.75 1330.53,318.48 1298.67,329.03C1270.84,338.24 1242.18,342.79 1212.97,344.22Z" style="fill:rgb(214,156,31);fill-rule:nonzero;"/>
    </g>
    <g transform="matrix(0.0630033,0,0,0.0630033,-28.4832,-2.03186)">
        <path d="M770.4,209.55C791.49,188.45 812.25,167.75 832.89,146.94C834.87,144.94 836.99,145.13 839.28,145.13C901.43,145.12 963.58,145.13 1025.73,145.13C1044.23,145.13 1062.72,145.13 1081.22,145.12C1083.38,145.12 1085.3,145.11 1087.11,146.93C1107.77,167.73 1128.54,188.42 1150.16,210.02C1142.82,210.02 1136.47,210.11 1130.12,209.96C1128.37,209.92 1127.28,208.17 1126.38,206.89C1119.07,196.46 1109.19,194.29 1096.72,194.46C1040.58,195.22 984.43,194.96 928.28,194.97C889.13,194.98 849.97,194.87 810.82,194.7C807.42,194.69 804.95,195.54 802.49,198.03C789.92,210.81 789.85,210.74 771.94,210.06C771.63,210.04 771.34,209.87 770.4,209.55Z" style="fill:rgb(156,38,22);fill-rule:nonzero;"/>
    </g>
    <g transform="matrix(0.0630033,0,0,0.0630033,-28.4832,-2.03186)">
        <path d="M906.91,303.05C918.55,303.05 930.01,302.98 941.48,303.1C944.52,303.13 943.99,301.23 943.99,299.48C944,290.82 944.14,282.15 943.92,273.5C943.83,270.19 944.45,268.86 948.16,268.97C957.48,269.26 966.82,269.19 976.14,268.99C979.15,268.93 980.15,269.64 980.06,272.82C979.83,281.64 980.13,290.48 979.9,299.3C979.82,302.48 980.82,303.14 983.82,303.12C1003.14,302.99 1022.47,303.16 1041.79,302.96C1045.74,302.92 1047.37,303.56 1047.08,307.98C1046.64,314.45 1046.74,320.98 1047.06,327.46C1047.24,331.15 1046.27,332.19 1042.46,332.15C1023.14,331.93 1003.81,332.17 984.49,331.95C980.67,331.91 979.69,332.96 979.9,336.64C980.23,342.28 980.37,348 979.87,353.62C979.44,358.49 981.4,359.17 985.67,359.14C1008.16,358.94 1030.65,359.14 1053.14,358.96C1056.97,358.93 1058.3,359.78 1058.08,363.81C1057.71,370.45 1057.76,377.14 1058.07,383.79C1058.24,387.39 1057.07,388.15 1053.64,388.12C1031.15,387.96 1008.66,388.24 986.18,387.89C980.75,387.8 979.78,389.49 979.88,394.46C980.2,410.28 979.91,426.11 980.07,441.93C980.1,445.12 979.35,446.19 975.99,446.11C966.67,445.87 957.33,445.87 948.01,446.11C944.66,446.2 943.9,445.13 943.93,441.94C944.09,426.12 944,410.29 944,394.47C944,388.05 944,388.05 937.33,388.05C915.01,388.05 892.68,387.97 870.36,388.13C866.93,388.15 865.76,387.41 865.92,383.8C866.23,376.98 866.23,370.13 865.92,363.32C865.76,359.73 866.9,358.95 870.34,358.97C892.99,359.13 915.65,358.87 938.3,359.19C943.33,359.26 944.42,357.77 944.09,353.13C943.67,347.16 943.89,341.14 944.03,335.15C944.08,332.81 943.44,331.99 940.98,332C926.32,332.1 911.66,332.1 897,332C894.78,331.98 893.77,333.03 892.76,334.72C889.07,340.88 884.71,346.55 880.09,352.04C878.3,354.16 876.92,354.89 874.34,353.13C870.36,350.42 866.15,348.03 861.94,345.68C859.75,344.45 859.61,343.55 861.39,341.65C876.38,325.69 885.79,306.9 889.38,285.29C889.84,282.53 891.01,281.85 893.62,281.97C897.77,282.18 901.97,282.26 906.1,281.91C909.95,281.59 910.62,283.16 909.94,286.48C908.86,291.84 907.97,297.25 906.91,303.05Z" style="fill:rgb(156,38,22);fill-rule:nonzero;"/>
    </g>
    <g transform="matrix(0.0630033,0,0,0.0630033,-28.4832,-2.03186)">
        <path d="M916.97,836.94C903.02,836.94 889.08,836.85 875.13,837C871.76,837.04 870.91,835.77 870.95,832.62C871.09,821.49 870.95,810.36 871.06,799.24C871.08,797.48 869.88,794.99 872.63,794.1C875.09,793.3 876.62,795.04 878.17,796.6C887.67,806.13 897.15,815.68 906.73,825.13C910.36,828.71 914.23,832.04 918,835.48C917.65,835.96 917.31,836.45 916.97,836.94Z" style="fill:rgb(156,38,22);fill-rule:nonzero;"/>
    </g>
    <g transform="matrix(0.0630033,0,0,0.0630033,-28.4832,-2.03186)">
        <path d="M1001.95,835.46C1005.83,831.92 1009.83,828.49 1013.58,824.81C1023.05,815.48 1032.4,806.05 1041.79,796.64C1043.34,795.09 1044.85,793.28 1047.31,794.1C1050.29,795.1 1048.9,797.79 1048.92,799.69C1049.05,810.65 1048.9,821.62 1049.04,832.58C1049.08,835.67 1048.35,837.05 1044.91,837.01C1030.96,836.85 1017.02,836.94 1003.07,836.94C1002.7,836.45 1002.33,835.95 1001.95,835.46Z" style="fill:rgb(156,38,22);fill-rule:nonzero;"/>
    </g>
    <g transform="matrix(0.0630033,0,0,0.0630033,-28.4832,-2.03186)">
        <path d="M799.33,455.03C814.62,454.94 827.04,467.3 827.02,482.56C827,497.62 814.77,509.91 799.73,509.99C784.44,510.08 772.02,497.72 772.04,482.46C772.06,467.41 784.29,455.12 799.33,455.03Z" style="fill:rgb(254,254,254);fill-rule:nonzero;"/>
    </g>
    <g transform="matrix(0.0630033,0,0,0.0630033,-28.4832,-2.03186)">
        <path d="M1120.51,455.03C1135.77,455.05 1148.08,467.51 1147.96,482.8C1147.84,497.83 1135.5,510.01 1120.44,510C1105.18,509.98 1092.87,497.52 1092.99,482.23C1093.11,467.2 1105.44,455.01 1120.51,455.03Z" style="fill:rgb(254,254,254);fill-rule:nonzero;"/>
    </g>
</svg>
