<svg xmlns="http://www.w3.org/2000/svg" viewBox="0 0 16 16"><title>paris-gamesweek-2016-badge</title><g id="Ebene_1" data-name="Ebene 1"><path d="M8.85,9.22a2.47,2.47,0,0,0-.29-.06,2.6,2.6,0,0,0-.56,0,2.5,2.5,0,0,0-.55,0c-.1,0-.2,0-.3.06.34-.69.6-1,.85-1S8.52,8.53,8.85,9.22Z" style="fill:#8190aa;fill-rule:evenodd"/><path d="M1.74,1.56V9.47C2.63,12.79,5.91,16,8,16s5.2-2.55,6.26-6.53V1.56A13.28,13.28,0,0,0,1.74,1.56Zm8.69,10.36,0,0c-.1-.14-.2-.27-.29-.41a3.77,3.77,0,0,1-.24-.36h0l0-.06a1,1,0,0,0-.17-.28,1.94,1.94,0,0,0-.23-.26,2,2,0,0,0-.64-.38A2.19,2.19,0,0,0,8,10a2.1,2.1,0,0,0-.76.14,2.05,2.05,0,0,0-.64.38c-.06,0-.11.11-.16.16l-.14.18,0,.09,0,.06,0,0,0,.06h0l-.24.36c-.09.14-.19.27-.29.41l0,0H4.45l.14-.17.16-.2a4.56,4.56,0,0,0,.31-.42c.1-.13.2-.27.29-.41l.09-.14a1.09,1.09,0,0,1,.08-.15.71.71,0,0,1,.1-.14,14.51,14.51,0,0,0,.75-1.47,14.81,14.81,0,0,0,.54-1.54c.15-.52.27-1.05.37-1.58s.16-1.09.21-1.64c0-.24,0-.48,0-.72s0-.48,0-.72V2.47h.89v.15c0,.15,0,.3,0,.46s0,.3,0,.46c0,.64.1,1.28.2,1.9a16.31,16.31,0,0,0,.41,1.84,14.1,14.1,0,0,0,.55,1.54,13.05,13.05,0,0,0,.76,1.49l.09.13s0,.08.07.13l.06.09.07.1c.08.13.17.26.27.4l.29.39.16.2.13.17Z" style="fill:#8190aa;fill-rule:evenodd"/><rect y="15.83" width="0.17" height="0.17" style="fill:#8190aa;opacity:0.01"/><rect y="15.83" width="0.17" height="0.17" style="fill:#8190aa;opacity:0.01"/><rect x="15.83" y="15.83" width="0.17" height="0.17" style="fill:#8190aa;opacity:0.01"/><rect x="15.83" y="15.83" width="0.17" height="0.17" style="fill:#8190aa;opacity:0.01"/><rect width="0.17" height="0.17" style="fill:#8190aa;opacity:0.01"/><rect width="0.17" height="0.17" style="fill:#8190aa;opacity:0.01"/><rect x="15.83" width="0.17" height="0.17" style="fill:#8190aa;opacity:0.01"/><rect x="15.83" width="0.17" height="0.17" style="fill:#8190aa;opacity:0.01"/></g></svg>