<?xml version="1.0" encoding="utf-8"?>
<!-- Generator: Adobe Illustrator 24.1.0, SVG Export Plug-In . SVG Version: 6.00 Build 0)  -->
<svg version="1.1" id="Layer_1" xmlns="http://www.w3.org/2000/svg" xmlns:xlink="http://www.w3.org/1999/xlink" x="0px" y="0px"
	 viewBox="0 0 16 16" style="enable-background:new 0 0 16 16;" xml:space="preserve">
<style type="text/css">
	.st0{fill:url(#SVGID_1_);}
	.st1{fill:url(#SVGID_2_);}
	.st2{fill:none;stroke:#FFFFFF;stroke-width:4;stroke-miterlimit:10;}
	.st3{fill:url(#SVGID_3_);}
	.st4{fill:url(#SVGID_4_);}
	.st5{fill:none;stroke:#FFFFFF;stroke-miterlimit:10;}
</style>
<linearGradient id="SVGID_1_" gradientUnits="userSpaceOnUse" x1="2.5383" y1="9.6543" x2="13.4715" y2="9.6543">
	<stop  offset="0" style="stop-color:#8072FF"/>
	<stop  offset="1" style="stop-color:#FF007D"/>
</linearGradient>
<polygon class="st0" points="8,3.3 2.5,6.5 2.5,12.8 8,16 13.5,12.8 13.5,6.5 "/>
<linearGradient id="SVGID_2_" gradientUnits="userSpaceOnUse" x1="-2.688209e-03" y1="3.4661" x2="16.0052" y2="3.4661">
	<stop  offset="0" style="stop-color:#8072FF"/>
	<stop  offset="1" style="stop-color:#FF007D"/>
</linearGradient>
<polygon class="st1" points="16,4.7 13.4,3.1 13.4,0.1 11.2,0.1 11.2,1.8 8,0 0,4.7 0,6.9 8,2.2 16,6.9 "/>
<path class="st5" d="M11,7.4C10.6,7,10.1,6.7,9.6,6.7c-0.6,0-1.3,0.6-1.5,1.2C8.1,8,8,8,7.9,7.9C7.7,7.2,7.1,6.7,6.5,6.7
	C5.9,6.7,5.4,7,5.1,7.4C4.7,7.8,4.5,8.4,4.5,9c0,0.6,0.4,1.2,0.9,1.7C5.8,11.2,7.7,13,8,13.2c0.3-0.3,2.2-2,2.6-2.5
	c0.5-0.6,0.9-1.1,0.9-1.7C11.5,8.4,11.3,7.8,11,7.4z"/>
</svg>
