<?xml version="1.0" encoding="UTF-8"?>
<svg id="Layer_1" data-name="Layer 1" xmlns="http://www.w3.org/2000/svg" xmlns:xlink="http://www.w3.org/1999/xlink" viewBox="0 0 16 16">
  <defs>
    <style>
      .cls-1 {
        fill: url(#New_Gradient_Swatch_5);
      }

      .cls-2 {
        fill: #ffe366;
      }

      .cls-3 {
        fill: #f6a;
      }

      .cls-4 {
        fill: #ff7f57;
      }

      .cls-5 {
        fill: #8c5039;
      }

      .cls-6 {
        fill: url(#linear-gradient);
      }
    </style>
    <linearGradient id="New_Gradient_Swatch_5" data-name="New Gradient Swatch 5" x1="6.3675" y1="22.1769" x2="9.3574" y2="25.1931" gradientTransform="translate(-9.7644 -3.0955) rotate(-45)" gradientUnits="userSpaceOnUse">
      <stop offset="0" stop-color="#fc6"/>
      <stop offset="1" stop-color="#ff7f57"/>
    </linearGradient>
    <linearGradient id="linear-gradient" x1="-5.6566" y1="16.0915" x2="19.229" y2="40.8433" gradientTransform="translate(-9.7644 -3.0955) rotate(-45)" gradientUnits="userSpaceOnUse">
      <stop offset=".3004" stop-color="#fc6"/>
      <stop offset=".7851" stop-color="#ff7f57"/>
    </linearGradient>
  </defs>
  <path class="cls-2" d="M10.0108,2.3363c-.0023,.0009-.0041,.0019-.0064,.0027-.144-.3759-.4136-.7379-.9121-1.0745-.4519-.3052-1.4293-.3682-2.0668-.028,.0038,.0039,.0059,.0094,.0096,.0134C5.168-.3759,4.2996,1.6984,1.544,.0797-.1608,2.4886-.491,5.7073,1.0112,6.8077c.0149,.0109,.0259,.0164,.0405,.027-.1275,.3457-.1646,.7239-.0857,1.1011,.1674,.8012,.6663,1.5269,1.2881,1.887-.0077-.0006-.0203-.0014-.0203-.0014-.3544,1.2708,1.4695,3.052,3.2259,2.4072,.5732,.3883,1.2214,.7375,1.6807,1.2279,1.7604,1.8797,2.7719,.9055,2.5541-.0285l.8713,.3877h0s.3031,.1347,.3031,.1347h0s1.151,.5121,1.151,.5121h0s.2973,.1321,.2973,.1321c.0019,.0022,.0034,.0056,.0052,.0078l2.8552,1.2701c.2415,.1074,.4784,.0226,.6246-.1439,.0114-.0122,.0132-.0302,.0234-.0434,.0463-.0631,.0936-.1268,.1093-.2051,.0008-.0038-.0002-.0078,.0006-.0116,.02-.1014,.0105-.2115-.0396-.3224-.0005-.0012,.0002-.0024-.0005-.0036l-.0568-.1327-.0939-.2194h0l-1.1392-2.6598-.1065-.2488h0l-.7011-1.6371c-.0101-.0313-.0284-.0538-.0395-.0841l-1.7487-4.0834c.5716-.8602,.0702-3.1452-1.9987-3.7407Z"/>
  <path class="cls-3" d="M6.4753,3.4537c.8906-.7516,.9825-1.7503,.5597-2.2037C5.168-.3759,4.2996,1.6984,1.544,.0797-.1608,2.4886-.491,5.7073,1.0112,6.8077c.0149,.0109,.0259,.0164,.0405,.027,.0904-.245,.22-.4761,.4142-.6682,1.1381-1.126,3.4034-1.3572,5.0095-2.7127Z"/>
  <path class="cls-2" d="M9.0923,1.2645c-.4519-.3052-1.4293-.3682-2.0668-.028,.0038,.0039,.0059,.0094,.0096,.0134,.4227,.4535,.3308,1.4521-.5597,2.2037-1.6061,1.3555-3.8713,1.5867-5.0095,2.7127-.1941,.1921-.3237,.4232-.4142,.6682-.1275,.3457-.1646,.7239-.0857,1.1011,.1674,.8012,.6663,1.5269,1.2881,1.887,.2103,.0151,3.188,.1627,4.5646-3.4512,.9565-2.5111,1.4023-3.3699,3.1857-4.0326-.144-.3759-.4136-.7379-.9121-1.0745Z"/>
  <path class="cls-1" d="M12.0095,6.077c-.6277-.3127-.9325,.8836-.9615,2.4883,.0798-.0001,.1568,.0072,.2352,.0111,1.1209,.0554,2.0871,.5191,2.475,1.584l-1.7487-4.0834Z"/>
  <path class="cls-6" d="M11.2832,8.5764c-.0784-.0039-.1555-.0112-.2352-.0111-2.2418,.0033-4.9562,1.549-4.906,3.2825l6.175,2.7469,2.8618,1.2731c.343,.1527,.6897-.0734,.756-.3876,.021-.1049,.0112-.2194-.041-.3329l-2.1355-4.9868c-.3879-1.0649-1.3541-1.5287-2.475-1.584Z"/>
  <g>
    <rect class="cls-4" x="7.9604" y="10.4275" width="1.1509" height="1.1512"/>
    <path class="cls-4" d="M9.1113,10.125h-1.1509v-.1158c.356-.2187,.7431-.4134,1.151-.5725v.6883Z"/>
    <polygon class="cls-4" points="7.6575 12.522 6.2187 11.8819 7.6575 11.8819 7.6575 12.522"/>
    <polygon class="cls-4" points="13.777 11.5789 13.777 10.4277 13.8761 10.4277 14.369 11.5789 13.777 11.5789"/>
    <path class="cls-4" d="M10.5656,10.125h-1.1514s0-.8006,0-.8006c.3763-.1262,.7631-.2188,1.1514-.2649v1.0655Z"/>
    <polygon class="cls-4" points="14.9283 13.0332 13.777 13.0332 13.777 11.8817 14.4987 11.8817 14.9283 12.8849 14.9283 13.0332"/>
    <polygon class="cls-4" points="13.4744 15.1096 12.7568 14.7903 13.4744 14.7903 13.4744 15.1096"/>
    <polygon class="cls-4" points="9.1112 11.8819 9.1112 13.0332 8.8066 13.0332 7.9605 12.6568 7.9605 11.8819 9.1112 11.8819"/>
    <polygon class="cls-4" points="14.9285 14.7903 14.9285 15.7564 13.777 15.2442 13.777 14.7903 14.9285 14.7903"/>
    <polygon class="cls-4" points="12.0197 13.3361 12.0196 14.4625 10.8687 13.9505 10.8687 13.3362 12.0197 13.3361"/>
    <polygon class="cls-4" points="10.5656 13.8157 9.488 13.3363 10.5656 13.3362 10.5656 13.8157"/>
    <path class="cls-4" d="M7.6575,11.5787h-1.3832c.2129-.3733,.5895-.7759,1.0745-1.1513h.3087s0,1.1513,0,1.1513Z"/>
    <polygon class="cls-4" points="15.231 13.5915 15.6147 14.4876 15.231 14.4876 15.231 13.5915"/>
    <rect class="cls-4" x="10.8685" y="10.4276" width="1.1513" height="1.1512"/>
    <path class="cls-4" d="M15.7444,14.7903l.1507,.352c.2016,.4387-.2234,.8776-.664,.7312v-1.0832s.5133,0,.5133,0Z"/>
    <rect class="cls-4" x="9.4142" y="10.4276" width="1.1514" height="1.1512"/>
    <rect class="cls-4" x="12.3228" y="13.3361" width="1.1516" height="1.1514"/>
    <rect class="cls-4" x="9.4142" y="11.8818" width="1.1514" height="1.1514"/>
    <rect class="cls-4" x="10.8686" y="11.8818" width="1.1512" height="1.1514"/>
    <path class="cls-4" d="M13.4744,9.9204v.2047s-1.1516-.0001-1.1516-.0001v-.9065c.4136,.1413,.8005,.3754,1.1516,.7019Z"/>
    <path class="cls-4" d="M12.02,9.1385v.9866s-1.1515-.0001-1.1515-.0001v-1.086c.3913-.0216,.7775,.0092,1.1515,.0995Z"/>
    <rect class="cls-4" x="12.3228" y="11.8817" width="1.1516" height="1.1514"/>
    <rect class="cls-4" x="13.777" y="13.3359" width="1.1514" height="1.1516"/>
    <rect class="cls-4" x="12.3228" y="10.4277" width="1.1516" height="1.1512"/>
  </g>
  <path class="cls-5" d="M10.0107,2.3363c-.0023,.0009-.0041,.0018-.0063,.0027-1.7834,.6626-2.2292,1.5214-3.1857,4.0325-1.3766,3.6139-4.3543,3.4662-4.5646,3.4512-.0077-.0005-.0203-.0013-.0203-.0013-.3544,1.2708,1.4696,3.0519,3.2259,2.4072,.5732,.3883,1.2214,.7375,1.6807,1.228,2.3737,2.5347,3.3912-.1196,1.86-.8679-.7035-.3438-1.8431-.0331-2.6602-1.0268-.0518-.0629-.0872-.1393-.1311-.209,.4099-1.5219,2.8137-2.7845,4.8389-2.7875,.0291-1.6047,.3339-2.801,.9615-2.4883,.5717-.8602,.0702-3.1453-1.9987-3.7407Z"/>
  <polygon class="cls-2" points="8.6578 3.6673 9.6489 4.3739 10.8351 4.1011 10.4693 5.262 11.0954 6.3057 9.8783 6.3167 9.079 7.2346 8.6926 6.0805 7.5726 5.604 8.5508 4.8798 8.6578 3.6673"/>
</svg>