<?xml version="1.0" encoding="utf-8"?>
<!-- Generator: Adobe Illustrator 23.0.2, SVG Export Plug-In . SVG Version: 6.00 Build 0)  -->
<svg version="1.1" id="Perspective" xmlns="http://www.w3.org/2000/svg" xmlns:xlink="http://www.w3.org/1999/xlink" x="0px"
	 y="0px" viewBox="0 0 16 16" style="enable-background:new 0 0 16 16;" xml:space="preserve">
<style type="text/css">
	.st0{fill:#1C2437;}
	.st1{fill:#35425B;}
	.st2{fill:#2880C3;}
	.st3{fill:#FFFFFF;}
</style>
<ellipse class="st0" cx="8" cy="12.8" rx="7.8" ry="2.8"/>
<path class="st0" d="M2.7,2.3v9.5c0,0.1,0,0.1,0,0.2c0,1,2.4,1.9,5.3,1.9c2.9,0,5.3-0.8,5.3-1.9V2.3H2.7z"/>
<ellipse class="st1" cx="8" cy="2.3" rx="5.3" ry="1.9"/>
<g>
	<path class="st2" d="M8,11.7c-2.7,0-5-0.7-5.3-1.7v1.8c0,0.1,0,0.1,0,0.2c0,1,2.4,1.9,5.3,1.9c2.9,0,5.3-0.8,5.3-1.9V9.8
		C13.3,10.9,10.9,11.7,8,11.7z"/>
	<path class="st2" d="M2.7,9.8c0,0.1,0,0.1,0,0.2V9.6C2.7,9.7,2.7,9.8,2.7,9.8z"/>
</g>
</svg>
