<?xml version="1.0" encoding="UTF-8" standalone="no"?>
<!DOCTYPE svg PUBLIC "-//W3C//DTD SVG 1.1//EN" "http://www.w3.org/Graphics/SVG/1.1/DTD/svg11.dtd">
<svg width="100%" height="100%" viewBox="0 0 64 64" version="1.1" xmlns="http://www.w3.org/2000/svg" xmlns:xlink="http://www.w3.org/1999/xlink" xml:space="preserve" xmlns:serif="http://www.serif.com/" style="fill-rule:evenodd;clip-rule:evenodd;stroke-linejoin:round;stroke-miterlimit:2;">
    <g transform="matrix(0.0588235,0,0,0.0588235,0,3)">
        <path d="M574,985C575,985 581,979 588,973C707,877 811,762 879,651C898,619 922,574 935,543C967,468 983,395 983,325C983,283 976,250 959,217C929,158 880,127 818,127C795,127 777,130 754,137C702,154 651,187 600,239L580,259L560,239C509,187 458,154 406,137C383,130 365,127 342,127C289,127 247,149 215,193C207,204 194,229 189,245C180,272 177,294 177,324L177,345L179,345C179,346 185,345 191,344C253,333 318,348 369,387C381,396 400,413 409,425C436,458 454,500 459,544C461,556 461,584 459,596C454,637 439,676 414,708C405,720 388,739 377,748C343,775 301,793 257,798C245,800 217,800 205,798C154,792 107,770 71,735C51,715 38,697 26,672C12,644 2,607 2,583L2,557C2,534 11,497 24,471C36,446 49,428 68,408C81,395 81,395 79,383C74,348 72,302 75,274C84,195 116,125 164,75C172,68 182,58 187,54C224,24 272,5 317,2L357,2C413,5 473,26 521,60C540,74 564,95 575,109C577,112 580,115 580,115C580,115 583,112 585,109C596,95 620,74 639,60C687,26 747,5 803,2L843,2C880,4 921,18 953,40C997,69 1034,114 1057,169C1074,208 1086,260 1086,295L1086,329C1086,348 1082,382 1077,408C1055,512 1001,613 910,717C892,738 838,792 815,813C759,862 699,907 635,949C618,960 583,981 577,985L574,986L574,985ZM480,967C473,966 465,962 455,957C446,952 426,937 422,933L420,930L431,930C452,929 473,921 482,912C490,904 495,893 502,866C504,857 507,849 508,847C511,842 515,838 520,837C523,836 525,836 526,835L527,835L527,832C527,825 520,814 511,808L505,804C505,804 514,801 517,800C525,798 529,794 532,790C534,786 534,774 531,763C529,752 528,743 530,739C532,736 532,735 540,734C553,731 562,727 571,722C580,716 596,705 596,704C596,704 593,700 589,695C569,672 549,639 538,610C530,590 518,550 518,544C518,543 520,541 524,538C531,533 543,522 547,515C554,504 556,498 557,484C557,471 556,463 552,447C547,423 533,391 519,371C508,354 482,325 459,304C432,278 403,257 377,244C369,240 362,236 362,236L362,235L371,229C382,222 417,204 420,204C422,204 448,219 465,230C503,253 536,279 555,299C592,339 622,408 627,465C629,491 625,504 608,523L602,529C602,529 591,539 588,541C583,545 583,545 583,553C584,564 589,583 597,603C608,631 632,675 650,703C654,708 657,713 657,714C657,714 654,717 650,721C633,736 617,746 599,754L589,758L589,763C589,770 594,785 600,799C603,805 606,810 606,811C606,811 604,814 601,817C594,825 582,830 566,832L558,832L558,833C558,834 562,838 567,841C579,851 587,857 588,861C588.648,864.463 588.672,864.249 587.186,867.05C585.697,869.857 585,871 580,872C571,873 569,875 564,880C557,888 556,891 555,910C555,927 555,927 551,935C542,951 528,962 511,965C503,967 485,968 480,967ZM641,863C641,855 639,849 633,843L629,838L638,835C650,831 660,825 667,819L672,813L666,806C660,798 650,785 650,783C650,783 654,779 660,776C683,762 701,746 724,720L727,716L726,714C725,713 717,704 709,695C700,686 690,676 688,673C669,648 654,613 643,570C639,557 639,557 645,547C662,520 670,495 672,467C674,427 660,384 626,317C620,306 615,295 615,295C615,293 628,279 639,268C673,235 716,213 758,206C773,204 801,204 817,207C847,212 872,225 891,244C941,295 952,390 918,494C885,596 809,709 698,817C679,836 644,868 642,869L641,863Z" style="fill:rgb(232,80,200);fill-rule:nonzero;"/>
    </g>
</svg>
