<?xml version="1.0" encoding="utf-8"?>
<!-- Generator: Adobe Illustrator 24.0.3, SVG Export Plug-In . SVG Version: 6.00 Build 0)  -->
<svg version="1.1" id="Layer_1" xmlns="http://www.w3.org/2000/svg" xmlns:xlink="http://www.w3.org/1999/xlink" x="0px" y="0px"
	 viewBox="0 0 16 16" style="enable-background:new 0 0 16 16;" xml:space="preserve">
<style type="text/css">
	.st0{fill:#DE7AAF;}
	.st1{fill:#FFFFFF;}
</style>
<path class="st0" d="M14.5,1.6c-0.8-1-1.9-1.5-3.2-1.5c-0.9,0-1.9,0.3-2.6,1C8.6,1.2,8.5,1.4,8.3,1.5c-0.1,0.2-0.5,0.2-0.6,0
	C7.6,1.4,7.5,1.2,7.3,1c-0.7-0.7-1.7-1-2.6-1c-1.2,0-2.3,0.5-3.2,1.5c-0.8,1-1.3,2.3-1.3,3.8c0,1.5,0.5,2.9,1.6,4.3
	c1,1.3,2.3,2.6,3.9,4.1c0.4,0.4,1.4,1.3,2,1.9c0.1,0.1,0.4,0.1,0.5,0c0.7-0.6,1.6-1.5,2-1.9c1.6-1.5,3-2.8,3.9-4.1
	c1.1-1.5,1.6-2.8,1.6-4.3C15.8,3.9,15.4,2.6,14.5,1.6z"/>
<g>
	<path class="st1" d="M12.9,8.3v-1c0-0.4-0.4-0.6-0.5-0.7c-0.1,0-0.1-0.1-0.1-0.2c-0.1-0.7-0.4-1.3-0.8-1.9c0,0,0-0.1,0-0.1l0,0
		c0.1-0.1,0.1-0.1,0-0.2c-0.9-1-2.2-1.7-3.6-1.7S5.1,3.2,4.2,4.2c-0.1,0.1-0.1,0.1,0,0.2l0,0c0.1,0.1,0.1,0.1,0,0.2
		C3.9,5.2,3.6,5.8,3.5,6.5c0,0.1-0.1,0.1-0.1,0.2C3.2,6.7,2.9,7,2.9,7.3v1c0,0,0,0.9,0.9,0.9c0,0,0.3,0.1,0.3-0.3s0-1.6,0-1.7
		c0-2.1,1.7-3.8,3.8-3.8s3.8,1.7,3.8,3.8l0,0c0,0,0,1.3,0,1.7S12,9.2,12,9.2C12.9,9.2,12.9,8.3,12.9,8.3z"/>
	<path class="st1" d="M11.5,9.9c0,0-0.4,2-3.6,2.3c0,0-1.4,0.1-0.3,0.3s3.5,0.2,4.2-1.2c0,0,0.4-0.6,0-1.5
		C11.8,9.9,11.6,9.6,11.5,9.9z"/>
	<path class="st1" d="M5.9,9.9c0,0-0.9,0-1.1-1C4.6,7.9,5,7.5,5.2,7.4c0.2-0.1,1,0.1,2.1,1.4C8.4,10.1,5.9,9.9,5.9,9.9z"/>
	<path class="st1" d="M8.7,9.9c0,0-0.9-0.3-0.2-0.9s2-1,2.3-0.4c0.2,0.6-0.3,1.2-0.6,1.3C10,10,9.7,10.1,8.7,9.9z"/>
</g>
</svg>
