<?xml version="1.0" encoding="UTF-8" standalone="no"?>
<!DOCTYPE svg PUBLIC "-//W3C//DTD SVG 1.1//EN" "http://www.w3.org/Graphics/SVG/1.1/DTD/svg11.dtd">
<svg width="100%" height="100%" viewBox="0 0 64 64" version="1.1" xmlns="http://www.w3.org/2000/svg" xmlns:xlink="http://www.w3.org/1999/xlink" xml:space="preserve" xmlns:serif="http://www.serif.com/" style="fill-rule:evenodd;clip-rule:evenodd;stroke-linejoin:round;stroke-miterlimit:2;">
    <g transform="matrix(0.0618169,0,0,0.0618169,-27.3247,-1.4033)">
        <path d="M1039.6,779.3L1039.6,876.1C1105.8,864.4 1166.3,839.6 1221.8,801.4C1221.9,803.1 1222,804.2 1222,805.3C1222,830.1 1222,854.8 1222.1,879.6C1222.1,882.4 1221.1,883.6 1218.8,884.9C1174.4,909.6 1127.5,927.8 1077.9,938.9C1066.3,941.5 1054.5,943.7 1042.7,945.7C1039.7,946.2 1039.4,947.4 1039.4,950C1039.5,972.2 1039.4,994.4 1039.4,1016.6C1039.4,1027.7 1039.3,1038.8 1039.5,1049.9C1039.5,1052.6 1038.7,1053.5 1036,1053.7C1012.9,1055.1 989.8,1057.3 966.6,1057.9C949.8,1058.4 932.8,1057.2 916,1056.2C901.8,1055.4 887.6,1053.8 873,1052.5L873,944.9C863.5,942.9 854.3,941.1 845.2,939.1C796,928 749.5,910 705.3,885.7C702.9,884.4 701.9,883 701.9,880.1C702,855.5 702,830.8 702,806.2L702,802.1C728.3,819.9 755.3,834.9 784,846.9C812.6,858.9 842,868 872.8,874.2C872.9,872.7 873,871.5 873,870.3C873,852.4 872.7,834.5 873.1,816.5C874,776.2 897.8,736.8 939.8,719.3C951.7,714.4 964.1,711.8 976.8,710.8C1005.3,708.7 1033.2,703.7 1060.3,694.4C1061,694.2 1061.7,693.8 1062.3,693.5C1059,665.4 1059.2,662.6 1066.5,622.3C1065.9,622.6 1065.5,622.7 1065.2,622.9C1054.2,633.6 1041.2,641.4 1028.4,649.6C1013.2,659.4 995.9,664.7 980.4,673.6C972.5,678.1 964.9,678.6 956.2,677.8C924.5,674.8 893,670.7 861.7,665.2C861.1,665.1 860.4,665.2 859.7,665.2C859.3,671.1 859.1,676.8 858.6,682.6C853.9,733.1 820.6,772.2 771.6,784.3C742.5,791.4 713.9,788.5 685.8,778.7C653.8,767.6 626.6,749.1 603.6,724.3C579.7,698.6 563.5,668.8 555.5,634.6C550.3,612.5 549.6,590.3 555,568.1C560.7,544.7 571.6,524.5 589.9,508.6C592,506.8 592.7,505.1 591.9,502.3C585.9,479.9 582,457.1 580.4,434C573.6,331.8 602.1,240.6 667.1,161.5C721.2,95.2 790.7,52.8 873.8,32.9C908,24.7 942.8,21.5 978,23.1C1058.8,26.9 1131.5,53.4 1195.3,102.9C1265.7,157.5 1311.3,228.7 1332.7,315.3C1338.5,338.6 1341.6,362.2 1342.9,386.2C1345,426.7 1340.4,466.3 1330.1,505.4C1329.7,506.7 1330.4,509 1331.4,509.9C1344.9,522.3 1354.4,537.2 1360.4,554.4C1366.7,572.5 1369.3,591 1367.6,610.2C1364,650.6 1348.3,685.9 1322.4,716.7C1294.9,749.4 1260.8,772.2 1219.2,782.9C1187.4,791.1 1156,790.3 1125.7,776.3C1117.7,772.6 1110.6,767 1103,762.5C1101.8,761.8 1099.8,761.2 1098.6,761.7C1080.2,768.6 1061.4,774.3 1042.2,778.4C1041.3,778.5 1040.5,778.9 1039.6,779.3ZM1153.1,508C1154.4,507.3 1155.1,506.9 1155.7,506.6C1186.2,488.1 1218.9,477.6 1254.9,479.3C1257.7,479.4 1258.5,478.1 1258.9,475.9C1261,463.9 1263.8,451.9 1265.1,439.8C1268,413.4 1267.7,387.1 1263.9,360.8C1259.8,332.8 1252.1,306 1240.6,280.2C1219,232 1187.1,192 1145,160.3C1121,142.2 1094.8,128 1066.5,117.7C1046.4,110.4 1025.8,105.2 1004.5,102.1C980.1,98.5 955.7,98.1 931.2,100.5C899.5,103.6 869,111.6 839.7,124.2C797.4,142.5 761.2,169.2 730.8,203.8C707.3,230.6 689.1,260.6 676.2,293.9C667,317.5 660.8,341.9 657.8,367C655.5,385.9 655,404.7 656.1,423.7C657.1,441.1 660,458.2 663.5,475.3C664.1,478.2 665.3,479 668.4,479.1C677.9,479.4 687.5,479.7 696.8,481.1C721.1,484.9 743.5,494 764.3,507C765,507.4 765.9,507.7 767.7,508.5C765.9,494.8 765.3,481.7 762.3,469.2C759.3,456.8 758.6,444.8 761.5,432.6C763,426.4 764.9,420.2 766.8,414C771.9,398.1 777.2,382.2 782.5,366.3C785.5,357.4 791,350.8 799.3,346.1C808.4,341 817.1,335.1 826,329.7C831.6,326.4 835.8,322.6 838.3,315.9C843.4,302.1 852,290 861.7,278.9C862.8,277.7 864.6,276.6 866.2,276.4C875.5,274.9 884.8,273.8 894.1,272.2C896.6,271.8 899.3,270.6 901.2,268.9C914.4,257.6 927.5,246.1 940.7,234.8C942.1,233.6 944.4,232.8 946.2,232.9C955.3,233.2 964.5,233.9 973.6,234.2C975.7,234.3 978.2,233.7 980.1,232.7C997.8,222.3 1015.3,211.7 1033,201.5C1035,200.3 1038.2,200.2 1040.6,200.7C1049,202.6 1057.3,205.1 1065.6,207.4C1067.1,207.8 1068.6,208.4 1069.8,209.3C1077,214.7 1084.7,219.6 1091.2,225.9C1103,237.4 1114.2,249.5 1125.4,261.6C1130.7,267.3 1134.4,274.2 1136,281.9C1136.6,284.6 1135.5,287.7 1135.9,290.4C1137.5,300.8 1138.7,311.4 1141.3,321.6C1145.1,336.4 1149.9,351 1154.3,365.6C1159.5,382.5 1166,398.9 1174.8,414.2C1175.2,414.9 1175.6,415.6 1175.7,416.3C1175.8,421.4 1176.2,426.6 1175.8,431.7C1174.3,450.8 1168.7,468.8 1161.9,486.6C1159.2,493.7 1156.2,500.5 1153.1,508ZM951.8,374.1C954.9,378.6 958.3,382.8 960.8,387.6C963.1,391.9 966.6,394 971.1,394.7C975.4,395.4 979.8,396.1 984.1,396.3C1000.2,397.1 1016,395.4 1031.7,391.9C1033.6,391.5 1035.6,390.1 1036.8,388.6C1042.2,382 1047.3,375.2 1052.5,368.5C1052.7,368.6 1052.8,368.6 1053,368.7C1051.3,372.6 1049.6,376.5 1048,380.4C1048.3,380.5 1048.6,380.7 1048.8,380.8C1051.4,375.2 1053.9,369.7 1056.5,364.1C1056.8,364.2 1057.1,364.3 1057.4,364.4C1057.1,366.6 1057.2,369 1056.5,371.1C1053.5,379 1050.3,386.9 1046.8,394.7C1044.7,399.4 1047.6,404.6 1052.8,405.1C1060.1,405.8 1067.4,406.6 1074.7,407.5C1076.3,407.7 1077.9,408.3 1079.6,408.7L1079.6,409.9C1076.3,410.8 1073,412.2 1069.7,412.5C1060.3,413.3 1052.5,417.8 1045,422.6C1036.6,428 1028.9,434.5 1021.2,441C1005.8,453.8 990.7,466.8 975.4,479.6C970.7,483.5 967.3,488.1 965.8,494.1C964.2,500.5 962.2,506.7 960.4,513C960,514.4 959.8,515.8 959.4,518.3C966.3,512.2 972.3,507 978.2,501.8C978.3,501.9 978.4,502.1 978.5,502.2C970.3,513 962.2,523.7 954,534.5C954.3,534.7 954.6,535 954.9,535.2C956.1,534.3 957.3,533.3 959.1,532C954.8,542.3 955.4,552.7 955,562.9C954.9,565.7 955.2,568.6 955.9,571.3C961.1,589.8 966.6,608.1 971.8,626.6C972.6,629.4 973.9,630.3 976.6,630.3C987.7,630.2 998.8,630.3 1009.9,630.3C1020,630.3 1029.1,627.3 1036.7,620.4C1044.2,613.6 1052,607 1059.6,600.2C1073.9,587.6 1087.6,574.2 1098.9,558.8C1107.1,547.6 1115.5,536.4 1122.7,524.6C1128,515.9 1131.6,506.1 1135.9,496.7C1144.4,478 1151.4,458.8 1154.3,438.4C1154.9,434.4 1155.5,429.8 1154,426.3C1149.9,416.5 1145.4,406.6 1139.7,397.6C1130.9,383.7 1121.5,370.1 1111.5,357C1103.6,346.7 1094.5,337.3 1086,327.5C1084.2,325.4 1082,323.3 1080.9,320.8C1079.5,317.7 1077.5,317.3 1074.8,318.1C1063.5,321.6 1052,324.6 1040.9,328.9C1018.3,337.6 996.2,347.5 975.3,359.8C967.3,364.3 959.8,369.1 951.8,374.1ZM616,570.4C615.9,570.6 615.5,571 615.3,571.4C604.3,592.2 603.1,614.1 608.8,636.6C616.1,665.2 632,688.3 655,706.5C680.4,726.5 708.9,736.9 741.6,732.2C762.6,729.2 779.7,719 791.6,701.2C807.5,677.3 808.8,651.1 800.2,624.7C785.6,580 755.3,550.6 710.1,536.9C701.8,534.4 693.2,532.9 684.1,533.5C684.4,534.4 684.4,534.9 684.6,535.3C690.3,545.8 695.9,556.4 701.8,566.8C702.6,568.1 704.5,569.2 706.1,569.6C718.3,572.4 729.2,577.7 738.6,585.8C760.2,604.2 773.3,626.8 769.8,656.3C768.1,670.7 761.2,682.4 749,690.5C733.4,700.8 716.4,701.2 699.3,695.9C665.1,685.1 638.4,651.5 639.9,615.2C640,613.7 639.8,612 639.1,610.8C631.5,597.3 623.8,583.9 616,570.4ZM1238.7,534.1C1238.4,533.7 1238.2,533.2 1237.9,532.8C1230.6,533.6 1223.3,533.9 1216.1,535.3C1191.2,540.3 1169.8,552.3 1152.1,570.4C1125.8,597.4 1110.6,629 1115.2,667.8C1117.8,690.1 1128.3,708.1 1147.1,720.5C1171.2,736.3 1197.4,736.7 1223.8,728.2C1256.2,717.8 1280.7,697 1297.6,667.7C1311.6,643.4 1317.6,617.4 1310.7,589.5C1309.3,583.9 1307,578.6 1305,572.9C1297.4,585.9 1290.5,598.2 1283.1,610.3C1280.6,614.5 1278.5,618.4 1278.9,623.5C1279.1,626.2 1278.2,629.1 1277.7,631.9C1271,665.2 1242.3,692.9 1208.8,698.1C1191.2,700.8 1175.1,697.1 1162.3,683.9C1149.3,670.4 1146.3,653.8 1149.5,635.9C1155.8,601 1186.8,573.3 1217.1,568.8C1218.5,568.6 1220.1,567.3 1220.9,566.1C1223.6,562 1226.1,557.8 1228.4,553.5C1232.1,547.1 1235.4,540.5 1238.7,534.1ZM931.1,402.6C927.4,400.8 924.5,399.5 923.2,395.6C920.6,387.8 917.4,380.2 914.5,372.5C912,366 909.5,359.5 906.7,353.2C906.2,352.1 904.3,350.9 903,350.9C893.6,350.7 884.2,351 874.8,350.7C869.5,350.5 865.2,350.9 863.7,357.1C863.3,358.7 862.1,360 861.4,361.5C857.1,371.3 853.4,381.4 848.4,390.8C845.8,395.8 846.1,399.4 849,403.5C856.5,414 863.6,424.7 871.6,434.8C880.9,446.6 890.5,458.3 900.8,469.3C906.5,475.4 913.6,477.3 920.2,469.6C927.1,461.5 933.2,452.7 939.5,444.1C940.3,443.1 940.7,441.5 940.7,440.3C940.4,434.8 939.9,429.2 939.4,423.2C941.2,423.6 943,424 944.9,424.3C951.2,425.3 957.6,426.3 963.9,427.3C964.2,427.3 964.6,427.1 965.2,426.9C964.5,426.3 964,425.8 963.3,425.2C973.4,420.9 983.2,416.5 993.3,412.7C999.2,410.5 1003.8,407.2 1006.4,401.3L1004.7,401.3C991.3,401.5 977.9,401.8 964.6,401.8C962,401.8 958.8,401.3 957,399.7C946.3,390.4 937.8,379.6 934.5,365.4C933.6,361.5 934.4,359 938.1,356.8C951.2,349.1 964.1,341 977,333C978,332.4 979.1,330.5 978.9,329.6C974.1,311.6 973.8,293.2 973.8,274.7C973.8,270.3 973.3,269.7 969.1,270.4C963.3,271.4 957.5,272.4 951.6,273.4C947.4,274.2 943.5,275.6 940.4,278.9C929.6,290.1 920.4,302.4 912.8,316C912.1,317.2 912,319 912.1,320.5C913.3,330.1 914.1,339.7 916.1,349.2C918.6,360.9 921.9,372.4 925.1,383.9C926.8,390 928.9,396 931.1,402.6ZM994.9,323.6C998.8,321.2 1002.3,318.6 1006.3,316.8C1027.2,307.2 1048.3,297.9 1069.3,288.4C1070.5,287.9 1071.6,286.2 1071.8,284.9C1072.5,280.7 1072.3,276.3 1073.4,272.3C1076.1,262.7 1073.4,254 1068.3,246.6C1061.6,236.8 1052,229.5 1042.3,222.7C1041.5,222.2 1040.2,221.8 1039.4,222.1C1035.4,223.5 1030.9,224.2 1027.7,226.7C1017.3,234.8 1007.3,243.5 997.3,252.2C995.5,253.8 994.2,256.4 993.7,258.8C989,280.3 989.6,301.8 994.9,323.6ZM895,485.1C894.1,483.2 893.7,481.4 892.7,480.1C887.8,473.3 882.6,466.8 877.8,459.9C867.2,444.9 856.7,429.7 846.3,414.6C844.9,412.6 843.7,411.9 841.3,412.5C831.8,414.6 822.1,416.4 812.6,418.4C811.7,418.6 810.6,419.9 810.3,420.9C807.8,429 805.3,437.1 803,445.3C802.6,446.7 803,448.8 803.9,449.9C813.3,461.8 822.6,473.8 832.5,485.3C838.5,492.3 845.4,498.6 852,505.1C852.7,505.8 854,506.3 855,506.4C860.8,507 866.5,507.7 872.3,508C874.4,508.1 877.2,507.5 878.5,506.2C883.3,501.4 887.8,496.3 892.2,491.1C893.5,489.3 894,487.1 895,485.1ZM888.8,641.8C894.1,642.7 898.9,644.5 903.5,644.1C910.9,643.5 918.2,641.6 925.5,640.1C926.4,639.9 927.2,639.4 928.2,639C924,635.1 924,635.1 926.1,629.6C926.4,628.9 926.4,628 926.2,627.3C923.8,618.8 921.3,610.3 918.7,601.9C917.4,597.8 915.5,593.8 914.4,589.6C913.8,587.6 914.3,585.3 914.3,583.1C914,583 913.6,582.9 913.3,582.8C905.2,602.2 897.2,621.6 888.8,641.8ZM942.7,590.7C944.7,568.9 946.9,547.7 948.6,526.4C949.2,519 948.7,511.5 948.7,504C947.5,504.7 946.9,505.5 946.5,506.4C941.7,519 937.1,531.7 932,544.2C929.3,550.8 928.3,556.6 931.8,563.5C936.1,572.2 939.1,581.5 942.7,590.7ZM792.8,453.2C793.3,448.2 793.3,443.4 794.3,438.8C795,435.7 794.4,433.6 792.6,431.4C787.9,425.4 783.3,419.4 778.6,413.4C775.6,421 774.6,429.3 774.9,438C775.3,447.6 783.6,453.8 792.8,453.2ZM902.6,572.4C894.9,582.4 891.4,594.1 888.7,606C896.8,596.2 901.2,584.9 902.6,572.4ZM956.7,580.4C956.7,595.2 960.8,609 966.8,622.4C963.4,608.4 960.1,594.4 956.7,580.4Z" style="fill:rgb(191,0,70);fill-rule:nonzero;"/>
    </g>
</svg>
