<svg xmlns="http://www.w3.org/2000/svg" version="1.1" xmlns:xlink="http://www.w3.org/1999/xlink" xmlns:svgjs="http://svgjs.com/svgjs" width="512" height="512" x="0" y="0" viewBox="0 0 50 50" style="enable-background:new 0 0 512 512" xml:space="preserve" class=""><g><path fill="#444654" d="m19.318 45.23 6.569-16.341.928.373-6.569 16.342z" data-original="#682f2a" class=""></path><path fill="#444654" d="M25.88 29.26 21.47 18l-11.36-5.96.47-.88 11.69 6.13 4.54 11.61z" data-original="#682f2a" class=""></path><path fill="#444654" d="m10.215 33.245 11.248-15.88.816.578-11.248 15.88z" data-original="#682f2a" class=""></path><path fill="#444654" d="m9.854 11.606 1-.013.285 21.93-1 .013zM25.988 29.42l.739-.675L37.22 40.251l-.739.674z" data-original="#682f2a" class=""></path><path fill="#444654" d="m10.76 34.02-.27-.97 15.62-4.43 12.95-10.36.63.78-13.21 10.52z" data-original="#682f2a" class=""></path><path fill="#444654" d="M39.34 19.15 21.05 18.1l7.46-13.46.88.49-6.7 12.07 16.71.95z" data-original="#682f2a" class=""></path><path fill="#444654" d="m19.58 45.99-9.35-12.15.79-.61 8.94 11.61 16.43-4.65 2.46-21.4L28.77 5.48l-18.25 6.59-.34-.94 18.94-6.84 10.77 14.22-2.59 22.46z" data-original="#682f2a" class=""></path><ellipse cx="10.63" cy="33.53" fill="#00d1d1" rx="7.04" ry="7.05" data-original="#ffb95c" class=""></ellipse><path fill="#444654" d="M10.63 41.08c-4.16 0-7.54-3.39-7.54-7.55s3.38-7.55 7.54-7.55 7.54 3.39 7.54 7.55c0 4.17-3.38 7.55-7.54 7.55zm0-14.09c-3.61 0-6.54 2.94-6.54 6.55s2.94 6.55 6.54 6.55c3.61 0 6.54-2.94 6.54-6.55 0-3.62-2.94-6.55-6.54-6.55z" data-original="#682f2a" class=""></path><ellipse cx="10.35" cy="11.6" fill="#6cd8d5" rx="6.04" ry="6.05" data-original="#6cd8d5" class=""></ellipse><path fill="#444654" d="M10.35 18.15c-3.61 0-6.54-2.94-6.54-6.55s2.94-6.55 6.54-6.55 6.54 2.94 6.54 6.55-2.93 6.55-6.54 6.55zm0-12.1c-3.06 0-5.54 2.49-5.54 5.55s2.49 5.55 5.54 5.55 5.54-2.49 5.54-5.55-2.49-5.55-5.54-5.55z" data-original="#682f2a" class=""></path><ellipse cx="36.84" cy="40.58" fill="#00dbdb" rx="6.04" ry="6.05" data-original="#559aff" class=""></ellipse><path fill="#444654" d="M36.84 47.13c-3.61 0-6.54-2.94-6.54-6.55s2.94-6.55 6.54-6.55 6.54 2.94 6.54 6.55c.01 3.61-2.93 6.55-6.54 6.55zm0-12.1c-3.06 0-5.54 2.49-5.54 5.55s2.49 5.55 5.54 5.55 5.54-2.49 5.54-5.55-2.48-5.55-5.54-5.55z" data-original="#682f2a" class=""></path><circle cx="21.87" cy="17.65" r="2.38" fill="#00d1d1" data-original="#d9baa8" class=""></circle><path fill="#444654" d="M21.87 20.53a2.88 2.88 0 1 1 .001-5.761 2.88 2.88 0 0 1-.001 5.761zm0-4.76c-1.03 0-1.88.84-1.88 1.88s.84 1.88 1.88 1.88 1.88-.84 1.88-1.88-.85-1.88-1.88-1.88z" data-original="#682f2a" class=""></path><circle cx="26.35" cy="29.08" r="2.79" fill="#00f7f7" data-original="#6e9583" class=""></circle><path fill="#444654" d="M26.35 32.37c-1.81 0-3.29-1.48-3.29-3.29s1.48-3.29 3.29-3.29 3.29 1.48 3.29 3.29-1.48 3.29-3.29 3.29zm0-5.58c-1.26 0-2.29 1.03-2.29 2.29s1.03 2.29 2.29 2.29 2.29-1.03 2.29-2.29-1.03-2.29-2.29-2.29z" data-original="#682f2a" class=""></path><circle cx="19.77" cy="45.42" r="3.08" fill="#00a1a2" data-original="#fecd04" class=""></circle><path fill="#444654" d="M19.77 49c-1.98 0-3.58-1.61-3.58-3.58s1.61-3.58 3.58-3.58 3.58 1.61 3.58 3.58S21.75 49 19.77 49zm0-6.17c-1.42 0-2.58 1.16-2.58 2.58S18.35 48 19.77 48s2.58-1.16 2.58-2.58-1.15-2.59-2.58-2.59z" data-original="#682f2a" class=""></path><circle cx="28.95" cy="4.88" r="3.38" fill="#00f7f7" data-original="#abb734" class=""></circle><path fill="#444654" d="M28.95 8.77c-2.14 0-3.88-1.74-3.88-3.88S26.81 1 28.95 1s3.88 1.74 3.88 3.88-1.74 3.89-3.88 3.89zm0-6.77a2.88 2.88 0 1 0 .001 5.761A2.88 2.88 0 0 0 28.95 2z" data-original="#682f2a" class=""></path><ellipse cx="39.37" cy="18.65" fill="#00a1a2" rx="7.04" ry="7.05" data-original="#fa4968" class=""></ellipse><path fill="#444654" d="M39.37 26.19c-4.16 0-7.54-3.39-7.54-7.55s3.38-7.55 7.54-7.55 7.54 3.39 7.54 7.55c.01 4.17-3.38 7.55-7.54 7.55zm0-14.09c-3.61 0-6.54 2.94-6.54 6.55s2.94 6.55 6.54 6.55c3.61 0 6.54-2.94 6.54-6.55.01-3.61-2.93-6.55-6.54-6.55z" data-original="#682f2a" class=""></path><circle cx="39.37" cy="16.74" r="1.98" fill="#ffffff" data-original="#ffffff" class=""></circle><path fill="#444654" d="M39.37 19.23a2.48 2.48 0 1 1 0-4.96 2.48 2.48 0 0 1 0 4.96zm0-3.97c-.82 0-1.48.67-1.48 1.48s.66 1.48 1.48 1.48 1.48-.67 1.48-1.48-.66-1.48-1.48-1.48z" data-original="#682f2a" class=""></path><path fill="#ffffff" d="M42.42 20.26c0 .27-.04.56-.11.85-.2.85-.99 1.42-1.86 1.42H38.3c-.87 0-1.66-.57-1.86-1.42-.06-.3-.1-.58-.1-.85 0-1.17.67-1.83 1.64-2.11.36.36.85.58 1.4.58s1.04-.22 1.4-.58c.97.29 1.64.94 1.64 2.11z" data-original="#ffffff" class=""></path><path fill="#444654" d="M40.45 23.03H38.3c-1.12 0-2.09-.74-2.35-1.8-.08-.37-.12-.69-.12-.97 0-1.29.71-2.21 2-2.59l.29-.08.21.21c.56.56 1.54.56 2.1 0l.21-.21.29.08c1.29.38 2 1.3 2 2.59 0 .3-.04.63-.13.97-.25 1.04-1.24 1.8-2.35 1.8zm-2.59-4.31c-.69.28-1.03.79-1.03 1.55 0 .21.03.46.09.75.14.59.72 1.02 1.38 1.02h2.15c.65 0 1.23-.43 1.37-1.03.07-.27.1-.52.1-.74 0-.76-.34-1.27-1.03-1.55-.87.66-2.17.66-3.03 0z" data-original="#682f2a" class=""></path><circle cx="10.63" cy="31.63" r="1.98" fill="#ffffff" data-original="#ffffff" class=""></circle><path fill="#444654" d="M10.63 34.11a2.48 2.48 0 1 1 0-4.96 2.48 2.48 0 0 1 0 4.96zm0-3.96c-.82 0-1.48.67-1.48 1.48s.66 1.48 1.48 1.48 1.48-.67 1.48-1.48-.67-1.48-1.48-1.48z" data-original="#682f2a" class=""></path><path fill="#ffffff" d="M13.67 35.15c0 .27-.04.56-.11.85-.2.85-.99 1.42-1.86 1.42H9.55c-.87 0-1.66-.57-1.86-1.42-.06-.3-.1-.58-.1-.85 0-1.17.67-1.83 1.64-2.11.36.36.85.58 1.4.58s1.04-.22 1.4-.58c.97.28 1.64.94 1.64 2.11z" data-original="#ffffff" class=""></path><path fill="#444654" d="M11.7 37.92H9.55c-1.12 0-2.09-.74-2.35-1.8-.08-.37-.12-.68-.12-.97 0-1.29.71-2.21 2-2.59l.28-.08.21.21c.56.56 1.54.56 2.1 0l.21-.21.28.08c1.29.38 2 1.3 2 2.59 0 .3-.04.63-.13.97-.23 1.04-1.22 1.8-2.33 1.8zM9.11 33.6c-.69.28-1.03.79-1.03 1.55 0 .22.03.46.09.75.14.59.72 1.03 1.38 1.03h2.15c.65 0 1.23-.44 1.37-1.03.07-.27.1-.52.1-.74 0-.76-.34-1.27-1.03-1.55-.87.66-2.16.66-3.03-.01z" data-original="#682f2a" class=""></path><circle cx="10.35" cy="9.97" r="1.7" fill="#ffffff" data-original="#ffffff" class=""></circle><path fill="#444654" d="M10.35 12.17c-1.21 0-2.2-.99-2.2-2.2s.99-2.2 2.2-2.2 2.2.99 2.2 2.2-.99 2.2-2.2 2.2zm0-3.4c-.66 0-1.2.54-1.2 1.2s.54 1.2 1.2 1.2 1.2-.54 1.2-1.2-.54-1.2-1.2-1.2z" data-original="#682f2a" class=""></path><path fill="#ffffff" d="M12.96 12.99c0 .23-.03.48-.1.73-.17.73-.85 1.22-1.59 1.22H9.42c-.75 0-1.42-.49-1.6-1.22-.05-.25-.09-.5-.09-.73 0-1.01.57-1.57 1.41-1.81.31.31.73.5 1.2.5s.9-.19 1.2-.5c.85.24 1.42.8 1.42 1.81z" data-original="#ffffff" class=""></path><path fill="#444654" d="M11.27 15.44H9.42c-1 0-1.86-.66-2.09-1.6-.07-.33-.1-.6-.1-.85 0-1.14.63-1.96 1.77-2.29l.29-.08.21.21c.46.46 1.25.46 1.7 0l.21-.21.29.08c1.14.34 1.77 1.15 1.77 2.29 0 .26-.04.55-.11.85-.23.92-1.1 1.6-2.09 1.6zm-2.23-3.7c-.55.23-.8.63-.8 1.25 0 .18.03.38.08.63.12.47.58.82 1.11.82h1.85c.53 0 .99-.35 1.11-.83.06-.23.08-.43.08-.62 0-.61-.26-1.01-.8-1.25-.77.56-1.88.56-2.63 0z" data-original="#682f2a" class=""></path><circle cx="36.84" cy="38.95" r="1.7" fill="#ffffff" data-original="#ffffff" class=""></circle><path fill="#444654" d="M36.84 41.15c-1.21 0-2.2-.99-2.2-2.2s.99-2.2 2.2-2.2 2.2.99 2.2 2.2-.98 2.2-2.2 2.2zm0-3.4c-.66 0-1.2.54-1.2 1.2s.54 1.2 1.2 1.2 1.2-.54 1.2-1.2-.54-1.2-1.2-1.2z" data-original="#682f2a" class=""></path><path fill="#ffffff" d="M39.46 41.97c0 .23-.03.48-.1.73-.17.73-.85 1.22-1.59 1.22h-1.85c-.75 0-1.42-.49-1.6-1.22-.05-.25-.09-.5-.09-.73 0-1.01.57-1.57 1.41-1.81.31.31.73.5 1.2.5s.9-.19 1.2-.5c.84.24 1.42.8 1.42 1.81z" data-original="#ffffff" class=""></path><path fill="#444654" d="M37.77 44.42h-1.85c-1 0-1.85-.66-2.09-1.6-.07-.33-.1-.6-.1-.85 0-1.14.63-1.96 1.77-2.29l.29-.08.21.21c.45.46 1.25.46 1.7 0l.21-.21.29.08c1.14.34 1.77 1.15 1.77 2.29 0 .26-.04.55-.11.85-.23.92-1.11 1.6-2.09 1.6zm-2.24-3.7c-.55.23-.8.63-.8 1.25 0 .18.03.38.08.63.12.47.58.82 1.11.82h1.85c.53 0 .99-.35 1.11-.83.06-.23.08-.43.08-.62 0-.61-.26-1.01-.8-1.25-.76.56-1.87.56-2.63 0z" data-original="#682f2a" class=""></path></g></svg>