<?xml version="1.0" encoding="utf-8"?>
<svg viewBox="0 0 500 500" xmlns="http://www.w3.org/2000/svg">
  <path style="fill: rgb(0, 190, 190); stroke-width: 0.913511;" d="M 249.58 0.879 C 223.696 0.896 202.219 0.945 201.846 0.983 C 201.475 1.024 200.265 1.161 199.156 1.293 C 198.042 1.423 195.916 1.844 194.423 2.228 C 192.933 2.61 190.706 3.343 189.473 3.849 C 188.239 4.359 186.402 5.24 185.389 5.805 C 184.372 6.372 182.712 7.422 181.699 8.141 C 180.682 8.858 179.012 10.224 177.992 11.177 C 176.971 12.128 175.494 13.68 174.712 14.622 C 173.925 15.567 172.856 17.002 172.326 17.812 C 171.795 18.627 170.88 20.24 170.292 21.398 C 169.706 22.556 168.967 24.264 168.648 25.189 C 168.331 26.119 167.932 27.398 167.765 28.037 L 167.452 29.195 L 93.411 29.302 L 19.361 29.406 L 17.203 29.966 C 16.015 30.273 14.273 30.858 13.333 31.265 C 12.396 31.676 10.848 32.514 9.895 33.129 C 8.939 33.747 7.5 34.876 6.691 35.633 C 5.882 36.395 4.679 37.746 4.024 38.642 C 3.368 39.54 2.496 40.955 2.086 41.792 C 1.674 42.631 1.13 44.026 0.87 44.895 C 0.618 45.763 0.292 47.416 0.145 48.556 C -0.05 50.14 -0.05 51.162 0.154 52.855 C 0.299 54.076 0.676 55.842 0.989 56.781 C 1.303 57.723 1.961 59.25 2.451 60.174 C 2.939 61.104 3.761 62.381 4.268 63.02 C 4.781 63.66 5.655 64.639 6.214 65.199 C 6.77 65.763 7.835 66.673 8.581 67.221 C 9.323 67.777 10.641 68.607 11.503 69.075 C 12.37 69.544 13.659 70.142 14.366 70.412 C 15.418 70.805 15.657 70.989 15.657 71.392 C 15.657 71.66 22.374 160.198 30.582 268.142 C 38.788 376.086 45.66 465.358 45.849 466.516 C 46.04 467.675 46.45 469.518 46.77 470.607 C 47.083 471.705 47.643 473.314 48.014 474.194 C 48.386 475.072 49.146 476.645 49.708 477.688 C 50.269 478.728 51.282 480.389 51.961 481.376 C 52.638 482.359 53.76 483.833 54.449 484.642 C 55.139 485.455 56.315 486.724 57.061 487.468 C 57.809 488.206 59.328 489.526 60.438 490.4 C 61.547 491.276 63.367 492.551 64.477 493.234 C 65.59 493.92 67.508 494.945 68.742 495.51 C 69.98 496.075 71.896 496.815 73.006 497.161 C 74.119 497.506 76.086 498.007 77.386 498.277 L 79.741 498.762 L 419.803 498.762 L 422.048 498.368 C 423.28 498.152 425.339 497.654 426.625 497.261 C 427.907 496.866 429.905 496.127 431.057 495.613 C 432.211 495.099 434.037 494.14 435.119 493.48 C 436.199 492.816 437.692 491.841 438.431 491.31 C 439.173 490.774 440.618 489.584 441.648 488.658 C 442.672 487.738 444.251 486.123 445.156 485.073 C 446.058 484.022 447.353 482.359 448.032 481.376 C 448.713 480.389 449.726 478.728 450.286 477.688 C 450.843 476.645 451.616 475.034 452.01 474.116 C 452.399 473.193 453.004 471.392 453.353 470.112 C 453.707 468.829 454.104 467.023 454.238 466.093 C 454.37 465.169 461.197 376.086 469.405 268.142 C 477.615 160.198 484.333 71.652 484.333 71.378 C 484.333 70.972 484.536 70.805 485.398 70.508 C 485.986 70.303 487.122 69.802 487.925 69.395 C 488.731 68.984 490.042 68.195 490.851 67.639 C 491.656 67.082 492.875 66.08 493.556 65.403 C 494.241 64.731 495.232 63.623 495.76 62.946 C 496.297 62.265 497.113 60.983 497.582 60.1 C 498.05 59.215 498.651 57.873 498.913 57.121 C 499.178 56.366 499.558 54.751 499.751 53.535 C 500.052 51.681 500.07 50.93 499.859 48.9 C 499.716 47.564 499.393 45.772 499.137 44.909 C 498.881 44.049 498.334 42.652 497.918 41.804 C 497.503 40.963 496.623 39.535 495.968 38.638 C 495.311 37.737 494.039 36.323 493.141 35.485 C 492.243 34.646 490.807 33.526 489.949 32.992 C 489.098 32.46 487.625 31.684 486.675 31.273 C 485.725 30.863 483.975 30.273 482.79 29.966 L 480.608 29.357 L 406.571 29.253 L 332.53 29.145 L 332.124 27.66 C 331.897 26.845 331.394 25.327 331.005 24.29 C 330.617 23.248 329.905 21.663 329.419 20.767 C 328.942 19.867 328.129 18.494 327.621 17.708 C 327.112 16.929 326.227 15.717 325.658 15.024 C 325.092 14.326 324.031 13.139 323.302 12.389 C 322.578 11.634 321.264 10.422 320.385 9.688 C 319.505 8.957 317.739 7.692 316.457 6.882 C 315.171 6.073 313.099 4.949 311.852 4.381 C 310.605 3.817 308.652 3.056 307.513 2.699 C 306.368 2.343 304.503 1.866 303.359 1.646 C 302.214 1.423 300.234 1.141 298.952 1.021 C 297.401 0.87 281.028 0.807 249.571 0.829 L 249.58 0.879 Z M 250.556 15.244 L 299.266 15.285 L 301.021 15.754 C 301.987 16.016 303.403 16.48 304.162 16.8 C 304.926 17.112 306.205 17.742 307.004 18.189 C 307.808 18.642 309.151 19.539 309.991 20.186 C 310.836 20.83 312.179 22.127 312.975 23.062 C 313.774 23.999 314.865 25.571 315.405 26.559 C 315.94 27.543 316.452 28.564 316.537 28.825 L 316.687 29.302 L 183.304 29.302 L 183.458 28.825 C 183.541 28.564 184.049 27.543 184.589 26.559 C 185.124 25.571 186.229 23.991 187.033 23.045 C 187.842 22.098 189.261 20.746 190.185 20.049 C 191.113 19.347 192.549 18.41 193.384 17.953 C 194.215 17.506 195.597 16.869 196.463 16.55 C 197.33 16.228 198.894 15.795 199.942 15.588 L 201.851 15.207 L 250.556 15.244 Z M 249.929 43.643 L 478.702 43.631 L 480.001 44.086 C 480.912 44.407 481.673 44.895 482.556 45.722 C 483.435 46.551 483.957 47.261 484.298 48.119 C 484.606 48.905 484.784 49.821 484.784 50.693 C 484.784 51.544 484.612 52.477 484.32 53.203 C 484.068 53.837 483.406 54.835 482.853 55.416 C 482.265 56.026 481.305 56.714 480.563 57.058 L 479.281 57.648 L 20.752 57.648 L 19.47 57.054 C 18.728 56.709 17.769 56.021 17.183 55.407 C 16.624 54.831 15.962 53.834 15.709 53.195 C 15.422 52.473 15.251 51.535 15.251 50.688 C 15.251 49.813 15.422 48.9 15.732 48.116 C 16.073 47.258 16.594 46.548 17.474 45.717 C 18.318 44.924 19.134 44.395 19.966 44.091 L 21.199 43.651 L 249.929 43.643 Z M 249.995 72.084 L 469.073 72.084 L 469.07 72.452 C 469.07 72.656 462.355 160.975 454.158 268.723 C 441.683 432.594 439.173 464.886 438.792 466.243 C 438.544 467.135 438.032 468.599 437.648 469.496 C 437.264 470.397 436.477 471.883 435.898 472.799 C 435.319 473.716 434.121 475.285 433.241 476.284 C 432.362 477.29 431.089 478.555 430.414 479.094 C 429.736 479.638 428.518 480.522 427.705 481.051 C 426.887 481.588 425.384 482.392 424.358 482.841 C 423.334 483.29 421.84 483.833 421.035 484.044 L 419.577 484.431 L 80.399 484.431 L 78.937 484.044 C 78.138 483.833 76.737 483.335 75.822 482.936 C 74.911 482.542 73.312 481.683 72.264 481.032 C 71.217 480.381 69.475 479.011 68.397 477.998 C 67.314 476.982 65.816 475.289 65.065 474.234 C 64.314 473.181 63.351 471.629 62.926 470.786 C 62.501 469.944 61.896 468.484 61.583 467.542 C 61.263 466.599 60.892 465.035 60.761 464.065 C 60.623 463.044 53.849 374.606 45.705 267.449 C 37.567 160.331 30.903 72.532 30.903 72.354 C 30.903 72.066 54.605 72.034 249.977 72.034 L 249.995 72.084 Z M 174.133 264.098 C 173.448 264.106 172.366 264.242 171.715 264.408 C 171.071 264.57 169.934 264.989 169.192 265.342 C 168.45 265.694 167.125 266.624 166.24 267.398 C 165.361 268.18 164.247 269.363 163.765 270.031 C 163.288 270.694 162.502 271.976 162.025 272.877 C 161.548 273.777 160.902 275.28 160.589 276.217 C 160.275 277.15 159.85 278.716 159.652 279.694 C 159.451 280.669 159.231 282.608 159.156 283.997 C 159.086 285.418 159.143 287.5 159.284 288.736 C 159.425 289.951 159.789 291.85 160.084 292.953 C 160.385 294.056 160.999 295.794 161.459 296.816 C 161.913 297.841 162.793 299.405 163.407 300.293 C 164.03 301.186 165.216 302.542 166.051 303.314 C 167.145 304.326 168.114 304.968 169.537 305.633 L 171.513 306.55 L 176.966 306.55 L 178.955 305.624 C 180.467 304.919 181.331 304.338 182.539 303.201 C 183.413 302.376 184.612 300.973 185.203 300.08 C 185.795 299.189 186.61 297.72 187.016 296.811 C 187.422 295.911 187.912 294.644 188.111 294.01 C 188.302 293.371 188.641 291.997 188.862 290.951 C 189.155 289.574 189.261 288.052 189.261 285.368 C 189.261 282.682 189.155 281.172 188.862 279.812 C 188.647 278.783 188.209 277.172 187.89 276.231 C 187.576 275.288 186.908 273.757 186.415 272.828 C 185.92 271.901 185.137 270.619 184.673 269.985 C 184.215 269.346 183.086 268.159 182.176 267.35 C 181.261 266.538 179.945 265.615 179.246 265.296 C 178.548 264.975 177.391 264.573 176.678 264.399 C 175.962 264.225 174.817 264.089 174.133 264.098 Z M 325.645 264.098 C 324.96 264.106 323.877 264.242 323.227 264.408 C 322.587 264.57 321.45 264.989 320.704 265.342 C 319.962 265.694 318.635 266.624 317.756 267.398 C 316.873 268.18 315.758 269.363 315.277 270.031 C 314.8 270.694 314.014 271.976 313.535 272.877 C 313.058 273.777 312.413 275.28 312.099 276.217 C 311.785 277.15 311.361 278.716 311.162 279.694 C 310.964 280.669 310.743 282.608 310.672 283.997 C 310.596 285.418 310.654 287.5 310.797 288.736 C 310.938 289.951 311.299 291.85 311.596 292.953 C 311.897 294.056 312.515 295.794 312.969 296.816 C 313.426 297.841 314.305 299.405 314.919 300.293 C 315.542 301.186 316.726 302.542 317.561 303.314 C 318.658 304.326 319.626 304.968 321.049 305.633 L 323.023 306.55 L 328.478 306.55 L 330.467 305.624 C 331.977 304.919 332.843 304.338 334.049 303.201 C 334.925 302.376 336.122 300.973 336.716 300.08 C 337.307 299.189 338.12 297.72 338.526 296.811 C 338.933 295.911 339.424 294.644 339.623 294.01 C 339.812 293.371 340.154 291.997 340.374 290.951 C 340.666 289.574 340.771 288.052 340.771 285.368 C 340.771 282.682 340.666 281.172 340.374 279.812 C 340.157 278.783 339.719 277.172 339.402 276.231 C 339.089 275.288 338.421 273.757 337.925 272.828 C 337.432 271.901 336.649 270.619 336.185 269.985 C 335.725 269.346 334.599 268.159 333.688 267.35 C 332.773 266.538 331.456 265.615 330.758 265.296 C 330.059 264.975 328.901 264.573 328.19 264.399 C 327.474 264.225 326.329 264.089 325.645 264.098 Z M 250.556 321.053 C 184.439 321.023 172.22 321.06 170.986 321.31 C 170.183 321.472 168.568 322.049 167.398 322.592 C 165.67 323.393 164.936 323.895 163.541 325.223 C 162.184 326.513 161.596 327.282 160.782 328.826 C 160.125 330.074 159.633 331.384 159.422 332.439 C 159.24 333.348 159.09 334.604 159.09 335.239 C 159.09 335.869 159.249 337.119 159.448 338.012 C 159.642 338.903 160.155 340.539 160.583 341.638 C 161.012 342.737 162.166 345.199 163.151 347.094 C 164.132 348.996 165.581 351.555 166.374 352.793 C 167.164 354.024 168.565 356.046 169.489 357.281 C 170.413 358.517 171.954 360.461 172.914 361.596 C 173.877 362.734 176.435 365.332 178.606 367.373 C 180.771 369.411 183.829 372.036 185.393 373.203 C 186.962 374.37 189.534 376.132 191.116 377.118 C 192.699 378.099 195.296 379.587 196.892 380.424 C 198.484 381.255 200.755 382.361 201.939 382.884 C 203.124 383.403 205.558 384.378 207.349 385.05 C 209.139 385.727 211.9 386.664 213.488 387.137 C 215.069 387.61 217.998 388.378 219.993 388.842 C 221.989 389.307 225.021 389.925 226.731 390.216 C 228.438 390.507 231.42 390.93 233.351 391.154 C 235.283 391.377 238.57 391.673 240.658 391.809 C 243.097 391.971 247.3 392.022 252.443 391.947 C 257.441 391.875 261.697 391.706 263.801 391.49 C 265.653 391.303 268.176 391.009 269.413 390.839 C 270.647 390.668 272.97 390.288 274.575 389.992 C 276.18 389.698 279.109 389.075 281.085 388.603 C 283.059 388.129 286.291 387.221 288.265 386.586 C 290.241 385.947 293.273 384.864 295 384.17 C 296.729 383.481 299.39 382.3 300.909 381.548 C 302.435 380.794 304.587 379.66 305.696 379.029 C 306.806 378.394 308.591 377.324 309.665 376.647 C 310.733 375.972 312.776 374.577 314.194 373.552 C 315.674 372.481 318.689 369.888 321.27 367.462 C 323.851 365.042 326.617 362.207 327.752 360.816 C 328.849 359.482 330.541 357.277 331.513 355.916 C 332.491 354.551 333.998 352.237 334.877 350.767 C 335.747 349.302 337.011 346.967 337.678 345.58 C 338.346 344.195 339.304 341.921 339.808 340.534 C 340.551 338.489 340.745 337.621 340.838 335.979 C 340.914 334.573 340.838 333.458 340.595 332.364 C 340.397 331.476 339.786 329.915 339.204 328.809 C 338.398 327.282 337.794 326.482 336.556 325.309 C 335.677 324.477 334.311 323.439 333.521 323.006 C 332.725 322.575 331.311 321.97 330.378 321.654 L 328.673 321.089 L 250.556 321.053 Z" id="icon"/>
</svg>