<?xml version="1.0" encoding="UTF-8" standalone="no"?>
<svg
   xmlns:dc="http://purl.org/dc/elements/1.1/"
   xmlns:cc="http://creativecommons.org/ns#"
   xmlns:rdf="http://www.w3.org/1999/02/22-rdf-syntax-ns#"
   xmlns:svg="http://www.w3.org/2000/svg"
   xmlns="http://www.w3.org/2000/svg"
   id="svg18"
   xml:space="preserve"
   viewBox="0 0 1024 768"
   y="0px"
   x="0px"
   version="1.1"><metadata
     id="metadata24"><rdf:RDF><cc:Work
         rdf:about=""><dc:format>image/svg+xml</dc:format><dc:type
           rdf:resource="http://purl.org/dc/dcmitype/StillImage" /></cc:Work></rdf:RDF></metadata><defs
     id="defs22" /><g
     transform="translate(-14.56,-0.11263)"
     id="logo-group"><path
       stroke-miterlimit="2"
       class="c1"
       d="m 396.03,383.95 c 0,7.8886 -4.582,14.703 -11.196,17.929 -2.6294,1.3147 -5.5782,2.032 -8.7255,2.032 h -16.933 v -39.843 h 16.973 c 3.1076,0 6.0961,0.71693 8.7264,1.9919 6.6132,3.2673 11.195,10.08 11.156,17.89 z m -9.164,0.0397 c 0,-5.9368 -4.8211,-10.758 -10.758,-10.758 h -7.4903 v 21.515 h 7.6499 c 5.8967,-0.0794 10.638,-4.8608 10.598,-10.758 z"
       style="font-variant-ligatures:normal;fill:#fcfcfc;stroke-width:0;stroke-miterlimit:2"
       id="path12" /><path
       id="polygon15"
       d="M 124.96,124 106.43,75.998 H 93.615 L 75.038,124 h 12.913 l 12.099,-34.417 6.05,17.277 6,17.14 z"
       style="font-variant-ligatures:normal;fill:#fcfcfc;stroke-width:0;stroke-miterlimit:2"
       transform="matrix(0.83,0,0,0.83,337.16,300.99)" /><path
       id="polygon17"
       d="M 107.59,112.2 100.03,124 92.408,112.2 Z"
       style="font-variant-ligatures:normal;fill:#00bebe;stroke-width:0;stroke-miterlimit:2"
       transform="matrix(0.83,0,0,0.83,337.16,300.99)" /><path
       stroke-miterlimit="2"
       class="c1"
       d="m 469.52,364.07 v 8.407 h -11.116 v 31.437 h -9.4826 v -31.437 h -11.196 v -8.407 z"
       style="font-variant-ligatures:normal;fill:#fcfcfc;stroke-width:0;stroke-miterlimit:2"
       id="path20" /><path
       id="rect23"
       d="m 475.54001,364.07001 h 28.209 v 8.407 h -28.209 z"
       style="font-variant-ligatures:normal;fill:#00bebe;stroke-width:0;stroke-miterlimit:2" /><path
       id="polygon25"
       d="M 116.99,113.87 V 124 H 83.007 V 95.151 H 116.47 V 105.28 H 94.384 v 8.59 z"
       style="font-variant-ligatures:normal;fill:#fcfcfc;stroke-width:0;stroke-miterlimit:2"
       transform="matrix(0.83,0,0,0.83,406.64,300.99)" /><path
       stroke-miterlimit="2"
       class="c1"
       d="m 545.44,364.07 v 39.843 h -9.3634 l -16.9,-23.07 v 23.069 h -9.4429 v -39.843 h 8.7255 l 17.531,23.747 v -23.747 z"
       style="font-variant-ligatures:normal;fill:#fcfcfc;stroke-width:0;stroke-miterlimit:2"
       id="path28" /><path
       stroke-miterlimit="2"
       class="c1"
       d="m 584.8,391.86 c 0,7.2917 -5.1802,12.79 -15.938,12.79 -7.6499,0 -12.989,-2.6294 -17.451,-7.132 l 5.1004,-7.1717 0.79677,0.8373 c 1.8326,1.9121 5.8173,5.1 11.993,5.1 4.1435,0 5.9762,-1.7532 5.9762,-3.4667 0,-2.1115 -3.5056,-2.9488 -7.5697,-3.9044 -6.3352,-1.5141 -14.065,-3.5461 -14.424,-12.631 v -1.0756 c 0.19939,-6.4945 5.8967,-11.794 15.1,-11.794 6.3352,0 11.834,1.9125 16.256,6.176 l -5.3391,7.0124 -0.75705,-0.71734 c -2.8288,-2.5897 -6.8135,-4.1038 -10.957,-4.1038 -2.948,0 -4.7012,1.1157 -4.7012,3.0282 0,1.7528 3.307,2.55 7.132,3.4663 6.4941,1.5538 14.423,3.6653 14.782,12.829 v 0.35908 z"
       style="font-variant-ligatures:normal;fill:#fcfcfc;stroke-width:0;stroke-miterlimit:2"
       id="path31" /><path
       stroke-miterlimit="2"
       class="c1"
       d="m 629.35,394.11 c -3.5064,6.2558 -10.24,10.519 -17.969,10.519 -11.395,0 -20.639,-9.2443 -20.639,-20.639 0,-11.3947 9.2435,-20.639 20.639,-20.639 7.7294,0 14.423,4.2234 17.969,10.479 l -8.5659,4.1836 c -1.9526,-3.1076 -5.459,-5.1798 -9.4032,-5.1798 -6.1358,0 -11.117,4.9804 -11.117,11.116 0,6.1362 4.9808,11.117 11.117,11.117 3.9441,0 7.4506,-2.0722 9.4032,-5.1798 z"
       style="font-variant-ligatures:normal;fill:#fcfcfc;stroke-width:0;stroke-miterlimit:2"
       id="path34" /><path
       stroke-miterlimit="2"
       class="c1"
       d="m 671.19,364.07 v 39.843 h -9.4826 v -15.778 h -16.933 v 15.778 h -9.4429 V 364.07 h 9.4429 v 15.659 h 16.933 V 364.07 Z"
       style="font-variant-ligatures:normal;fill:#fcfcfc;stroke-width:0;stroke-miterlimit:2"
       id="path37" /><path
       stroke-miterlimit="2"
       class="c1"
       d="m 720.3,364.07 v 39.843 h -9.4826 v -22.95 l -9.2435,22.95 h -5.7776 l -9.2435,-22.95 v 22.95 h -9.4429 V 364.07 h 11.873 l 9.682,24.065 9.682,-24.065 z"
       style="font-variant-ligatures:normal;fill:#fcfcfc;stroke-width:0;stroke-miterlimit:2"
       id="path40" /><path
       stroke-miterlimit="2"
       class="c1"
       d="m 752.63,364.01 h 9.6026 v 23.906 c 0,9.9211 -5.8173,16.694 -17.97,16.694 -12.152,0 -18.009,-6.8126 -18.009,-16.615 v -23.95 h 9.5624 v 23.667 c 0,5.3391 3.1076,8.407 8.4467,8.407 5.2994,0 8.3673,-3.0679 8.3673,-8.407 v -23.707 z"
       style="font-variant-ligatures:normal;fill:#fcfcfc;stroke-width:0;stroke-miterlimit:2"
       id="path43" /><path
       stroke-miterlimit="2"
       class="c1"
       d="m 799.95,364.07 v 8.407 h -11.116 v 31.437 h -9.4826 v -31.437 h -11.196 v -8.407 z"
       style="font-variant-ligatures:normal;fill:#fcfcfc;stroke-width:0;stroke-miterlimit:2"
       id="path46" /><path
       stroke-miterlimit="2"
       class="c1"
       d="m 836.33,395.51 v 8.407 h -30.361 v -7.65 L 823.5,372.481 h -17.531 v -8.407 h 29.923 v 7.6098 l -17.492,23.826 z m -13.069,-22.711 -0.67762,0.91632 0.55766,-0.75705 z"
       style="font-variant-ligatures:normal;fill:#fcfcfc;stroke-width:0;stroke-miterlimit:2"
       id="path49" /><path
       style="fill:#00bebe;stroke-width:0.75"
       d="m 263.15,334.86 c -4.808,0.003 -8.7982,0.0125 -8.8672,0.0204 -0.0688,0.008 -0.29399,0.0355 -0.5004,0.0613 -0.20642,0.0258 -0.60173,0.10925 -0.879,0.18473 -0.27689,0.0759 -0.69056,0.22059 -0.91988,0.32109 -0.22893,0.10091 -0.57003,0.27522 -0.75855,0.38698 -0.18848,0.11217 -0.49706,0.31984 -0.68554,0.46204 -0.1889,0.14177 -0.49874,0.4124 -0.68847,0.60047 -0.18974,0.18849 -0.46412,0.4954 -0.60965,0.68222 -0.14553,0.18682 -0.34486,0.47079 -0.44328,0.63133 -0.0984,0.16055 -0.26813,0.47956 -0.37696,0.70891 -0.10925,0.22934 -0.24645,0.56712 -0.30566,0.75059 -0.0592,0.18349 -0.13344,0.4366 -0.16472,0.56295 l -0.0575,0.22935 -13.756,0.0208 -13.756,0.0208 -0.40115,0.11093 c -0.22059,0.0609 -0.54376,0.1768 -0.71849,0.25729 -0.17431,0.0809 -0.46204,0.24686 -0.63926,0.36862 -0.17723,0.12218 -0.44494,0.34528 -0.59506,0.4954 -0.15012,0.15012 -0.37322,0.41783 -0.4954,0.59506 -0.12176,0.17722 -0.28398,0.45786 -0.36028,0.62341 -0.0763,0.16597 -0.17723,0.44202 -0.22518,0.61424 -0.0475,0.17181 -0.108,0.4979 -0.1347,0.72392 -0.0363,0.31358 -0.0363,0.51583 0.002,0.85027 0.0271,0.24144 0.0967,0.59131 0.15471,0.77731 0.0584,0.18598 0.18057,0.4883 0.27147,0.67136 0.0909,0.18349 0.24312,0.43702 0.33819,0.56295 0.0951,0.12636 0.25771,0.32067 0.36113,0.4316 0.10342,0.11092 0.30107,0.29107 0.43951,0.3999 0.13845,0.10925 0.38281,0.27397 0.54336,0.36654 0.16054,0.0926 0.3999,0.21142 0.53167,0.26438 0.19557,0.0784 0.23978,0.11425 0.23978,0.19348 0,0.0534 1.2477,17.572 2.7722,38.93 1.525,21.358 2.8014,39.02 2.8369,39.25 0.035,0.22935 0.11175,0.59381 0.17055,0.80985 0.0584,0.21601 0.16305,0.53501 0.23185,0.7089 0.0688,0.17389 0.21017,0.48497 0.314,0.69139 0.10425,0.20641 0.29232,0.53459 0.41867,0.72975 0.12635,0.19473 0.33443,0.4858 0.46245,0.64635 0.12802,0.16054 0.34653,0.41199 0.48497,0.55878 0.13886,0.14637 0.42117,0.40782 0.62759,0.58088 0.20641,0.17263 0.54418,0.42492 0.7506,0.56086 0.20641,0.13553 0.56295,0.33819 0.79229,0.44953 0.22936,0.11134 0.58589,0.25854 0.79231,0.32693 0.20641,0.0684 0.57212,0.16763 0.81314,0.22059 l 0.43786,0.0963 h 63.176 l 0.41699,-0.078 c 0.22936,-0.043 0.61216,-0.14137 0.85066,-0.21935 0.23852,-0.0775 0.60924,-0.22434 0.82357,-0.32567 0.21434,-0.10175 0.55378,-0.2919 0.7548,-0.42242 0.20058,-0.13094 0.47746,-0.32401 0.61507,-0.42951 0.13762,-0.1055 0.40616,-0.34153 0.59715,-0.52417 0.19056,-0.18265 0.48414,-0.50207 0.65219,-0.70932 0.16763,-0.20767 0.40824,-0.5371 0.53459,-0.73183 0.12594,-0.19516 0.31401,-0.52334 0.41825,-0.72975 0.10384,-0.20642 0.2477,-0.52459 0.32025,-0.70682 0.0722,-0.18223 0.18474,-0.53876 0.25021,-0.7923 0.065,-0.25354 0.13886,-0.6109 0.16388,-0.7944 0.0246,-0.18348 1.2927,-17.809 2.818,-39.166 1.525,-21.358 2.773,-38.877 2.773,-38.932 0,-0.0801 0.038,-0.11301 0.19807,-0.17222 0.10884,-0.0404 0.32026,-0.1397 0.46913,-0.22018 0.14929,-0.0809 0.39364,-0.23686 0.54376,-0.34694 0.14971,-0.11009 0.37614,-0.309 0.50249,-0.44244 0.12677,-0.13302 0.31108,-0.35237 0.40991,-0.48664 0.0988,-0.13427 0.25103,-0.38781 0.33819,-0.56295 0.0871,-0.17514 0.19849,-0.44077 0.24728,-0.58963 0.0492,-0.14929 0.11926,-0.4683 0.15596,-0.7089 0.0559,-0.36696 0.0588,-0.51542 0.0192,-0.9174 -0.0259,-0.26397 -0.0859,-0.61883 -0.13344,-0.78938 -0.0476,-0.17055 -0.14929,-0.44702 -0.22686,-0.61424 -0.0772,-0.16722 -0.2406,-0.44953 -0.36237,-0.62675 -0.12218,-0.17765 -0.35861,-0.45828 -0.52542,-0.62384 -0.16679,-0.16597 -0.43326,-0.38781 -0.59213,-0.49331 -0.15847,-0.1055 -0.43243,-0.25854 -0.60882,-0.33986 -0.1764,-0.0813 -0.50124,-0.19807 -0.72183,-0.25896 l -0.405,-0.12075 -13.755,-0.0203 -13.755,-0.021 -0.075,-0.294 c -0.0422,-0.16137 -0.13553,-0.46161 -0.20808,-0.6672 -0.0726,-0.20558 -0.20475,-0.51916 -0.29441,-0.69681 -0.0892,-0.17805 -0.23977,-0.44994 -0.33443,-0.60465 -0.0947,-0.15471 -0.25854,-0.39406 -0.36446,-0.53167 -0.1055,-0.13761 -0.30232,-0.37238 -0.43743,-0.52125 -0.13511,-0.14929 -0.37905,-0.38948 -0.5421,-0.53459 -0.16347,-0.1447 -0.49206,-0.39449 -0.73017,-0.55503 -0.23853,-0.16013 -0.62341,-0.38281 -0.8553,-0.49498 -0.23185,-0.11176 -0.59464,-0.26146 -0.80647,-0.33235 -0.21226,-0.0709 -0.5592,-0.16513 -0.77145,-0.20892 -0.21226,-0.0442 -0.58047,-0.0997 -0.81818,-0.12385 -0.28856,-0.0292 -3.3302,-0.0417 -9.174,-0.0375 z m 0.18181,2.8423 9.0488,0.008 0.32651,0.093 c 0.17931,0.0513 0.44202,0.14386 0.5838,0.20641 0.14136,0.0621 0.37905,0.1864 0.52791,0.27522 0.14929,0.0892 0.39866,0.26688 0.55503,0.3949 0.15638,0.1276 0.40575,0.38406 0.55378,0.56921 0.14845,0.18556 0.35153,0.49665 0.45162,0.6918 0.0996,0.19515 0.19431,0.39698 0.21016,0.44869 l 0.0284,0.0938 h -24.78 l 0.0284,-0.0938 c 0.0159,-0.0517 0.1105,-0.25354 0.21016,-0.44869 0.10008,-0.19516 0.30484,-0.50833 0.45453,-0.69556 0.15012,-0.18723 0.41367,-0.45411 0.58547,-0.59256 0.17222,-0.13845 0.4391,-0.32443 0.5938,-0.41408 0.15429,-0.0892 0.412,-0.21434 0.57255,-0.27814 0.16054,-0.0634 0.45161,-0.14929 0.64635,-0.19057 l 0.35445,-0.0751 z m -0.11634,5.6186 42.501,-0.002 0.24144,0.0901 c 0.1693,0.0634 0.31025,0.15972 0.47413,0.3236 0.16388,0.16388 0.26021,0.30483 0.32359,0.47413 0.058,0.15554 0.0901,0.33651 0.0901,0.50916 0,0.16805 -0.0317,0.35319 -0.0855,0.49665 -0.0471,0.12593 -0.17014,0.32275 -0.27314,0.43743 -0.10884,0.12093 -0.28731,0.25771 -0.42534,0.32526 l -0.23769,0.11677 h -85.185 l -0.23775,-0.11775 c -0.138,-0.0675 -0.3165,-0.204 -0.42525,-0.3255 -0.1035,-0.114 -0.2265,-0.31125 -0.27375,-0.43725 -0.0533,-0.14325 -0.0855,-0.3285 -0.0855,-0.4965 0,-0.17263 0.0321,-0.35361 0.0901,-0.50916 0.0634,-0.1693 0.15971,-0.31024 0.32359,-0.47412 0.1568,-0.1568 0.30858,-0.26229 0.46245,-0.32152 l 0.2295,-0.0877 z m 0.0121,5.6274 h 40.7 l -4.2e-4,0.073 c 0,0.04 -1.2468,17.515 -2.7706,38.834 -2.3176,32.423 -2.7839,38.812 -2.854,39.081 -0.0459,0.1764 -0.14178,0.46621 -0.21267,0.64385 -0.0713,0.17764 -0.21768,0.47163 -0.32568,0.65302 -0.10758,0.1814 -0.32985,0.49207 -0.49331,0.69014 -0.16346,0.19849 -0.3999,0.4487 -0.52542,0.55586 -0.12551,0.10759 -0.35194,0.28189 -0.50332,0.38739 -0.15137,0.10593 -0.43076,0.2648 -0.62133,0.35404 -0.19015,0.0888 -0.46829,0.19599 -0.61716,0.2381 l -0.27105,0.0763 h -63.012 l -0.27105,-0.0767 c -0.14886,-0.0421 -0.40949,-0.14054 -0.57879,-0.21893 -0.16931,-0.078 -0.46704,-0.2477 -0.66137,-0.37697 -0.19432,-0.12927 -0.51791,-0.39949 -0.71849,-0.60006 -0.20058,-0.20099 -0.47913,-0.53584 -0.61883,-0.74476 -0.13969,-0.20892 -0.31858,-0.51583 -0.3974,-0.68221 -0.0788,-0.16639 -0.19099,-0.45537 -0.24978,-0.64177 -0.0588,-0.1864 -0.1276,-0.49623 -0.15262,-0.68805 -0.0255,-0.2025 -1.284,-17.7 -2.7968,-38.902 -1.512,-21.194 -2.7502,-38.566 -2.7502,-38.601 0,-0.0563 4.4036,-0.063 40.7,-0.063 z m -14.093,37.991 c -0.12718,10e-4 -0.32901,0.0288 -0.4491,0.0613 -0.11968,0.0321 -0.33069,0.11551 -0.46871,0.18515 -0.13803,0.0696 -0.38447,0.25312 -0.54835,0.40741 -0.16346,0.15429 -0.37071,0.38823 -0.45996,0.51999 -0.0892,0.13178 -0.23518,0.38532 -0.32359,0.56337 -0.0888,0.17806 -0.20892,0.47539 -0.2673,0.66053 -0.058,0.18515 -0.13636,0.49498 -0.17348,0.68805 -0.0371,0.19349 -0.0784,0.57671 -0.0917,0.85192 -0.0133,0.28065 -0.003,0.69265 0.0238,0.93743 0.0263,0.24061 0.0934,0.61591 0.14846,0.834 0.0555,0.2185 0.17014,0.56253 0.25479,0.76477 0.0847,0.20225 0.24811,0.51208 0.36279,0.68806 0.11509,0.17597 0.33568,0.44493 0.49039,0.59756 0.2035,0.20016 0.38322,0.32734 0.64802,0.4587 l 0.36654,0.18139 h 1.0133 l 0.36988,-0.18306 c 0.28022,-0.13928 0.44119,-0.25479 0.66554,-0.47955 0.16263,-0.16305 0.3853,-0.44077 0.49497,-0.61758 0.11009,-0.17639 0.26146,-0.46704 0.33694,-0.64635 0.0755,-0.17889 0.1668,-0.42867 0.20308,-0.55461 0.0359,-0.12635 0.0993,-0.39823 0.13969,-0.60465 0.0542,-0.27313 0.0742,-0.5742 0.0742,-1.105 0,-0.53125 -0.02,-0.83025 -0.0738,-1.0996 -0.0405,-0.2035 -0.12176,-0.5225 -0.18056,-0.7089 -0.0588,-0.1864 -0.18223,-0.48914 -0.27439,-0.67262 -0.0922,-0.18348 -0.23768,-0.43702 -0.32317,-0.56295 -0.0859,-0.12635 -0.29482,-0.3607 -0.46412,-0.52125 -0.16972,-0.16054 -0.4145,-0.34319 -0.54419,-0.40616 -0.1301,-0.063 -0.34485,-0.14261 -0.47746,-0.17722 -0.13302,-0.0346 -0.34528,-0.0617 -0.47247,-0.0601 z m 28.148,0 c -0.12719,10e-4 -0.32901,0.0288 -0.44911,0.0613 -0.11968,0.0321 -0.33068,0.11551 -0.46871,0.18515 -0.13803,0.0696 -0.38447,0.25312 -0.54835,0.40741 -0.16347,0.15429 -0.37072,0.38823 -0.45996,0.51999 -0.0892,0.13178 -0.23518,0.38532 -0.32359,0.56337 -0.0888,0.17806 -0.20891,0.47539 -0.26729,0.66053 -0.058,0.18515 -0.13636,0.49498 -0.17348,0.68805 -0.0371,0.19349 -0.0784,0.57671 -0.0917,0.85192 -0.0134,0.28065 -0.003,0.69265 0.0238,0.93743 0.0263,0.24061 0.0934,0.61591 0.14846,0.834 0.0554,0.2185 0.17014,0.56253 0.25479,0.76477 0.0846,0.20225 0.24811,0.51208 0.36279,0.68806 0.11509,0.17597 0.33568,0.44493 0.49039,0.59756 0.20349,0.20016 0.38322,0.32734 0.64802,0.4587 l 0.36654,0.18139 h 1.0133 l 0.36988,-0.18306 c 0.28022,-0.13928 0.44119,-0.25479 0.66554,-0.47955 0.16263,-0.16305 0.3853,-0.44077 0.49497,-0.61758 0.11009,-0.17639 0.26146,-0.46704 0.33694,-0.64635 0.0755,-0.17889 0.1668,-0.42867 0.20308,-0.55461 0.0358,-0.12635 0.0992,-0.39823 0.13969,-0.60465 0.0542,-0.27313 0.0743,-0.5742 0.0743,-1.105 0,-0.53125 -0.02,-0.83025 -0.0738,-1.0996 -0.0404,-0.2035 -0.12177,-0.5225 -0.18056,-0.7089 -0.0588,-0.1864 -0.18223,-0.48914 -0.27439,-0.67262 -0.0922,-0.18348 -0.23769,-0.43702 -0.32317,-0.56295 -0.0859,-0.12635 -0.29482,-0.3607 -0.46412,-0.52125 -0.16972,-0.16054 -0.4145,-0.34319 -0.54419,-0.40616 -0.1301,-0.063 -0.34486,-0.14261 -0.47746,-0.17722 -0.13302,-0.0346 -0.34528,-0.0617 -0.47247,-0.0601 z m -13.95,11.27 c -12.284,-0.006 -14.553,0.002 -14.783,0.0509 -0.14886,0.0317 -0.4491,0.14595 -0.66678,0.25354 -0.32067,0.15846 -0.45661,0.25729 -0.7164,0.52041 -0.25229,0.25521 -0.36154,0.40741 -0.51208,0.71265 -0.12218,0.24729 -0.21392,0.50624 -0.25312,0.71474 -0.0338,0.17973 -0.0617,0.4291 -0.0617,0.5542 0,0.1251 0.0296,0.37196 0.0663,0.54876 0.0363,0.17682 0.13136,0.49957 0.21101,0.71766 0.0801,0.21768 0.2944,0.7039 0.47704,1.0796 0.18223,0.37572 0.45161,0.88282 0.59882,1.1267 0.14678,0.24395 0.4074,0.64385 0.57879,0.8886 0.17139,0.24478 0.45787,0.62884 0.63635,0.85403 0.17889,0.22476 0.65469,0.73892 1.0571,1.1426 0.40283,0.40366 0.97035,0.9228 1.2614,1.1538 0.29107,0.2306 0.76935,0.57922 1.0634,0.77393 0.29356,0.19515 0.77647,0.48914 1.0725,0.65427 0.29565,0.16471 0.71807,0.38405 0.93825,0.48705 0.21976,0.103 0.6722,0.29607 1.0046,0.42909 0.33277,0.13303 0.8457,0.31859 1.1401,0.41242 0.2944,0.0938 0.83857,0.24603 1.2093,0.33777 0.37071,0.0917 0.93368,0.21392 1.2514,0.27146 0.31734,0.058 0.87113,0.14137 1.2302,0.18557 0.35903,0.0442 0.96952,0.103 1.3574,0.13011 0.45286,0.0317 1.2339,0.0412 2.1892,0.0271 0.92828,-0.0142 1.7188,-0.0479 2.11,-0.0905 0.34403,-0.0371 0.81315,-0.0951 1.0425,-0.12927 0.22935,-0.0337 0.66095,-0.10883 0.9591,-0.16721 0.29816,-0.058 0.84233,-0.18182 1.2093,-0.27523 0.36696,-0.0934 0.96743,-0.27313 1.3344,-0.39906 0.36696,-0.12594 0.92993,-0.3407 1.251,-0.47747 0.3211,-0.13677 0.81525,-0.37029 1.098,-0.51916 0.28272,-0.14888 0.68262,-0.37322 0.8886,-0.49832 0.20641,-0.1251 0.53792,-0.33694 0.73725,-0.4708 0.19891,-0.13427 0.57797,-0.40991 0.8415,-0.61299 0.27522,-0.21183 0.83565,-0.72515 1.3148,-1.2047 0.47913,-0.47872 0.9933,-1.04 1.2047,-1.3148 0.20308,-0.26396 0.5175,-0.70014 0.69848,-0.96997 0.18098,-0.2698 0.46161,-0.72808 0.62424,-1.0184 0.16222,-0.29023 0.39699,-0.75187 0.52084,-1.0262 0.12427,-0.27439 0.30233,-0.72392 0.39573,-0.9987 0.13761,-0.40449 0.17431,-0.57631 0.19099,-0.90158 0.0142,-0.27814 4.2e-4,-0.49832 -0.0451,-0.71473 -0.0367,-0.17556 -0.15012,-0.48415 -0.25854,-0.7039 -0.14887,-0.3015 -0.26146,-0.45996 -0.49123,-0.6918 -0.16387,-0.16514 -0.41783,-0.3703 -0.56461,-0.45579 -0.14721,-0.0851 -0.40992,-0.20558 -0.5838,-0.26729 l -0.31692,-0.11217 z"
       id="icon" /></g></svg>