<?xml version="1.0" encoding="UTF-8" standalone="no"?>
<svg
   xmlns:dc="http://purl.org/dc/elements/1.1/"
   xmlns:cc="http://creativecommons.org/ns#"
   xmlns:rdf="http://www.w3.org/1999/02/22-rdf-syntax-ns#"
   xmlns:svg="http://www.w3.org/2000/svg"
   xmlns="http://www.w3.org/2000/svg"
   id="svg11"
   xml:space="preserve"
   enable-background="new 0 0 200 200"
   viewBox="0 0 200 200"
   y="0px"
   x="0px"
   version="1.1"><metadata
     id="metadata15"><rdf:RDF><cc:Work
         rdf:about=""><dc:format>image/svg+xml</dc:format><dc:type
           rdf:resource="http://purl.org/dc/dcmitype/StillImage" /></cc:Work></rdf:RDF></metadata><defs
     id="defs88516" /><linearGradient
     spreadMethod="pad"
     y2="30%"
     x2="-10%"
     y1="120%"
     x1="30%"
     id="3d_gradient2-logo-417e6895-15b8-45d8-a5e1-f1331318c8c3"><stop
       id="stop88493"
       stop-opacity="1"
       stop-color="#ffffff"
       offset="0%" /><stop
       id="stop88495"
       stop-opacity="1"
       stop-color="#000000"
       offset="100%" /></linearGradient><linearGradient
     gradientTransform="rotate(-30)"
     spreadMethod="pad"
     y2="30%"
     x2="-10%"
     y1="120%"
     x1="30%"
     id="3d_gradient3-logo-417e6895-15b8-45d8-a5e1-f1331318c8c3"><stop
       id="stop88498"
       stop-opacity="1"
       stop-color="#ffffff"
       offset="0%" /><stop
       id="stop88500"
       stop-opacity="1"
       stop-color="#cccccc"
       offset="50%" /><stop
       id="stop88502"
       stop-opacity="1"
       stop-color="#000000"
       offset="100%" /></linearGradient><path
     style="fill:#00bebe;stroke-width:0.91351074"
     d="m 99.904159,40.013263 c -5.856243,0.004 -10.716395,0.01524 -10.800438,0.02488 -0.0838,0.0096 -0.358077,0.04317 -0.609494,0.07466 -0.251416,0.03149 -0.732919,0.133071 -1.070634,0.225007 -0.33725,0.09244 -0.841106,0.268682 -1.120421,0.391092 -0.27884,0.122913 -0.694314,0.335222 -0.923925,0.471345 -0.229574,0.136624 -0.605429,0.389566 -0.835004,0.562768 -0.230086,0.17269 -0.607466,0.502321 -0.838566,0.731393 -0.2311,0.229574 -0.565308,0.603401 -0.742565,0.830948 -0.177258,0.227546 -0.420042,0.573429 -0.539913,0.768975 -0.119871,0.195546 -0.326589,0.584098 -0.459149,0.86345 -0.133071,0.279352 -0.300179,0.69076 -0.372301,0.914242 -0.07212,0.223481 -0.162532,0.531782 -0.200625,0.685681 l -0.07009,0.279351 -16.7547,0.0254 -16.755614,0.0254 -0.488609,0.135108 c -0.268682,0.07416 -0.662314,0.215351 -0.875134,0.31338 -0.212309,0.09853 -0.562769,0.300682 -0.778631,0.44899 -0.215863,0.14882 -0.541941,0.420553 -0.724789,0.603401 -0.182848,0.182849 -0.454581,0.508926 -0.603401,0.724789 -0.148309,0.215863 -0.345892,0.557689 -0.438832,0.759328 -0.09295,0.202151 -0.215863,0.538387 -0.274273,0.748157 -0.0579,0.209257 -0.131545,0.606443 -0.164057,0.881738 -0.04419,0.381948 -0.04419,0.628286 0.002,1.035647 0.03301,0.294078 0.117834,0.720221 0.188439,0.946763 0.07111,0.226532 0.219928,0.594769 0.330655,0.817738 0.110726,0.223481 0.296114,0.532294 0.41192,0.685681 0.115806,0.1539 0.313891,0.390581 0.439855,0.525689 0.125964,0.135109 0.366711,0.354525 0.535336,0.487084 0.168625,0.133071 0.466265,0.333697 0.661811,0.446451 0.195546,0.112755 0.487084,0.25751 0.647588,0.322013 0.238207,0.09549 0.292049,0.139164 0.292049,0.235667 0,0.06501 1.519717,21.402643 3.37661,47.416681 1.857441,26.01405 3.412145,47.52723 3.455354,47.80676 0.04266,0.27935 0.136123,0.72326 0.207733,0.98641 0.07111,0.2631 0.198597,0.65165 0.282402,0.86345 0.08381,0.2118 0.255984,0.5907 0.38246,0.84212 0.126978,0.25142 0.35605,0.65114 0.50994,0.88885 0.153899,0.23719 0.407343,0.59171 0.563271,0.78726 0.155927,0.19555 0.422078,0.50182 0.590703,0.6806 0.169137,0.17828 0.512991,0.49674 0.764408,0.70752 0.251416,0.21028 0.662825,0.51756 0.914241,0.68315 0.251417,0.16507 0.685681,0.41191 0.965033,0.54753 0.279351,0.13561 0.713616,0.3149 0.965033,0.3982 0.251416,0.0833 0.696853,0.20418 0.990428,0.26868 l 0.533307,0.11733 h 76.94867 l 0.50791,-0.095 c 0.27935,-0.0523 0.74562,-0.17219 1.0361,-0.26716 0.29053,-0.0945 0.74207,-0.27326 1.00313,-0.39668 0.26106,-0.12393 0.67451,-0.35554 0.91936,-0.51451 0.24431,-0.15949 0.58156,-0.39465 0.74917,-0.52315 0.16761,-0.12851 0.4947,-0.41599 0.72733,-0.63845 0.23211,-0.22246 0.58969,-0.61153 0.79438,-0.86396 0.20417,-0.25294 0.49724,-0.65419 0.65114,-0.89138 0.15338,-0.23771 0.38246,-0.63743 0.50943,-0.88885 0.12647,-0.25142 0.3017,-0.63895 0.39007,-0.86091 0.0879,-0.22196 0.22501,-0.65622 0.30475,-0.96503 0.0792,-0.30882 0.16914,-0.74409 0.19961,-0.96759 0.03,-0.22349 1.57453,-21.69132 3.43243,-47.70536 1.85744,-26.014043 3.37761,-47.35274 3.37761,-47.419427 0,-0.09752 0.0462,-0.137647 0.24126,-0.209769 0.13257,-0.04927 0.39008,-0.170151 0.5714,-0.268179 0.18184,-0.09853 0.47947,-0.288496 0.66231,-0.422581 0.18235,-0.134085 0.45815,-0.376367 0.61204,-0.538899 0.15441,-0.16202 0.3789,-0.429185 0.49928,-0.592731 0.12037,-0.163546 0.30576,-0.472358 0.41192,-0.685681 0.10615,-0.213323 0.24176,-0.536861 0.30119,-0.718184 0.0599,-0.181834 0.14526,-0.570387 0.18996,-0.86345 0.068,-0.446963 0.0716,-0.627783 0.0234,-1.117407 -0.0315,-0.32151 -0.10463,-0.753737 -0.16253,-0.96147 -0.0579,-0.207732 -0.18183,-0.54448 -0.27631,-0.748156 -0.094,-0.203676 -0.29306,-0.547531 -0.44137,-0.763393 -0.14882,-0.216375 -0.4368,-0.558192 -0.63997,-0.75984 -0.20316,-0.202151 -0.52773,-0.472359 -0.72123,-0.600862 -0.19301,-0.128504 -0.52671,-0.314906 -0.74156,-0.413948 -0.21484,-0.09904 -0.6105,-0.241259 -0.8792,-0.315417 l -0.49329,-0.147076 -16.75379,-0.02466 -16.75378,-0.02558 -0.0914,-0.358096 c -0.0513,-0.19656 -0.16507,-0.562257 -0.25344,-0.812659 -0.0884,-0.250402 -0.24939,-0.63235 -0.35859,-0.848725 -0.10869,-0.216876 -0.29205,-0.548033 -0.40734,-0.736472 -0.1153,-0.188439 -0.31491,-0.479977 -0.44391,-0.647588 -0.12851,-0.167611 -0.36824,-0.453567 -0.53281,-0.63489 -0.16456,-0.181834 -0.46169,-0.474386 -0.66029,-0.651141 -0.1991,-0.176244 -0.59933,-0.480488 -0.88934,-0.676034 -0.29054,-0.195035 -0.75933,-0.466265 -1.04177,-0.60289 -0.2824,-0.136122 -0.72429,-0.318459 -0.9823,-0.404804 -0.25853,-0.08634 -0.68111,-0.201137 -0.93964,-0.254468 -0.25853,-0.05384 -0.70702,-0.121387 -0.99655,-0.150848 -0.35147,-0.03555 -4.05617,-0.05079 -11.174064,-0.04571 z m 0.221451,3.461932 11.02151,0.0096 0.3977,0.113267 c 0.2184,0.06247 0.53838,0.175229 0.71107,0.251416 0.17218,0.07567 0.46169,0.227035 0.64301,0.335222 0.18184,0.108689 0.48557,0.325064 0.67604,0.480991 0.19047,0.155424 0.4942,0.46779 0.67451,0.6933 0.18081,0.22602 0.42817,0.604926 0.55007,0.842622 0.12138,0.237704 0.23668,0.48353 0.25598,0.546517 l 0.0345,0.11428 H 84.907638 l 0.03454,-0.11428 c 0.0193,-0.06298 0.134596,-0.308813 0.255984,-0.546517 0.121899,-0.237705 0.371287,-0.619141 0.553624,-0.847199 0.182848,-0.228049 0.503847,-0.553113 0.713104,-0.721747 0.20977,-0.168625 0.534834,-0.395157 0.723263,-0.504358 0.187928,-0.10869 0.501819,-0.261063 0.697365,-0.338776 0.195547,-0.0772 0.550071,-0.181834 0.787264,-0.232114 l 0.431725,-0.09142 z m -0.141702,6.843565 51.766822,-0.0026 0.29409,0.109712 c 0.20621,0.0772 0.37788,0.194532 0.57749,0.394143 0.19962,0.199612 0.31694,0.371288 0.39414,0.577495 0.0706,0.189453 0.10971,0.409883 0.10971,0.620164 0,0.20469 -0.0386,0.430199 -0.10412,0.604927 -0.0574,0.153387 -0.20723,0.39312 -0.33268,0.532796 -0.13257,0.147294 -0.34995,0.313891 -0.51807,0.396171 l -0.28951,0.142233 H 48.125229 L 47.835646,53.55038 c -0.168086,-0.08222 -0.385502,-0.248475 -0.517961,-0.396463 -0.126064,-0.138854 -0.27588,-0.379107 -0.333431,-0.532577 -0.06486,-0.174481 -0.10414,-0.400118 -0.10414,-0.604744 0,-0.210272 0.03911,-0.430711 0.109712,-0.620164 0.0772,-0.206216 0.194532,-0.377883 0.394144,-0.577494 0.190978,-0.190979 0.375854,-0.319473 0.56327,-0.391604 l 0.279535,-0.106881 z m 0.01471,6.854254 h 49.572572 l -5.1e-4,0.08888 c 0,0.04876 -1.51862,21.333216 -3.3746,47.299766 -2.82293,39.49197 -3.39086,47.27417 -3.47618,47.6012 -0.0559,0.21486 -0.17269,0.56785 -0.25904,0.78423 -0.0869,0.21637 -0.26514,0.57445 -0.39668,0.79539 -0.13105,0.22094 -0.40176,0.59934 -0.60086,0.84058 -0.1991,0.24177 -0.48709,0.54652 -0.63997,0.67706 -0.15288,0.13104 -0.42868,0.34334 -0.61305,0.47184 -0.18438,0.12902 -0.52468,0.32252 -0.75679,0.43122 -0.23161,0.10818 -0.57039,0.23872 -0.75171,0.29001 l -0.33014,0.093 H 61.62214 l -0.330143,-0.0935 c -0.181323,-0.0513 -0.498768,-0.17117 -0.704984,-0.26665 -0.206216,-0.095 -0.568861,-0.30171 -0.805552,-0.45916 -0.23669,-0.15745 -0.630825,-0.48658 -0.875134,-0.73088 -0.244309,-0.24481 -0.583587,-0.65267 -0.753738,-0.90714 -0.17015,-0.25445 -0.388041,-0.62828 -0.484042,-0.83093 -0.09599,-0.20267 -0.232625,-0.55465 -0.304235,-0.78169 -0.07162,-0.22703 -0.155425,-0.60441 -0.1859,-0.83805 -0.03106,-0.24665 -1.56393,-21.55885 -3.406481,-47.3838 -1.841638,-25.814897 -3.349844,-46.973632 -3.349844,-47.016567 0,-0.06857 5.363587,-0.0767 49.572573,-0.0767 z M 82.832836,103.4469 c -0.154913,0.002 -0.400739,0.035 -0.54702,0.0747 -0.145769,0.0391 -0.402776,0.1407 -0.570889,0.22552 -0.168123,0.0848 -0.468293,0.3083 -0.667904,0.49623 -0.1991,0.18793 -0.45153,0.47287 -0.560229,0.63336 -0.108689,0.16051 -0.286459,0.46932 -0.394143,0.68619 -0.108187,0.21688 -0.254468,0.57902 -0.325576,0.80453 -0.0706,0.22552 -0.166085,0.60289 -0.211295,0.83806 -0.0452,0.23568 -0.09549,0.70244 -0.11174,1.03766 -0.01625,0.34182 -0.0036,0.84364 0.02895,1.14179 0.032,0.29307 0.113769,0.75019 0.18082,1.01583 0.06755,0.26614 0.20723,0.68517 0.310338,0.9315 0.103108,0.24634 0.302208,0.62372 0.441884,0.83806 0.140187,0.21434 0.408869,0.54194 0.597308,0.72784 0.247863,0.2438 0.466767,0.39871 0.789291,0.5587 l 0.446451,0.22094 h 1.234245 l 0.450516,-0.22297 c 0.341315,-0.16965 0.537372,-0.31033 0.810631,-0.5841 0.198085,-0.19859 0.469307,-0.53687 0.602889,-0.75222 0.134086,-0.21485 0.318459,-0.56886 0.410395,-0.78726 0.09194,-0.21789 0.203165,-0.52214 0.247351,-0.67552 0.04368,-0.1539 0.120885,-0.48506 0.170151,-0.73648 0.06603,-0.33268 0.09041,-0.69939 0.09041,-1.34596 0,-0.64708 -0.02438,-1.01126 -0.0899,-1.33939 -0.04926,-0.24786 -0.148308,-0.63642 -0.219927,-0.86345 -0.07162,-0.22704 -0.221956,-0.59578 -0.334208,-0.81927 -0.112252,-0.22348 -0.28951,-0.53229 -0.393632,-0.68568 -0.104633,-0.1539 -0.359092,-0.43934 -0.565308,-0.63489 -0.206718,-0.19554 -0.504861,-0.41801 -0.662825,-0.4947 -0.158467,-0.0767 -0.420041,-0.17371 -0.581559,-0.21586 -0.16202,-0.0422 -0.420553,-0.0752 -0.575466,-0.0731 z m 34.284054,0 c -0.15491,0.002 -0.40074,0.035 -0.54702,0.0747 -0.14576,0.0391 -0.40277,0.1407 -0.57089,0.22552 -0.16812,0.0848 -0.46829,0.3083 -0.6679,0.49623 -0.1991,0.18793 -0.45154,0.47287 -0.56023,0.63336 -0.10869,0.16051 -0.28646,0.46932 -0.39414,0.68619 -0.10818,0.21688 -0.25446,0.57902 -0.32557,0.80453 -0.0706,0.22552 -0.16608,0.60289 -0.21129,0.83806 -0.0452,0.23568 -0.0955,0.70244 -0.11174,1.03766 -0.0163,0.34182 -0.004,0.84364 0.0289,1.14179 0.032,0.29307 0.11378,0.75019 0.18083,1.01583 0.0675,0.26614 0.20723,0.68517 0.31033,0.9315 0.1031,0.24634 0.30221,0.62372 0.44189,0.83806 0.14017,0.21434 0.40887,0.54194 0.5973,0.72784 0.24786,0.2438 0.46677,0.39871 0.7893,0.5587 l 0.44645,0.22094 h 1.23424 l 0.45052,-0.22297 c 0.34131,-0.16965 0.53737,-0.31033 0.81063,-0.5841 0.19808,-0.19859 0.46931,-0.53687 0.60289,-0.75222 0.13408,-0.21485 0.31846,-0.56886 0.41039,-0.78726 0.0919,-0.21789 0.20317,-0.52214 0.24735,-0.67552 0.0437,-0.1539 0.12089,-0.48506 0.17015,-0.73648 0.066,-0.33268 0.0904,-0.69939 0.0904,-1.34596 0,-0.64708 -0.0244,-1.01126 -0.0899,-1.33939 -0.0492,-0.24786 -0.14831,-0.63642 -0.21992,-0.86345 -0.0716,-0.22704 -0.22196,-0.59578 -0.33421,-0.81927 -0.11225,-0.22348 -0.28951,-0.53229 -0.39363,-0.68568 -0.10464,-0.1539 -0.3591,-0.43934 -0.56531,-0.63489 -0.20672,-0.19554 -0.50486,-0.41801 -0.66283,-0.4947 -0.15846,-0.0767 -0.42004,-0.17371 -0.58156,-0.21586 -0.16202,-0.0422 -0.42055,-0.0752 -0.57546,-0.0731 z m -16.9913,13.72641 c -14.961475,-0.007 -17.725758,0.002 -18.005293,0.0619 -0.181322,0.0386 -0.547019,0.17777 -0.812147,0.30881 -0.390581,0.19301 -0.556164,0.31338 -0.872595,0.63388 -0.307287,0.31084 -0.440358,0.49622 -0.623718,0.86801 -0.14882,0.3012 -0.26056,0.61661 -0.3083,0.87056 -0.04115,0.21892 -0.07517,0.52265 -0.07517,0.67502 0,0.15238 0.03606,0.45306 0.08075,0.66841 0.04419,0.21536 0.159993,0.60848 0.257007,0.87412 0.09752,0.26513 0.35859,0.85736 0.581048,1.315 0.221956,0.45763 0.550071,1.07529 0.729365,1.37237 0.178783,0.29712 0.496228,0.78421 0.704984,1.08232 0.208755,0.29815 0.557689,0.76594 0.775077,1.04022 0.217891,0.27376 0.797422,0.90002 1.287594,1.39164 0.490646,0.49166 1.1819,1.12398 1.536433,1.40534 0.354525,0.28088 0.93708,0.7055 1.295176,0.94266 0.357566,0.2377 0.945757,0.59578 1.30632,0.79691 0.360106,0.20062 0.874623,0.46779 1.142802,0.59324 0.267668,0.12545 0.818752,0.36062 1.223556,0.52264 0.405316,0.16203 1.030075,0.38805 1.388628,0.50233 0.35859,0.11428 1.021396,0.29967 1.472945,0.41141 0.45153,0.11174 1.137229,0.26056 1.524284,0.33064 0.386524,0.0706 1.061042,0.17219 1.49834,0.22602 0.437316,0.0538 1.180895,0.12546 1.653272,0.15848 0.551596,0.0386 1.502908,0.0502 2.666542,0.033 1.13065,-0.0173 2.09358,-0.0584 2.57007,-0.11023 0.41903,-0.0452 0.99043,-0.11579 1.26978,-0.15745 0.27935,-0.0411 0.80504,-0.13256 1.1682,-0.20367 0.36315,-0.0706 1.02596,-0.22145 1.47294,-0.33522 0.44696,-0.11378 1.17834,-0.33268 1.62532,-0.48607 0.44696,-0.1534 1.13266,-0.41497 1.52373,-0.58156 0.3911,-0.1666 0.99299,-0.45103 1.33738,-0.63235 0.34437,-0.18133 0.83145,-0.45458 1.08233,-0.60695 0.25142,-0.15238 0.65521,-0.4104 0.89799,-0.57344 0.24227,-0.16355 0.70397,-0.49928 1.02496,-0.74663 0.33522,-0.25802 1.01783,-0.88326 1.60148,-1.46738 0.58358,-0.58308 1.20985,-1.26676 1.46737,-1.60147 0.24735,-0.32151 0.63032,-0.85278 0.85075,-1.18144 0.22044,-0.32862 0.56226,-0.88681 0.76034,-1.24037 0.19759,-0.3535 0.48354,-0.91579 0.63439,-1.24996 0.15136,-0.3342 0.36824,-0.88173 0.48201,-1.21643 0.16761,-0.49267 0.2123,-0.70194 0.23262,-1.09813 0.0173,-0.33877 5.1e-4,-0.60695 -0.0549,-0.87056 -0.0447,-0.21383 -0.18285,-0.58969 -0.31491,-0.85735 -0.18132,-0.36723 -0.31846,-0.56023 -0.59832,-0.84263 -0.1996,-0.20113 -0.50892,-0.45102 -0.68771,-0.55514 -0.17929,-0.10362 -0.49928,-0.25041 -0.71107,-0.32558 l -0.38602,-0.13662 z"
     id="icon" /></svg>