<svg xmlns="http://www.w3.org/2000/svg" version="1.1" xmlns:xlink="http://www.w3.org/1999/xlink" xmlns:svgjs="http://svgjs.com/svgjs" width="512" height="512" x="0" y="0" viewBox="0 0 64 64" style="enable-background:new 0 0 512 512" xml:space="preserve" class=""><g><path fill="#444654" d="M19 46H9v-2h8v-4h2zM17 40H9.586l-3-3H3v-2h4.414l3 3H17zM15 51h6v2h-6zM29 58h-2V47.586l2-2V39h2v7.414l-2 2z" data-original="#454a6d" class=""></path><path fill="#444654" d="M27.293 48.707 23 44.414V32h2v11.586l3.707 3.707zM17 32h2v6h-2zM47.414 42H40v-2h6.586l3-3H57v2h-6.586zM46 55h-2v-8h9v2h-7zM38 57h-2v-8.414l2-2V42h2v5.414l-2 2zM40 40h-2v-4.414l5.293-5.293 1.414 1.414L40 36.414zM57 32h2v5h-2zM29 32h2v5h-2z" data-original="#454a6d" class=""></path><circle cx="18" cy="39" r="2" fill="#00f7f7" data-original="#e89d43" class=""></circle><circle cx="30" cy="38" r="2" fill="#00f7f7" data-original="#e89d43" class=""></circle><circle cx="39" cy="41" r="2" fill="#00f7f7" data-original="#e89d43" class=""></circle><circle cx="37" cy="58" r="2" fill="#00f7f7" data-original="#e89d43" class=""></circle><circle cx="58" cy="38" r="2" fill="#00f7f7" data-original="#e89d43" class=""></circle><circle cx="54" cy="48" r="2" fill="#00f7f7" data-original="#e89d43" class=""></circle><circle cx="45" cy="56" r="2" fill="#00f7f7" data-original="#e89d43" class=""></circle><circle cx="28" cy="59" r="2" fill="#00f7f7" data-original="#e89d43" class=""></circle><circle cx="8" cy="45" r="2" fill="#00f7f7" data-original="#e89d43" class=""></circle><circle cx="14" cy="52" r="2" fill="#00f7f7" data-original="#e89d43" class=""></circle><circle cx="22" cy="52" r="2" fill="#00f7f7" data-original="#e89d43" class=""></circle><g fill="#4ac3ed"><path d="M44.487 10.923c-2.427-3.127-5.393-5.365-8.667-6.354 1.161 1.71 2.135 4.182 2.913 7.136a60.658 60.658 0 0 0 5.754-.782zM38.483 21.749c-.317-2.987-.764-5.639-1.291-7.928C35.47 13.939 33.728 14 32 14s-3.47-.061-5.191-.179c-.527 2.289-.974 4.942-1.291 7.928a84.04 84.04 0 0 0 12.965 0zM24.519 3.979a28.891 28.891 0 0 0-10.727 5.456c1.074.378 2.274.729 3.601 1.042 2.025-2.807 4.446-5.03 7.126-6.498zM32 24c-2.286 0-4.512-.089-6.669-.251A99.978 99.978 0 0 0 25 32h14c0-2.952-.12-5.706-.331-8.251A89.054 89.054 0 0 1 32 24zM19.513 10.923c1.76.331 3.686.597 5.754.782.778-2.954 1.752-5.426 2.913-7.137-3.273.989-6.24 3.228-8.667 6.355zM23.543 21.574c.298-2.803.716-5.485 1.253-7.917a62.43 62.43 0 0 1-6.54-.96c-1.41 2.18-2.586 4.691-3.464 7.449a71.268 71.268 0 0 0 8.751 1.428zM32 12c1.626 0 3.192-.051 4.696-.142C35.296 6.801 33.497 4 32 4s-3.296 2.801-4.696 7.858c1.504.091 3.07.142 4.696.142zM5.871 19.405A28.889 28.889 0 0 0 3 32h8c0-3.647.459-7.144 1.297-10.38-2.354-.631-4.504-1.377-6.426-2.215zM40.648 23.578C40.881 26.341 41 29.187 41 32h10c0-3.484-.437-6.818-1.23-9.897-2.817.653-5.877 1.153-9.122 1.475zM51.911 10.927a33.12 33.12 0 0 1-4.133 1.308c1.361 2.215 2.497 4.716 3.358 7.433 2.213-.59 4.244-1.276 6.047-2.042a29.088 29.088 0 0 0-5.272-6.699zM51.703 21.62A41.478 41.478 0 0 1 53 32h8c0-4.514-1.032-8.786-2.871-12.595-1.922.838-4.072 1.584-6.426 2.215zM45.744 12.698a62.43 62.43 0 0 1-6.54.96c.537 2.431.955 5.114 1.253 7.917a71.433 71.433 0 0 0 8.751-1.427c-.878-2.759-2.053-5.27-3.464-7.45zM39.481 3.979c2.68 1.468 5.101 3.691 7.126 6.497a34.984 34.984 0 0 0 3.601-1.042 28.926 28.926 0 0 0-10.727-5.455zM23.352 23.578c-3.245-.322-6.305-.822-9.122-1.475A39.752 39.752 0 0 0 13 32h10c0-2.813.119-5.659.352-8.422zM16.222 12.235a33.173 33.173 0 0 1-4.133-1.308 29.115 29.115 0 0 0-5.272 6.7c1.803.766 3.834 1.452 6.047 2.042.861-2.718 1.997-5.219 3.358-7.434z" fill="#00a1a2" data-original="#4ac3ed" class=""></path></g></g></svg>