<svg xmlns="http://www.w3.org/2000/svg" version="1.1" xmlns:xlink="http://www.w3.org/1999/xlink" xmlns:svgjs="http://svgjs.com/svgjs" width="512" height="512" x="0" y="0" viewBox="0 0 512.003 512.003" style="enable-background:new 0 0 512 512" xml:space="preserve" class=""><g><path fill="#edf5ff" d="M509.521 247.741c-1.062-1.609-26.494-39.846-70.05-78.464-119.064-105.565-247.789-105.642-366.941 0-43.556 38.618-68.989 76.854-70.05 78.464a15.002 15.002 0 0 0 0 16.52c1.062 1.609 26.494 39.846 70.05 78.464 119.064 105.565 247.789 105.642 366.941 0 43.556-38.618 68.989-76.854 70.05-78.464a15.002 15.002 0 0 0 0-16.52z" data-original="#edf5ff" class=""></path><path fill="#cee8ff" d="M509.52 264.261c-1.06 1.61-26.49 39.85-70.05 78.46-59.56 52.81-121.52 79.21-183.47 79.21V90.071c61.97 0 123.93 26.42 183.47 79.21 43.56 38.61 68.99 76.85 70.05 78.46a14.983 14.983 0 0 1 0 16.52z" data-original="#cee8ff" class=""></path><circle cx="256" cy="256.001" r="90.385" fill="#008585" data-original="#004692" class=""></circle><path fill="#00e9e9" d="M346.38 256.001c0 49.92-40.46 90.38-90.38 90.38v-180.76c49.92 0 90.38 40.46 90.38 90.38z" data-original="#00204d" class=""></path><path fill="#00bebe" d="m331.487 256.001 49.743 10 40.263-10c-.271-91.027-74.404-165-165.494-165l-10 46.769 10 43.231c41.464 0 75.217 33.6 75.488 75z" data-original="#00e97b" class=""></path><path fill="#444654" d="M256 181.001v-90c-91.09 0-165.222 73.973-165.494 165l45.34 10 44.667-10c.271-41.4 34.024-75 75.487-75z" data-original="#ffda2d" class=""></path><path fill="#00bebe" d="M180.5 256.501c0-.168.012-.333.013-.5H90.506c0 .167-.006.333-.006.5 0 91.257 74.243 165.5 165.5 165.5l10-42.615-10-47.385c-41.631 0-75.5-33.869-75.5-75.5z" data-original="#4ec9ff" class=""></path><path fill="#00e9e9" d="M75 60.001H15c-8.284 0-15 6.716-15 15v60c0 8.284 6.716 15 15 15s15-6.716 15-15v-45h45c8.284 0 15-6.716 15-15s-6.716-15-15-15z" data-original="#0066b2" class=""></path><path fill="#008585" d="M497 60.001h-60c-8.284 0-15 6.716-15 15s6.716 15 15 15h45v45c0 8.284 6.716 15 15 15s15-6.716 15-15v-60c0-8.284-6.716-15-15-15zM497 362.001c-8.284 0-15 6.716-15 15v45h-45c-8.284 0-15 6.716-15 15s6.716 15 15 15h60c8.284 0 15-6.716 15-15v-60c0-8.284-6.716-15-15-15z" data-original="#004692" class=""></path><path fill="#00e9e9" d="M75 422.001H30v-45c0-8.284-6.716-15-15-15s-15 6.716-15 15v60c0 8.284 6.716 15 15 15h60c8.284 0 15-6.716 15-15s-6.716-15-15-15z" data-original="#0066b2" class=""></path><path fill="#444654" d="M331.487 256.001c.001.167.013.332.013.5 0 41.631-33.869 75.5-75.5 75.5v90c91.257 0 165.5-74.243 165.5-165.5 0-.167-.006-.333-.006-.5z" data-original="#ff4800" class=""></path></g></svg>